<svg width="270" height="112" viewBox="0 0 270 112" fill="none" xmlns="http://www.w3.org/2000/svg">
<path d="M22.8166 32.7568L17.2921 38.2794C14.236 41.3345 14.236 46.3088 17.2921 49.3638L47.187 79.2486L52.7115 73.726C55.7676 70.6709 55.7676 65.6967 52.7115 62.6416L22.8166 32.7568Z" fill="#67A2C3"/>
<path d="M22.8166 57.105L17.2921 62.6276C14.236 65.6826 14.236 70.6569 17.2921 73.712L29.4773 85.8931C32.5334 88.9481 37.5094 88.9481 40.5655 85.8931L46.09 80.3705L22.8166 57.105Z" fill="#67A2C3"/>
<path d="M47.1621 54.895L52.6866 49.3724C55.7427 46.3174 55.7427 41.3431 52.6866 38.2881L40.5013 26.107C37.4452 23.0519 32.4693 23.0519 29.4132 26.107L23.8887 31.6296L47.1621 54.895Z" fill="#67A2C3"/>
<path d="M91.2605 33.1869C90.7119 32.4819 89.9283 31.9336 88.9488 31.5811C87.9693 31.2286 87.0681 31.0719 86.2061 31.0719C85.6968 31.0719 85.1874 31.1502 84.6389 31.2677C84.0904 31.3852 83.581 31.581 83.1108 31.8161C82.6407 32.0511 82.2489 32.4036 81.9354 32.8344C81.622 33.2652 81.5044 33.7744 81.5044 34.3619C81.5044 35.302 81.8571 36.0461 82.5624 36.5553C83.2676 37.0645 84.1687 37.4953 85.2658 37.8479C86.3629 38.2004 87.5383 38.5528 88.7921 38.9054C90.0459 39.2579 91.2213 39.767 92.3183 40.4329C93.4154 41.0987 94.3166 41.9605 95.0218 43.0571C95.7271 44.1538 96.0797 45.6422 96.0797 47.483C96.0797 49.2456 95.7663 50.7731 95.1002 52.1048C94.4341 53.3973 93.5721 54.494 92.4359 55.3557C91.2997 56.2174 90.0067 56.8441 88.557 57.2749C87.0681 57.7057 85.5401 57.9016 83.8945 57.9016C81.8179 57.9016 79.9372 57.5883 78.1741 56.9616C76.4109 56.3349 74.7654 55.3165 73.2373 53.9065L78.2132 48.4622C78.9185 49.4022 79.8197 50.1465 80.9167 50.6948C82.0138 51.204 83.15 51.4781 84.2863 51.4781C84.8348 51.4781 85.4225 51.3998 86.0102 51.2823C86.598 51.1648 87.1073 50.9298 87.5775 50.6948C88.0476 50.4206 88.4003 50.0681 88.7137 49.6764C88.988 49.2456 89.1447 48.7756 89.1447 48.1881C89.1447 47.248 88.7921 46.4647 88.0477 45.9163C87.3032 45.368 86.4021 44.898 85.305 44.5063C84.208 44.1146 82.9933 43.723 81.7395 43.3313C80.4466 42.9396 79.2711 42.4304 78.1741 41.7646C77.077 41.0987 76.1367 40.2371 75.4314 39.1796C74.687 38.122 74.3344 36.6728 74.3344 34.9494C74.3344 33.2652 74.687 31.7769 75.3531 30.4844C76.0192 29.1918 76.9203 28.1343 78.0566 27.2726C79.1928 26.411 80.4466 25.7451 81.9354 25.3143C83.3851 24.8834 84.9132 24.6484 86.4412 24.6484C88.2435 24.6484 89.9675 24.8834 91.6131 25.3926C93.2979 25.9018 94.7868 26.7634 96.1189 27.9385L91.2605 33.1869Z" fill="#4E4D4D"/>
<path d="M99.5654 41.268C99.5654 38.7221 99.9964 36.4504 100.858 34.3745C101.72 32.2986 102.896 30.5753 104.424 29.1261C105.952 27.6769 107.754 26.5802 109.831 25.7968C111.907 25.0135 114.219 24.6218 116.687 24.6218C119.156 24.6218 121.428 25.0135 123.544 25.7968C125.621 26.5802 127.423 27.6769 128.951 29.1261C130.479 30.5753 131.655 32.3378 132.516 34.3745C133.378 36.4504 133.809 38.7221 133.809 41.268C133.809 43.8139 133.378 46.0856 132.516 48.1615C131.655 50.2373 130.479 51.9607 128.951 53.4099C127.423 54.8591 125.621 55.9558 123.544 56.7391C121.468 57.5225 119.156 57.9142 116.687 57.9142C114.219 57.9142 111.947 57.5225 109.831 56.7391C107.754 55.9558 105.952 54.8591 104.424 53.4099C102.896 51.9607 101.72 50.1982 100.858 48.1615C99.9964 46.1248 99.5654 43.8139 99.5654 41.268ZM106.814 41.268C106.814 42.7564 107.049 44.1272 107.519 45.3414C107.989 46.5947 108.655 47.6523 109.517 48.5531C110.379 49.454 111.437 50.159 112.613 50.6682C113.827 51.1774 115.159 51.4123 116.648 51.4123C118.137 51.4123 119.508 51.1774 120.684 50.6682C121.899 50.159 122.917 49.454 123.779 48.5531C124.641 47.6523 125.307 46.5556 125.777 45.3414C126.248 44.088 126.483 42.7564 126.483 41.268C126.483 39.8188 126.248 38.4479 125.777 37.1946C125.307 35.9412 124.641 34.8445 123.779 33.9437C122.917 33.0428 121.859 32.3378 120.684 31.8286C119.469 31.3194 118.137 31.0845 116.648 31.0845C115.159 31.0845 113.788 31.3194 112.613 31.8286C111.398 32.3378 110.379 33.0428 109.517 33.9437C108.655 34.8445 107.989 35.9412 107.519 37.1946C107.049 38.4479 106.814 39.8188 106.814 41.268Z" fill="#4E4D4D"/>
<path d="M165.21 44.898C165.21 46.778 164.935 48.5014 164.348 50.0681C163.799 51.6348 162.937 53.0057 161.801 54.1807C160.704 55.3557 159.293 56.2566 157.609 56.9224C155.924 57.5883 154.004 57.9016 151.849 57.9016C149.655 57.9016 147.696 57.5883 146.05 56.9224C144.365 56.2566 142.994 55.3557 141.858 54.1807C140.722 53.0057 139.899 51.6348 139.311 50.0681C138.763 48.5014 138.449 46.778 138.449 44.898V25.4318H145.423V44.6238C145.423 45.603 145.58 46.5039 145.894 47.3655C146.207 48.1881 146.638 48.9322 147.226 49.5198C147.774 50.1464 148.479 50.6164 149.263 50.9689C150.047 51.3214 150.909 51.4781 151.849 51.4781C152.789 51.4781 153.612 51.3214 154.396 50.9689C155.179 50.6164 155.845 50.1464 156.394 49.5198C156.943 48.8931 157.413 48.1881 157.726 47.3655C158.04 46.543 158.196 45.603 158.196 44.6238V25.4318H165.171L165.21 44.898Z" fill="#4E4D4D"/>
<path d="M171.663 25.4427H183.927C185.533 25.4427 187.061 25.5994 188.511 25.9128C189.961 26.2261 191.214 26.7353 192.311 27.4795C193.408 28.2237 194.27 29.2029 194.897 30.417C195.524 31.6704 195.877 33.1979 195.877 35.0388C195.877 37.2713 195.289 39.1905 194.114 40.7572C192.938 42.3239 191.253 43.3031 189.02 43.734L197.091 57.0901H188.707L182.085 44.439H178.637V57.0901H171.663V25.4427ZM178.637 38.5638H182.751C183.378 38.5638 184.044 38.5247 184.749 38.4855C185.455 38.4464 186.082 38.2897 186.669 38.0939C187.218 37.8589 187.688 37.5063 188.08 37.0363C188.432 36.5663 188.628 35.9005 188.628 35.0388C188.628 34.2163 188.472 33.5896 188.119 33.1196C187.806 32.6496 187.375 32.2971 186.865 32.0229C186.356 31.7487 185.768 31.592 185.102 31.5137C184.436 31.4354 183.809 31.3962 183.182 31.3962H178.637V38.5638Z" fill="#4E4D4D"/>
<path d="M221.361 33.6743C220.655 32.8517 219.832 32.1859 218.814 31.755C217.834 31.3242 216.659 31.0892 215.366 31.0892C214.034 31.0892 212.819 31.3242 211.722 31.8334C210.586 32.3426 209.645 33.0476 208.823 33.9484C208 34.8493 207.373 35.946 206.903 37.1993C206.433 38.4527 206.198 39.8236 206.198 41.2727C206.198 42.7611 206.433 44.132 206.903 45.3462C207.373 46.5995 208 47.657 208.823 48.5579C209.645 49.4587 210.586 50.1638 211.683 50.6729C212.78 51.1821 213.955 51.4171 215.209 51.4171C216.659 51.4171 217.913 51.1038 219.01 50.5163C220.107 49.9287 221.008 49.0671 221.752 48.0095L227.551 52.3571C226.219 54.2371 224.495 55.608 222.458 56.5089C220.381 57.4098 218.265 57.8406 216.11 57.8406C213.642 57.8406 211.369 57.4489 209.254 56.6655C207.177 55.8822 205.375 54.7855 203.847 53.3363C202.319 51.8871 201.143 50.1246 200.281 48.0879C199.419 46.012 198.988 43.7403 198.988 41.1944C198.988 38.6485 199.419 36.3768 200.281 34.3009C201.143 32.225 202.319 30.5017 203.847 29.0525C205.375 27.6033 207.177 26.5066 209.254 25.7232C211.33 24.9399 213.642 24.5482 216.11 24.5482C217.011 24.5482 217.952 24.6266 218.892 24.7833C219.872 24.9399 220.812 25.2141 221.752 25.5666C222.693 25.9191 223.594 26.3891 224.456 27.0158C225.318 27.6033 226.101 28.3475 226.767 29.2092L221.361 33.6743Z" fill="#4E4D4D"/>
<path d="M231.594 25.4427V57.1292H253.927V50.6666H238.568V44.2431H252.32V37.8197H238.568V31.8662H253.104V25.4427H231.594Z" fill="#4E4D4D"/>
<path d="M83.7858 71.0183H89.898V69.3341H75.832V71.0183H81.9442V87.547H83.7858V71.0183ZM94.5605 78.9302H103.376V77.246H94.5605V71.0575H104.003V69.3733H92.6798V87.5862H104.316V85.902H94.5605V78.9302ZM121.478 83.5911C121.125 84.1394 120.772 84.5703 120.341 84.9228C119.95 85.2753 119.519 85.5494 119.048 85.7453C118.578 85.9411 118.147 86.0978 117.638 86.1762C117.168 86.2545 116.698 86.2936 116.227 86.2936C115.052 86.2936 113.994 86.0978 113.093 85.667C112.153 85.2361 111.369 84.6486 110.742 83.9436C110.115 83.2386 109.606 82.3769 109.253 81.4369C108.901 80.4968 108.744 79.4785 108.744 78.421C108.744 77.3635 108.901 76.3843 109.253 75.4051C109.606 74.4651 110.076 73.6034 110.742 72.8984C111.369 72.1934 112.153 71.6058 113.093 71.175C114.033 70.7442 115.052 70.5483 116.227 70.5483C116.698 70.5483 117.207 70.6267 117.677 70.7442C118.147 70.8617 118.617 71.0575 119.048 71.2925C119.479 71.5275 119.832 71.7625 120.185 72.0759C120.498 72.35 120.772 72.6634 120.968 72.9375L122.575 71.7234C121.752 70.705 120.812 69.9608 119.675 69.4908C118.539 69.0599 117.403 68.825 116.267 68.825C114.895 68.825 113.642 69.06 112.505 69.53C111.33 70 110.35 70.6658 109.488 71.5275C108.626 72.3892 107.96 73.3684 107.49 74.5434C107.02 75.7184 106.785 76.9718 106.785 78.3818C106.785 79.7918 107.02 81.0452 107.49 82.2202C107.96 83.3952 108.626 84.4136 109.488 85.2361C110.35 86.0978 111.33 86.7636 112.505 87.2337C113.681 87.7037 114.934 87.9387 116.267 87.9387C117.011 87.9387 117.755 87.8603 118.422 87.6645C119.088 87.5078 119.715 87.2728 120.302 86.9595C120.89 86.6462 121.399 86.2936 121.869 85.902C122.34 85.4711 122.692 85.0403 123.006 84.5703L121.478 83.5911ZM126.14 87.547H127.982V78.9302H137.934V87.547H139.775V69.3341H137.934V77.246H127.982V69.3341H126.14V87.547ZM147.063 69.2949H144.751V87.5078H146.593V71.9192H146.632L157.485 87.5078H159.797V69.2949H157.955V84.7269H157.916L147.063 69.2949ZM180.014 81.4369C179.661 82.3769 179.191 83.2386 178.525 83.9436C177.898 84.6486 177.114 85.2361 176.174 85.667C175.234 86.0978 174.215 86.2936 173.04 86.2936C171.864 86.2936 170.806 86.0978 169.905 85.667C168.965 85.2361 168.181 84.6486 167.554 83.9436C166.927 83.2386 166.418 82.3769 166.065 81.4369C165.713 80.4968 165.556 79.4785 165.556 78.421C165.556 77.3635 165.713 76.3843 166.065 75.4051C166.418 74.4651 166.888 73.6034 167.554 72.8984C168.181 72.1934 168.965 71.6058 169.905 71.175C170.845 70.7442 171.864 70.5483 173.04 70.5483C174.215 70.5483 175.273 70.7442 176.174 71.175C177.114 71.6058 177.898 72.1934 178.525 72.8984C179.152 73.6034 179.661 74.4651 180.014 75.4051C180.366 76.3451 180.523 77.3635 180.523 78.421C180.523 79.4785 180.366 80.4577 180.014 81.4369ZM181.816 74.5825C181.346 73.4075 180.68 72.3892 179.818 71.5667C178.956 70.705 177.976 70.0392 176.801 69.5691C175.626 69.0991 174.372 68.8641 173.04 68.8641C171.668 68.8641 170.415 69.0991 169.278 69.5691C168.103 70.0392 167.123 70.705 166.261 71.5667C165.399 72.4284 164.733 73.4075 164.263 74.5825C163.793 75.7576 163.558 77.011 163.558 78.421C163.558 79.7918 163.793 81.0844 164.263 82.2594C164.733 83.4344 165.399 84.4528 166.261 85.2753C167.123 86.137 168.103 86.8028 169.278 87.2728C170.454 87.7428 171.707 87.9778 173.04 87.9778C174.411 87.9778 175.665 87.7428 176.801 87.2728C177.976 86.8028 178.956 86.137 179.818 85.2753C180.68 84.4136 181.346 83.4344 181.816 82.2594C182.286 81.0844 182.521 79.831 182.521 78.421C182.521 77.011 182.286 75.7576 181.816 74.5825ZM188.124 69.2949H186.283V87.5078H196.626V85.8236H188.124V69.2949ZM214.375 81.4369C214.023 82.3769 213.553 83.2386 212.887 83.9436C212.26 84.6486 211.476 85.2361 210.536 85.667C209.595 86.0978 208.577 86.2936 207.401 86.2936C206.226 86.2936 205.168 86.0978 204.267 85.667C203.326 85.2361 202.543 84.6486 201.916 83.9436C201.289 83.2386 200.78 82.3769 200.427 81.4369C200.074 80.4968 199.918 79.4785 199.918 78.421C199.918 77.3635 200.074 76.3843 200.427 75.4051C200.78 74.4651 201.25 73.6034 201.916 72.8984C202.543 72.1934 203.326 71.6058 204.267 71.175C205.207 70.7442 206.226 70.5483 207.401 70.5483C208.577 70.5483 209.635 70.7442 210.536 71.175C211.476 71.6058 212.26 72.1934 212.887 72.8984C213.513 73.6034 214.023 74.4651 214.375 75.4051C214.728 76.3451 214.885 77.3635 214.885 78.421C214.885 79.4785 214.728 80.4577 214.375 81.4369ZM216.178 74.5825C215.708 73.4075 215.041 72.3892 214.179 71.5667C213.317 70.705 212.338 70.0392 211.163 69.5691C209.987 69.0991 208.733 68.8641 207.401 68.8641C206.03 68.8641 204.776 69.0991 203.64 69.5691C202.464 70.0392 201.485 70.705 200.623 71.5667C199.761 72.4284 199.095 73.4075 198.625 74.5825C198.155 75.7576 197.919 77.011 197.919 78.421C197.919 79.7918 198.155 81.0844 198.625 82.2594C199.095 83.4344 199.761 84.4528 200.623 85.2753C201.485 86.137 202.464 86.8028 203.64 87.2728C204.815 87.7428 206.069 87.9778 207.401 87.9778C208.773 87.9778 210.026 87.7428 211.163 87.2728C212.338 86.8028 213.317 86.137 214.179 85.2753C215.041 84.4136 215.708 83.4344 216.178 82.2594C216.648 81.0844 216.883 79.831 216.883 78.421C216.922 77.0501 216.648 75.7576 216.178 74.5825ZM235.494 71.2925C234.671 70.47 233.731 69.8433 232.673 69.4516C231.615 69.0599 230.361 68.8641 228.911 68.8641C227.54 68.8641 226.286 69.0991 225.15 69.5691C223.975 70.0392 222.995 70.705 222.133 71.5667C221.271 72.4284 220.605 73.4075 220.135 74.5825C219.665 75.7576 219.43 77.011 219.43 78.421C219.43 79.7918 219.665 81.0844 220.135 82.2594C220.605 83.4344 221.271 84.4528 222.133 85.2753C222.995 86.137 223.975 86.8028 225.15 87.2728C226.326 87.7428 227.579 87.9778 228.911 87.9778C230.009 87.9778 231.184 87.8211 232.438 87.5078C233.652 87.1945 234.789 86.7245 235.807 86.1369V77.2068H229.617V78.891H233.966V85.0011C233.261 85.3928 232.516 85.7061 231.654 85.9411C230.792 86.1761 229.891 86.2936 228.951 86.2936C227.775 86.2936 226.717 86.0978 225.816 85.667C224.876 85.2361 224.092 84.6486 223.465 83.9436C222.838 83.2386 222.329 82.3769 221.976 81.4369C221.624 80.4968 221.467 79.4785 221.467 78.421C221.467 77.3635 221.624 76.3843 221.976 75.4051C222.329 74.4651 222.799 73.6034 223.465 72.8984C224.092 72.1934 224.876 71.6058 225.816 71.175C226.757 70.7442 227.775 70.5483 228.951 70.5483C230.087 70.5483 231.066 70.7442 231.928 71.0967C232.79 71.4884 233.535 71.9975 234.162 72.6242L235.494 71.2925ZM246.504 79.6743L253.321 69.2949H251.009L245.563 77.9118L240.117 69.2949H237.806L244.623 79.6743V87.547H246.464C246.504 87.547 246.504 79.6743 246.504 79.6743Z" fill="#67A2C3"/>
</svg>
