<svg width="375" height="166" viewBox="0 0 375 166" fill="none" xmlns="http://www.w3.org/2000/svg">
<path d="M187.681 0H162.188V46.1839H187.681V0Z" fill="white"/>
<path d="M187.681 134.413H162.188V165.998H187.681V134.413Z" fill="#7F52FF"/>
<path d="M142.364 131.945L117.07 128.737L123.882 74.3695C125.547 61.0786 131.489 48.8463 140.612 39.9257C150.06 30.6884 162.249 25.5995 174.931 25.5995V51.2521C168.921 51.2521 163.041 53.7642 158.377 58.3216C153.388 63.2002 150.12 70.0363 149.176 77.5749L142.364 131.942V131.945Z" fill="#FF6500"/>
<path d="M207.497 131.945L200.685 77.5772C199.741 70.0386 196.473 63.2002 191.484 58.3239C186.822 53.7642 180.942 51.2544 174.93 51.2544V25.5995C187.612 25.5995 199.801 30.6861 209.249 39.9257C218.372 48.844 224.313 61.0763 225.979 74.3695L232.791 128.737L207.497 131.945Z" fill="#7F52FF"/>
<path d="M140.016 123.424L124.047 121.397L124.667 116.444C124.786 115.49 125.085 114.679 125.56 114.008C126.038 113.338 126.642 112.848 127.377 112.539C128.112 112.229 128.939 112.134 129.858 112.25C130.937 112.386 131.828 112.784 132.531 113.438C133.234 114.094 133.682 114.903 133.87 115.866L141.258 113.472L140.985 115.652L133.81 117.939L133.477 120.602L140.259 121.461L140.014 123.421L140.016 123.424ZM131.709 120.38L132.083 117.387C132.186 116.564 132.01 115.873 131.555 115.307C131.1 114.743 130.45 114.406 129.603 114.3C128.741 114.191 128.025 114.353 127.453 114.787C126.881 115.222 126.541 115.85 126.44 116.671L126.066 119.663L131.709 120.38Z" fill="white"/>
<path d="M141.633 110.503L125.664 108.476L126.822 99.2316L128.615 99.458L127.704 106.745L132.648 107.371L133.464 100.856L135.214 101.078L134.398 107.593L140.085 108.314L140.997 101.027L142.791 101.254L141.633 110.498V110.503Z" fill="white"/>
<path d="M143.156 98.3556L127.188 96.3289L127.555 93.4008L134.723 92.2314L128.079 89.2201L128.446 86.292L144.415 88.3188L144.176 90.2346L136.629 89.2779C135.915 89.1877 135.095 89.0722 134.172 88.9335C133.248 88.7949 132.316 88.6423 131.374 88.4782C130.433 88.3142 129.585 88.1547 128.834 87.9999L136.756 91.6444L136.54 93.3615L128.177 94.8267C128.903 94.829 129.677 94.8613 130.499 94.9191C131.322 94.9769 132.178 95.0578 133.069 95.1548C133.96 95.2542 134.888 95.3628 135.851 95.4853L143.398 96.4421L143.159 98.358L143.156 98.3556Z" fill="white"/>
<path d="M144.852 84.8592L143.058 84.6327L143.469 81.3533L131.088 79.7818L130.677 83.0612L128.883 82.8347L129.958 74.2491L131.751 74.4756L131.34 77.755L143.722 79.3265L144.133 76.0471L145.927 76.2736L144.852 84.8592Z" fill="white"/>
<path d="M145.977 73.6367L130.531 69.0817L131.275 66.5257L145.882 65.6775C145.522 65.6012 145.079 65.5065 144.553 65.3886C144.027 65.2731 143.475 65.1413 142.899 64.9934C142.323 64.8455 141.778 64.6976 141.271 64.5474L132.596 61.9891L133.136 60.1356L148.581 64.6907L147.837 67.2467L133.237 68.0741C133.584 68.1457 134.018 68.2428 134.541 68.3653C135.065 68.4877 135.614 68.6241 136.193 68.772C136.771 68.9199 137.32 69.0701 137.842 69.2226L146.516 71.781L145.977 73.6344V73.6367Z" fill="white"/>
<path d="M149.066 63.6022L135.688 54.5983L138.003 51.1133C138.584 50.2397 139.247 49.5995 139.998 49.1882C140.749 48.7768 141.54 48.5966 142.371 48.6497C143.202 48.7029 144.027 49.0033 144.847 49.5556L150.18 53.1447C150.997 53.6947 151.594 54.3487 151.967 55.1068C152.339 55.8648 152.479 56.6713 152.389 57.5264C152.297 58.3815 151.962 59.2458 151.383 60.1194L149.066 63.6045V63.6022ZM148.703 60.956L149.916 59.1303C150.455 58.3191 150.653 57.5311 150.506 56.7661C150.361 56.0011 149.883 55.3471 149.077 54.804L143.744 51.215C142.95 50.6811 142.173 50.4916 141.415 50.6488C140.658 50.8059 140.008 51.2889 139.468 52.1024L138.255 53.9281L148.703 60.9583V60.956Z" fill="white"/>
<path d="M154.968 55.0582L145.258 42.1418L152.642 36.519L153.733 37.9704L147.913 42.4007L150.919 46.3988L156.124 42.4353L157.187 43.8497L151.983 47.8131L155.441 52.4121L161.261 47.9818L162.352 49.4332L154.968 55.0559V55.0582Z" fill="white"/>
<path d="M162.79 49.2344L158.422 33.6464L163.197 32.2922C164.115 32.031 164.977 31.9917 165.774 32.172C166.573 32.3523 167.257 32.7243 167.827 33.2836C168.396 33.8452 168.808 34.5732 169.058 35.4699C169.354 36.5237 169.338 37.5036 169.012 38.4095C168.686 39.3177 168.119 40.0457 167.312 40.5981L172.384 46.512L170.282 47.1083L165.392 41.3492L162.825 42.0771L164.68 48.696L162.793 49.2321L162.79 49.2344ZM162.338 40.3485L165.225 39.5304C166.017 39.3062 166.582 38.8717 166.922 38.2292C167.262 37.5868 167.315 36.8542 167.085 36.0291C166.851 35.1902 166.421 34.5894 165.801 34.2265C165.181 33.866 164.474 33.7967 163.681 34.0208L160.794 34.8389L162.338 40.3485Z" fill="white"/>
<path d="M226.063 109.842C226.192 110.87 226.123 111.79 225.854 112.608C225.586 113.426 225.133 114.087 224.492 114.593C223.852 115.099 223.059 115.411 222.111 115.534L221.863 113.553C222.751 113.44 223.413 113.066 223.845 112.43C224.276 111.795 224.433 111.006 224.315 110.068C224.201 109.158 223.847 108.464 223.254 107.988C222.662 107.512 221.943 107.327 221.095 107.434C220.455 107.514 219.917 107.759 219.488 108.164C219.056 108.568 218.794 109.104 218.7 109.772L218.328 112.301C218.163 113.35 217.742 114.212 217.062 114.887C216.385 115.562 215.535 115.964 214.513 116.093C213.668 116.199 212.901 116.105 212.21 115.804C211.521 115.504 210.953 115.032 210.51 114.388C210.067 113.743 209.789 112.973 209.676 112.079C209.561 111.168 209.64 110.343 209.911 109.601C210.182 108.859 210.609 108.249 211.192 107.773C211.778 107.297 212.485 107.006 213.317 106.9L213.565 108.88C212.837 108.973 212.272 109.299 211.877 109.856C211.479 110.413 211.33 111.08 211.426 111.859C211.523 112.638 211.833 113.239 212.352 113.664C212.871 114.089 213.496 114.256 214.226 114.163C214.809 114.089 215.289 113.868 215.666 113.5C216.043 113.133 216.275 112.652 216.364 112.058L216.75 109.46C216.909 108.353 217.354 107.45 218.089 106.752C218.824 106.054 219.745 105.636 220.854 105.495C221.787 105.377 222.623 105.476 223.358 105.793C224.095 106.109 224.697 106.615 225.17 107.306C225.641 108 225.942 108.846 226.066 109.842H226.063Z" fill="white"/>
<path d="M224.806 101.594L208.837 103.62L207.68 94.3762L209.473 94.1497L210.385 101.436L215.33 100.81L214.515 94.2953L216.265 94.0734L217.08 100.588L222.767 99.8672L221.855 92.5805L223.649 92.354L224.806 101.598V101.594Z" fill="white"/>
<path d="M222.776 85.4116L208.601 87.2096L209.152 91.6122L207.358 91.8387L206.008 81.053L207.802 80.8265L208.353 85.2291L222.528 83.4311L222.776 85.4116Z" fill="white"/>
<path d="M216.912 58.7029L204.168 65.2039L206.161 69.1604L204.549 69.9832L199.664 60.286L201.276 59.4633L203.27 63.4198L216.012 56.9188L216.91 58.7006L216.912 58.7029Z" fill="white"/>
<path d="M210.437 47.7786L198.845 59.0149L197.47 57.5775L202.424 52.7751L198.845 49.0358L193.891 53.8382L192.516 52.4007L204.107 41.1644L205.483 42.6019L200.148 47.774L203.726 51.5133L209.061 46.3412L210.437 47.7786Z" fill="white"/>
<path d="M197.742 36.7041L190.374 51.1042L182.141 46.8403L182.967 45.2226L189.456 48.5828L191.736 44.1248L185.935 41.1182L186.743 39.5397L192.545 42.5464L195.168 37.4182L188.679 34.0579L189.506 32.4402L197.74 36.7041H197.742Z" fill="white"/>
<path d="M251 125.198H101V150.851H251V125.198Z" fill="white"/>
<path d="M106.43 147.008C105.401 147.008 104.5 146.823 103.729 146.453C102.957 146.083 102.362 145.547 101.942 144.845C101.524 144.142 101.312 143.31 101.312 142.349H103.299C103.299 143.25 103.586 143.957 104.158 144.468C104.73 144.979 105.488 145.233 106.43 145.233C107.371 145.233 108.067 144.967 108.611 144.433C109.156 143.902 109.427 143.206 109.427 142.349C109.427 141.697 109.255 141.133 108.908 140.652C108.563 140.172 108.065 139.844 107.419 139.666L104.971 138.977C103.956 138.681 103.159 138.152 102.578 137.392C101.997 136.629 101.708 135.732 101.708 134.697C101.708 133.839 101.898 133.084 102.282 132.434C102.663 131.783 103.2 131.277 103.892 130.914C104.583 130.551 105.375 130.371 106.273 130.371C107.171 130.371 107.989 130.551 108.687 130.914C109.385 131.277 109.932 131.778 110.329 132.423C110.727 133.065 110.924 133.809 110.924 134.653H108.94C108.94 133.913 108.69 133.31 108.191 132.846C107.69 132.379 107.052 132.148 106.273 132.148C105.495 132.148 104.863 132.381 104.376 132.846C103.892 133.313 103.648 133.913 103.648 134.653C103.648 135.245 103.807 135.751 104.121 136.174C104.438 136.594 104.882 136.888 105.456 137.05L107.968 137.759C109.041 138.055 109.875 138.614 110.472 139.435C111.067 140.255 111.365 141.228 111.365 142.351C111.365 143.299 111.163 144.119 110.759 144.815C110.355 145.51 109.78 146.049 109.039 146.435C108.297 146.818 107.426 147.012 106.425 147.012L106.43 147.008Z" fill="black"/>
<path d="M114.719 146.786V130.59H123.979V132.409H116.68V137.424H123.207V139.199H116.68V144.967H123.979V146.786H114.719Z" fill="black"/>
<path d="M130.925 146.786V132.409H126.516V130.59H137.319V132.409H132.91V146.786H130.925Z" fill="black"/>
<path d="M156.097 146.786V132.409H151.688V130.59H162.491V132.409H158.082V146.786H156.097Z" fill="black"/>
<path d="M165.312 146.786V130.59H167.297V137.512H172.455V130.59H174.44V146.786H172.455V139.331H167.297V146.786H165.312Z" fill="black"/>
<path d="M178.25 146.786V130.59H187.51V132.409H180.211V137.424H186.739V139.199H180.211V144.967H187.51V146.786H178.25Z" fill="black"/>
<path d="M203.674 146.786V130.59H208.635C209.59 130.59 210.429 130.787 211.148 131.177C211.867 131.57 212.427 132.113 212.824 132.809C213.222 133.504 213.419 134.318 213.419 135.249C213.419 136.345 213.139 137.283 212.581 138.066C212.023 138.85 211.281 139.398 210.353 139.707L213.637 146.784H211.455L208.302 139.906H205.633V146.784H203.672L203.674 146.786ZM205.636 138.11H208.635C209.457 138.11 210.119 137.847 210.619 137.322C211.118 136.798 211.368 136.107 211.368 135.247C211.368 134.387 211.118 133.68 210.619 133.162C210.119 132.645 209.457 132.386 208.635 132.386H205.636V138.11Z" fill="black"/>
<path d="M216.617 146.786V130.59H225.877V132.409H218.579V137.424H225.106V139.199H218.579V144.967H225.877V146.786H216.617Z" fill="black"/>
<path d="M228.784 146.786V130.59H231.716L233.767 137.602L235.906 130.59H238.839V146.786H236.921V139.132C236.921 138.408 236.932 137.576 236.953 136.636C236.976 135.698 237.008 134.745 237.052 133.784C237.095 132.823 237.148 131.958 237.206 131.189L234.603 139.552H232.883L230.391 131.388C230.479 132.113 230.545 132.89 230.589 133.717C230.632 134.544 230.662 135.411 230.676 136.312C230.69 137.214 230.699 138.154 230.699 139.13V146.784H228.781L228.784 146.786Z" fill="black"/>
<path d="M242.297 146.786V144.967H245.581V132.409H242.297V130.59H250.896V132.409H247.611V144.967H250.896V146.786H242.297Z" fill="black"/>
<path d="M223.662 61.3074C235.629 61.3074 245.331 51.5451 245.331 39.5027C245.331 27.4603 235.629 17.698 223.662 17.698C211.694 17.698 201.992 27.4603 201.992 39.5027C201.992 51.5451 211.694 61.3074 223.662 61.3074Z" fill="#FF6500"/>
<path d="M217.312 48.3008V46.1099H222.567V30.8871L217.312 34.8389V32.0888L221.692 28.8048H224.958V46.1122H229.258V48.3031H217.315L217.312 48.3008Z" fill="white"/>
</svg>
