<svg width="270" height="112" viewBox="0 0 270 112" fill="none" xmlns="http://www.w3.org/2000/svg">
<path d="M104.548 40.3801C108.469 40.3801 111.218 41.8087 113.197 44.4096L113.306 44.5562L113.343 44.6294V41.1493H120.599V68.0009H113.343V64.5208L113.306 64.5941C111.401 67.1584 108.763 68.6603 104.951 68.7336H104.768H104.585C97.7691 68.7336 92.4189 62.8724 92.4189 54.5568C92.3822 46.2413 97.7324 40.3801 104.548 40.3801ZM159.296 40.3801C163.217 40.3801 165.965 41.8087 167.944 44.4096L168.054 44.5562L168.091 44.6294V41.1493H175.346V68.0009H168.091V64.5208L168.054 64.5941C166.148 67.1584 163.51 68.6603 159.699 68.7336H159.516H159.332C152.517 68.7336 147.166 62.8724 147.166 54.5568C147.13 46.2413 152.48 40.3801 159.296 40.3801ZM225.33 40.3801C233.575 40.3801 239.402 46.0581 239.402 54.5568C239.402 63.0555 233.575 68.7336 225.33 68.7336C217.085 68.7336 211.258 63.0555 211.258 54.5568C211.258 46.0215 217.085 40.3801 225.33 40.3801ZM240.208 41.1127H248.819L254.976 50.1243H255.122L261.279 41.1127H269.89L260.472 54.4469L270 67.9643H261.242L255.122 58.8428H254.976L248.856 67.9643H240.098L249.626 54.4469L240.208 41.1127ZM71.6412 41.1127V50.2342L81.9751 41.1127H92.8953L80.1428 52.0292L92.4555 67.9643H83.3676L74.866 56.535L71.6779 59.2824V67.9643H64.3123V41.1127H71.6412ZM137.675 41.1127H144.821V47.2303H137.675V60.6378C137.675 61.4071 137.968 61.81 138.628 61.8467H138.701H138.775H144.198V67.9643H136.466C132.802 67.9643 130.346 65.5099 130.31 61.8467V61.7001V47.2303H123.787V41.1127H130.31H137.675ZM196.747 40.6731C202.977 40.6731 207.191 45.1789 207.264 51.8094V51.9925V67.9276H199.898V52.2856C199.898 48.5857 198.103 46.7541 194.695 46.7541C190.92 46.7541 188.685 49.355 188.648 53.8974V54.044V67.891H181.246V41.0394H188.502V44.776V44.7393C189.858 42.2117 192.386 40.6731 196.307 40.5999H196.49L196.747 40.6731ZM106.527 46.7907C102.46 46.7907 99.7479 49.758 99.7479 54.5202C99.7479 59.319 102.46 62.2496 106.527 62.2496C110.595 62.2496 113.306 59.2824 113.306 54.5202C113.343 49.758 110.595 46.7907 106.527 46.7907ZM161.311 46.7907C157.244 46.7907 154.532 49.758 154.532 54.5202C154.532 59.319 157.244 62.2496 161.311 62.2496C165.379 62.2496 168.091 59.2824 168.091 54.5202C168.091 49.758 165.342 46.7907 161.311 46.7907ZM225.33 46.9006C221.299 46.9006 218.661 49.8312 218.661 54.5202C218.661 59.2458 221.336 62.1397 225.33 62.1397C229.324 62.1397 231.999 59.2091 231.999 54.5202C231.999 49.8312 229.361 46.9006 225.33 46.9006Z" fill="white"/>
<path d="M33.4201 48.7689L40.2361 54.5935L15.0977 75.6571H1.53907L33.4201 48.7689ZM34.263 62.3962L49.8371 75.6571H34.8859L26.6042 68.8068L34.263 62.3962ZM48.3346 33.4199L16.4536 60.3081L9.78417 54.5935L34.9226 33.4199H48.3346ZM15.0977 33.4199L23.4161 40.3435L15.7573 46.7541L0 33.4199H15.0977Z" fill="white"/>
</svg>
