<svg width="24" height="24" viewBox="0 0 24 24" fill="none" xmlns="http://www.w3.org/2000/svg">
<g clip-path="url(#clip0_1949_87332)">
<path d="M11.1665 -0.0010376H9.16648V3.9986H11.1665V-0.0010376ZM15.1866 -0.0010376H13.1866V3.9986H15.1866V-0.0010376ZM1.84673 24H22V22H1.84673V24ZM7.18674 0.000312402H5.18674V4H7.18674V0.000312402ZM19.01 6.01001L15.3467 6V6.01001L3.00675 6.01001L3.83677 15.81C4.23673 18.92 6.23674 20.01 8.66673 20.01H11.6867C14.1167 20.01 16.1167 18.92 16.5167 15.81L16.6667 14.01L18.85 14.02C20.59 14.02 22 12.61 22 10.86V9.01001C22 7.34998 20.66 6.01001 19.01 6.01001ZM14.5267 15.6C14.2967 17.33 13.4967 18.01 11.6868 18.01H8.66673C6.85673 18.01 6.05674 17.33 5.82676 15.6L5.18674 8.01001L15.1667 8.01001L14.5267 15.6ZM20 10.86C20 11.5 19.49 12.02 18.85 12.02L16.8467 12.01L17.1868 8L19.01 8.01001C19.56 8.01001 20 8.46002 20 9.01001V10.86Z" fill="black"/>
</g>
<defs>
<clipPath id="clip0_1949_87332">
<rect width="24" height="24" fill="white"/>
</clipPath>
</defs>
</svg>
