<svg xmlns="http://www.w3.org/2000/svg" width="170" height="57" fill="none" viewBox="0 0 170 57"><path fill="#34b4e3" fill-rule="evenodd" d="M117.582.071c-6.707 1.042-10.874 6.256-10.874 13.606 0 8.032 5.164 13.48 12.783 13.489 7.678.008 12.791-5.363 12.806-13.453.013-7.352-4.121-12.627-10.664-13.61-.806-.12-3.349-.14-4.051-.032M8.796 2.064c-.35.98-.773 2.171-.942 2.646C7.178 6.617.053 26.542.006 26.66s.117.126 2.859.126h2.91l1.717-5.204c.945-2.862 2.464-7.456 3.376-10.209l1.659-5.005.127.396.521 1.62c.217.674.628 1.954.911 2.845.285.892.691 2.155.903 2.809.212.653.52 1.626.686 2.16.495 1.602 1.585 4.996 1.654 5.15.035.08.327.97.649 1.98s.703 2.202.848 2.648l.262.81h3.007c2.373 0 3.001-.02 2.978-.09a505 505 0 0 0-1.049-2.971l-1.44-4.07a1575 1575 0 0 0-2.23-6.301A3608 3608 0 0 1 18.3 7.555l-2.213-6.248-.366-1.026H9.43zm18.687 11.504v13h5.33V17.89c0-4.773.024-8.678.054-8.678s.641.948 1.359 2.107c.717 1.158 2.342 3.775 3.61 5.815l4.073 6.554 1.767 2.845 2.887.018 2.887.02V.569h-5.33v8.715c0 4.793-.024 8.714-.055 8.714-.03 0-1.22-1.872-2.642-4.159L37.67 7.807 34.847 3.27 33.187.605 30.336.586 27.483.568zm27.008-.003V26.57h6.25c7.15 0 7.46-.02 9.184-.583 4.866-1.59 7.564-6.055 7.569-12.525C77.499 6.7 74.57 2.368 69.04.962c-1.326-.337-1.356-.338-8.12-.37l-6.43-.03zm27.08.004v13h5.69V16.402l3.403.031c3.747.035 3.912.052 4.746.496 1.374.733 1.865 2.116 2.183 6.147.116 1.477.246 2.344.454 3.025l.131.432 2.866.018c1.577.01 2.854-.005 2.839-.035-.631-1.233-.844-2.346-.961-5.025-.139-3.188-.665-4.852-1.916-6.062-.491-.475-.932-.735-1.746-1.032-.208-.076-.204-.08.432-.398 4.87-2.443 4.675-10.053-.323-12.561C97.639.57 97.64.57 88.899.569h-7.328zm54.664 0v13h5.69v-26h-5.69zm10.731-.004V26.57h6.25c7.138 0 7.463-.02 9.169-.578 4.711-1.54 7.414-5.789 7.604-11.954.214-6.922-2.796-11.616-8.366-13.045-1.493-.382-1.35-.376-8.229-.404l-6.428-.026zm-26.611-8.744c3.912.44 6.212 3.694 6.227 8.805.017 5.981-3.465 9.548-8.46 8.663-3.534-.625-5.658-3.858-5.652-8.6.008-5.928 3.102-9.408 7.885-8.868m-25.253.376c1.665.504 2.346 1.525 2.34 3.51-.005 2.003-.804 3.104-2.546 3.51-.373.086-1.206.115-4.052.143l-3.583.036v-7.37l3.727.027c3.18.023 3.784.044 4.114.144m-29.369.276c4.133.535 6.045 3.22 6.043 8.49-.001 3.981-1.492 6.605-4.249 7.479-1.01.32-1.204.335-4.321.336l-2.989.002-.018-8.193-.018-8.192h2.473c1.363 0 2.746.035 3.08.078m92.475 0c4.067.526 5.903 2.983 6.024 8.06.112 4.737-1.548 7.374-5.13 8.15-.315.069-1.241.095-3.421.095l-2.989.002-.018-8.193-.018-8.192h2.473c1.364 0 2.746.035 3.079.078" clip-rule="evenodd"/><path fill="#343434" fill-rule="evenodd" d="M10.703 30.355c0 .024.1.422.224.884l.423 1.596c.178.68.292 1.11.783 2.952.368 1.383.621 2.341.838 3.17l.502 1.908.764 2.88a4274 4274 0 0 1 3.275 12.37l.049.198h2.904c2.704 0 2.907-.008 2.94-.125.021-.07.33-1.326.687-2.791.357-1.466.928-3.8 1.268-5.186.341-1.386.766-3.12.944-3.853 1.463-6 1.391-5.725 1.464-5.645.032.035 1.04 4.01 2.24 8.832l2.183 8.768h5.706l.406-1.53c.224-.842.8-2.989 1.28-4.771 1.11-4.12 2.206-8.198 2.389-8.895.078-.297.284-1.059.457-1.692.758-2.773 2.412-8.971 2.412-9.039 0-.05-.91-.068-2.785-.055l-2.786.019-.122.504a1145 1145 0 0 0-.826 3.457c-.14.594-.369 1.55-.506 2.124-.138.575-.392 1.645-.566 2.377-.459 1.937-1.019 4.294-1.413 5.942-.19.792-.453 1.902-.586 2.467-.132.564-.26 1.026-.285 1.026-.04 0-.577-2.14-3.674-14.638l-.817-3.295H27.79c-1.476 0-2.684.018-2.684.04 0 .037-.26 1.068-1.449 5.721l-1.933 7.563c-.238.93-.584 2.292-.769 3.025-.426 1.686-.38 1.635-.597.681-.19-.834-.7-3.042-.831-3.598l-.283-1.189a185 185 0 0 1-.326-1.404c-.16-.703-.783-3.388-1.556-6.698a922 922 0 0 1-.717-3.097l-.23-1.008-2.857-.02c-1.57-.01-2.856.002-2.856.025m36.803 12.959v13H67.24V51.56H53.195v-6.41l6.32-.019 6.32-.018V40.72l-6.32-.019-6.32-.018V35.14h13.757v-4.825H47.506zm23.623 0v13h19.734V51.56H76.819v-6.41h12.603v-4.465H76.82v-5.546h13.755v-4.825H71.13zm23.623 0v13h5.761v-8.392l1.639-1.633 1.639-1.634 3.781 5.646a1059 1059 0 0 1 3.889 5.83l.108.182h3.587c2.85 0 3.577-.018 3.535-.09-.029-.05-.511-.738-1.073-1.53l-7.7-10.862c-1.259-1.775-2.277-3.24-2.263-3.255.06-.065 5.71-5.763 7.836-7.904l2.343-2.358h-7.154l-2.935 3.115a1844 1844 0 0 1-3.588 3.8c-.36.378-1.141 1.205-1.735 1.837-.594.633-1.266 1.345-1.493 1.583l-.413.432-.001-5.384-.002-5.383h-5.761zm26.36 0v13h18.365V51.56H126.8V30.314h-5.689zm13.396-12.854c.043.08 1.993 3.329 4.334 7.22s4.462 7.42 4.714 7.844l.458.77v10.02h5.69V46.36l2.15-3.576c1.182-1.966 3.34-5.553 4.797-7.969l2.68-4.447c.018-.03-1.404-.054-3.159-.053h-3.191l-.727 1.242c-.779 1.329-4.296 7.302-4.924 8.361-.312.528-.394.622-.469.54-.078-.082-1.094-1.785-3.603-6.039-.245-.416-.893-1.51-1.438-2.43l-.993-1.675h-3.198c-3.188 0-3.198 0-3.121.146" clip-rule="evenodd"/></svg>