<svg xmlns="http://www.w3.org/2000/svg" width="170" height="54" fill="none" viewBox="0 0 170 54"><g clip-path="url(#clip0_9147_23243)"><path fill="#4285f4" d="M21.962 24.737v-5.689h19.521c.2 1.002.315 2.197.315 3.488 0 4.266-1.198 9.55-5.049 13.308-3.748 3.81-8.539 5.841-14.89 5.841C10.095 41.687.204 32.34.204 20.86S10.094.034 21.86.034c6.507 0 11.141 2.488 14.629 5.74l-4.112 4.012c-2.5-2.286-5.883-4.063-10.515-4.063-8.59 0-15.306 6.756-15.306 15.137s6.716 15.136 15.306 15.136c5.57 0 8.746-2.184 10.775-4.164 1.656-1.613 2.743-3.929 3.166-7.096z"/><path fill="#ea4335" d="M71.548 28.276c0 7.72-6.195 13.41-13.796 13.41s-13.795-5.688-13.795-13.41c0-7.772 6.194-13.411 13.795-13.411s13.795 5.639 13.795 13.41m-6.038 0c0-4.826-3.591-8.127-7.756-8.127-4.164 0-7.757 3.301-7.757 8.127 0 4.774 3.59 8.127 7.757 8.127 4.163 0 7.756-3.353 7.756-8.127"/><path fill="#fbbc05" d="M101.643 28.276c0 7.72-6.194 13.41-13.795 13.41s-13.795-5.688-13.795-13.41c0-7.772 6.194-13.411 13.795-13.411s13.795 5.639 13.795 13.41m-6.037 0c0-4.826-3.591-8.127-7.756-8.127s-7.758 3.301-7.758 8.127c0 4.774 3.591 8.127 7.758 8.127 4.163 0 7.756-3.353 7.756-8.127"/><path fill="#4285f4" d="M130.488 15.68v24.077c0 9.904-5.986 13.968-13.067 13.968-6.664 0-10.672-4.37-12.183-7.925l5.259-2.133c.938 2.185 3.227 4.776 6.924 4.776 4.529 0 7.341-2.744 7.341-7.873v-1.93h-.207c-1.355 1.624-3.958 3.047-7.238 3.047-6.871 0-13.171-5.841-13.171-13.359 0-7.57 6.3-13.46 13.171-13.46 3.28 0 5.883 1.422 7.238 2.998h.207v-2.187zm-5.309 12.648c0-4.724-3.227-8.179-7.341-8.179-4.165 0-7.652 3.455-7.652 8.179 0 4.673 3.487 8.077 7.652 8.077 4.112-.002 7.341-3.404 7.341-8.077"/><path fill="#34a853" d="M140.717 1.588v39.285h-6.039V1.588z"/><path fill="#ea4335" d="m164.039 32.694 4.685 3.047c-1.511 2.185-5.155 5.943-11.453 5.943-7.808 0-13.638-5.893-13.638-13.411 0-7.976 5.883-13.41 12.963-13.41 7.132 0 10.621 5.537 11.766 8.533l.624 1.524-18.376 7.416c1.405 2.693 3.593 4.064 6.663 4.064 3.069.002 5.204-1.47 6.766-3.706m-14.422-4.826 12.287-4.978c-.677-1.677-2.707-2.845-5.102-2.845-3.071.002-7.339 2.643-7.185 7.823"/></g><defs><clipPath id="clip0_9147_23243"><path fill="#fff" d="M0 0h170v53.968H0z"/></clipPath></defs></svg>