<svg xmlns="http://www.w3.org/2000/svg" width="200" height="55" fill="none" viewBox="0 0 200 55"><path fill="#010002" d="M161.478 24.35v11.03a7.5 7.5 0 0 0-2.244-1.487 7.45 7.45 0 0 0-3.024-.549 8.3 8.3 0 0 0-3.744.86 8.5 8.5 0 0 0-2.859 2.293 10.5 10.5 0 0 0-1.83 3.436 14.2 14.2 0 0 0-.641 4.295 16.7 16.7 0 0 0 .572 4.569 9.8 9.8 0 0 0 1.603 3.35 6.86 6.86 0 0 0 2.484 2.073 6.9 6.9 0 0 0 3.167.71 8.06 8.06 0 0 0 3.856-.858 10.8 10.8 0 0 0 2.93-2.346l.433 2.02a1.2 1.2 0 0 0 1.273.918h3.111V24.35zm10.166 0v30.314h5.077V24.349zm-74.44.489a17.7 17.7 0 0 0-6.422 1.107 13.7 13.7 0 0 0-4.86 3.093 13.8 13.8 0 0 0-3.095 4.776 16.5 16.5 0 0 0-1.091 6.1 15.9 15.9 0 0 0 1.125 6.056 13.6 13.6 0 0 0 3.224 4.777 14.8 14.8 0 0 0 5.044 3.117c2.107.771 4.34 1.15 6.586 1.118a18.9 18.9 0 0 0 5.485-.765 15.8 15.8 0 0 0 4.828-2.415v-11.93h-9.913v3.1a.98.98 0 0 0 .303.721 1.13 1.13 0 0 0 .866.3h3.744v5.353a14.5 14.5 0 0 1-2.53.936c-.96.242-1.948.358-2.938.344a11.5 11.5 0 0 1-4.178-.721 8.85 8.85 0 0 1-3.205-2.096 9.5 9.5 0 0 1-2.055-3.367 13.1 13.1 0 0 1-.728-4.52c-.02-1.46.208-2.912.675-4.296a9.5 9.5 0 0 1 1.933-3.28 8.5 8.5 0 0 1 3.033-2.097 10.4 10.4 0 0 1 3.986-.738c.802-.008 1.603.052 2.394.18q.952.17 1.87.472.791.264 1.516.671l1.361.78c.374.264.839.37 1.292.294a1.5 1.5 0 0 0 .971-.723l1.586-2.49a16 16 0 0 0-2.038-1.572c-.776-.487-1.6-.893-2.461-1.211a17 17 0 0 0-2.919-.782 19 19 0 0 0-3.39-.292m25.408 8.513a5.02 5.02 0 0 0-3.207 1.03 9.1 9.1 0 0 0-2.348 2.982l-.303-2.362a1.21 1.21 0 0 0-.434-1.008 1.23 1.23 0 0 0-1.074-.256h-2.982v20.918h5.088V41.77a9.5 9.5 0 0 1 .744-1.485c.253-.415.565-.792.928-1.117a3.8 3.8 0 0 1 1.188-.705c.481-.169.988-.25 1.498-.24q.594.001 1.18.103.454.087.917.104a.87.87 0 0 0 .53-.156.97.97 0 0 0 .294-.524l.329-3.772a3.95 3.95 0 0 0-2.348-.626m12.999 0a12.63 12.63 0 0 0-8.762 3.299l.997 1.614c.154.25.358.466.599.636.25.184.555.28.867.275a2.26 2.26 0 0 0 1.125-.284l1.119-.644a8.5 8.5 0 0 1 1.428-.636 6.3 6.3 0 0 1 2.047-.292 3.35 3.35 0 0 1 2.599 1.014c.658.9.966 2.004.867 3.11v1.27c-1.434.022-2.865.14-4.282.353a21 21 0 0 0-3.275.765c-.83.257-1.625.615-2.367 1.065a7.3 7.3 0 0 0-1.567 1.35 4.5 4.5 0 0 0-.866 1.494 4.8 4.8 0 0 0-.27 1.59 6.2 6.2 0 0 0 .451 2.464c.283.68.722 1.286 1.283 1.77a5.4 5.4 0 0 0 1.949 1.074c.8.244 1.633.363 2.47.352.695.007 1.389-.056 2.072-.19a9 9 0 0 0 1.733-.556 9.4 9.4 0 0 0 1.577-.912q.818-.585 1.567-1.255l.452 1.512c.097.35.314.653.615.86.35.158.734.232 1.119.214h2.286V41.461a9.9 9.9 0 0 0-.519-3.265 7.3 7.3 0 0 0-1.534-2.577 7.1 7.1 0 0 0-2.469-1.674 8.7 8.7 0 0 0-3.311-.593m54.902.064a11.3 11.3 0 0 0-3.947.812 9.5 9.5 0 0 0-3.189 2.208 9.7 9.7 0 0 0-2.003 3.282 11.5 11.5 0 0 0-.7 4.028 13.6 13.6 0 0 0 .805 4.88 10.2 10.2 0 0 0 2.201 3.513 9.2 9.2 0 0 0 3.293 2.14c1.31.489 2.7.733 4.1.72a16 16 0 0 0 2.261-.17c.791-.11 1.569-.298 2.322-.56a10.4 10.4 0 0 0 2.194-1.065 8.5 8.5 0 0 0 1.889-1.64l-1.475-1.856a1.06 1.06 0 0 0-.952-.471 1.96 1.96 0 0 0-.97.283c-.312.189-.729.402-1.18.634q-.752.382-1.559.627c-.69.21-1.41.308-2.132.293a6.5 6.5 0 0 1-2.253-.378 4.8 4.8 0 0 1-1.733-1.143 5.8 5.8 0 0 1-1.195-1.94 10 10 0 0 1-.572-2.784h13.076a1.03 1.03 0 0 0 .945-.396 3.3 3.3 0 0 0 .25-1.537 11 11 0 0 0-.683-4.029 8.6 8.6 0 0 0-1.908-2.981 8 8 0 0 0-2.903-1.848 11.3 11.3 0 0 0-3.982-.622m.453 3.603a5.4 5.4 0 0 1 1.882.379 3.8 3.8 0 0 1 1.414 1.031c.391.44.686.954.866 1.512a6.2 6.2 0 0 1 .278 1.848l-9.619-.01a6.07 6.07 0 0 1 1.611-3.522 5.42 5.42 0 0 1 3.568-1.238m-33.56.164a5.5 5.5 0 0 1 2.192.43 4.94 4.94 0 0 1 1.88 1.47l.009 9.38a8.2 8.2 0 0 1-2.097 1.856 5.24 5.24 0 0 1-2.695.652 4.4 4.4 0 0 1-1.794-.36 3.2 3.2 0 0 1-1.352-1.16 6 6 0 0 1-.867-2.079 14 14 0 0 1-.295-3.11 12.6 12.6 0 0 1 .347-3.153 6.2 6.2 0 0 1 1.014-2.208 4.1 4.1 0 0 1 1.578-1.289 4.8 4.8 0 0 1 2.08-.43m-18.909 8.548v3.514a8.2 8.2 0 0 1-2.227 1.718 6.1 6.1 0 0 1-2.714.557 3.4 3.4 0 0 1-2.061-.576 2.18 2.18 0 0 1-.797-1.889 2.1 2.1 0 0 1 .397-1.245 3.2 3.2 0 0 1 1.292-1.005 10 10 0 0 1 2.408-.696 27 27 0 0 1 3.702-.378"/><path fill="url(#paint0_linear_9539_29016)" d="M62.755.002a11.96 11.96 0 0 0-8.324 3.17 1.15 1.15 0 0 0-.364.808c.001.305.122.598.337.817l1.482 1.52a1.14 1.14 0 0 0 1.481.102 6.78 6.78 0 0 1 4.083-1.347A6.85 6.85 0 0 1 65.248 6.2a6.77 6.77 0 0 1 2.522 3.033 6.7 6.7 0 0 1 .39 3.912 6.73 6.73 0 0 1-1.875 3.464C56.84 25.973 44.23-.263 15.615 13.233a3.9 3.9 0 0 0-1.275.95 3.85 3.85 0 0 0-.946 2.948c.056.53.222 1.042.488 1.505l4.905 8.41a3.9 3.9 0 0 0 2.334 1.785 3.92 3.92 0 0 0 2.927-.35l.121-.068-.096.068 2.175-1.211a50 50 0 0 0 6.846-5.069 1.21 1.21 0 0 1 1.57 0 1.1 1.1 0 0 1 .424.86 1.13 1.13 0 0 1-.372.858 51.3 51.3 0 0 1-7.219 5.309h-.07l-2.174 1.203c-.92.517-1.96.786-3.017.782a6.3 6.3 0 0 1-3.111-.821 6.23 6.23 0 0 1-2.288-2.246L12.201 20.2C3.293 26.436-2.115 38.454.788 53.702c.052.255.19.485.392.65s.455.259.717.261h5.286a1.13 1.13 0 0 0 1.119-.98 7.65 7.65 0 0 1 2.56-4.792 7.78 7.78 0 0 1 5.117-1.917c1.884 0 3.704.682 5.118 1.917a7.65 7.65 0 0 1 2.56 4.793c.035.27.17.52.377.7s.474.28.75.28h5.147c.275 0 .54-.1.747-.28s.338-.43.372-.7a7.66 7.66 0 0 1 2.57-4.779 7.8 7.8 0 0 1 5.112-1.909c1.881 0 3.698.679 5.112 1.91a7.66 7.66 0 0 1 2.57 4.778c.034.27.166.519.372.699s.47.28.745.28h5.088a1.12 1.12 0 0 0 1.126-1.101c.121-7.104 2.054-15.264 7.566-19.353C80.4 20.002 75.385 7.864 70.965 3.457a11.95 11.95 0 0 0-8.21-3.455M51.17 21.027a2.256 2.256 0 0 1 .322 3.854v-.009l-3.64-1.812a2.28 2.28 0 0 1 1.084-1.937 2.3 2.3 0 0 1 2.234-.096"/><defs><linearGradient id="paint0_linear_9539_29016" x1="17" x2="55.5" y1="5.5" y2="55" gradientUnits="userSpaceOnUse"><stop stop-color="#25a1c4"/><stop offset="1" stop-color="#4dc9c0"/></linearGradient></defs></svg>