<svg xmlns="http://www.w3.org/2000/svg" width="600" height="280" fill="none" viewBox="0 0 600 280"><path fill="url(#paint0_linear_4061_24871)" d="M127.268 86c24.319 0 44.055 19.986 44.055 44.655 0 34.579-27.658 62.591-61.756 62.591H64.581V86z"/><mask id="mask0_4061_24871" width="109" height="108" x="64" y="86" maskUnits="userSpaceOnUse" style="mask-type:luminance"><path fill="#fff" d="M172.291 86H64.5v107.347h107.785V86z"/></mask><g mask="url(#mask0_4061_24871)"><path fill="url(#paint1_linear_4061_24871)" fill-rule="evenodd" d="M157.798 97.487h-.018c-8.219-7.926-18.929-11.741-29.538-11.47a.1.1 0 0 0-.065 0 65 65 0 0 0-1.073-.011H64.506v107.483h74.203c49.931-45.216 33.434-82.176 19.089-96.002M91.944 172.31l-12.613-6.066v-.023c-.071-4.323 3.398-7.873 7.739-7.938 4.34-.071 7.916 3.372 7.976 7.696.041 2.575-1.186 4.872-3.102 6.331m50.447-29.288c-18.513 19-41.326-3.142-76.213-15.81v-39.54h51.473a40.66 40.66 0 0 0-16.77 9.727 3.95 3.95 0 0 0-1.192 2.787c0 1.051.427 2.055 1.186 2.794l5.236 5.049a3.9 3.9 0 0 0 5.1.278 23.44 23.44 0 0 1 13.977-4.867c12.952-.201 23.62 10.082 23.815 22.975.101 6.443-2.431 12.319-6.612 16.607" clip-rule="evenodd"/></g><path fill="#000" d="M524.781 181.222c0 3.408 9.281 1.571 9.281 7.193 0 3.119-3.084 4.932-6.292 4.932-3.013 0-6.126-1.618-6.772-5.215h3.398c.284 1.86 1.986 2.787 3.54 2.787 1.553 0 2.894-.832 2.894-2.504 0-3.195-9.281-1.169-9.281-7.051 0-3.072 2.87-4.837 5.835-4.837 2.799 0 5.646 1.547 6.292 5.049h-3.422c-.26-1.713-1.725-2.598-3.083-2.598-1.246 0-2.39.738-2.39 2.238zm-20.092-1.837h-7.537v4.146h6.363v2.788h-6.363v4.146h7.537v2.787H493.95v-16.655h10.739zm-28.44 13.867h-3.208v-16.655h3.208zm-29.384-8.865h9.139v.408c0 5.906-3.879 8.67-7.822 8.67s-8.35-3-8.35-8.528 4.116-8.552 8.255-8.552c3.35 0 6.725 1.978 7.917 6.266h-3.398c-.979-2.215-2.87-3.29-4.715-3.29-2.461 0-4.833 1.932-4.833 5.576s2.728 5.528 5.314 5.528c1.915 0 3.753-1.046 4.352-3.29h-5.859zm-40.205.55c0-5.694 4.234-8.552 8.444-8.552s8.445 2.858 8.445 8.552-4.211 8.528-8.445 8.528-8.444-2.859-8.444-8.528m3.232 0c0 3.714 2.609 5.575 5.212 5.575s5.213-1.861 5.213-5.575-2.61-5.576-5.213-5.576-5.212 1.861-5.212 5.576m-26.217 5.528h7.798v2.787h-11.006v-16.655h3.208zm-37.094-5.528c0-5.694 4.234-8.552 8.444-8.552s8.445 2.858 8.445 8.552-4.21 8.528-8.445 8.528c-4.234 0-8.444-2.859-8.444-8.528m3.226 0c0 3.714 2.609 5.575 5.213 5.575s5.212-1.861 5.212-5.575-2.609-5.576-5.212-5.576c-2.604 0-5.213 1.861-5.213 5.576m-23.411-8.339h3.185v15.721a1.15 1.15 0 0 1-1.151 1.146 1.17 1.17 0 0 1-.907-.431l-7.964-10.152v10.365h-3.208v-15.698c0-.644.527-1.17 1.174-1.17.361 0 .694.166.931.431l7.94 9.958v-10.176zm-30.955-.001h3.184v16.655h-3.184v-6.933h-6.843v6.933h-3.209v-16.655h3.209v6.934h6.843zm-39.885 8.34c0 3.815 2.461 5.74 4.951 5.74 1.892 0 3.778-1.122 4.59-3.431h3.398c-1.198 4.241-4.59 6.243-7.964 6.243-4.116 0-8.207-2.977-8.207-8.552s4.091-8.576 8.207-8.576c3.374 0 6.772 2.026 7.964 6.267h-3.398c-.812-2.31-2.704-3.455-4.619-3.455-2.461 0-4.928 1.954-4.928 5.764zm-19.434-5.552h-7.537v4.146h6.363v2.788h-6.363v4.146h7.537v2.787h-10.739v-16.655h10.739zm-39.244-2.788h12.127v2.788h-4.471v13.867h-3.185v-13.867h-4.471zm270.784-9.455h-14.445V86h14.445zM427.949 86h14.445v52.374c0 15.846-12.975 28.774-28.891 28.774s-29.004-12.922-29.004-28.774c0-19.442 13.088-28.998 25.843-28.998 6.547 0 12.975 2.474 17.607 7.418zm-14.446 67.995c7.899 0 14.446-6.969 14.446-15.621s-6.547-15.733-14.446-15.733-14.558 6.969-14.558 15.733c0 8.765 6.546 15.621 14.558 15.621m-37.235-15.845v24.61c0 2.363-1.922 4.27-4.288 4.27-1.239 0-2.485-.673-3.273-1.683l-5.758-7.193c-4.626 5.847-11.623 8.876-18.733 8.876-12.75 0-25.844-9.555-25.844-28.998 0-15.958 12.975-28.774 29.004-28.774s28.892 12.81 28.892 28.886zm-14.44 0v-.112c0-8.652-6.547-15.733-14.446-15.733s-14.558 7.081-14.558 15.733 6.547 15.734 14.558 15.734c8.012 0 14.333-6.969 14.446-15.622m-64.958-21.131c4.513-4.943 10.834-7.53 17.262-7.642v13.377c-10.383 0-16.586 4.158-16.586 13.377v31.018H283.1v-53.39c0-2.362 2.028-4.382 4.4-4.382 1.24 0 2.372.449 3.274 1.346zm-66.476 6.939h43.331v1.919c0 28.018-18.378 41.123-37.093 41.123s-39.589-14.233-39.589-40.444c0-26.21 19.516-40.556 39.138-40.556 15.881 0 31.875 9.379 37.55 29.713h-16.106c-4.65-10.507-13.61-15.592-22.345-15.592-11.682 0-22.914 9.149-22.914 26.435s12.934 26.211 25.185 26.211c9.073 0 17.808-4.973 20.643-15.592H230.4v-13.217zm289.654 22.455c-2.597 4.689-7.833 7.129-13.081 7.129-6.66 0-13.539-3.934-14.897-12.249h42.43v-1.684c-.563-20.564-14.671-30.232-28.666-30.232s-28.435 10.004-28.435 28.774c0 18.769 15.122 28.998 29.906 28.998 10.698 0 21.301-5.315 25.92-16.442l-13.171-4.288zm-13.87-24.114c5.189 0 10.384 2.811 12.637 8.316H493.31c2.484-5.505 7.673-8.316 12.862-8.316z"/><defs><linearGradient id="paint0_linear_4061_24871" x1="158.881" x2="52.632" y1="84.205" y2="183.443" gradientUnits="userSpaceOnUse"><stop stop-color="#838383"/><stop offset=".16" stop-color="#232323"/><stop offset=".5" stop-color="#1d1d1d"/><stop offset=".77"/><stop offset="1" stop-color="#838383"/></linearGradient><linearGradient id="paint1_linear_4061_24871" x1="41.675" x2="190.868" y1="43.383" y2="262.735" gradientUnits="userSpaceOnUse"><stop stop-color="#209bc4"/><stop offset="1" stop-color="#4dc9c0"/></linearGradient></defs></svg>