<svg xmlns="http://www.w3.org/2000/svg" width="315" height="55" viewBox="0 0 315 55"><defs><linearGradient id="paint0_linear_11981_14559" x1="76" x2="10.931" y1="56.492" y2="56.492" gradientTransform="translate(-11.503 -29.226)" gradientUnits="userSpaceOnUse"><stop stop-color="#ff021d"/><stop offset=".463" stop-color="#c202d7"/></linearGradient><linearGradient id="gradient-1" x1="76" x2="10.931" y1="56.492" y2="56.492" gradientTransform="translate(-6.22 -28.92)" gradientUnits="userSpaceOnUse"><stop stop-color="#ff021d"/><stop offset=".463" stop-color="#c202d7"/></linearGradient></defs><path fill="url(#paint0_linear_11981_14559)" d="M8.256 45.879a26.62 26.62 0 0 0 18.75 7.71c7.03 0 13.773-2.773 18.745-7.71l18.746-18.615L45.751 8.65A26.6 26.6 0 0 0 27.006.94a26.62 26.62 0 0 0-18.75 7.71 26.28 26.28 0 0 0-7.76 18.615 26.27 26.27 0 0 0 7.76 18.614" style="stroke-width:1" transform="translate(.296 .307)"/><path fill="#fff" d="M38.145 33.846c-4.158 0-7.53-3.368-7.53-7.522 0-4.153 3.372-7.52 7.53-7.52s7.53 3.367 7.53 7.52c0 4.154-3.371 7.522-7.53 7.522" style="stroke-width:1" transform="translate(.296 .307)"/><path d="M40.973 31.031a4.706 4.706 0 0 1-4.709-4.704 4.707 4.707 0 0 1 4.71-4.703c2.6 0 4.708 2.105 4.708 4.703a4.705 4.705 0 0 1-4.709 4.704" style="stroke-width:1" transform="translate(.296 .307)"/><path fill="#fff" d="M82.462.773h4.56v9.285L94.837.773h5.37l-8.505 10.125 8.7 10.875h-5.535l-7.845-9.75v9.75h-4.56zm25.756 21.36q-2.325 0-4.215-1.05a7.75 7.75 0 0 1-2.97-2.88q-1.065-1.845-1.065-4.11t1.065-4.095a7.7 7.7 0 0 1 2.97-2.895q1.89-1.05 4.215-1.05t4.215 1.05 2.97 2.895q1.08 1.83 1.08 4.095t-1.08 4.11a7.74 7.74 0 0 1-2.97 2.88q-1.89 1.05-4.215 1.05m0-3.885q1.08 0 1.92-.525t1.305-1.47q.48-.945.48-2.16t-.48-2.16a3.5 3.5 0 0 0-1.305-1.47q-.84-.525-1.92-.525-1.095 0-1.935.525t-1.305 1.47-.465 2.16.465 2.16 1.305 1.47 1.935.525m16.729 3.525q-1.335 0-2.385-.555-1.035-.57-1.62-1.56-.57-1.005-.57-2.295l-.015-7.17h-2.7l.015-3.78h1.695q.57 0 .915-.345.345-.36.345-.915V2.678h4.125v3.735h4.02v3.78h-4.02v6.48a1.28 1.28 0 0 0 1.32 1.32h2.7v3.78zm6.542-21h4.38v21h-4.38zm7.964 5.64h4.38v15.36h-4.38zm-.12-5.64h4.62v3.96h-4.62zm7.913 5.64h4.275v2.04q.72-1.155 1.89-1.77 1.185-.63 2.7-.63 1.65 0 2.865.735 1.23.72 1.89 2.085t.66 3.24v9.66h-4.38v-8.91q0-1.41-.675-2.175-.66-.78-1.89-.78-1.335 0-2.145.87-.81.855-.81 2.265v8.73h-4.38zm27.497 15.72q-3.06 0-5.535-1.41-2.475-1.425-3.9-3.9-1.41-2.49-1.41-5.55t1.41-5.535q1.425-2.49 3.9-3.9 2.475-1.425 5.535-1.425 2.595 0 4.77.99 2.19.975 3.615 2.73a9 9 0 0 1 1.89 4.005h-4.845a5 5 0 0 0-2.04-2.565q-1.44-.96-3.39-.96-1.755 0-3.15.855t-2.19 2.385q-.78 1.515-.78 3.42t.78 3.435q.795 1.515 2.19 2.37t3.15.855q1.95 0 3.39-.945a5.1 5.1 0 0 0 2.04-2.58h4.845a9 9 0 0 1-1.89 4.005q-1.425 1.755-3.615 2.745-2.175.975-4.77.975m20.194 0q-2.325 0-4.215-1.05a7.75 7.75 0 0 1-2.97-2.88q-1.065-1.845-1.065-4.11t1.065-4.095a7.7 7.7 0 0 1 2.97-2.895q1.89-1.05 4.215-1.05t4.215 1.05 2.97 2.895q1.08 1.83 1.08 4.095t-1.08 4.11a7.74 7.74 0 0 1-2.97 2.88q-1.89 1.05-4.215 1.05m0-3.885q1.08 0 1.92-.525t1.305-1.47q.48-.945.48-2.16t-.48-2.16a3.5 3.5 0 0 0-1.305-1.47q-.84-.525-1.92-.525-1.095 0-1.935.525t-1.305 1.47-.465 2.16.465 2.16 1.305 1.47 1.935.525m10.756-11.835h4.275v2.04q.72-1.155 1.89-1.77 1.185-.63 2.7-.63 1.65 0 2.865.735 1.23.72 1.89 2.085t.66 3.24v9.66h-4.38v-8.91q0-1.41-.675-2.175-.66-.78-1.89-.78-1.335 0-2.145.87-.81.855-.81 2.265v8.73h-4.38zm18.932 3.78h-2.745v-3.78h2.745v-1.56q0-1.215.57-2.13.57-.93 1.59-1.44 1.035-.51 2.4-.51h3.81v3.36h-2.805q-.525 0-.855.33-.33.315-.33.855v1.095h3.915v3.78h-3.915v11.58h-4.38zm18.147 7.845 8.505-7.305q1.845-1.59 1.845-3.33 0-1.35-.84-2.175-.825-.825-2.22-.825-.99 0-1.74.435-.735.42-1.155 1.2-.405.765-.405 1.755h-4.53q.015-2.13 1.02-3.81t2.79-2.625q1.8-.945 4.08-.945 2.19 0 3.9.855 1.725.855 2.685 2.37.96 1.5.96 3.42 0 1.71-.915 3.36-.9 1.635-2.625 3.12l-4.8 4.185h8.865v4.05h-15.405zm26.07.15q1.29 0 2.22-.825.945-.84 1.44-2.385.495-1.56.495-3.675 0-2.145-.495-3.705t-1.44-2.4q-.93-.84-2.22-.84t-2.235.84q-.93.825-1.425 2.385t-.495 3.69.495 3.69 1.425 2.4q.945.825 2.235.825m-.015 3.945q-2.61 0-4.59-1.335-1.98-1.35-3.06-3.795-1.08-2.46-1.08-5.7 0-3.27 1.08-5.73 1.08-2.475 3.06-3.81 1.98-1.35 4.59-1.35 2.625 0 4.605 1.35 1.995 1.335 3.075 3.81 1.08 2.46 1.08 5.73 0 3.255-1.08 5.7t-3.075 3.795q-1.98 1.335-4.605 1.335m11.064-4.095 8.505-7.305q1.845-1.59 1.845-3.33 0-1.35-.84-2.175-.825-.825-2.22-.825-.99 0-1.74.435-.735.42-1.155 1.2-.405.765-.405 1.755h-4.53q.015-2.13 1.02-3.81t2.79-2.625q1.8-.945 4.08-.945 2.19 0 3.9.855 1.725.855 2.685 2.37.96 1.5.96 3.42 0 1.71-.915 3.36-.9 1.635-2.625 3.12l-4.8 4.185h8.865v4.05h-15.405zm25.995 4.095q-2.655 0-4.605-1.275t-3.015-3.675q-1.05-2.4-1.05-5.67t1.11-5.79q1.11-2.535 3.09-3.915 1.995-1.395 4.53-1.395 1.95 0 3.54.69 1.605.675 2.7 1.95 1.095 1.26 1.575 2.97h-4.545a3.45 3.45 0 0 0-1.305-1.365q-.825-.48-1.92-.48-1.26 0-2.235.735-.96.735-1.515 2.19-.555 1.44-.6 3.525v.09q.66-1.455 2.085-2.31 1.425-.87 3.135-.87 1.995 0 3.6.945a6.76 6.76 0 0 1 2.52 2.595q.93 1.635.93 3.66 0 2.085-1.05 3.78-1.05 1.68-2.88 2.655-1.83.96-4.095.96m-.09-3.585q1.05 0 1.89-.495t1.32-1.35q.48-.87.48-1.935 0-1.08-.48-1.935a3.5 3.5 0 0 0-1.335-1.365 3.66 3.66 0 0 0-1.89-.495q-1.05 0-1.89.495-.84.48-1.32 1.35-.48.855-.48 1.935t.48 1.95q.48.855 1.32 1.35.855.495 1.905.495M82.177 36.773h1.6v5.49a4.06 4.06 0 0 1 1.55-1.45q.97-.52 2.21-.52 1.43 0 2.54.68a4.55 4.55 0 0 1 1.74 1.89q.63 1.221.63 2.79 0 1.57-.63 2.79a4.6 4.6 0 0 1-1.74 1.9q-1.11.67-2.54.67-1.24 0-2.21-.52a4.05 4.05 0 0 1-1.55-1.45v1.73h-1.6zm5.11 12.79q1.02 0 1.81-.49c.53-.337.956-.815 1.23-1.38q.44-.89.44-2.04t-.44-2.03a3.3 3.3 0 0 0-1.23-1.38q-.79-.5-1.81-.5-.98 0-1.76.45-.77.45-1.23 1.26t-.52 1.87v.66q.06 1.06.52 1.87t1.23 1.26q.78.45 1.76.45m7.074 2.99h1.52q.32 0 .61-.21.291-.2.45-.54l.58-1.26-3.95-10.01h1.69l3.05 7.97 2.97-7.97h1.73l-4.65 11.77q-.3.77-.96 1.22-.65.45-1.47.45h-1.57zm14.445-3.33h2.18q.66 0 1.18-.29.53-.3.82-.82.3-.53.3-1.19v-10.15h1.66v10.25q0 1.07-.5 1.93a3.6 3.6 0 0 1-1.38 1.34q-.879.48-1.98.48h-2.28zm13.961 1.79q-1.45 0-2.62-.69a4.9 4.9 0 0 1-1.84-1.92q-.67-1.23-.67-2.77 0-1.5.68-2.72a5.01 5.01 0 0 1 4.45-2.62q1.46 0 2.59.68a4.6 4.6 0 0 1 1.76 1.89q.63 1.221.63 2.79v.36h-8.48q.081 1.07.54 1.88.46.8 1.22 1.24.759.43 1.74.43.93 0 1.65-.36t1.18-1.03h1.78a4.5 4.5 0 0 1-1.78 2.09q-1.21.75-2.83.75m3.31-6.27a3.9 3.9 0 0 0-.61-1.59 3.1 3.1 0 0 0-1.15-1.05 3.2 3.2 0 0 0-1.55-.37q-.9 0-1.63.37a3.2 3.2 0 0 0-1.2 1.05 3.85 3.85 0 0 0-.62 1.59zm7.566 6.03q-.73 0-1.33-.31a2.44 2.44 0 0 1-.93-.87 2.35 2.35 0 0 1-.34-1.24l-.01-6.4h-1.8l.01-1.42h1.11q.38 0 .61-.24.24-.24.24-.61v-1.65h1.44v2.5h2.77l-.01 1.42h-2.77l.01 6.3q0 .47.31.79.32.31.79.31h1.66v1.42zm10.167-14q1.23 0 2.19.47.97.47 1.51 1.3t.54 1.88q0 1.13-.61 1.94-.609.8-1.65 1.1 1.2.32 1.91 1.25.71.92.71 2.18 0 1.12-.57 2.01-.57.88-1.59 1.38-1.02.49-2.32.49h-5.78v-14zm-4.03 12.5h4.15q.81 0 1.44-.3.63-.31.97-.86.35-.56.35-1.29 0-.72-.35-1.29a2.33 2.33 0 0 0-.98-.88q-.62-.32-1.43-.32h-4.15zm4.03-6.4q.75 0 1.32-.28a2.04 2.04 0 0 0 .88-.8q.32-.52.32-1.21t-.32-1.21a2.1 2.1 0 0 0-.89-.81 2.85 2.85 0 0 0-1.31-.29h-4.03v4.6zm7.449-2.34h1.6v1.7q.48-.87 1.26-1.33.79-.47 1.8-.47h.36v1.67h-.42q-.909 0-1.59.35a2.5 2.5 0 0 0-1.05 1q-.36.64-.36 1.51v5.81h-1.6zm16.48 0v10.24h-1.54v-1.74a4 4 0 0 1-1.55 1.46q-.969.52-2.22.52-1.43 0-2.55-.67-1.11-.68-1.74-1.9-.62-1.22-.62-2.79 0-1.569.62-2.79.63-1.22 1.74-1.89 1.12-.68 2.55-.68 1.251 0 2.22.52a4 4 0 0 1 1.55 1.46v-1.74zm-5.06 9.03q1.03 0 1.83-.49a3.35 3.35 0 0 0 1.24-1.38q.45-.89.45-2.04t-.45-2.03a3.3 3.3 0 0 0-1.24-1.38q-.8-.5-1.83-.5-1.02 0-1.81.5c-.533.334-.96.813-1.23 1.38q-.44.88-.44 2.03t.44 2.04a3.4 3.4 0 0 0 1.23 1.38q.79.49 1.81.49m8.268-9.03h1.6v10.24h-1.6zm-.08-3.76h1.76v1.82h-1.76zm5.04 3.76h1.54v1.66a3.6 3.6 0 0 1 1.38-1.4q.87-.5 2.01-.5 1.101 0 1.95.47.85.47 1.33 1.39.49.91.49 2.19v6.43h-1.6v-6.27q0-1.329-.69-2.07t-1.9-.74q-.86 0-1.52.38a2.66 2.66 0 0 0-1.03 1.07q-.36.681-.36 1.56v6.07h-1.6zm15.168 10.48q-1.179 0-2.1-.37-.92-.38-1.46-1.07a2.85 2.85 0 0 1-.6-1.61h1.6q.1.771.79 1.23.69.46 1.75.46.7 0 1.24-.22.55-.22.85-.61.3-.4.3-.91 0-.55-.35-.95-.339-.41-.93-.52l-2.21-.41q-1.25-.23-1.97-.96-.71-.74-.71-1.81 0-.84.46-1.51.459-.68 1.29-1.07.84-.39 1.92-.39 1.11 0 1.95.36.84.351 1.32 1.02.49.66.56 1.57h-1.6a1.68 1.68 0 0 0-.71-1.18q-.61-.44-1.52-.44-.62 0-1.1.21-.48.2-.74.58-.26.37-.26.85 0 .53.35.85.35.31 1.13.46l2.19.41q.78.15 1.34.57.57.41.86 1.03.3.61.3 1.33 0 .89-.52 1.6-.51.711-1.41 1.11-.9.39-2.01.39" style="stroke-width:1" transform="translate(.296 .307)"/></svg>