<svg xmlns="http://www.w3.org/2000/svg" width="600" height="280" fill="none" viewBox="0 0 600 280"><path fill="#071b39" d="M174.764 132.264 145.388 62.35H131.17v82.25h6.11V67.755l32.197 76.846h6.346l31.962-76.377V144.6h9.752V62.35h-13.396zm106.114-39.54q-3.877-3.935-9.281-6.17-5.406-2.231-11.632-2.232-6.228 0-11.633 2.232-5.405 2.234-9.281 6.17-3.879 3.939-6.111 9.576-2.231 5.64-2.232 12.456c0 4.542.745 8.969 2.232 12.807q2.23 5.759 6.17 9.813 3.933 4.052 9.281 6.227 5.346 2.173 11.574 2.173c4.152 0 7.912-.745 11.516-2.232q5.403-2.231 9.281-6.227 3.879-3.994 6.169-9.752 2.292-5.756 2.292-12.807c0-4.701-.746-8.695-2.232-12.456q-2.234-5.64-6.111-9.576zm-3.112 32.55q-1.119 4.876-3.466 8.459-2.35 3.586-5.935 5.582-3.586 1.998-8.4 1.997-4.819 0-8.401-1.997-3.587-1.996-5.935-5.582-2.352-3.583-3.465-8.459-1.12-4.876-1.118-10.516c0-3.76.371-7.11 1.118-10.282q1.114-4.757 3.465-8.225 2.348-3.463 5.935-5.464 3.583-1.998 8.401-1.997c3.212 0 6.009.665 8.4 1.997q3.586 1.997 5.935 5.464t3.466 8.225q1.117 4.76 1.117 10.282c0 3.681-.372 7.266-1.117 10.516m66.294-28.848q-2.586-4.935-7.636-8.46-5.054-3.525-12.691-3.526-5.525 0-10.399 1.998a23 23 0 0 0-8.401 5.875q-3.526 3.878-5.523 9.518-1.998 5.64-1.996 12.925c0 4.856.663 9.342 1.996 13.219q1.997 5.817 5.523 9.752a23.3 23.3 0 0 0 8.401 5.994q4.875 2.054 10.518 2.055 7.636.002 12.806-3.819 5.17-3.818 7.639-9.106v11.75h8.931V60h-9.167zm-4.994 37.131q-5.347 7.287-13.454 7.286-8.697 0-13.337-7.11-4.644-7.107-4.643-18.977c0-7.914 1.528-14.118 4.584-18.625q4.583-6.757 13.396-6.756c5.17 0 9.593 2.35 13.278 7.05q5.521 7.052 5.521 18.331c0 7.52-1.781 13.945-5.345 18.801m72.265-41.948c-2.511-2.35-5.406-4.131-8.695-5.347q-4.936-1.822-10.34-1.822-5.055 0-9.928 1.998-4.879 1.999-8.695 5.818-3.82 3.818-6.109 9.518-2.293 5.699-2.293 12.984t2.173 13.042q2.173 5.76 6.051 9.752 3.878 3.996 9.165 6.111 5.288 2.116 11.399 2.115 9.986 0 16.744-5.111 6.754-5.112 8.4-13.806h-5.523q-1.292 6.228-6.286 10.163-4.996 3.938-12.397 3.937-9.52 0-14.451-7.343-4.937-7.342-4.937-18.859v-.235h43.83v-1.881q-.001-6.931-2.174-12.221-2.177-5.287-5.934-8.812zm-35.606 18.212q.588-10.575 4.995-15.745 4.406-5.17 11.574-5.17 8.108 0 12.162 5.346 4.053 5.348 4.29 15.569zm80.911-24.324q-4.114 0-7.402 1.587-3.29 1.586-5.757 4.64a16 16 0 0 0-1.823 2.762q-.763 1.47-1.232 2.997v-11.75h-8.932V144.6h9.165v-34.076q.001-5.168 1.175-8.576 1.173-3.409 3.113-5.347 1.938-1.939 4.289-2.703a15.5 15.5 0 0 1 4.817-.763q1.645 0 3.113.177 1.467.176 2.644.294v-7.873a17 17 0 0 0-1.526-.174 23 23 0 0 0-1.646-.06zm54.874 4.174q-6.168-5.23-14.983-5.23-7.047.001-12.103 3.82-5.054 3.82-7.282 9.575V85.733h-8.932V144.6h9.165v-27.378q0-13.628 5.111-20.739 5.112-7.109 12.398-7.11 5.991 0 9.81 4.114t3.819 13.982V144.6h9.165v-36.425q0-13.278-6.168-18.505m71.441 24.851v-1.88q-.001-6.932-2.174-12.221-2.177-5.288-5.934-8.812c-2.511-2.35-5.406-4.131-8.695-5.347q-4.936-1.822-10.34-1.822-5.055 0-9.928 1.998-4.878 1.999-8.695 5.818-3.82 3.818-6.109 9.518-2.293 5.699-2.293 12.984t2.173 13.042q2.173 5.76 6.051 9.752 3.878 3.996 9.165 6.111 5.288 2.116 11.399 2.115 9.986 0 16.744-5.111 6.754-5.112 8.4-13.806h-5.523q-1.292 6.228-6.286 10.163-4.996 3.938-12.397 3.937-9.52 0-14.451-7.343-4.937-7.342-4.937-18.859v-.235h43.83zm-38.719-20.446q4.406-5.17 11.574-5.17 8.108 0 12.162 5.346 4.053 5.348 4.29 15.569h-33.019q.588-10.575 4.995-15.745zM91.202 61.769a2.1 2.1 0 0 0-2.285.454L52.8 98.34C50.425 77.7 32.867 61.608 11.598 61.608A2.097 2.097 0 0 0 9.5 63.706v78.808c0 .033.012.066.016.099.004.102.025.2.045.3.021.107.04.21.078.312.01.03.01.062.023.093.025.06.07.107.1.165.052.098.102.193.168.28.06.081.128.15.2.221.07.073.142.143.224.204.087.064.178.114.275.164.058.03.107.076.169.101.025.011.052.006.076.016.23.086.471.145.726.145h78.802c1.159 0 2.098-.94 2.098-2.099V63.706c0-.848-.511-1.613-1.294-1.937zm-2.9 7.002v32.24H56.064zm0 51.941H53.096v-15.506h35.206zm-74.605 16.735v-32.24h32.237l-16.12 16.12-16.12 16.12zm0-71.585c18.9 1.053 34.093 16.246 35.145 35.147H13.697zm19.084 58.432 16.12-16.12v32.24h-32.24zm20.315 16.12v-15.507h35.206v15.507zM599.5 90.366c0 3.312-2.681 5.995-5.981 5.995s-6.042-2.683-6.042-5.995a6.02 6.02 0 0 1 6.042-6.028c3.375 0 5.981 2.7 5.981 6.028m-1.186 0c0-2.747-2.142-4.928-4.793-4.928s-4.855 2.182-4.855 4.928 2.143 4.913 4.855 4.913c2.711 0 4.793-2.198 4.793-4.913m-2.251-1.145c0 .958-.694 1.617-1.865 1.726l1.895 2.26h-1.155l-1.818-2.26h-.771v2.26h-.971v-5.776h2.497c1.371 0 2.19.676 2.19 1.79zm-3.714.926h1.51c.74 0 1.218-.314 1.218-.926 0-.611-.478-.925-1.218-.925h-1.51v1.852zM22.354 176.821H9.996v-2.184H38.88v2.184H26.522v32.557h-4.168zm25.26 32.557h-3.87v-35.732h3.87v13.947c0 .695 0 1.34-.05 1.936 1.29-3.225 4.218-5.559 8.138-5.559 5.013 0 8.934 2.532 8.934 10.025v15.385h-3.87v-15.683c0-5.559-2.333-7.643-5.757-7.643-4.12 0-7.395 4.07-7.395 11.763v11.563zm35.286.497c-6.947 0-12.158-4.913-12.158-13.101S76.4 183.97 82.157 183.97c6.154 0 11.465 4.12 11.465 11.911v.793H75.109v.1c0 6.502 2.78 11.067 8.189 11.067 4.218 0 7.147-2.431 7.89-5.956h2.332c-.943 4.913-4.963 7.99-10.62 7.99m-7.742-15.187h13.946c-.15-5.756-2.332-8.834-6.947-8.834-4.07 0-6.65 2.88-6.998 8.834zm53.349 10.174c-1.439 2.78-4.168 5.013-8.338 5.013s-8.288-1.736-8.288-6.899c0-4.763 3.92-6.849 12.158-8.04l4.318-.646v-1.736c0-4.616-1.986-6.75-5.856-6.75s-5.807 2.234-6.155 5.707h-3.622c.495-4.715 4.665-7.593 9.777-7.593 5.956 0 9.726 2.978 9.676 9.082l-.049 11.713c0 .745.099 1.736.247 4.665h-3.822l-.05-4.516zm-.148-7.047v-1.489c-8.884.696-12.259 2.73-12.259 6.502 0 3.177 2.084 4.913 4.864 4.913 4.02 0 7.395-3.522 7.395-9.926m20.594 21.39c-7.047 0-11.167-1.787-11.167-5.807 0-2.729 2.184-4.615 5.261-5.459-1.786-.595-2.779-1.736-2.779-3.522 0-2.035 1.538-3.525 3.772-4.368-3.375-1.241-5.459-4.168-5.459-7.693 0-5.311 4.318-8.238 9.479-8.238.745 0 1.489.05 2.184.198 1.389.15 2.184.198 4.07.198h6.502v1.984h-3.077c-1.091 0-2.184-.148-3.227-.398 1.886 1.439 3.027 3.573 3.027 6.254 0 4.716-3.722 8.388-9.479 8.388-3.077 0-4.715 1.341-4.715 2.63 0 1.091.645 1.638 2.879 1.736l5.311.248c5.161.198 8.486 2.184 8.486 6.302 0 5.311-5.261 7.543-11.068 7.543zm7.743-6.452c0-2.432-1.886-3.822-5.509-4.02l-4.665-.248c-3.127.446-5.013 2.084-5.013 4.516 0 2.729 2.183 4.367 7.444 4.367 4.368 0 7.743-1.638 7.743-4.615m-14.095-20.397c0 3.573 1.737 6.6 5.459 6.6 3.723 0 5.509-2.927 5.509-6.6 0-4.02-1.936-6.452-5.509-6.452-3.572 0-5.459 2.432-5.459 6.452m33.201 17.519c-6.947 0-12.158-4.913-12.158-13.101s5.658-12.804 11.415-12.804c6.154 0 11.465 4.12 11.465 11.911v.793h-18.512v.1c0 6.502 2.779 11.067 8.188 11.067 4.218 0 7.147-2.431 7.89-5.956h2.332c-.943 4.913-4.963 7.99-10.62 7.99m-7.741-15.187h13.947c-.15-5.756-2.332-8.834-6.947-8.834-4.07 0-6.65 2.88-6.998 8.834zm28.883 14.69h-3.871v-24.864h3.773v5.111c1.241-3.275 4.218-5.658 8.188-5.658 5.013 0 8.934 2.531 8.934 10.024v15.385h-3.871v-15.683c0-5.558-2.332-7.642-5.756-7.642-4.12 0-7.395 4.07-7.395 11.762v11.563zm26.005-5.657V186.5h-4.516v-1.984h4.516v-4.566l3.723-2.63h.149v7.197h6.75v1.985h-6.75v17.271c0 2.927.745 3.673 3.325 3.673h3.425v1.886c-1.091.05-2.63.1-4.666.1-4.07 0-5.956-1.091-5.956-5.707zm30.471 0V186.5h-4.515v-1.984h4.515v-4.566l3.723-2.63h.149v7.197h6.75v1.985h-6.75v17.271c0 2.927.746 3.673 3.325 3.673h3.425v1.886c-1.091.05-2.63.1-4.665.1-4.071 0-5.957-1.091-5.957-5.707zm13.399-6.949c0-7.693 5.311-12.854 12.358-12.854s12.359 5.161 12.359 12.854-5.409 13.102-12.359 13.102c-6.949 0-12.358-5.112-12.358-13.102m20.349 0c0-6.254-2.532-10.968-7.991-10.968s-7.99 4.716-7.99 10.968 2.532 11.215 7.99 11.215 7.991-4.813 7.991-11.215m9.031 0c0-7.693 5.311-12.854 12.359-12.854 7.047 0 12.358 5.161 12.358 12.854s-5.409 13.102-12.358 13.102-12.359-5.112-12.359-13.102m20.349 0c0-6.254-2.532-10.968-7.99-10.968s-7.991 4.716-7.991 10.968 2.532 11.215 7.991 11.215 7.99-4.813 7.99-11.215m10.968-23.126h3.87v35.732h-3.87zm9.926 27.891h3.623c.197 3.773 2.581 6.502 6.849 6.502 3.573 0 6.452-1.588 6.452-4.715 0-2.582-2.134-3.871-5.907-4.764l-2.581-.595c-4.665-1.091-7.295-2.68-7.295-6.602 0-4.615 4.368-7.445 9.429-7.445 5.409 0 9.181 2.68 9.529 7.098h-3.623c-.297-3.225-2.381-5.212-5.906-5.212s-6.104 1.987-6.104 4.516c0 2.234 1.538 3.375 4.763 4.07l2.78.596c5.261 1.141 8.338 2.927 8.338 7.295 0 4.963-5.013 7.643-9.877 7.643-6.6 0-10.124-3.425-10.472-8.388zm38.262-4.765c0-7.99 5.409-12.804 11.86-12.804 6.452 0 9.927 3.475 10.373 8.239h-3.673c-.248-3.573-2.531-6.352-6.7-6.352-4.963 0-7.494 4.267-7.494 10.917 0 6.054 2.581 11.018 8.09 11.018 4.12 0 6.849-2.532 7.445-6.254h2.382c-.696 4.813-4.071 8.338-10.225 8.338-7.097 0-12.06-5.261-12.06-13.102zm26.452 0c0-7.693 5.311-12.854 12.358-12.854s12.359 5.161 12.359 12.854-5.409 13.102-12.359 13.102c-6.949 0-12.358-5.112-12.358-13.102m20.347 0c0-6.254-2.532-10.968-7.99-10.968s-7.991 4.716-7.991 10.968 2.532 11.215 7.991 11.215 7.99-4.813 7.99-11.215m14.84 12.606h-3.871v-24.864h3.773v4.566c1.141-2.88 3.97-5.112 7.692-5.112s7.098 1.589 8.438 5.659c1.241-3.177 4.07-5.659 8.09-5.659 4.616 0 9.034 2.532 9.034 9.529v15.881h-3.871V193.2c0-5.014-2.729-7.148-5.806-7.148-3.623 0-6.899 3.425-6.899 10.273v13.051h-3.871v-16.178c0-5.013-2.729-7.147-5.756-7.147-3.623 0-6.948 3.424-6.948 10.272v13.052zm45.261-4.566v13.995h-3.87v-34.293h3.772v4.763c1.389-2.977 4.268-5.31 8.686-5.31 6.352 0 11.117 4.615 11.117 12.803s-4.863 13.102-11.167 13.102c-4.218 0-7.097-2.284-8.536-5.063zm15.335-8.04c0-6.65-2.629-10.72-7.543-10.72-4.565 0-7.94 4.368-7.94 10.72s3.475 11.018 7.94 11.018c4.964 0 7.543-4.168 7.543-11.018m25.856 8.09c-1.439 2.78-4.168 5.013-8.338 5.013s-8.288-1.736-8.288-6.899c0-4.763 3.92-6.849 12.158-8.04l4.318-.646v-1.736c0-4.616-1.984-6.75-5.856-6.75s-5.807 2.234-6.154 5.707h-3.623c.496-4.715 4.666-7.593 9.777-7.593 5.956 0 9.727 2.978 9.677 9.082l-.05 11.713c0 .745.1 1.736.248 4.665h-3.823l-.05-4.516zm-.148-7.047v-1.489c-8.883.696-12.258 2.73-12.258 6.502 0 3.177 2.084 4.913 4.863 4.913 4.02 0 7.395-3.522 7.395-9.926m15.929 11.563h-3.87v-24.864h3.772v5.111c1.241-3.275 4.218-5.658 8.188-5.658 5.013 0 8.934 2.531 8.934 10.024v15.385h-3.871v-15.683c0-5.558-2.332-7.642-5.756-7.642-4.12 0-7.395 4.07-7.395 11.762v11.563zm27.891 9.429 3.475-9.231-10.869-25.062h4.267l8.486 20.051 7.345-20.051h2.482l-12.754 34.293z"/></svg>