<svg width="600" height="280" viewBox="0 0 600 280" fill="none" xmlns="http://www.w3.org/2000/svg">
<path d="M123.745 80C97.485 80 76 101.449 76 127.665C76 153.881 97.485 175.33 123.745 175.33C150.004 175.33 171.489 154.013 171.489 127.665C171.489 101.317 150.137 80 123.745 80ZM123.745 158.25C107.432 158.25 94.3018 144.877 94.3018 127.665C94.3018 110.453 107.432 97.0797 123.745 97.0797C140.057 97.0797 153.187 110.453 153.187 127.665C153.187 144.877 140.057 158.25 123.745 158.25Z" fill="white"/>
<path d="M219.763 106.48C211.143 106.48 202.787 109.923 198.411 115.749V107.804H181.169V200.486H198.411V166.989C202.787 172.417 210.877 175.33 219.763 175.33C238.33 175.33 252.919 160.765 252.919 140.905C252.919 121.045 238.33 106.48 219.763 106.48ZM216.845 160.368C207.031 160.368 198.278 152.689 198.278 140.905C198.278 129.121 207.031 121.442 216.845 121.442C226.66 121.442 235.413 129.121 235.413 140.905C235.413 152.689 226.66 160.368 216.845 160.368Z" fill="white"/>
<path d="M293.504 106.48C274.672 106.48 259.818 121.177 259.818 140.905C259.818 160.633 272.815 175.33 294.035 175.33C311.408 175.33 322.549 164.87 325.997 153.086H309.154C307.032 157.985 301.064 161.427 293.902 161.427C285.016 161.427 278.252 155.205 276.661 146.334H326.793V139.581C326.793 121.574 314.193 106.48 293.504 106.48ZM276.793 134.153C278.65 125.811 285.547 120.382 293.902 120.382C302.788 120.382 309.552 126.208 310.348 134.153H276.793Z" fill="white"/>
<path d="M372.679 106.48C364.987 106.48 356.897 109.923 353.183 115.616V107.804H335.942V174.006H353.183V138.39C353.183 128.062 358.753 121.309 367.772 121.309C376.127 121.309 380.635 127.665 380.635 136.536V174.006H397.877V133.755C397.877 117.337 387.797 106.48 372.679 106.48Z" fill="white"/>
<path d="M442.037 81.3264L404.504 174.008H422.939L430.895 153.751H473.602L481.558 174.008H500.256L462.991 81.3264H442.037ZM436.863 138.392L452.248 99.598L467.498 138.392H436.863Z" fill="white"/>
<path d="M524.791 81.3264H507.286V174.008H524.791V81.3264Z" fill="white"/>
</svg>
