<svg width="600" height="280" viewBox="0 0 600 280" fill="none" xmlns="http://www.w3.org/2000/svg">
<path d="M123.245 80C96.985 80 75.5 101.449 75.5 127.665C75.5 153.881 96.985 175.33 123.245 175.33C149.504 175.33 170.989 154.013 170.989 127.665C170.989 101.317 149.637 80 123.245 80ZM123.245 158.25C106.932 158.25 93.8018 144.877 93.8018 127.665C93.8018 110.453 106.932 97.0797 123.245 97.0797C139.557 97.0797 152.687 110.453 152.687 127.665C152.687 144.877 139.557 158.25 123.245 158.25Z" fill="black"/>
<path d="M219.263 106.48C210.643 106.48 202.287 109.923 197.911 115.749V107.804H180.669V200.486H197.911V166.989C202.287 172.417 210.377 175.33 219.263 175.33C237.83 175.33 252.419 160.765 252.419 140.905C252.419 121.045 237.83 106.48 219.263 106.48ZM216.345 160.368C206.531 160.368 197.778 152.689 197.778 140.905C197.778 129.121 206.531 121.442 216.345 121.442C226.16 121.442 234.913 129.121 234.913 140.905C234.913 152.689 226.16 160.368 216.345 160.368Z" fill="black"/>
<path d="M293.004 106.48C274.172 106.48 259.318 121.177 259.318 140.905C259.318 160.633 272.315 175.33 293.535 175.33C310.908 175.33 322.049 164.87 325.497 153.086H308.654C306.532 157.985 300.564 161.427 293.402 161.427C284.516 161.427 277.753 155.205 276.161 146.334H326.293V139.581C326.293 121.574 313.694 106.48 293.004 106.48ZM276.294 134.153C278.151 125.811 285.047 120.382 293.402 120.382C302.288 120.382 309.052 126.208 309.848 134.153H276.294Z" fill="black"/>
<path d="M372.179 106.48C364.487 106.48 356.397 109.923 352.684 115.616V107.804H335.442V174.006H352.684V138.39C352.684 128.062 358.254 121.309 367.272 121.309C375.627 121.309 380.135 127.665 380.135 136.536V174.006H397.377V133.755C397.377 117.337 387.297 106.48 372.179 106.48Z" fill="black"/>
<path d="M441.537 81.3264L404.004 174.008H422.439L430.395 153.751H473.102L481.058 174.008H499.756L462.491 81.3264H441.537ZM436.363 138.392L451.748 99.598L466.998 138.392H436.363Z" fill="black"/>
<path d="M524.291 81.3264H506.786V174.008H524.291V81.3264Z" fill="black"/>
</svg>
