<svg width="270" height="112" viewBox="0 0 270 112" fill="none" xmlns="http://www.w3.org/2000/svg">
<path d="M8.32658 20.734C4.20806 20.734 0 24.0456 0 29.8036C0 35.0843 3.70071 38.7837 8.32658 38.7837C12.1168 38.7837 13.8478 36.2179 13.8478 36.2179V37.3516C13.8478 37.8588 14.3551 38.4853 14.9819 38.4853H17.7574V21.1517H13.8776V23.3594C13.8179 23.2997 12.1168 20.734 8.32658 20.734ZM9.013 24.2544C12.3854 24.2544 14.1761 27.208 14.1761 29.7738C14.1761 32.608 12.087 35.2931 9.04286 35.2931C6.50609 35.2931 3.93946 33.2345 3.93946 29.7439C3.93946 26.5815 6.1181 24.2544 9.013 24.2544Z" fill="white"/>
<path d="M23.0692 38.4257C22.4723 38.4257 21.9351 38.0081 21.9351 37.292V21.0921H25.8148V23.2401C26.7102 21.9274 28.4113 20.7042 31.0376 20.7042C35.3352 20.7042 37.6332 24.1351 37.6332 27.3274V38.3959H34.9472C34.2309 38.3959 33.7534 37.7992 33.7534 37.2025V28.1329C33.7534 26.3429 32.679 24.1948 30.1423 24.1948C27.4264 24.1948 25.8148 26.7606 25.8148 29.1771V38.3661H23.0692V38.4257Z" fill="white"/>
<path d="M48.915 20.7341C44.7964 20.7341 40.5884 24.0456 40.5884 29.8036C40.5884 35.0843 44.2891 38.7837 48.915 38.7837C52.7052 38.7837 54.4362 36.218 54.4362 36.218V37.3517C54.4362 37.8589 54.9435 38.4854 55.5702 38.4854H58.3159V12.4998H54.4362V23.3595C54.4362 23.2998 52.7052 20.7341 48.915 20.7341ZM49.6014 24.2545C52.9738 24.2545 54.7644 27.2081 54.7644 29.7738C54.7644 32.6081 52.6754 35.2931 49.6312 35.2931C47.0945 35.2931 44.5278 33.2346 44.5278 29.744C44.5278 26.5816 46.7065 24.2545 49.6014 24.2545Z" fill="white"/>
<path d="M63.6878 38.4256C63.0909 38.4256 62.5537 38.008 62.5537 37.2919V21.092H66.4335V23.9859C67.0901 22.3748 68.5226 20.913 71.0892 20.913C71.8055 20.913 72.462 21.0323 72.462 21.0323V25.0301C72.462 25.0301 71.6264 24.7019 70.6415 24.7019C67.9257 24.7019 66.4335 27.2677 66.4335 29.6842V38.3958L63.6878 38.4256Z" fill="white"/>
<path d="M95.9495 38.4256C95.3526 38.4256 94.8154 38.008 94.8154 37.2919V21.092H98.6952V38.3958H95.9495V38.4256Z" fill="white"/>
<path d="M110.066 20.7341C105.948 20.7341 101.74 24.0456 101.74 29.8036C101.74 35.0843 105.44 38.7837 110.066 38.7837C113.857 38.7837 115.588 36.218 115.588 36.218V37.3517C115.588 37.8589 116.095 38.4854 116.722 38.4854H119.497V12.4998H115.617V23.3595C115.558 23.2998 113.857 20.7341 110.066 20.7341ZM110.753 24.2545C114.125 24.2545 115.916 27.2081 115.916 29.7738C115.916 32.6081 113.827 35.2931 110.783 35.2931C108.246 35.2931 105.679 33.2346 105.679 29.744C105.679 26.5816 107.858 24.2545 110.753 24.2545Z" fill="white"/>
<path d="M100.07 15.4151C100.393 13.5815 99.1684 11.8332 97.3341 11.5101C95.4999 11.1871 93.751 12.4116 93.4279 14.2452C93.1047 16.0788 94.3297 17.8271 96.1639 18.1502C97.9981 18.4732 99.747 17.2487 100.07 15.4151Z" fill="white"/>
<path d="M82.6688 20.734C78.3712 20.734 73.626 23.9263 73.626 29.7738C73.626 35.0842 77.655 38.7837 82.639 38.7837C88.7869 38.7837 91.8012 33.8312 91.8012 29.8036C91.831 24.8213 87.9513 20.734 82.6688 20.734ZM82.6987 24.3439C85.6533 24.3439 87.8916 26.7307 87.8916 29.7738C87.8916 32.8467 85.5339 35.2334 82.7285 35.2334C80.1022 35.2334 77.5654 33.1152 77.5654 29.8334C77.5356 26.492 79.953 24.3439 82.6987 24.3439Z" fill="white"/>
<path d="M161.84 19.9797L165.639 13.1243C165.862 12.7525 165.728 12.2412 165.348 12.0321C164.991 11.7997 164.499 11.9391 164.298 12.3342L160.455 19.2593C157.505 17.8649 154.221 17.0748 150.668 17.0748C147.115 17.0748 143.808 17.8417 140.881 19.2593L137.037 12.3342C136.814 11.9624 136.345 11.8229 135.987 12.0321C135.63 12.2645 135.496 12.7525 135.697 13.1243L139.495 19.9797C132.926 23.6746 128.502 30.5764 127.764 38.6402H173.571C172.834 30.5764 168.41 23.6746 161.84 19.9797ZM140.143 31.9707C139.071 31.9707 138.222 31.0644 138.222 29.9722C138.222 28.8568 139.093 27.9737 140.143 27.9737C141.216 27.9737 142.065 28.88 142.065 29.9722C142.065 31.0644 141.216 31.9707 140.143 31.9707ZM161.192 31.9707C160.12 31.9707 159.271 31.0644 159.271 29.9722C159.271 28.8568 160.142 27.9737 161.192 27.9737C162.265 27.9737 163.114 28.88 163.114 29.9722C163.114 31.0644 162.243 31.9707 161.192 31.9707Z" fill="#32DE84"/>
<path d="M142.669 86.2625V81.6044H158.26C158.411 82.4353 158.512 83.3921 158.512 84.4496C158.512 87.9495 157.554 92.2552 154.482 95.327C151.484 98.4492 147.656 100.111 142.593 100.111C133.198 100.111 125.289 92.4566 125.289 83.0648C125.289 73.673 133.198 66.0186 142.593 66.0186C147.782 66.0186 151.484 68.0581 154.28 70.727L151.006 74.0003C149.016 72.1371 146.296 70.6767 142.618 70.6767C135.767 70.6767 130.402 76.2161 130.402 83.0648C130.402 89.9135 135.767 95.4529 142.618 95.4529C147.076 95.4529 149.595 93.6652 151.232 92.0537C152.542 90.7444 153.424 88.8308 153.751 86.2374H142.669V86.2625Z" fill="#4285F4"/>
<path d="M182.287 89.1582C182.287 95.4782 177.351 100.136 171.28 100.136C165.21 100.136 160.273 95.4782 160.273 89.1582C160.273 82.7879 165.21 78.1802 171.28 78.1802C177.351 78.1802 182.287 82.8131 182.287 89.1582ZM177.451 89.1582C177.451 85.2051 174.58 82.511 171.255 82.511C167.93 82.511 165.059 85.2051 165.059 89.1582C165.059 93.061 167.93 95.8055 171.255 95.8055C174.58 95.8055 177.451 93.061 177.451 89.1582Z" fill="#EA4335"/>
<path d="M206.311 89.1582C206.311 95.4782 201.374 100.136 195.304 100.136C189.234 100.136 184.297 95.4782 184.297 89.1582C184.297 82.7879 189.234 78.1802 195.304 78.1802C201.374 78.1802 206.311 82.8131 206.311 89.1582ZM201.475 89.1582C201.475 85.2051 198.603 82.511 195.279 82.511C191.954 82.511 189.083 85.2051 189.083 89.1582C189.083 93.061 191.954 95.8055 195.279 95.8055C198.629 95.8055 201.475 93.061 201.475 89.1582Z" fill="#FBBC05"/>
<path d="M229.358 78.86V98.55C229.358 106.658 224.572 109.981 218.93 109.981C213.616 109.981 210.417 106.406 209.208 103.485L213.414 101.748C214.17 103.536 215.983 105.651 218.956 105.651C222.583 105.651 224.824 103.41 224.824 99.2047V97.6184H224.648C223.565 98.9529 221.5 100.111 218.88 100.111C213.389 100.111 208.352 95.3271 208.352 89.1834C208.352 82.9894 213.389 78.1802 218.88 78.1802C221.5 78.1802 223.59 79.3384 224.648 80.6225H224.824V78.8348H229.358V78.86ZM225.101 89.2086C225.101 85.331 222.532 82.511 219.233 82.511C215.908 82.511 213.112 85.331 213.112 89.2086C213.112 93.0358 215.908 95.8055 219.233 95.8055C222.532 95.8055 225.101 93.0358 225.101 89.2086Z" fill="#4285F4"/>
<path d="M237.522 67.3281V99.4818H232.711V67.3281H237.522Z" fill="#34A853"/>
<path d="M256.138 92.784L259.891 95.2768C258.682 97.0645 255.786 100.136 250.748 100.136C244.502 100.136 239.867 95.3271 239.867 89.1582C239.867 82.6369 244.577 78.1802 250.219 78.1802C255.912 78.1802 258.708 82.7124 259.614 85.1548L260.118 86.4137L245.434 92.4819C246.567 94.6725 248.305 95.8055 250.748 95.8055C253.191 95.8055 254.904 94.5969 256.138 92.784ZM244.628 88.8309L254.451 84.7519C253.922 83.3922 252.285 82.4354 250.37 82.4354C247.902 82.4354 244.502 84.6008 244.628 88.8309Z" fill="#EA4335"/>
</svg>
