<svg width="270" height="112" viewBox="0 0 270 112" fill="none" xmlns="http://www.w3.org/2000/svg">
<path d="M63.0926 38.4334H35.5094V47.2069H53.4933C54.5904 47.2069 55.4916 48.1078 55.4916 49.2045V64.7539H51.6518C50.5548 64.7539 49.6537 63.8531 49.6537 62.7564V51.5937H42.0525C38.1736 51.5937 35 54.7662 35 58.6438V66.5165C35 70.3941 38.1736 73.5666 42.0525 73.5666H70.1452V45.4836C70.1452 41.5668 67.0107 38.4334 63.0926 38.4334Z" fill="#0ABF53"/>
<path d="M96.5131 64.7539H92.6733C91.5763 64.7539 90.6752 63.8531 90.6752 62.7564V38.4334H83.074C79.1951 38.4334 76.0215 41.6059 76.0215 45.4835V66.5164C76.0215 70.394 79.1951 73.5666 83.074 73.5666H111.167V23.8239H96.5131V64.7539Z" fill="#0ABF53"/>
<path d="M137.497 64.7539H133.658C132.561 64.7539 131.659 63.8531 131.659 62.7564V38.4334H117.006V66.5165C117.006 70.394 120.18 73.5666 124.058 73.5666H137.497V77.9534H117.515V88.1761H145.098C148.977 88.1761 152.151 85.0035 152.151 81.1259V38.4334H137.497V64.7539Z" fill="#0ABF53"/>
<path d="M186.081 38.4334H157.988V66.5165C157.988 70.3941 161.162 73.5666 165.041 73.5666H192.624V64.7931H174.64C173.543 64.7931 172.642 63.8923 172.642 62.7956V47.2461H176.482C177.579 47.2461 178.48 48.1469 178.48 49.2436V60.4064H186.081C189.96 60.4064 193.133 57.2338 193.133 53.3562V45.4836C193.133 41.5668 189.96 38.4334 186.081 38.4334Z" fill="#0ABF53"/>
<path d="M227.063 38.4334H198.971V73.5666H213.624V47.2069H217.464C218.561 47.2069 219.462 48.1078 219.462 49.2045V73.5275H234.116V45.4444C234.116 41.5668 230.942 38.4334 227.063 38.4334Z" fill="#0ABF53"/>
</svg>
