<svg width="48" height="48" viewBox="0 0 48 48" fill="none" xmlns="http://www.w3.org/2000/svg">
<path d="M17.8528 39.9991C23.7092 40.0614 29.3522 37.803 33.5485 33.7173C35.6035 31.7145 37.2333 29.3178 38.3404 26.6704C39.4475 24.0231 40.0092 21.1796 39.9917 18.3102V17.3253C41.4737 16.2368 42.7535 14.897 43.7729 13.3667C42.3514 13.9814 40.8487 14.3881 39.3112 14.5745C40.925 13.629 42.1409 12.1301 42.7332 10.3559C41.2057 11.2509 39.537 11.8793 37.7987 12.2144C36.6166 10.9834 35.0658 10.1706 33.3808 9.89899C31.6959 9.62738 29.9682 9.91168 28.4592 10.7089C26.9597 11.4869 25.7625 12.7428 25.0571 14.2778C24.3517 15.8128 24.1783 17.5392 24.5645 19.1838C21.4944 19.0257 18.4902 18.2342 15.7409 16.8588C12.9915 15.4835 10.5565 13.5541 8.58892 11.1921C7.59847 12.8717 7.29528 14.8691 7.7427 16.767C8.19012 18.6648 9.35353 20.3164 10.9899 21.3768C9.7576 21.3387 8.55211 21.0074 7.47344 20.4103C7.49834 22.1754 8.13036 23.8781 9.26318 25.232C10.396 26.5859 11.9605 27.5084 13.6936 27.8443C12.5519 28.1474 11.357 28.1919 10.1959 27.9745C10.7077 29.4973 11.6787 30.8242 12.9753 31.7727C14.272 32.7212 15.8306 33.2447 17.4369 33.2713C14.7051 35.4348 11.3359 36.6368 7.85154 36.6909C7.2197 36.6908 6.58841 36.6536 5.96094 36.5795C9.52455 38.8147 13.6462 39.9999 17.8528 39.9991Z" fill="#8C8C8E"/>
</svg>
