<svg width="24" height="24" viewBox="0 0 24 24" fill="none" xmlns="http://www.w3.org/2000/svg">
<path fill-rule="evenodd" clip-rule="evenodd" d="M2 24V3.58057C2 1.50586 3.26172 0 5 0V2C4.34326 2 4 2.79492 4 3.58057V24H2ZM10.2002 0H19.7998C21.5645 0 23 1.60645 23 3.58057V24H20.5908L15.0024 18.5439L9.45117 24H7V3.58057C7 1.60645 8.43555 0 10.2002 0ZM14.9976 15.7441L21 21.6045V3.58057C21 2.72363 20.4502 2 19.7998 2H10.2002C9.5498 2 9 2.72363 9 3.58057V21.6392L14.9976 15.7441Z" fill="black"/>
</svg>
