<svg width="375" height="190" viewBox="0 0 375 190" fill="none" xmlns="http://www.w3.org/2000/svg">
<mask id="mask0_2153_114932" style="mask-type:alpha" maskUnits="userSpaceOnUse" x="0" y="24" width="375" height="118">
<rect y="24" width="375" height="118" fill="#D9D9D9"/>
</mask>
<g mask="url(#mask0_2153_114932)">
<rect width="2024" height="20" transform="translate(-986.672 -142.25) rotate(10.3376)" fill="#FF5800"/>
<path d="M17.8038 57.2391L19.8997 45.7486L21.3164 46.0071L20.4177 50.9338L22.1176 51.2438L25.5662 46.7823L27.1088 47.0636L23.252 52.0688L25.1702 58.5828L23.549 58.287L21.8436 52.4787L20.1909 52.1772L19.2204 57.4975L17.8038 57.2391ZM30.5107 59.7195C29.8181 59.5932 29.2439 59.3529 28.7881 58.9987C28.3427 58.6464 28.0286 58.1988 27.8457 57.6558C27.6753 57.1043 27.6523 56.4875 27.7767 55.8054L28.7242 50.6111C28.8505 49.9185 29.0898 49.3496 29.4421 48.9042C29.8049 48.4608 30.2568 48.1529 30.7979 47.9805C31.3494 47.8101 31.9715 47.788 32.6641 47.9143C33.3566 48.0407 33.9256 48.28 34.3709 48.6323C34.8268 48.9865 35.1409 49.4341 35.3132 49.9752C35.4961 50.5181 35.5253 51.1307 35.4009 51.8127L34.4506 57.0228C34.3261 57.7049 34.0816 58.2729 33.7169 58.7268C33.3646 59.1721 32.9126 59.48 32.3611 59.6505C31.8201 59.8229 31.2032 59.8459 30.5107 59.7195ZM30.7432 58.4446C31.3624 58.5575 31.8662 58.4705 32.2546 58.1836C32.6555 57.888 32.9153 57.415 33.0339 56.7644L33.9814 51.5701C34.1001 50.9195 34.0231 50.3904 33.7505 49.9829C33.4903 49.5668 33.0506 49.3022 32.4315 49.1893C31.8229 49.0783 31.3181 49.1705 30.9172 49.4661C30.5183 49.7511 30.2595 50.2189 30.1408 50.8695L29.1933 56.0638C29.0746 56.7144 29.1507 57.2487 29.4214 57.6667C29.694 58.0743 30.1346 58.3336 30.7432 58.4446ZM39.2927 61.1588L41.1532 50.9591L38.0052 50.3849L38.2406 49.0942L45.9533 50.5011L45.7179 51.7918L42.5698 51.2175L40.7093 61.4172L39.2927 61.1588ZM46.7868 62.5258L48.8828 51.0354L50.2994 51.2938L48.4389 61.4935L53.6332 62.441L53.3977 63.7317L46.7868 62.5258ZM55.8549 64.1799L56.0904 62.8892L58.4357 63.317L60.0607 54.408L57.7154 53.9802L57.9509 52.6895L64.0896 53.8093L63.8541 55.1L61.5088 54.6722L59.8838 63.5812L62.2291 64.009L61.9936 65.2997L55.8549 64.1799ZM65.0804 65.8627L67.1764 54.3723L69.0652 54.7169L70.7808 65.1948C70.8077 64.9287 70.8398 64.6038 70.8773 64.2203C70.9271 63.8282 70.9798 63.4204 71.0354 62.9968C71.1034 62.5647 71.1718 62.1597 71.2407 61.7819L72.4179 55.3284L73.7873 55.5782L71.6914 67.0686L69.8025 66.7241L68.1027 56.249C68.0777 56.5047 68.0403 56.8286 67.9905 57.2207C67.9426 57.6023 67.8846 58.0091 67.8166 58.4413C67.761 58.8648 67.6978 59.2708 67.627 59.659L66.4498 66.1125L65.0804 65.8627ZM77.8818 68.3605C77.1892 68.2341 76.6098 67.9929 76.1434 67.6368C75.6876 67.2826 75.363 66.833 75.1696 66.2881C74.9887 65.7347 74.9604 65.1169 75.0848 64.4348L76.0323 59.2405C76.1586 58.548 76.4032 57.98 76.766 57.5365C77.1393 57.095 77.6017 56.789 78.1532 56.6186C78.7153 56.45 79.3426 56.4289 80.0352 56.5552C80.7277 56.6816 81.301 56.9271 81.7549 57.2918C82.2107 57.646 82.5301 58.0946 82.713 58.6376C82.8958 59.1805 82.9251 59.7931 82.8006 60.4751L81.384 60.2167C81.5027 59.5661 81.4205 59.0361 81.1373 58.6267C80.8666 58.2086 80.4217 57.9431 79.8026 57.8302C79.1835 57.7173 78.6639 57.8014 78.244 58.0826C77.8345 58.3657 77.5705 58.8326 77.4518 59.4832L76.5015 64.6932C76.3828 65.3438 76.464 65.8791 76.7453 66.299C77.0389 66.7104 77.4952 66.9726 78.1143 67.0855C78.7335 67.1984 79.2425 67.1124 79.6415 66.8273C80.0528 66.5337 80.3178 66.0616 80.4365 65.411L81.8531 65.6694C81.7306 66.341 81.487 66.9038 81.1223 67.3577C80.7595 67.8011 80.3014 68.1133 79.748 68.2943C79.1964 68.4647 78.5744 68.4868 77.8818 68.3605ZM87.2805 70.0749C86.5879 69.9485 86.0137 69.7083 85.5578 69.354C85.1125 69.0017 84.7984 68.5541 84.6155 68.0111C84.4451 67.4596 84.422 66.8428 84.5465 66.1607L85.4939 60.9664C85.6203 60.2738 85.8596 59.7049 86.2119 59.2595C86.5747 58.8161 87.0266 58.5082 87.5677 58.3358C88.1192 58.1654 88.7413 58.1433 89.4338 58.2696C90.1264 58.396 90.6954 58.6353 91.1407 58.9876C91.5965 59.3418 91.9106 59.7894 92.083 60.3305C92.2659 60.8735 92.2951 61.486 92.1707 62.1681L91.2203 67.3781C91.0959 68.0602 90.8514 68.6282 90.4866 69.0821C90.1343 69.5274 89.6824 69.8353 89.1309 70.0058C88.5898 70.1782 87.973 70.2012 87.2805 70.0749ZM87.513 68.7999C88.1321 68.9128 88.6359 68.8258 89.0244 68.5389C89.4253 68.2433 89.685 67.7703 89.8037 67.1197L90.7512 61.9254C90.8699 61.2748 90.7929 60.7457 90.5203 60.3382C90.2601 59.9221 89.8204 59.6575 89.2013 59.5446C88.5926 59.4336 88.0879 59.5258 87.687 59.8214C87.2881 60.1064 87.0292 60.5742 86.9106 61.2248L85.9631 66.4191C85.8444 67.0697 85.9204 67.604 86.1911 68.0221C86.4638 68.4296 86.9044 68.6889 87.513 68.7999ZM93.4653 71.0404L95.5613 59.55L97.4501 59.8945L99.1657 70.3725C99.1926 70.1063 99.2247 69.7815 99.2622 69.398C99.312 69.0059 99.3647 68.598 99.4203 68.1745C99.4883 67.7423 99.5567 67.3374 99.6256 66.9596L100.803 60.5061L102.172 60.7559L100.076 72.2463L98.1874 71.9017L96.4876 61.4267C96.4626 61.6823 96.4252 62.0062 96.3754 62.3983C96.3275 62.7799 96.2695 63.1868 96.2015 63.6189C96.1459 64.0425 96.0827 64.4484 96.0119 64.8367L94.8347 71.2902L93.4653 71.0404ZM103.006 72.7806L105.102 61.2902L111.87 62.5248L111.635 63.8155L106.251 62.8336L105.557 66.6427L110.53 67.55L110.295 68.8407L105.353 67.9392L104.422 73.039L103.006 72.7806ZM115.376 67.4744L117.529 62.8089L119.575 63.1821L116.636 67.7041L115.376 67.4744ZM121.882 76.2238L122.137 74.8229L126.534 71.4939C127.187 71.0058 127.676 70.5529 128.002 70.1352C128.338 69.7194 128.546 69.2911 128.626 68.8504C128.741 68.2208 128.648 67.6889 128.348 67.2546C128.05 66.8098 127.586 66.53 126.956 66.4152C126.316 66.2984 125.772 66.3997 125.323 66.7191C124.887 67.0298 124.61 67.5105 124.491 68.1611L123.074 67.9027C123.222 67.214 123.488 66.6446 123.874 66.1945C124.261 65.7339 124.737 65.4141 125.301 65.235C125.865 65.056 126.493 65.0296 127.186 65.156C127.899 65.2861 128.488 65.5345 128.953 65.9011C129.417 66.2678 129.745 66.7288 129.937 67.2841C130.13 67.829 130.164 68.4425 130.04 69.1246C129.941 69.6702 129.674 70.2125 129.239 70.7512C128.815 71.292 128.176 71.8855 127.32 72.5318L123.738 75.2288L128.948 76.1792L128.713 77.4699L121.882 76.2238ZM134.415 78.6727C133.723 78.5464 133.139 78.2989 132.664 77.9304C132.202 77.5533 131.874 77.0923 131.68 76.5474C131.487 76.0025 131.451 75.3996 131.571 74.7385L132.988 74.9969C132.871 75.637 132.958 76.1732 133.247 76.6056C133.55 77.0293 134.021 77.2996 134.661 77.4164C135.311 77.535 135.85 77.438 136.275 77.1253C136.701 76.8126 136.969 76.352 137.08 75.7434L137.224 74.9564C137.343 74.3058 137.256 73.7695 136.964 73.3477C136.673 72.9258 136.202 72.6555 135.551 72.5369L134.307 72.31L134.531 71.0823L137.816 68.5912L133.33 67.7729L133.565 66.4822L139.657 67.5934L139.416 68.9156L135.735 71.7084L135.812 71.2834C136.861 71.4748 137.641 71.926 138.151 72.6371C138.661 73.3482 138.824 74.2074 138.641 75.2148L138.497 76.0018C138.376 76.6629 138.124 77.2132 137.74 77.6528C137.367 78.0943 136.892 78.4089 136.316 78.5965C135.742 78.7736 135.108 78.799 134.415 78.6727Z" fill="white"/>
<path d="M161.434 83.4383L163.53 71.9479L164.947 72.2063L164.048 77.133L165.748 77.4431L169.197 72.9815L170.739 73.2629L166.882 78.268L168.801 84.782L167.179 84.4862L165.474 78.6779L163.821 78.3765L162.851 83.6967L161.434 83.4383ZM174.141 85.9188C173.448 85.7924 172.874 85.5522 172.418 85.1979C171.973 84.8456 171.659 84.398 171.476 83.855C171.306 83.3035 171.283 82.6867 171.407 82.0046L172.355 76.8103C172.481 76.1178 172.72 75.5488 173.072 75.1035C173.435 74.66 173.887 74.3521 174.428 74.1797C174.98 74.0093 175.602 73.9872 176.294 74.1136C176.987 74.2399 177.556 74.4792 178.001 74.8315C178.457 75.1857 178.771 75.6333 178.944 76.1744C179.126 76.7174 179.156 77.3299 179.031 78.012L178.081 83.222C177.957 83.9041 177.712 84.4721 177.347 84.926C176.995 85.3713 176.543 85.6792 175.991 85.8497C175.45 86.0221 174.834 86.0451 174.141 85.9188ZM174.374 84.6438C174.993 84.7567 175.497 84.6697 175.885 84.3828C176.286 84.0872 176.546 83.6142 176.664 82.9636L177.612 77.7693C177.73 77.1187 177.653 76.5896 177.381 76.1821C177.121 75.766 176.681 75.5014 176.062 75.3885C175.453 75.2775 174.948 75.3698 174.548 75.6653C174.149 75.9503 173.89 76.4181 173.771 77.0687L172.824 82.263C172.705 82.9136 172.781 83.4479 173.052 83.866C173.324 84.2735 173.765 84.5328 174.374 84.6438ZM182.923 87.358L184.784 77.1583L181.636 76.5841L181.871 75.2934L189.584 76.7003L189.348 77.991L186.2 77.4167L184.34 87.6164L182.923 87.358ZM190.417 88.725L192.513 77.2346L193.93 77.493L192.069 87.6927L197.264 88.6402L197.028 89.9309L190.417 88.725ZM199.485 90.3791L199.721 89.0884L202.066 89.5162L203.691 80.6072L201.346 80.1794L201.581 78.8887L207.72 80.0085L207.485 81.2992L205.139 80.8714L203.514 89.7804L205.859 90.2082L205.624 91.4989L199.485 90.3791ZM208.711 92.062L210.807 80.5716L212.696 80.9161L214.411 91.394C214.438 91.1279 214.47 90.803 214.508 90.4195C214.557 90.0274 214.61 89.6196 214.666 89.196C214.734 88.7639 214.802 88.3589 214.871 87.9812L216.048 81.5277L217.418 81.7774L215.322 93.2678L213.433 92.9233L211.733 82.4482C211.708 82.7039 211.671 83.0278 211.621 83.4199C211.573 83.8015 211.515 84.2083 211.447 84.6405C211.391 85.0641 211.328 85.47 211.257 85.8582L210.08 92.3117L208.711 92.062ZM221.512 94.5597C220.82 94.4333 220.24 94.1921 219.774 93.836C219.318 93.4818 218.993 93.0322 218.8 92.4873C218.619 91.9339 218.591 91.3161 218.715 90.634L219.663 85.4398C219.789 84.7472 220.034 84.1792 220.396 83.7358C220.77 83.2942 221.232 82.9882 221.784 82.8178C222.346 82.6492 222.973 82.6281 223.666 82.7545C224.358 82.8808 224.931 83.1263 225.385 83.491C225.841 83.8452 226.16 84.2938 226.343 84.8368C226.526 85.3798 226.555 85.9923 226.431 86.6744L225.014 86.4159C225.133 85.7654 225.051 85.2353 224.768 84.8259C224.497 84.4078 224.052 84.1424 223.433 84.0294C222.814 83.9165 222.294 84.0006 221.874 84.2818C221.465 84.565 221.201 85.0318 221.082 85.6824L220.132 90.8925C220.013 91.543 220.094 92.0783 220.376 92.4983C220.669 92.9096 221.126 93.1718 221.745 93.2847C222.364 93.3976 222.873 93.3116 223.272 93.0266C223.683 92.7329 223.948 92.2608 224.067 91.6102L225.484 91.8686C225.361 92.5402 225.117 93.103 224.753 93.5569C224.39 94.0003 223.932 94.3125 223.378 94.4935C222.827 94.6639 222.205 94.686 221.512 94.5597ZM230.911 96.2741C230.218 96.1477 229.644 95.9075 229.188 95.5533C228.743 95.201 228.429 94.7533 228.246 94.2104C228.075 93.6588 228.052 93.042 228.177 92.3599L229.124 87.1656C229.251 86.4731 229.49 85.9041 229.842 85.4588C230.205 85.0153 230.657 84.7074 231.198 84.5351C231.75 84.3646 232.372 84.3425 233.064 84.4689C233.757 84.5952 234.326 84.8345 234.771 85.1868C235.227 85.541 235.541 85.9887 235.713 86.5297C235.896 87.0727 235.925 87.6852 235.801 88.3673L234.851 93.5773C234.726 94.2594 234.482 94.8274 234.117 95.2813C233.765 95.7267 233.313 96.0346 232.761 96.205C232.22 96.3774 231.603 96.4004 230.911 96.2741ZM231.143 94.9991C231.763 95.112 232.266 95.025 232.655 94.7381C233.056 94.4426 233.315 93.9695 233.434 93.3189L234.382 88.1246C234.5 87.474 234.423 86.9449 234.151 86.5374C233.89 86.1213 233.451 85.8568 232.832 85.7438C232.223 85.6328 231.718 85.7251 231.317 86.0206C230.918 86.3056 230.66 86.7734 230.541 87.424L229.593 92.6183C229.475 93.2689 229.551 93.8032 229.822 94.2213C230.094 94.6288 230.535 94.8881 231.143 94.9991ZM237.096 97.2396L239.192 85.7492L241.08 86.0938L242.796 96.5717C242.823 96.3055 242.855 95.9807 242.893 95.5972C242.942 95.2051 242.995 94.7973 243.051 94.3737C243.119 93.9415 243.187 93.5366 243.256 93.1588L244.433 86.7053L245.803 86.9551L243.707 98.4455L241.818 98.101L240.118 87.6259C240.093 87.8816 240.056 88.2054 240.006 88.5975C239.958 88.9791 239.9 89.386 239.832 89.8181C239.776 90.2417 239.713 90.6476 239.642 91.0359L238.465 97.4894L237.096 97.2396ZM246.636 98.9799L248.732 87.4895L255.5 88.7241L255.265 90.0148L249.882 89.0328L249.187 92.842L254.161 93.7493L253.925 95.04L248.983 94.1384L248.053 99.2383L246.636 98.9799ZM259.007 93.6736L261.159 89.0081L263.205 89.3813L260.266 93.9033L259.007 93.6736ZM265.512 102.423L265.768 101.022L270.164 97.6931C270.817 97.205 271.306 96.7521 271.632 96.3344C271.968 95.9186 272.176 95.4904 272.257 95.0496C272.372 94.42 272.279 93.8881 271.979 93.4538C271.68 93.0091 271.216 92.7293 270.587 92.6144C269.946 92.4976 269.402 92.5989 268.954 92.9183C268.517 93.2291 268.24 93.7098 268.121 94.3603L266.705 94.1019C266.852 93.4132 267.118 92.8438 267.504 92.3937C267.892 91.9331 268.368 91.6133 268.931 91.4342C269.495 91.2552 270.124 91.2289 270.816 91.3552C271.53 91.4853 272.119 91.7337 272.583 92.1004C273.048 92.467 273.376 92.928 273.567 93.4833C273.76 94.0282 273.795 94.6417 273.67 95.3238C273.571 95.8694 273.304 96.4117 272.87 96.9505C272.446 97.4912 271.806 98.0847 270.951 98.7311L267.369 101.428L272.579 102.378L272.343 103.669L265.512 102.423ZM278.046 104.872C277.353 104.746 276.77 104.498 276.295 104.13C275.832 103.753 275.504 103.292 275.311 102.747C275.117 102.202 275.081 101.599 275.202 100.938L276.618 101.196C276.502 101.836 276.588 102.372 276.878 102.805C277.18 103.229 277.651 103.499 278.291 103.616C278.942 103.734 279.48 103.637 279.906 103.325C280.331 103.012 280.6 102.551 280.711 101.943L280.854 101.156C280.973 100.505 280.886 99.9687 280.595 99.5469C280.303 99.125 279.832 98.8548 279.181 98.7361L277.938 98.5093L278.162 97.2815L281.446 94.7905L276.96 93.9722L277.196 92.6815L283.287 93.7926L283.046 95.1148L279.365 97.9076L279.442 97.4826C280.492 97.674 281.272 98.1253 281.782 98.8363C282.292 99.5474 282.455 100.407 282.271 101.414L282.127 102.201C282.007 102.862 281.755 103.412 281.371 103.852C280.998 104.294 280.523 104.608 279.946 104.796C279.372 104.973 278.738 104.998 278.046 104.872Z" fill="white"/>
<path d="M305.064 109.637L307.16 98.1471L308.577 98.4055L307.678 103.332L309.378 103.642L312.826 99.1807L314.369 99.4621L310.512 104.467L312.43 110.981L310.809 110.685L309.104 104.877L307.451 104.576L306.481 109.896L305.064 109.637ZM317.771 112.118C317.078 111.992 316.504 111.751 316.048 111.397C315.603 111.045 315.289 110.597 315.106 110.054C314.936 109.503 314.913 108.886 315.037 108.204L315.984 103.01C316.111 102.317 316.35 101.748 316.702 101.303C317.065 100.859 317.517 100.551 318.058 100.379C318.61 100.209 319.232 100.186 319.924 100.313C320.617 100.439 321.186 100.678 321.631 101.031C322.087 101.385 322.401 101.833 322.573 102.374C322.756 102.917 322.786 103.529 322.661 104.211L321.711 109.421C321.586 110.103 321.342 110.671 320.977 111.125C320.625 111.571 320.173 111.878 319.621 112.049C319.08 112.221 318.464 112.244 317.771 112.118ZM318.003 110.843C318.623 110.956 319.126 110.869 319.515 110.582C319.916 110.286 320.176 109.813 320.294 109.163L321.242 103.969C321.36 103.318 321.283 102.789 321.011 102.381C320.751 101.965 320.311 101.701 319.692 101.588C319.083 101.477 318.578 101.569 318.177 101.864C317.779 102.15 317.52 102.617 317.401 103.268L316.454 108.462C316.335 109.113 316.411 109.647 316.682 110.065C316.954 110.473 317.395 110.732 318.003 110.843ZM326.553 113.557L328.413 103.358L325.265 102.783L325.501 101.493L333.214 102.899L332.978 104.19L329.83 103.616L327.97 113.816L326.553 113.557ZM334.047 114.924L336.143 103.434L337.56 103.692L335.699 113.892L340.893 114.839L340.658 116.13L334.047 114.924ZM343.115 116.578L343.351 115.288L345.696 115.715L347.321 106.806L344.976 106.379L345.211 105.088L351.35 106.208L351.114 107.498L348.769 107.071L347.144 115.98L349.489 116.407L349.254 117.698L343.115 116.578ZM352.341 118.261L354.437 106.771L356.325 107.115L358.041 117.593C358.068 117.327 358.1 117.002 358.138 116.619C358.187 116.227 358.24 115.819 358.296 115.395C358.364 114.963 358.432 114.558 358.501 114.18L359.678 107.727L361.048 107.977L358.952 119.467L357.063 119.123L355.363 108.647C355.338 108.903 355.301 109.227 355.251 109.619C355.203 110.001 355.145 110.408 355.077 110.84C355.021 111.263 354.958 111.669 354.887 112.057L353.71 118.511L352.341 118.261ZM365.142 120.759C364.449 120.633 363.87 120.391 363.404 120.035C362.948 119.681 362.623 119.231 362.43 118.687C362.249 118.133 362.221 117.515 362.345 116.833L363.293 111.639C363.419 110.946 363.663 110.378 364.026 109.935C364.4 109.493 364.862 109.187 365.414 109.017C365.976 108.848 366.603 108.827 367.295 108.954C367.988 109.08 368.561 109.326 369.015 109.69C369.471 110.044 369.79 110.493 369.973 111.036C370.156 111.579 370.185 112.191 370.061 112.874L368.644 112.615C368.763 111.965 368.681 111.435 368.398 111.025C368.127 110.607 367.682 110.342 367.063 110.229C366.444 110.116 365.924 110.2 365.504 110.481C365.095 110.764 364.831 111.231 364.712 111.882L363.762 117.092C363.643 117.742 363.724 118.278 364.006 118.697C364.299 119.109 364.755 119.371 365.375 119.484C365.994 119.597 366.503 119.511 366.902 119.226C367.313 118.932 367.578 118.46 367.697 117.809L369.113 118.068C368.991 118.739 368.747 119.302 368.383 119.756C368.02 120.2 367.562 120.512 367.008 120.693C366.457 120.863 365.835 120.885 365.142 120.759ZM374.541 122.473C373.848 122.347 373.274 122.107 372.818 121.752C372.373 121.4 372.059 120.953 371.876 120.41C371.705 119.858 371.682 119.241 371.807 118.559L372.754 113.365C372.881 112.672 373.12 112.103 373.472 111.658C373.835 111.215 374.287 110.907 374.828 110.734C375.379 110.564 376.002 110.542 376.694 110.668C377.387 110.794 377.956 111.034 378.401 111.386C378.857 111.74 379.171 112.188 379.343 112.729C379.526 113.272 379.555 113.884 379.431 114.566L378.481 119.777C378.356 120.459 378.112 121.027 377.747 121.481C377.395 121.926 376.943 122.234 376.391 122.404C375.85 122.577 375.233 122.6 374.541 122.473ZM374.773 121.198C375.392 121.311 375.896 121.224 376.285 120.937C376.686 120.642 376.945 120.169 377.064 119.518L378.011 114.324C378.13 113.673 378.053 113.144 377.781 112.737C377.52 112.321 377.081 112.056 376.462 111.943C375.853 111.832 375.348 111.924 374.947 112.22C374.548 112.505 374.289 112.973 374.171 113.623L373.223 118.818C373.105 119.468 373.181 120.002 373.451 120.42C373.724 120.828 374.165 121.087 374.773 121.198ZM380.726 123.439L382.822 111.948L384.71 112.293L386.426 122.771C386.453 122.505 386.485 122.18 386.522 121.796C386.572 121.404 386.625 120.996 386.681 120.573C386.749 120.141 386.817 119.736 386.886 119.358L388.063 112.905L389.432 113.154L387.337 124.645L385.448 124.3L383.748 113.825C383.723 114.081 383.685 114.405 383.636 114.797C383.588 115.178 383.53 115.585 383.462 116.017C383.406 116.441 383.343 116.847 383.272 117.235L382.095 123.689L380.726 123.439ZM390.266 125.179L392.362 113.689L399.13 114.923L398.895 116.214L393.512 115.232L392.817 119.041L397.791 119.948L397.555 121.239L392.613 120.338L391.683 125.437L390.266 125.179ZM402.637 119.873L404.789 115.207L406.835 115.581L403.896 120.103L402.637 119.873ZM409.142 128.622L409.397 127.221L413.794 123.892C414.447 123.404 414.936 122.951 415.262 122.534C415.598 122.118 415.806 121.69 415.887 121.249C416.001 120.619 415.909 120.087 415.608 119.653C415.31 119.208 414.846 118.928 414.216 118.814C413.576 118.697 413.032 118.798 412.583 119.118C412.147 119.428 411.87 119.909 411.751 120.56L410.335 120.301C410.482 119.612 410.748 119.043 411.134 118.593C411.522 118.132 411.997 117.813 412.561 117.633C413.125 117.454 413.754 117.428 414.446 117.554C415.16 117.685 415.749 117.933 416.213 118.3C416.678 118.666 417.005 119.127 417.197 119.683C417.39 120.227 417.425 120.841 417.3 121.523C417.201 122.069 416.934 122.611 416.499 123.15C416.076 123.69 415.436 124.284 414.581 124.93L410.999 127.627L416.209 128.578L415.973 129.868L409.142 128.622ZM421.676 131.071C420.983 130.945 420.399 130.697 419.924 130.329C419.462 129.952 419.134 129.491 418.941 128.946C418.747 128.401 418.711 127.798 418.832 127.137L420.248 127.395C420.131 128.035 420.218 128.572 420.508 129.004C420.81 129.428 421.281 129.698 421.921 129.815C422.572 129.933 423.11 129.836 423.536 129.524C423.961 129.211 424.23 128.75 424.341 128.142L424.484 127.355C424.603 126.704 424.516 126.168 424.225 125.746C423.933 125.324 423.462 125.054 422.811 124.935L421.568 124.708L421.792 123.481L425.076 120.99L420.59 120.171L420.825 118.881L426.917 119.992L426.676 121.314L422.995 124.107L423.072 123.682C424.122 123.873 424.901 124.324 425.411 125.036C425.921 125.747 426.085 126.606 425.901 127.613L425.757 128.4C425.637 129.061 425.384 129.612 425.001 130.051C424.627 130.493 424.153 130.807 423.576 130.995C423.002 131.172 422.368 131.197 421.676 131.071Z" fill="white"/>
<rect width="1728" height="20" transform="translate(-1113 189.848) rotate(-5.00806)" fill="#19191C"/>
<path d="M1.92313 108.208L0.903518 96.5722L4.20287 96.2831C4.91481 96.2207 5.5312 96.2898 6.05204 96.4905C6.58257 96.6796 7.00068 96.9909 7.30636 97.4245C7.62175 97.8466 7.80691 98.3711 7.86185 98.9981C7.93261 99.8056 7.73877 100.465 7.28033 100.976C6.8325 101.487 6.18309 101.774 5.33208 101.838L5.31113 101.599C6.2231 101.497 6.97957 101.699 7.58054 102.203C8.18151 102.707 8.52296 103.427 8.6049 104.362C8.66264 105.02 8.57478 105.606 8.34134 106.119C8.1079 106.632 7.74779 107.044 7.26103 107.354C6.77333 107.654 6.17351 107.835 5.46157 107.898L1.92313 108.208ZM3.21262 106.794L5.18905 106.62C5.85848 106.562 6.3691 106.34 6.72091 105.956C7.08241 105.56 7.23616 105.054 7.18215 104.438C7.12628 103.801 6.88454 103.302 6.45693 102.944C6.03901 102.574 5.49533 102.418 4.8259 102.476L2.84947 102.65L3.21262 106.794ZM2.74053 101.406L4.62132 101.242C5.23762 101.188 5.70667 100.98 6.02846 100.62C6.36088 100.259 6.50241 99.7971 6.45306 99.2339C6.40371 98.6708 6.18927 98.2398 5.80975 97.9412C5.43023 97.6425 4.93231 97.5202 4.31601 97.5742L2.41928 97.7404L2.74053 101.406ZM14.0863 107.142L13.705 102.79L9.56009 95.8137L11.0424 95.6838L13.7726 100.263C13.9234 100.517 14.0443 100.737 14.1355 100.922C14.2257 101.096 14.2851 101.225 14.3138 101.308C14.3276 101.221 14.3638 101.084 14.4224 100.897C14.4906 100.698 14.5769 100.46 14.6811 100.183L16.5254 95.2033L18.0077 95.0734L15.1395 102.665L15.5208 107.016L14.0863 107.142ZM20.6989 108.168L20.5941 106.973L28.2448 106.303L28.3496 107.498L20.6989 108.168ZM33.5014 105.601C32.3857 105.699 31.4816 105.462 30.7891 104.891C30.0966 104.32 29.7028 103.493 29.6079 102.409L31.0424 102.283C31.1047 102.995 31.3391 103.531 31.7455 103.892C32.1615 104.241 32.7096 104.386 33.3897 104.326C34.0697 104.266 34.5789 104.029 34.9173 103.614C35.2654 103.187 35.4083 102.618 35.3459 101.906L34.7341 94.9247L31.4666 95.211L31.3521 93.904L36.0541 93.492L36.7804 101.78C36.8753 102.864 36.6262 103.748 36.033 104.432C35.4503 105.114 34.6065 105.504 33.5014 105.601ZM40.3588 104.84L39.3392 93.2041L46.0336 92.6175L46.1481 93.9245L40.8723 94.3868L41.188 97.989L45.9059 97.5755L46.0176 98.8507L41.2997 99.2641L41.6629 103.408L46.9387 102.946L47.0532 104.253L40.3588 104.84ZM52.4104 103.783L51.5053 93.455L48.3175 93.7343L48.203 92.4274L56.0131 91.743L56.1276 93.0499L52.9398 93.3293L53.8449 103.658L52.4104 103.783ZM59.4093 103.17L58.3897 91.5347L61.6891 91.2456C62.401 91.1832 63.0174 91.2523 63.5382 91.4529C64.0688 91.642 64.4869 91.9534 64.7926 92.387C65.1079 92.8091 65.2931 93.3336 65.348 93.9605C65.4188 94.7681 65.225 95.4275 64.7665 95.9388C64.3187 96.4492 63.6693 96.7363 62.8183 96.8002L62.7973 96.5611C63.7093 96.4598 64.4658 96.6612 65.0667 97.1653C65.6677 97.6694 66.0092 98.389 66.0911 99.3241C66.1488 99.9829 66.061 100.569 65.8275 101.082C65.5941 101.595 65.234 102.007 64.7472 102.317C64.2595 102.617 63.6597 102.798 62.9478 102.86L59.4093 103.17ZM60.6988 101.756L62.6752 101.583C63.3447 101.524 63.8553 101.303 64.2071 100.919C64.5686 100.523 64.7224 100.017 64.6684 99.4006C64.6125 98.7631 64.3707 98.2649 63.9431 97.9062C63.5252 97.536 62.9815 97.3802 62.3121 97.4388L60.3357 97.612L60.6988 101.756ZM60.2267 96.3688L62.1075 96.204C62.7238 96.15 63.1929 95.9429 63.5147 95.5828C63.8471 95.2217 63.9886 94.7596 63.9393 94.1964C63.8899 93.6332 63.6755 93.2023 63.2959 92.9036C62.9164 92.6049 62.4185 92.4826 61.8022 92.5366L59.9055 92.7028L60.2267 96.3688ZM68.9744 102.332L67.9548 90.6965L71.557 90.3808C72.2477 90.3203 72.8659 90.4107 73.4118 90.652C73.9566 90.8826 74.3944 91.2351 74.7251 91.7093C75.0557 92.1836 75.2504 92.7555 75.3091 93.4249C75.378 94.2112 75.2299 94.9041 74.8648 95.5036C74.5104 96.1022 73.9918 96.5385 73.3091 96.8124L76.1948 101.699L74.5052 101.847L71.8408 97.1017L69.9759 97.2651L70.4089 102.206L68.9744 102.332ZM69.8628 95.9741L72.0305 95.7841C72.6255 95.732 73.0874 95.5041 73.4161 95.1006C73.7439 94.6864 73.8807 94.1711 73.8267 93.5548C73.7718 92.9279 73.5474 92.4443 73.1535 92.104C72.7597 91.7638 72.2652 91.6197 71.6701 91.6719L69.5024 91.8618L69.8628 95.9741ZM77.886 101.551L79.8948 89.6502L81.8234 89.4812L85.8555 100.853L84.405 100.98L83.369 97.9546L79.8465 98.2633L79.3524 101.422L77.886 101.551ZM80.0273 97.0268L82.96 96.7698L81.7532 93.2617C81.5236 92.5966 81.3409 92.0397 81.2052 91.5912C81.0696 91.1427 80.9851 90.8503 80.9517 90.714C80.9426 90.854 80.9102 91.1566 80.8546 91.6219C80.799 92.0872 80.7155 92.662 80.6042 93.3464L80.0273 97.0268ZM88.3437 100.635L88.2292 99.3276L90.6041 99.1195L89.8135 90.098L87.4386 90.3061L87.3241 88.9992L93.5403 88.4544L93.6548 89.7614L91.2799 89.9695L92.0704 98.991L94.4453 98.7829L94.5599 100.09L88.3437 100.635ZM97.6857 99.8159L96.666 88.1805L98.5787 88.0129L103.006 97.6633C102.962 97.3995 102.907 97.0777 102.841 96.698C102.785 96.3067 102.728 95.8994 102.67 95.4763C102.621 95.0415 102.58 94.6329 102.546 94.2504L101.974 87.7154L103.36 87.5939L104.38 99.2293L102.467 99.3969L98.0559 89.7452C98.0995 89.9983 98.1492 90.3205 98.2049 90.7118C98.2597 91.0925 98.3114 91.5002 98.3602 91.935C98.4187 92.3581 98.4652 92.7663 98.4997 93.1595L99.0723 99.6944L97.6857 99.8159ZM110.692 98.8368C109.948 98.902 109.283 98.8264 108.696 98.6102C108.12 98.3929 107.657 98.0587 107.307 97.6076C106.967 97.1448 106.768 96.5894 106.712 95.9412L108.146 95.8155C108.197 96.3999 108.446 96.8546 108.892 97.1796C109.337 97.4939 109.9 97.6213 110.58 97.5617C111.239 97.504 111.749 97.2826 112.112 96.8975C112.473 96.5017 112.628 96.0116 112.577 95.4272C112.537 94.9703 112.38 94.5825 112.106 94.2639C111.841 93.9337 111.496 93.7231 111.071 93.6319L109.302 93.2408C108.505 93.0644 107.858 92.7141 107.363 92.1901C106.878 91.6651 106.603 91.0307 106.537 90.2868C106.454 89.3411 106.697 88.5597 107.263 87.9425C107.841 87.3244 108.645 86.9702 109.676 86.8798C110.707 86.7895 111.555 86.9989 112.22 87.5081C112.886 88.0173 113.26 88.7447 113.343 89.6904L111.909 89.8161C111.859 89.253 111.64 88.8225 111.25 88.5248C110.87 88.2261 110.383 88.1028 109.788 88.155C109.182 88.208 108.708 88.4156 108.365 88.7776C108.032 89.1386 107.89 89.5901 107.937 90.132C107.974 90.5571 108.129 90.913 108.4 91.1997C108.672 91.4864 109.026 91.6803 109.463 91.7811L111.298 92.1985C112.052 92.368 112.668 92.7317 113.145 93.2895C113.632 93.8464 113.911 94.518 113.98 95.3043C114.037 95.9525 113.938 96.534 113.683 97.0489C113.438 97.5522 113.056 97.9604 112.537 98.2735C112.029 98.5857 111.414 98.7735 110.692 98.8368Z" fill="white"/>
<path d="M125.45 97.3829L124.43 85.7475L127.729 85.4584C128.441 85.396 129.058 85.4651 129.578 85.6658C130.109 85.8548 130.527 86.1662 130.833 86.5998C131.148 87.0219 131.333 87.5464 131.388 88.1734C131.459 88.9809 131.265 89.6404 130.807 90.1517C130.359 90.662 129.709 90.9492 128.858 91.013L128.837 90.774C129.749 90.6726 130.506 90.874 131.107 91.3781C131.708 91.8823 132.049 92.6019 132.131 93.537C132.189 94.1958 132.101 94.7817 131.868 95.2947C131.634 95.8077 131.274 96.2194 130.787 96.5297C130.3 96.8294 129.7 97.0105 128.988 97.0729L125.45 97.3829ZM126.739 95.969L128.715 95.7958C129.385 95.7371 129.895 95.5157 130.247 95.1315C130.609 94.7358 130.763 94.2298 130.709 93.6135C130.653 92.9759 130.411 92.4778 129.983 92.1191C129.565 91.7488 129.022 91.593 128.352 91.6517L126.376 91.8249L126.739 95.969ZM126.267 90.5816L128.148 90.4168C128.764 90.3628 129.233 90.1557 129.555 89.7956C129.887 89.4345 130.029 88.9724 129.979 88.4092C129.93 87.8461 129.716 87.4151 129.336 87.1165C128.957 86.8178 128.459 86.6954 127.842 86.7495L125.946 86.9157L126.267 90.5816ZM137.613 96.3171L137.231 91.9658L133.086 84.9889L134.569 84.8591L137.299 89.4382C137.45 89.6927 137.571 89.9123 137.662 90.097C137.752 90.2712 137.812 90.3998 137.84 90.4829C137.854 90.3961 137.89 90.2591 137.949 90.0719C138.017 89.8732 138.103 89.6354 138.207 89.3586L140.052 84.3786L141.534 84.2487L138.666 91.84L139.047 96.1914L137.613 96.3171ZM144.225 97.3437L144.121 96.1483L151.771 95.4779L151.876 96.6733L144.225 97.3437ZM157.028 94.7763C155.912 94.8741 155.008 94.6375 154.315 94.0664C153.623 93.4953 153.229 92.6679 153.134 91.584L154.569 91.4583C154.631 92.1703 154.865 92.7065 155.272 93.0671C155.688 93.4161 156.236 93.5608 156.916 93.5012C157.596 93.4416 158.105 93.2043 158.444 92.7891C158.792 92.3625 158.935 91.7932 158.872 91.0812L158.26 84.1L154.993 84.3863L154.878 83.0793L159.58 82.6673L160.307 90.9555C160.402 92.0394 160.153 92.9231 159.559 93.6069C158.977 94.2897 158.133 94.6795 157.028 94.7763ZM163.885 94.0148L162.866 82.3794L169.56 81.7928L169.674 83.0998L164.399 83.5621L164.714 87.1643L169.432 86.7508L169.544 88.0259L164.826 88.4394L165.189 92.5835L170.465 92.1212L170.58 93.4282L163.885 94.0148ZM175.937 92.9587L175.032 82.6303L171.844 82.9096L171.729 81.6027L179.539 80.9183L179.654 82.2252L176.466 82.5046L177.371 92.833L175.937 92.9587ZM182.936 92.3454L181.916 80.71L185.215 80.4209C185.927 80.3585 186.544 80.4276 187.065 80.6282C187.595 80.8173 188.013 81.1287 188.319 81.5623C188.634 81.9844 188.819 82.5089 188.874 83.1358C188.945 83.9434 188.751 84.6028 188.293 85.1141C187.845 85.6245 187.196 85.9116 186.345 85.9755L186.324 85.7364C187.236 85.6351 187.992 85.8365 188.593 86.3406C189.194 86.8447 189.536 87.5643 189.617 88.4994C189.675 89.1582 189.587 89.7441 189.354 90.2571C189.12 90.7701 188.76 91.1818 188.274 91.4922C187.786 91.7919 187.186 91.9729 186.474 92.0353L182.936 92.3454ZM184.225 90.9314L186.202 90.7582C186.871 90.6996 187.382 90.4782 187.733 90.094C188.095 89.6982 188.249 89.1922 188.195 88.5759C188.139 87.9384 187.897 87.4402 187.469 87.0815C187.052 86.7113 186.508 86.5555 185.838 86.6141L183.862 86.7873L184.225 90.9314ZM183.753 85.5441L185.634 85.3793C186.25 85.3253 186.719 85.1182 187.041 84.7581C187.373 84.397 187.515 83.9349 187.466 83.3717C187.416 82.8085 187.202 82.3776 186.822 82.0789C186.443 81.7802 185.945 81.6579 185.329 81.7119L183.432 81.8781L183.753 85.5441ZM192.501 91.5072L191.481 79.8718L195.083 79.5561C195.774 79.4956 196.392 79.586 196.938 79.8273C197.483 80.0579 197.921 80.4104 198.251 80.8846C198.582 81.3589 198.777 81.9308 198.835 82.6002C198.904 83.3865 198.756 84.0794 198.391 84.6789C198.037 85.2775 197.518 85.7138 196.836 85.9877L199.721 90.8745L198.032 91.0225L195.367 86.277L193.502 86.4404L193.935 91.3815L192.501 91.5072ZM193.389 85.1494L195.557 84.9594C196.152 84.9073 196.614 84.6794 196.942 84.2759C197.27 83.8617 197.407 83.3464 197.353 82.7301C197.298 82.1032 197.074 81.6196 196.68 81.2793C196.286 80.9391 195.792 80.795 195.197 80.8472L193.029 81.0371L193.389 85.1494ZM201.412 90.7263L203.421 78.8255L205.35 78.6565L209.382 90.0279L207.931 90.155L206.895 87.1299L203.373 87.4386L202.879 90.5978L201.412 90.7263ZM203.554 86.2021L206.486 85.9451L205.28 82.437C205.05 81.7719 204.867 81.215 204.732 80.7665C204.596 80.318 204.511 80.0256 204.478 79.8893C204.469 80.0293 204.437 80.3319 204.381 80.7972C204.325 81.2625 204.242 81.8373 204.131 82.5217L203.554 86.2021ZM211.87 89.8099L211.756 88.5029L214.13 88.2948L213.34 79.2733L210.965 79.4814L210.85 78.1745L217.067 77.6297L217.181 78.9367L214.806 79.1448L215.597 88.1663L217.972 87.9581L218.086 89.2651L211.87 89.8099ZM221.212 88.9912L220.192 77.3558L222.105 77.1882L226.532 86.8386C226.488 86.5748 226.433 86.253 226.368 85.8733C226.312 85.482 226.255 85.0747 226.196 84.6516C226.147 84.2168 226.106 83.8082 226.073 83.4257L225.5 76.8907L226.887 76.7692L227.906 88.4046L225.994 88.5722L221.582 78.9205C221.626 79.1736 221.676 79.4958 221.731 79.8871C221.786 80.2678 221.838 80.6755 221.887 81.1102C221.945 81.5334 221.992 81.9416 222.026 82.3347L222.599 88.8697L221.212 88.9912ZM234.218 88.0121C233.474 88.0773 232.809 88.0017 232.223 87.7854C231.647 87.5682 231.184 87.234 230.834 86.7829C230.493 86.3201 230.295 85.7647 230.238 85.1165L231.672 84.9908C231.724 85.5752 231.972 86.0299 232.418 86.3549C232.864 86.6692 233.426 86.7966 234.106 86.737C234.765 86.6793 235.276 86.4579 235.638 86.0727C236 85.677 236.155 85.1869 236.104 84.6025C236.063 84.1456 235.906 83.7578 235.632 83.4392C235.368 83.109 235.023 82.8984 234.597 82.8072L232.828 82.4161C232.031 82.2397 231.385 81.8894 230.889 81.3653C230.404 80.8403 230.129 80.2059 230.064 79.4621C229.981 78.5164 230.223 77.735 230.79 77.1178C231.367 76.4997 232.172 76.1455 233.202 76.0551C234.233 75.9648 235.081 76.1742 235.747 76.6834C236.412 77.1926 236.787 77.92 236.87 78.8657L235.435 78.9914C235.386 78.4283 235.166 77.9978 234.776 77.7C234.396 77.4014 233.909 77.2781 233.314 77.3302C232.708 77.3833 232.234 77.5909 231.891 77.9529C231.559 78.3139 231.416 78.7654 231.464 79.3073C231.501 79.7324 231.655 80.0883 231.927 80.375C232.198 80.6617 232.552 80.8555 232.989 80.9564L234.825 81.3738C235.578 81.5433 236.194 81.907 236.671 82.4648C237.159 83.0217 237.437 83.6933 237.506 84.4796C237.563 85.1278 237.464 85.7093 237.209 86.2242C236.964 86.7275 236.582 87.1357 236.064 87.4488C235.556 87.761 234.941 87.9488 234.218 88.0121Z" fill="white"/>
<path d="M248.976 86.5582L247.957 74.9228L251.256 74.6337C251.968 74.5713 252.584 74.6404 253.105 74.8411C253.636 75.0301 254.054 75.3415 254.36 75.7751C254.675 76.1972 254.86 76.7217 254.915 77.3486C254.986 78.1562 254.792 78.8157 254.334 79.327C253.886 79.8373 253.236 80.1245 252.385 80.1883L252.364 79.9492C253.276 79.8479 254.033 80.0493 254.634 80.5534C255.235 81.0576 255.576 81.7772 255.658 82.7123C255.716 83.3711 255.628 83.957 255.395 84.47C255.161 84.983 254.801 85.3947 254.314 85.705C253.827 86.0047 253.227 86.1858 252.515 86.2482L248.976 86.5582ZM250.266 85.1443L252.242 84.9711C252.912 84.9124 253.422 84.691 253.774 84.3068C254.136 83.9111 254.289 83.4051 254.235 82.7888C254.18 82.1512 253.938 81.6531 253.51 81.2944C253.092 80.9241 252.549 80.7683 251.879 80.827L249.903 81.0001L250.266 85.1443ZM249.794 79.7569L251.675 79.5921C252.291 79.5381 252.76 79.331 253.082 78.9709C253.414 78.6098 253.556 78.1477 253.506 77.5845C253.457 77.0214 253.242 76.5904 252.863 76.2918C252.483 75.9931 251.986 75.8707 251.369 75.9247L249.473 76.091L249.794 79.7569ZM261.139 85.4924L260.758 81.141L256.613 74.1642L258.096 74.0343L260.826 78.6135C260.977 78.868 261.098 79.0876 261.189 79.2723C261.279 79.4465 261.338 79.5751 261.367 79.6582C261.381 79.5714 261.417 79.4343 261.476 79.2472C261.544 79.0485 261.63 78.8107 261.734 78.5339L263.579 73.5539L265.061 73.424L262.193 81.0153L262.574 85.3667L261.139 85.4924ZM267.752 86.519L267.647 85.3236L275.298 84.6532L275.403 85.8486L267.752 86.519ZM280.555 83.9516C279.439 84.0494 278.535 83.8128 277.842 83.2417C277.15 82.6706 276.756 81.8432 276.661 80.7593L278.096 80.6336C278.158 81.3456 278.392 81.8818 278.799 82.2424C279.215 82.5914 279.763 82.7361 280.443 82.6765C281.123 82.6169 281.632 82.3796 281.971 81.9644C282.319 81.5378 282.461 80.9684 282.399 80.2565L281.787 73.2753L278.52 73.5616L278.405 72.2546L283.107 71.8426L283.834 80.1308C283.929 81.2146 283.679 82.0984 283.086 82.7822C282.504 83.465 281.66 83.8548 280.555 83.9516ZM287.412 83.1901L286.392 71.5547L293.087 70.9681L293.201 72.275L287.926 72.7374L288.241 76.3396L292.959 75.9261L293.071 77.2012L288.353 77.6147L288.716 81.7588L293.992 81.2965L294.106 82.6035L287.412 83.1901ZM299.464 82.134L298.559 71.8056L295.371 72.0849L295.256 70.7779L303.066 70.0935L303.181 71.4005L299.993 71.6799L300.898 82.0083L299.464 82.134ZM306.463 81.5207L305.443 69.8853L308.742 69.5962C309.454 69.5338 310.071 69.6029 310.591 69.8035C311.122 69.9926 311.54 70.304 311.846 70.7376C312.161 71.1597 312.346 71.6842 312.401 72.3111C312.472 73.1187 312.278 73.7781 311.82 74.2894C311.372 74.7998 310.723 75.0869 309.872 75.1508L309.851 74.9117C310.763 74.8104 311.519 75.0118 312.12 75.5159C312.721 76.02 313.062 76.7396 313.144 77.6747C313.202 78.3335 313.114 78.9194 312.881 79.4324C312.647 79.9454 312.287 80.3571 311.8 80.6675C311.313 80.9672 310.713 81.1482 310.001 81.2106L306.463 81.5207ZM307.752 80.1067L309.728 79.9335C310.398 79.8749 310.909 79.6534 311.26 79.2693C311.622 78.8735 311.776 78.3675 311.722 77.7512C311.666 77.1136 311.424 76.6155 310.996 76.2568C310.578 75.8865 310.035 75.7307 309.365 75.7894L307.389 75.9626L307.752 80.1067ZM307.28 74.7194L309.161 74.5546C309.777 74.5005 310.246 74.2935 310.568 73.9333C310.9 73.5723 311.042 73.1102 310.992 72.547C310.943 71.9838 310.729 71.5529 310.349 71.2542C309.97 70.9555 309.472 70.8332 308.855 70.8872L306.959 71.0534L307.28 74.7194ZM316.028 80.6825L315.008 69.0471L318.61 68.7314C319.301 68.6709 319.919 68.7613 320.465 69.0025C321.01 69.2332 321.448 69.5857 321.778 70.0599C322.109 70.5342 322.304 71.1061 322.362 71.7755C322.431 72.5618 322.283 73.2547 321.918 73.8542C321.564 74.4528 321.045 74.889 320.362 75.163L323.248 80.0498L321.558 80.1978L318.894 75.4523L317.029 75.6157L317.462 80.5568L316.028 80.6825ZM316.916 74.3247L319.084 74.1347C319.679 74.0826 320.141 73.8547 320.469 73.4511C320.797 73.037 320.934 72.5217 320.88 71.9054C320.825 71.2785 320.601 70.7949 320.207 70.4546C319.813 70.1144 319.318 69.9703 318.723 70.0225L316.556 70.2124L316.916 74.3247ZM324.939 79.9016L326.948 68.0008L328.877 67.8318L332.909 79.2032L331.458 79.3303L330.422 76.3052L326.9 76.6139L326.406 79.7731L324.939 79.9016ZM327.08 75.3774L330.013 75.1204L328.806 71.6123C328.577 70.9472 328.394 70.3903 328.258 69.9418C328.123 69.4933 328.038 69.2008 328.005 69.0646C327.996 69.2046 327.963 69.5072 327.908 69.9725C327.852 70.4378 327.769 71.0126 327.657 71.697L327.08 75.3774ZM335.397 78.9852L335.282 77.6782L337.657 77.47L336.867 68.4486L334.492 68.6567L334.377 67.3497L340.593 66.805L340.708 68.112L338.333 68.3201L339.124 77.3416L341.499 77.1334L341.613 78.4404L335.397 78.9852ZM344.739 78.1665L343.719 66.5311L345.632 66.3635L350.059 76.0138C350.015 75.7501 349.96 75.4283 349.894 75.0486C349.839 74.6573 349.782 74.25 349.723 73.8268C349.674 73.3921 349.633 72.9835 349.6 72.6009L349.027 66.066L350.414 65.9445L351.433 77.5799L349.521 77.7475L345.109 68.0957C345.153 68.3489 345.202 68.6711 345.258 69.0624C345.313 69.4431 345.365 69.8508 345.413 70.2855C345.472 70.7087 345.518 71.1169 345.553 71.51L346.126 78.045L344.739 78.1665ZM357.745 77.1874C357.001 77.2526 356.336 77.177 355.749 76.9607C355.174 76.7435 354.711 76.4093 354.361 75.9581C354.02 75.4954 353.822 74.94 353.765 74.2918L355.199 74.1661C355.251 74.7505 355.499 75.2052 355.945 75.5302C356.39 75.8445 356.953 75.9719 357.633 75.9123C358.292 75.8546 358.802 75.6331 359.165 75.248C359.526 74.8523 359.682 74.3622 359.63 73.7778C359.59 73.3209 359.433 72.9331 359.159 72.6145C358.895 72.2843 358.549 72.0736 358.124 71.9824L356.355 71.5914C355.558 71.415 354.912 71.0647 354.416 70.5406C353.931 70.0156 353.656 69.3812 353.591 68.6374C353.508 67.6917 353.75 66.9103 354.317 66.2931C354.894 65.675 355.698 65.3208 356.729 65.2304C357.76 65.1401 358.608 65.3495 359.274 65.8587C359.939 66.3679 360.314 67.0953 360.396 68.041L358.962 68.1667C358.913 67.6035 358.693 67.1731 358.303 66.8753C357.923 66.5767 357.436 66.4534 356.841 66.5055C356.235 66.5586 355.761 66.7662 355.418 67.1281C355.085 67.4892 354.943 67.9407 354.99 68.4826C355.028 68.9077 355.182 69.2636 355.453 69.5503C355.725 69.837 356.079 70.0308 356.516 70.1317L358.352 70.5491C359.105 70.7186 359.721 71.0823 360.198 71.6401C360.686 72.197 360.964 72.8686 361.033 73.6549C361.09 74.3031 360.991 74.8846 360.736 75.3995C360.491 75.9028 360.109 76.311 359.591 76.6241C359.083 76.9363 358.467 77.1241 357.745 77.1874Z" fill="white"/>
<path d="M372.503 75.7335L371.483 64.0981L374.782 63.809C375.494 63.7466 376.111 63.8157 376.632 64.0164C377.162 64.2054 377.58 64.5168 377.886 64.9504C378.201 65.3725 378.386 65.897 378.441 66.5239C378.512 67.3315 378.318 67.991 377.86 68.5023C377.412 69.0126 376.763 69.2998 375.912 69.3636L375.891 69.1245C376.803 69.0232 377.559 69.2246 378.16 69.7287C378.761 70.2329 379.103 70.9525 379.184 71.8876C379.242 72.5464 379.154 73.1323 378.921 73.6453C378.687 74.1583 378.327 74.5699 377.841 74.8803C377.353 75.18 376.753 75.3611 376.041 75.4234L372.503 75.7335ZM373.792 74.3196L375.769 74.1464C376.438 74.0877 376.949 73.8663 377.301 73.4821C377.662 73.0864 377.816 72.5803 377.762 71.964C377.706 71.3265 377.464 70.8284 377.037 70.4696C376.619 70.0994 376.075 69.9436 375.405 70.0022L373.429 70.1754L373.792 74.3196ZM373.32 68.9322L375.201 68.7674C375.817 68.7134 376.286 68.5063 376.608 68.1462C376.94 67.7851 377.082 67.323 377.033 66.7598C376.983 66.1966 376.769 65.7657 376.389 65.467C376.01 65.1684 375.512 65.046 374.896 65.1L372.999 65.2663L373.32 68.9322ZM384.666 74.6677L384.285 70.3163L380.14 63.3395L381.622 63.2096L384.352 67.7888C384.503 68.0433 384.624 68.2629 384.715 68.4476C384.805 68.6217 384.865 68.7504 384.893 68.8335C384.907 68.7467 384.943 68.6096 385.002 68.4225C385.07 68.2238 385.156 67.986 385.261 67.7092L387.105 62.7292L388.587 62.5993L385.719 70.1906L386.1 74.542L384.666 74.6677ZM391.278 75.6943L391.174 74.4989L398.824 73.8285L398.929 75.0239L391.278 75.6943ZM404.081 73.1269C402.965 73.2247 402.061 72.988 401.369 72.417C400.676 71.8459 400.282 71.0185 400.187 69.9346L401.622 69.8089C401.684 70.5209 401.919 71.0571 402.325 71.4177C402.741 71.7667 403.289 71.9114 403.969 71.8518C404.649 71.7922 405.159 71.5549 405.497 71.1397C405.845 70.713 405.988 70.1437 405.925 69.4318L405.314 62.4506L402.046 62.7369L401.932 61.4299L406.634 61.0179L407.36 69.3061C407.455 70.3899 407.206 71.2737 406.613 71.9575C406.03 72.6403 405.186 73.0301 404.081 73.1269ZM410.938 72.3654L409.919 60.73L416.613 60.1433L416.728 61.4503L411.452 61.9127L411.768 65.5149L416.485 65.1014L416.597 66.3765L411.879 66.79L412.242 70.9341L417.518 70.4718L417.633 71.7788L410.938 72.3654ZM422.99 71.3093L422.085 60.9809L418.897 61.2602L418.783 59.9532L426.593 59.2688L426.707 60.5758L423.519 60.8552L424.424 71.1836L422.99 71.3093ZM429.989 70.696L428.969 59.0606L432.269 58.7714C432.981 58.7091 433.597 58.7782 434.118 58.9788C434.648 59.1679 435.066 59.4792 435.372 59.9129C435.688 60.335 435.873 60.8595 435.928 61.4864C435.998 62.294 435.805 62.9534 435.346 63.4647C434.898 63.9751 434.249 64.2622 433.398 64.3261L433.377 64.087C434.289 63.9857 435.045 64.1871 435.646 64.6912C436.247 65.1953 436.589 65.9149 436.671 66.85C436.728 67.5088 436.641 68.0947 436.407 68.6077C436.174 69.1207 435.814 69.5324 435.327 69.8427C434.839 70.1425 434.239 70.3235 433.527 70.3859L429.989 70.696ZM431.278 69.282L433.255 69.1088C433.924 69.0502 434.435 68.8287 434.787 68.4446C435.148 68.0488 435.302 67.5428 435.248 66.9265C435.192 66.2889 434.95 65.7908 434.523 65.4321C434.105 65.0618 433.561 64.906 432.892 64.9647L430.915 65.1379L431.278 69.282ZM430.806 63.8947L432.687 63.7298C433.303 63.6758 433.772 63.4688 434.094 63.1086C434.427 62.7476 434.568 62.2855 434.519 61.7223C434.469 61.1591 434.255 60.7282 433.876 60.4295C433.496 60.1308 432.998 60.0085 432.382 60.0625L430.485 60.2287L430.806 63.8947ZM439.554 69.8578L438.534 58.2224L442.137 57.9067C442.827 57.8462 443.446 57.9366 443.991 58.1778C444.536 58.4085 444.974 58.7609 445.305 59.2352C445.635 59.7095 445.83 60.2814 445.889 60.9508C445.958 61.7371 445.809 62.43 445.444 63.0295C445.09 63.6281 444.571 64.0643 443.889 64.3383L446.774 69.2251L445.085 69.3731L442.42 64.6276L440.556 64.791L440.989 69.7321L439.554 69.8578ZM440.442 63.5L442.61 63.31C443.205 63.2579 443.667 63.03 443.996 62.6264C444.323 62.2122 444.46 61.697 444.406 61.0807C444.351 60.4538 444.127 59.9702 443.733 59.6299C443.339 59.2897 442.845 59.1456 442.25 59.1978L440.082 59.3877L440.442 63.5ZM448.466 69.0769L450.474 57.1761L452.403 57.0071L456.435 68.3785L454.985 68.5056L453.949 65.4805L450.426 65.7892L449.932 68.9484L448.466 69.0769ZM450.607 64.5527L453.54 64.2957L452.333 60.7876C452.103 60.1225 451.921 59.5656 451.785 59.1171C451.649 58.6685 451.565 58.3761 451.531 58.2399C451.522 58.3799 451.49 58.6825 451.434 59.1478C451.379 59.6131 451.295 60.1879 451.184 60.8723L450.607 64.5527ZM458.923 68.1604L458.809 66.8535L461.184 66.6453L460.393 57.6239L458.018 57.832L457.904 56.525L464.12 55.9803L464.234 57.2873L461.859 57.4954L462.65 66.5168L465.025 66.3087L465.139 67.6157L458.923 68.1604ZM468.265 67.3418L467.246 55.7064L469.158 55.5388L473.586 65.1891C473.541 64.9254 473.486 64.6036 473.421 64.2239C473.365 63.8326 473.308 63.4253 473.249 63.0021C473.201 62.5674 473.159 62.1588 473.126 61.7762L472.553 55.2413L473.94 55.1198L474.96 66.7552L473.047 66.9228L468.636 57.271C468.679 57.5242 468.729 57.8464 468.784 58.2377C468.839 58.6184 468.891 59.0261 468.94 59.4608C468.998 59.884 469.045 60.2922 469.079 60.6853L469.652 67.2203L468.265 67.3418ZM481.271 66.3627C480.527 66.4279 479.862 66.3523 479.276 66.136C478.7 65.9188 478.237 65.5846 477.887 65.1334C477.547 64.6707 477.348 64.1153 477.291 63.4671L478.726 63.3414C478.777 63.9258 479.026 64.3805 479.472 64.7055C479.917 65.0198 480.479 65.1472 481.159 65.0876C481.818 65.0299 482.329 64.8084 482.691 64.4233C483.053 64.0276 483.208 63.5375 483.157 62.9531C483.117 62.4962 482.96 62.1084 482.685 61.7898C482.421 61.4596 482.076 61.2489 481.65 61.1577L479.881 60.7667C479.084 60.5902 478.438 60.24 477.942 59.7159C477.457 59.1909 477.182 58.5565 477.117 57.8127C477.034 56.867 477.276 56.0856 477.843 55.4684C478.421 54.8503 479.225 54.496 480.255 54.4057C481.286 54.3154 482.134 54.5248 482.8 55.034C483.466 55.5432 483.84 56.2706 483.923 57.2163L482.488 57.342C482.439 56.7788 482.219 56.3484 481.829 56.0506C481.45 55.752 480.962 55.6287 480.367 55.6808C479.762 55.7339 479.287 55.9414 478.944 56.3034C478.612 56.6645 478.469 57.116 478.517 57.6579C478.554 58.083 478.708 58.4388 478.98 58.7256C479.251 59.0123 479.605 59.2061 480.043 59.307L481.878 59.7244C482.632 59.8939 483.247 60.2576 483.724 60.8154C484.212 61.3723 484.49 62.0439 484.559 62.8302C484.616 63.4784 484.517 64.0599 484.263 64.5747C484.018 65.0781 483.636 65.4863 483.117 65.7994C482.609 66.1116 481.994 66.2994 481.271 66.3627Z" fill="white"/>
</g>
</svg>
