<svg width="200" height="200" viewBox="0 0 200 200" fill="none" xmlns="http://www.w3.org/2000/svg">
<path d="M125.036 125.07C111.225 138.882 88.8273 138.885 75.0122 125.07C61.2009 111.259 61.1972 88.8605 75.0122 75.0452L125.147 24.9166C138.959 11.105 161.255 11.1995 175.07 25.0148C188.881 38.8263 188.987 61.1262 175.172 74.9415L125.036 125.07Z" fill="#7F52FF"/>
<path d="M74.8985 125.239C61.0871 111.427 61.0834 89.0289 74.8985 75.2136C88.7098 61.402 111.108 61.3983 124.923 75.2136L175.05 125.35C188.862 139.161 188.767 161.457 174.952 175.273C161.141 189.084 138.841 189.19 125.026 175.375L74.8985 125.239Z" fill="#FE2857"/>
<path fill-rule="evenodd" clip-rule="evenodd" d="M75.2907 125.634C89.1076 139.017 111.143 138.874 124.785 125.215L149.748 100.223L124.728 75.167C111.531 61.9525 90.4842 61.3916 76.6195 73.4746L74.8652 75.231C61.5866 88.5266 61.101 109.778 73.3987 123.656C73.8513 124.165 74.3212 124.663 74.8084 125.151L75.2907 125.634Z" fill="url(#paint0_linear_1494_18885)"/>
<path d="M8.70244e-05 49.9214C22.3869 27.8426 30.5444 14.6424 49.946 14.6424C69.4282 14.6424 85.2217 30.4806 85.2217 50.018C85.2217 69.5554 69.4282 85.3936 49.946 85.3936C30.5444 85.3935 22.3869 72.0621 8.70244e-05 49.9214Z" fill="url(#paint1_linear_1494_18885)"/>
<path d="M34.3048 58.0709C39.9291 58.0709 44.4885 53.5114 44.4885 47.887C44.4885 42.2626 39.9291 37.7031 34.3048 37.7031C28.6805 37.7031 24.1211 42.2626 24.1211 47.887C24.1211 53.5114 28.6805 58.0709 34.3048 58.0709Z" fill="white"/>
<path d="M30.5524 54.3228C34.1046 54.3228 36.9842 51.4432 36.9842 47.8909C36.9842 44.3386 34.1046 41.459 30.5524 41.459C27.0002 41.459 24.1206 44.3386 24.1206 47.8909C24.1206 51.4432 27.0002 54.3228 30.5524 54.3228Z" fill="black"/>
<defs>
<linearGradient id="paint0_linear_1494_18885" x1="149.748" y1="100.19" x2="64.5167" y2="100.19" gradientUnits="userSpaceOnUse">
<stop stop-color="#FE2857"/>
<stop offset="0.47" stop-color="#C711E1"/>
<stop offset="1" stop-color="#7F52FF"/>
</linearGradient>
<linearGradient id="paint1_linear_1494_18885" x1="-5.73222" y1="50.1493" x2="85.1026" y2="50.1493" gradientUnits="userSpaceOnUse">
<stop stop-color="#FE2857"/>
<stop offset="0.47" stop-color="#C711E1"/>
<stop offset="1" stop-color="#7F52FF"/>
</linearGradient>
</defs>
</svg>
