<svg width="302" height="255" viewBox="0 0 302 255" fill="none" xmlns="http://www.w3.org/2000/svg">
<path d="M173.268 76.2681C163.732 85.804 148.267 85.8065 138.729 76.2681C129.193 66.7322 129.191 51.268 138.729 41.7295L173.344 7.11932C182.88 -2.41657 198.274 -2.35135 207.813 7.1871C217.348 16.723 217.421 32.1195 207.883 41.6579L173.268 76.2681Z" fill="#C202D7"/>
<path d="M138.708 76.3851C129.172 66.8492 129.17 51.3849 138.708 41.8465C148.244 32.3106 163.708 32.308 173.247 41.8465L207.857 76.4618C217.393 85.9977 217.328 101.392 207.789 110.93C198.253 120.466 182.857 120.539 173.318 111L138.708 76.3851Z" fill="#C202D7"/>
<path fill-rule="evenodd" clip-rule="evenodd" d="M138.978 76.6645C148.518 85.9047 163.732 85.8058 173.151 76.3751L190.387 59.12L173.112 41.8206C164 32.6969 149.468 32.3097 139.896 40.6521L138.684 41.8648C129.516 51.0445 129.181 65.7171 137.672 75.299C137.984 75.6501 138.309 75.9942 138.645 76.331L138.978 76.6645Z" fill="#C202D7"/>
<path d="M86.9986 24.385C102.455 9.14122 108.088 0.0274359 121.483 0.0274371C134.934 0.0274382 145.839 10.9626 145.839 24.4517C145.839 37.9409 134.934 48.876 121.483 48.876C108.088 48.876 102.455 39.6716 86.9986 24.385Z" fill="url(#paint0_linear_8138_14157)"/>
<path d="M110.681 30.0063C114.564 30.0063 117.712 26.8583 117.712 22.9751C117.712 19.0918 114.564 15.9438 110.681 15.9438C106.798 15.9438 103.65 19.0918 103.65 22.9751C103.65 26.8583 106.798 30.0063 110.681 30.0063Z" fill="white"/>
<path d="M108.092 27.4152C110.544 27.4152 112.533 25.427 112.533 22.9745C112.533 20.5219 110.544 18.5337 108.092 18.5337C105.639 18.5337 103.651 20.5219 103.651 22.9745C103.651 25.427 105.639 27.4152 108.092 27.4152Z" fill="black"/>
<path d="M36.7827 164.118H40.4277V173.643L49.0977 164.118H53.5827L44.3577 174.243L53.7777 185.118H49.1577L40.4277 175.098V185.118H36.7827V164.118ZM61.784 185.478C60.274 185.478 58.899 185.128 57.659 184.428C56.429 183.728 55.464 182.768 54.764 181.548C54.064 180.318 53.714 178.948 53.714 177.438C53.714 175.928 54.064 174.563 54.764 173.343C55.464 172.113 56.429 171.148 57.659 170.448C58.899 169.748 60.274 169.398 61.784 169.398C63.304 169.398 64.679 169.748 65.909 170.448C67.139 171.148 68.104 172.113 68.804 173.343C69.504 174.563 69.854 175.928 69.854 177.438C69.854 178.948 69.504 180.318 68.804 181.548C68.104 182.768 67.134 183.728 65.894 184.428C64.664 185.128 63.294 185.478 61.784 185.478ZM61.784 182.313C62.644 182.313 63.404 182.108 64.064 181.698C64.734 181.288 65.254 180.713 65.624 179.973C65.994 179.233 66.179 178.388 66.179 177.438C66.179 176.478 65.994 175.633 65.624 174.903C65.254 174.163 64.734 173.588 64.064 173.178C63.404 172.758 62.644 172.548 61.784 172.548C60.924 172.548 60.159 172.753 59.489 173.163C58.829 173.573 58.314 174.148 57.944 174.888C57.574 175.628 57.389 176.478 57.389 177.438C57.389 178.388 57.574 179.233 57.944 179.973C58.314 180.713 58.829 181.288 59.489 181.698C60.159 182.108 60.924 182.313 61.784 182.313ZM78.4952 185.118C77.6752 185.118 76.9352 184.943 76.2752 184.593C75.6252 184.243 75.1152 183.758 74.7452 183.138C74.3852 182.518 74.2052 181.818 74.2052 181.038L74.1902 172.833H71.4902L71.5052 169.758H73.1852C73.5652 169.758 73.8702 169.643 74.1002 169.413C74.3302 169.173 74.4452 168.868 74.4452 168.498V166.008H77.7452V169.758H81.8252L81.8102 172.833H77.7302L77.7452 180.588C77.7452 181.008 77.8802 181.358 78.1502 181.638C78.4302 181.908 78.7802 182.043 79.2002 182.043H81.8102V185.118H78.4952ZM85.0912 164.118H88.6312V185.118H85.0912V164.118ZM92.9378 169.758H96.4778V185.118H92.9378V169.758ZM92.8178 164.118H96.5978V167.553H92.8178V164.118ZM100.584 169.758H104.019V176.148H102.999C102.999 174.778 103.234 173.588 103.704 172.578C104.184 171.558 104.859 170.773 105.729 170.223C106.609 169.673 107.639 169.398 108.819 169.398C109.919 169.398 110.884 169.638 111.714 170.118C112.544 170.598 113.189 171.293 113.649 172.203C114.109 173.113 114.339 174.198 114.339 175.458V185.118H110.814V175.998C110.814 175.258 110.689 174.628 110.439 174.108C110.189 173.588 109.829 173.193 109.359 172.923C108.889 172.643 108.329 172.503 107.679 172.503C106.979 172.503 106.359 172.663 105.819 172.983C105.279 173.293 104.859 173.728 104.559 174.288C104.269 174.848 104.124 175.493 104.124 176.223V185.118H100.584V169.758ZM127.839 185.478C125.839 185.478 124.029 185.008 122.409 184.068C120.799 183.118 119.529 181.818 118.599 180.168C117.679 178.508 117.219 176.658 117.219 174.618C117.219 172.578 117.679 170.733 118.599 169.083C119.529 167.423 120.799 166.123 122.409 165.183C124.029 164.233 125.839 163.758 127.839 163.758C129.509 163.758 131.044 164.068 132.444 164.688C133.844 165.298 135.009 166.163 135.939 167.283C136.879 168.393 137.519 169.668 137.859 171.108H133.929C133.639 170.308 133.199 169.608 132.609 169.008C132.029 168.408 131.329 167.948 130.509 167.628C129.699 167.308 128.819 167.148 127.869 167.148C126.579 167.148 125.409 167.473 124.359 168.123C123.319 168.763 122.504 169.653 121.914 170.793C121.324 171.923 121.029 173.198 121.029 174.618C121.029 176.038 121.324 177.318 121.914 178.458C122.504 179.588 123.319 180.478 124.359 181.128C125.409 181.768 126.579 182.088 127.869 182.088C128.819 182.088 129.699 181.928 130.509 181.608C131.329 181.288 132.029 180.828 132.609 180.228C133.199 179.628 133.639 178.928 133.929 178.128H137.859C137.519 179.568 136.879 180.848 135.939 181.968C135.009 183.078 133.844 183.943 132.444 184.563C131.044 185.173 129.509 185.478 127.839 185.478ZM148.034 185.478C146.524 185.478 145.149 185.128 143.909 184.428C142.679 183.728 141.714 182.768 141.014 181.548C140.314 180.318 139.964 178.948 139.964 177.438C139.964 175.928 140.314 174.563 141.014 173.343C141.714 172.113 142.679 171.148 143.909 170.448C145.149 169.748 146.524 169.398 148.034 169.398C149.554 169.398 150.929 169.748 152.159 170.448C153.389 171.148 154.354 172.113 155.054 173.343C155.754 174.563 156.104 175.928 156.104 177.438C156.104 178.948 155.754 180.318 155.054 181.548C154.354 182.768 153.384 183.728 152.144 184.428C150.914 185.128 149.544 185.478 148.034 185.478ZM148.034 182.313C148.894 182.313 149.654 182.108 150.314 181.698C150.984 181.288 151.504 180.713 151.874 179.973C152.244 179.233 152.429 178.388 152.429 177.438C152.429 176.478 152.244 175.633 151.874 174.903C151.504 174.163 150.984 173.588 150.314 173.178C149.654 172.758 148.894 172.548 148.034 172.548C147.174 172.548 146.409 172.753 145.739 173.163C145.079 173.573 144.564 174.148 144.194 174.888C143.824 175.628 143.639 176.478 143.639 177.438C143.639 178.388 143.824 179.233 144.194 179.973C144.564 180.713 145.079 181.288 145.739 181.698C146.409 182.108 147.174 182.313 148.034 182.313ZM159.178 169.758H162.613V176.148H161.593C161.593 174.778 161.828 173.588 162.298 172.578C162.778 171.558 163.453 170.773 164.323 170.223C165.203 169.673 166.233 169.398 167.413 169.398C168.513 169.398 169.478 169.638 170.308 170.118C171.138 170.598 171.783 171.293 172.243 172.203C172.703 173.113 172.933 174.198 172.933 175.458V185.118H169.408V175.998C169.408 175.258 169.283 174.628 169.033 174.108C168.783 173.588 168.423 173.193 167.953 172.923C167.483 172.643 166.923 172.503 166.273 172.503C165.573 172.503 164.953 172.663 164.413 172.983C163.873 173.293 163.453 173.728 163.153 174.288C162.863 174.848 162.718 175.493 162.718 176.223V185.118H159.178V169.758ZM178.138 172.833H175.423V169.758H178.138V168.003C178.138 167.233 178.318 166.558 178.678 165.978C179.038 165.388 179.538 164.933 180.178 164.613C180.828 164.283 181.573 164.118 182.413 164.118H185.803V166.953H183.058C182.648 166.953 182.313 167.083 182.053 167.343C181.803 167.593 181.678 167.923 181.678 168.333V169.758H185.683V172.833H181.678V185.118H178.138V172.833ZM196.165 182.058L204.715 174.438C205.445 173.778 205.98 173.133 206.32 172.503C206.67 171.863 206.845 171.193 206.845 170.493C206.845 169.803 206.695 169.198 206.395 168.678C206.095 168.148 205.67 167.738 205.12 167.448C204.57 167.158 203.935 167.013 203.215 167.013C202.455 167.013 201.775 167.183 201.175 167.523C200.575 167.853 200.11 168.318 199.78 168.918C199.45 169.508 199.285 170.178 199.285 170.928H195.61C195.62 169.558 195.95 168.328 196.6 167.238C197.26 166.148 198.17 165.298 199.33 164.688C200.5 164.068 201.815 163.758 203.275 163.758C204.665 163.758 205.915 164.038 207.025 164.598C208.135 165.148 209 165.918 209.62 166.908C210.24 167.888 210.55 168.998 210.55 170.238C210.55 171.378 210.25 172.488 209.65 173.568C209.05 174.638 208.145 175.718 206.935 176.808L201.4 181.803H211.12V185.118H196.165V182.058ZM222.026 182.238C223.006 182.238 223.851 181.938 224.561 181.338C225.281 180.728 225.831 179.853 226.211 178.713C226.591 177.563 226.781 176.208 226.781 174.648C226.781 173.078 226.591 171.718 226.211 170.568C225.831 169.408 225.281 168.523 224.561 167.913C223.851 167.303 223.006 166.998 222.026 166.998C221.046 166.998 220.201 167.303 219.491 167.913C218.781 168.523 218.231 169.403 217.841 170.553C217.461 171.703 217.271 173.058 217.271 174.618C217.271 176.178 217.461 177.533 217.841 178.683C218.231 179.833 218.781 180.713 219.491 181.323C220.201 181.933 221.046 182.238 222.026 182.238ZM222.011 185.478C220.321 185.478 218.836 185.033 217.556 184.143C216.276 183.253 215.286 181.993 214.586 180.363C213.896 178.723 213.551 176.818 213.551 174.648C213.551 172.468 213.901 170.558 214.601 168.918C215.301 167.268 216.286 165.998 217.556 165.108C218.836 164.208 220.321 163.758 222.011 163.758C223.721 163.758 225.216 164.208 226.496 165.108C227.776 165.998 228.766 167.268 229.466 168.918C230.166 170.558 230.516 172.468 230.516 174.648C230.516 176.818 230.166 178.723 229.466 180.363C228.766 181.993 227.776 183.253 226.496 184.143C225.216 185.033 223.721 185.478 222.011 185.478ZM233.284 182.058L241.834 174.438C242.564 173.778 243.099 173.133 243.439 172.503C243.789 171.863 243.964 171.193 243.964 170.493C243.964 169.803 243.814 169.198 243.514 168.678C243.214 168.148 242.789 167.738 242.239 167.448C241.689 167.158 241.054 167.013 240.334 167.013C239.574 167.013 238.894 167.183 238.294 167.523C237.694 167.853 237.229 168.318 236.899 168.918C236.569 169.508 236.404 170.178 236.404 170.928H232.729C232.739 169.558 233.069 168.328 233.719 167.238C234.379 166.148 235.289 165.298 236.449 164.688C237.619 164.068 238.934 163.758 240.394 163.758C241.784 163.758 243.034 164.038 244.144 164.598C245.254 165.148 246.119 165.918 246.739 166.908C247.359 167.888 247.669 168.998 247.669 170.238C247.669 171.378 247.369 172.488 246.769 173.568C246.169 174.638 245.264 175.718 244.054 176.808L238.519 181.803H248.239V185.118H233.284V182.058ZM258.603 185.478C257.283 185.478 256.063 185.228 254.943 184.728C253.823 184.218 252.908 183.518 252.198 182.628C251.488 181.738 251.068 180.743 250.938 179.643H254.628C254.748 180.153 254.998 180.613 255.378 181.023C255.758 181.423 256.223 181.738 256.773 181.968C257.333 182.188 257.938 182.298 258.588 182.298C259.368 182.298 260.063 182.118 260.673 181.758C261.293 181.398 261.773 180.903 262.113 180.273C262.463 179.633 262.638 178.913 262.638 178.113C262.638 177.313 262.463 176.598 262.113 175.968C261.773 175.328 261.293 174.828 260.673 174.468C260.063 174.098 259.368 173.913 258.588 173.913C258.048 173.913 257.538 174.003 257.058 174.183C256.578 174.353 256.158 174.583 255.798 174.873C255.448 175.163 255.183 175.478 255.003 175.818H251.523L252.423 164.118H265.218V167.433H255.468L255.033 172.893C255.293 172.513 255.648 172.178 256.098 171.888C256.558 171.598 257.078 171.373 257.658 171.213C258.238 171.053 258.838 170.973 259.458 170.973C260.768 170.973 261.948 171.283 262.998 171.903C264.048 172.523 264.868 173.373 265.458 174.453C266.048 175.523 266.343 176.728 266.343 178.068C266.343 179.468 266.008 180.733 265.338 181.863C264.668 182.993 263.743 183.878 262.563 184.518C261.393 185.158 260.073 185.478 258.603 185.478Z" fill="#19191C"/>
<path d="M69.6863 224.31C68.6516 224.31 67.7156 224.059 66.8783 223.558C66.041 223.051 65.3823 222.358 64.9023 221.478C64.4276 220.592 64.1903 219.606 64.1903 218.518C64.1903 217.43 64.4276 216.446 64.9023 215.566C65.3823 214.68 66.041 213.987 66.8783 213.486C67.7156 212.979 68.6516 212.726 69.6863 212.726C70.529 212.726 71.3023 212.878 72.0063 213.182C72.7156 213.486 73.313 213.915 73.7983 214.47C74.289 215.019 74.6383 215.656 74.8463 216.382H73.4063C73.225 215.891 72.9556 215.462 72.5983 215.094C72.241 214.726 71.8143 214.443 71.3183 214.246C70.8276 214.043 70.297 213.942 69.7263 213.942C68.9476 213.942 68.241 214.142 67.6063 214.542C66.9716 214.936 66.473 215.483 66.1103 216.182C65.7476 216.88 65.5663 217.659 65.5663 218.518C65.5663 219.376 65.7476 220.155 66.1103 220.854C66.473 221.552 66.9716 222.102 67.6063 222.502C68.241 222.896 68.9476 223.094 69.7263 223.094C70.297 223.094 70.8276 222.995 71.3183 222.798C71.8143 222.595 72.241 222.31 72.5983 221.942C72.9556 221.574 73.225 221.144 73.4063 220.654H74.8463C74.6383 221.379 74.289 222.019 73.7983 222.574C73.313 223.123 72.7156 223.55 72.0063 223.854C71.3023 224.158 70.529 224.31 69.6863 224.31ZM80.5011 224.31C79.7171 224.31 79.0051 224.123 78.3651 223.75C77.7304 223.376 77.2317 222.864 76.8691 222.214C76.5064 221.558 76.3251 220.827 76.3251 220.022C76.3251 219.216 76.5064 218.488 76.8691 217.838C77.2317 217.182 77.7304 216.667 78.3651 216.294C79.0051 215.92 79.7171 215.734 80.5011 215.734C81.2851 215.734 81.9944 215.92 82.6291 216.294C83.2691 216.667 83.7704 217.182 84.1331 217.838C84.4957 218.488 84.6771 219.216 84.6771 220.022C84.6771 220.827 84.4957 221.558 84.1331 222.214C83.7704 222.864 83.2691 223.376 82.6291 223.75C81.9944 224.123 81.2851 224.31 80.5011 224.31ZM80.5011 223.142C81.0557 223.142 81.5464 223.011 81.9731 222.75C82.4051 222.483 82.7384 222.115 82.9731 221.646C83.2131 221.171 83.3331 220.63 83.3331 220.022C83.3331 219.408 83.2131 218.867 82.9731 218.398C82.7384 217.923 82.4051 217.555 81.9731 217.294C81.5464 217.027 81.0557 216.894 80.5011 216.894C79.9464 216.894 79.4531 217.027 79.0211 217.294C78.5944 217.555 78.2611 217.923 78.0211 218.398C77.7864 218.867 77.6691 219.408 77.6691 220.022C77.6691 220.63 77.7864 221.171 78.0211 221.646C78.2611 222.115 78.5944 222.483 79.0211 222.75C79.4531 223.011 79.9464 223.142 80.5011 223.142ZM87.9911 215.926V217.526H88.0231V226.678H86.7431V215.926H87.9911ZM91.0391 224.31C90.3351 224.31 89.7137 224.155 89.1751 223.846C88.6364 223.531 88.2151 223.094 87.9111 222.534C87.6124 221.968 87.4577 221.315 87.4471 220.574H87.9751V219.47H87.4471C87.4577 218.728 87.6124 218.078 87.9111 217.518C88.2151 216.952 88.6364 216.515 89.1751 216.206C89.7137 215.891 90.3351 215.734 91.0391 215.734C91.8017 215.734 92.4791 215.915 93.0711 216.278C93.6684 216.635 94.1324 217.139 94.4631 217.79C94.7991 218.44 94.9671 219.184 94.9671 220.022C94.9671 220.859 94.7991 221.603 94.4631 222.254C94.1324 222.904 93.6684 223.411 93.0711 223.774C92.4791 224.131 91.8017 224.31 91.0391 224.31ZM90.8391 223.15C91.3831 223.15 91.8657 223.019 92.2871 222.758C92.7084 222.491 93.0364 222.123 93.2711 221.654C93.5057 221.179 93.6231 220.635 93.6231 220.022C93.6231 219.408 93.5057 218.867 93.2711 218.398C93.0364 217.923 92.7084 217.555 92.2871 217.294C91.8657 217.027 91.3831 216.894 90.8391 216.894C90.2897 216.894 89.8017 217.027 89.3751 217.294C88.9484 217.555 88.6151 217.923 88.3751 218.398C88.1404 218.867 88.0231 219.408 88.0231 220.022C88.0231 220.635 88.1404 221.179 88.3751 221.654C88.6151 222.123 88.9484 222.491 89.3751 222.758C89.8017 223.019 90.2897 223.15 90.8391 223.15ZM100.485 224.31C99.7114 224.31 99.0127 224.126 98.3887 223.758C97.7647 223.39 97.274 222.878 96.9167 222.222C96.5594 221.566 96.3807 220.827 96.3807 220.006C96.3807 219.206 96.562 218.48 96.9247 217.83C97.2874 217.174 97.7807 216.662 98.4047 216.294C99.034 215.92 99.7274 215.734 100.485 215.734C101.263 215.734 101.954 215.915 102.557 216.278C103.159 216.635 103.629 217.139 103.965 217.79C104.301 218.44 104.469 219.184 104.469 220.022V220.31H97.6527L97.6687 219.982C97.674 220.616 97.794 221.174 98.0287 221.654C98.2687 222.128 98.5994 222.496 99.0207 222.758C99.442 223.019 99.93 223.15 100.485 223.15C100.981 223.15 101.421 223.054 101.805 222.862C102.189 222.67 102.503 222.395 102.749 222.038H104.173C103.97 222.507 103.69 222.912 103.333 223.254C102.981 223.59 102.562 223.851 102.077 224.038C101.591 224.219 101.061 224.31 100.485 224.31ZM97.6527 219.294H103.189V220.006C103.189 219.392 103.074 218.851 102.845 218.382C102.621 217.907 102.303 217.539 101.893 217.278C101.482 217.016 101.013 216.886 100.485 216.886C99.9354 216.886 99.4474 217.014 99.0207 217.27C98.594 217.526 98.2607 217.886 98.0207 218.35C97.786 218.814 97.6687 219.347 97.6687 219.95L97.6527 219.294ZM106.533 215.926H107.765V219.47H107.253C107.253 218.712 107.384 218.054 107.645 217.494C107.906 216.928 108.28 216.494 108.765 216.19C109.25 215.886 109.821 215.734 110.477 215.734C111.064 215.734 111.584 215.859 112.037 216.11C112.49 216.36 112.845 216.731 113.101 217.222C113.362 217.707 113.493 218.291 113.493 218.974V224.118H112.213V219.102C112.213 218.627 112.128 218.222 111.957 217.886C111.792 217.55 111.554 217.294 111.245 217.118C110.936 216.942 110.568 216.854 110.141 216.854C109.682 216.854 109.277 216.955 108.925 217.158C108.573 217.36 108.298 217.646 108.101 218.014C107.909 218.376 107.813 218.792 107.813 219.262V224.118H106.533V215.926ZM115.975 212.918H117.207V215.502V216.958V219.47H116.695C116.695 218.712 116.826 218.054 117.087 217.494C117.348 216.928 117.722 216.494 118.207 216.19C118.692 215.886 119.263 215.734 119.919 215.734C120.506 215.734 121.026 215.859 121.479 216.11C121.932 216.36 122.287 216.731 122.543 217.222C122.804 217.707 122.935 218.291 122.935 218.974V224.118H121.655V219.102C121.655 218.627 121.57 218.222 121.399 217.886C121.234 217.55 120.996 217.294 120.687 217.118C120.378 216.942 120.01 216.854 119.583 216.854C119.124 216.854 118.719 216.955 118.367 217.158C118.015 217.36 117.74 217.646 117.543 218.014C117.351 218.376 117.255 218.792 117.255 219.262V224.118H115.975V212.918ZM128.305 215.734C128.939 215.734 129.486 215.851 129.945 216.086C130.409 216.315 130.763 216.646 131.009 217.078C131.259 217.51 131.385 218.022 131.385 218.614V224.118H130.121V221.054H130.601C130.601 221.704 130.473 222.278 130.217 222.774C129.966 223.264 129.609 223.643 129.145 223.91C128.681 224.176 128.142 224.31 127.529 224.31C127.006 224.31 126.534 224.208 126.113 224.006C125.697 223.803 125.371 223.523 125.137 223.166C124.902 222.808 124.785 222.406 124.785 221.958C124.785 221.526 124.897 221.126 125.121 220.758C125.345 220.39 125.654 220.088 126.049 219.854C126.443 219.619 126.889 219.475 127.385 219.422L129.529 219.182C129.71 219.16 129.854 219.088 129.961 218.966C130.067 218.838 130.131 218.648 130.153 218.398L130.201 220.078L127.569 220.366C127.286 220.398 127.033 220.486 126.809 220.63C126.59 220.768 126.419 220.95 126.297 221.174C126.174 221.392 126.113 221.632 126.113 221.894C126.113 222.16 126.185 222.398 126.329 222.606C126.473 222.808 126.673 222.966 126.929 223.078C127.19 223.19 127.489 223.246 127.825 223.246C128.267 223.246 128.662 223.155 129.009 222.974C129.355 222.787 129.625 222.528 129.817 222.198C130.009 221.867 130.105 221.486 130.105 221.054V218.454C130.105 218.128 130.03 217.846 129.881 217.606C129.737 217.366 129.529 217.182 129.257 217.054C128.985 216.92 128.667 216.854 128.305 216.854C127.937 216.854 127.611 216.912 127.329 217.03C127.051 217.142 126.83 217.294 126.665 217.486C126.499 217.678 126.395 217.883 126.353 218.102H125.073C125.142 217.659 125.318 217.259 125.601 216.902C125.889 216.539 126.265 216.254 126.729 216.046C127.193 215.838 127.718 215.734 128.305 215.734ZM137.331 226.87C136.728 226.87 136.165 226.768 135.643 226.566C135.125 226.363 134.688 226.078 134.331 225.71C133.979 225.347 133.741 224.928 133.619 224.454H134.931C135 224.694 135.149 224.907 135.379 225.094C135.608 225.286 135.891 225.435 136.227 225.542C136.568 225.648 136.936 225.702 137.331 225.702C137.837 225.702 138.291 225.606 138.691 225.414C139.096 225.222 139.411 224.952 139.635 224.606C139.864 224.259 139.979 223.856 139.979 223.398V222.902L140.043 220.662L140.707 219.846C140.696 220.603 140.539 221.272 140.235 221.854C139.936 222.43 139.515 222.878 138.971 223.198C138.427 223.512 137.797 223.67 137.083 223.67C136.341 223.67 135.685 223.502 135.115 223.166C134.544 222.83 134.101 222.36 133.787 221.758C133.477 221.155 133.323 220.47 133.323 219.702C133.323 218.934 133.477 218.248 133.787 217.646C134.101 217.043 134.544 216.574 135.115 216.238C135.685 215.902 136.341 215.734 137.083 215.734C137.797 215.734 138.427 215.894 138.971 216.214C139.515 216.528 139.936 216.976 140.235 217.558C140.539 218.134 140.696 218.806 140.707 219.574L140.043 218.854V215.926H141.283L141.259 223.398C141.259 224.075 141.091 224.675 140.755 225.198C140.419 225.726 139.952 226.136 139.355 226.43C138.763 226.723 138.088 226.87 137.331 226.87ZM137.331 222.542C137.848 222.542 138.307 222.424 138.707 222.19C139.112 221.95 139.427 221.614 139.651 221.182C139.875 220.75 139.989 220.256 139.995 219.702C139.989 219.147 139.875 218.654 139.651 218.222C139.427 217.79 139.112 217.456 138.707 217.222C138.307 216.982 137.848 216.862 137.331 216.862C136.808 216.862 136.344 216.982 135.939 217.222C135.533 217.456 135.219 217.79 134.995 218.222C134.776 218.654 134.667 219.147 134.667 219.702C134.667 220.256 134.776 220.75 134.995 221.182C135.219 221.614 135.533 221.95 135.939 222.19C136.344 222.424 136.808 222.542 137.331 222.542ZM147.585 224.31C146.811 224.31 146.113 224.126 145.489 223.758C144.865 223.39 144.374 222.878 144.017 222.222C143.659 221.566 143.481 220.827 143.481 220.006C143.481 219.206 143.662 218.48 144.025 217.83C144.387 217.174 144.881 216.662 145.505 216.294C146.134 215.92 146.827 215.734 147.585 215.734C148.363 215.734 149.054 215.915 149.657 216.278C150.259 216.635 150.729 217.139 151.065 217.79C151.401 218.44 151.569 219.184 151.569 220.022V220.31H144.753L144.769 219.982C144.774 220.616 144.894 221.174 145.129 221.654C145.369 222.128 145.699 222.496 146.121 222.758C146.542 223.019 147.03 223.15 147.585 223.15C148.081 223.15 148.521 223.054 148.905 222.862C149.289 222.67 149.603 222.395 149.849 222.038H151.273C151.07 222.507 150.79 222.912 150.433 223.254C150.081 223.59 149.662 223.851 149.177 224.038C148.691 224.219 148.161 224.31 147.585 224.31ZM144.753 219.294H150.289V220.006C150.289 219.392 150.174 218.851 149.945 218.382C149.721 217.907 149.403 217.539 148.993 217.278C148.582 217.016 148.113 216.886 147.585 216.886C147.035 216.886 146.547 217.014 146.121 217.27C145.694 217.526 145.361 217.886 145.121 218.35C144.886 218.814 144.769 219.347 144.769 219.95L144.753 219.294ZM153.633 215.926H154.865V219.47H154.353C154.353 218.712 154.484 218.054 154.745 217.494C155.006 216.928 155.38 216.494 155.865 216.19C156.35 215.886 156.921 215.734 157.577 215.734C158.164 215.734 158.684 215.859 159.137 216.11C159.59 216.36 159.945 216.731 160.201 217.222C160.462 217.707 160.593 218.291 160.593 218.974V224.118H159.313V219.102C159.313 218.627 159.228 218.222 159.057 217.886C158.892 217.55 158.654 217.294 158.345 217.118C158.036 216.942 157.668 216.854 157.241 216.854C156.782 216.854 156.377 216.955 156.025 217.158C155.673 217.36 155.398 217.646 155.201 218.014C155.009 218.376 154.913 218.792 154.913 219.262V224.118H153.633V215.926ZM163.075 225.718C163.411 225.718 163.672 225.59 163.859 225.334C164.046 225.078 164.139 224.672 164.139 224.118H163.155V222.366H165.019V224.006C165.019 224.555 164.939 225.016 164.779 225.39C164.619 225.768 164.392 226.051 164.099 226.238C163.811 226.424 163.47 226.518 163.075 226.518V225.718ZM172.627 212.918H176.595C177.646 212.918 178.577 213.155 179.387 213.63C180.203 214.099 180.838 214.758 181.291 215.606C181.745 216.454 181.971 217.424 181.971 218.518C181.971 219.611 181.745 220.582 181.291 221.43C180.838 222.278 180.203 222.939 179.387 223.414C178.577 223.883 177.646 224.118 176.595 224.118H172.627V212.918ZM176.595 222.878C177.374 222.878 178.067 222.694 178.675 222.326C179.283 221.958 179.755 221.446 180.091 220.79C180.427 220.128 180.595 219.371 180.595 218.518C180.595 217.664 180.427 216.91 180.091 216.254C179.755 215.592 179.283 215.078 178.675 214.71C178.067 214.342 177.374 214.158 176.595 214.158H173.955V222.878H176.595ZM187.591 224.31C186.818 224.31 186.119 224.126 185.495 223.758C184.871 223.39 184.38 222.878 184.023 222.222C183.666 221.566 183.487 220.827 183.487 220.006C183.487 219.206 183.668 218.48 184.031 217.83C184.394 217.174 184.887 216.662 185.511 216.294C186.14 215.92 186.834 215.734 187.591 215.734C188.37 215.734 189.06 215.915 189.663 216.278C190.266 216.635 190.735 217.139 191.071 217.79C191.407 218.44 191.575 219.184 191.575 220.022V220.31H184.759L184.775 219.982C184.78 220.616 184.9 221.174 185.135 221.654C185.375 222.128 185.706 222.496 186.127 222.758C186.548 223.019 187.036 223.15 187.591 223.15C188.087 223.15 188.527 223.054 188.911 222.862C189.295 222.67 189.61 222.395 189.855 222.038H191.279C191.076 222.507 190.796 222.912 190.439 223.254C190.087 223.59 189.668 223.851 189.183 224.038C188.698 224.219 188.167 224.31 187.591 224.31ZM184.759 219.294H190.295V220.006C190.295 219.392 190.18 218.851 189.951 218.382C189.727 217.907 189.41 217.539 188.999 217.278C188.588 217.016 188.119 216.886 187.591 216.886C187.042 216.886 186.554 217.014 186.127 217.27C185.7 217.526 185.367 217.886 185.127 218.35C184.892 218.814 184.775 219.347 184.775 219.95L184.759 219.294ZM193.639 215.926H194.871V219.47H194.359C194.359 218.712 194.49 218.054 194.751 217.494C195.013 216.928 195.386 216.494 195.871 216.19C196.357 215.886 196.927 215.734 197.583 215.734C198.17 215.734 198.69 215.859 199.143 216.11C199.597 216.36 199.951 216.731 200.207 217.222C200.469 217.707 200.599 218.291 200.599 218.974V224.118H199.319V219.102C199.319 218.627 199.234 218.222 199.063 217.886C198.898 217.55 198.661 217.294 198.351 217.118C198.042 216.942 197.674 216.854 197.247 216.854C196.789 216.854 196.383 216.955 196.031 217.158C195.679 217.36 195.405 217.646 195.207 218.014C195.015 218.376 194.919 218.792 194.919 219.262V224.118H193.639V215.926ZM203.081 215.926H204.313V219.47H203.881C203.881 218.702 203.999 218.038 204.233 217.478C204.473 216.918 204.817 216.488 205.265 216.19C205.713 215.886 206.247 215.734 206.865 215.734C207.447 215.734 207.956 215.867 208.393 216.134C208.831 216.395 209.169 216.768 209.409 217.254C209.649 217.739 209.769 218.304 209.769 218.95V224.118H208.489V219.006C208.489 218.558 208.412 218.171 208.257 217.846C208.108 217.515 207.887 217.262 207.593 217.086C207.305 216.91 206.959 216.822 206.553 216.822C206.111 216.822 205.724 216.92 205.393 217.118C205.063 217.315 204.807 217.598 204.625 217.966C204.449 218.334 204.361 218.766 204.361 219.262V224.118H203.081V215.926ZM213.897 219.006C213.897 218.558 213.82 218.171 213.665 217.846C213.516 217.515 213.297 217.262 213.009 217.086C212.721 216.91 212.372 216.822 211.961 216.822C211.524 216.822 211.14 216.923 210.809 217.126C210.479 217.323 210.223 217.606 210.041 217.974C209.86 218.336 209.769 218.766 209.769 219.262L209.049 219.47C209.049 218.734 209.177 218.083 209.433 217.518C209.689 216.952 210.055 216.515 210.529 216.206C211.009 215.891 211.567 215.734 212.201 215.734C212.783 215.734 213.297 215.867 213.745 216.134C214.199 216.395 214.551 216.768 214.801 217.254C215.052 217.739 215.177 218.304 215.177 218.95V224.118H213.897V219.006ZM220.536 215.734C221.171 215.734 221.717 215.851 222.176 216.086C222.64 216.315 222.995 216.646 223.24 217.078C223.491 217.51 223.616 218.022 223.616 218.614V224.118H222.352V221.054H222.832C222.832 221.704 222.704 222.278 222.448 222.774C222.197 223.264 221.84 223.643 221.376 223.91C220.912 224.176 220.373 224.31 219.76 224.31C219.237 224.31 218.765 224.208 218.344 224.006C217.928 223.803 217.603 223.523 217.368 223.166C217.133 222.808 217.016 222.406 217.016 221.958C217.016 221.526 217.128 221.126 217.352 220.758C217.576 220.39 217.885 220.088 218.28 219.854C218.675 219.619 219.12 219.475 219.616 219.422L221.76 219.182C221.941 219.16 222.085 219.088 222.192 218.966C222.299 218.838 222.363 218.648 222.384 218.398L222.432 220.078L219.8 220.366C219.517 220.398 219.264 220.486 219.04 220.63C218.821 220.768 218.651 220.95 218.528 221.174C218.405 221.392 218.344 221.632 218.344 221.894C218.344 222.16 218.416 222.398 218.56 222.606C218.704 222.808 218.904 222.966 219.16 223.078C219.421 223.19 219.72 223.246 220.056 223.246C220.499 223.246 220.893 223.155 221.24 222.974C221.587 222.787 221.856 222.528 222.048 222.198C222.24 221.867 222.336 221.486 222.336 221.054V218.454C222.336 218.128 222.261 217.846 222.112 217.606C221.968 217.366 221.76 217.182 221.488 217.054C221.216 216.92 220.899 216.854 220.536 216.854C220.168 216.854 219.843 216.912 219.56 217.03C219.283 217.142 219.061 217.294 218.896 217.486C218.731 217.678 218.627 217.883 218.584 218.102H217.304C217.373 217.659 217.549 217.259 217.832 216.902C218.12 216.539 218.496 216.254 218.96 216.046C219.424 215.838 219.949 215.734 220.536 215.734ZM226.09 215.926H227.37V218.67L226.834 219.47C226.855 218.734 226.989 218.094 227.234 217.55C227.485 217 227.831 216.579 228.274 216.286C228.717 215.992 229.231 215.846 229.818 215.846H230.106V217.182H229.77C229.285 217.182 228.861 217.275 228.498 217.462C228.135 217.648 227.855 217.915 227.658 218.262C227.466 218.603 227.37 219.006 227.37 219.47V224.118H226.09V215.926ZM231.844 212.918H233.124V219.758L236.836 215.926H238.428L234.716 219.758L238.572 224.118H236.908L233.124 219.838V224.118H231.844V212.918ZM112.214 236.918H113.87L117.886 245.894L118.094 246.462L118.294 245.894L122.238 236.918H123.926V248.118H122.598V239.27V239.062L118.638 248.118H117.526L113.534 239.11V239.27V248.118H112.214V236.918ZM129.719 239.734C130.354 239.734 130.9 239.851 131.359 240.086C131.823 240.315 132.178 240.646 132.423 241.078C132.674 241.51 132.799 242.022 132.799 242.614V248.118H131.535V245.054H132.015C132.015 245.704 131.887 246.278 131.631 246.774C131.38 247.264 131.023 247.643 130.559 247.91C130.095 248.176 129.556 248.31 128.943 248.31C128.42 248.31 127.948 248.208 127.527 248.006C127.111 247.803 126.786 247.523 126.551 247.166C126.316 246.808 126.199 246.406 126.199 245.958C126.199 245.526 126.311 245.126 126.535 244.758C126.759 244.39 127.068 244.088 127.463 243.854C127.858 243.619 128.303 243.475 128.799 243.422L130.943 243.182C131.124 243.16 131.268 243.088 131.375 242.966C131.482 242.838 131.546 242.648 131.567 242.398L131.615 244.078L128.983 244.366C128.7 244.398 128.447 244.486 128.223 244.63C128.004 244.768 127.834 244.95 127.711 245.174C127.588 245.392 127.527 245.632 127.527 245.894C127.527 246.16 127.599 246.398 127.743 246.606C127.887 246.808 128.087 246.966 128.343 247.078C128.604 247.19 128.903 247.246 129.239 247.246C129.682 247.246 130.076 247.155 130.423 246.974C130.77 246.787 131.039 246.528 131.231 246.198C131.423 245.867 131.519 245.486 131.519 245.054V242.454C131.519 242.128 131.444 241.846 131.295 241.606C131.151 241.366 130.943 241.182 130.671 241.054C130.399 240.92 130.082 240.854 129.719 240.854C129.351 240.854 129.026 240.912 128.743 241.03C128.466 241.142 128.244 241.294 128.079 241.486C127.914 241.678 127.81 241.883 127.767 242.102H126.487C126.556 241.659 126.732 241.259 127.015 240.902C127.303 240.539 127.679 240.254 128.143 240.046C128.607 239.838 129.132 239.734 129.719 239.734ZM134.833 249.542H136.049C136.219 249.542 136.382 249.486 136.537 249.374C136.691 249.267 136.811 249.123 136.897 248.942L137.361 247.934L134.201 239.926H135.561L138.033 246.31L140.401 239.926H141.753L138.033 249.342C137.873 249.752 137.617 250.078 137.265 250.318C136.918 250.558 136.526 250.678 136.089 250.678H134.833V249.542ZM147.365 246.966L151.965 242.67C152.434 242.232 152.773 241.814 152.981 241.414C153.194 241.014 153.301 240.587 153.301 240.134C153.301 239.702 153.202 239.32 153.005 238.99C152.807 238.659 152.53 238.403 152.173 238.222C151.821 238.035 151.415 237.942 150.957 237.942C150.471 237.942 150.034 238.048 149.645 238.262C149.261 238.475 148.959 238.768 148.741 239.142C148.522 239.515 148.413 239.936 148.413 240.406H147.069C147.069 239.712 147.239 239.086 147.581 238.526C147.922 237.966 148.391 237.526 148.989 237.206C149.586 236.886 150.25 236.726 150.981 236.726C151.674 236.726 152.301 236.87 152.861 237.158C153.426 237.446 153.869 237.843 154.189 238.35C154.514 238.851 154.677 239.414 154.677 240.038C154.677 240.64 154.519 241.227 154.205 241.798C153.89 242.368 153.386 242.976 152.693 243.622L149.213 246.878H155.005V248.118H147.365V246.966ZM159.049 239.598H156.345V238.398H157.769C158.297 238.398 158.708 238.259 159.001 237.982C159.3 237.699 159.447 237.291 159.441 236.758H159.449H160.377V248.118H159.049V239.598ZM171.699 242.006V243.126H163.331V242.006H171.699ZM173.69 246.966L178.29 242.67C178.76 242.232 179.098 241.814 179.306 241.414C179.52 241.014 179.626 240.587 179.626 240.134C179.626 239.702 179.528 239.32 179.33 238.99C179.133 238.659 178.856 238.403 178.498 238.222C178.146 238.035 177.741 237.942 177.282 237.942C176.797 237.942 176.36 238.048 175.97 238.262C175.586 238.475 175.285 238.768 175.066 239.142C174.848 239.515 174.738 239.936 174.738 240.406H173.394C173.394 239.712 173.565 239.086 173.906 238.526C174.248 237.966 174.717 237.526 175.314 237.206C175.912 236.886 176.576 236.726 177.306 236.726C178 236.726 178.626 236.87 179.186 237.158C179.752 237.446 180.194 237.843 180.514 238.35C180.84 238.851 181.002 239.414 181.002 240.038C181.002 240.64 180.845 241.227 180.53 241.798C180.216 242.368 179.712 242.976 179.018 243.622L175.538 246.878H181.33V248.118H173.69V246.966ZM186.455 248.31C185.719 248.31 185.058 248.168 184.471 247.886C183.89 247.603 183.428 247.211 183.087 246.71C182.746 246.208 182.564 245.638 182.543 244.998H183.903C183.93 245.414 184.055 245.782 184.279 246.102C184.503 246.422 184.804 246.67 185.183 246.846C185.567 247.022 185.996 247.11 186.471 247.11C186.978 247.11 187.426 247.011 187.815 246.814C188.204 246.611 188.506 246.331 188.719 245.974C188.932 245.616 189.039 245.206 189.039 244.742C189.039 244.278 188.924 243.864 188.695 243.502C188.471 243.134 188.162 242.848 187.767 242.646C187.378 242.443 186.94 242.342 186.455 242.342H185.087V241.19L188.375 238.158H183.183V236.918H190.079V238.11L186.287 241.558L186.455 241.19C187.207 241.19 187.884 241.339 188.487 241.638C189.09 241.936 189.562 242.355 189.903 242.894C190.244 243.432 190.415 244.048 190.415 244.742C190.415 245.43 190.247 246.046 189.911 246.59C189.58 247.128 189.114 247.55 188.511 247.854C187.914 248.158 187.228 248.31 186.455 248.31Z" fill="#19191C"/>
<defs>
<linearGradient id="paint0_linear_8138_14157" x1="116.526" y1="23.992" x2="86.9963" y2="23.992" gradientUnits="userSpaceOnUse">
<stop stop-color="#C202D7"/>
<stop offset="1" stop-color="#E00189"/>
</linearGradient>
</defs>
</svg>
