<svg width="260" height="206" viewBox="0 0 260 206" fill="none" xmlns="http://www.w3.org/2000/svg">
<mask id="mask0_1494_18922" style="mask-type:alpha" maskUnits="userSpaceOnUse" x="0" y="11" width="150" height="140">
<rect y="11.4453" width="149.223" height="139.061" fill="#D9D9D9"/>
</mask>
<g mask="url(#mask0_1494_18922)">
<path d="M100.585 101.162C89.467 112.333 71.4364 112.336 60.3149 101.162C49.1965 89.9904 49.1935 71.8739 60.3149 60.6995L100.675 20.1532C111.793 8.98175 129.742 9.05816 140.863 20.2326C151.982 31.404 152.067 49.4412 140.945 60.6156L100.585 101.162Z" fill="#7F52FF"/>
<path d="M60.2915 101.297C49.1731 90.1257 49.1701 72.0091 60.2915 60.8347C71.4099 49.6633 89.4406 49.6603 100.562 60.8347L140.916 101.387C152.034 112.558 151.958 130.593 140.837 141.767C129.719 152.938 111.767 153.024 100.645 141.849L60.2915 101.297Z" fill="#FE2857"/>
<path fill-rule="evenodd" clip-rule="evenodd" d="M60.6056 101.624C71.7285 112.45 89.4677 112.334 100.45 101.286L120.546 81.071L100.404 60.8045C89.7795 50.116 72.8366 49.6623 61.6753 59.4356L60.263 60.8562C49.5734 71.6103 49.1826 88.7995 59.0824 100.025C59.4468 100.436 59.8251 100.839 60.2173 101.234L60.6056 101.624Z" fill="url(#paint0_linear_1494_18922)"/>
<path d="M0.000223749 40.3837C18.0221 22.5254 24.5891 11.8485 40.2078 11.8485C55.8914 11.8485 68.6055 24.6591 68.6055 40.4618C68.6055 56.2646 55.8914 69.0752 40.2078 69.0752C24.5891 69.0752 18.0221 58.2921 0.000223749 40.3837Z" fill="url(#paint1_linear_1494_18922)"/>
<path d="M27.6146 46.9665C32.1423 46.9665 35.8127 43.2786 35.8127 38.7294C35.8127 34.1801 32.1423 30.4922 27.6146 30.4922C23.0869 30.4922 19.4165 34.1801 19.4165 38.7294C19.4165 43.2786 23.0869 46.9665 27.6146 46.9665Z" fill="white"/>
<path d="M24.5943 43.9332C27.4539 43.9332 29.772 41.604 29.772 38.7307C29.772 35.8575 27.4539 33.5283 24.5943 33.5283C21.7347 33.5283 19.4165 35.8575 19.4165 38.7307C19.4165 41.604 21.7347 43.9332 24.5943 43.9332Z" fill="black"/>
</g>
<rect x="149" y="94" width="111" height="56" rx="27.8125" fill="#FC801D"/>
<path d="M172.54 128.322L180.408 121.448C181.014 120.907 181.462 120.365 181.752 119.824C182.05 119.273 182.2 118.704 182.2 118.116C182.2 117.556 182.078 117.066 181.836 116.646C181.593 116.217 181.252 115.885 180.814 115.652C180.375 115.419 179.866 115.302 179.288 115.302C178.672 115.302 178.126 115.437 177.65 115.708C177.174 115.969 176.805 116.338 176.544 116.814C176.282 117.29 176.152 117.836 176.152 118.452H171.924C171.924 117.127 172.236 115.941 172.862 114.896C173.496 113.851 174.374 113.034 175.494 112.446C176.623 111.858 177.902 111.564 179.33 111.564C180.711 111.564 181.938 111.83 183.012 112.362C184.094 112.885 184.939 113.617 185.546 114.56C186.152 115.493 186.456 116.557 186.456 117.752C186.456 118.881 186.162 119.945 185.574 120.944C184.995 121.933 184.113 122.923 182.928 123.912L178.504 127.804H186.946V131.5H172.54V128.322ZM196.203 128.098C197.015 128.098 197.71 127.846 198.289 127.342C198.877 126.838 199.325 126.11 199.633 125.158C199.95 124.197 200.109 123.053 200.109 121.728C200.109 120.393 199.95 119.245 199.633 118.284C199.325 117.313 198.877 116.576 198.289 116.072C197.71 115.559 197.015 115.302 196.203 115.302C195.391 115.302 194.691 115.554 194.103 116.058C193.524 116.562 193.076 117.295 192.759 118.256C192.451 119.217 192.297 120.365 192.297 121.7C192.297 123.035 192.451 124.183 192.759 125.144C193.076 126.105 193.524 126.838 194.103 127.342C194.691 127.846 195.391 128.098 196.203 128.098ZM188.027 121.728C188.027 119.693 188.363 117.911 189.035 116.38C189.707 114.84 190.659 113.655 191.891 112.824C193.123 111.984 194.551 111.564 196.175 111.564C197.817 111.564 199.255 111.984 200.487 112.824C201.728 113.655 202.685 114.84 203.357 116.38C204.038 117.911 204.379 119.693 204.379 121.728C204.379 123.753 204.038 125.531 203.357 127.062C202.685 128.583 201.728 129.759 200.487 130.59C199.255 131.421 197.817 131.836 196.175 131.836C194.551 131.836 193.123 131.421 191.891 130.59C190.659 129.759 189.707 128.583 189.035 127.062C188.363 125.531 188.027 123.753 188.027 121.728ZM205.929 128.322L213.797 121.448C214.403 120.907 214.851 120.365 215.141 119.824C215.439 119.273 215.589 118.704 215.589 118.116C215.589 117.556 215.467 117.066 215.225 116.646C214.982 116.217 214.641 115.885 214.203 115.652C213.764 115.419 213.255 115.302 212.677 115.302C212.061 115.302 211.515 115.437 211.039 115.708C210.563 115.969 210.194 116.338 209.933 116.814C209.671 117.29 209.541 117.836 209.541 118.452H205.313C205.313 117.127 205.625 115.941 206.251 114.896C206.885 113.851 207.763 113.034 208.883 112.446C210.012 111.858 211.291 111.564 212.719 111.564C214.1 111.564 215.327 111.83 216.401 112.362C217.483 112.885 218.328 113.617 218.935 114.56C219.541 115.493 219.845 116.557 219.845 117.752C219.845 118.881 219.551 119.945 218.963 120.944C218.384 121.933 217.502 122.923 216.317 123.912L211.893 127.804H220.335V131.5H205.929V128.322ZM229.925 127.384H220.531V124.094L229.015 111.9H234.125V124.038H236.925V127.384H234.125V131.5H229.925V127.384ZM230.289 124.038V115.764L224.759 124.038H230.289Z" fill="white"/>
<rect x="17" y="150" width="179" height="56" rx="28" fill="#FE2857"/>
<path d="M41.4118 167.9H45.5978V176.58L52.9618 167.9H57.9038L49.8958 177.336L58.0858 187.5H52.9898L45.5978 178.372V187.5H41.4118V167.9ZM64.3552 187.836C62.8805 187.836 61.5552 187.519 60.3792 186.884C59.2032 186.24 58.2839 185.349 57.6212 184.21C56.9585 183.071 56.6272 181.779 56.6272 180.332C56.6272 178.885 56.9585 177.593 57.6212 176.454C58.2839 175.315 59.2032 174.429 60.3792 173.794C61.5552 173.15 62.8805 172.828 64.3552 172.828C65.8299 172.828 67.1552 173.15 68.3312 173.794C69.5072 174.429 70.4265 175.315 71.0892 176.454C71.7519 177.593 72.0832 178.885 72.0832 180.332C72.0832 181.779 71.7519 183.071 71.0892 184.21C70.4265 185.349 69.5072 186.24 68.3312 186.884C67.1552 187.519 65.8299 187.836 64.3552 187.836ZM60.8552 180.332C60.8552 181.079 61.0045 181.746 61.3032 182.334C61.6112 182.922 62.0312 183.379 62.5632 183.706C63.1045 184.023 63.7065 184.182 64.3692 184.182C65.0319 184.182 65.6292 184.023 66.1612 183.706C66.6932 183.379 67.1085 182.927 67.4072 182.348C67.7059 181.76 67.8552 181.088 67.8552 180.332C67.8552 179.576 67.7012 178.909 67.3932 178.33C67.0945 177.742 66.6792 177.289 66.1472 176.972C65.6152 176.645 65.0179 176.482 64.3552 176.482C63.6925 176.482 63.0952 176.645 62.5632 176.972C62.0312 177.289 61.6112 177.742 61.3032 178.33C61.0045 178.909 60.8552 179.576 60.8552 180.332ZM78.9097 187.5C78.0791 187.5 77.3371 187.327 76.6837 186.982C76.0397 186.627 75.5357 186.142 75.1717 185.526C74.8171 184.901 74.6397 184.187 74.6397 183.384V176.664H72.1197V173.164H73.7017C74.0564 173.164 74.3411 173.057 74.5557 172.842C74.7704 172.618 74.8777 172.333 74.8777 171.988V169.678H78.7417V173.164H82.1577V176.664H78.7277L78.7417 182.768C78.7417 183.123 78.8537 183.417 79.0777 183.65C79.3111 183.883 79.6051 184 79.9597 184H82.1577V187.5H78.9097ZM83.7887 167.9H87.8767V187.5H83.7887V167.9ZM90.1883 173.164H94.2903V187.5H90.1883V173.164ZM94.4023 167.9V171.428H90.0903V167.9H94.4023ZM96.6151 173.164H100.605V175.096C101.062 174.368 101.655 173.808 102.383 173.416C103.111 173.024 103.951 172.828 104.903 172.828C105.92 172.828 106.816 173.057 107.591 173.514C108.375 173.962 108.982 174.615 109.411 175.474C109.85 176.323 110.069 177.327 110.069 178.484V187.5H105.967V179.184C105.967 178.316 105.743 177.644 105.295 177.168C104.856 176.683 104.245 176.44 103.461 176.44C102.91 176.44 102.425 176.561 102.005 176.804C101.594 177.047 101.272 177.387 101.039 177.826C100.815 178.265 100.703 178.769 100.703 179.338V187.5H96.6151V173.164ZM121.444 187.836C119.559 187.836 117.855 187.402 116.334 186.534C114.822 185.657 113.637 184.448 112.778 182.908C111.919 181.359 111.49 179.623 111.49 177.7C111.49 175.777 111.919 174.046 112.778 172.506C113.637 170.957 114.822 169.748 116.334 168.88C117.855 168.003 119.559 167.564 121.444 167.564C123.077 167.564 124.585 167.905 125.966 168.586C127.347 169.267 128.458 170.187 129.298 171.344C130.147 172.492 130.619 173.743 130.712 175.096H126.568C126.419 174.443 126.097 173.836 125.602 173.276C125.117 172.707 124.51 172.254 123.782 171.918C123.054 171.582 122.275 171.414 121.444 171.414C120.361 171.414 119.391 171.685 118.532 172.226C117.673 172.758 117.001 173.5 116.516 174.452C116.04 175.404 115.802 176.487 115.802 177.7C115.802 178.913 116.04 179.996 116.516 180.948C117.001 181.9 117.673 182.647 118.532 183.188C119.391 183.72 120.361 183.986 121.444 183.986C122.275 183.986 123.054 183.823 123.782 183.496C124.51 183.16 125.117 182.717 125.602 182.166C126.097 181.606 126.419 181.004 126.568 180.36H130.712C130.619 181.704 130.147 182.95 129.298 184.098C128.458 185.237 127.347 186.147 125.966 186.828C124.594 187.5 123.087 187.836 121.444 187.836ZM139.174 187.836C137.7 187.836 136.374 187.519 135.198 186.884C134.022 186.24 133.103 185.349 132.44 184.21C131.778 183.071 131.446 181.779 131.446 180.332C131.446 178.885 131.778 177.593 132.44 176.454C133.103 175.315 134.022 174.429 135.198 173.794C136.374 173.15 137.7 172.828 139.174 172.828C140.649 172.828 141.974 173.15 143.15 173.794C144.326 174.429 145.246 175.315 145.908 176.454C146.571 177.593 146.902 178.885 146.902 180.332C146.902 181.779 146.571 183.071 145.908 184.21C145.246 185.349 144.326 186.24 143.15 186.884C141.974 187.519 140.649 187.836 139.174 187.836ZM135.674 180.332C135.674 181.079 135.824 181.746 136.122 182.334C136.43 182.922 136.85 183.379 137.382 183.706C137.924 184.023 138.526 184.182 139.188 184.182C139.851 184.182 140.448 184.023 140.98 183.706C141.512 183.379 141.928 182.927 142.226 182.348C142.525 181.76 142.674 181.088 142.674 180.332C142.674 179.576 142.52 178.909 142.212 178.33C141.914 177.742 141.498 177.289 140.966 176.972C140.434 176.645 139.837 176.482 139.174 176.482C138.512 176.482 137.914 176.645 137.382 176.972C136.85 177.289 136.43 177.742 136.122 178.33C135.824 178.909 135.674 179.576 135.674 180.332ZM148.353 173.164H152.343V175.096C152.8 174.368 153.393 173.808 154.121 173.416C154.849 173.024 155.689 172.828 156.641 172.828C157.658 172.828 158.554 173.057 159.329 173.514C160.113 173.962 160.719 174.615 161.149 175.474C161.587 176.323 161.807 177.327 161.807 178.484V187.5H157.705V179.184C157.705 178.316 157.481 177.644 157.033 177.168C156.594 176.683 155.983 176.44 155.199 176.44C154.648 176.44 154.163 176.561 153.743 176.804C153.332 177.047 153.01 177.387 152.777 177.826C152.553 178.265 152.441 178.769 152.441 179.338V187.5H148.353V173.164ZM165.258 176.664H162.724V173.164H165.258V171.708C165.258 170.952 165.435 170.289 165.79 169.72C166.144 169.141 166.644 168.693 167.288 168.376C167.932 168.059 168.674 167.9 169.514 167.9H172.902V171.036H170.466C170.13 171.036 169.859 171.139 169.654 171.344C169.458 171.549 169.36 171.815 169.36 172.142V173.164H172.832V176.664H169.36V187.5H165.258V176.664Z" fill="white"/>
<defs>
<linearGradient id="paint0_linear_1494_18922" x1="120.546" y1="81.0444" x2="51.9323" y2="81.0444" gradientUnits="userSpaceOnUse">
<stop stop-color="#FE2857"/>
<stop offset="0.47" stop-color="#C711E1"/>
<stop offset="1" stop-color="#7F52FF"/>
</linearGradient>
<linearGradient id="paint1_linear_1494_18922" x1="-4.61441" y1="40.568" x2="68.5096" y2="40.568" gradientUnits="userSpaceOnUse">
<stop stop-color="#FE2857"/>
<stop offset="0.47" stop-color="#C711E1"/>
<stop offset="1" stop-color="#7F52FF"/>
</linearGradient>
</defs>
</svg>
