<svg width="270" height="112" viewBox="0 0 270 112" fill="none" xmlns="http://www.w3.org/2000/svg">
<path d="M170.5 21.0001V20.5001H170H100H99.5V21.0001V91V91.5H100H170H170.5V91V21.0001Z" fill="black" stroke="white"/>
<path d="M134.125 77.875H107.875V82.25H134.125V77.875Z" fill="white"/>
<path d="M106.517 39.0431L108.469 37.201C108.656 37.4928 108.908 37.7366 109.207 37.9128C109.505 38.0891 109.84 38.1928 110.186 38.2157C110.935 38.2157 111.42 37.7005 111.42 36.6858L111.42 29.77H114.433L114.433 36.7014C114.475 37.2606 114.402 37.8226 114.216 38.352C114.031 38.8813 113.738 39.3664 113.355 39.7768C112.955 40.152 112.483 40.4433 111.969 40.6337C111.454 40.824 110.906 40.9096 110.358 40.8852C109.615 40.9226 108.874 40.7736 108.204 40.4519C107.533 40.1302 106.953 39.6459 106.517 39.0431Z" fill="white"/>
<path d="M115.782 29.77L124.571 29.7701V32.3303H118.779V34.0007H124.025V36.3892H118.78V38.1221H124.65V40.6979H115.782L115.782 29.77Z" fill="white"/>
<path d="M128.854 32.4241H125.591V29.7701L135.161 29.7702V32.4241H131.882L131.882 40.698H128.854L128.854 32.4241Z" fill="white"/>
<path d="M107.736 45.0088H112.889C113.425 44.9663 113.964 45.0298 114.476 45.1959C114.988 45.362 115.462 45.6274 115.871 45.9767C116.101 46.2114 116.281 46.4898 116.402 46.7954C116.523 47.1011 116.581 47.4279 116.573 47.7564V47.7877C116.584 48.3193 116.427 48.8408 116.124 49.2779C115.821 49.7151 115.388 50.0458 114.887 50.2229C116.214 50.6601 117.057 51.4094 117.057 52.8925V52.9237C117.057 54.7971 115.527 55.9367 112.92 55.9366H107.736L107.736 45.0088ZM113.591 48.3809C113.591 47.772 113.107 47.4442 112.217 47.4442H110.687V49.3643H112.139C113.06 49.3643 113.591 49.0521 113.591 48.4121L113.591 48.3809ZM112.545 51.4875H110.687V53.5013H112.576C113.513 53.5013 114.028 53.1423 114.028 52.5022V52.471C114.028 51.8778 113.56 51.4875 112.545 51.4875Z" fill="white"/>
<path d="M118.028 45.0088H122.868C123.509 44.9575 124.155 45.0346 124.766 45.2357C125.377 45.4367 125.942 45.7577 126.428 46.1797C126.755 46.5147 127.01 46.9135 127.176 47.3513C127.343 47.7891 127.417 48.2565 127.395 48.7244V48.7556C127.422 49.4826 127.22 50.1996 126.816 50.8049C126.413 51.4102 125.829 51.873 125.147 52.1276L127.754 55.9367H124.273L122.072 52.6272H121.056V55.9367H118.028L118.028 45.0088ZM122.743 50.2542C123.758 50.2542 124.367 49.7547 124.367 48.9585V48.9273C124.367 48.053 123.727 47.6159 122.727 47.6159H121.056V50.2542L122.743 50.2542Z" fill="white"/>
<path d="M131.606 44.9309H134.525L139.178 55.9368H135.93L135.15 53.9698H130.919L130.138 55.9368H126.969L131.606 44.9309ZM134.26 51.6125L133.042 48.5215L131.809 51.6125L134.26 51.6125Z" fill="white"/>
<path d="M139.622 44.9774H142.65L142.65 55.9053H139.622L139.622 44.9774Z" fill="white"/>
<path d="M143.825 44.9774H146.651L150.582 50.7536L150.582 44.9774H153.579L153.579 55.9053H150.941L146.823 49.9106L146.823 55.9053H143.825L143.825 44.9774Z" fill="white"/>
<path d="M154.095 54.2818L155.781 52.268C156.777 53.098 158.028 53.561 159.325 53.5793C160.152 53.5793 160.59 53.2984 160.59 52.83V52.7988C160.59 52.3304 160.231 52.0962 158.732 51.7372C156.406 51.2064 154.61 50.5507 154.61 48.3183V48.2871C154.61 46.2577 156.218 44.7902 158.841 44.7902C160.464 44.7281 162.057 45.2424 163.337 46.2421L161.823 48.3808C160.939 47.7146 159.87 47.3383 158.763 47.3037C158.029 47.3037 157.67 47.6003 157.67 48.0061V48.0374C157.67 48.5369 158.045 48.7555 159.575 49.0989C162.073 49.6453 163.634 50.4571 163.634 52.5022V52.5334C163.634 54.7658 161.87 56.0928 159.216 56.0927C157.345 56.1346 155.523 55.4904 154.095 54.2818Z" fill="white"/>
</svg>
