<svg xmlns="http://www.w3.org/2000/svg" width="121" height="120" fill="none" viewBox="0 0 121 120"><path fill="#fff" d="M120 120H0V0h120z"/><path fill="#006fcf" d="m75.823 83.608-2.414-2.97v2.97h-7.9v-5.07a7.9 7.9 0 0 1-3.319.713H59.4v4.357H47.477l-2.182-2.855-2.17 2.855H23.342V64.764h19.875l2.17 2.83 2.171-2.83H120V0H0v50.608l4.52-10.556h7.768l2.522 5.89v-5.89h9.722l1.5 4.27 1.492-4.27h43.408v2.18c1.58-1.387 3.712-2.18 6.23-2.18H90.98l2.522 5.89v-5.89h8.183l2.164 3.354v-3.354h8.174v18.844h-8.127l-2.181-3.405v3.405h-11.87l-1.176-2.888h-3.252l-1.157 2.888h-7.372c-2.414 0-4.443-.73-5.956-2.037v2.037H58.748l-2.414-2.97v2.97H11.153l-1.176-2.888H6.724l-1.156 2.888H0V120h120V82.22c-1.213.882-2.771 1.388-4.561 1.388z"/><path fill="#006fcf" d="m118.67 70.288 1.411-3.171h-7.466c-3.077 0-4.899 1.878-4.899 4.444 0 2.666 1.724 4.2 4.409 4.2h3.351c.744 0 1.274.466 1.274 1.172 0 .707-.53 1.152-1.274 1.152h-7.329v3.171h7.29c3.076 0 4.899-1.858 4.899-4.585 0-2.565-1.607-4.06-4.41-4.06h-3.35c-.745 0-1.274-.465-1.274-1.172s.529-1.151 1.274-1.151zm-20.32 1.151c0-.706.529-1.151 1.274-1.151h6.094l1.411-3.171h-7.466c-3.076 0-4.898 1.878-4.898 4.444 0 2.666 1.724 4.2 4.407 4.2h3.352c.744 0 1.273.466 1.273 1.172 0 .707-.529 1.152-1.273 1.152h-7.33v3.171h7.291c3.076 0 4.898-1.858 4.898-4.585 0-2.565-1.607-4.06-4.409-4.06h-3.35c-.745 0-1.273-.465-1.273-1.172m-16.283 9.817H93.59v-3.171h-7.937V75.68h7.74v-3.09h-7.74v-2.303h7.936v-3.171H82.068zm-.568 0-4.585-5.15c2.312-.486 3.704-2.223 3.704-4.424 0-2.707-1.882-4.565-4.9-4.565h-7.857v14.14h3.585v-5.01h1.392l4.233 5.01zm-6.153-8.08h-3.9v-2.888h3.9c1.097 0 1.666.667 1.666 1.454 0 .808-.569 1.434-1.666 1.434m-9.032-1.292c0-2.828-1.882-4.767-4.9-4.767H53.46v14.14h3.586V76.65h4.252c3.096 0 5.017-2.04 5.017-4.766m-3.606.02c0 .868-.568 1.575-1.666 1.575h-3.997v-3.191h3.997c1.098 0 1.666.727 1.666 1.616m-9.562 9.352-5.683-7.13 5.643-7.01h-4.389l-3.331 4.343-3.331-4.342h-4.507l5.663 7.09-5.644 7.05h4.39l3.331-4.384 3.35 4.383zm-27.394 0h11.522v-3.171h-7.936V75.68h7.74v-3.09h-7.74v-2.303h7.936v-3.171H25.752zm83.858-24.712v-14.14h-3.566v8.767l-5.644-8.766h-4.546v14.139h3.586v-9.09l5.82 9.09zm-18.184 0h4.057l-6.056-14.14h-4.663l-6.055 14.14h3.958l1.156-2.889h6.428zm-2.429-5.96h-3.92l1.96-4.847zm-11.566-4.907h3.802v-3.272h-4.076c-4.448 0-6.839 2.949-6.839 6.968v.202c0 4.343 2.509 6.969 6.564 6.969h.295l1.47-3.171H77.49c-2.253 0-3.586-1.374-3.586-3.798v-.202c0-2.12 1.176-3.696 3.527-3.696M64.994 56.544h3.586v-14.14h-3.586zm-.568 0-4.585-5.151c2.312-.485 3.703-2.222 3.703-4.423 0-2.707-1.881-4.565-4.899-4.565h-7.858v14.139h3.586v-5.01h1.392l4.232 5.01zm-6.153-8.08h-3.9v-2.888h3.9c1.097 0 1.666.666 1.666 1.454 0 .808-.569 1.434-1.666 1.434m-21.045 8.08H48.75v-3.171h-7.936v-2.404h7.74v-3.09h-7.74v-2.303h7.936v-3.171H37.228zm-5.937 0h3.547v-14.14h-5.643l-3.155 9.03-3.175-9.03h-5.702v14.14h3.547V46.08l3.723 10.463h3.135l3.723-10.463zm-18.556 0h4.056l-6.055-14.14H6.073L.018 56.545h3.958l1.156-2.889h6.428zm-2.43-5.96H6.386l1.96-4.847z"/></svg>