<svg xmlns="http://www.w3.org/2000/svg" width="536.762" height="184.669" viewBox="-15.886 105.076 536.762 184.669"><g id="Layer_1"><path d="M359.338 309.031c4.2 7.5 1.3 16.5-5.6 21.6-21.2 15.5-48.5 2.3-76.7 2.3s-42.9 16.5-61.7 5.7c-5.9-3.4-9.2-10-8.4-16.8 12.1-98.4 59.8-181.3 80.6-203.4-2.7 19.4 39.6 135.2 62 173.4 3.2 5.5 6.5 11.2 9.8 17.1z" class="cls-5" style="fill-rule:evenodd;stroke-width:0" transform="translate(18.452 132.762)scale(.25665)"/><path d="M356.638 327.931c-5.8 7.4-48.3 27.5-77.6 27.5s-44.3-6-62.8-16.4c2.3-31.4 7.7-60.1 12.8-78.7 29.6-7.3 68.1 6.1 98.1 15 4.6 8.3 29.5 52.6 29.5 52.6" class="cls-3" style="fill:#fff;fill-rule:evenodd;stroke-width:0" transform="translate(18.452 132.762)scale(.25665)"/><path d="M48.6 160c-3.6-18 10.6-30 27.1-32.8 13.8-2.4 35 3.3 41.1 17.1 6.9 15.6-1.1 34.4-17.1 40.2-14.2 5.1-31.7 3-42.4-8.5-4.3-4.6-7.1-9.9-8.7-16" class="cls-1" style="fill:none;stroke-width:0" transform="translate(67.585 160.565)scale(.25665)"/><path d="M40.8 161.7c-3.6-16.9 5.3-31 20.3-38.5 14.4-7.2 33.2-5.2 47.2 2.1 15.7 8.2 21.4 24.7 17.5 41.5-3.9 16.6-20.7 27-36.8 28.2-22 1.7-42.8-11.5-48.2-33.3" class="cls-2" style="stroke-width:0" transform="translate(67.585 160.565)scale(.25665)"/><path d="M50.3 165.5c6.1 14.5 21.8 22.7 37.2 21.7 16.3-1.1 31.2-12.2 31.7-29.5.3-8.8-2.8-16.8-9.8-22.3-5.9-4.6-13.8-7.2-21.2-8.1-15.2-1.9-34.4 3.4-39.4 19.8-1.9 6.2-.6 12.4 1.5 18.3" class="cls-4" style="fill:#ff2c2c;stroke-width:0" transform="translate(67.585 160.565)scale(.25665)"/><path d="m205.938 182.631-.4 6.8c0 .2.1.5.3.5.6.2 1.6.8 2.5 2 .7 1 .8 5.5 1.3 10.2.4 3.6 1 7.9 1.3 9.9s1.1 5.9 3.7 9c2.8 3.3 8.9 4.9 12.3 5.6 6.7 1.4 11.4 1.7 12.9 1.8 1.5 0 12.9.5 17-1.3 4-1.7 8.7-6.7 12.7-18.1 2.6-8.6 3.9-8.8 4.6-9.2.6-.3 2.8-.4 3.7-.4h.8c.8 0 3.1.4 3.6.8.6.5 1.9.9 3.4 9.7 2.6 11.8 6.6 17.4 10.3 19.6 3.8 2.3 15.2 3.4 16.7 3.5s6.2.4 13 0c3.5-.3 9.7-1.1 12.9-4 3-2.7 4.2-6.5 4.8-8.4s1.7-6 2.6-9.6c1.1-4.6 1.8-9 2.6-9.9 1.1-1.1 2.2-1.5 2.8-1.7.2 0 .4-.3.4-.5l.4-6.8c0-.3-.2-.5-.5-.6-3.2-.5-21.3-3.4-30.9-3.9-14.3-.7-21.8 0-26.5 1.3-4 1.1-5.8 2.8-10.2 3.5-1.1.2-2.1.3-2.9.3h-2.9c-.3 0-2.3-.3-2.3-.3-.8 0-1.8-.3-2.9-.7-4.2-1.3-5.9-3.2-9.7-4.8-4.5-1.9-11.8-3.6-26.1-4.7-9.5-.8-27.9-.2-31.1 0-.3 0-.5.2-.5.5h.3zm86.4 15.4c.7-2.5 6.8-3.8 6.8-3.8s11.3-2.7 25.1-.6c12.3 1.8 14 3.7 15.2 5.5s.9 7.5.2 11.4c-.8 3.9-1.9 9.1-4.1 12.5s-7.2 4.8-9.1 5.1c-10.6 1.5-17.8.2-20.3-.3-6.7-1-8.7-3.9-9.6-5.1-.9-1.3-3.2-7.6-4.1-13-1-5.3-.8-9.1 0-11.6zm-75-7.4c1.4-1.6 3.3-3.3 15.8-3.5 13.9-.3 24.8 3.9 24.8 3.9s5.9 2.1 6.3 4.7 0 6.4-1.6 11.5-4.7 11.1-5.8 12.3-3.4 3.7-10.2 3.9c-2.5 0-9.8.5-20.1-2.4-1.8-.6-6.7-2.6-8.4-6.2s-2.2-9-2.4-12.9.2-9.7 1.7-11.3z" class="cls-4" style="fill:#ff2c2c;stroke-width:0" transform="translate(18.452 132.762)scale(.25665)"/></g><path fill="#00a74e" d="M130.416 204.935v-2.277h7.106v1.832c0 4.663 2.552 6.218 5.22 6.218 2.662 0 5.048-1.61 5.048-5.884V183.34h-10.159v-6.161h17.322v27.756c0 8.604-6.221 12.323-12.327 12.323-6.047 0-12.21-3.83-12.21-12.323m43.346 11.657-14.378-39.413h7.714l8.665 25.702c.776 2.275 1.444 5.773 1.494 5.773h.116c.051 0 .718-3.498 1.494-5.773l8.716-25.702h7.664l-14.379 39.413zm24.908 0 3.219-39.413h7.657l7.722 19.484c.884 2.331 1.995 5.773 1.995 5.773h.108s1.059-3.442 1.951-5.773l7.714-19.484h7.658l3.161 39.413h-7.106l-1.66-22.038c-.167-2.609-.058-6.107-.058-6.107h-.109s-1.167 3.831-2.111 6.107l-6.38 15.266h-6.279l-6.324-15.266c-.942-2.276-2.167-6.162-2.167-6.162h-.109s.109 3.553-.058 6.162l-1.66 22.038zm88.324-39.413 6.997 27.256c.609 2.276.66 4.163.718 4.163h.109s.167-1.943.666-4.163l6.497-27.256h7.383l-10.16 39.413h-8.273l-6.047-23.315c-.668-2.553-1.001-5.163-1.001-5.163h-.108s-.335 2.61-1.001 5.163l-6.047 23.315h-8.274l-9.883-39.413h7.382l6.22 27.256c.501 2.22.668 4.163.668 4.163h.108c.059 0 .109-1.887.719-4.163l7.105-27.256zm24.659 25.257c0-8.715 5.94-14.821 14.377-14.821 8.16 0 12.546 5.94 12.546 13.434 0 .832-.167 2.719-.167 2.719h-19.54c.444 4.941 4.275 7.494 8.493 7.494 4.553 0 8.161-3.108 8.161-3.108l2.72 5.051s-4.33 4.053-11.38 4.053c-9.381 0-15.21-6.773-15.21-14.822m7.439-3.497h12.379c-.111-3.831-2.498-5.884-5.608-5.884-3.607 0-6.106 2.221-6.771 5.884m23.298 3.497c0-8.715 5.939-14.821 14.377-14.821 8.16 0 12.546 5.94 12.546 13.434 0 .832-.167 2.719-.167 2.719h-19.537c.443 4.941 4.272 7.494 8.491 7.494 4.551 0 8.16-3.108 8.16-3.108l2.722 5.051s-4.332 4.053-11.383 4.053c-9.38 0-15.209-6.773-15.209-14.822m7.44-3.497h12.377c-.109-3.831-2.497-5.884-5.605-5.884-3.609 0-6.105 2.221-6.772 5.884m25.295 17.653v-39.413h7.049v21.094h3.497l6.828-9.992h7.83l-8.937 12.657v.111l10.046 15.543h-8.104l-7.494-12.379h-3.666v12.379zm30.079-8.826v-30.587h6.994v29.532c0 3.109 1.054 3.886 2.887 3.886.553 0 1.054-.056 1.054-.056v6.162s-1.054.166-2.221.166c-3.885 0-8.714-1-8.714-9.103m12.333 18.651 2.329-5.273s1.555 1.165 3.166 1.165c1.943 0 3.829-1.165 4.886-3.664l1.054-2.498-11.935-27.866h7.938l5.94 16.319c.556 1.501 1.054 3.831 1.054 3.831h.112s.444-2.22.941-3.719l5.553-16.431h7.716l-12.656 32.584c-1.999 5.164-5.94 7.384-10.214 7.384-3.385 0-5.884-1.832-5.884-1.832"/><path fill="#00a74e" d="M130.416 204.935v-2.277h7.106v1.832c0 4.663 2.552 6.218 5.22 6.218 2.662 0 5.048-1.61 5.048-5.884V183.34h-10.159v-6.161h17.322v27.756c0 8.604-6.221 12.323-12.327 12.323-6.047 0-12.21-3.83-12.21-12.323m43.346 11.657-14.378-39.413h7.714l8.665 25.702c.776 2.275 1.444 5.773 1.494 5.773h.116c.051 0 .718-3.498 1.494-5.773l8.716-25.702h7.664l-14.379 39.413zm24.908 0 3.219-39.413h7.657l7.722 19.484c.884 2.331 1.995 5.773 1.995 5.773h.108s1.059-3.442 1.951-5.773l7.714-19.484h7.658l3.161 39.413h-7.106l-1.66-22.038c-.167-2.609-.058-6.107-.058-6.107h-.109s-1.167 3.831-2.111 6.107l-6.38 15.266h-6.279l-6.324-15.266c-.942-2.276-2.167-6.162-2.167-6.162h-.109s.109 3.553-.058 6.162l-1.66 22.038zm88.324-39.413 6.997 27.256c.609 2.276.66 4.163.718 4.163h.109s.167-1.943.666-4.163l6.497-27.256h7.383l-10.16 39.413h-8.273l-6.047-23.315c-.668-2.553-1.001-5.163-1.001-5.163h-.108s-.335 2.61-1.001 5.163l-6.047 23.315h-8.274l-9.883-39.413h7.382l6.22 27.256c.501 2.22.668 4.163.668 4.163h.108c.059 0 .109-1.887.719-4.163l7.105-27.256zm24.659 25.257c0-8.715 5.94-14.821 14.377-14.821 8.16 0 12.546 5.94 12.546 13.434 0 .832-.167 2.719-.167 2.719h-19.54c.444 4.941 4.275 7.494 8.493 7.494 4.553 0 8.161-3.108 8.161-3.108l2.72 5.051s-4.33 4.053-11.38 4.053c-9.381 0-15.21-6.773-15.21-14.822m7.439-3.497h12.379c-.111-3.831-2.498-5.884-5.608-5.884-3.607 0-6.106 2.221-6.771 5.884m23.298 3.497c0-8.715 5.939-14.821 14.377-14.821 8.16 0 12.546 5.94 12.546 13.434 0 .832-.167 2.719-.167 2.719h-19.537c.443 4.941 4.272 7.494 8.491 7.494 4.551 0 8.16-3.108 8.16-3.108l2.722 5.051s-4.332 4.053-11.383 4.053c-9.38 0-15.209-6.773-15.209-14.822m7.44-3.497h12.377c-.109-3.831-2.497-5.884-5.605-5.884-3.609 0-6.105 2.221-6.772 5.884m25.295 17.653v-39.413h7.049v21.094h3.497l6.828-9.992h7.83l-8.937 12.657v.111l10.046 15.543h-8.104l-7.494-12.379h-3.666v12.379zm30.079-8.826v-30.587h6.994v29.532c0 3.109 1.054 3.886 2.887 3.886.553 0 1.054-.056 1.054-.056v6.162s-1.054.166-2.221.166c-3.885 0-8.714-1-8.714-9.103m12.333 18.651 2.329-5.273s1.555 1.165 3.166 1.165c1.943 0 3.829-1.165 4.886-3.664l1.054-2.498-11.935-27.866h7.938l5.94 16.319c.556 1.501 1.054 3.831 1.054 3.831h.112s.444-2.22.941-3.719l5.553-16.431h7.716l-12.656 32.584c-1.999 5.164-5.94 7.384-10.214 7.384-3.385 0-5.884-1.832-5.884-1.832"/></svg>