<svg width="369" height="124" viewBox="0 0 369 124" fill="none" xmlns="http://www.w3.org/2000/svg">
<path d="M87.0909 31.9126C66.8399 11.9406 59.4607 -3.5453e-07 41.9101 1.12487e-06C24.2867 2.61042e-06 10 14.3269 10 32C10 49.6731 24.2867 64 41.9101 64C59.4607 64 66.8399 51.9406 87.0909 31.9126Z" fill="url(#paint0_linear_9309_24876)"/>
<path d="M56.0623 39.2773C50.9746 39.2773 46.8502 35.1529 46.8502 30.0652C46.8502 24.9775 50.9746 20.8531 56.0623 20.8531C61.15 20.8531 65.2744 24.9775 65.2744 30.0652C65.2744 35.1529 61.15 39.2773 56.0623 39.2773Z" fill="white"/>
<path d="M59.4562 35.8829C56.2429 35.8829 53.6381 33.2781 53.6381 30.0648C53.6381 26.8515 56.2429 24.2466 59.4562 24.2466C62.6695 24.2466 65.2744 26.8515 65.2744 30.0648C65.2744 33.2781 62.6695 35.8829 59.4562 35.8829Z" fill="black"/>
<rect x="89.0908" y="2" width="224" height="60" rx="30" stroke="url(#paint1_linear_9309_24876)" stroke-width="4" stroke-linejoin="round"/>
<path d="M126.056 22H130.616V31.285L138.431 22H143.801L135.296 32.125L143.996 43H138.461L130.616 33.25V43H126.056V22ZM151.812 43.36C150.262 43.36 148.857 43.01 147.597 42.31C146.347 41.61 145.362 40.65 144.642 39.43C143.922 38.2 143.562 36.83 143.562 35.32C143.562 33.81 143.917 32.445 144.627 31.225C145.347 29.995 146.337 29.03 147.597 28.33C148.857 27.63 150.262 27.28 151.812 27.28C153.362 27.28 154.762 27.63 156.012 28.33C157.272 29.03 158.262 29.995 158.982 31.225C159.712 32.445 160.077 33.81 160.077 35.32C160.077 36.83 159.712 38.2 158.982 39.43C158.262 40.65 157.272 41.61 156.012 42.31C154.762 43.01 153.362 43.36 151.812 43.36ZM151.812 39.475C152.542 39.475 153.187 39.3 153.747 38.95C154.307 38.6 154.742 38.11 155.052 37.48C155.362 36.85 155.517 36.13 155.517 35.32C155.517 34.5 155.362 33.78 155.052 33.16C154.742 32.53 154.302 32.04 153.732 31.69C153.172 31.34 152.532 31.165 151.812 31.165C151.092 31.165 150.452 31.34 149.892 31.69C149.332 32.04 148.892 32.53 148.572 33.16C148.262 33.79 148.107 34.51 148.107 35.32C148.107 36.13 148.262 36.85 148.572 37.48C148.882 38.11 149.317 38.6 149.877 38.95C150.447 39.3 151.092 39.475 151.812 39.475ZM168.541 43C167.651 43 166.856 42.815 166.156 42.445C165.466 42.065 164.926 41.545 164.536 40.885C164.156 40.215 163.966 39.45 163.966 38.59L163.951 31.42H161.251L161.266 27.64H162.961C163.341 27.64 163.646 27.525 163.876 27.295C164.106 27.055 164.221 26.75 164.221 26.38V23.905H168.346V27.64H172.366V31.42H168.346V37.9C168.346 38.28 168.471 38.595 168.721 38.845C168.971 39.095 169.286 39.22 169.666 39.22H172.366V43H168.541ZM175.112 22H179.492V43H175.112V22ZM183.076 27.64H187.456V43H183.076V27.64ZM182.956 22H187.576V25.96H182.956V22ZM190.869 27.64H195.144V33.85H194.094C194.094 32.52 194.319 31.36 194.769 30.37C195.229 29.38 195.884 28.62 196.734 28.09C197.584 27.55 198.584 27.28 199.734 27.28C200.834 27.28 201.789 27.525 202.599 28.015C203.409 28.495 204.034 29.19 204.474 30.1C204.924 31 205.149 32.08 205.149 33.34V43H200.769V34.09C200.769 33.47 200.669 32.94 200.469 32.5C200.269 32.06 199.974 31.725 199.584 31.495C199.204 31.255 198.744 31.135 198.204 31.135C197.614 31.135 197.094 31.27 196.644 31.54C196.194 31.8 195.849 32.17 195.609 32.65C195.369 33.12 195.249 33.66 195.249 34.27V43H190.869V27.64ZM218.366 43.36C216.326 43.36 214.481 42.89 212.831 41.95C211.181 41 209.881 39.7 208.931 38.05C207.991 36.39 207.521 34.54 207.521 32.5C207.521 30.46 207.991 28.615 208.931 26.965C209.881 25.305 211.181 24.005 212.831 23.065C214.481 22.115 216.326 21.64 218.366 21.64C220.106 21.64 221.701 21.965 223.151 22.615C224.601 23.265 225.806 24.175 226.766 25.345C227.726 26.515 228.351 27.855 228.641 29.365H223.796C223.536 28.655 223.146 28.035 222.626 27.505C222.116 26.975 221.496 26.565 220.766 26.275C220.036 25.985 219.236 25.84 218.366 25.84C217.196 25.84 216.146 26.13 215.216 26.71C214.286 27.28 213.556 28.07 213.026 29.08C212.506 30.08 212.246 31.22 212.246 32.5C212.246 33.78 212.506 34.925 213.026 35.935C213.556 36.935 214.286 37.725 215.216 38.305C216.146 38.875 217.196 39.16 218.366 39.16C219.236 39.16 220.036 39.015 220.766 38.725C221.496 38.435 222.116 38.025 222.626 37.495C223.146 36.965 223.536 36.345 223.796 35.635H228.641C228.351 37.145 227.726 38.485 226.766 39.655C225.806 40.825 224.601 41.735 223.151 42.385C221.701 43.035 220.106 43.36 218.366 43.36ZM238.56 43.36C237.01 43.36 235.605 43.01 234.345 42.31C233.095 41.61 232.11 40.65 231.39 39.43C230.67 38.2 230.31 36.83 230.31 35.32C230.31 33.81 230.665 32.445 231.375 31.225C232.095 29.995 233.085 29.03 234.345 28.33C235.605 27.63 237.01 27.28 238.56 27.28C240.11 27.28 241.51 27.63 242.76 28.33C244.02 29.03 245.01 29.995 245.73 31.225C246.46 32.445 246.825 33.81 246.825 35.32C246.825 36.83 246.46 38.2 245.73 39.43C245.01 40.65 244.02 41.61 242.76 42.31C241.51 43.01 240.11 43.36 238.56 43.36ZM238.56 39.475C239.29 39.475 239.935 39.3 240.495 38.95C241.055 38.6 241.49 38.11 241.8 37.48C242.11 36.85 242.265 36.13 242.265 35.32C242.265 34.5 242.11 33.78 241.8 33.16C241.49 32.53 241.05 32.04 240.48 31.69C239.92 31.34 239.28 31.165 238.56 31.165C237.84 31.165 237.2 31.34 236.64 31.69C236.08 32.04 235.64 32.53 235.32 33.16C235.01 33.79 234.855 34.51 234.855 35.32C234.855 36.13 235.01 36.85 235.32 37.48C235.63 38.11 236.065 38.6 236.625 38.95C237.195 39.3 237.84 39.475 238.56 39.475ZM249.316 27.64H253.591V33.85H252.541C252.541 32.52 252.766 31.36 253.216 30.37C253.676 29.38 254.331 28.62 255.181 28.09C256.031 27.55 257.031 27.28 258.181 27.28C259.281 27.28 260.236 27.525 261.046 28.015C261.856 28.495 262.481 29.19 262.921 30.1C263.371 31 263.596 32.08 263.596 33.34V43H259.216V34.09C259.216 33.47 259.116 32.94 258.916 32.5C258.716 32.06 258.421 31.725 258.031 31.495C257.651 31.255 257.191 31.135 256.651 31.135C256.061 31.135 255.541 31.27 255.091 31.54C254.641 31.8 254.296 32.17 254.056 32.65C253.816 33.12 253.696 33.66 253.696 34.27V43H249.316V27.64ZM268.248 31.42H265.503V27.64H268.248V26.08C268.248 25.27 268.433 24.56 268.803 23.95C269.183 23.33 269.718 22.85 270.408 22.51C271.098 22.17 271.898 22 272.808 22H276.618V25.36H273.813C273.463 25.36 273.178 25.47 272.958 25.69C272.738 25.91 272.628 26.195 272.628 26.545V27.64H276.543V31.42H272.628V43H268.248V31.42Z" fill="white"/>
<path d="M41.52 82H43.92V103H41.52V82ZM49.56 103.36C48.24 103.36 47.075 103.07 46.065 102.49C45.055 101.9 44.265 101.08 43.695 100.03C43.135 98.97 42.845 97.745 42.825 96.355H43.815V94.285H42.825C42.845 92.895 43.135 91.675 43.695 90.625C44.265 89.565 45.055 88.745 46.065 88.165C47.075 87.575 48.24 87.28 49.56 87.28C50.99 87.28 52.26 87.62 53.37 88.3C54.49 88.97 55.36 89.915 55.98 91.135C56.61 92.355 56.925 93.75 56.925 95.32C56.925 96.89 56.61 98.285 55.98 99.505C55.36 100.725 54.49 101.675 53.37 102.355C52.26 103.025 50.99 103.36 49.56 103.36ZM49.185 101.185C50.205 101.185 51.11 100.94 51.9 100.45C52.69 99.95 53.305 99.26 53.745 98.38C54.185 97.49 54.405 96.47 54.405 95.32C54.405 94.17 54.185 93.155 53.745 92.275C53.305 91.385 52.69 90.695 51.9 90.205C51.11 89.705 50.205 89.455 49.185 89.455C48.155 89.455 47.24 89.705 46.44 90.205C45.64 90.695 45.015 91.385 44.565 92.275C44.125 93.155 43.905 94.17 43.905 95.32C43.905 96.47 44.125 97.49 44.565 98.38C45.015 99.26 45.64 99.95 46.44 100.45C47.24 100.94 48.155 101.185 49.185 101.185ZM59.7966 105.67H62.0766C62.3966 105.67 62.7016 105.565 62.9916 105.355C63.2816 105.155 63.5066 104.885 63.6666 104.545L64.5366 102.655L58.6116 87.64H61.1616L65.7966 99.61L70.2366 87.64H72.7716L65.7966 105.295C65.4966 106.065 65.0166 106.675 64.3566 107.125C63.7066 107.575 62.9716 107.8 62.1516 107.8H59.7966V105.67ZM81.4641 100.675H84.7341C85.3941 100.675 85.9841 100.53 86.5041 100.24C87.0341 99.94 87.4441 99.53 87.7341 99.01C88.0341 98.48 88.1841 97.885 88.1841 97.225V82H90.6741V97.375C90.6741 98.445 90.4241 99.41 89.9241 100.27C89.4241 101.12 88.7341 101.79 87.8541 102.28C86.9741 102.76 85.9841 103 84.8841 103H81.4641V100.675ZM102.434 103.36C100.984 103.36 99.6736 103.015 98.5036 102.325C97.3336 101.635 96.4136 100.675 95.7436 99.445C95.0736 98.215 94.7386 96.83 94.7386 95.29C94.7386 93.79 95.0786 92.43 95.7586 91.21C96.4386 89.98 97.3636 89.02 98.5336 88.33C99.7136 87.63 101.014 87.28 102.434 87.28C103.894 87.28 105.189 87.62 106.319 88.3C107.449 88.97 108.329 89.915 108.959 91.135C109.589 92.355 109.904 93.75 109.904 95.32V95.86H97.1236L97.1536 95.245C97.1636 96.435 97.3886 97.48 97.8286 98.38C98.2786 99.27 98.8986 99.96 99.6886 100.45C100.479 100.94 101.394 101.185 102.434 101.185C103.364 101.185 104.189 101.005 104.909 100.645C105.629 100.285 106.219 99.77 106.679 99.1H109.349C108.969 99.98 108.444 100.74 107.774 101.38C107.114 102.01 106.329 102.5 105.419 102.85C104.509 103.19 103.514 103.36 102.434 103.36ZM97.1236 93.955H107.504V95.29C107.504 94.14 107.289 93.125 106.859 92.245C106.439 91.355 105.844 90.665 105.074 90.175C104.304 89.685 103.424 89.44 102.434 89.44C101.404 89.44 100.489 89.68 99.6886 90.16C98.8886 90.64 98.2636 91.315 97.8136 92.185C97.3736 93.055 97.1536 94.055 97.1536 95.185L97.1236 93.955ZM118.749 103C118.019 103 117.354 102.845 116.754 102.535C116.164 102.215 115.699 101.78 115.359 101.23C115.019 100.67 114.849 100.05 114.849 99.37L114.834 89.77H112.134L112.149 87.64H113.814C114.194 87.64 114.499 87.52 114.729 87.28C114.969 87.04 115.089 86.735 115.089 86.365V83.89H117.249V87.64H121.404L121.389 89.77H117.234L117.249 99.22C117.249 99.69 117.404 100.085 117.714 100.405C118.034 100.715 118.429 100.87 118.899 100.87H121.389V103H118.749ZM133.998 82C135.228 82 136.323 82.235 137.283 82.705C138.253 83.175 139.008 83.825 139.548 84.655C140.088 85.485 140.358 86.425 140.358 87.475C140.358 88.425 140.138 89.265 139.698 89.995C139.268 90.715 138.658 91.275 137.868 91.675C137.088 92.075 136.188 92.275 135.168 92.275V91.795C136.278 91.795 137.268 92.025 138.138 92.485C139.008 92.945 139.683 93.585 140.163 94.405C140.653 95.225 140.898 96.15 140.898 97.18C140.898 98.3 140.613 99.305 140.043 100.195C139.473 101.075 138.678 101.765 137.658 102.265C136.638 102.755 135.478 103 134.178 103H125.508V82H133.998ZM127.953 100.75H134.178C134.988 100.75 135.708 100.6 136.338 100.3C136.968 99.99 137.453 99.56 137.793 99.01C138.143 98.45 138.318 97.805 138.318 97.075C138.318 96.355 138.143 95.71 137.793 95.14C137.443 94.57 136.953 94.13 136.323 93.82C135.703 93.5 134.988 93.34 134.178 93.34H127.953V100.75ZM133.998 91.15C134.748 91.15 135.408 91.01 135.978 90.73C136.548 90.45 136.988 90.05 137.298 89.53C137.618 89.01 137.778 88.405 137.778 87.715C137.778 87.025 137.618 86.42 137.298 85.9C136.988 85.38 136.543 84.975 135.963 84.685C135.393 84.395 134.738 84.25 133.998 84.25H127.953V91.15H133.998ZM145.172 87.64H147.572V92.785L146.567 94.285C146.607 92.905 146.857 91.705 147.317 90.685C147.787 89.655 148.437 88.865 149.267 88.315C150.097 87.765 151.062 87.49 152.162 87.49H152.702V89.995H152.072C151.162 89.995 150.367 90.17 149.687 90.52C149.007 90.87 148.482 91.37 148.112 92.02C147.752 92.66 147.572 93.415 147.572 94.285V103H145.172V87.64ZM169.893 87.64V103H167.583V87.64H169.893ZM161.928 103.36C160.498 103.36 159.223 103.025 158.103 102.355C156.993 101.675 156.123 100.725 155.493 99.505C154.873 98.285 154.563 96.89 154.563 95.32C154.563 93.75 154.873 92.355 155.493 91.135C156.123 89.915 156.993 88.97 158.103 88.3C159.223 87.62 160.498 87.28 161.928 87.28C163.248 87.28 164.413 87.575 165.423 88.165C166.433 88.745 167.218 89.565 167.778 90.625C168.348 91.675 168.643 92.895 168.663 94.285H167.673V96.355H168.663C168.643 97.745 168.348 98.97 167.778 100.03C167.218 101.08 166.433 101.9 165.423 102.49C164.413 103.07 163.248 103.36 161.928 103.36ZM162.303 101.185C163.333 101.185 164.248 100.94 165.048 100.45C165.848 99.95 166.468 99.26 166.908 98.38C167.358 97.49 167.583 96.47 167.583 95.32C167.583 94.17 167.358 93.155 166.908 92.275C166.468 91.385 165.848 90.695 165.048 90.205C164.248 89.705 163.333 89.455 162.303 89.455C161.283 89.455 160.378 89.705 159.588 90.205C158.798 90.695 158.183 91.385 157.743 92.275C157.303 93.155 157.083 94.17 157.083 95.32C157.083 96.47 157.303 97.49 157.743 98.38C158.183 99.26 158.798 99.95 159.588 100.45C160.378 100.94 161.283 101.185 162.303 101.185ZM174.704 87.64H177.104V103H174.704V87.64ZM174.584 82H177.224V84.73H174.584V82ZM182.145 87.64H184.455V94.285H183.495C183.495 92.865 183.74 91.63 184.23 90.58C184.72 89.52 185.42 88.705 186.33 88.135C187.24 87.565 188.31 87.28 189.54 87.28C190.64 87.28 191.615 87.515 192.465 87.985C193.315 88.455 193.98 89.15 194.46 90.07C194.95 90.98 195.195 92.075 195.195 93.355V103H192.795V93.595C192.795 92.705 192.635 91.945 192.315 91.315C192.005 90.685 191.56 90.205 190.98 89.875C190.4 89.545 189.71 89.38 188.91 89.38C188.05 89.38 187.29 89.57 186.63 89.95C185.97 90.33 185.455 90.865 185.085 91.555C184.725 92.235 184.545 93.015 184.545 93.895V103H182.145V87.64ZM204.821 103.36C203.641 103.36 202.591 103.175 201.671 102.805C200.751 102.425 200.021 101.89 199.481 101.2C198.941 100.51 198.641 99.705 198.581 98.785H200.981C201.041 99.295 201.241 99.74 201.581 100.12C201.921 100.5 202.366 100.795 202.916 101.005C203.466 101.215 204.091 101.32 204.791 101.32C205.491 101.32 206.111 101.21 206.651 100.99C207.201 100.77 207.626 100.465 207.926 100.075C208.226 99.675 208.376 99.22 208.376 98.71C208.376 98.35 208.296 98.02 208.136 97.72C207.986 97.42 207.766 97.17 207.476 96.97C207.196 96.77 206.856 96.635 206.456 96.565L203.141 95.95C202.321 95.8 201.606 95.53 200.996 95.14C200.396 94.74 199.931 94.25 199.601 93.67C199.281 93.09 199.121 92.445 199.121 91.735C199.121 90.895 199.351 90.14 199.811 89.47C200.271 88.79 200.916 88.255 201.746 87.865C202.586 87.475 203.546 87.28 204.626 87.28C205.736 87.28 206.711 87.46 207.551 87.82C208.391 88.17 209.051 88.68 209.531 89.35C210.021 90.01 210.301 90.795 210.371 91.705H207.971C207.911 91.215 207.731 90.79 207.431 90.43C207.131 90.06 206.736 89.775 206.246 89.575C205.766 89.375 205.226 89.275 204.626 89.275C204.006 89.275 203.456 89.38 202.976 89.59C202.496 89.79 202.126 90.08 201.866 90.46C201.606 90.83 201.476 91.255 201.476 91.735C201.476 92.095 201.551 92.41 201.701 92.68C201.861 92.94 202.101 93.16 202.421 93.34C202.751 93.52 203.176 93.66 203.696 93.76L206.981 94.375C207.761 94.525 208.431 94.805 208.991 95.215C209.561 95.615 209.991 96.12 210.281 96.73C210.581 97.33 210.731 97.99 210.731 98.71C210.731 99.6 210.471 100.4 209.951 101.11C209.441 101.82 208.736 102.375 207.836 102.775C206.936 103.165 205.931 103.36 204.821 103.36Z" fill="white"/>
<path d="M261 62H318C334.569 62 348 75.4315 348 92C348 108.569 334.569 122 318 122H261C244.431 122 231 108.569 231 92C231 75.4315 244.431 62 261 62Z" stroke="url(#paint2_linear_9309_24876)" stroke-width="4"/>
<path d="M254.23 99.265L262.735 91.96C263.345 91.43 263.805 90.89 264.115 90.34C264.425 89.78 264.58 89.21 264.58 88.63C264.58 88.04 264.455 87.52 264.205 87.07C263.955 86.61 263.6 86.255 263.14 86.005C262.68 85.755 262.14 85.63 261.52 85.63C260.87 85.63 260.29 85.775 259.78 86.065C259.28 86.345 258.895 86.745 258.625 87.265C258.355 87.775 258.22 88.36 258.22 89.02H253.69C253.7 87.6 254.04 86.33 254.71 85.21C255.38 84.09 256.31 83.215 257.5 82.585C258.7 81.955 260.06 81.64 261.58 81.64C263.05 81.64 264.355 81.925 265.495 82.495C266.645 83.065 267.535 83.86 268.165 84.88C268.805 85.89 269.125 87.035 269.125 88.315C269.115 89.465 268.81 90.585 268.21 91.675C267.61 92.755 266.735 93.785 265.585 94.765L260.785 98.95H269.65V103H254.245L254.23 99.265ZM280.271 99.415C281.131 99.415 281.871 99.14 282.491 98.59C283.121 98.03 283.601 97.235 283.931 96.205C284.261 95.165 284.426 93.94 284.426 92.53C284.426 91.1 284.261 89.865 283.931 88.825C283.601 87.785 283.121 86.985 282.491 86.425C281.871 85.865 281.131 85.585 280.271 85.585C279.411 85.585 278.666 85.865 278.036 86.425C277.416 86.985 276.941 87.785 276.611 88.825C276.281 89.855 276.116 91.08 276.116 92.5C276.116 93.92 276.281 95.15 276.611 96.19C276.941 97.23 277.416 98.03 278.036 98.59C278.666 99.14 279.411 99.415 280.271 99.415ZM280.256 103.36C278.506 103.36 276.971 102.915 275.651 102.025C274.341 101.125 273.326 99.86 272.606 98.23C271.886 96.6 271.526 94.7 271.526 92.53C271.526 90.35 271.886 88.44 272.606 86.8C273.326 85.15 274.341 83.88 275.651 82.99C276.971 82.09 278.506 81.64 280.256 81.64C282.006 81.64 283.541 82.09 284.861 82.99C286.181 83.88 287.201 85.15 287.921 86.8C288.651 88.44 289.016 90.35 289.016 92.53C289.016 94.7 288.651 96.6 287.921 98.23C287.201 99.86 286.181 101.125 284.861 102.025C283.541 102.915 282.006 103.36 280.256 103.36ZM291.32 99.265L299.825 91.96C300.435 91.43 300.895 90.89 301.205 90.34C301.515 89.78 301.67 89.21 301.67 88.63C301.67 88.04 301.545 87.52 301.295 87.07C301.045 86.61 300.69 86.255 300.23 86.005C299.77 85.755 299.23 85.63 298.61 85.63C297.96 85.63 297.38 85.775 296.87 86.065C296.37 86.345 295.985 86.745 295.715 87.265C295.445 87.775 295.31 88.36 295.31 89.02H290.78C290.79 87.6 291.13 86.33 291.8 85.21C292.47 84.09 293.4 83.215 294.59 82.585C295.79 81.955 297.15 81.64 298.67 81.64C300.14 81.64 301.445 81.925 302.585 82.495C303.735 83.065 304.625 83.86 305.255 84.88C305.895 85.89 306.215 87.035 306.215 88.315C306.205 89.465 305.9 90.585 305.3 91.675C304.7 92.755 303.825 93.785 302.675 94.765L297.875 98.95H306.74V103H291.335L291.32 99.265ZM316.892 103.36C315.512 103.36 314.237 103.095 313.067 102.565C311.907 102.035 310.967 101.305 310.247 100.375C309.527 99.435 309.112 98.39 309.002 97.24H313.532C313.642 97.68 313.852 98.07 314.162 98.41C314.482 98.75 314.872 99.015 315.332 99.205C315.802 99.385 316.317 99.475 316.877 99.475C317.547 99.475 318.142 99.325 318.662 99.025C319.192 98.715 319.602 98.29 319.892 97.75C320.192 97.21 320.342 96.605 320.342 95.935C320.342 95.265 320.192 94.66 319.892 94.12C319.602 93.58 319.192 93.16 318.662 92.86C318.142 92.55 317.547 92.395 316.877 92.395C316.427 92.395 315.997 92.465 315.587 92.605C315.177 92.745 314.817 92.94 314.507 93.19C314.207 93.43 313.972 93.7 313.802 94H309.542L310.427 82H323.777V86.05H314.192L313.832 90.7C314.062 90.35 314.392 90.045 314.822 89.785C315.252 89.515 315.747 89.31 316.307 89.17C316.867 89.02 317.452 88.945 318.062 88.945C319.362 88.945 320.532 89.25 321.572 89.86C322.612 90.47 323.422 91.305 324.002 92.365C324.592 93.425 324.887 94.61 324.887 95.92C324.887 97.33 324.542 98.6 323.852 99.73C323.162 100.86 322.207 101.75 320.987 102.4C319.777 103.04 318.412 103.36 316.892 103.36Z" fill="white"/>
<defs>
<linearGradient id="paint0_linear_9309_24876" x1="48.4053" y1="31.3978" x2="87.0939" y2="31.3978" gradientUnits="userSpaceOnUse">
<stop stop-color="#C202D7"/>
<stop offset="1" stop-color="#E00189"/>
</linearGradient>
<linearGradient id="paint1_linear_9309_24876" x1="4.59228" y1="5.50001" x2="398.052" y2="34.2481" gradientUnits="userSpaceOnUse">
<stop stop-color="#FF9419"/>
<stop offset="0.304593" stop-color="#FF021D"/>
<stop offset="0.654972" stop-color="#8F00FF"/>
<stop offset="1" stop-color="#2000E7"/>
</linearGradient>
<linearGradient id="paint2_linear_9309_24876" x1="336.154" y1="31.0154" x2="283.849" y2="194.211" gradientUnits="userSpaceOnUse">
<stop stop-color="#FF9419"/>
<stop offset="0.304593" stop-color="#FF021D"/>
<stop offset="0.654972" stop-color="#E600FF"/>
<stop offset="1" stop-color="#8F00E7"/>
</linearGradient>
</defs>
</svg>
