<svg xmlns="http://www.w3.org/2000/svg" width="220" height="47" fill="none" viewBox="0 0 220 47"><path fill="#fff" d="M0 1.238c2.122-.48 5.406-.76 8.367-.76 8.006 0 12.813 2.637 12.813 9.344 0 4.113-1.764 6.829-4.524 8.306l6.681 10.78c-.521.36-1.642.56-3.203.56-1.764 0-2.923-.2-3.764-.56l-5.563-9.343h-.631c-1.357 0-3.163-.12-4.123-.28v9.663c-.56.32-1.562.52-3.003.52-1.401 0-2.442-.2-3.042-.52zM6.005 5.87v8.345a21 21 0 0 0 3.444.28c3.483 0 5.611-1.234 5.611-4.346 0-3.195-2.24-4.512-6.24-4.512a16 16 0 0 0-2.815.233M31.07 21.245c.24 2.795 2.242 4.152 6.206 4.152 2.563 0 4.804-.558 6.241-1.197.12 1.517-.52 3.473-1.44 4.511-1.322.76-3.563 1.398-6.326 1.398-7.006 0-10.73-4.032-10.73-10.502 0-6.668 4.004-10.98 10.29-10.98 5.846 0 8.528 3.593 8.528 8.864a12.3 12.3 0 0 1-.6 3.753zm7.327-4.195c.32-2.076-.441-4.113-3.323-4.113-2.483 0-4.004 1.597-4.164 4.113zm17.858 7.946c.278-1.74.666-3.46 1.161-5.151l3.042-10.302c.441-.16 1.121-.36 2.403-.36 1.642 0 2.763.32 3.483.798L60.02 28.91c-2.122.6-5.085.798-7.928.798L45.525 9.983c.72-.48 1.842-.799 3.528-.799 1.2 0 2.035.2 2.403.36l3.243 10.302a40 40 0 0 1 1.241 5.151zm17.534-3.751c.24 2.795 2.241 4.152 6.206 4.152 2.563 0 4.804-.558 6.241-1.197.12 1.517-.52 3.473-1.44 4.511-1.322.76-3.564 1.398-6.326 1.398-7.007 0-10.73-4.032-10.73-10.502 0-6.668 4.004-10.98 10.29-10.98 5.845 0 8.528 3.593 8.528 8.864a12.3 12.3 0 0 1-.597 3.753zm7.327-4.195c.32-2.076-.441-4.113-3.323-4.113-2.483 0-4.004 1.597-4.164 4.113zm15.737 11.939c-.521.28-1.482.479-2.884.479s-2.362-.2-2.922-.48V9.944c1.085-.6 2.803-.92 4.724-.92l.32 3.276h.32c.961-2.076 3.003-3.674 6.649-3.674 3.043 0 6.649 1.082 6.649 7.667V28.99c-.522.28-1.482.479-2.884.479s-2.362-.199-2.922-.48V17.33c0-2.075-.721-3.393-3.083-3.393-2.081 0-3.243 1.038-3.963 2.276zm30.988-2.076c-.881 1.797-2.763 3.195-6.286 3.195-3.121 0-6.649-1.083-6.649-7.713V10.216c1.357-.759 3.284-1.197 5.806-1.197v12.378c0 2.156.678 3.355 3.003 3.355 1.882 0 3.12-.799 3.843-1.717V9.743c.561-.28 1.521-.48 2.923-.48 1.401 0 2.362.2 2.883.48V28.79c-1.041.6-2.682.919-4.523.919l-.679-2.796zm15.932-5.668c.24 2.795 2.241 4.152 6.206 4.152 2.563 0 4.805-.558 6.241-1.197.12 1.517-.52 3.473-1.441 4.511-1.321.76-3.562 1.398-6.325 1.398-7.006 0-10.729-4.032-10.729-10.502 0-6.668 4.004-10.98 10.289-10.98 5.846 0 8.528 3.593 8.528 8.864a12.3 12.3 0 0 1-.601 3.753zm7.327-4.195c.32-2.076-.441-4.113-3.323-4.113-2.483 0-4.004 1.597-4.164 4.113zm24.828-11.739c-5.646 0-9.529 2.876-9.529 9.823s3.844 9.703 9.248 9.703a18.3 18.3 0 0 0 6.726-1.353c.08 1.478-.641 4.033-1.601 5.311-1.722.84-4.206 1.437-7.007 1.437-8.568 0-13.613-5.51-13.613-14.694C160.154 5.631 166.038 0 174.687 0c2.282 0 4.603.406 6.085 1.277.921 1.318 1.321 3.674 1.121 5.43-1.922-.917-3.683-1.396-5.965-1.396m20.659 21.921c-.882 1.76-2.764 2.876-5.526 2.876-3.528 0-6.565-1.76-6.565-6.388 0-4.872 3.528-6.749 8.167-6.749a12 12 0 0 1 3.644.52v-.559c0-2.436-1.201-3.314-3.844-3.314a13.07 13.07 0 0 0-6.407 1.673c-.48-1.558-.281-4.033.641-5.35 1.443-.8 3.924-1.319 6.886-1.319 5.766 0 8.528 2.03 8.528 7.946v6.908c0 1.238.561 1.517 1.356 1.517a3.14 3.14 0 0 0 1.723-.479c.16 1.597-.321 3.553-1.041 4.671-.841.559-1.961.919-3.323.919-2.322 0-3.528-.999-3.924-2.876zm-.161-5.909a7.1 7.1 0 0 0-2.643-.479c-2.32 0-3.482.958-3.482 2.476 0 1.558 1.162 2.117 2.762 2.117 1.281 0 2.562-.406 3.363-1.398z"/><path fill="#fff" d="M214.294 14.344h5.345c.242-.482.362-1.489.362-2.491s-.12-2.008-.362-2.491h-5.345V3.413c-2.25.04-4.38.563-5.828 1.606v4.339h-2.289c-.523 1.285-.805 3.247-.805 4.98h3.096l-.079 14.114c0 1.555-.271 3.543-1.162 4.166-4.243 2.995-12.874 1.546-20.791.724-11.375-1.18-21.2-2.73-22.832 3.547-.863 3.317.257 5.436 1.347 6.63 2.191 2.4 6.058 2.947 9.127 2.947a28 28 0 0 0 4.309-.337 2.78 2.78 0 0 0 1.805-1.113c.43-.595.606-1.335.488-2.06-.244-1.507-1.675-2.57-3.179-2.292-3.154.588-7.607 1.895-9.315.023-.578-.631-.478-2.184 0-2.664 1.27-1.894 9.444-1.17 17.674-.062 9.091.947 18.504 2.274 23.849-.391 2.091-1.044 4.585-3.472 4.585-9.118z"/></svg>