<svg xmlns="http://www.w3.org/2000/svg" width="200" height="51" fill="none" viewBox="0 0 200 51"><path fill="#000" d="M58.844 47.29q0 1.665 1.22 2.632 1.219.966 3.237.966 2.019 0 3.196-.966 1.177-.967 1.177-2.48t-.891-2.345q-.89-.832-2.86-1.386-1.968-.556-2.598-1.017-.63-.463-.631-1.261 0-.883.614-1.395.614-.513 1.91-.513 1.294 0 1.95.597.656.596.656 1.571v.101h1.615v-.1q0-1.547-1.144-2.547t-3.078-1-3.028.95q-1.093.948-1.093 2.378 0 1.428.833 2.206.833.777 2.834 1.358 1.926.554 2.62 1.058.694.505.694 1.345 0 .925-.715 1.496-.716.572-2.06.572-1.347 0-2.095-.555t-.748-1.664v-.1h-1.615zm21.76-7.562h3.936v10.91h1.614v-10.91h3.936V38.4h-9.487zm23.044 6.96q0 2.1 1.291 3.151t3.142 1.051q1.85 0 3.141-1.05 1.29-1.052 1.291-3.152V38.4h-1.615v8.288q0 1.427-.778 2.126t-2.039.698-2.04-.698q-.778-.698-.778-2.126V38.4h-1.615zm23.666 3.95h3.634q2.355 0 3.923-1.555 1.569-1.556 1.569-4.177v-.773q0-2.623-1.569-4.178t-3.923-1.555h-3.634zm1.615-1.328v-9.582h2.019q1.766 0 2.813 1.169 1.047 1.168 1.047 3.236v.773q0 2.067-1.047 3.236-1.047 1.168-2.813 1.168zm23.61-10.91h-1.615v12.238h1.615zm14.51 6.504q0 2.823 1.451 4.404 1.45 1.58 3.721 1.58t3.722-1.58q1.45-1.58 1.45-4.404v-.774q0-2.823-1.45-4.404-1.451-1.58-3.722-1.58t-3.721 1.58q-1.451 1.581-1.451 4.404zm1.631 0v-.774q0-2.151.972-3.378.971-1.227 2.569-1.227t2.569 1.227q.972 1.227.972 3.378v.774q0 2.151-.972 3.378-.971 1.228-2.569 1.228t-2.569-1.227q-.972-1.228-.972-3.38m22.48 2.387q0 1.665 1.22 2.631 1.22.967 3.238.967t3.195-.967q1.178-.966 1.178-2.479t-.892-2.345q-.891-.832-2.859-1.387t-2.599-1.017-.631-1.26q0-.883.614-1.396.615-.512 1.909-.512 1.296 0 1.952.596.656.597.656 1.572v.1h1.614v-.1q0-1.546-1.143-2.547-1.144-1-3.079-1-1.934 0-3.027.95t-1.094 2.379q0 1.428.833 2.206.833.777 2.834 1.357 1.926.555 2.62 1.06.694.503.694 1.344 0 .924-.715 1.496-.714.572-2.06.572t-2.095-.555q-.748-.555-.748-1.664v-.101h-1.615zM68.222 3.398l-.85 4.802h3.252l-.665 3.805h-3.252l-1.664 9.788c-.074.628-.037 1.108.148 1.403.148.333.555.517 1.22.517h.776c.259-.037.517-.073.776-.073l-.37 3.952c-.48.148-.924.258-1.44.332-.481.074-.962.11-1.48.11-.85 0-1.626-.147-2.254-.442a3.46 3.46 0 0 1-1.515-1.182c-.407-.48-.666-1.108-.85-1.773q-.222-1.053-.111-2.327l1.663-10.305h-2.772l.665-3.805h2.772l.85-4.802zm10.26 16.879L84.026 8.2h5.692L78.297 30.657c-.333.701-.74 1.366-1.146 1.957a7.6 7.6 0 0 1-1.478 1.588 6.3 6.3 0 0 1-1.811 1.072 7.2 7.2 0 0 1-2.255.369c-.443 0-.85-.037-1.257-.11-.406-.075-.813-.186-1.22-.26l.37-3.989c.148 0 .26.037.37.037h.333c.924.037 1.663-.11 2.254-.443q.943-.498 1.553-1.662l.96-1.773-3.178-19.244h5.285zm28.632-2.289a17 17 0 0 1-.48 2.4 13 13 0 0 1-.813 2.364c-.333.776-.74 1.478-1.183 2.143-.481.628-.998 1.218-1.626 1.699a7 7 0 0 1-2.07 1.108c-.776.295-1.59.406-2.55.37a5.65 5.65 0 0 1-2.477-.555q-1.108-.499-1.996-1.551L92.146 35.2h-5.1l4.694-27h4.694l-.37 1.92c.702-.739 1.442-1.33 2.255-1.736s1.737-.59 2.735-.554q1.33.056 2.328.443c.703.296 1.257.665 1.737 1.182.481.48.85 1.034 1.146 1.662.296.665.555 1.33.702 2.032.148.739.222 1.477.259 2.216 0 .776 0 1.514-.074 2.253zm-5.063-.37c.037-.517.074-1.108.111-1.736q0-.942-.222-1.773a3.2 3.2 0 0 0-.776-1.44c-.37-.407-.924-.591-1.627-.628-.776 0-1.478.147-2.07.48a4.75 4.75 0 0 0-1.589 1.403l-1.441 8.053c.222.628.591 1.108 1.072 1.403.517.296 1.109.444 1.774.48.813.037 1.478-.147 2.033-.517a4.24 4.24 0 0 0 1.404-1.403c.37-.554.628-1.22.85-1.921a22 22 0 0 0 .444-2.031zm15.731 10.453c-1.367 0-2.55-.258-3.622-.739-1.035-.517-1.922-1.181-2.624-2.031a7.3 7.3 0 0 1-1.552-2.955c-.333-1.145-.444-2.364-.333-3.693l.074-.702a13 13 0 0 1 1.035-3.916c.517-1.219 1.219-2.327 2.106-3.25.851-.923 1.885-1.662 3.068-2.216 1.183-.517 2.513-.776 3.992-.739 1.367.037 2.513.296 3.474.85a6.4 6.4 0 0 1 2.329 2.105c.591.886.961 1.92 1.182 3.066.185 1.145.222 2.327.074 3.583l-.332 2.216h-11.939c-.036.554 0 1.108.111 1.625q.222.72.666 1.33.443.554 1.108.886c.481.222.998.333 1.627.37.961 0 1.848-.148 2.698-.555.813-.369 1.552-.923 2.217-1.625l2.292 2.918a6.1 6.1 0 0 1-1.478 1.588 8 8 0 0 1-1.885 1.072c-.703.295-1.405.48-2.144.628a14.4 14.4 0 0 1-2.144.184m1.848-16.03c-.628 0-1.146.11-1.626.332-.481.222-.924.517-1.257.924-.369.37-.702.812-.961 1.33-.258.48-.517.96-.702 1.477h7.023l.11-.48c.074-.48.074-.96.037-1.367-.074-.443-.184-.85-.406-1.145-.222-.332-.481-.591-.85-.776-.37-.221-.813-.295-1.368-.295m21.49 15.661a5.6 5.6 0 0 1-.037-1.367c0-.443.074-.886.148-1.366a10 10 0 0 1-3.105 2.29c-1.146.554-2.402.812-3.733.812-.813 0-1.515-.11-2.217-.369a5 5 0 0 1-1.737-1.108 4.45 4.45 0 0 1-1.146-1.7c-.259-.627-.37-1.366-.296-2.178a5.7 5.7 0 0 1 .518-2.18 6.6 6.6 0 0 1 1.182-1.625 5.9 5.9 0 0 1 1.663-1.182c.629-.332 1.294-.59 1.996-.812a13 13 0 0 1 2.107-.407c.702-.11 1.405-.147 2.107-.147h3.991l.296-2.253c.074-.665.037-1.293-.111-1.847s-.406-1.034-.776-1.404q-.5-.555-1.33-.886c-.518-.222-1.146-.333-1.812-.333-.665 0-1.293.074-1.884.259a5.4 5.4 0 0 0-1.701.739c-.517.295-.961.738-1.33 1.218s-.629 1.072-.776 1.7h-2.107a5.5 5.5 0 0 1 .961-2.512 8 8 0 0 1 1.885-1.81c.776-.48 1.589-.813 2.476-1.071a11 11 0 0 1 2.661-.333c.961 0 1.848.148 2.624.444.777.295 1.442.701 1.959 1.255.555.554.924 1.22 1.183 1.995s.333 1.662.222 2.622l-1.553 9.493c-.11.628-.184 1.256-.221 1.92-.037.629.037 1.293.148 1.921l-.037.222zm-6.394-1.514a7.8 7.8 0 0 0 2.07-.259 7.5 7.5 0 0 0 1.848-.776 7.3 7.3 0 0 0 1.589-1.218c.517-.48.924-1.035 1.294-1.626l.739-4.284h-3.438c-.48 0-.997.037-1.552.074a8.7 8.7 0 0 0-1.663.295 8 8 0 0 0-1.589.517c-.481.222-.961.48-1.368.813a4.4 4.4 0 0 0-.998 1.182c-.259.48-.406.997-.48 1.625-.074.554 0 1.071.148 1.514.184.444.406.813.739 1.145.332.296.702.554 1.182.74a4 4 0 0 0 1.479.258m16.086 1.514h-2.144L153.473 0h2.18zm8.214-.001h-2.143l3.4-19.502h2.144zm1.849-25.153c.036-.48.221-.813.517-1.034s.628-.37 1.035-.444q.72.111.998.444c.222.184.332.554.406 1.034-.111.443-.295.775-.517.997-.259.222-.591.37-1.035.443a2 2 0 0 1-1.035-.406c-.259-.222-.369-.554-.369-1.034m16.046 25.154a5.6 5.6 0 0 1-.037-1.367c0-.443.074-.886.148-1.366a10 10 0 0 1-3.105 2.29c-1.146.554-2.402.812-3.733.812-.813 0-1.515-.11-2.218-.369a5 5 0 0 1-1.737-1.108 4.46 4.46 0 0 1-1.145-1.7c-.259-.627-.37-1.366-.296-2.178a5.7 5.7 0 0 1 .517-2.18 6.6 6.6 0 0 1 1.183-1.625 5.9 5.9 0 0 1 1.663-1.182c.629-.332 1.294-.59 1.996-.812a13 13 0 0 1 2.107-.407c.702-.11 1.404-.147 2.107-.147h3.991l.296-2.253c.074-.665.037-1.293-.111-1.847s-.407-1.034-.776-1.404q-.499-.555-1.331-.886c-.517-.222-1.145-.333-1.811-.333s-1.293.074-1.885.259a5.4 5.4 0 0 0-1.7.739c-.517.295-.961.738-1.33 1.218s-.629 1.072-.777 1.7h-2.106a5.5 5.5 0 0 1 .961-2.512 8 8 0 0 1 1.885-1.81c.776-.48 1.589-.813 2.476-1.071a11 11 0 0 1 2.661-.333c.961 0 1.848.148 2.624.444.776.295 1.442.701 1.959 1.255.555.554.924 1.22 1.183 1.995s.332 1.662.222 2.622l-1.553 9.493a16 16 0 0 0-.221 1.92c-.037.629.036 1.293.147 1.921l-.037.222zm-6.394-1.514a7.8 7.8 0 0 0 2.069-.259 7.5 7.5 0 0 0 1.848-.776 7.3 7.3 0 0 0 1.59-1.218c.517-.48.924-1.035 1.293-1.626l.74-4.284h-3.438c-.48 0-.998.037-1.552.074a8.7 8.7 0 0 0-1.663.295 8 8 0 0 0-1.59.517c-.48.222-.961.48-1.367.813a4.4 4.4 0 0 0-.998 1.182c-.259.48-.407.997-.48 1.625a3.4 3.4 0 0 0 .147 1.514c.185.444.407.813.74 1.145.332.296.702.554 1.182.74a4 4 0 0 0 1.479.258m26.029-3.583c.074-.628 0-1.145-.258-1.625a3.6 3.6 0 0 0-.998-1.108 6.2 6.2 0 0 0-1.479-.739 15 15 0 0 0-1.552-.48 24 24 0 0 1-2.144-.665 8 8 0 0 1-1.958-.997c-.555-.407-1.035-.887-1.368-1.515-.333-.59-.48-1.33-.407-2.179.037-.923.296-1.736.74-2.4a5.6 5.6 0 0 1 1.737-1.737c.665-.443 1.441-.775 2.291-.997a9.8 9.8 0 0 1 2.514-.332c.887 0 1.7.11 2.476.369.813.258 1.478.665 2.07 1.145s1.035 1.071 1.367 1.81c.296.739.444 1.551.407 2.512h-2.144c.037-.665-.037-1.22-.259-1.7a3.2 3.2 0 0 0-.924-1.255 4.3 4.3 0 0 0-1.404-.776 6.3 6.3 0 0 0-1.7-.259c-.555 0-1.109.074-1.7.222a4.7 4.7 0 0 0-1.553.628c-.48.259-.85.628-1.182 1.071-.333.443-.518.997-.592 1.588-.074.628 0 1.182.259 1.589.259.406.591.738 1.035.997.443.258.924.48 1.478.665a80 80 0 0 1 1.516.443c.739.185 1.478.443 2.18.702.739.295 1.368.628 1.959 1.07.554.444.998.961 1.331 1.59.332.627.443 1.366.406 2.252-.074.96-.332 1.81-.813 2.512a5.8 5.8 0 0 1-1.811 1.736 6.6 6.6 0 0 1-2.402.997c-.887.222-1.774.333-2.625.333-.85 0-1.7-.148-2.55-.37a7.1 7.1 0 0 1-2.18-1.108c-.666-.48-1.146-1.07-1.516-1.81a4.8 4.8 0 0 1-.48-2.548h2.143c0 .701.111 1.293.37 1.773.259.517.591.923.998 1.256.443.332.924.553 1.478.738a7.4 7.4 0 0 0 1.811.222c.592 0 1.183-.037 1.774-.185a4.7 4.7 0 0 0 1.664-.628 4.8 4.8 0 0 0 1.33-1.108c.37-.48.592-1.034.665-1.699"/><mask id="mask0_9192_23261" width="51" height="51" x="0" y="0" maskUnits="userSpaceOnUse" style="mask-type:luminance"><path fill="#fff" d="M50.848 7.696A7.626 7.626 0 0 0 43.225.073H7.624A7.626 7.626 0 0 0 0 7.696v35.57a7.626 7.626 0 0 0 7.623 7.623h35.602a7.626 7.626 0 0 0 7.623-7.622z"/></mask><g mask="url(#mask0_9192_23261)"><mask id="mask1_9192_23261" width="51" height="51" x="0" y="0" maskUnits="userSpaceOnUse" style="mask-type:luminance"><path fill="#fff" d="M50.848 7.696A7.626 7.626 0 0 0 43.225.073H7.624A7.626 7.626 0 0 0 0 7.696v35.57a7.626 7.626 0 0 0 7.623 7.623h35.602a7.626 7.626 0 0 0 7.623-7.622z"/></mask><g fill-rule="evenodd" clip-rule="evenodd" mask="url(#mask1_9192_23261)"><path fill="url(#paint0_radial_9192_23261)" d="M.002 7.57A7.626 7.626 0 0 1 7.624.074h35.603a7.626 7.626 0 0 1 7.622 7.623v35.57a7.626 7.626 0 0 1-7.497 7.622H7.499a7.627 7.627 0 0 1-7.497-7.496z"/><path fill="url(#paint1_radial_9192_23261)" d="m0 13.908 30.579 36.98H7.446A7.626 7.626 0 0 1 0 43.268z"/><path fill="url(#paint2_radial_9192_23261)" d="M0 13.908V7.696A7.626 7.626 0 0 1 7.623.073h35.603a7.6 7.6 0 0 1 5.055 1.92l-35.92 26.862z"/></g></g><defs><radialGradient id="paint0_radial_9192_23261" cx="0" cy="0" r="1" gradientTransform="matrix(13.333 42.922 -42.9251 13.3321 34.382 7.967)" gradientUnits="userSpaceOnUse"><stop stop-color="#5080c2"/><stop offset=".44" stop-color="#4b73bc"/><stop offset="1" stop-color="#4054ad"/></radialGradient><radialGradient id="paint1_radial_9192_23261" cx="0" cy="0" r="1" gradientTransform="matrix(17.3897 -18.6742 18.6756 17.3885 4.163 46.194)" gradientUnits="userSpaceOnUse"><stop stop-color="#f8b644"/><stop offset="1" stop-color="#f8c636"/></radialGradient><radialGradient id="paint2_radial_9192_23261" cx="0" cy="0" r="1" gradientTransform="matrix(-34.5988 -12.1509 12.1518 -34.5964 34.6 12.224)" gradientUnits="userSpaceOnUse"><stop stop-color="#8f2c24"/><stop offset="1" stop-color="#87201c"/></radialGradient></defs></svg>