<svg xmlns="http://www.w3.org/2000/svg" width="130" height="46" fill="none" viewBox="0 0 130 46"><path fill="#fff" d="M17.549 39.152c6.145 0 10.897-4.751 10.897-11.783V0h6.652v44.347h-6.589V40.23c-2.978 3.105-7.095 4.879-11.72 4.879C7.286 45.108 0 38.202 0 27.748V0h6.652v27.369c0 7.159 4.688 11.783 10.897 11.783M40.04 0h6.398v16.155a15.98 15.98 0 0 1 11.467-4.815c9.503 0 16.978 7.54 16.978 16.916 0 9.312-7.475 16.852-16.978 16.852a16.13 16.13 0 0 1-11.53-4.815v4.054h-6.336zm17.42 39.469c6.082 0 11.087-5.005 11.087-11.213 0-6.273-5.005-11.214-11.087-11.214-6.145 0-11.15 4.941-11.15 11.214 0 6.208 4.941 11.213 11.15 11.213m36.555-28.066c9.312 0 16.155 7.16 16.155 16.789v2.09H83.878c.887 5.259 5.259 9.187 10.707 9.187 3.738 0 6.905-1.52 9.313-4.752l4.625 3.422c-3.232 4.307-8.046 6.905-13.938 6.905-9.693 0-17.169-7.222-17.169-16.852 0-9.123 7.159-16.789 16.599-16.789m-10.01 13.812h19.703c-1.077-4.942-5.068-8.236-9.82-8.236-4.751 0-8.743 3.294-9.883 8.236m43.335-7.476c-4.182 0-7.223 3.231-7.223 8.236v18.372h-6.398v-32.31h6.335v3.992c1.584-2.598 4.181-4.245 7.729-4.245H130v5.955z"/></svg>