<svg width="135" height="56" viewBox="0 0 135 56" fill="none" xmlns="http://www.w3.org/2000/svg">
<path d="M81.3077 32.2163L71.6356 19.6841H69.2339V36.5175H71.7229V23.6359L81.8535 36.5175H83.9932V19.6841H81.4387V32.2382H81.3077V32.2163ZM56.8545 29.0505H65.5878V26.8454H56.8545V21.7582H66.7013V19.5749H54.3655V36.452H66.7668V34.2468H56.8545V29.0505ZM46.6584 26.9545C43.2742 26.103 42.3354 25.4699 42.3354 23.9197C42.3354 22.3696 43.6236 21.5181 45.4576 21.5181C47.1169 21.6054 48.7107 22.1731 50.0425 23.1774L51.3307 21.3434C49.6714 20.0116 47.5754 19.2911 45.4357 19.3129C42.6848 18.9417 40.1739 20.8631 39.8028 23.614C39.8028 23.6577 39.7809 23.7014 39.7809 23.745V24.1162C39.7809 26.889 41.7896 28.1772 45.3921 29.0942C48.5142 29.8365 49.4312 30.4697 49.4312 32.0417C49.4312 33.6137 48.1431 34.5306 46.1126 34.5306C44.1039 34.5306 42.1608 33.7665 40.6979 32.391L39.2351 34.1377C41.1346 35.8188 43.6017 36.6921 46.1344 36.6266C49.715 36.6266 52.0294 34.5961 52.0294 31.6487C51.942 29.1597 50.37 27.7842 46.5929 26.9545H46.6584ZM128.293 19.6841L123.206 27.6095L118.118 19.6841H115.258L121.874 29.8147V36.4738H124.363V29.8147L131 19.6841H128.293ZM85.6961 21.8892H91.2199V36.4738H93.7089V21.8892H99.2764V19.5967H85.6961V21.8892ZM110.913 29.902C113.337 29.4435 115.062 27.282 114.953 24.8149C114.953 21.6054 112.551 19.5749 108.774 19.5749H101.241V36.4738H103.73V30.3605H107.966L112.202 36.4301H115.149L110.542 29.9893L110.913 29.902ZM103.774 28.2427V21.8892H108.468C110.957 21.8892 112.333 23.0027 112.333 25.0114C112.333 27.02 110.87 28.2427 108.468 28.2427H103.774Z" fill="#8C8C8E"/>
<path d="M18.9957 15.0773C18.166 13.6363 16.3321 13.1341 14.8911 13.9638L14.8692 13.9856C14.4107 14.2694 14.0396 14.6406 13.7557 15.0991L9.5201 22.4569L10.6336 23.1119C16.7687 26.627 20.6769 33.0241 21.0262 40.0763H17.9914C17.5765 34.1158 14.2361 28.7667 9.0616 25.7755L7.9481 25.1205L3.88713 31.9107L5.00062 32.5656C7.66427 34.1376 9.47643 36.845 9.86943 39.9234H3.10114C2.83914 39.9453 2.59897 39.7488 2.55531 39.4868C2.53347 39.3776 2.57714 39.2903 2.64264 39.2029L4.56396 35.8843C3.90896 35.3166 3.16664 34.88 2.35881 34.5961L0.415654 37.9148C-0.435841 39.3558 0.0663228 41.2116 1.50731 42.0631H1.52915C1.98764 42.3251 2.48981 42.4561 3.0138 42.4343H12.4894V41.1461C12.4676 37.1506 10.5463 33.3953 7.33678 31.0155L8.7996 28.461C12.9916 31.343 15.5024 36.1026 15.5242 41.1898V42.4124H23.6243V41.1243C23.5807 33.1988 19.5634 25.7974 12.9479 21.4307L15.9827 16.1908C16.1574 15.9506 16.4631 15.8633 16.725 15.9943C16.8124 15.9943 16.8124 16.0816 16.9215 16.1908L30.1743 39.0938C30.2835 39.3339 30.1961 39.5959 29.9778 39.7488C29.8905 39.7488 29.7813 39.8361 29.7158 39.8361H26.4845V42.3251H29.6066C31.266 42.3033 32.6196 40.9496 32.6414 39.2903C32.6633 38.7663 32.5323 38.2641 32.2703 37.8274L18.9957 15.0773Z" fill="#8C8C8E"/>
</svg>
