<svg width="270" height="112" viewBox="0 0 270 112" fill="none" xmlns="http://www.w3.org/2000/svg">
<path d="M31.8816 26.507L9 78.208L12.9181 79.9314L35.7997 28.3087L31.8816 26.507Z" fill="#7BF798"/>
<path d="M238.599 54.1591C238.599 54.1591 241.146 49.5765 246.436 49.5765C251.725 49.5765 255.212 53.8458 255.212 59.0551C255.212 64.2643 251.803 68.5336 246.436 68.5336C241.146 68.5336 238.599 63.951 238.599 63.951V54.1591ZM247.141 45.0723C241.264 45.0723 238.56 49.0282 238.56 49.0282V28.8569H233.741V72.2937H238.169V68.4552C238.169 68.4552 240.754 72.9987 247.141 72.9987C254.311 72.9987 260.031 66.8494 260.031 59.0159C260.031 51.2216 254.35 45.0723 247.141 45.0723ZM212.701 72.9987C216.071 72.9987 219.205 71.1578 220.851 68.2202V72.2937H225.317V45.7381H220.498V64.1468C220.498 64.1468 218.382 68.4944 213.876 68.4944C210.311 68.4944 207.49 66.536 207.49 61.9926V45.7381H202.671V62.8151C202.71 69.3561 207.412 72.9987 212.701 72.9987ZM185.353 45.0723C182.257 44.9939 179.319 46.4823 177.517 48.989V28.8961H172.697V72.2937H177.517V54.0416C177.517 54.0416 179.828 49.5765 184.138 49.5765C187.704 49.5765 190.525 51.5349 190.525 56.0783V72.3328H195.344V55.2558C195.344 48.6757 190.642 45.0723 185.353 45.0723ZM155.144 45.0723C151.775 45.0723 148.68 46.9915 147.23 50.0074C147.23 50.0074 145.584 45.0723 138.963 45.0723C135.828 45.0723 132.968 46.8348 131.597 49.6549V45.7381H127.13V72.2937H131.949V53.8066C131.949 53.8066 133.752 49.5374 137.631 49.5374C141.118 49.5374 143.312 51.6524 143.312 55.9608V72.2545H148.131V53.7675C148.131 53.7675 149.855 49.4982 153.812 49.4982C157.299 49.4982 159.493 51.6132 159.493 55.9217V72.2153H164.313V55.1383C164.352 48.6757 160.669 45.0723 155.144 45.0723ZM107.109 72.9987C110.478 72.9987 113.613 71.1578 115.258 68.2202V72.2937H119.725V45.7381H114.906V64.1468C114.906 64.1468 112.79 68.4944 108.284 68.4944C104.719 68.4944 101.898 66.536 101.898 61.9926V45.7381H97.0784V62.8151C97.0784 69.3561 101.819 72.9987 107.109 72.9987ZM83.1692 37.2388C83.1692 39.0405 84.6189 40.5289 86.4604 40.5289C88.3019 40.5289 89.7516 39.0796 89.7516 37.2388C89.7516 35.4371 88.3019 33.9487 86.4604 33.9487C84.6581 33.9879 83.2084 35.4371 83.1692 37.2388ZM84.0312 72.2937H88.8504V45.7381H84.0312V72.2937ZM56.2128 54.0808C56.2128 54.0808 58.7204 49.5374 64.0489 49.5374C69.4559 49.5374 72.8255 53.8066 72.8255 59.0159C72.8255 64.2643 69.4167 68.4944 64.0489 68.4944C58.7595 68.4944 56.2128 63.951 56.2128 63.951V54.0808ZM51.3544 45.7381V85.4931H56.1737V69.0036C58.2502 71.5886 61.4238 73.0378 64.7542 72.9595C71.9243 72.9595 77.6448 66.8102 77.6448 58.9767C77.6448 51.1432 71.9635 44.9939 64.7542 44.9939C58.4461 44.9939 55.7818 49.5374 55.7818 49.5374V45.6989L51.3544 45.7381ZM32.2734 46.7956L36.1522 56.7833H27.8851L25.8477 61.4051H37.9154L42.1861 72.2937H47.2404L34.9377 40.803L32.2734 46.7956Z" fill="#272727"/>
</svg>
