<svg xmlns="http://www.w3.org/2000/svg" width="1807" height="1462" fill="none"><path stroke="#19191C" stroke-opacity=".2" d="M565.409 988.5h-97a2 2 0 0 1-2-2V810a2 2 0 0 1 2-2h44.86c2.17 0 2.787-2.972.796-3.835l-46.452-20.143a2 2 0 0 1-1.204-1.835V648.5a2 2 0 0 1 2-2h90a2 2 0 0 1 2 2v211.028c0 .31-.073.617-.212.894l-8.577 17.156a2 2 0 0 0-.211.894V905a2 2 0 0 0 2 2h44.5m-16.5-216.5V649a2 2 0 0 1 2-2h89a2 2 0 0 0 2-2V544.5a2 2 0 0 0-2-2h-24.5a2 2 0 0 0-2 2v71a2 2 0 0 1-2 2h-81a2 2 0 0 1-2-2V370a2 2 0 0 1 2-2h81a2 2 0 0 1 2 2v113.5a2 2 0 0 0 2 2h24.5a2 2 0 0 0 2-2V370a2 2 0 0 1 2-2h80.5a2 2 0 0 1 2 2v42.5a2 2 0 0 0 2 2h632.001c1.1 0 2 .895 2 2V682c0 1.105.89 2 2 2h142.5c1.1 0 2 .895 2 2v346.5c0 1.1-.9 2-2 2h-142a2 2 0 0 0-2 2v53.5c0 1.1-.9 2-2 2h-247.5a2 2 0 0 1-2-2V937.5c0-1.105-.9-2-2-2h-25.5c-1.11 0-2 .895-2 2v265c0 1.1-.9 2-2 2h-29a2 2 0 0 1-2-2V936.844c0-.813-.48-1.543-1.24-1.825-9.34-3.452-34.63-9.519-71.26-9.519-38.401 0-65.335 6.667-74.001 10m-654-125.5a2 2 0 0 1 2-2h120a2 2 0 0 1 2 2v98.741a2 2 0 0 1-.066.51l-19.042 72.259a2 2 0 0 1-1.934 1.49H264.004a2 2 0 0 1-1.934-2.51l18.773-71.239a2 2 0 0 0 .066-.51z"/><path stroke="#A3A3A4" stroke-linejoin="round" stroke-width="3" d="M934.862 1078.2V925.653H824.014V814.434h62.033V751.45h-80.006l.047-31.886h-31.747M575.139 1178.01c.162 6.12.255 12.33.255 18.64 0 44.92-4.337 85.73-11.41 116.02-.185.84.487 1.62 1.345 1.55 56.329-4.56 119.707-7.11 186.68-7.11s130.351 2.55 186.679 7.11c.858.07 1.531-.71 1.345-1.55-7.073-30.29-11.409-71.1-11.409-116.02s.093-13.05.278-19.41M595.314 1060.9v19.57m0-41.14v12.34m19.827-178.078L558.906 986.04l36.408 13.427v30.563M721.56 929.827l28.13 56.213-14.239 5.241m-44.339-83.67c6.122-2.296 11.27-5.148 15.12-8.418l-12.801-25.601"/><path stroke="#A3A3A4" stroke-linejoin="round" stroke-width="3" d="M602.341 899.193c3.849 3.247 9.02 6.123 15.119 8.418m59.947-20.662v-13.45h-46.218v13.45m0 9.717v14.818c7.096 1.438 14.911 2.226 23.097 2.226s16.001-.788 23.097-2.226v-14.818m-82.069 102.847h60.364m168.336-203.19v-9.392h62.033m-62.033 27.503v-9.392"/><path stroke="#E8E8E8" stroke-width="20" d="M1416.91 1456v-284l244.59-117h116.41m-30 401V12M439.909 1456V12m591.001 1444v-379.5m630-20.5V656.5M738.909 124V12m628.001 279.5V12M438.909 257.5l301.5-137L1106.41 292m671.5 1134H5.909M1777.91 42H5.909"/><path stroke="#E8E8E8" stroke-width="20" d="M1777.91 290h-670.5l-238.501 50.5-863-172.5m28-155 160 1444m247.5-335.5h-205.5V550h205.5"/><path stroke="#E8E8E8" stroke-width="20" d="M1463.91 289.5v273l196.09 91h117.91"/><path fill="#19191C" d="M962.393 45.976q1.169 0 2.12-.592.953-.6 1.496-1.648.544-1.048.544-2.336t-.544-2.336a4.1 4.1 0 0 0-1.496-1.64q-.951-.6-2.12-.6-1.167 0-2.12.6a4.13 4.13 0 0 0-1.496 1.64q-.543 1.048-.544 2.336 0 1.288.544 2.336a4.2 4.2 0 0 0 1.496 1.648 3.94 3.94 0 0 0 2.12.592m0 1.216q-1.56 0-2.824-.752a5.46 5.46 0 0 1-1.992-2.08q-.72-1.328-.72-2.96t.72-2.952a5.4 5.4 0 0 1 1.992-2.08q1.264-.76 2.824-.76t2.824.76a5.3 5.3 0 0 1 1.984 2.08q.728 1.32.728 2.952t-.728 2.96a5.4 5.4 0 0 1-1.984 2.08q-1.264.752-2.824.752m4.24-11.88-7.504 12.728-.976-.552 7.504-12.728zm3.46 3.496h1.28v2.744l-.536.8q.033-1.104.4-1.92.377-.824 1.04-1.264.665-.44 1.544-.44h.288v1.336h-.336q-.728 0-1.272.28a2 2 0 0 0-.84.8q-.288.512-.288 1.208V47h-1.28zm9.133 8.384a4.05 4.05 0 0 1-2.096-.552 3.9 3.9 0 0 1-1.472-1.536q-.537-.984-.536-2.216 0-1.2.544-2.176a4 4 0 0 1 1.48-1.536 4 4 0 0 1 2.08-.56q1.167 0 2.072.544a3.7 3.7 0 0 1 1.408 1.512q.504.976.504 2.232v.288h-6.816l.016-.328q.008.952.36 1.672.36.713.992 1.104.631.392 1.464.392.744 0 1.32-.288.575-.288.944-.824h1.424q-.304.705-.84 1.216a3.7 3.7 0 0 1-1.256.784 4.5 4.5 0 0 1-1.592.272m-2.832-5.016h5.536v.712q0-.92-.344-1.624a2.6 2.6 0 0 0-.952-1.104 2.57 2.57 0 0 0-1.408-.392q-.825 0-1.464.384-.64.384-1 1.08-.352.696-.352 1.6zm11.552 5.016q-.943 0-1.68-.296-.736-.304-1.168-.856a2.3 2.3 0 0 1-.48-1.288h1.28q.048.408.32.712t.712.472 1 .168.992-.176q.44-.176.68-.488.24-.32.24-.728 0-.288-.128-.528a1.05 1.05 0 0 0-.352-.4 1.3 1.3 0 0 0-.544-.216l-1.768-.328a3.2 3.2 0 0 1-1.144-.432 2.3 2.3 0 0 1-.744-.784 2.1 2.1 0 0 1-.256-1.032q0-.672.368-1.208a2.5 2.5 0 0 1 1.032-.856q.672-.312 1.536-.312.888 0 1.56.288.672.28 1.056.816.392.527.448 1.256h-1.28a1.3 1.3 0 0 0-.288-.68 1.55 1.55 0 0 0-.632-.456 2.2 2.2 0 0 0-.864-.16q-.496 0-.88.168a1.3 1.3 0 0 0-.592.464 1.15 1.15 0 0 0-.208.68q0 .288.12.504.127.208.384.352.264.144.68.224l1.752.328q.624.12 1.072.448.456.32.688.808.24.48.24 1.056 0 .712-.416 1.28-.408.569-1.128.888a4 4 0 0 1-1.608.312m7.787-.192q-.584 0-1.064-.248a1.94 1.94 0 0 1-.744-.696 1.87 1.87 0 0 1-.272-.992l-.008-5.12h-1.44l.008-1.136h.888a.65.65 0 0 0 .488-.192.66.66 0 0 0 .192-.488v-1.32h1.152v2h2.216l-.008 1.136h-2.216l.008 5.04q0 .375.248.632.255.248.632.248h1.328V47zm6.237-8.384c.63 0 1.18.117 1.64.352.46.23.82.56 1.06.992.25.432.38.944.38 1.536V47h-1.27v-3.064h.48c0 .65-.12 1.224-.38 1.72-.25.49-.61.87-1.07 1.136q-.705.4-1.62.4-.779 0-1.414-.304a2.4 2.4 0 0 1-.976-.84 2.15 2.15 0 0 1-.352-1.208q0-.648.336-1.2t.928-.904a3.3 3.3 0 0 1 1.338-.432l2.14-.24a.63.63 0 0 0 .43-.216c.11-.128.17-.317.2-.568l.04 1.68-2.63.288c-.28.032-.53.12-.76.264q-.33.208-.51.544a1.44 1.44 0 0 0-.184.72q0 .4.216.712.222.304.598.472.39.168.9.168c.44 0 .83-.09 1.18-.272q.525-.28.81-.776c.19-.33.29-.712.29-1.144v-2.6c0-.325-.08-.608-.23-.848-.14-.24-.35-.424-.62-.552-.27-.133-.59-.2-.95-.2-.37 0-.7.059-.98.176q-.42.168-.66.456a1.26 1.26 0 0 0-.31.616h-1.284q.104-.664.528-1.2a2.96 2.96 0 0 1 1.126-.856c.47-.208.99-.312 1.58-.312m11.85-2.816h1.28V47h-1.28zm-3.02 11.392q-1.14 0-2.04-.536c-.59-.363-1.05-.87-1.39-1.52-.33-.65-.5-1.395-.5-2.232s.17-1.581.5-2.232c.34-.65.8-1.155 1.39-1.512q.9-.544 2.04-.544c.71 0 1.33.157 1.87.472.53.31.95.747 1.25 1.312.31.56.46 1.21.47 1.952h-.52v1.104h.52c-.01.741-.16 1.395-.47 1.96-.3.56-.72.997-1.25 1.312-.54.31-1.16.464-1.87.464m.2-1.16q.825 0 1.47-.392.63-.4.99-1.104.36-.712.36-1.632t-.36-1.624a2.7 2.7 0 0 0-.99-1.104q-.645-.4-1.47-.4c-.54 0-1.03.133-1.45.4-.42.261-.75.63-.98 1.104-.24.47-.35 1.01-.35 1.624 0 .613.11 1.157.35 1.632.23.47.56.837.98 1.104.42.261.91.392 1.45.392m9.48 1.16q-.945 0-1.68-.296-.735-.304-1.17-.856a2.25 2.25 0 0 1-.48-1.288h1.28c.03.272.14.51.32.712.18.203.42.36.71.472.3.112.63.168 1 .168.38 0 .71-.059 1-.176s.52-.28.68-.488a1.18 1.18 0 0 0 .11-1.256 1.1 1.1 0 0 0-.35-.4 1.4 1.4 0 0 0-.55-.216l-1.77-.328c-.43-.08-.82-.224-1.14-.432a2.25 2.25 0 0 1-.74-.784c-.18-.31-.26-.653-.26-1.032 0-.448.12-.85.37-1.208.24-.363.59-.648 1.03-.856.45-.208.96-.312 1.54-.312q.885 0 1.56.288c.44.187.8.459 1.05.816q.39.527.45 1.256h-1.28a1.27 1.27 0 0 0-.29-.68 1.55 1.55 0 0 0-.63-.456 2.2 2.2 0 0 0-.86-.16c-.34 0-.63.056-.88.168a1.3 1.3 0 0 0-.6.464c-.14.197-.2.424-.2.68q0 .288.12.504a1 1 0 0 0 .38.352c.18.096.4.17.68.224l1.75.328c.42.08.77.23 1.07.448q.465.32.69.808.24.48.24 1.056c0 .475-.14.901-.41 1.28a2.76 2.76 0 0 1-1.13.888 4 4 0 0 1-1.61.312m14.64-11.392c.66 0 1.24.125 1.75.376.52.25.92.597 1.21 1.04s.43.944.43 1.504c0 .507-.11.955-.35 1.344a2.33 2.33 0 0 1-.97.896q-.63.32-1.44.32v-.256c.59 0 1.12.123 1.58.368q.69.368 1.08 1.024.39.655.39 1.48 0 .896-.45 1.608c-.31.47-.73.837-1.28 1.104-.54.261-1.16.392-1.85.392h-4.63V35.8zm-3.22 10h3.32c.43 0 .81-.08 1.15-.24.34-.165.59-.395.78-.688.18-.299.28-.643.28-1.032 0-.384-.1-.728-.28-1.032a1.87 1.87 0 0 0-.79-.704q-.495-.255-1.14-.256h-3.32zm3.22-5.12c.4 0 .75-.075 1.06-.224.3-.15.54-.363.7-.64.17-.277.26-.6.26-.968s-.09-.69-.26-.968c-.16-.277-.4-.493-.71-.648a2.26 2.26 0 0 0-1.05-.232h-3.22v3.68zm6.12-4.88h1.28V47h-1.28zm3.04 3.008h1.39l2.5 6.472 2.41-6.472h1.37L1048.72 47h-1.2zm15.53-3.008h1.28V47h-1.28zm-3.01 11.392q-1.155 0-2.04-.536c-.6-.363-1.06-.87-1.4-1.52-.33-.65-.49-1.395-.49-2.232s.16-1.581.49-2.232c.34-.65.8-1.155 1.4-1.512q.885-.544 2.04-.544 1.05 0 1.86.472.81.465 1.26 1.312c.3.56.46 1.21.47 1.952h-.53v1.104h.53c-.01.741-.17 1.395-.47 1.96q-.45.84-1.26 1.312-.81.464-1.86.464m.2-1.16c.55 0 1.03-.13 1.46-.392q.645-.4.99-1.104.36-.712.36-1.632t-.36-1.624a2.57 2.57 0 0 0-.99-1.104c-.43-.267-.91-.4-1.46-.4s-1.03.133-1.45.4q-.63.392-.99 1.104c-.23.47-.35 1.01-.35 1.624 0 .613.12 1.157.35 1.632q.36.704.99 1.104c.42.261.9.392 1.45.392m6.8-.824h1.79V47h-1.79zM807.319 1432.19q-1.553 0-2.808-.75a5.43 5.43 0 0 1-1.976-2.08c-.475-.89-.712-1.87-.712-2.96s.237-2.07.712-2.95a5.3 5.3 0 0 1 1.976-2.08c.837-.51 1.773-.76 2.808-.76q1.263 0 2.32.45a5.1 5.1 0 0 1 1.792 1.29c.49.55.84 1.19 1.048 1.91h-1.44a3.65 3.65 0 0 0-2.088-2.13 4.2 4.2 0 0 0-1.592-.31q-1.169 0-2.12.6a4.2 4.2 0 0 0-1.496 1.64q-.544 1.05-.544 2.34t.544 2.34a4.2 4.2 0 0 0 1.496 1.64q.951.6 2.12.6.855 0 1.592-.3c.496-.2.922-.49 1.28-.86.357-.36.626-.79.808-1.28h1.44a5 5 0 0 1-1.048 1.92c-.486.55-1.083.97-1.792 1.28a5.9 5.9 0 0 1-2.32.45m10.743 0c-.774 0-1.472-.18-2.096-.55a3.9 3.9 0 0 1-1.472-1.54c-.358-.65-.536-1.39-.536-2.21 0-.8.181-1.53.544-2.18.362-.65.856-1.17 1.48-1.53a3.94 3.94 0 0 1 2.08-.56q1.167 0 2.072.54c.602.36 1.072.86 1.408 1.51s.504 1.4.504 2.23v.29h-6.816l.016-.33q.007.96.36 1.68c.24.47.57.84.992 1.1q.631.39 1.464.39c.496 0 .936-.09 1.32-.29.384-.19.698-.46.944-.82h1.424c-.203.47-.483.87-.84 1.22q-.528.495-1.256.78-.728.27-1.592.27m-2.832-5.01h5.536v.71c0-.62-.115-1.16-.344-1.63a2.6 2.6 0 0 0-.952-1.1q-.616-.39-1.408-.39c-.55 0-1.038.13-1.464.38q-.64.39-1 1.08c-.235.47-.352 1-.352 1.6zm8.88-3.37h1.232v3.54h-.512c0-.76.131-1.41.392-1.97.261-.57.635-1 1.12-1.31q.728-.45 1.712-.45c.587 0 1.107.12 1.56.37q.68.375 1.064 1.11c.261.49.392 1.07.392 1.76v5.14h-1.28v-5.02c0-.47-.085-.88-.256-1.21a1.75 1.75 0 0 0-.712-.77c-.309-.18-.677-.26-1.104-.26q-.688 0-1.216.3c-.352.2-.627.49-.824.86-.192.36-.288.77-.288 1.24v4.86h-1.28zm12.162 8.19c-.39 0-.744-.08-1.064-.25a1.95 1.95 0 0 1-.744-.69c-.182-.3-.272-.63-.272-1l-.008-5.12h-1.44l.008-1.13h.888c.202 0 .365-.07.488-.19a.67.67 0 0 0 .192-.49v-1.32h1.152v2h2.216l-.008 1.13h-2.216l.008 5.04c0 .25.082.47.248.64q.255.24.632.24h1.328v1.14zm6.803.19c-.774 0-1.472-.18-2.096-.55a3.9 3.9 0 0 1-1.472-1.54c-.358-.65-.536-1.39-.536-2.21 0-.8.181-1.53.544-2.18.362-.65.856-1.17 1.48-1.53a3.94 3.94 0 0 1 2.08-.56q1.167 0 2.072.54c.602.36 1.072.86 1.408 1.51s.504 1.4.504 2.23v.29h-6.816l.016-.33q.007.96.36 1.68c.24.47.57.84.992 1.1q.632.39 1.464.39c.496 0 .936-.09 1.32-.29.384-.19.698-.46.944-.82h1.424c-.203.47-.483.87-.84 1.22q-.528.495-1.256.78-.728.27-1.592.27m-2.832-5.01h5.536v.71c0-.62-.115-1.16-.344-1.63a2.6 2.6 0 0 0-.952-1.1q-.616-.39-1.408-.39c-.55 0-1.038.13-1.464.38q-.64.39-1 1.08c-.235.47-.352 1-.352 1.6zm8.88-3.37h1.28v2.74l-.536.8q.032-1.095.4-1.92.376-.825 1.04-1.26c.443-.3.957-.44 1.544-.44h.288v1.33h-.336c-.485 0-.909.1-1.272.28-.363.19-.643.46-.84.8-.192.35-.288.75-.288 1.21v4.65h-1.28zm15.034-3.01c.656 0 1.24.13 1.752.38.517.25.92.59 1.208 1.04q.432.66.432 1.5c0 .51-.118.95-.352 1.34q-.345.585-.976.9c-.416.21-.896.32-1.44.32v-.26c.592 0 1.12.13 1.584.37.464.25.824.59 1.08 1.03.261.43.392.93.392 1.48 0 .59-.152 1.13-.456 1.6q-.456.705-1.272 1.11-.816.39-1.856.39h-4.624v-11.2zm-3.224 10h3.32q.648 0 1.152-.24c.336-.17.594-.39.776-.69.186-.3.28-.64.28-1.03 0-.38-.094-.73-.28-1.03a1.87 1.87 0 0 0-.784-.71c-.331-.17-.712-.25-1.144-.25h-3.32zm3.224-5.12c.4 0 .752-.07 1.056-.22s.538-.37.704-.64c.17-.28.256-.6.256-.97s-.086-.69-.256-.97a1.7 1.7 0 0 0-.712-.65 2.34 2.34 0 0 0-1.048-.23h-3.224v3.68zm6.115-4.88h1.28v11.2h-1.28zm3.047 3.01h1.384l2.504 6.47 2.408-6.47h1.368l-3.224 8.19h-1.2zm15.528-3.01h1.28v11.2h-1.28zm-3.016 11.39c-.762 0-1.442-.18-2.04-.53a3.8 3.8 0 0 1-1.392-1.52c-.33-.65-.496-1.4-.496-2.24 0-.83.166-1.58.496-2.23.336-.65.8-1.15 1.392-1.51q.897-.54 2.04-.54c.704 0 1.326.15 1.864.47.539.31.958.74 1.256 1.31q.457.84.472 1.95h-.528v1.11h.528c-.01.74-.168 1.39-.472 1.96-.298.56-.717.99-1.256 1.31-.538.31-1.16.46-1.864.46m.2-1.16q.825 0 1.464-.39c.427-.27.758-.63.992-1.1.24-.48.36-1.02.36-1.64q0-.915-.36-1.62a2.63 2.63 0 0 0-.992-1.1c-.426-.27-.914-.4-1.464-.4-.544 0-1.026.13-1.448.4-.421.26-.749.63-.984 1.1q-.352.705-.352 1.62c0 .62.118 1.16.352 1.64.235.47.563.83.984 1.1q.632.39 1.448.39m6.806-.82h1.792v1.79h-1.792zm861.353-346.83c0 1.04-.25 1.97-.75 2.81-.51.84-1.2 1.5-2.08 1.98-.89.47-1.87.71-2.96.71s-2.07-.24-2.95-.71a5.3 5.3 0 0 1-2.08-1.98c-.51-.84-.76-1.77-.76-2.81 0-.84.15-1.61.45-2.32.31-.71.74-1.3 1.29-1.79a4.9 4.9 0 0 1 1.91-1.05v1.44c-.49.18-.92.45-1.28.81-.37.36-.65.78-.85 1.28-.2.49-.31 1.02-.31 1.59 0 .78.2 1.49.6 2.12.4.64.95 1.14 1.64 1.5q1.05.54 2.34.54t2.34-.54c.69-.36 1.24-.86 1.64-1.5.4-.63.6-1.34.6-2.12q0-.855-.3-1.59c-.2-.5-.49-.92-.86-1.28-.36-.36-.79-.63-1.28-.81v-1.44q1.08.315 1.92 1.05c.55.49.97 1.08 1.28 1.79.3.71.45 1.48.45 2.32m-1.98-6.72v-1.79h1.79v1.79zm-9.41-4.71v-7.18h1.25v5.86h3.86v-5.54h1.25v5.54h4.84v1.32zm9.41-8.6v-1.79h1.79v1.79zm-9.41-9.41v-1.66l8.98-4.01.56-.21-.56-.2-8.98-3.94v-1.69h11.2v1.33h-9.06l9.06 3.96v1.11l-9.01 3.99h9.01v1.32zm2.61-21.54.64-.82 8.35 7.31-.72.82zm8.78 3.28c0 .77-.18 1.48-.55 2.12a4.06 4.06 0 0 1-1.54 1.51c-.65.36-1.39.54-2.2.54q-1.215 0-2.19-.54c-.65-.37-1.17-.87-1.53-1.51-.38-.64-.56-1.35-.56-2.13s.18-1.49.56-2.12c.36-.64.87-1.14 1.52-1.5.65-.37 1.39-.55 2.2-.55.82 0 1.55.18 2.2.55.65.36 1.17.86 1.54 1.5.37.63.55 1.34.55 2.13m-1.17-.02q0-.795-.39-1.44a2.73 2.73 0 0 0-1.09-1.01c-.48-.24-1.02-.37-1.64-.37-.61 0-1.15.13-1.63.37-.47.25-.84.59-1.1 1.02q-.39.63-.39 1.44c0 .53.13 1.01.39 1.45.26.43.63.77 1.1 1.02.48.24 1.02.37 1.63.37.62 0 1.16-.13 1.64-.37.47-.25.83-.59 1.09-1.02.26-.44.39-.93.39-1.46m-10.22-6.48v-1.28h11.2v1.28zm0-4.25v-1.28h11.2v1.28zm11.39-7.58c0 .78-.18 1.48-.55 2.1s-.88 1.11-1.54 1.47c-.65.36-1.39.54-2.21.54-.8 0-1.53-.18-2.18-.55-.65-.36-1.17-.85-1.53-1.48-.38-.63-.56-1.32-.56-2.08 0-.77.18-1.47.54-2.07s.86-1.07 1.51-1.41c.65-.33 1.4-.5 2.23-.5h.29v6.82l-.33-.02q.96-.015 1.68-.36c.47-.24.84-.57 1.1-.99q.39-.63.39-1.47c0-.49-.09-.93-.29-1.32-.19-.38-.46-.69-.82-.94v-1.42c.47.2.87.48 1.22.84.33.35.59.77.78 1.25q.27.735.27 1.59m-5.01 2.84v-5.54h.71c-.62 0-1.16.11-1.63.34s-.84.55-1.1.96-.39.88-.39 1.4c0 .55.13 1.04.38 1.47.26.42.62.76 1.08 1 .47.23 1 .35 1.6.35zm-3.37-8.88v-1.28h2.74l.8.53c-.73-.02-1.37-.15-1.92-.4s-.97-.6-1.26-1.04c-.3-.44-.44-.96-.44-1.54v-.29h1.33v.34c0 .48.1.91.28 1.27.19.36.46.64.8.84.35.19.75.29 1.21.29h4.65v1.28zm8.38-8.43c0 .63-.1 1.19-.29 1.68-.21.49-.49.88-.86 1.17q-.555.435-1.29.48v-1.28c.27-.03.51-.14.71-.32.21-.18.36-.42.48-.71.11-.3.16-.63.16-1 0-.38-.05-.71-.17-1s-.28-.52-.49-.68a1.19 1.19 0 0 0-1.26-.11c-.16.08-.29.2-.4.35-.1.15-.17.33-.21.55l-.33 1.77c-.08.43-.22.81-.43 1.14-.22.32-.48.57-.79.74a2.1 2.1 0 0 1-1.03.26c-.45 0-.85-.12-1.21-.37-.36-.24-.64-.59-.85-1.03-.21-.45-.31-.96-.31-1.54 0-.59.09-1.11.28-1.56.19-.44.46-.8.82-1.05q.525-.392 1.26-.451v1.281c-.27.03-.49.13-.68.29-.2.16-.35.37-.46.63s-.16.54-.16.86c0 .33.06.63.17.88.1.26.26.46.46.6.2.13.43.2.68.2q.285 0 .51-.12c.13-.08.25-.21.35-.38.09-.18.17-.4.22-.68l.33-1.75c.08-.42.23-.78.45-1.07q.315-.464.81-.693.48-.24 1.05-.24c.48 0 .9.139 1.28.413.38.28.68.65.89 1.13s.31 1.02.31 1.61m-11.39-12.832v-1.432l11.2-4.304v1.408l-2.98 1.08v4.952l2.98 1.008v1.44zm7.07-2.816-5.21 1.912-.68.192.68.192 5.21 1.816zm-7.07-4.736v-1.28h11.2v1.28zm0-4.254v-1.28h11.2v1.28zm11.39-7.575c0 .774-.18 1.472-.55 2.096a3.9 3.9 0 0 1-1.54 1.472c-.65.358-1.39.536-2.21.536-.8 0-1.53-.181-2.18-.544a3.95 3.95 0 0 1-1.53-1.48 3.94 3.94 0 0 1-.56-2.08q0-1.167.54-2.072c.36-.602.86-1.072 1.51-1.408s1.4-.504 2.23-.504h.29v6.816l-.33-.016q.96-.008 1.68-.36c.47-.24.84-.57 1.1-.992q.39-.631.39-1.464c0-.496-.09-.936-.29-1.32a2.4 2.4 0 0 0-.82-.944v-1.424c.47.203.87.483 1.22.84q.495.528.78 1.256.27.728.27 1.592m-5.01 2.832v-5.536h.71c-.62 0-1.16.115-1.63.344-.47.224-.84.542-1.1.952q-.39.616-.39 1.408c0 .55.13 1.038.38 1.464q.39.64 1.08 1c.47.235 1 .352 1.6.352zm-4.48-3.288v1.168l-2.1-1.128v-1.352zM433.8 633.069v-1.656l8.976-4.016.568-.208-.568-.2-8.976-3.944v-1.688H445v1.328h-9.056l9.056 3.96v1.112l-9.008 3.992H445v1.32zm2.816-17.505q0-.952.352-1.64.344-.696.992-1.064.648-.376 1.536-.376H445v1.264h-3.064v-.48q.976 0 1.72.384.736.376 1.136 1.072t.4 1.616q0 .785-.304 1.416a2.4 2.4 0 0 1-.84.976q-.536.352-1.208.352-.648 0-1.2-.336a2.65 2.65 0 0 1-.904-.928 3.25 3.25 0 0 1-.432-1.336l-.24-2.144a.65.65 0 0 0-.216-.432q-.192-.16-.568-.192l1.68-.048.288 2.632q.048.424.264.76.208.328.544.512.328.184.72.184.4 0 .712-.216.304-.216.472-.6.168-.392.168-.896a2.5 2.5 0 0 0-.272-1.184 2 2 0 0 0-.776-.808 2.24 2.24 0 0 0-1.144-.288h-2.6q-.488 0-.848.224-.36.216-.552.624-.2.408-.2.952 0 .552.176.976.168.416.456.664.288.247.616.312v1.28a2.53 2.53 0 0 1-1.2-.528 2.95 2.95 0 0 1-.856-1.128q-.312-.696-.312-1.576m.192-5.554v-1.28h2.744l.8.536q-1.104-.032-1.92-.4-.824-.376-1.264-1.04t-.44-1.544v-.288h1.336v.336q0 .728.28 1.272.28.545.8.84.512.288 1.208.288H445v1.28zM445 602.4q0 .6-.208 1.032a1.55 1.55 0 0 1-.616.664 1.9 1.9 0 0 1-.952.224h-8.464v-1.28h2.048v-2.216l1.136.008v2.216l5.2-.008q.336 0 .528-.192t.192-.528v-1.488H445zm-11.2-3.586v-1.232h6.552v.512q-1.136 0-1.976-.392-.848-.393-1.304-1.12t-.456-1.712q0-.88.376-1.56a2.6 2.6 0 0 1 1.112-1.064q.728-.392 1.752-.392H445v1.28h-5.016q-.712 0-1.216.256a1.74 1.74 0 0 0-.768.712q-.264.463-.264 1.104 0 .688.304 1.216t.856.824q.545.288 1.248.288H445v1.28zm2.816-12.33q0-.952.352-1.64.344-.696.992-1.064.648-.376 1.536-.376H445v1.264h-3.064v-.48q.976 0 1.72.384.736.376 1.136 1.072t.4 1.616q0 .784-.304 1.416a2.4 2.4 0 0 1-.84.976q-.536.352-1.208.352-.648 0-1.2-.336a2.65 2.65 0 0 1-.904-.928 3.25 3.25 0 0 1-.432-1.336l-.24-2.144a.65.65 0 0 0-.216-.432q-.192-.16-.568-.192l1.68-.048.288 2.632q.048.424.264.76.208.328.544.512.328.184.72.184.4 0 .712-.216.304-.216.472-.6.168-.392.168-.896a2.5 2.5 0 0 0-.272-1.184 2 2 0 0 0-.776-.808 2.24 2.24 0 0 0-1.144-.288h-2.6q-.488 0-.848.224-.36.216-.552.624-.2.408-.2.952 0 .552.176.976.168.416.456.664.288.247.616.312v1.28a2.53 2.53 0 0 1-1.2-.528 2.95 2.95 0 0 1-.856-1.128q-.312-.696-.312-1.576m8.576-14.729q0 1.552-.752 2.808a5.4 5.4 0 0 1-2.08 1.976q-1.328.712-2.96.712t-2.952-.712a5.34 5.34 0 0 1-2.08-1.976q-.76-1.256-.76-2.808 0-1.264.456-2.32a4.9 4.9 0 0 1 1.288-1.792 4.8 4.8 0 0 1 1.912-1.048v1.44q-.736.272-1.288.808a3.6 3.6 0 0 0-.848 1.28 4.1 4.1 0 0 0-.304 1.592q0 1.168.6 2.12a4.1 4.1 0 0 0 1.64 1.496q1.048.544 2.336.544t2.336-.544a4.2 4.2 0 0 0 1.648-1.496 3.93 3.93 0 0 0 .592-2.12q0-.856-.296-1.592a3.7 3.7 0 0 0-.856-1.28 3.6 3.6 0 0 0-1.288-.808v-1.44a4.9 4.9 0 0 1 3.2 2.84 5.8 5.8 0 0 1 .456 2.32m-11.392-7.287v-1.232h6.552v.512q-1.136 0-1.976-.392-.848-.391-1.304-1.12-.456-.728-.456-1.712 0-.879.376-1.56a2.6 2.6 0 0 1 1.112-1.064q.728-.392 1.752-.392H445v1.28h-5.016q-.712 0-1.216.256a1.75 1.75 0 0 0-.768.712q-.264.465-.264 1.104 0 .688.304 1.216t.856.824q.545.288 1.248.288H445v1.28zm3.008-9.442v-1.28h2.744l.8.536q-1.104-.031-1.92-.4-.824-.375-1.264-1.04-.44-.663-.44-1.544v-.288h1.336v.336q0 .729.28 1.272.28.545.8.84.512.288 1.208.288H445v1.28zm0-5.754v-1.28H445v1.28zm-3.008.064v-1.408h1.456v1.408zm11.392-6.725q0 .945-.296 1.68-.304.736-.856 1.168a2.3 2.3 0 0 1-1.288.48v-1.28q.408-.048.712-.32.304-.271.472-.712t.168-1a2.6 2.6 0 0 0-.176-.992 1.57 1.57 0 0 0-.488-.68 1.18 1.18 0 0 0-.728-.24q-.288 0-.528.128-.24.12-.4.352-.16.225-.216.544l-.328 1.768q-.12.657-.432 1.144-.32.48-.784.744a2.1 2.1 0 0 1-1.032.256q-.672 0-1.208-.368a2.5 2.5 0 0 1-.856-1.032q-.312-.672-.312-1.536 0-.888.288-1.56.28-.672.816-1.056.528-.391 1.256-.448v1.28a1.3 1.3 0 0 0-.68.288q-.296.24-.456.632-.16.384-.16.864 0 .496.168.88.16.384.464.592.296.208.68.208.288 0 .504-.12.208-.128.352-.384.144-.264.224-.68l.328-1.752q.12-.624.448-1.072.32-.456.808-.688.48-.24 1.056-.24.712 0 1.28.416.569.408.888 1.128.312.72.312 1.608m-.192-7.787q0 .585-.248 1.064a1.95 1.95 0 0 1-.696.744 1.87 1.87 0 0 1-.992.272l-5.12.008v1.44l-1.136-.008v-.888a.65.65 0 0 0-.192-.488.66.66 0 0 0-.488-.192h-1.32v-1.152h2v-2.216l1.136.008v2.216l5.04-.008a.87.87 0 0 0 .632-.248.87.87 0 0 0 .248-.632v-1.328H445zm.192-6.802a4.05 4.05 0 0 1-.552 2.096 3.93 3.93 0 0 1-1.536 1.472q-.984.536-2.216.536a4.4 4.4 0 0 1-2.176-.544 4.01 4.01 0 0 1-2.096-3.56q0-1.169.544-2.072a3.67 3.67 0 0 1 1.512-1.408q.976-.504 2.232-.504h.288v6.816l-.328-.016q.952-.009 1.672-.36.713-.36 1.104-.992.392-.633.392-1.464 0-.744-.288-1.32a2.47 2.47 0 0 0-.824-.944v-1.424q.704.303 1.216.84.504.528.784 1.256a4.5 4.5 0 0 1 .272 1.592m-5.016 2.832v-5.536h.712q-.92 0-1.624.344a2.57 2.57 0 0 0-1.104.952q-.392.615-.392 1.408 0 .824.384 1.464t1.08 1q.696.351 1.6.352zm-3.368-8.881v-1.232h3.544v.512q-1.136 0-1.976-.392-.848-.391-1.304-1.12-.456-.728-.456-1.712 0-.879.376-1.56a2.6 2.6 0 0 1 1.112-1.064q.728-.392 1.752-.392H445v1.28h-5.016q-.712 0-1.216.256a1.75 1.75 0 0 0-.768.712q-.264.465-.264 1.104 0 .688.304 1.216t.856.824q.545.288 1.248.288H445v1.28zm8.384-12.114q0 .945-.296 1.68-.304.736-.856 1.168a2.3 2.3 0 0 1-1.288.48v-1.28q.408-.047.712-.32.304-.271.472-.712t.168-1a2.6 2.6 0 0 0-.176-.992 1.57 1.57 0 0 0-.488-.68 1.18 1.18 0 0 0-.728-.24q-.288 0-.528.128-.24.12-.4.352-.16.225-.216.544l-.328 1.768q-.12.657-.432 1.144-.32.48-.784.744a2.1 2.1 0 0 1-1.032.256q-.672 0-1.208-.368a2.5 2.5 0 0 1-.856-1.032q-.312-.672-.312-1.536 0-.888.288-1.56.28-.672.816-1.056.528-.391 1.256-.448v1.28a1.3 1.3 0 0 0-.68.288q-.296.24-.456.632-.16.384-.16.864 0 .496.168.88.16.385.464.592.296.208.68.208.288 0 .504-.12.208-.127.352-.384.144-.264.224-.68l.328-1.752q.12-.624.448-1.072.32-.456.808-.688.48-.24 1.056-.24.712 0 1.28.416.569.408.888 1.128.312.72.312 1.608m0-8.663a4.05 4.05 0 0 1-.552 2.096 3.9 3.9 0 0 1-1.536 1.472q-.984.536-2.216.536-1.2 0-2.176-.544a4 4 0 0 1-2.096-3.56q0-1.168.544-2.072a3.67 3.67 0 0 1 1.512-1.408q.976-.504 2.232-.504h.288v6.816l-.328-.016q.952-.007 1.672-.36.713-.36 1.104-.992t.392-1.464q0-.744-.288-1.32a2.47 2.47 0 0 0-.824-.944v-1.424q.704.304 1.216.84.504.528.784 1.256a4.5 4.5 0 0 1 .272 1.592m-5.016 2.832v-5.536h.712q-.92 0-1.624.344a2.57 2.57 0 0 0-1.104.952 2.57 2.57 0 0 0-.392 1.408q0 .823.384 1.464.384.64 1.08 1 .696.352 1.6.352zm-3.368-8.88v-1.232h3.544v.512q-1.136 0-1.976-.392-.848-.393-1.304-1.12t-.456-1.712q0-.88.376-1.56a2.6 2.6 0 0 1 1.112-1.064q.728-.392 1.752-.392H445v1.28h-5.016q-.712 0-1.216.256a1.74 1.74 0 0 0-.768.712q-.264.464-.264 1.104 0 .688.304 1.216.304.527.856.824.545.288 1.248.288H445v1.28zm8.384-12.114q0 .944-.296 1.68-.304.736-.856 1.168a2.3 2.3 0 0 1-1.288.48v-1.28q.408-.048.712-.32.304-.273.472-.712.168-.44.168-1t-.176-.992a1.56 1.56 0 0 0-.488-.68 1.18 1.18 0 0 0-.728-.24q-.288 0-.528.128-.24.12-.4.352-.16.223-.216.544l-.328 1.768q-.12.655-.432 1.144-.32.48-.784.744-.464.255-1.032.256-.672 0-1.208-.368a2.5 2.5 0 0 1-.856-1.032q-.312-.672-.312-1.536 0-.888.288-1.56.28-.672.816-1.056a2.36 2.36 0 0 1 1.256-.448v1.28a1.3 1.3 0 0 0-.68.288 1.55 1.55 0 0 0-.456.632q-.16.384-.16.864 0 .496.168.88.16.384.464.592.296.207.68.208.288 0 .504-.12.208-.129.352-.384.144-.264.224-.68l.328-1.752a2.6 2.6 0 0 1 .448-1.072q.32-.457.808-.688.48-.24 1.056-.24.712 0 1.28.416.569.408.888 1.128.312.72.312 1.608m-11.392-8.571v-1.456l9.48-3.544-9.48-3.416v-1.472l11.2 4.248v1.36zm11.392-14.148a4.05 4.05 0 0 1-.552 2.096 3.93 3.93 0 0 1-1.536 1.472q-.984.536-2.216.536a4.4 4.4 0 0 1-2.176-.544 4.01 4.01 0 0 1-2.096-3.56q0-1.169.544-2.072a3.67 3.67 0 0 1 1.512-1.408q.976-.504 2.232-.504h.288v6.816l-.328-.016q.952-.009 1.672-.36.713-.36 1.104-.992.392-.633.392-1.464 0-.744-.288-1.32a2.47 2.47 0 0 0-.824-.944v-1.424q.704.303 1.216.84.504.527.784 1.256a4.5 4.5 0 0 1 .272 1.592m-5.016 2.832v-5.536h.712q-.92 0-1.624.344a2.57 2.57 0 0 0-1.104.952q-.392.615-.392 1.408 0 .823.384 1.464.384.64 1.08 1 .696.351 1.6.352zm6.232-7.537v-.704a.84.84 0 0 0-.248-.632.84.84 0 0 0-.632-.248h-8.72v-1.28h8.752q.584 0 1.04.264t.704.736q.256.472.256 1.08v.784zm-12.608-1.52v-1.408h1.456v1.408zm-284.005 657.56-.166-1.44 9.013-4.61-9.808-2.31-.168-1.46 11.611 2.94.156 1.35zm9.701-15.35c.089.77-.014 1.48-.309 2.14a3.94 3.94 0 0 1-1.357 1.64c-.611.43-1.325.69-2.141.79a4.37 4.37 0 0 1-2.224-.3 3.9 3.9 0 0 1-1.695-1.29 4 4 0 0 1-.793-2c-.089-.78.012-1.48.303-2.12.287-.64.734-1.17 1.342-1.58.608-.4 1.328-.66 2.16-.75l.286-.03.778 6.77-.328.02c.63-.08 1.17-.26 1.62-.55q.666-.435.984-1.11.316-.675.222-1.5c-.057-.49-.202-.92-.437-1.28a2.4 2.4 0 0 0-.926-.84l-.163-1.42a3.66 3.66 0 0 1 2.226 1.86c.236.46.387.98.452 1.55m-4.659 3.38-.633-5.5.708-.08c-.609.07-1.134.25-1.574.53-.446.28-.776.63-.988 1.07-.213.44-.289.92-.229 1.45q.095.81.549 1.41.454.585 1.187.87c.488.18 1.031.23 1.63.16zm5.33-8.2-.08-.69q-.045-.39-.319-.6a.83.83 0 0 0-.656-.18l-8.663 1-.146-1.27 8.695-1c.387-.05.741 0 1.063.14s.583.36.784.65c.205.29.331.64.377 1.04l.09.78zm-12.699-.07-.161-1.39 1.447-.17.161 1.4zm-.478-4.15-.146-1.27 11.127-1.28.146 1.27zm1.998-7.28c-.073-.63-.018-1.19.162-1.67q.263-.735.864-1.17c.401-.3.895-.48 1.483-.55l5.468-.63.145 1.26-3.044.35-.055-.48c.646-.08 1.23-.01 1.752.18.517.2.934.51 1.251.94q.477.645.582 1.56.09.78-.14 1.44a2.4 2.4 0 0 1-.723 1.07q-.492.405-1.16.48c-.429.05-.839-.01-1.23-.19a2.7 2.7 0 0 1-1.004-.82 3.3 3.3 0 0 1-.582-1.28l-.483-2.1a.65.65 0 0 0-.264-.41q-.21-.135-.587-.12l1.664-.24.587 2.58q.096.42.349.72c.162.21.362.35.599.45.231.1.476.13.736.1.265-.03.492-.13.683-.29.184-.17.318-.39.4-.65.081-.28.103-.58.065-.91a2.5 2.5 0 0 0-.406-1.15 2 2 0 0 0-.863-.71c-.35-.16-.74-.21-1.169-.16l-2.583.3c-.324.04-.596.14-.817.32-.222.17-.381.4-.477.68-.102.29-.132.61-.09.97s.137.68.286.95c.143.26.319.46.529.61q.314.21.647.24l.147 1.27a2.56 2.56 0 0 1-1.253-.39c-.393-.24-.72-.59-.979-1.02q-.39-.66-.49-1.53m-.444-5.54-.14-1.23 3.52-.4.059.51c-.752.08-1.422.03-2.008-.17q-.887-.285-1.423-.96-.537-.675-.649-1.65-.1-.87.196-1.59c.197-.48.525-.88.983-1.19.452-.31 1.017-.51 1.696-.59l5.11-.58.146 1.27-4.983.57q-.708.09-1.179.39c-.315.21-.542.47-.682.8-.139.33-.184.7-.136 1.13q.08.675.441 1.17.363.495.945.72c.382.15.806.2 1.272.14l4.825-.55.146 1.27zm-4.785-15.29-.146-1.28 11.126-1.27.146 1.27zm11.662 1.69c.087.76-.013 1.45-.3 2.09a3.8 3.8 0 0 1-1.351 1.56c-.609.4-1.329.65-2.161.74-.832.1-1.59.02-2.274-.23a3.77 3.77 0 0 1-1.661-1.21c-.428-.56-.686-1.21-.773-1.97-.081-.7.005-1.33.256-1.91.246-.57.632-1.03 1.16-1.39q.782-.555 1.885-.69l.06.52 1.097-.13-.06-.52q1.107-.105 2.001.24c.59.24 1.073.6 1.447 1.1q.553.75.674 1.8m-1.176-.07a2.7 2.7 0 0 0-.556-1.4c-.314-.4-.717-.68-1.21-.86q-.748-.285-1.663-.18c-.609.07-1.133.26-1.572.55a2.65 2.65 0 0 0-.983 1.11q-.325.675-.231 1.5c.062.54.25 1 .563 1.39.308.39.711.67 1.209.85.493.18 1.044.24 1.654.17q.914-.105 1.581-.54c.439-.28.768-.65.984-1.1.212-.45.287-.94.224-1.49m.07-9.54c.072.62.038 1.19-.102 1.7q-.218.765-.717 1.26c-.332.33-.741.53-1.225.62l-.146-1.27c.267-.06.49-.2.671-.4s.31-.46.388-.76c.077-.3.095-.64.052-1.01-.042-.37-.138-.7-.288-.97-.15-.28-.337-.48-.562-.62q-.345-.195-.751-.15-.286.03-.51.18c-.15.1-.269.23-.357.4-.089.16-.14.35-.152.56l-.124 1.8c-.03.44-.129.84-.299 1.18-.175.35-.407.62-.694.83-.288.21-.62.33-.996.38-.445.05-.859-.03-1.242-.23q-.582-.3-.968-.93c-.258-.42-.42-.92-.486-1.49-.067-.59-.031-1.12.108-1.58.135-.47.365-.85.69-1.15.32-.3.719-.49 1.197-.58l.146 1.27q-.384.09-.642.36c-.178.18-.305.41-.381.68s-.097.56-.061.88c.038.33.127.61.268.85.135.25.311.42.528.54.212.11.445.16.7.13q.286-.03.487-.18.192-.15.306-.42c.075-.19.123-.42.144-.7l.126-1.78c.032-.42.14-.79.323-1.12.177-.32.418-.58.724-.77q.45-.3 1.022-.36.707-.09 1.319.27.61.33 1.011 1.02.392.675.493 1.56m-12.782-11.45-.164-1.42 10.635-5.56.161 1.4-2.833 1.41.565 4.92 3.072.67.164 1.43zm6.704-3.61-4.956 2.5-.653.27.697.11 5.381 1.21zm-7.567-3.89-.146-1.27 11.127-1.28.146 1.27zm-.486-4.23-.146-1.27 11.127-1.28.146 1.27zm10.453-8.82c.088.76-.015 1.48-.309 2.14a3.95 3.95 0 0 1-1.358 1.64q-.916.645-2.14.78c-.795.1-1.536 0-2.224-.29a3.9 3.9 0 0 1-1.695-1.29 4 4 0 0 1-.794-2.01c-.089-.77.012-1.48.304-2.12.286-.64.733-1.16 1.341-1.57q.912-.615 2.16-.75l.286-.04.778 6.78-.327.02c.63-.08 1.17-.26 1.62-.55q.666-.435.983-1.11.318-.675.222-1.5a2.9 2.9 0 0 0-.437-1.28 2.4 2.4 0 0 0-.926-.84l-.163-1.42a3.7 3.7 0 0 1 2.227 1.85c.235.47.386.98.452 1.56m-4.66 3.38-.632-5.5.707-.08c-.609.07-1.134.25-1.574.53a2.5 2.5 0 0 0-.988 1.07q-.32.66-.229 1.44.095.825.549 1.41.455.6 1.187.87c.488.18 1.031.24 1.63.17zm-4.826-2.75.133 1.16-2.211-.88-.154-1.35zM315.313 876.8q.984 0 1.752.376.776.376 1.208 1.04t.432 1.504q0 .76-.352 1.344a2.34 2.34 0 0 1-.976.896q-.624.32-1.44.32v-.256q.888 0 1.584.368t1.08 1.024q.392.656.392 1.48 0 .896-.456 1.608a3.1 3.1 0 0 1-1.272 1.104q-.816.392-1.856.392h-4.624v-11.2zm-3.224 10h3.32q.648 0 1.152-.24.504-.248.776-.688.28-.448.28-1.032 0-.576-.28-1.032a1.86 1.86 0 0 0-.784-.704 2.46 2.46 0 0 0-1.144-.256h-3.32zm3.224-5.12q.6 0 1.056-.224t.704-.64q.255-.416.256-.968 0-.552-.256-.968a1.7 1.7 0 0 0-.712-.648 2.3 2.3 0 0 0-1.048-.232h-3.224v3.68zm9.435 6.512a4.05 4.05 0 0 1-2.096-.552 3.9 3.9 0 0 1-1.472-1.536q-.536-.984-.536-2.216 0-1.2.544-2.176a4 4 0 0 1 3.56-2.096q1.168 0 2.072.544a3.67 3.67 0 0 1 1.408 1.512q.504.976.504 2.232v.288h-6.816l.016-.328q.007.952.36 1.672.36.712.992 1.104.631.392 1.464.392.744 0 1.32-.288t.944-.824h1.424a3.7 3.7 0 0 1-.84 1.216 3.8 3.8 0 0 1-1.256.784 4.5 4.5 0 0 1-1.592.272m-2.832-5.016h5.536v.712q0-.92-.344-1.624a2.57 2.57 0 0 0-.952-1.104 2.57 2.57 0 0 0-1.408-.392q-.824 0-1.464.384t-1 1.08q-.352.696-.352 1.6zm9.016-6.376h1.28V888h-1.28zm4.255 0h1.28V888h-1.28zm7.006 2.816q.952 0 1.64.352.696.344 1.064.992.376.648.376 1.536V888h-1.264v-3.064h.48q0 .976-.384 1.72a2.7 2.7 0 0 1-1.072 1.136q-.696.4-1.616.4-.785 0-1.416-.304a2.4 2.4 0 0 1-.976-.84 2.15 2.15 0 0 1-.352-1.208q0-.648.336-1.2t.928-.904 1.336-.432l2.144-.24a.65.65 0 0 0 .432-.216q.16-.192.192-.568l.048 1.68-2.632.288q-.424.048-.76.264-.328.208-.512.544a1.45 1.45 0 0 0-.184.72q0 .4.216.712.216.304.6.472.392.168.896.168a2.5 2.5 0 0 0 1.184-.272 2 2 0 0 0 .808-.776q.288-.496.288-1.144v-2.6q0-.488-.224-.848a1.4 1.4 0 0 0-.624-.552 2.14 2.14 0 0 0-.952-.2q-.552 0-.976.176a1.7 1.7 0 0 0-.664.456 1.33 1.33 0 0 0-.312.616h-1.28q.104-.664.528-1.2a2.95 2.95 0 0 1 1.128-.856q.696-.312 1.576-.312m13.686 8.576q-1.152 0-2.04-.424a3.3 3.3 0 0 1-1.376-1.184q-.488-.76-.488-1.744h1.36q0 .632.32 1.12t.904.76 1.336.272q.743 0 1.304-.248.567-.256.872-.712.312-.464.312-1.064 0-.736-.44-1.208t-1.216-.672l-1.848-.48a4.5 4.5 0 0 1-1.392-.608 2.9 2.9 0 0 1-.904-.992 2.74 2.74 0 0 1-.32-1.328q0-.872.456-1.568a3.16 3.16 0 0 1 1.28-1.104q.824-.4 1.848-.4 1.056 0 1.88.4a3.04 3.04 0 0 1 1.28 1.096 2.9 2.9 0 0 1 .456 1.608h-1.36q0-.552-.28-.984a1.84 1.84 0 0 0-.792-.68 2.7 2.7 0 0 0-1.168-.24q-.665 0-1.176.232a1.87 1.87 0 0 0-.8.656q-.28.424-.28.984 0 .64.416 1.048t1.136.6l1.88.488q.783.2 1.392.656.615.456.96 1.096.344.64.344 1.384 0 .904-.488 1.648-.489.736-1.368 1.168-.88.424-2 .424m6.08-11.392h1.28v6.84l3.712-3.832h1.592l-3.712 3.832 3.856 4.36h-1.664l-3.784-4.28V888h-1.28zm7.689 12.624h1.216a.8.8 0 0 0 .488-.168 1.06 1.06 0 0 0 .36-.432l.464-1.008-3.16-8.008h1.36l2.472 6.384 2.368-6.384h1.352l-3.72 9.416q-.24.616-.768.976-.519.36-1.176.36h-1.256zm-44.881 7.376h1.232v6.552h-.512q0-1.136.392-1.976.393-.848 1.12-1.304t1.712-.456q.88 0 1.56.376t1.064 1.112q.392.728.392 1.752V908h-1.28v-5.016q0-.712-.256-1.216a1.74 1.74 0 0 0-.712-.768q-.464-.264-1.104-.264-.687 0-1.216.304a2.13 2.13 0 0 0-.824.856 2.6 2.6 0 0 0-.288 1.248V908h-1.28zm12.97 11.392a4.16 4.16 0 0 1-2.136-.56 4 4 0 0 1-1.496-1.536 4.46 4.46 0 0 1-.544-2.192q0-1.207.544-2.184a4 4 0 0 1 1.496-1.544 4.16 4.16 0 0 1 2.136-.56 4.1 4.1 0 0 1 2.128.56 4 4 0 0 1 1.504 1.544q.544.976.544 2.184t-.544 2.192a4 4 0 0 1-1.504 1.536 4.1 4.1 0 0 1-2.128.56m0-1.168q.833 0 1.472-.392a2.67 2.67 0 0 0 1-1.104q.36-.712.36-1.624 0-.92-.36-1.624a2.6 2.6 0 0 0-1-1.104q-.64-.4-1.472-.4t-1.48.4a2.7 2.7 0 0 0-1 1.104q-.351.704-.352 1.624 0 .912.352 1.624.36.704 1 1.104.648.392 1.48.392m8.915.976q-.584 0-1.064-.248a1.96 1.96 0 0 1-.744-.696 1.9 1.9 0 0 1-.272-.992l-.008-5.12h-1.44l.008-1.136h.888a.64.64 0 0 0 .488-.192.66.66 0 0 0 .192-.488v-1.32h1.152v2h2.216l-.008 1.136h-2.216l.008 5.04q0 .376.248.632a.88.88 0 0 0 .632.248h1.328V908zm6.803.192a4.05 4.05 0 0 1-2.096-.552 3.93 3.93 0 0 1-1.472-1.536q-.536-.984-.536-2.216 0-1.2.544-2.176a4.01 4.01 0 0 1 3.56-2.096q1.169 0 2.072.544a3.67 3.67 0 0 1 1.408 1.512q.504.976.504 2.232v.288h-6.816l.016-.328q.009.952.36 1.672.36.712.992 1.104.633.392 1.464.392.744 0 1.32-.288t.944-.824h1.424a3.7 3.7 0 0 1-.84 1.216q-.527.504-1.256.784a4.5 4.5 0 0 1-1.592.272m-2.832-5.016h5.536v.712q0-.92-.344-1.624a2.57 2.57 0 0 0-.952-1.104 2.57 2.57 0 0 0-1.408-.392q-.823 0-1.464.384-.64.384-1 1.08-.351.696-.352 1.6zm9.017-6.376h1.28V908h-1.28zm833.02-612h7.66v1.24h-6.37v3.696h5.83v1.232h-5.83v3.792h6.53V296h-7.82zm10.07 3.008h1.23v3.544h-.43c0-.768.12-1.432.35-1.992.24-.56.58-.989 1.03-1.288.45-.304.98-.456 1.6-.456q.87 0 1.53.4.66.392 1.02 1.12t.36 1.696V296h-1.28v-5.112q0-.672-.24-1.16a1.6 1.6 0 0 0-.66-.76c-.29-.176-.63-.264-1.04-.264-.44 0-.83.099-1.16.296s-.59.48-.77.848c-.17.368-.26.8-.26 1.296V296h-1.28zm10.81 3.08c0-.448-.07-.835-.23-1.16a1.7 1.7 0 0 0-.65-.76q-.435-.264-1.05-.264c-.44 0-.82.101-1.15.304-.33.197-.59.48-.77.848q-.27.544-.27 1.288l-.72.208c0-.736.12-1.387.38-1.952s.62-1.003 1.1-1.312c.48-.315 1.03-.472 1.67-.472.58 0 1.09.133 1.54.4.46.261.81.635 1.06 1.12s.37 1.051.37 1.696V296h-1.28zm3.76-3.08h1.23v3.544h-.43c0-.768.11-1.432.35-1.992s.58-.989 1.03-1.288c.45-.304.98-.456 1.6-.456q.87 0 1.53.4c.43.261.77.635 1.01 1.12q.36.728.36 1.696V296h-1.28v-5.112c0-.448-.07-.835-.23-1.16a1.67 1.67 0 0 0-.66-.76c-.29-.176-.64-.264-1.04-.264-.45 0-.83.099-1.16.296s-.59.48-.77.848-.26.8-.26 1.296V296h-1.28zm10.81 3.08c0-.448-.08-.835-.23-1.16a1.67 1.67 0 0 0-.66-.76c-.28-.176-.63-.264-1.04-.264-.44 0-.83.101-1.16.304-.33.197-.58.48-.76.848-.19.363-.28.792-.28 1.288l-.72.208q0-1.104.39-1.952c.25-.565.62-1.003 1.09-1.312q.72-.472 1.68-.472c.58 0 1.09.133 1.54.4.45.261.8.635 1.06 1.12.25.485.37 1.051.37 1.696V296h-1.28zm6.64-3.272c.63 0 1.18.117 1.64.352.46.229.82.56 1.06.992.25.432.38.944.38 1.536V296h-1.26v-3.064h.48q0 .976-.39 1.72c-.25.491-.61.869-1.07 1.136q-.69.4-1.62.4-.78 0-1.41-.304a2.4 2.4 0 0 1-.98-.84c-.23-.357-.35-.76-.35-1.208 0-.432.11-.832.34-1.2.22-.368.53-.669.92-.904.4-.235.84-.379 1.34-.432l2.14-.24a.65.65 0 0 0 .44-.216c.1-.128.17-.317.19-.568l.05 1.68-2.64.288c-.28.032-.53.12-.76.264a1.47 1.47 0 0 0-.69 1.264q0 .4.21.712.225.304.6.472c.27.112.56.168.9.168.44 0 .84-.091 1.18-.272q.525-.28.81-.776c.19-.331.29-.712.29-1.144v-2.6c0-.325-.07-.608-.22-.848q-.225-.36-.63-.552c-.27-.133-.59-.2-.95-.2-.37 0-.69.059-.98.176a1.8 1.8 0 0 0-.66.456c-.17.192-.27.397-.31.616h-1.28c.07-.443.24-.843.53-1.2.28-.363.66-.648 1.12-.856.47-.208.99-.312 1.58-.312m14.73 8.576c-1.04 0-1.97-.251-2.81-.752a5.4 5.4 0 0 1-1.97-2.08q-.72-1.328-.72-2.96t.72-2.952c.48-.885 1.13-1.579 1.97-2.08.84-.507 1.77-.76 2.81-.76.79 0 1.53.136 2.2.408q1.02.408 1.74 1.152c.49.496.86 1.075 1.1 1.736h-1.48a3.5 3.5 0 0 0-.84-1.104 3.6 3.6 0 0 0-1.21-.72 4.2 4.2 0 0 0-1.47-.256c-.78 0-1.49.2-2.12.6-.64.395-1.13.941-1.5 1.64q-.54 1.048-.54 2.336t.54 2.336c.37.699.86 1.248 1.5 1.648.63.395 1.34.592 2.12.592.71 0 1.35-.144 1.93-.432a3.45 3.45 0 0 0 1.37-1.2c.34-.512.52-1.083.53-1.712v-.096h-2.96v-1.2h4.31v.816c0 .949-.23 1.808-.68 2.576a4.95 4.95 0 0 1-1.88 1.808c-.79.437-1.68.656-2.66.656m10.27-8.576c.63 0 1.18.117 1.64.352.46.229.82.56 1.06.992.25.432.38.944.38 1.536V296h-1.27v-3.064h.48c0 .651-.12 1.224-.38 1.72-.25.491-.61.869-1.07 1.136q-.705.4-1.62.4-.78 0-1.41-.304a2.35 2.35 0 0 1-.98-.84c-.24-.357-.35-.76-.35-1.208q0-.648.33-1.2.345-.552.93-.904c.4-.235.84-.379 1.34-.432l2.14-.24a.63.63 0 0 0 .43-.216c.11-.128.17-.317.2-.568l.04 1.68-2.63.288c-.28.032-.53.12-.76.264q-.33.208-.51.544-.18.329-.18.72 0 .4.21.712.225.304.6.472.39.168.9.168c.44 0 .83-.091 1.18-.272q.525-.28.81-.776c.19-.331.29-.712.29-1.144v-2.6c0-.325-.08-.608-.23-.848-.14-.24-.35-.424-.62-.552-.27-.133-.59-.2-.95-.2-.37 0-.7.059-.98.176q-.42.168-.66.456c-.17.192-.27.397-.31.616h-1.28c.06-.443.24-.843.52-1.2.29-.363.67-.648 1.13-.856.47-.208.99-.312 1.58-.312m11.85-2.816h1.28V296h-1.28zm-3.02 11.392q-1.14 0-2.04-.536c-.59-.363-1.05-.869-1.39-1.52-.33-.651-.5-1.395-.5-2.232s.17-1.581.5-2.232c.34-.651.8-1.155 1.39-1.512q.9-.544 2.04-.544c.71 0 1.33.157 1.87.472.53.309.95.747 1.25 1.312.31.56.46 1.211.47 1.952h-.52v1.104h.52c-.01.741-.16 1.395-.47 1.96-.3.56-.72.997-1.25 1.312-.54.309-1.16.464-1.87.464m.2-1.16q.825 0 1.47-.392.63-.4.99-1.104.36-.713.36-1.632 0-.92-.36-1.624a2.7 2.7 0 0 0-.99-1.104q-.645-.4-1.47-.4c-.54 0-1.03.133-1.45.4-.42.261-.75.629-.98 1.104-.24.469-.35 1.011-.35 1.624s.11 1.157.35 1.632c.23.469.56.837.98 1.104.42.261.91.392 1.45.392m9.48 1.16q-.945 0-1.68-.296-.735-.304-1.17-.856a2.25 2.25 0 0 1-.48-1.288h1.28c.03.272.14.509.32.712s.42.36.71.472c.3.112.63.168 1 .168.38 0 .71-.059 1-.176s.52-.28.68-.488a1.18 1.18 0 0 0 .11-1.256c-.08-.16-.2-.293-.35-.4a1.35 1.35 0 0 0-.55-.216l-1.77-.328c-.43-.08-.82-.224-1.14-.432a2.25 2.25 0 0 1-.74-.784 2 2 0 0 1-.26-1.032c0-.448.12-.851.37-1.208.24-.363.59-.648 1.03-.856.45-.208.96-.312 1.54-.312q.885 0 1.56.288c.44.187.8.459 1.05.816q.39.528.45 1.256h-1.28a1.27 1.27 0 0 0-.29-.68 1.56 1.56 0 0 0-.63-.456c-.26-.107-.54-.16-.86-.16-.34 0-.63.056-.88.168a1.3 1.3 0 0 0-.6.464c-.14.197-.2.424-.2.68q0 .288.12.504a1 1 0 0 0 .38.352c.18.096.4.171.68.224l1.75.328c.42.08.77.229 1.07.448q.465.32.69.808.24.48.24 1.056c0 .475-.14.901-.41 1.28-.28.379-.65.675-1.13.888a4 4 0 0 1-1.61.312m8.57-11.392h1.46l3.54 9.48 3.42-9.48h1.47l-4.25 11.2h-1.36zm14.15 11.392c-.78 0-1.47-.184-2.1-.552a3.97 3.97 0 0 1-1.47-1.536q-.54-.984-.54-2.216c0-.8.19-1.525.55-2.176a3.9 3.9 0 0 1 1.48-1.536 4 4 0 0 1 2.08-.56q1.17 0 2.07.544.9.536 1.41 1.512c.33.651.5 1.395.5 2.232v.288h-6.81l.01-.328q.015.952.36 1.672.36.713.99 1.104c.43.261.91.392 1.47.392q.735 0 1.32-.288c.38-.192.7-.467.94-.824h1.43q-.315.704-.84 1.216c-.36.336-.77.597-1.26.784q-.735.272-1.59.272m-2.83-5.016h5.53v.712c0-.613-.11-1.155-.34-1.624-.23-.475-.54-.843-.95-1.104a2.57 2.57 0 0 0-1.41-.392q-.825 0-1.47.384c-.42.256-.76.616-1 1.08-.23.464-.35.997-.35 1.6zm7.53 6.232h.71q.39 0 .63-.248c.16-.16.25-.371.25-.632v-8.72h1.28v8.752q0 .584-.27 1.04c-.17.304-.42.539-.73.704q-.48.256-1.08.256h-.79zm1.52-12.608h1.41v1.456h-1.41z"/><rect width="18.4" height="18.4" x="460.709" y="2.8" stroke="#19191C" stroke-width="1.6" rx="3.2"/><path fill="#19191C" d="M465.14 7.6h2.412l2.238 5.544.138.504.12-.504 2.178-5.544h2.448V16h-1.836v-5.46l.024-.444L470.534 16h-1.302l-2.286-5.856.024.396V16h-1.83zm23.848-.8q.984 0 1.752.376.776.375 1.208 1.04.432.664.432 1.504 0 .76-.352 1.344a2.33 2.33 0 0 1-.976.896q-.624.32-1.44.32v-.256q.888 0 1.584.368t1.08 1.024q.392.655.392 1.48 0 .895-.456 1.608-.456.704-1.272 1.104-.815.392-1.856.392h-4.624V6.8zm-3.224 10h3.32q.648 0 1.152-.24.504-.248.776-.688.28-.448.28-1.032a1.93 1.93 0 0 0-.28-1.032 1.86 1.86 0 0 0-.784-.704 2.46 2.46 0 0 0-1.144-.256h-3.32zm3.224-5.12q.6 0 1.056-.224.456-.225.704-.64.256-.416.256-.968t-.256-.968a1.7 1.7 0 0 0-.712-.648A2.3 2.3 0 0 0 488.988 8h-3.224v3.68zm9.436 6.512a4.05 4.05 0 0 1-2.096-.552 3.9 3.9 0 0 1-1.472-1.536q-.536-.984-.536-2.216 0-1.2.544-2.176a4 4 0 0 1 1.48-1.536 4 4 0 0 1 2.08-.56q1.168 0 2.072.544a3.67 3.67 0 0 1 1.408 1.512q.504.976.504 2.232v.288h-6.816l.016-.328q.007.952.36 1.672a2.7 2.7 0 0 0 .992 1.104q.632.392 1.464.392.744 0 1.32-.288t.944-.824h1.424q-.305.705-.84 1.216a3.7 3.7 0 0 1-1.256.784 4.5 4.5 0 0 1-1.592.272m-2.832-5.016h5.536v.712q0-.92-.344-1.624a2.57 2.57 0 0 0-.952-1.104 2.57 2.57 0 0 0-1.408-.392q-.823 0-1.464.384-.64.384-1 1.08-.352.696-.352 1.6zm9.016-6.376h1.28V18h-1.28zm4.255 0h1.28V18h-1.28zm7.006 2.816q.952 0 1.64.352.696.345 1.064.992.376.648.376 1.536V18h-1.264v-3.064h.48q0 .976-.384 1.72-.376.736-1.072 1.136t-1.616.4q-.785 0-1.416-.304a2.4 2.4 0 0 1-.976-.84 2.15 2.15 0 0 1-.352-1.208q0-.648.336-1.2t.928-.904 1.336-.432l2.144-.24a.65.65 0 0 0 .432-.216q.16-.192.192-.568l.048 1.68-2.632.288q-.424.048-.76.264-.328.208-.512.544a1.44 1.44 0 0 0-.184.72q0 .4.216.712.216.304.6.472.392.168.896.168.664 0 1.184-.272a2 2 0 0 0 .808-.776q.288-.495.288-1.144v-2.6q0-.488-.224-.848a1.4 1.4 0 0 0-.624-.552 2.14 2.14 0 0 0-.952-.2 2.5 2.5 0 0 0-.976.176 1.7 1.7 0 0 0-.664.456 1.34 1.34 0 0 0-.312.616h-1.28q.103-.664.528-1.2a2.95 2.95 0 0 1 1.128-.856q.696-.312 1.576-.312m14.729 8.576q-1.553 0-2.808-.752a5.4 5.4 0 0 1-1.976-2.08q-.712-1.328-.712-2.96t.712-2.952a5.34 5.34 0 0 1 1.976-2.08q1.255-.76 2.808-.76a5.8 5.8 0 0 1 2.32.456 4.9 4.9 0 0 1 1.792 1.288q.736.825 1.048 1.912h-1.44a3.63 3.63 0 0 0-2.088-2.136 4.1 4.1 0 0 0-1.592-.304q-1.168 0-2.12.6a4.1 4.1 0 0 0-1.496 1.64q-.544 1.048-.544 2.336t.544 2.336a4.2 4.2 0 0 0 1.496 1.648 3.93 3.93 0 0 0 2.12.592q.856 0 1.592-.296a3.7 3.7 0 0 0 1.28-.856q.536-.552.808-1.288h1.44a4.9 4.9 0 0 1-1.048 1.92 5 5 0 0 1-1.792 1.28 5.8 5.8 0 0 1-2.32.456m10.743 0a4.05 4.05 0 0 1-2.096-.552 3.9 3.9 0 0 1-1.472-1.536q-.536-.984-.536-2.216 0-1.2.544-2.176a4 4 0 0 1 1.48-1.536 4 4 0 0 1 2.08-.56q1.167 0 2.072.544a3.7 3.7 0 0 1 1.408 1.512q.504.976.504 2.232v.288h-6.816l.016-.328q.008.952.36 1.672.36.713.992 1.104.631.392 1.464.392.744 0 1.32-.288.575-.288.944-.824h1.424q-.304.705-.84 1.216a3.7 3.7 0 0 1-1.256.784 4.5 4.5 0 0 1-1.592.272m-2.832-5.016h5.536v.712q0-.92-.344-1.624a2.6 2.6 0 0 0-.952-1.104 2.57 2.57 0 0 0-1.408-.392q-.825 0-1.464.384-.64.384-1 1.08-.352.696-.352 1.6zm8.88-3.368h1.232v3.544h-.512q0-1.136.392-1.976.393-.848 1.12-1.304t1.712-.456q.88 0 1.56.376.68.375 1.064 1.112.392.728.392 1.752V18h-1.28v-5.016q0-.712-.256-1.216a1.74 1.74 0 0 0-.712-.768q-.463-.264-1.104-.264-.687 0-1.216.304a2.13 2.13 0 0 0-.824.856 2.6 2.6 0 0 0-.288 1.248V18h-1.28zM559.551 18q-.584 0-1.064-.248a1.88 1.88 0 0 1-1.016-1.688l-.008-5.12h-1.44l.008-1.136h.888a.65.65 0 0 0 .488-.192.66.66 0 0 0 .192-.488v-1.32h1.152v2h2.216l-.008 1.136h-2.216l.008 5.04q0 .375.248.632a.87.87 0 0 0 .632.248h1.328V18zm6.803.192a4.05 4.05 0 0 1-2.096-.552 3.9 3.9 0 0 1-1.472-1.536q-.536-.984-.536-2.216 0-1.2.544-2.176a4 4 0 0 1 1.48-1.536 4 4 0 0 1 2.08-.56q1.168 0 2.072.544a3.67 3.67 0 0 1 1.408 1.512q.504.976.504 2.232v.288h-6.816l.016-.328q.007.952.36 1.672a2.7 2.7 0 0 0 .992 1.104q.632.392 1.464.392.744 0 1.32-.288t.944-.824h1.424q-.304.705-.84 1.216a3.7 3.7 0 0 1-1.256.784 4.5 4.5 0 0 1-1.592.272m-2.832-5.016h5.536v.712q0-.92-.344-1.624a2.57 2.57 0 0 0-.952-1.104 2.57 2.57 0 0 0-1.408-.392q-.823 0-1.464.384-.64.384-1 1.08-.352.696-.352 1.6zm8.88-3.368h1.28v2.744l-.536.8q.033-1.104.4-1.92.377-.824 1.04-1.264.665-.44 1.544-.44h.288v1.336h-.336q-.728 0-1.272.28a2 2 0 0 0-.84.8q-.288.512-.288 1.208V18h-1.28zm10.306 0h1.232v3.544h-.432q0-1.152.352-1.992.36-.84 1.032-1.288.672-.456 1.6-.456.872 0 1.528.4.656.392 1.016 1.12.36.727.36 1.696V18h-1.28v-5.112q0-.672-.232-1.16a1.65 1.65 0 0 0-.664-.76q-.432-.264-1.04-.264-.664 0-1.16.296t-.768.848q-.264.552-.264 1.296V18h-1.28zm10.816 3.08q0-.672-.232-1.16a1.67 1.67 0 0 0-.656-.76q-.432-.264-1.048-.264-.655 0-1.152.304-.497.296-.768.848-.272.544-.272 1.288l-.72.208q0-1.104.384-1.952t1.096-1.312q.72-.472 1.672-.472.872 0 1.544.4.68.392 1.056 1.12.376.727.376 1.696V18h-1.28zm7.207 5.304a4.05 4.05 0 0 1-2.096-.552 3.9 3.9 0 0 1-1.472-1.536q-.536-.984-.536-2.216 0-1.2.544-2.176a4 4 0 0 1 1.48-1.536 4 4 0 0 1 2.08-.56q1.167 0 2.072.544a3.7 3.7 0 0 1 1.408 1.512q.504.976.504 2.232v.288h-6.816l.016-.328q.007.952.36 1.672.36.713.992 1.104.631.392 1.464.392.744 0 1.32-.288t.944-.824h1.424q-.304.705-.84 1.216a3.7 3.7 0 0 1-1.256.784 4.5 4.5 0 0 1-1.592.272m-2.832-5.016h5.536v.712q0-.92-.344-1.624a2.6 2.6 0 0 0-.952-1.104 2.57 2.57 0 0 0-1.408-.392q-.825 0-1.464.384-.64.384-1 1.08-.352.696-.352 1.6zM609.452 18q-.584 0-1.064-.248a1.88 1.88 0 0 1-1.016-1.688l-.008-5.12h-1.44l.008-1.136h.888a.64.64 0 0 0 .488-.192.66.66 0 0 0 .192-.488v-1.32h1.152v2h2.216l-.008 1.136h-2.216l.008 5.04q0 .375.248.632a.88.88 0 0 0 .632.248h1.328V18zm3.425-8.192h1.28v2.744l-.536.8q.033-1.104.4-1.92.377-.824 1.04-1.264.665-.44 1.544-.44h.288v1.336h-.336q-.727 0-1.272.28a2 2 0 0 0-.84.8q-.288.512-.288 1.208V18h-1.28zm9.205 8.384a4.16 4.16 0 0 1-2.136-.56 4 4 0 0 1-1.496-1.536q-.544-.984-.544-2.192 0-1.207.544-2.184a4 4 0 0 1 1.496-1.544 4.16 4.16 0 0 1 2.136-.56 4.1 4.1 0 0 1 2.128.56q.96.56 1.504 1.544.543.976.544 2.184 0 1.208-.544 2.192a4 4 0 0 1-1.504 1.536 4.1 4.1 0 0 1-2.128.56m0-1.168q.831 0 1.472-.392a2.7 2.7 0 0 0 1-1.104q.36-.712.36-1.624 0-.92-.36-1.624a2.6 2.6 0 0 0-1-1.104q-.64-.4-1.472-.4t-1.48.4q-.64.392-1 1.104-.352.704-.352 1.624 0 .913.352 1.624.36.704 1 1.104.648.392 1.48.392m13.262 1.168q-.945 0-1.68-.296-.736-.304-1.168-.856a2.3 2.3 0 0 1-.48-1.288h1.28q.048.408.32.712.271.304.712.472t1 .168.992-.176q.44-.176.68-.488.24-.32.24-.728 0-.288-.128-.528a1.06 1.06 0 0 0-.352-.4 1.3 1.3 0 0 0-.544-.216l-1.768-.328a3.2 3.2 0 0 1-1.144-.432 2.3 2.3 0 0 1-.744-.784 2.1 2.1 0 0 1-.256-1.032q0-.671.368-1.208a2.5 2.5 0 0 1 1.032-.856q.672-.312 1.536-.312.888 0 1.56.288.672.28 1.056.816.391.527.448 1.256h-1.28a1.3 1.3 0 0 0-.288-.68 1.55 1.55 0 0 0-.632-.456 2.2 2.2 0 0 0-.864-.16q-.496 0-.88.168a1.3 1.3 0 0 0-.592.464 1.15 1.15 0 0 0-.208.68q0 .288.12.504.128.208.384.352.264.143.68.224l1.752.328q.624.12 1.072.448.456.32.688.808.24.48.24 1.056 0 .712-.416 1.28-.408.569-1.128.888a4 4 0 0 1-1.608.312M643.13 18q-.584 0-1.064-.248a1.88 1.88 0 0 1-1.016-1.688l-.008-5.12h-1.44l.008-1.136h.888a.64.64 0 0 0 .488-.192.66.66 0 0 0 .192-.488v-1.32h1.152v2h2.216l-.008 1.136h-2.216l.008 5.04q0 .375.248.632a.88.88 0 0 0 .632.248h1.328V18zm6.235-8.384q.953 0 1.64.352.696.345 1.064.992.376.648.376 1.536V18h-1.264v-3.064h.48q0 .976-.384 1.72-.375.736-1.072 1.136-.695.4-1.616.4-.783 0-1.416-.304a2.4 2.4 0 0 1-.976-.84 2.16 2.16 0 0 1-.352-1.208q0-.648.336-1.2.337-.552.928-.904.592-.352 1.336-.432l2.144-.24a.65.65 0 0 0 .432-.216q.16-.192.192-.568l.048 1.68-2.632.288q-.423.048-.76.264-.327.208-.512.544a1.45 1.45 0 0 0-.184.72q0 .4.216.712.216.304.6.472.392.168.896.168.665 0 1.184-.272a2 2 0 0 0 .808-.776q.288-.495.288-1.144v-2.6q0-.488-.224-.848a1.4 1.4 0 0 0-.624-.552 2.14 2.14 0 0 0-.952-.2 2.5 2.5 0 0 0-.976.176 1.7 1.7 0 0 0-.664.456 1.34 1.34 0 0 0-.312.616h-1.28a2.55 2.55 0 0 1 .528-1.2 2.95 2.95 0 0 1 1.128-.856q.697-.312 1.576-.312M657.639 18q-.584 0-1.064-.248a1.88 1.88 0 0 1-1.016-1.688l-.008-5.12h-1.44l.008-1.136h.888a.64.64 0 0 0 .488-.192.66.66 0 0 0 .192-.488v-1.32h1.152v2h2.216l-.008 1.136h-2.216l.008 5.04q0 .375.248.632a.88.88 0 0 0 .632.248h1.328V18zm3.425-8.192h1.28V18h-1.28zM661 6.8h1.408v1.456H661zm7.581 11.392a4.16 4.16 0 0 1-2.136-.56 4 4 0 0 1-1.496-1.536q-.544-.984-.544-2.192 0-1.207.544-2.184a4 4 0 0 1 1.496-1.544 4.16 4.16 0 0 1 2.136-.56 4.1 4.1 0 0 1 2.128.56q.96.56 1.504 1.544.544.976.544 2.184t-.544 2.192a4 4 0 0 1-1.504 1.536 4.1 4.1 0 0 1-2.128.56m0-1.168q.832 0 1.472-.392a2.7 2.7 0 0 0 1-1.104q.36-.712.36-1.624 0-.92-.36-1.624a2.6 2.6 0 0 0-1-1.104q-.64-.4-1.472-.4t-1.48.4q-.64.392-1 1.104-.352.704-.352 1.624 0 .913.352 1.624.36.704 1 1.104.648.392 1.48.392m6.242-7.216h1.232v3.544h-.512q0-1.136.392-1.976.392-.848 1.12-1.304t1.712-.456q.88 0 1.56.376.68.375 1.064 1.112.392.728.392 1.752V18h-1.28v-5.016q0-.712-.256-1.216a1.75 1.75 0 0 0-.712-.768q-.463-.264-1.104-.264-.688 0-1.216.304a2.1 2.1 0 0 0-.824.856 2.6 2.6 0 0 0-.288 1.248V18h-1.28z"/><mask id="b" width="380" height="622" x="562" y="688" maskUnits="userSpaceOnUse"><path stroke="#FFF" stroke-linecap="round" stroke-linejoin="round" stroke-width="3" d="M774.178 786.931V742.29m0 105.723v-44.641m-18.644 70.127h18.644v-9.067m-83.344 9.067h48.258m-110.987 0h52.873m93.2-147.651V689.88H580.843v183.619h37.406m125.69 212.441c-7.815-.02-15.538-.09-23.19-.18m62.821 0c-7.629.09-15.375.16-23.19.18"/><path stroke="#FFF" stroke-linecap="round" stroke-linejoin="round" stroke-width="3" d="M704.33 1085.48c-8.116-.16-16.14-.37-24.001-.6v223.15c23.306-.67 47.284-.99 71.726-.99h.719c24.28 0 47.98.34 71.008.99V1084.9c-7.792.23-15.723.44-23.77.6m-178.656-3.24c-20.013-1.21-38.634-2.69-55.493-4.41a1.475 1.475 0 0 0-1.577 1.78c5.983 26.42 9.972 60.58 10.899 98.38h84.319v-93.85c-7.374-.3-14.633-.63-21.729-1m228.769 0c-7.166.37-14.494.7-21.961 1v93.85h84.319c.951-37.8 4.916-71.96 10.899-98.38.232-.97-.579-1.87-1.577-1.78-16.789 1.69-35.318 3.18-55.238 4.38m10.412-267.796h-69.384v111.219h69.384z"/><mask id="a" width="114" height="65" x="769" y="1021" maskUnits="userSpaceOnUse"><path fill="#FFF" fill-rule="evenodd" d="M769.68 1085.39v-63.48h113.283v60.48c-35.342 1.53-74.069 2.86-113.283 3m36.91-45.39h36.263c7.935 0 14.368 5.82 14.368 13s-6.433 13-14.368 13H806.59c-7.936 0-14.369-5.82-14.369-13s6.433-13 14.369-13" clip-rule="evenodd"/></mask><g stroke="#FFF" stroke-linecap="round" stroke-linejoin="round" stroke-width="3" mask="url(#a)"><path d="m757.909 1041.5 127.5-127.5m-127.5 138.5 127.5-127.5m-127.5 138.5 127.5-127.5m-127.5 138.5 127.5-127.5m-127.5 138.5 127.5-127.5m-127.5 138.5 127.5-127.5m-127.5 138.5 127.5-127.5m-127.5 138.5 127.5-127.5m-127.5 138.5 127.5-127.5m-127.5 138.5 127.5-127.5m-127.5 138.5 127.5-127.5m-127.5 138.5 127.5-127.5m-127.5 138.5 127.5-127.5m-127.5 138.5 127.5-127.5m-127.5 138.5 127.5-127.5"/></g></mask><g mask="url(#b)"><path fill="url(#c)" d="M558.909 688h389v624h-389z"/></g><path fill="#19191C" d="M660.656 774.8h4.752q1.152 0 2.024.424a3.14 3.14 0 0 1 1.344 1.2q.48.776.48 1.792 0 1.024-.488 1.808-.48.776-1.368 1.208-.88.432-2.056.432h-2.696V786h-1.992zm4.632 5.184q.583 0 1.008-.216.432-.216.664-.608.24-.4.24-.936 0-.528-.24-.92a1.5 1.5 0 0 0-.664-.6q-.425-.216-1.008-.216h-2.64v3.496zm8.225-2.368q1.008 0 1.752.36t1.144 1.024.4 1.568V786h-1.872v-3.064h.496q0 1-.36 1.736a2.55 2.55 0 0 1-1.016 1.128q-.664.392-1.56.392-.784 0-1.408-.304a2.4 2.4 0 0 1-.968-.848 2.3 2.3 0 0 1-.344-1.232q0-.68.336-1.232.344-.56.944-.912.608-.36 1.392-.448l2.008-.224a.47.47 0 0 0 .344-.184q.128-.16.152-.464l.064 1.8-2.112.248a1.5 1.5 0 0 0-.624.208 1.2 1.2 0 0 0-.424.432 1.1 1.1 0 0 0-.152.576q0 .328.176.584t.496.392.736.136q.536 0 .944-.216.416-.223.64-.624.224-.408.224-.944v-2.56q0-.368-.176-.64a1.05 1.05 0 0 0-.496-.424 1.8 1.8 0 0 0-.76-.152q-.448 0-.784.136a1.3 1.3 0 0 0-.536.36 1 1 0 0 0-.24.512h-1.864q.088-.728.536-1.304a3 3 0 0 1 1.192-.912q.752-.336 1.72-.336m5.32.192h1.872v3.168l-.624.52q.024-1.152.384-1.992.367-.847 1.024-1.296.655-.456 1.528-.456h.304v1.904h-.528q-.633 0-1.104.232-.465.232-.72.664-.249.432-.248 1.024V786h-1.888zm8.022 8.192q-.672 0-1.16-.248a1.77 1.77 0 0 1-.752-.712q-.255-.464-.256-1.096v-8.184h1.888v2.048h2.176l-.008 1.64h-2.176l.008 4.256q0 .304.176.48.177.176.488.176h1.504V786zm3.269.888h1.28a.8.8 0 0 0 .464-.144.97.97 0 0 0 .336-.392l.336-.712-3.144-7.832h1.96l2.144 5.64 2.008-5.64h1.92l-3.544 9.008a2.83 2.83 0 0 1-.92 1.264q-.616.48-1.456.48h-1.384zM642.343 887.8l2.608 8.664 2.504-8.664h2.112l2.56 8.664 2.528-8.664h2.024l-3.456 11.2h-2.208l-2.528-8.624-2.552 8.624h-2.2l-3.464-11.2zm20.489 11.392q-1.6 0-2.896-.752a5.5 5.5 0 0 1-2.032-2.08q-.736-1.328-.736-2.96t.736-2.952a5.44 5.44 0 0 1 2.032-2.08q1.296-.76 2.896-.76 1.335 0 2.456.496a4.96 4.96 0 0 1 1.864 1.384 4.84 4.84 0 0 1 1.024 2.04h-2.096q-.233-.64-.704-1.12a3.1 3.1 0 0 0-1.12-.736 3.8 3.8 0 0 0-1.408-.256q-1.032 0-1.872.52-.833.512-1.304 1.424-.472.904-.472 2.04t.472 2.048a3.6 3.6 0 0 0 1.304 1.424 3.53 3.53 0 0 0 1.872.512q.76 0 1.408-.256.655-.256 1.12-.736.471-.48.704-1.12h2.096a4.9 4.9 0 0 1-1.024 2.048 5.1 5.1 0 0 1-1.864 1.384 6.1 6.1 0 0 1-2.456.488M843.343 794.8l2.608 8.664 2.504-8.664h2.112l2.56 8.664 2.528-8.664h2.024l-3.456 11.2h-2.208l-2.528-8.624-2.552 8.624h-2.2l-3.464-11.2zm20.489 11.392q-1.6 0-2.896-.752a5.5 5.5 0 0 1-2.032-2.08q-.736-1.328-.736-2.96t.736-2.952a5.44 5.44 0 0 1 2.032-2.08q1.296-.76 2.896-.76 1.335 0 2.456.496a4.96 4.96 0 0 1 1.864 1.384 4.84 4.84 0 0 1 1.024 2.04h-2.096q-.233-.64-.704-1.12a3.1 3.1 0 0 0-1.12-.736 3.8 3.8 0 0 0-1.408-.256q-1.032 0-1.872.52-.833.512-1.304 1.424-.472.904-.472 2.04t.472 2.048a3.6 3.6 0 0 0 1.304 1.424 3.53 3.53 0 0 0 1.872.512q.76 0 1.408-.256.655-.256 1.12-.736.471-.48.704-1.12h2.096a4.9 4.9 0 0 1-1.024 2.048 5.1 5.1 0 0 1-1.864 1.384 6.1 6.1 0 0 1-2.456.488m-9.43 58.76h-2.72v-1.736h1.568q.776 0 1.208-.408t.424-1.168h1.464V873h-1.944zm8.389 8.24a4.7 4.7 0 0 1-1.952-.4 3.9 3.9 0 0 1-1.464-1.12 3.1 3.1 0 0 1-.672-1.592h1.968q.096.408.4.736.305.32.744.504.449.176.968.176.624 0 1.112-.288a2 2 0 0 0 .768-.792q.28-.511.28-1.152t-.28-1.144a2 2 0 0 0-.768-.8 2.1 2.1 0 0 0-1.112-.296q-.432 0-.816.144-.384.136-.672.368a1.7 1.7 0 0 0-.424.504h-1.856l.48-6.24h6.824v1.768h-5.2l-.232 2.912q.208-.304.568-.536.369-.232.832-.36.465-.128.96-.128 1.048 0 1.888.496t1.312 1.36q.472.856.472 1.928 0 1.12-.536 2.024a3.77 3.77 0 0 1-1.48 1.416q-.936.512-2.112.512m-55.18 173.608h7.944v1.77h-6v2.93h5.456v1.73h-5.456v3h6.16v1.77h-8.104zm12.386 7.66-.296-.35-3.04-4.3h2.152l2.24 3.24.256.29 3.216 4.66h-2.152zm-.2-1.22.416-.37 2.032-3.06h2.112l-2.944 4.29-.504.47-2.224 3.43h-2.112zm7.808-3.43v1.59h.04v9.16h-1.888v-10.75zm2.832 8.38q-1.017 0-1.784-.45a3.04 3.04 0 0 1-1.184-1.26c-.283-.54-.43-1.18-.44-1.9h.568v-1.36h-.568q.015-1.08.44-1.89c.282-.55.68-.97 1.192-1.27.512-.29 1.104-.44 1.776-.44.73 0 1.381.18 1.952.55q.863.54 1.352 1.53c.325.65.488 1.38.488 2.2 0 .83-.163 1.56-.488 2.22a3.8 3.8 0 0 1-1.352 1.53q-.864.54-1.952.54m-.464-1.68q.68 0 1.2-.33c.352-.22.626-.53.824-.92s.296-.84.296-1.36q0-.765-.296-1.35c-.198-.39-.472-.7-.824-.92a2.2 2.2 0 0 0-1.2-.33q-.68 0-1.216.33c-.352.22-.627.53-.824.92q-.288.585-.288 1.35c0 .52.096.97.288 1.36.197.39.472.7.824.92q.535.33 1.216.33m9.642 1.68c-.806 0-1.539-.18-2.2-.56a4.03 4.03 0 0 1-1.544-1.53 4.4 4.4 0 0 1-.56-2.2c0-.8.186-1.53.56-2.18.373-.66.888-1.17 1.544-1.54.661-.38 1.394-.56 2.2-.56.81 0 1.544.18 2.2.56.656.37 1.17.88 1.544 1.54.373.65.56 1.38.56 2.18 0 .81-.187 1.54-.56 2.2a4 4 0 0 1-1.552 1.53c-.656.38-1.387.56-2.192.56m0-1.69c.458 0 .864-.11 1.216-.32.357-.22.634-.53.832-.92.197-.4.296-.85.296-1.36q0-.765-.296-1.35c-.198-.39-.475-.7-.832-.92a2.25 2.25 0 0 0-1.216-.33c-.459 0-.867.11-1.224.32-.352.22-.627.53-.824.92-.198.4-.296.85-.296 1.36s.098.96.296 1.36c.197.39.472.7.824.92.357.21.765.32 1.224.32m-223.754-39.44h2.184l2.968 4.94h-2.288zm-3.696-6.26h4.752q1.152 0 2.024.42.871.435 1.344 1.2.48.78.48 1.8t-.488 1.8c-.32.52-.776.92-1.368 1.21-.587.29-1.272.43-2.056.43h-2.696v4.34h-1.992zm4.632 5.18q.583 0 1.008-.21c.288-.15.509-.35.664-.61.16-.27.24-.58.24-.94 0-.35-.08-.65-.24-.92a1.53 1.53 0 0 0-.664-.6q-.424-.21-1.008-.21h-2.64v3.49zm9.283 6.21c-.8 0-1.523-.18-2.168-.55a3.96 3.96 0 0 1-1.52-1.54c-.368-.65-.552-1.39-.552-2.21q0-1.215.552-2.19c.373-.65.882-1.16 1.528-1.52.65-.38 1.37-.56 2.16-.56q1.216 0 2.152.54a3.8 3.8 0 0 1 1.472 1.52c.352.65.528 1.38.528 2.22v.45h-6.496l.016-.41c0 .54.098 1.02.296 1.43.197.4.469.72.816.94q.528.33 1.224.33c.405 0 .765-.07 1.08-.22.32-.16.584-.38.792-.67h2.032c-.203.5-.491.94-.864 1.3-.368.36-.814.64-1.336.85-.518.19-1.088.29-1.712.29m-2.344-5.09h4.616v.72c0-.52-.094-.99-.28-1.39s-.454-.72-.8-.93c-.342-.23-.739-.34-1.192-.34q-.688 0-1.216.33a2.23 2.23 0 0 0-.824.93c-.192.39-.288.85-.288 1.37zm11.848 7.65c-.656 0-1.258-.1-1.808-.31-.549-.21-1.005-.5-1.368-.88a2.67 2.67 0 0 1-.696-1.3h1.88q.081.27.36.48.288.21.704.33.425.12.92.12.64 0 1.144-.24c.336-.16.598-.38.784-.68.192-.29.288-.62.288-1.01v-.48l.072-2.28.664-.69q-.015 1.095-.44 1.95c-.282.56-.68.99-1.192 1.3-.506.31-1.098.46-1.776.46a3.7 3.7 0 0 1-1.912-.5 3.57 3.57 0 0 1-1.296-1.41q-.464-.9-.464-2.04t.464-2.04 1.296-1.41c.56-.34 1.198-.5 1.912-.5.678 0 1.27.15 1.776.46.512.3.91.74 1.192 1.3.283.56.43 1.22.44 1.97l-.664-.62v-2.92h1.832l-.024 7.45c0 .69-.173 1.3-.52 1.82q-.512.795-1.44 1.23c-.618.3-1.328.44-2.128.44m.016-4.84c.432 0 .816-.09 1.152-.29.336-.19.595-.47.776-.83.187-.36.283-.76.288-1.22a2.7 2.7 0 0 0-.288-1.23c-.181-.35-.44-.63-.776-.83s-.72-.29-1.152-.29c-.437 0-.824.09-1.16.29s-.594.48-.776.83q-.272.54-.272 1.23c0 .46.091.86.272 1.22s.44.64.776.83c.336.2.723.29 1.16.29m6.418-6.1h1.888v8.19h-1.888zm-.064-3.01h2.016v1.83h-2.016zm7.178 11.39c-.667 0-1.264-.1-1.792-.31q-.784-.315-1.248-.9a2.34 2.34 0 0 1-.52-1.33h1.888c.032.22.12.4.264.56q.223.225.576.36.36.12.824.12c.293 0 .557-.04.792-.13s.416-.2.544-.35a.82.82 0 0 0 .088-.95.84.84 0 0 0-.304-.3 1.1 1.1 0 0 0-.448-.17l-1.816-.3a2.95 2.95 0 0 1-1.144-.43 2.5 2.5 0 0 1-.76-.84 2.26 2.26 0 0 1-.264-1.08c0-.49.131-.92.392-1.3q.392-.57 1.112-.9c.485-.21 1.043-.32 1.672-.32q.928 0 1.664.3c.491.2.88.49 1.168.86.293.38.461.81.504 1.32h-1.88a1.03 1.03 0 0 0-.248-.54 1.4 1.4 0 0 0-.512-.36c-.208-.09-.44-.13-.696-.13-.267 0-.504.04-.712.13-.203.08-.36.19-.472.34a.84.84 0 0 0-.168.52c0 .14.035.27.104.37q.104.165.304.27c.139.07.312.12.52.16l1.8.31q.648.105 1.136.45t.744.87q.264.51.264 1.11c0 .5-.149.94-.448 1.34-.293.4-.699.71-1.216.92q-.768.33-1.712.33m7.926-.19a2.45 2.45 0 0 1-1.184-.28 2.1 2.1 0 0 1-.816-.78c-.192-.33-.288-.7-.288-1.12l-.008-4.37h-1.44l.008-1.64h.896c.203 0 .365-.06.488-.19a.66.66 0 0 0 .184-.48v-1.33h1.76v2h2.176l-.008 1.64h-2.176l.008 4.13c0 .23.072.41.216.56.149.15.336.22.56.22h1.392v1.64zm3.426-8.19h1.872v3.17l-.624.52c.016-.77.144-1.44.384-2q.368-.84 1.024-1.29c.437-.31.947-.46 1.528-.46h.304v1.91h-.528c-.421 0-.789.07-1.104.23q-.463.225-.72.66c-.165.29-.248.63-.248 1.03v4.42h-1.888zm8.955-.19q1.008 0 1.752.36t1.144 1.02c.266.44.4.97.4 1.57v5.43h-1.872v-3.06h.496c0 .66-.12 1.24-.36 1.73-.235.49-.574.87-1.016 1.13q-.664.39-1.56.39-.784 0-1.408-.3c-.411-.2-.734-.49-.968-.85q-.345-.555-.344-1.23 0-.69.336-1.23c.229-.38.544-.68.944-.92.405-.24.869-.39 1.392-.44l2.008-.23a.47.47 0 0 0 .344-.18c.085-.11.136-.26.152-.47l.064 1.8-2.112.25q-.352.045-.624.21c-.182.11-.323.26-.424.43-.102.17-.152.36-.152.58s.058.41.176.58q.175.255.496.39c.213.09.458.14.736.14.357 0 .672-.07.944-.22.277-.15.49-.35.64-.62.149-.27.224-.59.224-.94v-2.56c0-.25-.059-.46-.176-.64a1.07 1.07 0 0 0-.496-.43 1.8 1.8 0 0 0-.76-.15c-.299 0-.56.05-.784.14q-.336.12-.536.36a.94.94 0 0 0-.24.51h-1.864c.058-.49.237-.92.536-1.31.298-.39.696-.69 1.192-.91q.751-.33 1.72-.33m8.335 8.38a2.45 2.45 0 0 1-1.184-.28 2.1 2.1 0 0 1-.816-.78c-.192-.33-.288-.7-.288-1.12l-.008-4.37h-1.44l.008-1.64h.896c.203 0 .366-.06.488-.19a.66.66 0 0 0 .184-.48v-1.33h1.76v2h2.176l-.008 1.64h-2.176l.008 4.13c0 .23.072.41.216.56.15.15.336.22.56.22h1.392v1.64zm3.426-8.19h1.888v8.19H681.2zm-.064-3.01h2.016v1.83h-2.016zm7.906 11.39c-.805 0-1.538-.18-2.2-.56a4.04 4.04 0 0 1-1.544-1.53 4.4 4.4 0 0 1-.56-2.2c0-.8.187-1.53.56-2.18.374-.66.888-1.17 1.544-1.54.662-.38 1.395-.56 2.2-.56.811 0 1.544.18 2.2.56.656.37 1.171.88 1.544 1.54.374.65.56 1.38.56 2.18 0 .81-.186 1.54-.56 2.2a4 4 0 0 1-1.552 1.53c-.656.38-1.386.56-2.192.56m0-1.69c.459 0 .864-.11 1.216-.32.358-.22.635-.53.832-.92.198-.4.296-.85.296-1.36q0-.765-.296-1.35a2.24 2.24 0 0 0-.832-.92 2.25 2.25 0 0 0-1.216-.33c-.458 0-.866.11-1.224.32-.352.22-.626.53-.824.92-.197.4-.296.85-.296 1.36s.099.96.296 1.36c.198.39.472.7.824.92.358.21.766.32 1.224.32m5.964-6.69h1.832v3.41h-.544c0-.73.125-1.37.376-1.91.256-.54.616-.96 1.08-1.25.469-.3 1.019-.44 1.648-.44.587 0 1.101.12 1.544.38q.664.39 1.032 1.11.368.735.368 1.74v5.15h-1.88v-4.86c0-.4-.067-.73-.2-1.01a1.37 1.37 0 0 0-.576-.63 1.7 1.7 0 0 0-.896-.23c-.373 0-.704.09-.992.26-.288.16-.512.4-.672.69-.155.3-.232.65-.232 1.04v4.74h-1.888zm27.237 166.99h1.944v5.08l4.624-5.08h2.392l-4.92 5.4 5.024 5.8h-2.464l-4.656-5.34v5.34h-1.944zm13.29 11.39c-.8 0-1.523-.18-2.168-.55a3.97 3.97 0 0 1-1.52-1.54c-.368-.65-.552-1.39-.552-2.21q0-1.215.552-2.19a3.97 3.97 0 0 1 1.528-1.52c.651-.38 1.371-.56 2.16-.56q1.216 0 2.152.54a3.8 3.8 0 0 1 1.472 1.52c.352.65.528 1.38.528 2.22v.45h-6.496l.016-.41c0 .54.099 1.02.296 1.43.197.4.469.72.816.94q.528.33 1.224.33c.405 0 .765-.07 1.08-.22.32-.16.584-.38.792-.67h2.032c-.203.5-.491.94-.864 1.3-.368.36-.813.64-1.336.85-.517.19-1.088.29-1.712.29m-2.344-5.09h4.616v.72c0-.52-.093-.99-.28-1.39s-.453-.72-.8-.93c-.341-.23-.739-.34-1.192-.34q-.688 0-1.216.33a2.23 2.23 0 0 0-.824.93c-.192.39-.288.85-.288 1.37zm7.779 5.79h1.28q.256 0 .464-.15a.97.97 0 0 0 .336-.39l.336-.71-3.144-7.83h1.96l2.144 5.64 2.008-5.64h1.92l-3.544 9.01c-.203.52-.509.95-.92 1.26q-.616.48-1.456.48h-1.384zm8.409-9.08h1.832v3.41h-.544c0-.73.126-1.37.376-1.91.256-.54.616-.96 1.08-1.25.47-.3 1.019-.44 1.648-.44.587 0 1.102.12 1.544.38q.664.39 1.032 1.11.369.735.368 1.74v5.15h-1.88v-4.86c0-.4-.066-.73-.2-1.01a1.37 1.37 0 0 0-.576-.63c-.25-.15-.549-.23-.896-.23-.373 0-.704.09-.992.26-.288.16-.512.4-.672.69-.154.3-.232.65-.232 1.04v4.74h-1.888zm13.108 8.38c-.805 0-1.538-.18-2.2-.56a4.04 4.04 0 0 1-1.544-1.53 4.4 4.4 0 0 1-.56-2.2c0-.8.187-1.53.56-2.18.374-.66.888-1.17 1.544-1.54.662-.38 1.395-.56 2.2-.56.811 0 1.544.18 2.2.56.656.37 1.171.88 1.544 1.54.374.65.56 1.38.56 2.18 0 .81-.186 1.54-.56 2.2a4 4 0 0 1-1.552 1.53c-.656.38-1.386.56-2.192.56m0-1.69c.459 0 .864-.11 1.216-.32.358-.22.635-.53.832-.92.198-.4.296-.85.296-1.36q0-.765-.296-1.35a2.24 2.24 0 0 0-.832-.92 2.25 2.25 0 0 0-1.216-.33c-.458 0-.866.11-1.224.32-.352.22-.626.53-.824.92-.197.4-.296.85-.296 1.36s.099.96.296 1.36c.198.39.472.7.824.92.358.21.766.32 1.224.32m8.933 1.5c-.438 0-.832-.09-1.184-.28a2.1 2.1 0 0 1-.816-.78c-.192-.33-.288-.7-.288-1.12l-.008-4.37h-1.44l.008-1.64h.896a.64.64 0 0 0 .672-.67v-1.33h1.76v2h2.176l-.008 1.64h-2.176l.008 4.13c0 .23.072.41.216.56.149.15.336.22.56.22h1.392v1.64zm7.028.19c-.8 0-1.523-.18-2.168-.55a3.96 3.96 0 0 1-1.52-1.54c-.368-.65-.552-1.39-.552-2.21q0-1.215.552-2.19c.373-.65.882-1.16 1.528-1.52.65-.38 1.37-.56 2.16-.56q1.216 0 2.152.54a3.8 3.8 0 0 1 1.472 1.52c.352.65.528 1.38.528 2.22v.45h-6.496l.016-.41c0 .54.098 1.02.296 1.43.197.4.469.72.816.94q.528.33 1.224.33c.405 0 .765-.07 1.08-.22.32-.16.584-.38.792-.67h2.032c-.203.5-.491.94-.864 1.3-.368.36-.814.64-1.336.85-.518.19-1.088.29-1.712.29m-2.344-5.09h4.616v.72c0-.52-.094-.99-.28-1.39s-.454-.72-.8-.93c-.342-.23-.739-.34-1.192-.34q-.688 0-1.216.33a2.23 2.23 0 0 0-.824.93c-.192.39-.288.85-.288 1.37zm-42.901 16.71h1.872v3.17l-.624.52c.016-.77.144-1.44.384-2q.369-.84 1.024-1.29c.438-.31.947-.46 1.528-.46h.304v1.91h-.528c-.421 0-.789.07-1.104.23q-.463.225-.72.66c-.165.29-.248.63-.248 1.03v4.42h-1.888zm9.592 8.38c-.805 0-1.538-.18-2.2-.56a4.04 4.04 0 0 1-1.544-1.53 4.4 4.4 0 0 1-.56-2.2c0-.8.187-1.53.56-2.18.374-.66.888-1.17 1.544-1.54.662-.38 1.395-.56 2.2-.56.811 0 1.544.18 2.2.56.656.37 1.171.88 1.544 1.54.374.65.56 1.38.56 2.18 0 .81-.186 1.54-.56 2.2a4 4 0 0 1-1.552 1.53c-.656.38-1.386.56-2.192.56m0-1.69c.459 0 .864-.11 1.216-.32.358-.22.635-.53.832-.92.198-.4.296-.85.296-1.36q0-.765-.296-1.35a2.24 2.24 0 0 0-.832-.92 2.25 2.25 0 0 0-1.216-.33c-.458 0-.866.11-1.224.32-.352.22-.626.53-.824.92-.197.4-.296.85-.296 1.36s.099.96.296 1.36c.198.39.472.7.824.92.358.21.766.32 1.224.32m9.708 1.69c-.806 0-1.539-.18-2.2-.56a4.03 4.03 0 0 1-1.544-1.53 4.4 4.4 0 0 1-.56-2.2c0-.8.186-1.53.56-2.18.373-.66.888-1.17 1.544-1.54.661-.38 1.394-.56 2.2-.56.81 0 1.544.18 2.2.56.656.37 1.17.88 1.544 1.54.373.65.56 1.38.56 2.18 0 .81-.187 1.54-.56 2.2a4 4 0 0 1-1.552 1.53c-.656.38-1.387.56-2.192.56m0-1.69c.458 0 .864-.11 1.216-.32.357-.22.634-.53.832-.92.197-.4.296-.85.296-1.36q0-.765-.296-1.35c-.198-.39-.475-.7-.832-.92a2.25 2.25 0 0 0-1.216-.33c-.459 0-.867.11-1.224.32-.352.22-.627.53-.824.92-.198.4-.296.85-.296 1.36s.098.96.296 1.36c.197.39.472.7.824.92.357.21.765.32 1.224.32m5.963-6.69h1.832v3.41h-.48q.009-1.11.36-1.92c.235-.54.568-.96 1-1.24.438-.3.952-.44 1.544-.44.582 0 1.083.13 1.504.4.427.26.755.63.984 1.12.23.48.344 1.05.344 1.69v5.17h-1.848v-4.94q0-.555-.192-.96a1.36 1.36 0 0 0-.544-.61c-.234-.15-.517-.22-.848-.22q-.535 0-.936.24-.4.24-.616.69t-.216 1.05v4.75h-1.888zm10.44 3.25q0-.555-.192-.96a1.37 1.37 0 0 0-.536-.61c-.234-.15-.517-.22-.848-.22q-.528 0-.936.24-.399.24-.624.69-.216.45-.216 1.05l-.784-.03c0-.71.128-1.34.384-1.88.256-.55.619-.98 1.088-1.28.47-.29 1.019-.44 1.648-.44.582 0 1.091.13 1.528.4.443.26.782.63 1.016 1.12.24.48.36 1.05.36 1.69v5.17h-1.888zm94.343-83.26v9.4h5.4v1.8h-7.384v-11.2zm10.339 11.39c-.806 0-1.539-.18-2.2-.56a4.03 4.03 0 0 1-1.544-1.53 4.4 4.4 0 0 1-.56-2.2c0-.8.186-1.53.56-2.18.373-.66.888-1.17 1.544-1.54.661-.38 1.394-.56 2.2-.56.81 0 1.544.18 2.2.56.656.37 1.17.88 1.544 1.54.373.65.56 1.38.56 2.18 0 .81-.187 1.54-.56 2.2a4 4 0 0 1-1.552 1.53c-.656.38-1.387.56-2.192.56m0-1.69c.458 0 .864-.11 1.216-.32.357-.22.634-.53.832-.92.197-.4.296-.85.296-1.36q0-.765-.296-1.35c-.198-.39-.475-.7-.832-.92a2.25 2.25 0 0 0-1.216-.33c-.459 0-.867.11-1.224.32-.352.22-.627.53-.824.92-.198.4-.296.85-.296 1.36s.098.96.296 1.36c.197.39.472.7.824.92.357.21.765.32 1.224.32m13.123 1.5h-1.832v-3.41h.536c0 .73-.125 1.37-.376 1.91-.25.54-.61.96-1.08 1.25-.464.3-1.013.44-1.648.44-.586 0-1.101-.13-1.544-.38a2.73 2.73 0 0 1-1.032-1.11q-.368-.735-.368-1.74v-5.15h1.888v4.86c0 .4.067.73.2 1.01.134.28.323.49.568.64.251.14.552.22.904.22.374 0 .704-.09.992-.25.288-.17.51-.41.664-.71.16-.29.24-.64.24-1.03v-4.74h1.888zm2.235-8.19h1.832v3.41h-.544c0-.73.126-1.37.376-1.91.256-.54.616-.96 1.08-1.25.47-.3 1.019-.44 1.648-.44.587 0 1.102.12 1.544.38q.664.39 1.032 1.11.369.735.368 1.74v5.15h-1.88v-4.86c0-.4-.066-.73-.2-1.01a1.37 1.37 0 0 0-.576-.63c-.25-.15-.549-.23-.896-.23-.373 0-.704.09-.992.26-.288.16-.512.4-.672.69-.154.3-.232.65-.232 1.04v4.74h-1.888zm13.06 10.94c-.656 0-1.259-.1-1.808-.31s-1.005-.5-1.368-.88a2.67 2.67 0 0 1-.696-1.3h1.88q.08.27.36.48.288.21.704.33.424.12.92.12.64 0 1.144-.24c.336-.16.597-.38.784-.68.192-.29.288-.62.288-1.01v-.48l.072-2.28.664-.69q-.016 1.095-.44 1.95c-.283.56-.68.99-1.192 1.3-.507.31-1.099.46-1.776.46-.715 0-1.352-.17-1.912-.5a3.56 3.56 0 0 1-1.296-1.41q-.464-.9-.464-2.04t.464-2.04a3.5 3.5 0 0 1 1.296-1.41c.56-.34 1.197-.5 1.912-.5.677 0 1.269.15 1.776.46.512.3.909.74 1.192 1.3s.429 1.22.44 1.97l-.664-.62v-2.92h1.832l-.024 7.45c0 .69-.173 1.3-.52 1.82q-.512.795-1.44 1.23c-.619.3-1.328.44-2.128.44m.016-4.84c.432 0 .816-.09 1.152-.29.336-.19.595-.47.776-.83.187-.36.283-.76.288-1.22a2.7 2.7 0 0 0-.288-1.23c-.181-.35-.44-.63-.776-.83s-.72-.29-1.152-.29c-.437 0-.824.09-1.16.29s-.595.48-.776.83q-.272.54-.272 1.23c0 .46.091.86.272 1.22s.44.64.776.83c.336.2.723.29 1.16.29m10.097 2.28c-.8 0-1.522-.18-2.168-.55a3.97 3.97 0 0 1-1.52-1.54c-.368-.65-.552-1.39-.552-2.21q0-1.215.552-2.19c.374-.65.883-1.16 1.528-1.52.651-.38 1.371-.56 2.16-.56q1.216 0 2.152.54c.63.36 1.12.87 1.472 1.52s.528 1.38.528 2.22v.45h-6.496l.016-.41c0 .54.099 1.02.296 1.43.198.4.47.72.816.94q.528.33 1.224.33c.406 0 .766-.07 1.08-.22.32-.16.584-.38.792-.67h2.032c-.202.5-.49.94-.864 1.3-.368.36-.813.64-1.336.85-.517.19-1.088.29-1.712.29m-2.344-5.09h4.616v.72c0-.52-.093-.99-.28-1.39-.186-.4-.453-.72-.8-.93-.341-.23-.738-.34-1.192-.34q-.687 0-1.216.33t-.824.93c-.192.39-.288.85-.288 1.37zm-321.231-6.3h1.992v4.58h5.048v-4.58h1.984v11.2h-1.984v-4.82h-5.048v4.82h-1.992zm14.623 2.82q1.008 0 1.752.36t1.144 1.02c.267.44.4.97.4 1.57v5.43h-1.872v-3.06h.496c0 .66-.12 1.24-.36 1.73-.235.49-.573.87-1.016 1.13q-.664.39-1.56.39-.784 0-1.408-.3c-.411-.2-.733-.49-.968-.85a2.3 2.3 0 0 1-.344-1.23q0-.69.336-1.23c.229-.38.544-.68.944-.92.405-.24.869-.39 1.392-.44l2.008-.23a.47.47 0 0 0 .344-.18c.085-.11.136-.26.152-.47l.064 1.8-2.112.25q-.352.045-.624.21c-.181.11-.323.26-.424.43s-.152.36-.152.58.059.41.176.58q.176.255.496.39c.213.09.459.14.736.14.357 0 .672-.07.944-.22.277-.15.491-.35.64-.62s.224-.59.224-.94v-2.56c0-.25-.059-.46-.176-.64a1.07 1.07 0 0 0-.496-.43q-.32-.15-.76-.15c-.299 0-.56.05-.784.14q-.336.12-.536.36a.96.96 0 0 0-.24.51h-1.864c.059-.49.237-.92.536-1.31s.696-.69 1.192-.91q.752-.33 1.72-.33m5.432-2.82h1.888v11.2h-1.888zm4.317 0h1.888v11.2h-1.888zm8.916 0h4.2q1.584 0 2.832.72c.837.48 1.49 1.14 1.96 1.99.469.85.704 1.81.704 2.89s-.235 2.04-.704 2.89a5.1 5.1 0 0 1-1.96 1.99q-1.248.72-2.832.72h-4.2zm4.184 9.46c.693 0 1.301-.15 1.824-.47.528-.31.933-.76 1.216-1.34.288-.58.432-1.27.432-2.05s-.144-1.47-.432-2.05a3.1 3.1 0 0 0-1.216-1.34c-.523-.32-1.131-.47-1.824-.47h-2.192v7.72zm6.918.11 4.56-4.07c.389-.35.674-.69.856-1.03.186-.34.28-.7.28-1.07s-.08-.69-.24-.97-.387-.5-.68-.65a2.1 2.1 0 0 0-1.016-.24c-.406 0-.768.09-1.088.28-.32.17-.568.42-.744.74-.176.31-.264.67-.264 1.07h-1.96a3.85 3.85 0 0 1 .528-1.97c.352-.58.837-1.03 1.456-1.36.624-.33 1.325-.49 2.104-.49q1.112 0 2 .45.888.435 1.384 1.23.495.78.496 1.77c0 .61-.16 1.2-.48 1.78-.32.57-.803 1.15-1.448 1.73l-2.952 2.66h5.184v1.77h-7.976zm-134.197-94.57h7.944v1.77h-6v2.93h5.456v1.73h-5.456v3h6.16v1.77h-8.104zm9.938 3.01h1.832v3.41h-.544c0-.73.125-1.37.376-1.91.256-.54.616-.96 1.08-1.25.469-.3 1.018-.44 1.648-.44.586 0 1.101.12 1.544.38q.663.39 1.032 1.11.368.735.368 1.74v5.15h-1.88v-4.86c0-.4-.067-.73-.2-1.01a1.4 1.4 0 0 0-.576-.63c-.251-.15-.55-.23-.896-.23-.374 0-.704.09-.992.26-.288.16-.512.4-.672.69-.155.3-.232.65-.232 1.04v4.74h-1.888zm12.38 8.19c-.438 0-.832-.09-1.184-.28a2.1 2.1 0 0 1-.816-.78c-.192-.33-.288-.7-.288-1.12l-.008-4.37h-1.44l.008-1.64h.896a.64.64 0 0 0 .672-.67v-1.33h1.76v2h2.176l-.008 1.64h-2.176l.008 4.13c0 .23.072.41.216.56.149.15.336.22.56.22h1.392v1.64zm3.425-8.19h1.872v3.17l-.624.52c.016-.77.144-1.44.384-2q.369-.84 1.024-1.29c.438-.31.947-.46 1.528-.46h.304v1.91h-.528c-.421 0-.789.07-1.104.23q-.463.225-.72.66c-.165.29-.248.63-.248 1.03v4.42h-1.888zm8.955-.19q1.008 0 1.752.36t1.144 1.02c.267.44.4.97.4 1.57v5.43h-1.872v-3.06h.496c0 .66-.12 1.24-.36 1.73-.235.49-.573.87-1.016 1.13q-.664.39-1.56.39-.784 0-1.408-.3c-.411-.2-.733-.49-.968-.85a2.3 2.3 0 0 1-.344-1.23q0-.69.336-1.23c.229-.38.544-.68.944-.92.405-.24.869-.39 1.392-.44l2.008-.23a.47.47 0 0 0 .344-.18c.085-.11.136-.26.152-.47l.064 1.8-2.112.25q-.352.045-.624.21c-.181.11-.323.26-.424.43s-.152.36-.152.58.059.41.176.58q.176.255.496.39c.213.09.459.14.736.14.357 0 .672-.07.944-.22.277-.15.491-.35.64-.62s.224-.59.224-.94v-2.56c0-.25-.059-.46-.176-.64a1.07 1.07 0 0 0-.496-.43q-.32-.15-.76-.15c-.299 0-.56.05-.784.14q-.336.12-.536.36a.96.96 0 0 0-.24.51h-1.864c.059-.49.237-.92.536-1.31s.696-.69 1.192-.91q.752-.33 1.72-.33m5.32.19h1.832v3.41h-.544c0-.73.125-1.37.376-1.91.256-.54.616-.96 1.08-1.25.469-.3 1.018-.44 1.648-.44.586 0 1.101.12 1.544.38q.663.39 1.032 1.11.368.735.368 1.74v5.15h-1.88v-4.86c0-.4-.067-.73-.2-1.01a1.4 1.4 0 0 0-.576-.63c-.251-.15-.55-.23-.896-.23-.374 0-.704.09-.992.26-.288.16-.512.4-.672.69-.155.3-.232.65-.232 1.04v4.74h-1.888zm13.06 8.38c-.806 0-1.531-.18-2.176-.56a4.06 4.06 0 0 1-1.528-1.53 4.43 4.43 0 0 1-.552-2.2c0-.8.184-1.53.552-2.18.373-.66.882-1.17 1.528-1.54.645-.38 1.37-.56 2.176-.56.656 0 1.261.12 1.816.38a3.86 3.86 0 0 1 2.176 2.64h-2a2.1 2.1 0 0 0-.464-.71c-.192-.2-.419-.36-.68-.47a2 2 0 0 0-.848-.17q-.657 0-1.184.33a2.34 2.34 0 0 0-.816.94c-.198.39-.296.84-.296 1.34q0 .75.296 1.35.296.585.816.93c.352.23.746.34 1.184.34.304 0 .586-.06.848-.17.261-.11.488-.26.68-.46q.296-.3.464-.72h2c-.144.6-.406 1.12-.784 1.58a3.9 3.9 0 0 1-1.392 1.07c-.555.25-1.16.37-1.816.37m9.254 0c-.8 0-1.523-.18-2.168-.55a3.96 3.96 0 0 1-1.52-1.54c-.368-.65-.552-1.39-.552-2.21q0-1.215.552-2.19c.373-.65.882-1.16 1.528-1.52.65-.38 1.37-.56 2.16-.56q1.216 0 2.152.54a3.8 3.8 0 0 1 1.472 1.52c.352.65.528 1.38.528 2.22v.45h-6.496l.016-.41c0 .54.098 1.02.296 1.43.197.4.469.72.816.94q.528.33 1.224.33c.405 0 .765-.07 1.08-.22.32-.16.584-.38.792-.67h2.032c-.203.5-.491.94-.864 1.3-.368.36-.814.64-1.336.85-.518.19-1.088.29-1.712.29m-2.344-5.09h4.616v.72c0-.52-.094-.99-.28-1.39s-.454-.72-.8-.93c-.342-.23-.739-.34-1.192-.34q-.688 0-1.216.33a2.23 2.23 0 0 0-.824.93c-.192.39-.288.85-.288 1.37zm17.631 2.98 2.648-2.65h-8.128v-1.85h8.112l-2.624-2.6 1.288-1.24 4.728 4.75-4.744 4.86zm93.841-60.022h-1.577v-4.94h5.635v-4.128h5.658v-4.151h5.658v-4.128h6.447v1.577h-4.87v4.151h-5.635v4.128h-5.658v4.151h-5.658zm99.763 23.232h-1.6v-4.94h5.658v-4.12h5.635v-4.154h5.659v-4.128h6.446v1.6h-4.846v4.128h-5.659v4.124h-5.658v4.15h-5.635zm125.133 0h-1.6v-4.94h5.658v-4.12h5.659v-4.154h5.635v-4.128h6.447v1.6h-4.847v4.128h-5.658v4.124h-5.659v4.15h-5.635zM800.6 848.987H799v-4.939h5.658v-4.128h5.659v-4.128h5.635v-4.151h6.447v1.6h-4.847v4.128h-5.658v4.128h-5.636v4.151H800.6zm-96.477 88.261a3.256 3.256 0 0 1 3.246 3.246 3.247 3.247 0 0 1-3.2 3.247h-.835v3.177h1.6v-1.67a4.814 4.814 0 0 0 4.035-4.754c0-2.388-2.156-4.823-4.823-4.823a4.82 4.82 0 0 0-4.824 4.823h1.577a3.256 3.256 0 0 1 3.247-3.246zm4.846 11.201h-9.021c-3.872 0-7.165 2.574-8.278 6.099h1.669c1.044-2.644 3.595-4.522 6.609-4.522h9.021c2.992 0 5.566 1.878 6.61 4.522h1.669a8.67 8.67 0 0 0-8.279-6.099m38.94-26.168c-5.17 0-9.375 4.205-9.375 9.375v4.59a9.38 9.38 0 0 0 7.67 9.219l.923.172v-4.606h1.563v4.766l.924-.174c4.443-.836 7.67-4.764 7.67-9.34v-4.627c0-5.17-4.205-9.375-9.375-9.375m-2.344 13.465-2.344-1.406v-2.084l2.344 1.406zm10.156-2.137v2.637a7.82 7.82 0 0 1-5.469 7.453v-6.269l3.907-2.344v-5.59l-5.469 3.281v6.692h-1.563v-6.692l-5.468-3.281v5.729l3.906 2.343v6.131a7.82 7.82 0 0 1-5.469-7.453v-4.59c0-4.308 3.504-7.812 7.813-7.812s7.812 3.504 7.812 7.812zm-5.469 1.998v-1.947l2.344-1.406v1.947z"/><g fill="#19191C" clip-path="url(#d)"><path d="M795.784 951.75h1.564v-.893c0-.425.111-.83.313-1.136l1.461-2.227c.367-.56.568-1.267.568-1.994h-1.563c0 .426-.111.828-.314 1.137l-1.461 2.226c-.367.561-.568 1.268-.568 1.994z"/><path fill-rule="evenodd" d="M800.983 964.25h-4.934c-1.508 0-2.795-.98-3.129-2.387l-2.033-8.551h15.908a3.056 3.056 0 0 1 3.051 3.051 3.05 3.05 0 0 1-2.086 2.895l-3.295 1.12-.353 1.485c-.334 1.405-1.621 2.387-3.129 2.387m3.913-5.685 2.37-.79a1.487 1.487 0 0 0-.471-2.9h-1.022zm-12.03-3.69 1.576 6.627c.164.687.84 1.186 1.609 1.186h4.936c.769 0 1.445-.499 1.609-1.186l1.576-6.627z" clip-rule="evenodd"/><path d="M789.534 965.812v1.563h18.75v-1.563zm9.375-14.062c0-.727.201-1.434.568-1.994l.047-.065 1.473-1.812c.16-.197.255-.504.255-.818h1.563c0 .683-.215 1.322-.606 1.804l-1.445 1.778a2.1 2.1 0 0 0-.293 1.105v.002z"/></g><g fill="#19191C" clip-path="url(#e)"><path d="M884.784 951.75h1.564v-.893c0-.425.111-.83.313-1.136l1.461-2.227c.367-.56.568-1.267.568-1.994h-1.563c0 .426-.111.828-.314 1.137l-1.461 2.226c-.367.561-.568 1.268-.568 1.994z"/><path fill-rule="evenodd" d="M889.983 964.25h-4.934c-1.508 0-2.795-.98-3.129-2.387l-2.033-8.551h15.908a3.056 3.056 0 0 1 3.051 3.051 3.05 3.05 0 0 1-2.086 2.895l-3.295 1.12-.353 1.485c-.334 1.405-1.621 2.387-3.129 2.387m3.913-5.685 2.37-.79a1.487 1.487 0 0 0-.471-2.9h-1.022zm-12.03-3.69 1.576 6.627c.164.687.84 1.186 1.609 1.186h4.936c.769 0 1.445-.499 1.609-1.186l1.576-6.627z" clip-rule="evenodd"/><path d="M878.534 965.812v1.563h18.75v-1.563zm9.375-14.062c0-.727.201-1.434.568-1.994l.047-.065 1.473-1.812c.16-.197.255-.504.255-.818h1.563c0 .683-.215 1.322-.606 1.804l-1.445 1.778a2.1 2.1 0 0 0-.293 1.105v.002z"/></g><defs><clipPath id="d"><path fill="#fff" d="M786.409 945.5h25v25h-25z"/></clipPath><clipPath id="e"><path fill="#fff" d="M875.409 945.5h25v25h-25z"/></clipPath><linearGradient id="c" x1="559" x2="426.563" y1="1334" y2="484.7" gradientUnits="userSpaceOnUse"><stop stop-color="#FF9419"/><stop offset=".305" stop-color="#FF021D"/><stop offset=".655" stop-color="#8F00FF"/><stop offset="1" stop-color="#2000E7"/></linearGradient></defs></svg>