<svg width="984" height="1216" viewBox="0 0 984 1216" fill="none" xmlns="http://www.w3.org/2000/svg">
<path fill-rule="evenodd" clip-rule="evenodd" d="M152 0H0V384H152V296H200V392H544V448V528H448H376H374V536H264V686H374V688H56V880H124L32 1047L72 1066V1168H374H448V880V728H544V680H936V632H984V448H936H592V392V352V80H200V200H152V0Z" fill="#FF6501"/>
<path d="M464 688H544V728H464V688Z" fill="black" fill-opacity="0.28"/>
<path d="M640 584H656V600H640V584Z" fill="black" fill-opacity="0.28"/>
<path d="M656 584H672V600H656V584Z" fill="black" fill-opacity="0.28"/>
<path d="M672 584H688V600H672V584Z" fill="black" fill-opacity="0.28"/>
<path d="M688 584H704V600H688V584Z" fill="black" fill-opacity="0.28"/>
<path d="M704 584H720V600H704V584Z" fill="black" fill-opacity="0.28"/>
<path d="M720 584H736V600H720V584Z" fill="black" fill-opacity="0.28"/>
<path d="M400 528H448V544H400V528Z" fill="black" fill-opacity="0.28"/>
<path d="M792 512H816V560H792V512Z" fill="black" fill-opacity="0.28"/>
<path d="M640 464H656V480H640V464Z" fill="black" fill-opacity="0.28"/>
<path d="M656 464H672V480H656V464Z" fill="black" fill-opacity="0.28"/>
<path d="M672 464H688V480H672V464Z" fill="black" fill-opacity="0.28"/>
<path d="M688 464H704V480H688V464Z" fill="black" fill-opacity="0.28"/>
<path d="M592 496H608V544H592V496Z" fill="black" fill-opacity="0.28"/>
<path d="M276 1032H308V1128H276V1032Z" fill="black" fill-opacity="0.28"/>
<path d="M188 1032H220V1128H188V1032Z" fill="black" fill-opacity="0.28"/>
<path d="M144 1048H160V1088H144V1048Z" fill="black" fill-opacity="0.28"/>
<g clip-path="url(#clip0_8714_5879)">
<path d="M155.073 777H160.993C161.953 777 162.796 777.177 163.523 777.53C164.25 777.883 164.81 778.383 165.203 779.03C165.603 779.67 165.803 780.413 165.803 781.26C165.803 782.113 165.6 782.867 165.193 783.52C164.793 784.173 164.223 784.68 163.483 785.04C162.75 785.393 161.893 785.57 160.913 785.57H157.523V791H155.073V777ZM160.863 783.48C161.59 783.48 162.17 783.283 162.603 782.89C163.036 782.49 163.253 781.953 163.253 781.28C163.253 780.613 163.036 780.083 162.603 779.69C162.17 779.297 161.59 779.1 160.863 779.1H157.523V783.48H160.863ZM167.634 777H170.004V791H167.634V777ZM177.387 791.24C176.387 791.24 175.487 791.01 174.687 790.55C173.894 790.09 173.274 789.453 172.827 788.64C172.38 787.82 172.157 786.897 172.157 785.87C172.157 784.857 172.384 783.943 172.837 783.13C173.29 782.317 173.914 781.68 174.707 781.22C175.507 780.753 176.4 780.52 177.387 780.52C178.4 780.52 179.287 780.75 180.047 781.21C180.814 781.67 181.404 782.307 181.817 783.12C182.23 783.927 182.437 784.843 182.437 785.87V786.52H174.627C174.694 787.053 174.857 787.523 175.117 787.93C175.377 788.337 175.71 788.653 176.117 788.88C176.524 789.1 176.977 789.21 177.477 789.21C178.064 789.21 178.56 789.123 178.967 788.95C179.374 788.777 179.687 788.527 179.907 788.2H182.257C182.15 788.7 181.887 789.183 181.467 789.65C181.047 790.117 180.487 790.5 179.787 790.8C179.087 791.093 178.287 791.24 177.387 791.24ZM179.997 784.87C179.877 784.137 179.594 783.557 179.147 783.13C178.707 782.703 178.124 782.49 177.397 782.49C176.677 782.49 176.07 782.703 175.577 783.13C175.09 783.557 174.78 784.137 174.647 784.87H179.997ZM184.587 780.76H186.897V782.23C187.23 781.677 187.667 781.253 188.207 780.96C188.753 780.667 189.38 780.52 190.087 780.52C190.82 780.52 191.467 780.68 192.027 781C192.593 781.32 193.033 781.783 193.347 782.39C193.66 782.997 193.817 783.72 193.817 784.56V791H191.437V784.92C191.437 784.193 191.247 783.627 190.867 783.22C190.493 782.813 189.977 782.61 189.317 782.61C188.85 782.61 188.437 782.713 188.077 782.92C187.723 783.127 187.447 783.417 187.247 783.79C187.053 784.163 186.957 784.59 186.957 785.07V791H184.587V780.76ZM200.552 780.52C201.385 780.52 202.122 780.67 202.762 780.97C203.402 781.263 203.898 781.69 204.252 782.25C204.605 782.803 204.782 783.46 204.782 784.22V791H202.482V789.51C202.162 790.07 201.725 790.5 201.172 790.8C200.625 791.093 199.978 791.24 199.232 791.24C198.572 791.24 197.978 791.117 197.452 790.87C196.932 790.617 196.525 790.267 196.232 789.82C195.938 789.367 195.792 788.853 195.792 788.28C195.792 787.733 195.932 787.23 196.212 786.77C196.498 786.303 196.895 785.923 197.402 785.63C197.908 785.337 198.478 785.157 199.112 785.09L201.782 784.81C201.988 784.79 202.152 784.717 202.272 784.59C202.392 784.457 202.452 784.263 202.452 784.01C202.445 783.523 202.262 783.13 201.902 782.83C201.542 782.53 201.072 782.38 200.492 782.38C200.118 782.38 199.775 782.447 199.462 782.58C199.155 782.707 198.908 782.88 198.722 783.1C198.535 783.32 198.425 783.563 198.392 783.83H196.042C196.108 783.19 196.345 782.62 196.752 782.12C197.158 781.62 197.692 781.23 198.352 780.95C199.012 780.663 199.745 780.52 200.552 780.52ZM198.212 788.01C198.212 788.437 198.378 788.783 198.712 789.05C199.045 789.317 199.475 789.45 200.002 789.45C200.482 789.45 200.905 789.353 201.272 789.16C201.645 788.967 201.935 788.7 202.142 788.36C202.348 788.013 202.452 787.617 202.452 787.17V786.26L199.682 786.58C199.242 786.627 198.885 786.777 198.612 787.03C198.345 787.283 198.212 787.61 198.212 788.01ZM207.458 780.76H209.818V782.3C210.144 781.78 210.551 781.383 211.038 781.11C211.524 780.83 212.081 780.69 212.708 780.69H213.088V783.09H212.408C211.614 783.083 210.988 783.293 210.528 783.72C210.068 784.147 209.838 784.73 209.838 785.47V791H207.458V780.76ZM214.461 792.25H215.891C216.157 792.25 216.391 792.177 216.591 792.03C216.797 791.89 216.951 791.7 217.051 791.46L217.541 790.4L213.601 780.76H216.071L218.721 787.64L221.151 780.76H223.561L219.311 791.69C219.011 792.47 218.597 793.083 218.071 793.53C217.551 793.977 216.877 794.2 216.051 794.2H214.461V792.25ZM229.333 780.76H231.693V782.3C232.019 781.78 232.426 781.383 232.913 781.11C233.399 780.83 233.956 780.69 234.583 780.69H234.963V783.09H234.283C233.489 783.083 232.863 783.293 232.403 783.72C231.943 784.147 231.713 784.73 231.713 785.47V791H229.333V780.76ZM241.317 791.24C240.297 791.24 239.377 791.01 238.557 790.55C237.737 790.09 237.09 789.453 236.617 788.64C236.15 787.827 235.917 786.907 235.917 785.88C235.917 784.853 236.15 783.933 236.617 783.12C237.09 782.307 237.737 781.67 238.557 781.21C239.384 780.75 240.307 780.52 241.327 780.52C242.347 780.52 243.267 780.75 244.087 781.21C244.907 781.67 245.55 782.307 246.017 783.12C246.484 783.933 246.717 784.853 246.717 785.88C246.717 786.907 246.484 787.827 246.017 788.64C245.55 789.453 244.907 790.09 244.087 790.55C243.267 791.01 242.344 791.24 241.317 791.24ZM238.387 785.88C238.387 786.513 238.514 787.073 238.767 787.56C239.027 788.047 239.38 788.427 239.827 788.7C240.274 788.967 240.777 789.1 241.337 789.1C241.89 789.1 242.387 788.967 242.827 788.7C243.274 788.427 243.62 788.047 243.867 787.56C244.12 787.073 244.247 786.513 244.247 785.88C244.247 785.247 244.12 784.687 243.867 784.2C243.614 783.707 243.264 783.327 242.817 783.06C242.377 782.787 241.88 782.65 241.327 782.65C240.774 782.65 240.274 782.787 239.827 783.06C239.38 783.327 239.027 783.707 238.767 784.2C238.514 784.687 238.387 785.247 238.387 785.88ZM253.544 791.24C252.524 791.24 251.604 791.01 250.784 790.55C249.964 790.09 249.317 789.453 248.844 788.64C248.377 787.827 248.144 786.907 248.144 785.88C248.144 784.853 248.377 783.933 248.844 783.12C249.317 782.307 249.964 781.67 250.784 781.21C251.61 780.75 252.534 780.52 253.554 780.52C254.574 780.52 255.494 780.75 256.314 781.21C257.134 781.67 257.777 782.307 258.244 783.12C258.71 783.933 258.944 784.853 258.944 785.88C258.944 786.907 258.71 787.827 258.244 788.64C257.777 789.453 257.134 790.09 256.314 790.55C255.494 791.01 254.57 791.24 253.544 791.24ZM250.614 785.88C250.614 786.513 250.74 787.073 250.994 787.56C251.254 788.047 251.607 788.427 252.054 788.7C252.5 788.967 253.004 789.1 253.564 789.1C254.117 789.1 254.614 788.967 255.054 788.7C255.5 788.427 255.847 788.047 256.094 787.56C256.347 787.073 256.474 786.513 256.474 785.88C256.474 785.247 256.347 784.687 256.094 784.2C255.84 783.707 255.49 783.327 255.044 783.06C254.604 782.787 254.107 782.65 253.554 782.65C253 782.65 252.5 782.787 252.054 783.06C251.607 783.327 251.254 783.707 250.994 784.2C250.74 784.687 250.614 785.247 250.614 785.88ZM261.11 780.76H263.42V782.3C263.727 781.727 264.137 781.287 264.65 780.98C265.163 780.673 265.76 780.52 266.44 780.52C267.173 780.52 267.807 780.69 268.34 781.03C268.873 781.363 269.28 781.84 269.56 782.46C269.893 781.847 270.343 781.37 270.91 781.03C271.477 780.69 272.133 780.52 272.88 780.52C273.607 780.52 274.24 780.687 274.78 781.02C275.327 781.347 275.75 781.813 276.05 782.42C276.35 783.027 276.5 783.733 276.5 784.54V791H274.12V784.82C274.12 784.133 273.947 783.593 273.6 783.2C273.26 782.8 272.78 782.6 272.16 782.6C271.72 782.6 271.333 782.7 271 782.9C270.673 783.1 270.42 783.387 270.24 783.76C270.06 784.127 269.97 784.56 269.97 785.06V791H267.64V784.82C267.64 784.133 267.467 783.593 267.12 783.2C266.773 782.8 266.293 782.6 265.68 782.6C265.007 782.6 264.473 782.823 264.08 783.27C263.687 783.71 263.49 784.307 263.49 785.06V791H261.11V780.76Z" fill="black"/>
</g>
<path d="M58 1000L88 1016L110 976H174M624 568V608L408 608.5V784M624 568V496H776V568H624ZM232 976V880M232 976H338M232 976H174M338 976H408.111V816M338 976V880M408.111 816H370M408.111 816L408 784M408 784H370M174 976V1104L79.5 1144H72" stroke="black" stroke-opacity="0.12" stroke-width="12"/>
<g clip-path="url(#clip1_8714_5879)">
<path d="M286.654 604V615.71H293.434V618H284.214V604H286.654ZM299.637 618.24C298.617 618.24 297.697 618.01 296.877 617.55C296.057 617.09 295.411 616.453 294.937 615.64C294.471 614.827 294.237 613.907 294.237 612.88C294.237 611.853 294.471 610.933 294.937 610.12C295.411 609.307 296.057 608.67 296.877 608.21C297.704 607.75 298.627 607.52 299.647 607.52C300.667 607.52 301.587 607.75 302.407 608.21C303.227 608.67 303.871 609.307 304.337 610.12C304.804 610.933 305.037 611.853 305.037 612.88C305.037 613.907 304.804 614.827 304.337 615.64C303.871 616.453 303.227 617.09 302.407 617.55C301.587 618.01 300.664 618.24 299.637 618.24ZM296.707 612.88C296.707 613.513 296.834 614.073 297.087 614.56C297.347 615.047 297.701 615.427 298.147 615.7C298.594 615.967 299.097 616.1 299.657 616.1C300.211 616.1 300.707 615.967 301.147 615.7C301.594 615.427 301.941 615.047 302.187 614.56C302.441 614.073 302.567 613.513 302.567 612.88C302.567 612.247 302.441 611.687 302.187 611.2C301.934 610.707 301.584 610.327 301.137 610.06C300.697 609.787 300.201 609.65 299.647 609.65C299.094 609.65 298.594 609.787 298.147 610.06C297.701 610.327 297.347 610.707 297.087 611.2C296.834 611.687 296.707 612.247 296.707 612.88ZM316.184 618H313.874V616.53C313.541 617.083 313.101 617.507 312.554 617.8C312.014 618.093 311.391 618.24 310.684 618.24C309.951 618.24 309.301 618.08 308.734 617.76C308.174 617.44 307.737 616.977 307.424 616.37C307.111 615.763 306.954 615.04 306.954 614.2V607.76H309.334V613.84C309.334 614.567 309.521 615.133 309.894 615.54C310.274 615.947 310.794 616.15 311.454 616.15C311.921 616.15 312.331 616.047 312.684 615.84C313.044 615.633 313.321 615.343 313.514 614.97C313.714 614.597 313.814 614.17 313.814 613.69V607.76H316.184V618ZM319.079 607.76H321.389V609.23C321.722 608.677 322.159 608.253 322.699 607.96C323.246 607.667 323.872 607.52 324.579 607.52C325.312 607.52 325.959 607.68 326.519 608C327.086 608.32 327.526 608.783 327.839 609.39C328.152 609.997 328.309 610.72 328.309 611.56V618H325.929V611.92C325.929 611.193 325.739 610.627 325.359 610.22C324.986 609.813 324.469 609.61 323.809 609.61C323.342 609.61 322.929 609.713 322.569 609.92C322.216 610.127 321.939 610.417 321.739 610.79C321.546 611.163 321.449 611.59 321.449 612.07V618H319.079V607.76ZM335.464 621.44C334.637 621.44 333.884 621.31 333.204 621.05C332.524 620.797 331.967 620.44 331.534 619.98C331.107 619.52 330.844 618.99 330.744 618.39H333.064C333.237 618.75 333.534 619.033 333.954 619.24C334.381 619.447 334.857 619.55 335.384 619.55C335.917 619.55 336.384 619.44 336.784 619.22C337.191 619 337.501 618.693 337.714 618.3C337.934 617.907 338.044 617.45 338.044 616.93V616.48L338.074 615.58C337.694 616.093 337.221 616.493 336.654 616.78C336.087 617.06 335.464 617.2 334.784 617.2C333.937 617.2 333.167 616.993 332.474 616.58C331.787 616.16 331.247 615.583 330.854 614.85C330.467 614.117 330.274 613.29 330.274 612.37C330.274 611.457 330.467 610.633 330.854 609.9C331.247 609.16 331.787 608.58 332.474 608.16C333.167 607.74 333.937 607.53 334.784 607.53C335.484 607.53 336.124 607.683 336.704 607.99C337.284 608.29 337.761 608.713 338.134 609.26V607.76H340.444L340.414 616.93C340.414 617.823 340.207 618.61 339.794 619.29C339.381 619.97 338.797 620.497 338.044 620.87C337.297 621.25 336.437 621.44 335.464 621.44ZM332.714 612.37C332.714 612.903 332.827 613.387 333.054 613.82C333.287 614.247 333.607 614.583 334.014 614.83C334.421 615.077 334.877 615.2 335.384 615.2C335.891 615.2 336.347 615.077 336.754 614.83C337.161 614.583 337.481 614.247 337.714 613.82C337.954 613.387 338.074 612.903 338.074 612.37C338.074 611.837 337.954 611.357 337.714 610.93C337.481 610.497 337.161 610.157 336.754 609.91C336.347 609.663 335.891 609.54 335.384 609.54C334.877 609.54 334.421 609.663 334.014 609.91C333.607 610.157 333.287 610.497 333.054 610.93C332.827 611.357 332.714 611.837 332.714 612.37ZM347.817 618.24C346.817 618.24 345.917 618.01 345.117 617.55C344.323 617.09 343.703 616.453 343.257 615.64C342.81 614.82 342.587 613.897 342.587 612.87C342.587 611.857 342.813 610.943 343.267 610.13C343.72 609.317 344.343 608.68 345.137 608.22C345.937 607.753 346.83 607.52 347.817 607.52C348.83 607.52 349.717 607.75 350.477 608.21C351.243 608.67 351.833 609.307 352.247 610.12C352.66 610.927 352.867 611.843 352.867 612.87V613.52H345.057C345.123 614.053 345.287 614.523 345.547 614.93C345.807 615.337 346.14 615.653 346.547 615.88C346.953 616.1 347.407 616.21 347.907 616.21C348.493 616.21 348.99 616.123 349.397 615.95C349.803 615.777 350.117 615.527 350.337 615.2H352.687C352.58 615.7 352.317 616.183 351.897 616.65C351.477 617.117 350.917 617.5 350.217 617.8C349.517 618.093 348.717 618.24 347.817 618.24ZM350.427 611.87C350.307 611.137 350.023 610.557 349.577 610.13C349.137 609.703 348.553 609.49 347.827 609.49C347.107 609.49 346.5 609.703 346.007 610.13C345.52 610.557 345.21 611.137 345.077 611.87H350.427Z" fill="black"/>
</g>
<g clip-path="url(#clip2_8714_5879)">
<rect width="122" height="40" transform="translate(673 400)" fill="black"/>
<path d="M688.822 427.24C687.515 427.24 686.338 426.93 685.292 426.31C684.245 425.683 683.425 424.82 682.832 423.72C682.238 422.613 681.942 421.373 681.942 420C681.942 418.627 682.238 417.39 682.832 416.29C683.425 415.183 684.245 414.32 685.292 413.7C686.338 413.073 687.515 412.76 688.822 412.76C689.928 412.76 690.955 412.987 691.902 413.44C692.848 413.887 693.622 414.5 694.222 415.28C694.822 416.053 695.178 416.913 695.292 417.86H692.882C692.775 417.32 692.528 416.83 692.142 416.39C691.755 415.943 691.272 415.593 690.692 415.34C690.112 415.08 689.492 414.95 688.832 414.95C687.985 414.95 687.228 415.167 686.562 415.6C685.895 416.027 685.372 416.623 684.992 417.39C684.618 418.157 684.432 419.027 684.432 420C684.432 420.973 684.618 421.843 684.992 422.61C685.372 423.377 685.895 423.977 686.562 424.41C687.235 424.837 687.998 425.05 688.852 425.05C689.592 425.05 690.262 424.907 690.862 424.62C691.468 424.333 691.955 423.933 692.322 423.42C692.688 422.9 692.898 422.31 692.952 421.65H689.622V419.66H695.372V420.78C695.372 422.007 695.088 423.113 694.522 424.1C693.955 425.08 693.175 425.85 692.182 426.41C691.188 426.963 690.068 427.24 688.822 427.24ZM702.372 416.52C703.205 416.52 703.942 416.67 704.582 416.97C705.222 417.263 705.719 417.69 706.072 418.25C706.425 418.803 706.602 419.46 706.602 420.22V427H704.302V425.51C703.982 426.07 703.545 426.5 702.992 426.8C702.445 427.093 701.799 427.24 701.052 427.24C700.392 427.24 699.799 427.117 699.272 426.87C698.752 426.617 698.345 426.267 698.052 425.82C697.759 425.367 697.612 424.853 697.612 424.28C697.612 423.733 697.752 423.23 698.032 422.77C698.319 422.303 698.715 421.923 699.222 421.63C699.729 421.337 700.299 421.157 700.932 421.09L703.602 420.81C703.809 420.79 703.972 420.717 704.092 420.59C704.212 420.457 704.272 420.263 704.272 420.01C704.265 419.523 704.082 419.13 703.722 418.83C703.362 418.53 702.892 418.38 702.312 418.38C701.939 418.38 701.595 418.447 701.282 418.58C700.975 418.707 700.729 418.88 700.542 419.1C700.355 419.32 700.245 419.563 700.212 419.83H697.862C697.929 419.19 698.165 418.62 698.572 418.12C698.979 417.62 699.512 417.23 700.172 416.95C700.832 416.663 701.565 416.52 702.372 416.52ZM700.032 424.01C700.032 424.437 700.199 424.783 700.532 425.05C700.865 425.317 701.295 425.45 701.822 425.45C702.302 425.45 702.725 425.353 703.092 425.16C703.465 424.967 703.755 424.7 703.962 424.36C704.169 424.013 704.272 423.617 704.272 423.17V422.26L701.502 422.58C701.062 422.627 700.705 422.777 700.432 423.03C700.165 423.283 700.032 423.61 700.032 424.01ZM709.278 416.76H711.588V418.3C711.895 417.727 712.305 417.287 712.818 416.98C713.331 416.673 713.928 416.52 714.608 416.52C715.341 416.52 715.975 416.69 716.508 417.03C717.041 417.363 717.448 417.84 717.728 418.46C718.061 417.847 718.511 417.37 719.078 417.03C719.645 416.69 720.301 416.52 721.048 416.52C721.775 416.52 722.408 416.687 722.948 417.02C723.495 417.347 723.918 417.813 724.218 418.42C724.518 419.027 724.668 419.733 724.668 420.54V427H722.288V420.82C722.288 420.133 722.115 419.593 721.768 419.2C721.428 418.8 720.948 418.6 720.328 418.6C719.888 418.6 719.501 418.7 719.168 418.9C718.841 419.1 718.588 419.387 718.408 419.76C718.228 420.127 718.138 420.56 718.138 421.06V427H715.808V420.82C715.808 420.133 715.635 419.593 715.288 419.2C714.941 418.8 714.461 418.6 713.848 418.6C713.175 418.6 712.641 418.823 712.248 419.27C711.855 419.71 711.658 420.307 711.658 421.06V427H709.278V416.76ZM731.805 427.24C730.805 427.24 729.905 427.01 729.105 426.55C728.312 426.09 727.692 425.453 727.245 424.64C726.798 423.82 726.575 422.897 726.575 421.87C726.575 420.857 726.802 419.943 727.255 419.13C727.708 418.317 728.332 417.68 729.125 417.22C729.925 416.753 730.818 416.52 731.805 416.52C732.818 416.52 733.705 416.75 734.465 417.21C735.232 417.67 735.822 418.307 736.235 419.12C736.648 419.927 736.855 420.843 736.855 421.87V422.52H729.045C729.112 423.053 729.275 423.523 729.535 423.93C729.795 424.337 730.128 424.653 730.535 424.88C730.942 425.1 731.395 425.21 731.895 425.21C732.482 425.21 732.978 425.123 733.385 424.95C733.792 424.777 734.105 424.527 734.325 424.2H736.675C736.568 424.7 736.305 425.183 735.885 425.65C735.465 426.117 734.905 426.5 734.205 426.8C733.505 427.093 732.705 427.24 731.805 427.24ZM734.415 420.87C734.295 420.137 734.012 419.557 733.565 419.13C733.125 418.703 732.542 418.49 731.815 418.49C731.095 418.49 730.488 418.703 729.995 419.13C729.508 419.557 729.198 420.137 729.065 420.87H734.415ZM747.736 418.75H742.666V416.76H750.576V418.71L745.246 425.01H750.556V427H742.406V425.05L747.736 418.75ZM757.317 427.24C756.297 427.24 755.377 427.01 754.557 426.55C753.737 426.09 753.09 425.453 752.617 424.64C752.15 423.827 751.917 422.907 751.917 421.88C751.917 420.853 752.15 419.933 752.617 419.12C753.09 418.307 753.737 417.67 754.557 417.21C755.384 416.75 756.307 416.52 757.327 416.52C758.347 416.52 759.267 416.75 760.087 417.21C760.907 417.67 761.55 418.307 762.017 419.12C762.484 419.933 762.717 420.853 762.717 421.88C762.717 422.907 762.484 423.827 762.017 424.64C761.55 425.453 760.907 426.09 760.087 426.55C759.267 427.01 758.344 427.24 757.317 427.24ZM754.387 421.88C754.387 422.513 754.514 423.073 754.767 423.56C755.027 424.047 755.38 424.427 755.827 424.7C756.274 424.967 756.777 425.1 757.337 425.1C757.89 425.1 758.387 424.967 758.827 424.7C759.274 424.427 759.62 424.047 759.867 423.56C760.12 423.073 760.247 422.513 760.247 421.88C760.247 421.247 760.12 420.687 759.867 420.2C759.614 419.707 759.264 419.327 758.817 419.06C758.377 418.787 757.88 418.65 757.327 418.65C756.774 418.65 756.274 418.787 755.827 419.06C755.38 419.327 755.027 419.707 754.767 420.2C754.514 420.687 754.387 421.247 754.387 421.88ZM764.884 416.76H767.194V418.23C767.527 417.677 767.964 417.253 768.504 416.96C769.05 416.667 769.677 416.52 770.384 416.52C771.117 416.52 771.764 416.68 772.324 417C772.89 417.32 773.33 417.783 773.644 418.39C773.957 418.997 774.114 419.72 774.114 420.56V427H771.734V420.92C771.734 420.193 771.544 419.627 771.164 419.22C770.79 418.813 770.274 418.61 769.614 418.61C769.147 418.61 768.734 418.713 768.374 418.92C768.02 419.127 767.744 419.417 767.544 419.79C767.35 420.163 767.254 420.59 767.254 421.07V427H764.884V416.76ZM781.239 427.24C780.239 427.24 779.339 427.01 778.539 426.55C777.745 426.09 777.125 425.453 776.679 424.64C776.232 423.82 776.009 422.897 776.009 421.87C776.009 420.857 776.235 419.943 776.689 419.13C777.142 418.317 777.765 417.68 778.559 417.22C779.359 416.753 780.252 416.52 781.239 416.52C782.252 416.52 783.139 416.75 783.899 417.21C784.665 417.67 785.255 418.307 785.669 419.12C786.082 419.927 786.289 420.843 786.289 421.87V422.52H778.479C778.545 423.053 778.709 423.523 778.969 423.93C779.229 424.337 779.562 424.653 779.969 424.88C780.375 425.1 780.829 425.21 781.329 425.21C781.915 425.21 782.412 425.123 782.819 424.95C783.225 424.777 783.539 424.527 783.759 424.2H786.109C786.002 424.7 785.739 425.183 785.319 425.65C784.899 426.117 784.339 426.5 783.639 426.8C782.939 427.093 782.139 427.24 781.239 427.24ZM783.849 420.87C783.729 420.137 783.445 419.557 782.999 419.13C782.559 418.703 781.975 418.49 781.249 418.49C780.529 418.49 779.922 418.703 779.429 419.13C778.942 419.557 778.632 420.137 778.499 420.87H783.849Z" fill="white"/>
<path d="M673 440H674.999L675 520H673V440Z" fill="black"/>
</g>
<g clip-path="url(#clip3_8714_5879)">
<rect width="66" height="40" transform="translate(279 400)" fill="black"/>
<path d="M293.528 427.24C292.528 427.24 291.641 427.06 290.868 426.7C290.095 426.333 289.488 425.823 289.048 425.17C288.615 424.51 288.395 423.757 288.388 422.91H290.878C290.878 423.343 290.991 423.727 291.218 424.06C291.445 424.393 291.758 424.653 292.158 424.84C292.565 425.027 293.031 425.12 293.558 425.12C294.071 425.12 294.521 425.037 294.908 424.87C295.295 424.697 295.591 424.46 295.798 424.16C296.011 423.853 296.118 423.5 296.118 423.1C296.118 422.6 295.965 422.17 295.658 421.81C295.358 421.45 294.958 421.227 294.458 421.14L292.058 420.74C291.385 420.627 290.798 420.39 290.298 420.03C289.798 419.663 289.411 419.207 289.138 418.66C288.871 418.113 288.738 417.513 288.738 416.86C288.738 416.073 288.941 415.37 289.348 414.75C289.755 414.123 290.318 413.637 291.038 413.29C291.765 412.937 292.588 412.76 293.508 412.76C294.448 412.76 295.281 412.93 296.008 413.27C296.741 413.61 297.311 414.087 297.718 414.7C298.125 415.313 298.331 416.013 298.338 416.8H295.858C295.858 416.427 295.761 416.097 295.568 415.81C295.375 415.517 295.101 415.29 294.748 415.13C294.401 414.963 293.998 414.88 293.538 414.88C293.085 414.88 292.681 414.96 292.328 415.12C291.981 415.273 291.711 415.493 291.518 415.78C291.325 416.06 291.228 416.383 291.228 416.75C291.228 417.183 291.368 417.56 291.648 417.88C291.928 418.193 292.298 418.39 292.758 418.47L295.088 418.85C295.781 418.963 296.395 419.22 296.928 419.62C297.468 420.02 297.885 420.513 298.178 421.1C298.478 421.687 298.628 422.313 298.628 422.98C298.628 423.787 298.411 424.513 297.978 425.16C297.551 425.807 296.951 426.317 296.178 426.69C295.405 427.057 294.521 427.24 293.528 427.24ZM301.057 413H303.387V416.16L303.357 418.06V418.29C303.684 417.717 304.121 417.28 304.667 416.98C305.214 416.673 305.847 416.52 306.567 416.52C307.294 416.52 307.937 416.68 308.497 417C309.057 417.32 309.494 417.783 309.807 418.39C310.121 418.997 310.277 419.72 310.277 420.56V427H307.897V420.92C307.897 420.193 307.711 419.627 307.337 419.22C306.964 418.813 306.447 418.61 305.787 418.61C305.321 418.61 304.907 418.713 304.547 418.92C304.194 419.127 303.921 419.417 303.727 419.79C303.534 420.163 303.437 420.59 303.437 421.07V427H301.057V413ZM317.592 427.24C316.572 427.24 315.652 427.01 314.832 426.55C314.012 426.09 313.366 425.453 312.892 424.64C312.426 423.827 312.192 422.907 312.192 421.88C312.192 420.853 312.426 419.933 312.892 419.12C313.366 418.307 314.012 417.67 314.832 417.21C315.659 416.75 316.582 416.52 317.602 416.52C318.622 416.52 319.542 416.75 320.362 417.21C321.182 417.67 321.826 418.307 322.292 419.12C322.759 419.933 322.992 420.853 322.992 421.88C322.992 422.907 322.759 423.827 322.292 424.64C321.826 425.453 321.182 426.09 320.362 426.55C319.542 427.01 318.619 427.24 317.592 427.24ZM314.662 421.88C314.662 422.513 314.789 423.073 315.042 423.56C315.302 424.047 315.656 424.427 316.102 424.7C316.549 424.967 317.052 425.1 317.612 425.1C318.166 425.1 318.662 424.967 319.102 424.7C319.549 424.427 319.896 424.047 320.142 423.56C320.396 423.073 320.522 422.513 320.522 421.88C320.522 421.247 320.396 420.687 320.142 420.2C319.889 419.707 319.539 419.327 319.092 419.06C318.652 418.787 318.156 418.65 317.602 418.65C317.049 418.65 316.549 418.787 316.102 419.06C315.656 419.327 315.302 419.707 315.042 420.2C314.789 420.687 314.662 421.247 314.662 421.88ZM327.479 416.76V418.36C327.846 417.773 328.336 417.32 328.949 417C329.562 416.68 330.259 416.52 331.039 416.52C331.959 416.52 332.779 416.747 333.499 417.2C334.226 417.647 334.789 418.277 335.189 419.09C335.596 419.903 335.799 420.833 335.799 421.88C335.799 422.927 335.596 423.857 335.189 424.67C334.789 425.483 334.226 426.117 333.499 426.57C332.779 427.017 331.959 427.24 331.039 427.24C330.279 427.24 329.596 427.087 328.989 426.78C328.389 426.473 327.902 426.04 327.529 425.48V430.22H325.159V416.76H327.479ZM327.529 421.88C327.529 422.513 327.652 423.077 327.899 423.57C328.146 424.057 328.489 424.437 328.929 424.71C329.369 424.977 329.872 425.11 330.439 425.11C331.006 425.11 331.506 424.977 331.939 424.71C332.379 424.437 332.719 424.057 332.959 423.57C333.206 423.077 333.329 422.513 333.329 421.88C333.329 421.247 333.206 420.687 332.959 420.2C332.719 419.707 332.379 419.327 331.939 419.06C331.506 418.787 331.006 418.65 330.439 418.65C329.872 418.65 329.369 418.787 328.929 419.06C328.489 419.327 328.146 419.707 327.899 420.2C327.652 420.687 327.529 421.247 327.529 421.88Z" fill="white"/>
</g>
<g clip-path="url(#clip4_8714_5879)">
<rect width="183" height="40" transform="translate(353 400)" fill="black"/>
<path d="M369.071 427.24C367.744 427.24 366.547 426.927 365.481 426.3C364.421 425.673 363.587 424.81 362.981 423.71C362.374 422.603 362.071 421.367 362.071 420C362.071 418.633 362.374 417.4 362.981 416.3C363.587 415.193 364.421 414.327 365.481 413.7C366.547 413.073 367.744 412.76 369.071 412.76C370.191 412.76 371.227 412.997 372.181 413.47C373.141 413.937 373.917 414.567 374.511 415.36C375.111 416.147 375.457 416.997 375.551 417.91H373.131C373.011 417.403 372.754 416.927 372.361 416.48C371.974 416.033 371.491 415.677 370.911 415.41C370.331 415.137 369.714 415 369.061 415C368.207 415 367.441 415.213 366.761 415.64C366.081 416.067 365.547 416.66 365.161 417.42C364.781 418.18 364.591 419.04 364.591 420C364.591 420.96 364.781 421.82 365.161 422.58C365.547 423.34 366.081 423.933 366.761 424.36C367.441 424.787 368.207 425 369.061 425C369.714 425 370.331 424.867 370.911 424.6C371.491 424.333 371.974 423.98 372.361 423.54C372.754 423.093 373.011 422.62 373.131 422.12H375.551C375.457 423.027 375.111 423.873 374.511 424.66C373.917 425.44 373.141 426.067 372.181 426.54C371.227 427.007 370.191 427.24 369.071 427.24ZM382.544 427.24C381.524 427.24 380.604 427.01 379.784 426.55C378.964 426.09 378.317 425.453 377.844 424.64C377.377 423.827 377.144 422.907 377.144 421.88C377.144 420.853 377.377 419.933 377.844 419.12C378.317 418.307 378.964 417.67 379.784 417.21C380.61 416.75 381.534 416.52 382.554 416.52C383.574 416.52 384.494 416.75 385.314 417.21C386.134 417.67 386.777 418.307 387.244 419.12C387.71 419.933 387.944 420.853 387.944 421.88C387.944 422.907 387.71 423.827 387.244 424.64C386.777 425.453 386.134 426.09 385.314 426.55C384.494 427.01 383.57 427.24 382.544 427.24ZM379.614 421.88C379.614 422.513 379.74 423.073 379.994 423.56C380.254 424.047 380.607 424.427 381.054 424.7C381.5 424.967 382.004 425.1 382.564 425.1C383.117 425.1 383.614 424.967 384.054 424.7C384.5 424.427 384.847 424.047 385.094 423.56C385.347 423.073 385.474 422.513 385.474 421.88C385.474 421.247 385.347 420.687 385.094 420.2C384.84 419.707 384.49 419.327 384.044 419.06C383.604 418.787 383.107 418.65 382.554 418.65C382 418.65 381.5 418.787 381.054 419.06C380.607 419.327 380.254 419.707 379.994 420.2C379.74 420.687 379.614 421.247 379.614 421.88ZM397.62 425.51C397.247 426.063 396.76 426.49 396.16 426.79C395.56 427.09 394.883 427.24 394.13 427.24C393.21 427.24 392.387 427.017 391.66 426.57C390.94 426.117 390.377 425.483 389.97 424.67C389.57 423.857 389.37 422.927 389.37 421.88C389.37 420.833 389.57 419.903 389.97 419.09C390.377 418.277 390.94 417.647 391.66 417.2C392.387 416.747 393.21 416.52 394.13 416.52C394.883 416.52 395.56 416.67 396.16 416.97C396.76 417.27 397.247 417.697 397.62 418.25V413H399.99V427H397.62V425.51ZM391.84 421.88C391.84 422.513 391.96 423.077 392.2 423.57C392.447 424.057 392.787 424.437 393.22 424.71C393.66 424.977 394.163 425.11 394.73 425.11C395.257 425.11 395.727 424.993 396.14 424.76C396.56 424.527 396.897 424.2 397.15 423.78C397.41 423.353 397.567 422.86 397.62 422.3V421.46C397.567 420.9 397.41 420.41 397.15 419.99C396.897 419.563 396.56 419.233 396.14 419C395.727 418.767 395.257 418.65 394.73 418.65C394.163 418.65 393.66 418.787 393.22 419.06C392.787 419.327 392.447 419.707 392.2 420.2C391.96 420.687 391.84 421.247 391.84 421.88ZM402.766 416.76H405.146V427H402.766V416.76ZM405.236 413V415.26H402.656V413H405.236ZM408.04 416.76H410.35V418.23C410.683 417.677 411.12 417.253 411.66 416.96C412.207 416.667 412.833 416.52 413.54 416.52C414.273 416.52 414.92 416.68 415.48 417C416.047 417.32 416.487 417.783 416.8 418.39C417.113 418.997 417.27 419.72 417.27 420.56V427H414.89V420.92C414.89 420.193 414.7 419.627 414.32 419.22C413.947 418.813 413.43 418.61 412.77 418.61C412.303 418.61 411.89 418.713 411.53 418.92C411.177 419.127 410.9 419.417 410.7 419.79C410.507 420.163 410.41 420.59 410.41 421.07V427H408.04V416.76ZM424.425 430.44C423.598 430.44 422.845 430.31 422.165 430.05C421.485 429.797 420.928 429.44 420.495 428.98C420.068 428.52 419.805 427.99 419.705 427.39H422.025C422.198 427.75 422.495 428.033 422.915 428.24C423.342 428.447 423.818 428.55 424.345 428.55C424.878 428.55 425.345 428.44 425.745 428.22C426.152 428 426.462 427.693 426.675 427.3C426.895 426.907 427.005 426.45 427.005 425.93V425.48L427.035 424.58C426.655 425.093 426.182 425.493 425.615 425.78C425.048 426.06 424.425 426.2 423.745 426.2C422.898 426.2 422.128 425.993 421.435 425.58C420.748 425.16 420.208 424.583 419.815 423.85C419.428 423.117 419.235 422.29 419.235 421.37C419.235 420.457 419.428 419.633 419.815 418.9C420.208 418.16 420.748 417.58 421.435 417.16C422.128 416.74 422.898 416.53 423.745 416.53C424.445 416.53 425.085 416.683 425.665 416.99C426.245 417.29 426.722 417.713 427.095 418.26V416.76H429.405L429.375 425.93C429.375 426.823 429.168 427.61 428.755 428.29C428.342 428.97 427.758 429.497 427.005 429.87C426.258 430.25 425.398 430.44 424.425 430.44ZM421.675 421.37C421.675 421.903 421.788 422.387 422.015 422.82C422.248 423.247 422.568 423.583 422.975 423.83C423.382 424.077 423.838 424.2 424.345 424.2C424.852 424.2 425.308 424.077 425.715 423.83C426.122 423.583 426.442 423.247 426.675 422.82C426.915 422.387 427.035 421.903 427.035 421.37C427.035 420.837 426.915 420.357 426.675 419.93C426.442 419.497 426.122 419.157 425.715 418.91C425.308 418.663 424.852 418.54 424.345 418.54C423.838 418.54 423.382 418.663 422.975 418.91C422.568 419.157 422.248 419.497 422.015 419.93C421.788 420.357 421.675 420.837 421.675 421.37ZM441.126 427.24C440.126 427.24 439.219 427.007 438.406 426.54C437.593 426.073 436.953 425.433 436.486 424.62C436.026 423.8 435.796 422.887 435.796 421.88C435.796 420.873 436.026 419.963 436.486 419.15C436.953 418.33 437.593 417.687 438.406 417.22C439.219 416.753 440.126 416.52 441.126 416.52C441.999 416.52 442.793 416.68 443.506 417C444.219 417.313 444.803 417.77 445.256 418.37C445.716 418.963 446.006 419.673 446.126 420.5H443.746C443.566 419.893 443.239 419.433 442.766 419.12C442.293 418.807 441.749 418.65 441.136 418.65C440.589 418.65 440.096 418.79 439.656 419.07C439.223 419.343 438.883 419.727 438.636 420.22C438.389 420.707 438.266 421.26 438.266 421.88C438.266 422.5 438.389 423.057 438.636 423.55C438.883 424.037 439.223 424.42 439.656 424.7C440.096 424.973 440.589 425.11 441.136 425.11C441.749 425.11 442.293 424.953 442.766 424.64C443.239 424.327 443.566 423.867 443.746 423.26H446.126C446.006 424.073 445.713 424.78 445.246 425.38C444.779 425.98 444.189 426.44 443.476 426.76C442.763 427.08 441.979 427.24 441.126 427.24ZM448.274 413H450.604V416.16L450.574 418.06V418.29C450.901 417.717 451.338 417.28 451.884 416.98C452.431 416.673 453.064 416.52 453.784 416.52C454.511 416.52 455.154 416.68 455.714 417C456.274 417.32 456.711 417.783 457.024 418.39C457.338 418.997 457.494 419.72 457.494 420.56V427H455.114V420.92C455.114 420.193 454.928 419.627 454.554 419.22C454.181 418.813 453.664 418.61 453.004 418.61C452.538 418.61 452.124 418.713 451.764 418.92C451.411 419.127 451.138 419.417 450.944 419.79C450.751 420.163 450.654 420.59 450.654 421.07V427H448.274V413ZM464.239 416.52C465.073 416.52 465.809 416.67 466.449 416.97C467.089 417.263 467.586 417.69 467.939 418.25C468.293 418.803 468.469 419.46 468.469 420.22V427H466.169V425.51C465.849 426.07 465.413 426.5 464.859 426.8C464.313 427.093 463.666 427.24 462.919 427.24C462.259 427.24 461.666 427.117 461.139 426.87C460.619 426.617 460.213 426.267 459.919 425.82C459.626 425.367 459.479 424.853 459.479 424.28C459.479 423.733 459.619 423.23 459.899 422.77C460.186 422.303 460.583 421.923 461.089 421.63C461.596 421.337 462.166 421.157 462.799 421.09L465.469 420.81C465.676 420.79 465.839 420.717 465.959 420.59C466.079 420.457 466.139 420.263 466.139 420.01C466.133 419.523 465.949 419.13 465.589 418.83C465.229 418.53 464.759 418.38 464.179 418.38C463.806 418.38 463.463 418.447 463.149 418.58C462.843 418.707 462.596 418.88 462.409 419.1C462.223 419.32 462.113 419.563 462.079 419.83H459.729C459.796 419.19 460.033 418.62 460.439 418.12C460.846 417.62 461.379 417.23 462.039 416.95C462.699 416.663 463.433 416.52 464.239 416.52ZM461.899 424.01C461.899 424.437 462.066 424.783 462.399 425.05C462.733 425.317 463.163 425.45 463.689 425.45C464.169 425.45 464.593 425.353 464.959 425.16C465.333 424.967 465.623 424.7 465.829 424.36C466.036 424.013 466.139 423.617 466.139 423.17V422.26L463.369 422.58C462.929 422.627 462.573 422.777 462.299 423.03C462.033 423.283 461.899 423.61 461.899 424.01ZM471.145 413H473.515V427H471.145V413ZM476.419 413H478.789V427H476.419V413ZM486.172 427.24C485.172 427.24 484.272 427.01 483.472 426.55C482.679 426.09 482.059 425.453 481.612 424.64C481.166 423.82 480.942 422.897 480.942 421.87C480.942 420.857 481.169 419.943 481.622 419.13C482.076 418.317 482.699 417.68 483.492 417.22C484.292 416.753 485.186 416.52 486.172 416.52C487.186 416.52 488.072 416.75 488.832 417.21C489.599 417.67 490.189 418.307 490.602 419.12C491.016 419.927 491.222 420.843 491.222 421.87V422.52H483.412C483.479 423.053 483.642 423.523 483.902 423.93C484.162 424.337 484.496 424.653 484.902 424.88C485.309 425.1 485.762 425.21 486.262 425.21C486.849 425.21 487.346 425.123 487.752 424.95C488.159 424.777 488.472 424.527 488.692 424.2H491.042C490.936 424.7 490.672 425.183 490.252 425.65C489.832 426.117 489.272 426.5 488.572 426.8C487.872 427.093 487.072 427.24 486.172 427.24ZM488.782 420.87C488.662 420.137 488.379 419.557 487.932 419.13C487.492 418.703 486.909 418.49 486.182 418.49C485.462 418.49 484.856 418.703 484.362 419.13C483.876 419.557 483.566 420.137 483.432 420.87H488.782ZM493.372 416.76H495.682V418.23C496.015 417.677 496.452 417.253 496.992 416.96C497.539 416.667 498.165 416.52 498.872 416.52C499.605 416.52 500.252 416.68 500.812 417C501.379 417.32 501.819 417.783 502.132 418.39C502.445 418.997 502.602 419.72 502.602 420.56V427H500.222V420.92C500.222 420.193 500.032 419.627 499.652 419.22C499.279 418.813 498.762 418.61 498.102 418.61C497.635 418.61 497.222 418.713 496.862 418.92C496.509 419.127 496.232 419.417 496.032 419.79C495.839 420.163 495.742 420.59 495.742 421.07V427H493.372V416.76ZM509.757 430.44C508.93 430.44 508.177 430.31 507.497 430.05C506.817 429.797 506.26 429.44 505.827 428.98C505.4 428.52 505.137 427.99 505.037 427.39H507.357C507.53 427.75 507.827 428.033 508.247 428.24C508.674 428.447 509.15 428.55 509.677 428.55C510.21 428.55 510.677 428.44 511.077 428.22C511.484 428 511.794 427.693 512.007 427.3C512.227 426.907 512.337 426.45 512.337 425.93V425.48L512.367 424.58C511.987 425.093 511.514 425.493 510.947 425.78C510.38 426.06 509.757 426.2 509.077 426.2C508.23 426.2 507.46 425.993 506.767 425.58C506.08 425.16 505.54 424.583 505.147 423.85C504.76 423.117 504.567 422.29 504.567 421.37C504.567 420.457 504.76 419.633 505.147 418.9C505.54 418.16 506.08 417.58 506.767 417.16C507.46 416.74 508.23 416.53 509.077 416.53C509.777 416.53 510.417 416.683 510.997 416.99C511.577 417.29 512.054 417.713 512.427 418.26V416.76H514.737L514.707 425.93C514.707 426.823 514.5 427.61 514.087 428.29C513.674 428.97 513.09 429.497 512.337 429.87C511.59 430.25 510.73 430.44 509.757 430.44ZM507.007 421.37C507.007 421.903 507.12 422.387 507.347 422.82C507.58 423.247 507.9 423.583 508.307 423.83C508.714 424.077 509.17 424.2 509.677 424.2C510.184 424.2 510.64 424.077 511.047 423.83C511.454 423.583 511.774 423.247 512.007 422.82C512.247 422.387 512.367 421.903 512.367 421.37C512.367 420.837 512.247 420.357 512.007 419.93C511.774 419.497 511.454 419.157 511.047 418.91C510.64 418.663 510.184 418.54 509.677 418.54C509.17 418.54 508.714 418.663 508.307 418.91C507.9 419.157 507.58 419.497 507.347 419.93C507.12 420.357 507.007 420.837 507.007 421.37ZM522.11 427.24C521.11 427.24 520.21 427.01 519.41 426.55C518.616 426.09 517.996 425.453 517.55 424.64C517.103 423.82 516.88 422.897 516.88 421.87C516.88 420.857 517.106 419.943 517.56 419.13C518.013 418.317 518.636 417.68 519.43 417.22C520.23 416.753 521.123 416.52 522.11 416.52C523.123 416.52 524.01 416.75 524.77 417.21C525.536 417.67 526.126 418.307 526.54 419.12C526.953 419.927 527.16 420.843 527.16 421.87V422.52H519.35C519.416 423.053 519.58 423.523 519.84 423.93C520.1 424.337 520.433 424.653 520.84 424.88C521.246 425.1 521.7 425.21 522.2 425.21C522.786 425.21 523.283 425.123 523.69 424.95C524.096 424.777 524.41 424.527 524.63 424.2H526.98C526.873 424.7 526.61 425.183 526.19 425.65C525.77 426.117 525.21 426.5 524.51 426.8C523.81 427.093 523.01 427.24 522.11 427.24ZM524.72 420.87C524.6 420.137 524.316 419.557 523.87 419.13C523.43 418.703 522.846 418.49 522.12 418.49C521.4 418.49 520.793 418.703 520.3 419.13C519.813 419.557 519.503 420.137 519.37 420.87H524.72Z" fill="white"/>
</g>
<g clip-path="url(#clip5_8714_5879)">
<rect width="163" height="40" transform="translate(803 400)" fill="black"/>
<path d="M813.126 413H815.646V427H813.126V413ZM818.87 416.76H821.18V418.23C821.513 417.677 821.95 417.253 822.49 416.96C823.037 416.667 823.663 416.52 824.37 416.52C825.103 416.52 825.75 416.68 826.31 417C826.877 417.32 827.317 417.783 827.63 418.39C827.943 418.997 828.1 419.72 828.1 420.56V427H825.72V420.92C825.72 420.193 825.53 419.627 825.15 419.22C824.777 418.813 824.26 418.61 823.6 418.61C823.133 418.61 822.72 418.713 822.36 418.92C822.007 419.127 821.73 419.417 821.53 419.79C821.337 420.163 821.24 420.59 821.24 421.07V427H818.87V416.76ZM834.355 427C833.808 427 833.315 426.883 832.875 426.65C832.442 426.417 832.102 426.093 831.855 425.68C831.615 425.267 831.495 424.797 831.495 424.27L831.485 418.81H829.685L829.695 416.76H830.815C831.068 416.76 831.272 416.683 831.425 416.53C831.578 416.37 831.655 416.167 831.655 415.92V414.27H833.865V416.76H836.325L836.315 418.81H833.855L833.865 423.98C833.865 424.26 833.955 424.493 834.135 424.68C834.322 424.86 834.555 424.95 834.835 424.95H836.315V427H834.355ZM843.096 427.24C842.096 427.24 841.196 427.01 840.396 426.55C839.603 426.09 838.983 425.453 838.536 424.64C838.089 423.82 837.866 422.897 837.866 421.87C837.866 420.857 838.093 419.943 838.546 419.13C838.999 418.317 839.623 417.68 840.416 417.22C841.216 416.753 842.109 416.52 843.096 416.52C844.109 416.52 844.996 416.75 845.756 417.21C846.523 417.67 847.113 418.307 847.526 419.12C847.939 419.927 848.146 420.843 848.146 421.87V422.52H840.336C840.403 423.053 840.566 423.523 840.826 423.93C841.086 424.337 841.419 424.653 841.826 424.88C842.233 425.1 842.686 425.21 843.186 425.21C843.773 425.21 844.269 425.123 844.676 424.95C845.083 424.777 845.396 424.527 845.616 424.2H847.966C847.859 424.7 847.596 425.183 847.176 425.65C846.756 426.117 846.196 426.5 845.496 426.8C844.796 427.093 843.996 427.24 843.096 427.24ZM845.706 420.87C845.586 420.137 845.303 419.557 844.856 419.13C844.416 418.703 843.833 418.49 843.106 418.49C842.386 418.49 841.779 418.703 841.286 419.13C840.799 419.557 840.489 420.137 840.356 420.87H845.706ZM850.296 416.76H852.656V418.3C852.982 417.78 853.389 417.383 853.876 417.11C854.362 416.83 854.919 416.69 855.546 416.69H855.926V419.09H855.246C854.452 419.083 853.826 419.293 853.366 419.72C852.906 420.147 852.676 420.73 852.676 421.47V427H850.296V416.76ZM856.439 416.76H858.969L861.579 424L864.109 416.76H866.559L862.699 427H860.339L856.439 416.76ZM868.206 416.76H870.586V427H868.206V416.76ZM870.676 413V415.26H868.096V413H870.676ZM877.959 427.24C876.959 427.24 876.059 427.01 875.259 426.55C874.466 426.09 873.846 425.453 873.399 424.64C872.953 423.82 872.729 422.897 872.729 421.87C872.729 420.857 872.956 419.943 873.409 419.13C873.863 418.317 874.486 417.68 875.279 417.22C876.079 416.753 876.973 416.52 877.959 416.52C878.973 416.52 879.859 416.75 880.619 417.21C881.386 417.67 881.976 418.307 882.389 419.12C882.803 419.927 883.009 420.843 883.009 421.87V422.52H875.199C875.266 423.053 875.429 423.523 875.689 423.93C875.949 424.337 876.283 424.653 876.689 424.88C877.096 425.1 877.549 425.21 878.049 425.21C878.636 425.21 879.133 425.123 879.539 424.95C879.946 424.777 880.259 424.527 880.479 424.2H882.829C882.723 424.7 882.459 425.183 882.039 425.65C881.619 426.117 881.059 426.5 880.359 426.8C879.659 427.093 878.859 427.24 877.959 427.24ZM880.569 420.87C880.449 420.137 880.166 419.557 879.719 419.13C879.279 418.703 878.696 418.49 877.969 418.49C877.249 418.49 876.643 418.703 876.149 419.13C875.663 419.557 875.353 420.137 875.219 420.87H880.569ZM883.716 416.76H886.176L888.176 423.18L888.406 424.13L888.606 423.18L890.706 416.76H892.876L895.016 423.18L895.246 424.13L895.446 423.18L897.406 416.76H899.786L896.466 427H894.106L891.986 420.33L891.786 419.53L891.616 420.31L889.446 427H887.046L883.716 416.76ZM909.662 427.24C908.815 427.24 908.049 427.113 907.362 426.86C906.675 426.6 906.132 426.24 905.732 425.78C905.339 425.313 905.132 424.783 905.112 424.19H907.502C907.522 424.423 907.625 424.633 907.812 424.82C908.005 425.007 908.259 425.153 908.572 425.26C908.892 425.367 909.249 425.42 909.642 425.42C910.035 425.42 910.382 425.363 910.682 425.25C910.982 425.137 911.212 424.98 911.372 424.78C911.539 424.573 911.622 424.34 911.622 424.08C911.622 423.793 911.535 423.55 911.362 423.35C911.195 423.15 910.962 423.027 910.662 422.98L908.042 422.58C907.235 422.453 906.599 422.13 906.132 421.61C905.672 421.09 905.442 420.443 905.442 419.67C905.442 419.083 905.615 418.553 905.962 418.08C906.309 417.6 906.792 417.223 907.412 416.95C908.039 416.677 908.752 416.54 909.552 416.54C910.345 416.54 911.059 416.667 911.692 416.92C912.332 417.167 912.835 417.51 913.202 417.95C913.575 418.383 913.775 418.877 913.802 419.43H911.392C911.365 419.117 911.179 418.86 910.832 418.66C910.485 418.46 910.052 418.36 909.532 418.36C909.012 418.36 908.589 418.473 908.262 418.7C907.935 418.927 907.772 419.213 907.772 419.56C907.772 419.827 907.852 420.05 908.012 420.23C908.179 420.41 908.415 420.523 908.722 420.57L911.292 420.95C911.839 421.023 912.315 421.203 912.722 421.49C913.129 421.77 913.439 422.123 913.652 422.55C913.872 422.977 913.982 423.443 913.982 423.95C913.982 424.583 913.795 425.15 913.422 425.65C913.055 426.15 912.542 426.54 911.882 426.82C911.229 427.1 910.489 427.24 909.662 427.24ZM919.785 427C919.238 427 918.745 426.883 918.305 426.65C917.871 426.417 917.531 426.093 917.285 425.68C917.045 425.267 916.925 424.797 916.925 424.27L916.915 418.81H915.115L915.125 416.76H916.245C916.498 416.76 916.701 416.683 916.855 416.53C917.008 416.37 917.085 416.167 917.085 415.92V414.27H919.295V416.76H921.755L921.745 418.81H919.285L919.295 423.98C919.295 424.26 919.385 424.493 919.565 424.68C919.751 424.86 919.985 424.95 920.265 424.95H921.745V427H919.785ZM928.136 416.52C928.969 416.52 929.706 416.67 930.346 416.97C930.986 417.263 931.482 417.69 931.836 418.25C932.189 418.803 932.366 419.46 932.366 420.22V427H930.066V425.51C929.746 426.07 929.309 426.5 928.756 426.8C928.209 427.093 927.562 427.24 926.816 427.24C926.156 427.24 925.562 427.117 925.036 426.87C924.516 426.617 924.109 426.267 923.816 425.82C923.522 425.367 923.376 424.853 923.376 424.28C923.376 423.733 923.516 423.23 923.796 422.77C924.082 422.303 924.479 421.923 924.986 421.63C925.492 421.337 926.062 421.157 926.696 421.09L929.366 420.81C929.572 420.79 929.736 420.717 929.856 420.59C929.976 420.457 930.036 420.263 930.036 420.01C930.029 419.523 929.846 419.13 929.486 418.83C929.126 418.53 928.656 418.38 928.076 418.38C927.702 418.38 927.359 418.447 927.046 418.58C926.739 418.707 926.492 418.88 926.306 419.1C926.119 419.32 926.009 419.563 925.976 419.83H923.626C923.692 419.19 923.929 418.62 924.336 418.12C924.742 417.62 925.276 417.23 925.936 416.95C926.596 416.663 927.329 416.52 928.136 416.52ZM925.796 424.01C925.796 424.437 925.962 424.783 926.296 425.05C926.629 425.317 927.059 425.45 927.586 425.45C928.066 425.45 928.489 425.353 928.856 425.16C929.229 424.967 929.519 424.7 929.726 424.36C929.932 424.013 930.036 423.617 930.036 423.17V422.26L927.266 422.58C926.826 422.627 926.469 422.777 926.196 423.03C925.929 423.283 925.796 423.61 925.796 424.01ZM939.552 430.44C938.725 430.44 937.972 430.31 937.292 430.05C936.612 429.797 936.055 429.44 935.622 428.98C935.195 428.52 934.932 427.99 934.832 427.39H937.152C937.325 427.75 937.622 428.033 938.042 428.24C938.468 428.447 938.945 428.55 939.472 428.55C940.005 428.55 940.472 428.44 940.872 428.22C941.278 428 941.588 427.693 941.802 427.3C942.022 426.907 942.132 426.45 942.132 425.93V425.48L942.162 424.58C941.782 425.093 941.308 425.493 940.742 425.78C940.175 426.06 939.552 426.2 938.872 426.2C938.025 426.2 937.255 425.993 936.562 425.58C935.875 425.16 935.335 424.583 934.942 423.85C934.555 423.117 934.362 422.29 934.362 421.37C934.362 420.457 934.555 419.633 934.942 418.9C935.335 418.16 935.875 417.58 936.562 417.16C937.255 416.74 938.025 416.53 938.872 416.53C939.572 416.53 940.212 416.683 940.792 416.99C941.372 417.29 941.848 417.713 942.222 418.26V416.76H944.532L944.502 425.93C944.502 426.823 944.295 427.61 943.882 428.29C943.468 428.97 942.885 429.497 942.132 429.87C941.385 430.25 940.525 430.44 939.552 430.44ZM936.802 421.37C936.802 421.903 936.915 422.387 937.142 422.82C937.375 423.247 937.695 423.583 938.102 423.83C938.508 424.077 938.965 424.2 939.472 424.2C939.978 424.2 940.435 424.077 940.842 423.83C941.248 423.583 941.568 423.247 941.802 422.82C942.042 422.387 942.162 421.903 942.162 421.37C942.162 420.837 942.042 420.357 941.802 419.93C941.568 419.497 941.248 419.157 940.842 418.91C940.435 418.663 939.978 418.54 939.472 418.54C938.965 418.54 938.508 418.663 938.102 418.91C937.695 419.157 937.375 419.497 937.142 419.93C936.915 420.357 936.802 420.837 936.802 421.37ZM951.905 427.24C950.905 427.24 950.005 427.01 949.205 426.55C948.411 426.09 947.791 425.453 947.345 424.64C946.898 423.82 946.675 422.897 946.675 421.87C946.675 420.857 946.901 419.943 947.355 419.13C947.808 418.317 948.431 417.68 949.225 417.22C950.025 416.753 950.918 416.52 951.905 416.52C952.918 416.52 953.805 416.75 954.565 417.21C955.331 417.67 955.921 418.307 956.335 419.12C956.748 419.927 956.955 420.843 956.955 421.87V422.52H949.145C949.211 423.053 949.375 423.523 949.635 423.93C949.895 424.337 950.228 424.653 950.635 424.88C951.041 425.1 951.495 425.21 951.995 425.21C952.581 425.21 953.078 425.123 953.485 424.95C953.891 424.777 954.205 424.527 954.425 424.2H956.775C956.668 424.7 956.405 425.183 955.985 425.65C955.565 426.117 955.005 426.5 954.305 426.8C953.605 427.093 952.805 427.24 951.905 427.24ZM954.515 420.87C954.395 420.137 954.111 419.557 953.665 419.13C953.225 418.703 952.641 418.49 951.915 418.49C951.195 418.49 950.588 418.703 950.095 419.13C949.608 419.557 949.298 420.137 949.165 420.87H954.515Z" fill="white"/>
<path d="M803 440H804.999L805 536H803V440Z" fill="black"/>
</g>
<g clip-path="url(#clip6_8714_5879)">
<path d="M373.796 229H379.716C380.676 229 381.519 229.177 382.246 229.53C382.972 229.883 383.532 230.383 383.926 231.03C384.326 231.67 384.526 232.413 384.526 233.26C384.526 234.113 384.322 234.867 383.916 235.52C383.516 236.173 382.946 236.68 382.206 237.04C381.472 237.393 380.616 237.57 379.636 237.57H376.246V243H373.796V229ZM379.586 235.48C380.312 235.48 380.892 235.283 381.326 234.89C381.759 234.49 381.976 233.953 381.976 233.28C381.976 232.613 381.759 232.083 381.326 231.69C380.892 231.297 380.312 231.1 379.586 231.1H376.246V235.48H379.586ZM390.056 232.52C390.889 232.52 391.626 232.67 392.266 232.97C392.906 233.263 393.402 233.69 393.756 234.25C394.109 234.803 394.286 235.46 394.286 236.22V243H391.986V241.51C391.666 242.07 391.229 242.5 390.676 242.8C390.129 243.093 389.482 243.24 388.736 243.24C388.076 243.24 387.482 243.117 386.956 242.87C386.436 242.617 386.029 242.267 385.736 241.82C385.442 241.367 385.296 240.853 385.296 240.28C385.296 239.733 385.436 239.23 385.716 238.77C386.002 238.303 386.399 237.923 386.906 237.63C387.412 237.337 387.982 237.157 388.616 237.09L391.286 236.81C391.492 236.79 391.656 236.717 391.776 236.59C391.896 236.457 391.956 236.263 391.956 236.01C391.949 235.523 391.766 235.13 391.406 234.83C391.046 234.53 390.576 234.38 389.996 234.38C389.622 234.38 389.279 234.447 388.966 234.58C388.659 234.707 388.412 234.88 388.226 235.1C388.039 235.32 387.929 235.563 387.896 235.83H385.546C385.612 235.19 385.849 234.62 386.256 234.12C386.662 233.62 387.196 233.23 387.856 232.95C388.516 232.663 389.249 232.52 390.056 232.52ZM387.716 240.01C387.716 240.437 387.882 240.783 388.216 241.05C388.549 241.317 388.979 241.45 389.506 241.45C389.986 241.45 390.409 241.353 390.776 241.16C391.149 240.967 391.439 240.7 391.646 240.36C391.852 240.013 391.956 239.617 391.956 239.17V238.26L389.186 238.58C388.746 238.627 388.389 238.777 388.116 239.03C387.849 239.283 387.716 239.61 387.716 240.01ZM396.962 232.76H399.322V234.3C399.648 233.78 400.055 233.383 400.542 233.11C401.028 232.83 401.585 232.69 402.212 232.69H402.592V235.09H401.912C401.118 235.083 400.492 235.293 400.032 235.72C399.572 236.147 399.342 236.73 399.342 237.47V243H396.962V232.76ZM406.975 243C406.141 243 405.481 242.77 404.995 242.31C404.508 241.85 404.265 241.22 404.265 240.42V230.2H406.645V232.76H409.045L409.035 234.81H406.635L406.645 240.13C406.645 240.377 406.718 240.577 406.865 240.73C407.018 240.877 407.218 240.95 407.465 240.95H409.035V243H406.975ZM410.84 244.25H412.27C412.536 244.25 412.77 244.177 412.97 244.03C413.176 243.89 413.33 243.7 413.43 243.46L413.92 242.4L409.98 232.76H412.45L415.1 239.64L417.53 232.76H419.94L415.69 243.69C415.39 244.47 414.976 245.083 414.45 245.53C413.93 245.977 413.256 246.2 412.43 246.2H410.84V244.25Z" fill="black"/>
</g>
<path d="M356 1126H364V1120H372V1114H380V1108H388" stroke="black" stroke-width="4"/>
<path d="M232 1070H240V1064H248V1058H256V1052H264" stroke="black" stroke-width="4"/>
<path d="M416 804H424V798H432V792H440V786H448" stroke="black" stroke-width="4"/>
<path d="M512 556H520V550H528V544H536V538H544" stroke="black" stroke-width="4"/>
<path d="M724 476H732V470H740V464H748V458H756" stroke="black" stroke-width="4"/>
<path d="M264 686H372M372 686V660M372 686V700M372 612V536M372 728V774M372 826V882M372 882H348M372 882H398M328 882H322M242 882H248M222 882H216M145 882H152M320 1000L360 1072L344 1080M144 1032L128 1088L80 1072M96 920L120 936V882H127M152 882V944C152 944 163.07 952.5 184 952.5C204.93 952.5 216 944 216 944V882M152 882H216M248 882V940L268 936L272 944H322V882M248 882H322M418 882H448M544 420H560M592 420H576M372 794V806M198 200V232M198 296V264" stroke="white" stroke-width="4"/>
<g clip-path="url(#clip7_8714_5879)">
<rect width="90" height="40" transform="translate(72 1176)" fill="black"/>
<path d="M81.124 1189H92.244V1191.29H87.924V1203H85.464V1191.29H81.124V1189ZM99.9387 1196.25V1198.27H93.0887V1196.25H99.9387ZM106.635 1203.24C105.788 1203.24 105.021 1203.11 104.335 1202.86C103.648 1202.6 103.105 1202.24 102.705 1201.78C102.311 1201.31 102.105 1200.78 102.085 1200.19H104.475C104.495 1200.42 104.598 1200.63 104.785 1200.82C104.978 1201.01 105.231 1201.15 105.545 1201.26C105.865 1201.37 106.221 1201.42 106.615 1201.42C107.008 1201.42 107.355 1201.36 107.655 1201.25C107.955 1201.14 108.185 1200.98 108.345 1200.78C108.511 1200.57 108.595 1200.34 108.595 1200.08C108.595 1199.79 108.508 1199.55 108.335 1199.35C108.168 1199.15 107.935 1199.03 107.635 1198.98L105.015 1198.58C104.208 1198.45 103.571 1198.13 103.105 1197.61C102.645 1197.09 102.415 1196.44 102.415 1195.67C102.415 1195.08 102.588 1194.55 102.935 1194.08C103.281 1193.6 103.765 1193.22 104.385 1192.95C105.011 1192.68 105.725 1192.54 106.525 1192.54C107.318 1192.54 108.031 1192.67 108.665 1192.92C109.305 1193.17 109.808 1193.51 110.175 1193.95C110.548 1194.38 110.748 1194.88 110.775 1195.43H108.365C108.338 1195.12 108.151 1194.86 107.805 1194.66C107.458 1194.46 107.025 1194.36 106.505 1194.36C105.985 1194.36 105.561 1194.47 105.235 1194.7C104.908 1194.93 104.745 1195.21 104.745 1195.56C104.745 1195.83 104.825 1196.05 104.985 1196.23C105.151 1196.41 105.388 1196.52 105.695 1196.57L108.265 1196.95C108.811 1197.02 109.288 1197.2 109.695 1197.49C110.101 1197.77 110.411 1198.12 110.625 1198.55C110.845 1198.98 110.955 1199.44 110.955 1199.95C110.955 1200.58 110.768 1201.15 110.395 1201.65C110.028 1202.15 109.515 1202.54 108.855 1202.82C108.201 1203.1 107.461 1203.24 106.635 1203.24ZM113.147 1189H115.477V1192.16L115.447 1194.06V1194.29C115.774 1193.72 116.211 1193.28 116.757 1192.98C117.304 1192.67 117.937 1192.52 118.657 1192.52C119.384 1192.52 120.027 1192.68 120.587 1193C121.147 1193.32 121.584 1193.78 121.897 1194.39C122.211 1195 122.367 1195.72 122.367 1196.56V1203H119.987V1196.92C119.987 1196.19 119.801 1195.63 119.427 1195.22C119.054 1194.81 118.537 1194.61 117.877 1194.61C117.411 1194.61 116.997 1194.71 116.637 1194.92C116.284 1195.13 116.011 1195.42 115.817 1195.79C115.624 1196.16 115.527 1196.59 115.527 1197.07V1203H113.147V1189ZM125.022 1192.76H127.402V1203H125.022V1192.76ZM127.492 1189V1191.26H124.912V1189H127.492ZM130.296 1192.76H132.656V1194.3C132.982 1193.78 133.389 1193.38 133.876 1193.11C134.362 1192.83 134.919 1192.69 135.546 1192.69H135.926V1195.09H135.246C134.452 1195.08 133.826 1195.29 133.366 1195.72C132.906 1196.15 132.676 1196.73 132.676 1197.47V1203H130.296V1192.76ZM140.309 1203C139.475 1203 138.815 1202.77 138.329 1202.31C137.842 1201.85 137.599 1201.22 137.599 1200.42V1190.2H139.979V1192.76H142.379L142.369 1194.81H139.969L139.979 1200.13C139.979 1200.38 140.052 1200.58 140.199 1200.73C140.352 1200.88 140.552 1200.95 140.799 1200.95H142.369V1203H140.309ZM148.354 1203.24C147.507 1203.24 146.74 1203.11 146.054 1202.86C145.367 1202.6 144.824 1202.24 144.424 1201.78C144.03 1201.31 143.824 1200.78 143.804 1200.19H146.194C146.214 1200.42 146.317 1200.63 146.504 1200.82C146.697 1201.01 146.95 1201.15 147.264 1201.26C147.584 1201.37 147.94 1201.42 148.334 1201.42C148.727 1201.42 149.074 1201.36 149.374 1201.25C149.674 1201.14 149.904 1200.98 150.064 1200.78C150.23 1200.57 150.314 1200.34 150.314 1200.08C150.314 1199.79 150.227 1199.55 150.054 1199.35C149.887 1199.15 149.654 1199.03 149.354 1198.98L146.734 1198.58C145.927 1198.45 145.29 1198.13 144.824 1197.61C144.364 1197.09 144.134 1196.44 144.134 1195.67C144.134 1195.08 144.307 1194.55 144.654 1194.08C145 1193.6 145.484 1193.22 146.104 1192.95C146.73 1192.68 147.444 1192.54 148.244 1192.54C149.037 1192.54 149.75 1192.67 150.384 1192.92C151.024 1193.17 151.527 1193.51 151.894 1193.95C152.267 1194.38 152.467 1194.88 152.494 1195.43H150.084C150.057 1195.12 149.87 1194.86 149.524 1194.66C149.177 1194.46 148.744 1194.36 148.224 1194.36C147.704 1194.36 147.28 1194.47 146.954 1194.7C146.627 1194.93 146.464 1195.21 146.464 1195.56C146.464 1195.83 146.544 1196.05 146.704 1196.23C146.87 1196.41 147.107 1196.52 147.414 1196.57L149.984 1196.95C150.53 1197.02 151.007 1197.2 151.414 1197.49C151.82 1197.77 152.13 1198.12 152.344 1198.55C152.564 1198.98 152.674 1199.44 152.674 1199.95C152.674 1200.58 152.487 1201.15 152.114 1201.65C151.747 1202.15 151.234 1202.54 150.574 1202.82C149.92 1203.1 149.18 1203.24 148.354 1203.24Z" fill="white"/>
</g>
<path d="M120 1016H128V1010H136V1004H144V998H152" stroke="black" stroke-width="4"/>
<path d="M26.196 974.464L29.1242 985.393L18.196 988.321" stroke="black" stroke-width="4"/>
<path d="M35.7224 979.964L38.6506 990.893L27.7224 993.821" stroke="black" stroke-width="4"/>
<path d="M45.2488 985.464L48.177 996.393L37.2488 999.321" stroke="black" stroke-width="4"/>
<path d="M34 1136L42 1144L34 1152" stroke="black" stroke-width="4"/>
<path d="M45 1136L53 1144L45 1152" stroke="black" stroke-width="4"/>
<path d="M56 1136L64 1144L56 1152" stroke="black" stroke-width="4"/>
<g opacity="0.5" clip-path="url(#clip8_8714_5879)">
<path d="M169.296 905L172.626 915.84L175.816 905H178.436L181.706 915.84L184.926 905H187.446L183.056 919H180.316L177.096 908.21L173.836 919H171.106L166.716 905H169.296ZM195.321 919.24C193.994 919.24 192.797 918.927 191.731 918.3C190.671 917.673 189.837 916.81 189.231 915.71C188.624 914.603 188.321 913.367 188.321 912C188.321 910.633 188.624 909.4 189.231 908.3C189.837 907.193 190.671 906.327 191.731 905.7C192.797 905.073 193.994 904.76 195.321 904.76C196.441 904.76 197.477 904.997 198.431 905.47C199.391 905.937 200.167 906.567 200.761 907.36C201.361 908.147 201.707 908.997 201.801 909.91H199.381C199.261 909.403 199.004 908.927 198.611 908.48C198.224 908.033 197.741 907.677 197.161 907.41C196.581 907.137 195.964 907 195.311 907C194.457 907 193.691 907.213 193.011 907.64C192.331 908.067 191.797 908.66 191.411 909.42C191.031 910.18 190.841 911.04 190.841 912C190.841 912.96 191.031 913.82 191.411 914.58C191.797 915.34 192.331 915.933 193.011 916.36C193.691 916.787 194.457 917 195.311 917C195.964 917 196.581 916.867 197.161 916.6C197.741 916.333 198.224 915.98 198.611 915.54C199.004 915.093 199.261 914.62 199.381 914.12H201.801C201.707 915.027 201.361 915.873 200.761 916.66C200.167 917.44 199.391 918.067 198.431 918.54C197.477 919.007 196.441 919.24 195.321 919.24Z" fill="black"/>
</g>
<g opacity="0.5" clip-path="url(#clip9_8714_5879)">
<path d="M269.296 905L272.626 915.84L275.816 905H278.436L281.706 915.84L284.926 905H287.446L283.056 919H280.316L277.096 908.21L273.836 919H271.106L266.716 905H269.296ZM295.321 919.24C293.994 919.24 292.797 918.927 291.731 918.3C290.671 917.673 289.837 916.81 289.231 915.71C288.624 914.603 288.321 913.367 288.321 912C288.321 910.633 288.624 909.4 289.231 908.3C289.837 907.193 290.671 906.327 291.731 905.7C292.797 905.073 293.994 904.76 295.321 904.76C296.441 904.76 297.477 904.997 298.431 905.47C299.391 905.937 300.167 906.567 300.761 907.36C301.361 908.147 301.707 908.997 301.801 909.91H299.381C299.261 909.403 299.004 908.927 298.611 908.48C298.224 908.033 297.741 907.677 297.161 907.41C296.581 907.137 295.964 907 295.311 907C294.457 907 293.691 907.213 293.011 907.64C292.331 908.067 291.797 908.66 291.411 909.42C291.031 910.18 290.841 911.04 290.841 912C290.841 912.96 291.031 913.82 291.411 914.58C291.797 915.34 292.331 915.933 293.011 916.36C293.691 916.787 294.457 917 295.311 917C295.964 917 296.581 916.867 297.161 916.6C297.741 916.333 298.224 915.98 298.611 915.54C299.004 915.093 299.261 914.62 299.381 914.12H301.801C301.707 915.027 301.361 915.873 300.761 916.66C300.167 917.44 299.391 918.067 298.431 918.54C297.477 919.007 296.441 919.24 295.321 919.24Z" fill="black"/>
</g>
<g clip-path="url(#clip10_8714_5879)">
<rect width="112" height="40" transform="translate(310 1176)" fill="black"/>
<path d="M321.304 1189L324.634 1199.84L327.824 1189H330.444L333.714 1199.84L336.934 1189H339.454L335.064 1203H332.324L329.104 1192.21L325.844 1203H323.114L318.724 1189H321.304ZM344.235 1192.52C345.069 1192.52 345.805 1192.67 346.445 1192.97C347.085 1193.26 347.582 1193.69 347.935 1194.25C348.289 1194.8 348.465 1195.46 348.465 1196.22V1203H346.165V1201.51C345.845 1202.07 345.409 1202.5 344.855 1202.8C344.309 1203.09 343.662 1203.24 342.915 1203.24C342.255 1203.24 341.662 1203.12 341.135 1202.87C340.615 1202.62 340.209 1202.27 339.915 1201.82C339.622 1201.37 339.475 1200.85 339.475 1200.28C339.475 1199.73 339.615 1199.23 339.895 1198.77C340.182 1198.3 340.579 1197.92 341.085 1197.63C341.592 1197.34 342.162 1197.16 342.795 1197.09L345.465 1196.81C345.672 1196.79 345.835 1196.72 345.955 1196.59C346.075 1196.46 346.135 1196.26 346.135 1196.01C346.129 1195.52 345.945 1195.13 345.585 1194.83C345.225 1194.53 344.755 1194.38 344.175 1194.38C343.802 1194.38 343.459 1194.45 343.145 1194.58C342.839 1194.71 342.592 1194.88 342.405 1195.1C342.219 1195.32 342.109 1195.56 342.075 1195.83H339.725C339.792 1195.19 340.029 1194.62 340.435 1194.12C340.842 1193.62 341.375 1193.23 342.035 1192.95C342.695 1192.66 343.429 1192.52 344.235 1192.52ZM341.895 1200.01C341.895 1200.44 342.062 1200.78 342.395 1201.05C342.729 1201.32 343.159 1201.45 343.685 1201.45C344.165 1201.45 344.589 1201.35 344.955 1201.16C345.329 1200.97 345.619 1200.7 345.825 1200.36C346.032 1200.01 346.135 1199.62 346.135 1199.17V1198.26L343.365 1198.58C342.925 1198.63 342.569 1198.78 342.295 1199.03C342.029 1199.28 341.895 1199.61 341.895 1200.01ZM351.141 1192.76H353.501V1194.3C353.828 1193.78 354.235 1193.38 354.721 1193.11C355.208 1192.83 355.765 1192.69 356.391 1192.69H356.771V1195.09H356.091C355.298 1195.08 354.671 1195.29 354.211 1195.72C353.751 1196.15 353.521 1196.73 353.521 1197.47V1203H351.141V1192.76ZM365.976 1201.51C365.602 1202.06 365.116 1202.49 364.516 1202.79C363.916 1203.09 363.239 1203.24 362.486 1203.24C361.566 1203.24 360.742 1203.02 360.016 1202.57C359.296 1202.12 358.732 1201.48 358.326 1200.67C357.926 1199.86 357.726 1198.93 357.726 1197.88C357.726 1196.83 357.926 1195.9 358.326 1195.09C358.732 1194.28 359.296 1193.65 360.016 1193.2C360.742 1192.75 361.566 1192.52 362.486 1192.52C363.239 1192.52 363.916 1192.67 364.516 1192.97C365.116 1193.27 365.602 1193.7 365.976 1194.25V1189H368.346V1203H365.976V1201.51ZM360.196 1197.88C360.196 1198.51 360.316 1199.08 360.556 1199.57C360.802 1200.06 361.142 1200.44 361.576 1200.71C362.016 1200.98 362.519 1201.11 363.086 1201.11C363.612 1201.11 364.082 1200.99 364.496 1200.76C364.916 1200.53 365.252 1200.2 365.506 1199.78C365.766 1199.35 365.922 1198.86 365.976 1198.3V1197.46C365.922 1196.9 365.766 1196.41 365.506 1195.99C365.252 1195.56 364.916 1195.23 364.496 1195C364.082 1194.77 363.612 1194.65 363.086 1194.65C362.519 1194.65 362.016 1194.79 361.576 1195.06C361.142 1195.33 360.802 1195.71 360.556 1196.2C360.316 1196.69 360.196 1197.25 360.196 1197.88ZM371.122 1192.76H373.482V1194.3C373.809 1193.78 374.215 1193.38 374.702 1193.11C375.189 1192.83 375.745 1192.69 376.372 1192.69H376.752V1195.09H376.072C375.279 1195.08 374.652 1195.29 374.192 1195.72C373.732 1196.15 373.502 1196.73 373.502 1197.47V1203H371.122V1192.76ZM383.106 1203.24C382.086 1203.24 381.166 1203.01 380.346 1202.55C379.526 1202.09 378.879 1201.45 378.406 1200.64C377.939 1199.83 377.706 1198.91 377.706 1197.88C377.706 1196.85 377.939 1195.93 378.406 1195.12C378.879 1194.31 379.526 1193.67 380.346 1193.21C381.173 1192.75 382.096 1192.52 383.116 1192.52C384.136 1192.52 385.056 1192.75 385.876 1193.21C386.696 1193.67 387.339 1194.31 387.806 1195.12C388.273 1195.93 388.506 1196.85 388.506 1197.88C388.506 1198.91 388.273 1199.83 387.806 1200.64C387.339 1201.45 386.696 1202.09 385.876 1202.55C385.056 1203.01 384.133 1203.24 383.106 1203.24ZM380.176 1197.88C380.176 1198.51 380.303 1199.07 380.556 1199.56C380.816 1200.05 381.169 1200.43 381.616 1200.7C382.063 1200.97 382.566 1201.1 383.126 1201.1C383.679 1201.1 384.176 1200.97 384.616 1200.7C385.063 1200.43 385.409 1200.05 385.656 1199.56C385.909 1199.07 386.036 1198.51 386.036 1197.88C386.036 1197.25 385.909 1196.69 385.656 1196.2C385.403 1195.71 385.053 1195.33 384.606 1195.06C384.166 1194.79 383.669 1194.65 383.116 1194.65C382.563 1194.65 382.063 1194.79 381.616 1195.06C381.169 1195.33 380.816 1195.71 380.556 1196.2C380.303 1196.69 380.176 1197.25 380.176 1197.88ZM390.673 1189H393.043V1194.25C393.416 1193.7 393.903 1193.27 394.503 1192.97C395.103 1192.67 395.779 1192.52 396.533 1192.52C397.453 1192.52 398.273 1192.75 398.993 1193.2C399.719 1193.65 400.283 1194.28 400.683 1195.09C401.089 1195.9 401.293 1196.83 401.293 1197.88C401.293 1198.93 401.089 1199.86 400.683 1200.67C400.283 1201.48 399.719 1202.12 398.993 1202.57C398.273 1203.02 397.453 1203.24 396.533 1203.24C395.779 1203.24 395.103 1203.09 394.503 1202.79C393.903 1202.49 393.416 1202.06 393.043 1201.51V1203H390.673V1189ZM393.043 1198.3C393.096 1198.86 393.249 1199.35 393.503 1199.78C393.763 1200.2 394.099 1200.53 394.513 1200.76C394.933 1200.99 395.406 1201.11 395.933 1201.11C396.499 1201.11 396.999 1200.98 397.433 1200.71C397.873 1200.44 398.213 1200.06 398.453 1199.57C398.699 1199.08 398.823 1198.51 398.823 1197.88C398.823 1197.25 398.699 1196.69 398.453 1196.2C398.213 1195.71 397.873 1195.33 397.433 1195.06C396.999 1194.79 396.499 1194.65 395.933 1194.65C395.406 1194.65 394.933 1194.77 394.513 1195C394.099 1195.23 393.763 1195.56 393.503 1195.99C393.249 1196.41 393.096 1196.9 393.043 1197.46V1198.3ZM407.926 1203.24C406.926 1203.24 406.026 1203.01 405.226 1202.55C404.433 1202.09 403.813 1201.45 403.366 1200.64C402.919 1199.82 402.696 1198.9 402.696 1197.87C402.696 1196.86 402.923 1195.94 403.376 1195.13C403.829 1194.32 404.453 1193.68 405.246 1193.22C406.046 1192.75 406.939 1192.52 407.926 1192.52C408.939 1192.52 409.826 1192.75 410.586 1193.21C411.353 1193.67 411.943 1194.31 412.356 1195.12C412.769 1195.93 412.976 1196.84 412.976 1197.87V1198.52H405.166C405.233 1199.05 405.396 1199.52 405.656 1199.93C405.916 1200.34 406.249 1200.65 406.656 1200.88C407.063 1201.1 407.516 1201.21 408.016 1201.21C408.603 1201.21 409.099 1201.12 409.506 1200.95C409.913 1200.78 410.226 1200.53 410.446 1200.2H412.796C412.689 1200.7 412.426 1201.18 412.006 1201.65C411.586 1202.12 411.026 1202.5 410.326 1202.8C409.626 1203.09 408.826 1203.24 407.926 1203.24ZM410.536 1196.87C410.416 1196.14 410.133 1195.56 409.686 1195.13C409.246 1194.7 408.663 1194.49 407.936 1194.49C407.216 1194.49 406.609 1194.7 406.116 1195.13C405.629 1195.56 405.319 1196.14 405.186 1196.87H410.536Z" fill="white"/>
</g>
<g clip-path="url(#clip11_8714_5879)">
<rect width="132" height="40" transform="translate(170 1176)" fill="black"/>
<path d="M184.672 1197.57H182.242V1203H179.792V1189H185.712C186.672 1189 187.515 1189.18 188.242 1189.53C188.968 1189.88 189.528 1190.38 189.922 1191.03C190.322 1191.67 190.522 1192.41 190.522 1193.26C190.522 1194.3 190.228 1195.18 189.642 1195.91C189.055 1196.64 188.248 1197.13 187.222 1197.38L190.602 1203H187.822L184.672 1197.57ZM185.582 1195.48C186.308 1195.48 186.888 1195.28 187.322 1194.89C187.755 1194.49 187.972 1193.95 187.972 1193.28C187.972 1192.61 187.755 1192.08 187.322 1191.69C186.888 1191.3 186.308 1191.1 185.582 1191.1H182.242V1195.48H185.582ZM196.989 1203.24C195.989 1203.24 195.089 1203.01 194.289 1202.55C193.495 1202.09 192.875 1201.45 192.429 1200.64C191.982 1199.82 191.759 1198.9 191.759 1197.87C191.759 1196.86 191.985 1195.94 192.439 1195.13C192.892 1194.32 193.515 1193.68 194.309 1193.22C195.109 1192.75 196.002 1192.52 196.989 1192.52C198.002 1192.52 198.889 1192.75 199.649 1193.21C200.415 1193.67 201.005 1194.31 201.419 1195.12C201.832 1195.93 202.039 1196.84 202.039 1197.87V1198.52H194.229C194.295 1199.05 194.459 1199.52 194.719 1199.93C194.979 1200.34 195.312 1200.65 195.719 1200.88C196.125 1201.1 196.579 1201.21 197.079 1201.21C197.665 1201.21 198.162 1201.12 198.569 1200.95C198.975 1200.78 199.289 1200.53 199.509 1200.2H201.859C201.752 1200.7 201.489 1201.18 201.069 1201.65C200.649 1202.12 200.089 1202.5 199.389 1202.8C198.689 1203.09 197.889 1203.24 196.989 1203.24ZM199.599 1196.87C199.479 1196.14 199.195 1195.56 198.749 1195.13C198.309 1194.7 197.725 1194.49 196.999 1194.49C196.279 1194.49 195.672 1194.7 195.179 1195.13C194.692 1195.56 194.382 1196.14 194.249 1196.87H199.599ZM208.698 1206.44C207.872 1206.44 207.118 1206.31 206.438 1206.05C205.758 1205.8 205.202 1205.44 204.768 1204.98C204.342 1204.52 204.078 1203.99 203.978 1203.39H206.298C206.472 1203.75 206.768 1204.03 207.188 1204.24C207.615 1204.45 208.092 1204.55 208.618 1204.55C209.152 1204.55 209.618 1204.44 210.018 1204.22C210.425 1204 210.735 1203.69 210.948 1203.3C211.168 1202.91 211.278 1202.45 211.278 1201.93V1201.48L211.308 1200.58C210.928 1201.09 210.455 1201.49 209.888 1201.78C209.322 1202.06 208.698 1202.2 208.018 1202.2C207.172 1202.2 206.402 1201.99 205.708 1201.58C205.022 1201.16 204.482 1200.58 204.088 1199.85C203.702 1199.12 203.508 1198.29 203.508 1197.37C203.508 1196.46 203.702 1195.63 204.088 1194.9C204.482 1194.16 205.022 1193.58 205.708 1193.16C206.402 1192.74 207.172 1192.53 208.018 1192.53C208.718 1192.53 209.358 1192.68 209.938 1192.99C210.518 1193.29 210.995 1193.71 211.368 1194.26V1192.76H213.678L213.648 1201.93C213.648 1202.82 213.442 1203.61 213.028 1204.29C212.615 1204.97 212.032 1205.5 211.278 1205.87C210.532 1206.25 209.672 1206.44 208.698 1206.44ZM205.948 1197.37C205.948 1197.9 206.062 1198.39 206.288 1198.82C206.522 1199.25 206.842 1199.58 207.248 1199.83C207.655 1200.08 208.112 1200.2 208.618 1200.2C209.125 1200.2 209.582 1200.08 209.988 1199.83C210.395 1199.58 210.715 1199.25 210.948 1198.82C211.188 1198.39 211.308 1197.9 211.308 1197.37C211.308 1196.84 211.188 1196.36 210.948 1195.93C210.715 1195.5 210.395 1195.16 209.988 1194.91C209.582 1194.66 209.125 1194.54 208.618 1194.54C208.112 1194.54 207.655 1194.66 207.248 1194.91C206.842 1195.16 206.522 1195.5 206.288 1195.93C206.062 1196.36 205.948 1196.84 205.948 1197.37ZM216.571 1192.76H218.951V1203H216.571V1192.76ZM219.041 1189V1191.26H216.461V1189H219.041ZM225.645 1203.24C224.798 1203.24 224.031 1203.11 223.345 1202.86C222.658 1202.6 222.115 1202.24 221.715 1201.78C221.321 1201.31 221.115 1200.78 221.095 1200.19H223.485C223.505 1200.42 223.608 1200.63 223.795 1200.82C223.988 1201.01 224.241 1201.15 224.555 1201.26C224.875 1201.37 225.231 1201.42 225.625 1201.42C226.018 1201.42 226.365 1201.36 226.665 1201.25C226.965 1201.14 227.195 1200.98 227.355 1200.78C227.521 1200.57 227.605 1200.34 227.605 1200.08C227.605 1199.79 227.518 1199.55 227.345 1199.35C227.178 1199.15 226.945 1199.03 226.645 1198.98L224.025 1198.58C223.218 1198.45 222.581 1198.13 222.115 1197.61C221.655 1197.09 221.425 1196.44 221.425 1195.67C221.425 1195.08 221.598 1194.55 221.945 1194.08C222.291 1193.6 222.775 1193.22 223.395 1192.95C224.021 1192.68 224.735 1192.54 225.535 1192.54C226.328 1192.54 227.041 1192.67 227.675 1192.92C228.315 1193.17 228.818 1193.51 229.185 1193.95C229.558 1194.38 229.758 1194.88 229.785 1195.43H227.375C227.348 1195.12 227.161 1194.86 226.815 1194.66C226.468 1194.46 226.035 1194.36 225.515 1194.36C224.995 1194.36 224.571 1194.47 224.245 1194.7C223.918 1194.93 223.755 1195.21 223.755 1195.56C223.755 1195.83 223.835 1196.05 223.995 1196.23C224.161 1196.41 224.398 1196.52 224.705 1196.57L227.275 1196.95C227.821 1197.02 228.298 1197.2 228.705 1197.49C229.111 1197.77 229.421 1198.12 229.635 1198.55C229.855 1198.98 229.965 1199.44 229.965 1199.95C229.965 1200.58 229.778 1201.15 229.405 1201.65C229.038 1202.15 228.525 1202.54 227.865 1202.82C227.211 1203.1 226.471 1203.24 225.645 1203.24ZM235.767 1203C235.22 1203 234.727 1202.88 234.287 1202.65C233.854 1202.42 233.514 1202.09 233.267 1201.68C233.027 1201.27 232.907 1200.8 232.907 1200.27L232.897 1194.81H231.097L231.107 1192.76H232.227C232.48 1192.76 232.684 1192.68 232.837 1192.53C232.99 1192.37 233.067 1192.17 233.067 1191.92V1190.27H235.277V1192.76H237.737L237.727 1194.81H235.267L235.277 1199.98C235.277 1200.26 235.367 1200.49 235.547 1200.68C235.734 1200.86 235.967 1200.95 236.247 1200.95H237.727V1203H235.767ZM240.028 1192.76H242.388V1194.3C242.715 1193.78 243.121 1193.38 243.608 1193.11C244.095 1192.83 244.651 1192.69 245.278 1192.69H245.658V1195.09H244.978C244.185 1195.08 243.558 1195.29 243.098 1195.72C242.638 1196.15 242.408 1196.73 242.408 1197.47V1203H240.028V1192.76ZM251.286 1192.52C252.119 1192.52 252.856 1192.67 253.496 1192.97C254.136 1193.26 254.633 1193.69 254.986 1194.25C255.339 1194.8 255.516 1195.46 255.516 1196.22V1203H253.216V1201.51C252.896 1202.07 252.459 1202.5 251.906 1202.8C251.359 1203.09 250.713 1203.24 249.966 1203.24C249.306 1203.24 248.713 1203.12 248.186 1202.87C247.666 1202.62 247.259 1202.27 246.966 1201.82C246.673 1201.37 246.526 1200.85 246.526 1200.28C246.526 1199.73 246.666 1199.23 246.946 1198.77C247.233 1198.3 247.629 1197.92 248.136 1197.63C248.643 1197.34 249.213 1197.16 249.846 1197.09L252.516 1196.81C252.723 1196.79 252.886 1196.72 253.006 1196.59C253.126 1196.46 253.186 1196.26 253.186 1196.01C253.179 1195.52 252.996 1195.13 252.636 1194.83C252.276 1194.53 251.806 1194.38 251.226 1194.38C250.853 1194.38 250.509 1194.45 250.196 1194.58C249.889 1194.71 249.643 1194.88 249.456 1195.1C249.269 1195.32 249.159 1195.56 249.126 1195.83H246.776C246.843 1195.19 247.079 1194.62 247.486 1194.12C247.893 1193.62 248.426 1193.23 249.086 1192.95C249.746 1192.66 250.479 1192.52 251.286 1192.52ZM248.946 1200.01C248.946 1200.44 249.113 1200.78 249.446 1201.05C249.779 1201.32 250.209 1201.45 250.736 1201.45C251.216 1201.45 251.639 1201.35 252.006 1201.16C252.379 1200.97 252.669 1200.7 252.876 1200.36C253.083 1200.01 253.186 1199.62 253.186 1199.17V1198.26L250.416 1198.58C249.976 1198.63 249.619 1198.78 249.346 1199.03C249.079 1199.28 248.946 1199.61 248.946 1200.01ZM261.802 1203C261.256 1203 260.762 1202.88 260.322 1202.65C259.889 1202.42 259.549 1202.09 259.302 1201.68C259.062 1201.27 258.942 1200.8 258.942 1200.27L258.932 1194.81H257.132L257.142 1192.76H258.262C258.516 1192.76 258.719 1192.68 258.872 1192.53C259.026 1192.37 259.102 1192.17 259.102 1191.92V1190.27H261.312V1192.76H263.772L263.762 1194.81H261.302L261.312 1199.98C261.312 1200.26 261.402 1200.49 261.582 1200.68C261.769 1200.86 262.002 1200.95 262.282 1200.95H263.762V1203H261.802ZM266.063 1192.76H268.443V1203H266.063V1192.76ZM268.533 1189V1191.26H265.953V1189H268.533ZM275.997 1203.24C274.977 1203.24 274.057 1203.01 273.237 1202.55C272.417 1202.09 271.77 1201.45 271.297 1200.64C270.83 1199.83 270.597 1198.91 270.597 1197.88C270.597 1196.85 270.83 1195.93 271.297 1195.12C271.77 1194.31 272.417 1193.67 273.237 1193.21C274.063 1192.75 274.987 1192.52 276.007 1192.52C277.027 1192.52 277.947 1192.75 278.767 1193.21C279.587 1193.67 280.23 1194.31 280.697 1195.12C281.163 1195.93 281.397 1196.85 281.397 1197.88C281.397 1198.91 281.163 1199.83 280.697 1200.64C280.23 1201.45 279.587 1202.09 278.767 1202.55C277.947 1203.01 277.023 1203.24 275.997 1203.24ZM273.067 1197.88C273.067 1198.51 273.193 1199.07 273.447 1199.56C273.707 1200.05 274.06 1200.43 274.507 1200.7C274.953 1200.97 275.457 1201.1 276.017 1201.1C276.57 1201.1 277.067 1200.97 277.507 1200.7C277.953 1200.43 278.3 1200.05 278.547 1199.56C278.8 1199.07 278.927 1198.51 278.927 1197.88C278.927 1197.25 278.8 1196.69 278.547 1196.2C278.293 1195.71 277.943 1195.33 277.497 1195.06C277.057 1194.79 276.56 1194.65 276.007 1194.65C275.453 1194.65 274.953 1194.79 274.507 1195.06C274.06 1195.33 273.707 1195.71 273.447 1196.2C273.193 1196.69 273.067 1197.25 273.067 1197.88ZM283.563 1192.76H285.873V1194.23C286.207 1193.68 286.643 1193.25 287.183 1192.96C287.73 1192.67 288.357 1192.52 289.063 1192.52C289.797 1192.52 290.443 1192.68 291.003 1193C291.57 1193.32 292.01 1193.78 292.323 1194.39C292.637 1195 292.793 1195.72 292.793 1196.56V1203H290.413V1196.92C290.413 1196.19 290.223 1195.63 289.843 1195.22C289.47 1194.81 288.953 1194.61 288.293 1194.61C287.827 1194.61 287.413 1194.71 287.053 1194.92C286.7 1195.13 286.423 1195.42 286.223 1195.79C286.03 1196.16 285.933 1196.59 285.933 1197.07V1203H283.563V1192.76Z" fill="white"/>
</g>
<g clip-path="url(#clip12_8714_5879)">
<rect width="65" height="40" transform="translate(600 400)" fill="black"/>
<path d="M610.042 413H620.062V415.17H612.452V418.87H619.382V421.05H612.452V424.82H620.262V427H610.042V413ZM626.449 423.56L624.169 427H621.509L625.119 421.74L621.629 416.76H624.339L626.539 419.95L628.649 416.76H631.299L627.869 421.79L631.509 427H628.809L626.449 423.56ZM635.489 416.76V418.36C635.855 417.773 636.345 417.32 636.959 417C637.572 416.68 638.269 416.52 639.049 416.52C639.969 416.52 640.789 416.747 641.509 417.2C642.235 417.647 642.799 418.277 643.199 419.09C643.605 419.903 643.809 420.833 643.809 421.88C643.809 422.927 643.605 423.857 643.199 424.67C642.799 425.483 642.235 426.117 641.509 426.57C640.789 427.017 639.969 427.24 639.049 427.24C638.289 427.24 637.605 427.087 636.999 426.78C636.399 426.473 635.912 426.04 635.539 425.48V430.22H633.169V416.76H635.489ZM635.539 421.88C635.539 422.513 635.662 423.077 635.909 423.57C636.155 424.057 636.499 424.437 636.939 424.71C637.379 424.977 637.882 425.11 638.449 425.11C639.015 425.11 639.515 424.977 639.949 424.71C640.389 424.437 640.729 424.057 640.969 423.57C641.215 423.077 641.339 422.513 641.339 421.88C641.339 421.247 641.215 420.687 640.969 420.2C640.729 419.707 640.389 419.327 639.949 419.06C639.515 418.787 639.015 418.65 638.449 418.65C637.882 418.65 637.379 418.787 636.939 419.06C636.499 419.327 636.155 419.707 635.909 420.2C635.662 420.687 635.539 421.247 635.539 421.88ZM650.622 427.24C649.602 427.24 648.682 427.01 647.862 426.55C647.042 426.09 646.395 425.453 645.922 424.64C645.455 423.827 645.222 422.907 645.222 421.88C645.222 420.853 645.455 419.933 645.922 419.12C646.395 418.307 647.042 417.67 647.862 417.21C648.688 416.75 649.612 416.52 650.632 416.52C651.652 416.52 652.572 416.75 653.392 417.21C654.212 417.67 654.855 418.307 655.322 419.12C655.788 419.933 656.022 420.853 656.022 421.88C656.022 422.907 655.788 423.827 655.322 424.64C654.855 425.453 654.212 426.09 653.392 426.55C652.572 427.01 651.648 427.24 650.622 427.24ZM647.692 421.88C647.692 422.513 647.818 423.073 648.072 423.56C648.332 424.047 648.685 424.427 649.132 424.7C649.578 424.967 650.082 425.1 650.642 425.1C651.195 425.1 651.692 424.967 652.132 424.7C652.578 424.427 652.925 424.047 653.172 423.56C653.425 423.073 653.552 422.513 653.552 421.88C653.552 421.247 653.425 420.687 653.172 420.2C652.918 419.707 652.568 419.327 652.122 419.06C651.682 418.787 651.185 418.65 650.632 418.65C650.078 418.65 649.578 418.787 649.132 419.06C648.685 419.327 648.332 419.707 648.072 420.2C647.818 420.687 647.692 421.247 647.692 421.88Z" fill="white"/>
<path d="M600 440H601.999L602 520H600V440Z" fill="black"/>
</g>
<path d="M292 1096L332 1180" stroke="black" stroke-width="2"/>
<path d="M325.5 436L422 535.5" stroke="black" stroke-width="2"/>
<path d="M504 440V707.5" stroke="black" stroke-width="2"/>
<path d="M204 1096V1184" stroke="black" stroke-width="2"/>
<path d="M152 1076L152 1184" stroke="black" stroke-width="2"/>
<defs>
<clipPath id="clip0_8714_5879">
<rect width="141" height="40" fill="white" transform="translate(145 764)"/>
</clipPath>
<clipPath id="clip1_8714_5879">
<rect width="88" height="40" fill="white" transform="translate(274 591)"/>
</clipPath>
<clipPath id="clip2_8714_5879">
<rect width="122" height="120" fill="white" transform="translate(673 400)"/>
</clipPath>
<clipPath id="clip3_8714_5879">
<rect width="66" height="40" fill="white" transform="translate(279 400)"/>
</clipPath>
<clipPath id="clip4_8714_5879">
<rect width="183" height="40" fill="white" transform="translate(353 400)"/>
</clipPath>
<clipPath id="clip5_8714_5879">
<rect width="163" height="136" fill="white" transform="translate(803 400)"/>
</clipPath>
<clipPath id="clip6_8714_5879">
<rect width="64" height="40" fill="white" transform="translate(364 216)"/>
</clipPath>
<clipPath id="clip7_8714_5879">
<rect width="90" height="40" fill="white" transform="translate(72 1176)"/>
</clipPath>
<clipPath id="clip8_8714_5879">
<rect width="53" height="40" fill="white" transform="translate(158 892)"/>
</clipPath>
<clipPath id="clip9_8714_5879">
<rect width="53" height="40" fill="white" transform="translate(258 892)"/>
</clipPath>
<clipPath id="clip10_8714_5879">
<rect width="112" height="40" fill="white" transform="translate(310 1176)"/>
</clipPath>
<clipPath id="clip11_8714_5879">
<rect width="132" height="40" fill="white" transform="translate(170 1176)"/>
</clipPath>
<clipPath id="clip12_8714_5879">
<rect width="65" height="120" fill="white" transform="translate(600 400)"/>
</clipPath>
</defs>
</svg>
