<svg width="1120" height="744" viewBox="0 0 1120 744" fill="none" xmlns="http://www.w3.org/2000/svg">
<path fill-rule="evenodd" clip-rule="evenodd" d="M915 80H731V144H891V254V306V496L732 496H587L547 572.667V552H499V152H355V364L435 400V408H355V520.977L261 480.94V399H47V550L0 654H214L261 550V541.373L355 583.151V680H499V661.217L539 683.536V744H923V576H1027V254H915V144V143V80Z" fill="#FF6600"/>
<rect x="355" y="152" width="72" height="120" fill="black" fill-opacity="0.28"/>
<rect x="354" y="628" width="31" height="44" fill="black" fill-opacity="0.28"/>
<rect x="402" y="592" width="31" height="44" fill="black" fill-opacity="0.28"/>
<path d="M474 552H526V609H486L474 552Z" fill="black" fill-opacity="0.28"/>
<path d="M431 296H499V384H444L431 296Z" fill="black" fill-opacity="0.28"/>
<path d="M451 424H499V511H463.5L451 424Z" fill="black" fill-opacity="0.28"/>
<path d="M587 496H715L787 636C787 636 705.562 664 651 664C596.438 664 515 636 515 636L587 496Z" fill="black" fill-opacity="0.28"/>
<path d="M843 80V96H915" stroke="white" stroke-width="4"/>
<path d="M1027 330H925V408M925 576V440M917 254V296H965M965 296V254M965 296V304H1027M779 80V96M779 144V96M779 96H827V112H875V144M499 680V664L587 496V492.5M787 640L739.678 546M691 664L675 552M603 664L619 552M739.678 546L713.5 494H785V546H739.678Z" stroke="white" stroke-width="4"/>
<g clip-path="url(#clip0_8714_5880)">
<rect width="104" height="48" transform="translate(743)" fill="black"/>
<path d="M751.484 18.71H753.834C754.368 18.71 754.801 18.5467 755.134 18.22C755.468 17.8867 755.634 17.4533 755.634 16.92V7H758.084V17.09C758.084 17.8567 757.918 18.5367 757.584 19.13C757.251 19.7167 756.781 20.1767 756.174 20.51C755.574 20.8367 754.884 21 754.104 21H751.484V18.71ZM765.696 21.24C764.696 21.24 763.796 21.01 762.996 20.55C762.202 20.09 761.582 19.4533 761.136 18.64C760.689 17.82 760.466 16.8967 760.466 15.87C760.466 14.8567 760.692 13.9433 761.146 13.13C761.599 12.3167 762.222 11.68 763.016 11.22C763.816 10.7533 764.709 10.52 765.696 10.52C766.709 10.52 767.596 10.75 768.356 11.21C769.122 11.67 769.712 12.3067 770.126 13.12C770.539 13.9267 770.746 14.8433 770.746 15.87V16.52H762.936C763.002 17.0533 763.166 17.5233 763.426 17.93C763.686 18.3367 764.019 18.6533 764.426 18.88C764.832 19.1 765.286 19.21 765.786 19.21C766.372 19.21 766.869 19.1233 767.276 18.95C767.682 18.7767 767.996 18.5267 768.216 18.2H770.566C770.459 18.7 770.196 19.1833 769.776 19.65C769.356 20.1167 768.796 20.5 768.096 20.8C767.396 21.0933 766.596 21.24 765.696 21.24ZM768.306 14.87C768.186 14.1367 767.902 13.5567 767.456 13.13C767.016 12.7033 766.432 12.49 765.706 12.49C764.986 12.49 764.379 12.7033 763.886 13.13C763.399 13.5567 763.089 14.1367 762.956 14.87H768.306ZM776.505 21C775.959 21 775.465 20.8833 775.025 20.65C774.592 20.4167 774.252 20.0933 774.005 19.68C773.765 19.2667 773.645 18.7967 773.645 18.27L773.635 12.81H771.835L771.845 10.76H772.965C773.219 10.76 773.422 10.6833 773.575 10.53C773.729 10.37 773.805 10.1667 773.805 9.92V8.27H776.015V10.76H778.475L778.465 12.81H776.005L776.015 17.98C776.015 18.26 776.105 18.4933 776.285 18.68C776.472 18.86 776.705 18.95 776.985 18.95H778.465V21H776.505ZM787.076 7C787.936 7 788.703 7.15667 789.376 7.47C790.05 7.78333 790.573 8.22 790.946 8.78C791.32 9.33333 791.506 9.96333 791.506 10.67C791.506 11.41 791.306 12.0467 790.906 12.58C790.506 13.1133 789.963 13.4833 789.276 13.69C790.07 13.9033 790.7 14.32 791.166 14.94C791.633 15.5533 791.866 16.28 791.866 17.12C791.866 17.8667 791.67 18.5367 791.276 19.13C790.883 19.7167 790.33 20.1767 789.616 20.51C788.91 20.8367 788.103 21 787.196 21H781.096V7H787.076ZM786.936 19.02C787.41 19.02 787.826 18.9367 788.186 18.77C788.546 18.5967 788.826 18.3567 789.026 18.05C789.233 17.7367 789.336 17.3733 789.336 16.96C789.336 16.5467 789.233 16.18 789.026 15.86C788.826 15.54 788.543 15.29 788.176 15.11C787.816 14.93 787.403 14.84 786.936 14.84H783.506V19.02H786.936ZM786.816 12.92C787.25 12.92 787.63 12.84 787.956 12.68C788.29 12.5133 788.546 12.2833 788.726 11.99C788.913 11.69 789.006 11.34 789.006 10.94C789.006 10.5467 788.913 10.2033 788.726 9.91C788.546 9.61 788.29 9.38 787.956 9.22C787.63 9.06 787.25 8.98 786.816 8.98H783.506V12.92H786.816ZM794.341 10.76H796.701V12.3C797.027 11.78 797.434 11.3833 797.921 11.11C798.407 10.83 798.964 10.69 799.591 10.69H799.971V13.09H799.291C798.497 13.0833 797.871 13.2933 797.411 13.72C796.951 14.1467 796.721 14.73 796.721 15.47V21H794.341V10.76ZM805.599 10.52C806.432 10.52 807.169 10.67 807.809 10.97C808.449 11.2633 808.945 11.69 809.299 12.25C809.652 12.8033 809.829 13.46 809.829 14.22V21H807.529V19.51C807.209 20.07 806.772 20.5 806.219 20.8C805.672 21.0933 805.025 21.24 804.279 21.24C803.619 21.24 803.025 21.1167 802.499 20.87C801.979 20.6167 801.572 20.2667 801.279 19.82C800.985 19.3667 800.839 18.8533 800.839 18.28C800.839 17.7333 800.979 17.23 801.259 16.77C801.545 16.3033 801.942 15.9233 802.449 15.63C802.955 15.3367 803.525 15.1567 804.159 15.09L806.829 14.81C807.035 14.79 807.199 14.7167 807.319 14.59C807.439 14.4567 807.499 14.2633 807.499 14.01C807.492 13.5233 807.309 13.13 806.949 12.83C806.589 12.53 806.119 12.38 805.539 12.38C805.165 12.38 804.822 12.4467 804.509 12.58C804.202 12.7067 803.955 12.88 803.769 13.1C803.582 13.32 803.472 13.5633 803.439 13.83H801.089C801.155 13.19 801.392 12.62 801.799 12.12C802.205 11.62 802.739 11.23 803.399 10.95C804.059 10.6633 804.792 10.52 805.599 10.52ZM803.259 18.01C803.259 18.4367 803.425 18.7833 803.759 19.05C804.092 19.3167 804.522 19.45 805.049 19.45C805.529 19.45 805.952 19.3533 806.319 19.16C806.692 18.9667 806.982 18.7 807.189 18.36C807.395 18.0133 807.499 17.6167 807.499 17.17V16.26L804.729 16.58C804.289 16.6267 803.932 16.7767 803.659 17.03C803.392 17.2833 803.259 17.61 803.259 18.01ZM812.505 10.76H814.885V21H812.505V10.76ZM814.975 7V9.26H812.395V7H814.975ZM817.778 10.76H820.088V12.23C820.421 11.6767 820.858 11.2533 821.398 10.96C821.945 10.6667 822.571 10.52 823.278 10.52C824.011 10.52 824.658 10.68 825.218 11C825.785 11.32 826.225 11.7833 826.538 12.39C826.851 12.9967 827.008 13.72 827.008 14.56V21H824.628V14.92C824.628 14.1933 824.438 13.6267 824.058 13.22C823.685 12.8133 823.168 12.61 822.508 12.61C822.041 12.61 821.628 12.7133 821.268 12.92C820.915 13.1267 820.638 13.4167 820.438 13.79C820.245 14.1633 820.148 14.59 820.148 15.07V21H817.778V10.76ZM833.453 21.24C832.606 21.24 831.84 21.1133 831.153 20.86C830.466 20.6 829.923 20.24 829.523 19.78C829.13 19.3133 828.923 18.7833 828.903 18.19H831.293C831.313 18.4233 831.416 18.6333 831.603 18.82C831.796 19.0067 832.05 19.1533 832.363 19.26C832.683 19.3667 833.04 19.42 833.433 19.42C833.826 19.42 834.173 19.3633 834.473 19.25C834.773 19.1367 835.003 18.98 835.163 18.78C835.33 18.5733 835.413 18.34 835.413 18.08C835.413 17.7933 835.326 17.55 835.153 17.35C834.986 17.15 834.753 17.0267 834.453 16.98L831.833 16.58C831.026 16.4533 830.39 16.13 829.923 15.61C829.463 15.09 829.233 14.4433 829.233 13.67C829.233 13.0833 829.406 12.5533 829.753 12.08C830.1 11.6 830.583 11.2233 831.203 10.95C831.83 10.6767 832.543 10.54 833.343 10.54C834.136 10.54 834.85 10.6667 835.483 10.92C836.123 11.1667 836.626 11.51 836.993 11.95C837.366 12.3833 837.566 12.8767 837.593 13.43H835.183C835.156 13.1167 834.97 12.86 834.623 12.66C834.276 12.46 833.843 12.36 833.323 12.36C832.803 12.36 832.38 12.4733 832.053 12.7C831.726 12.9267 831.563 13.2133 831.563 13.56C831.563 13.8267 831.643 14.05 831.803 14.23C831.97 14.41 832.206 14.5233 832.513 14.57L835.083 14.95C835.63 15.0233 836.106 15.2033 836.513 15.49C836.92 15.77 837.23 16.1233 837.443 16.55C837.663 16.9767 837.773 17.4433 837.773 17.95C837.773 18.5833 837.586 19.15 837.213 19.65C836.846 20.15 836.333 20.54 835.673 20.82C835.02 21.1 834.28 21.24 833.453 21.24ZM771.538 30.76H773.898V32.3C774.225 31.78 774.631 31.3833 775.118 31.11C775.605 30.83 776.161 30.69 776.788 30.69H777.168V33.09H776.488C775.695 33.0833 775.068 33.2933 774.608 33.72C774.148 34.1467 773.918 34.73 773.918 35.47V41H771.538V30.76ZM783.522 41.24C782.502 41.24 781.582 41.01 780.762 40.55C779.942 40.09 779.295 39.4533 778.822 38.64C778.355 37.8267 778.122 36.9067 778.122 35.88C778.122 34.8533 778.355 33.9333 778.822 33.12C779.295 32.3067 779.942 31.67 780.762 31.21C781.589 30.75 782.512 30.52 783.532 30.52C784.552 30.52 785.472 30.75 786.292 31.21C787.112 31.67 787.755 32.3067 788.222 33.12C788.689 33.9333 788.922 34.8533 788.922 35.88C788.922 36.9067 788.689 37.8267 788.222 38.64C787.755 39.4533 787.112 40.09 786.292 40.55C785.472 41.01 784.549 41.24 783.522 41.24ZM780.592 35.88C780.592 36.5133 780.719 37.0733 780.972 37.56C781.232 38.0467 781.585 38.4267 782.032 38.7C782.479 38.9667 782.982 39.1 783.542 39.1C784.095 39.1 784.592 38.9667 785.032 38.7C785.479 38.4267 785.825 38.0467 786.072 37.56C786.325 37.0733 786.452 36.5133 786.452 35.88C786.452 35.2467 786.325 34.6867 786.072 34.2C785.819 33.7067 785.469 33.3267 785.022 33.06C784.582 32.7867 784.085 32.65 783.532 32.65C782.979 32.65 782.479 32.7867 782.032 33.06C781.585 33.3267 781.232 33.7067 780.972 34.2C780.719 34.6867 780.592 35.2467 780.592 35.88ZM795.749 41.24C794.729 41.24 793.809 41.01 792.989 40.55C792.169 40.09 791.522 39.4533 791.049 38.64C790.582 37.8267 790.349 36.9067 790.349 35.88C790.349 34.8533 790.582 33.9333 791.049 33.12C791.522 32.3067 792.169 31.67 792.989 31.21C793.815 30.75 794.739 30.52 795.759 30.52C796.779 30.52 797.699 30.75 798.519 31.21C799.339 31.67 799.982 32.3067 800.449 33.12C800.915 33.9333 801.149 34.8533 801.149 35.88C801.149 36.9067 800.915 37.8267 800.449 38.64C799.982 39.4533 799.339 40.09 798.519 40.55C797.699 41.01 796.775 41.24 795.749 41.24ZM792.819 35.88C792.819 36.5133 792.945 37.0733 793.199 37.56C793.459 38.0467 793.812 38.4267 794.259 38.7C794.705 38.9667 795.209 39.1 795.769 39.1C796.322 39.1 796.819 38.9667 797.259 38.7C797.705 38.4267 798.052 38.0467 798.299 37.56C798.552 37.0733 798.679 36.5133 798.679 35.88C798.679 35.2467 798.552 34.6867 798.299 34.2C798.045 33.7067 797.695 33.3267 797.249 33.06C796.809 32.7867 796.312 32.65 795.759 32.65C795.205 32.65 794.705 32.7867 794.259 33.06C793.812 33.3267 793.459 33.7067 793.199 34.2C792.945 34.6867 792.819 35.2467 792.819 35.88ZM803.315 30.76H805.625V32.3C805.932 31.7267 806.342 31.2867 806.855 30.98C807.369 30.6733 807.965 30.52 808.645 30.52C809.379 30.52 810.012 30.69 810.545 31.03C811.079 31.3633 811.485 31.84 811.765 32.46C812.099 31.8467 812.549 31.37 813.115 31.03C813.682 30.69 814.339 30.52 815.085 30.52C815.812 30.52 816.445 30.6867 816.985 31.02C817.532 31.3467 817.955 31.8133 818.255 32.42C818.555 33.0267 818.705 33.7333 818.705 34.54V41H816.325V34.82C816.325 34.1333 816.152 33.5933 815.805 33.2C815.465 32.8 814.985 32.6 814.365 32.6C813.925 32.6 813.539 32.7 813.205 32.9C812.879 33.1 812.625 33.3867 812.445 33.76C812.265 34.1267 812.175 34.56 812.175 35.06V41H809.845V34.82C809.845 34.1333 809.672 33.5933 809.325 33.2C808.979 32.8 808.499 32.6 807.885 32.6C807.212 32.6 806.679 32.8233 806.285 33.27C805.892 33.71 805.695 34.3067 805.695 35.06V41H803.315V30.76Z" fill="white"/>
<path d="M743 48H744.999L745 120H743V48Z" fill="black"/>
</g>
<g clip-path="url(#clip1_8714_5880)">
<rect width="104" height="48" transform="translate(851)" fill="black"/>
<path d="M865.397 21.24C864.397 21.24 863.511 21.06 862.737 20.7C861.964 20.3333 861.357 19.8233 860.917 19.17C860.484 18.51 860.264 17.7567 860.257 16.91H862.747C862.747 17.3433 862.861 17.7267 863.087 18.06C863.314 18.3933 863.627 18.6533 864.027 18.84C864.434 19.0267 864.901 19.12 865.427 19.12C865.941 19.12 866.391 19.0367 866.777 18.87C867.164 18.6967 867.461 18.46 867.667 18.16C867.881 17.8533 867.987 17.5 867.987 17.1C867.987 16.6 867.834 16.17 867.527 15.81C867.227 15.45 866.827 15.2267 866.327 15.14L863.927 14.74C863.254 14.6267 862.667 14.39 862.167 14.03C861.667 13.6633 861.281 13.2067 861.007 12.66C860.741 12.1133 860.607 11.5133 860.607 10.86C860.607 10.0733 860.811 9.37 861.217 8.75C861.624 8.12333 862.187 7.63667 862.907 7.29C863.634 6.93667 864.457 6.76 865.377 6.76C866.317 6.76 867.151 6.93 867.877 7.27C868.611 7.61 869.181 8.08667 869.587 8.7C869.994 9.31333 870.201 10.0133 870.207 10.8H867.727C867.727 10.4267 867.631 10.0967 867.437 9.81C867.244 9.51667 866.971 9.29 866.617 9.13C866.271 8.96333 865.867 8.88 865.407 8.88C864.954 8.88 864.551 8.96 864.197 9.12C863.851 9.27333 863.581 9.49333 863.387 9.78C863.194 10.06 863.097 10.3833 863.097 10.75C863.097 11.1833 863.237 11.56 863.517 11.88C863.797 12.1933 864.167 12.39 864.627 12.47L866.957 12.85C867.651 12.9633 868.264 13.22 868.797 13.62C869.337 14.02 869.754 14.5133 870.047 15.1C870.347 15.6867 870.497 16.3133 870.497 16.98C870.497 17.7867 870.281 18.5133 869.847 19.16C869.421 19.8067 868.821 20.3167 868.047 20.69C867.274 21.0567 866.391 21.24 865.397 21.24ZM875.247 10.76V12.36C875.613 11.7733 876.103 11.32 876.717 11C877.33 10.68 878.027 10.52 878.807 10.52C879.727 10.52 880.547 10.7467 881.267 11.2C881.993 11.6467 882.557 12.2767 882.957 13.09C883.363 13.9033 883.567 14.8333 883.567 15.88C883.567 16.9267 883.363 17.8567 882.957 18.67C882.557 19.4833 881.993 20.1167 881.267 20.57C880.547 21.0167 879.727 21.24 878.807 21.24C878.047 21.24 877.363 21.0867 876.757 20.78C876.157 20.4733 875.67 20.04 875.297 19.48V24.22H872.927V10.76H875.247ZM875.297 15.88C875.297 16.5133 875.42 17.0767 875.667 17.57C875.913 18.0567 876.257 18.4367 876.697 18.71C877.137 18.9767 877.64 19.11 878.207 19.11C878.773 19.11 879.273 18.9767 879.707 18.71C880.147 18.4367 880.487 18.0567 880.727 17.57C880.973 17.0767 881.097 16.5133 881.097 15.88C881.097 15.2467 880.973 14.6867 880.727 14.2C880.487 13.7067 880.147 13.3267 879.707 13.06C879.273 12.7867 878.773 12.65 878.207 12.65C877.64 12.65 877.137 12.7867 876.697 13.06C876.257 13.3267 875.913 13.7067 875.667 14.2C875.42 14.6867 875.297 15.2467 875.297 15.88ZM890.2 21.24C889.2 21.24 888.3 21.01 887.5 20.55C886.706 20.09 886.086 19.4533 885.64 18.64C885.193 17.82 884.97 16.8967 884.97 15.87C884.97 14.8567 885.196 13.9433 885.65 13.13C886.103 12.3167 886.726 11.68 887.52 11.22C888.32 10.7533 889.213 10.52 890.2 10.52C891.213 10.52 892.1 10.75 892.86 11.21C893.626 11.67 894.216 12.3067 894.63 13.12C895.043 13.9267 895.25 14.8433 895.25 15.87V16.52H887.44C887.506 17.0533 887.67 17.5233 887.93 17.93C888.19 18.3367 888.523 18.6533 888.93 18.88C889.336 19.1 889.79 19.21 890.29 19.21C890.876 19.21 891.373 19.1233 891.78 18.95C892.186 18.7767 892.5 18.5267 892.72 18.2H895.07C894.963 18.7 894.7 19.1833 894.28 19.65C893.86 20.1167 893.3 20.5 892.6 20.8C891.9 21.0933 891.1 21.24 890.2 21.24ZM892.81 14.87C892.69 14.1367 892.406 13.5567 891.96 13.13C891.52 12.7033 890.936 12.49 890.21 12.49C889.49 12.49 888.883 12.7033 888.39 13.13C887.903 13.5567 887.593 14.1367 887.46 14.87H892.81ZM901.489 10.52C902.323 10.52 903.059 10.67 903.699 10.97C904.339 11.2633 904.836 11.69 905.189 12.25C905.543 12.8033 905.719 13.46 905.719 14.22V21H903.419V19.51C903.099 20.07 902.663 20.5 902.109 20.8C901.563 21.0933 900.916 21.24 900.169 21.24C899.509 21.24 898.916 21.1167 898.389 20.87C897.869 20.6167 897.463 20.2667 897.169 19.82C896.876 19.3667 896.729 18.8533 896.729 18.28C896.729 17.7333 896.869 17.23 897.149 16.77C897.436 16.3033 897.833 15.9233 898.339 15.63C898.846 15.3367 899.416 15.1567 900.049 15.09L902.719 14.81C902.926 14.79 903.089 14.7167 903.209 14.59C903.329 14.4567 903.389 14.2633 903.389 14.01C903.383 13.5233 903.199 13.13 902.839 12.83C902.479 12.53 902.009 12.38 901.429 12.38C901.056 12.38 900.713 12.4467 900.399 12.58C900.093 12.7067 899.846 12.88 899.659 13.1C899.473 13.32 899.363 13.5633 899.329 13.83H896.979C897.046 13.19 897.283 12.62 897.689 12.12C898.096 11.62 898.629 11.23 899.289 10.95C899.949 10.6633 900.683 10.52 901.489 10.52ZM899.149 18.01C899.149 18.4367 899.316 18.7833 899.649 19.05C899.983 19.3167 900.413 19.45 900.939 19.45C901.419 19.45 901.843 19.3533 902.209 19.16C902.583 18.9667 902.873 18.7 903.079 18.36C903.286 18.0133 903.389 17.6167 903.389 17.17V16.26L900.619 16.58C900.179 16.6267 899.823 16.7767 899.549 17.03C899.283 17.2833 899.149 17.61 899.149 18.01ZM908.395 7H910.775V15.33L914.785 10.76H917.515L913.365 15.63L917.695 21H914.825L910.775 16.03V21H908.395V7ZM923.227 21.24C922.227 21.24 921.327 21.01 920.527 20.55C919.734 20.09 919.114 19.4533 918.667 18.64C918.22 17.82 917.997 16.8967 917.997 15.87C917.997 14.8567 918.224 13.9433 918.677 13.13C919.13 12.3167 919.754 11.68 920.547 11.22C921.347 10.7533 922.24 10.52 923.227 10.52C924.24 10.52 925.127 10.75 925.887 11.21C926.654 11.67 927.244 12.3067 927.657 13.12C928.07 13.9267 928.277 14.8433 928.277 15.87V16.52H920.467C920.534 17.0533 920.697 17.5233 920.957 17.93C921.217 18.3367 921.55 18.6533 921.957 18.88C922.364 19.1 922.817 19.21 923.317 19.21C923.904 19.21 924.4 19.1233 924.807 18.95C925.214 18.7767 925.527 18.5267 925.747 18.2H928.097C927.99 18.7 927.727 19.1833 927.307 19.65C926.887 20.1167 926.327 20.5 925.627 20.8C924.927 21.0933 924.127 21.24 923.227 21.24ZM925.837 14.87C925.717 14.1367 925.434 13.5567 924.987 13.13C924.547 12.7033 923.964 12.49 923.237 12.49C922.517 12.49 921.91 12.7033 921.417 13.13C920.93 13.5567 920.62 14.1367 920.487 14.87H925.837ZM930.427 10.76H932.787V12.3C933.113 11.78 933.52 11.3833 934.007 11.11C934.493 10.83 935.05 10.69 935.677 10.69H936.057V13.09H935.377C934.583 13.0833 933.957 13.2933 933.497 13.72C933.037 14.1467 932.807 14.73 932.807 15.47V21H930.427V10.76ZM941.57 21.24C940.724 21.24 939.957 21.1133 939.27 20.86C938.584 20.6 938.04 20.24 937.64 19.78C937.247 19.3133 937.04 18.7833 937.02 18.19H939.41C939.43 18.4233 939.534 18.6333 939.72 18.82C939.914 19.0067 940.167 19.1533 940.48 19.26C940.8 19.3667 941.157 19.42 941.55 19.42C941.944 19.42 942.29 19.3633 942.59 19.25C942.89 19.1367 943.12 18.98 943.28 18.78C943.447 18.5733 943.53 18.34 943.53 18.08C943.53 17.7933 943.444 17.55 943.27 17.35C943.104 17.15 942.87 17.0267 942.57 16.98L939.95 16.58C939.144 16.4533 938.507 16.13 938.04 15.61C937.58 15.09 937.35 14.4433 937.35 13.67C937.35 13.0833 937.524 12.5533 937.87 12.08C938.217 11.6 938.7 11.2233 939.32 10.95C939.947 10.6767 940.66 10.54 941.46 10.54C942.254 10.54 942.967 10.6667 943.6 10.92C944.24 11.1667 944.744 11.51 945.11 11.95C945.484 12.3833 945.684 12.8767 945.71 13.43H943.3C943.274 13.1167 943.087 12.86 942.74 12.66C942.394 12.46 941.96 12.36 941.44 12.36C940.92 12.36 940.497 12.4733 940.17 12.7C939.844 12.9267 939.68 13.2133 939.68 13.56C939.68 13.8267 939.76 14.05 939.92 14.23C940.087 14.41 940.324 14.5233 940.63 14.57L943.2 14.95C943.747 15.0233 944.224 15.2033 944.63 15.49C945.037 15.77 945.347 16.1233 945.56 16.55C945.78 16.9767 945.89 17.4433 945.89 17.95C945.89 18.5833 945.704 19.15 945.33 19.65C944.964 20.15 944.45 20.54 943.79 20.82C943.137 21.1 942.397 21.24 941.57 21.24ZM879.538 30.76H881.898V32.3C882.225 31.78 882.631 31.3833 883.118 31.11C883.605 30.83 884.161 30.69 884.788 30.69H885.168V33.09H884.488C883.695 33.0833 883.068 33.2933 882.608 33.72C882.148 34.1467 881.918 34.73 881.918 35.47V41H879.538V30.76ZM891.522 41.24C890.502 41.24 889.582 41.01 888.762 40.55C887.942 40.09 887.295 39.4533 886.822 38.64C886.355 37.8267 886.122 36.9067 886.122 35.88C886.122 34.8533 886.355 33.9333 886.822 33.12C887.295 32.3067 887.942 31.67 888.762 31.21C889.589 30.75 890.512 30.52 891.532 30.52C892.552 30.52 893.472 30.75 894.292 31.21C895.112 31.67 895.755 32.3067 896.222 33.12C896.689 33.9333 896.922 34.8533 896.922 35.88C896.922 36.9067 896.689 37.8267 896.222 38.64C895.755 39.4533 895.112 40.09 894.292 40.55C893.472 41.01 892.549 41.24 891.522 41.24ZM888.592 35.88C888.592 36.5133 888.719 37.0733 888.972 37.56C889.232 38.0467 889.585 38.4267 890.032 38.7C890.479 38.9667 890.982 39.1 891.542 39.1C892.095 39.1 892.592 38.9667 893.032 38.7C893.479 38.4267 893.825 38.0467 894.072 37.56C894.325 37.0733 894.452 36.5133 894.452 35.88C894.452 35.2467 894.325 34.6867 894.072 34.2C893.819 33.7067 893.469 33.3267 893.022 33.06C892.582 32.7867 892.085 32.65 891.532 32.65C890.979 32.65 890.479 32.7867 890.032 33.06C889.585 33.3267 889.232 33.7067 888.972 34.2C888.719 34.6867 888.592 35.2467 888.592 35.88ZM903.749 41.24C902.729 41.24 901.809 41.01 900.989 40.55C900.169 40.09 899.522 39.4533 899.049 38.64C898.582 37.8267 898.349 36.9067 898.349 35.88C898.349 34.8533 898.582 33.9333 899.049 33.12C899.522 32.3067 900.169 31.67 900.989 31.21C901.815 30.75 902.739 30.52 903.759 30.52C904.779 30.52 905.699 30.75 906.519 31.21C907.339 31.67 907.982 32.3067 908.449 33.12C908.915 33.9333 909.149 34.8533 909.149 35.88C909.149 36.9067 908.915 37.8267 908.449 38.64C907.982 39.4533 907.339 40.09 906.519 40.55C905.699 41.01 904.775 41.24 903.749 41.24ZM900.819 35.88C900.819 36.5133 900.945 37.0733 901.199 37.56C901.459 38.0467 901.812 38.4267 902.259 38.7C902.705 38.9667 903.209 39.1 903.769 39.1C904.322 39.1 904.819 38.9667 905.259 38.7C905.705 38.4267 906.052 38.0467 906.299 37.56C906.552 37.0733 906.679 36.5133 906.679 35.88C906.679 35.2467 906.552 34.6867 906.299 34.2C906.045 33.7067 905.695 33.3267 905.249 33.06C904.809 32.7867 904.312 32.65 903.759 32.65C903.205 32.65 902.705 32.7867 902.259 33.06C901.812 33.3267 901.459 33.7067 901.199 34.2C900.945 34.6867 900.819 35.2467 900.819 35.88ZM911.315 30.76H913.625V32.3C913.932 31.7267 914.342 31.2867 914.855 30.98C915.369 30.6733 915.965 30.52 916.645 30.52C917.379 30.52 918.012 30.69 918.545 31.03C919.079 31.3633 919.485 31.84 919.765 32.46C920.099 31.8467 920.549 31.37 921.115 31.03C921.682 30.69 922.339 30.52 923.085 30.52C923.812 30.52 924.445 30.6867 924.985 31.02C925.532 31.3467 925.955 31.8133 926.255 32.42C926.555 33.0267 926.705 33.7333 926.705 34.54V41H924.325V34.82C924.325 34.1333 924.152 33.5933 923.805 33.2C923.465 32.8 922.985 32.6 922.365 32.6C921.925 32.6 921.539 32.7 921.205 32.9C920.879 33.1 920.625 33.3867 920.445 33.76C920.265 34.1267 920.175 34.56 920.175 35.06V41H917.845V34.82C917.845 34.1333 917.672 33.5933 917.325 33.2C916.979 32.8 916.499 32.6 915.885 32.6C915.212 32.6 914.679 32.8233 914.285 33.27C913.892 33.71 913.695 34.3067 913.695 35.06V41H911.315V30.76Z" fill="white"/>
<path d="M851 48H852.999L853 120H851V48Z" fill="black"/>
</g>
<g clip-path="url(#clip2_8714_5880)">
<rect width="147" height="40" transform="translate(973 369)" fill="black"/>
<path d="M986.39 382H989.06L994.29 396H991.79L990.6 392.63H984.97L983.87 396H981.3L986.39 382ZM989.93 390.68L987.91 385.06L987.7 384.19L987.48 385.06L985.59 390.68H989.93ZM1004.9 396H1002.59V394.53C1002.26 395.083 1001.82 395.507 1001.27 395.8C1000.73 396.093 1000.11 396.24 999.399 396.24C998.665 396.24 998.015 396.08 997.449 395.76C996.889 395.44 996.452 394.977 996.139 394.37C995.825 393.763 995.669 393.04 995.669 392.2V385.76H998.049V391.84C998.049 392.567 998.235 393.133 998.609 393.54C998.989 393.947 999.509 394.15 1000.17 394.15C1000.64 394.15 1001.05 394.047 1001.4 393.84C1001.76 393.633 1002.04 393.343 1002.23 392.97C1002.43 392.597 1002.53 392.17 1002.53 391.69V385.76H1004.9V396ZM1015.3 394.51C1014.93 395.063 1014.44 395.49 1013.84 395.79C1013.24 396.09 1012.57 396.24 1011.81 396.24C1010.89 396.24 1010.07 396.017 1009.34 395.57C1008.62 395.117 1008.06 394.483 1007.65 393.67C1007.25 392.857 1007.05 391.927 1007.05 390.88C1007.05 389.833 1007.25 388.903 1007.65 388.09C1008.06 387.277 1008.62 386.647 1009.34 386.2C1010.07 385.747 1010.89 385.52 1011.81 385.52C1012.57 385.52 1013.24 385.67 1013.84 385.97C1014.44 386.27 1014.93 386.697 1015.3 387.25V382H1017.67V396H1015.3V394.51ZM1009.52 390.88C1009.52 391.513 1009.64 392.077 1009.88 392.57C1010.13 393.057 1010.47 393.437 1010.9 393.71C1011.34 393.977 1011.85 394.11 1012.41 394.11C1012.94 394.11 1013.41 393.993 1013.82 393.76C1014.24 393.527 1014.58 393.2 1014.83 392.78C1015.09 392.353 1015.25 391.86 1015.3 391.3V390.46C1015.25 389.9 1015.09 389.41 1014.83 388.99C1014.58 388.563 1014.24 388.233 1013.82 388C1013.41 387.767 1012.94 387.65 1012.41 387.65C1011.85 387.65 1011.34 387.787 1010.9 388.06C1010.47 388.327 1010.13 388.707 1009.88 389.2C1009.64 389.687 1009.52 390.247 1009.52 390.88ZM1020.45 385.76H1022.83V396H1020.45V385.76ZM1022.92 382V384.26H1020.34V382H1022.92ZM1029.33 396C1028.79 396 1028.29 395.883 1027.85 395.65C1027.42 395.417 1027.08 395.093 1026.83 394.68C1026.59 394.267 1026.47 393.797 1026.47 393.27L1026.46 387.81H1024.66L1024.67 385.76H1025.79C1026.05 385.76 1026.25 385.683 1026.4 385.53C1026.56 385.37 1026.63 385.167 1026.63 384.92V383.27H1028.84V385.76H1031.3L1031.29 387.81H1028.83L1028.84 392.98C1028.84 393.26 1028.93 393.493 1029.11 393.68C1029.3 393.86 1029.53 393.95 1029.81 393.95H1031.29V396H1029.33ZM1038.25 396.24C1037.23 396.24 1036.31 396.01 1035.49 395.55C1034.67 395.09 1034.03 394.453 1033.55 393.64C1033.09 392.827 1032.85 391.907 1032.85 390.88C1032.85 389.853 1033.09 388.933 1033.55 388.12C1034.03 387.307 1034.67 386.67 1035.49 386.21C1036.32 385.75 1037.24 385.52 1038.26 385.52C1039.28 385.52 1040.2 385.75 1041.02 386.21C1041.84 386.67 1042.49 387.307 1042.95 388.12C1043.42 388.933 1043.65 389.853 1043.65 390.88C1043.65 391.907 1043.42 392.827 1042.95 393.64C1042.49 394.453 1041.84 395.09 1041.02 395.55C1040.2 396.01 1039.28 396.24 1038.25 396.24ZM1035.32 390.88C1035.32 391.513 1035.45 392.073 1035.7 392.56C1035.96 393.047 1036.32 393.427 1036.76 393.7C1037.21 393.967 1037.71 394.1 1038.27 394.1C1038.83 394.1 1039.32 393.967 1039.76 393.7C1040.21 393.427 1040.56 393.047 1040.8 392.56C1041.06 392.073 1041.18 391.513 1041.18 390.88C1041.18 390.247 1041.06 389.687 1040.8 389.2C1040.55 388.707 1040.2 388.327 1039.75 388.06C1039.31 387.787 1038.82 387.65 1038.26 387.65C1037.71 387.65 1037.21 387.787 1036.76 388.06C1036.32 388.327 1035.96 388.707 1035.7 389.2C1035.45 389.687 1035.32 390.247 1035.32 390.88ZM1045.82 385.76H1048.18V387.3C1048.51 386.78 1048.91 386.383 1049.4 386.11C1049.89 385.83 1050.44 385.69 1051.07 385.69H1051.45V388.09H1050.77C1049.98 388.083 1049.35 388.293 1048.89 388.72C1048.43 389.147 1048.2 389.73 1048.2 390.47V396H1045.82V385.76ZM1053.2 385.76H1055.58V396H1053.2V385.76ZM1055.67 382V384.26H1053.09V382H1055.67ZM1067.46 396H1065.15V394.53C1064.81 395.083 1064.37 395.507 1063.83 395.8C1063.29 396.093 1062.66 396.24 1061.96 396.24C1061.22 396.24 1060.57 396.08 1060.01 395.76C1059.45 395.44 1059.01 394.977 1058.7 394.37C1058.38 393.763 1058.23 393.04 1058.23 392.2V385.76H1060.61V391.84C1060.61 392.567 1060.79 393.133 1061.17 393.54C1061.55 393.947 1062.07 394.15 1062.73 394.15C1063.19 394.15 1063.6 394.047 1063.96 393.84C1064.32 393.633 1064.59 393.343 1064.79 392.97C1064.99 392.597 1065.09 392.17 1065.09 391.69V385.76H1067.46V396ZM1070.35 385.76H1072.66V387.3C1072.97 386.727 1073.38 386.287 1073.89 385.98C1074.41 385.673 1075 385.52 1075.68 385.52C1076.42 385.52 1077.05 385.69 1077.58 386.03C1078.12 386.363 1078.52 386.84 1078.8 387.46C1079.14 386.847 1079.59 386.37 1080.15 386.03C1080.72 385.69 1081.38 385.52 1082.12 385.52C1082.85 385.52 1083.48 385.687 1084.02 386.02C1084.57 386.347 1084.99 386.813 1085.29 387.42C1085.59 388.027 1085.74 388.733 1085.74 389.54V396H1083.36V389.82C1083.36 389.133 1083.19 388.593 1082.84 388.2C1082.5 387.8 1082.02 387.6 1081.4 387.6C1080.96 387.6 1080.58 387.7 1080.24 387.9C1079.92 388.1 1079.66 388.387 1079.48 388.76C1079.3 389.127 1079.21 389.56 1079.21 390.06V396H1076.88V389.82C1076.88 389.133 1076.71 388.593 1076.36 388.2C1076.02 387.8 1075.54 387.6 1074.92 387.6C1074.25 387.6 1073.72 387.823 1073.32 388.27C1072.93 388.71 1072.73 389.307 1072.73 390.06V396H1070.35V385.76ZM1094.87 386.16H1091.58V384.12H1093.43C1094.06 384.12 1094.56 383.93 1094.92 383.55C1095.3 383.163 1095.48 382.647 1095.47 382H1097.32V396H1094.87V386.16ZM1105.75 396.24C1104.84 396.24 1104 396.073 1103.25 395.74C1102.5 395.4 1101.9 394.937 1101.43 394.35C1100.97 393.757 1100.7 393.087 1100.61 392.34H1103.09C1103.16 392.673 1103.33 392.977 1103.58 393.25C1103.83 393.523 1104.15 393.74 1104.52 393.9C1104.89 394.053 1105.3 394.13 1105.74 394.13C1106.28 394.13 1106.75 394.013 1107.16 393.78C1107.57 393.54 1107.89 393.21 1108.12 392.79C1108.35 392.363 1108.46 391.873 1108.46 391.32C1108.46 390.76 1108.35 390.267 1108.12 389.84C1107.89 389.413 1107.57 389.083 1107.16 388.85C1106.75 388.617 1106.27 388.5 1105.74 388.5C1105.38 388.5 1105.04 388.567 1104.71 388.7C1104.39 388.827 1104.11 388.99 1103.87 389.19C1103.64 389.39 1103.46 389.597 1103.35 389.81H1101.02L1101.65 382H1110.13V384.11H1103.58L1103.25 387.94C1103.52 387.527 1103.94 387.197 1104.51 386.95C1105.09 386.703 1105.68 386.58 1106.28 386.58C1107.18 386.58 1107.98 386.783 1108.69 387.19C1109.4 387.59 1109.96 388.153 1110.35 388.88C1110.75 389.6 1110.95 390.42 1110.95 391.34C1110.95 392.293 1110.73 393.143 1110.29 393.89C1109.86 394.63 1109.25 395.207 1108.46 395.62C1107.67 396.033 1106.77 396.24 1105.75 396.24Z" fill="white"/>
<path d="M973 409H974.999L975 449H973V409Z" fill="black"/>
</g>
<path d="M582 716H587C588.657 716 590 714.657 590 713V707C590 705.343 588.657 704 587 704H561L562.64 720.398C562.844 722.443 564.565 724 566.62 724H576.399C578.446 724 580.163 722.455 580.377 720.419L582 705" stroke="black" stroke-width="4"/>
<rect x="561" y="690" width="4" height="8" fill="black"/>
<rect x="569" y="690" width="4" height="8" fill="black"/>
<rect x="577" y="690" width="4" height="8" fill="black"/>
<path d="M774 716H779C780.657 716 782 714.657 782 713V707C782 705.343 780.657 704 779 704H753L754.64 720.398C754.844 722.443 756.565 724 758.62 724H768.399C770.446 724 772.163 722.455 772.377 720.419L774 705" stroke="black" stroke-width="4"/>
<rect x="753" y="690" width="4" height="8" fill="black"/>
<rect x="761" y="690" width="4" height="8" fill="black"/>
<rect x="769" y="690" width="4" height="8" fill="black"/>
<path d="M915 172H923V166H931V160H939V154H947" stroke="black" stroke-width="4"/>
<path d="M859 460H867V454H875V448H883V442H891" stroke="black" stroke-width="4"/>
<path d="M419 564H427V558H435V552H443V546H451" stroke="black" stroke-width="4"/>
<path d="M851 726H859V720H867V714H875V708H883" stroke="black" stroke-width="4"/>
<g clip-path="url(#clip3_8714_5880)">
<rect width="194" height="40" transform="translate(553 369)" fill="black"/>
<path d="M566.54 382H569.21L574.44 396H571.94L570.75 392.63H565.12L564.02 396H561.45L566.54 382ZM570.08 390.68L568.06 385.06L567.85 384.19L567.63 385.06L565.74 390.68H570.08ZM585.049 396H582.739V394.53C582.406 395.083 581.966 395.507 581.419 395.8C580.879 396.093 580.256 396.24 579.549 396.24C578.816 396.24 578.166 396.08 577.599 395.76C577.039 395.44 576.602 394.977 576.289 394.37C575.976 393.763 575.819 393.04 575.819 392.2V385.76H578.199V391.84C578.199 392.567 578.386 393.133 578.759 393.54C579.139 393.947 579.659 394.15 580.319 394.15C580.786 394.15 581.196 394.047 581.549 393.84C581.909 393.633 582.186 393.343 582.379 392.97C582.579 392.597 582.679 392.17 582.679 391.69V385.76H585.049V396ZM595.454 394.51C595.081 395.063 594.594 395.49 593.994 395.79C593.394 396.09 592.717 396.24 591.964 396.24C591.044 396.24 590.221 396.017 589.494 395.57C588.774 395.117 588.211 394.483 587.804 393.67C587.404 392.857 587.204 391.927 587.204 390.88C587.204 389.833 587.404 388.903 587.804 388.09C588.211 387.277 588.774 386.647 589.494 386.2C590.221 385.747 591.044 385.52 591.964 385.52C592.717 385.52 593.394 385.67 593.994 385.97C594.594 386.27 595.081 386.697 595.454 387.25V382H597.824V396H595.454V394.51ZM589.674 390.88C589.674 391.513 589.794 392.077 590.034 392.57C590.281 393.057 590.621 393.437 591.054 393.71C591.494 393.977 591.997 394.11 592.564 394.11C593.091 394.11 593.561 393.993 593.974 393.76C594.394 393.527 594.731 393.2 594.984 392.78C595.244 392.353 595.401 391.86 595.454 391.3V390.46C595.401 389.9 595.244 389.41 594.984 388.99C594.731 388.563 594.394 388.233 593.974 388C593.561 387.767 593.091 387.65 592.564 387.65C591.997 387.65 591.494 387.787 591.054 388.06C590.621 388.327 590.281 388.707 590.034 389.2C589.794 389.687 589.674 390.247 589.674 390.88ZM600.6 385.76H602.98V396H600.6V385.76ZM603.07 382V384.26H600.49V382H603.07ZM609.484 396C608.937 396 608.444 395.883 608.004 395.65C607.57 395.417 607.23 395.093 606.984 394.68C606.744 394.267 606.624 393.797 606.624 393.27L606.614 387.81H604.814L604.824 385.76H605.944C606.197 385.76 606.4 385.683 606.554 385.53C606.707 385.37 606.784 385.167 606.784 384.92V383.27H608.994V385.76H611.454L611.444 387.81H608.984L608.994 392.98C608.994 393.26 609.084 393.493 609.264 393.68C609.45 393.86 609.684 393.95 609.964 393.95H611.444V396H609.484ZM618.405 396.24C617.385 396.24 616.465 396.01 615.645 395.55C614.825 395.09 614.178 394.453 613.705 393.64C613.238 392.827 613.005 391.907 613.005 390.88C613.005 389.853 613.238 388.933 613.705 388.12C614.178 387.307 614.825 386.67 615.645 386.21C616.472 385.75 617.395 385.52 618.415 385.52C619.435 385.52 620.355 385.75 621.175 386.21C621.995 386.67 622.638 387.307 623.105 388.12C623.572 388.933 623.805 389.853 623.805 390.88C623.805 391.907 623.572 392.827 623.105 393.64C622.638 394.453 621.995 395.09 621.175 395.55C620.355 396.01 619.432 396.24 618.405 396.24ZM615.475 390.88C615.475 391.513 615.602 392.073 615.855 392.56C616.115 393.047 616.468 393.427 616.915 393.7C617.362 393.967 617.865 394.1 618.425 394.1C618.978 394.1 619.475 393.967 619.915 393.7C620.362 393.427 620.708 393.047 620.955 392.56C621.208 392.073 621.335 391.513 621.335 390.88C621.335 390.247 621.208 389.687 620.955 389.2C620.702 388.707 620.352 388.327 619.905 388.06C619.465 387.787 618.968 387.65 618.415 387.65C617.862 387.65 617.362 387.787 616.915 388.06C616.468 388.327 616.115 388.707 615.855 389.2C615.602 389.687 615.475 390.247 615.475 390.88ZM625.971 385.76H628.331V387.3C628.658 386.78 629.065 386.383 629.551 386.11C630.038 385.83 630.595 385.69 631.221 385.69H631.601V388.09H630.921C630.128 388.083 629.501 388.293 629.041 388.72C628.581 389.147 628.351 389.73 628.351 390.47V396H625.971V385.76ZM633.354 385.76H635.734V396H633.354V385.76ZM635.824 382V384.26H633.244V382H635.824ZM647.608 396H645.298V394.53C644.964 395.083 644.524 395.507 643.978 395.8C643.438 396.093 642.814 396.24 642.108 396.24C641.374 396.24 640.724 396.08 640.158 395.76C639.598 395.44 639.161 394.977 638.848 394.37C638.534 393.763 638.378 393.04 638.378 392.2V385.76H640.758V391.84C640.758 392.567 640.944 393.133 641.318 393.54C641.698 393.947 642.218 394.15 642.878 394.15C643.344 394.15 643.754 394.047 644.108 393.84C644.468 393.633 644.744 393.343 644.938 392.97C645.138 392.597 645.238 392.17 645.238 391.69V385.76H647.608V396ZM650.503 385.76H652.813V387.3C653.119 386.727 653.529 386.287 654.043 385.98C654.556 385.673 655.153 385.52 655.833 385.52C656.566 385.52 657.199 385.69 657.733 386.03C658.266 386.363 658.673 386.84 658.953 387.46C659.286 386.847 659.736 386.37 660.303 386.03C660.869 385.69 661.526 385.52 662.273 385.52C662.999 385.52 663.633 385.687 664.173 386.02C664.719 386.347 665.143 386.813 665.443 387.42C665.743 388.027 665.893 388.733 665.893 389.54V396H663.513V389.82C663.513 389.133 663.339 388.593 662.993 388.2C662.653 387.8 662.173 387.6 661.553 387.6C661.113 387.6 660.726 387.7 660.393 387.9C660.066 388.1 659.813 388.387 659.633 388.76C659.453 389.127 659.363 389.56 659.363 390.06V396H657.033V389.82C657.033 389.133 656.859 388.593 656.513 388.2C656.166 387.8 655.686 387.6 655.073 387.6C654.399 387.6 653.866 387.823 653.473 388.27C653.079 388.71 652.883 389.307 652.883 390.06V396H650.503V385.76ZM675.023 386.16H671.733V384.12H673.583C674.21 384.12 674.706 383.93 675.073 383.55C675.446 383.163 675.63 382.647 675.623 382H677.473V396H675.023V386.16ZM686.33 394.05C686.983 394.05 687.546 393.85 688.02 393.45C688.493 393.05 688.856 392.473 689.11 391.72C689.37 390.96 689.5 390.06 689.5 389.02C689.5 387.973 689.37 387.07 689.11 386.31C688.856 385.543 688.49 384.96 688.01 384.56C687.536 384.153 686.976 383.95 686.33 383.95C685.683 383.95 685.12 384.153 684.64 384.56C684.166 384.96 683.8 385.54 683.54 386.3C683.286 387.053 683.16 387.953 683.16 389C683.16 390.047 683.286 390.95 683.54 391.71C683.8 392.463 684.166 393.043 684.64 393.45C685.12 393.85 685.683 394.05 686.33 394.05ZM680.67 389.02C680.67 387.56 680.9 386.283 681.36 385.19C681.826 384.09 682.483 383.243 683.33 382.65C684.183 382.057 685.18 381.76 686.32 381.76C687.46 381.76 688.456 382.057 689.31 382.65C690.17 383.243 690.83 384.087 691.29 385.18C691.756 386.273 691.99 387.553 691.99 389.02C691.99 390.48 691.756 391.753 691.29 392.84C690.83 393.927 690.173 394.767 689.32 395.36C688.466 395.947 687.466 396.24 686.32 396.24C685.18 396.24 684.183 395.947 683.33 395.36C682.483 394.767 681.826 393.927 681.36 392.84C680.9 391.747 680.67 390.473 680.67 389.02ZM692.729 397.65H693.169C693.642 397.65 694.019 397.5 694.299 397.2C694.579 396.907 694.719 396.507 694.719 396H693.369V393.34H696.129V395.79C696.129 396.423 696.009 396.973 695.769 397.44C695.529 397.913 695.185 398.273 694.739 398.52C694.292 398.773 693.769 398.9 693.169 398.9H692.729V397.65ZM700.648 386.16H697.358V384.12H699.208C699.835 384.12 700.331 383.93 700.698 383.55C701.071 383.163 701.255 382.647 701.248 382H703.098V396H700.648V386.16ZM709.125 386.16H705.835V384.12H707.685C708.311 384.12 708.808 383.93 709.175 383.55C709.548 383.163 709.731 382.647 709.725 382H711.575V396H709.125V386.16ZM714.291 397.65H714.731C715.205 397.65 715.581 397.5 715.861 397.2C716.141 396.907 716.281 396.507 716.281 396H714.931V393.34H717.691V395.79C717.691 396.423 717.571 396.973 717.331 397.44C717.091 397.913 716.748 398.273 716.301 398.52C715.855 398.773 715.331 398.9 714.731 398.9H714.291V397.65ZM722.211 386.16H718.921V384.12H720.771C721.397 384.12 721.894 383.93 722.261 383.55C722.634 383.163 722.817 382.647 722.811 382H724.661V396H722.211V386.16ZM727.887 394.07L733.567 388.97C734.06 388.517 734.424 388.073 734.657 387.64C734.89 387.207 735.007 386.75 735.007 386.27C735.007 385.81 734.904 385.407 734.697 385.06C734.497 384.707 734.214 384.433 733.847 384.24C733.48 384.047 733.057 383.95 732.577 383.95C732.064 383.95 731.607 384.06 731.207 384.28C730.807 384.5 730.497 384.807 730.277 385.2C730.057 385.593 729.947 386.043 729.947 386.55H727.477C727.477 385.637 727.697 384.817 728.137 384.09C728.577 383.357 729.187 382.787 729.967 382.38C730.747 381.967 731.627 381.76 732.607 381.76C733.54 381.76 734.377 381.947 735.117 382.32C735.864 382.687 736.447 383.197 736.867 383.85C737.287 384.503 737.497 385.24 737.497 386.06C737.497 386.847 737.294 387.597 736.887 388.31C736.48 389.023 735.85 389.753 734.997 390.5L731.347 393.81H737.877V396H727.897L727.887 394.07Z" fill="white"/>
<path d="M649 409H650.999L651 528H649V409Z" fill="black"/>
</g>
<g opacity="0.5" clip-path="url(#clip4_8714_5880)">
<path d="M742.296 513L745.626 523.84L748.816 513H751.436L754.706 523.84L757.926 513H760.446L756.056 527H753.316L750.096 516.21L746.836 527H744.106L739.716 513H742.296ZM768.321 527.24C766.994 527.24 765.797 526.927 764.731 526.3C763.671 525.673 762.837 524.81 762.231 523.71C761.624 522.603 761.321 521.367 761.321 520C761.321 518.633 761.624 517.4 762.231 516.3C762.837 515.193 763.671 514.327 764.731 513.7C765.797 513.073 766.994 512.76 768.321 512.76C769.441 512.76 770.477 512.997 771.431 513.47C772.391 513.937 773.167 514.567 773.761 515.36C774.361 516.147 774.707 516.997 774.801 517.91H772.381C772.261 517.403 772.004 516.927 771.611 516.48C771.224 516.033 770.741 515.677 770.161 515.41C769.581 515.137 768.964 515 768.311 515C767.457 515 766.691 515.213 766.011 515.64C765.331 516.067 764.797 516.66 764.411 517.42C764.031 518.18 763.841 519.04 763.841 520C763.841 520.96 764.031 521.82 764.411 522.58C764.797 523.34 765.331 523.933 766.011 524.36C766.691 524.787 767.457 525 768.311 525C768.964 525 769.581 524.867 770.161 524.6C770.741 524.333 771.224 523.98 771.611 523.54C772.004 523.093 772.261 522.62 772.381 522.12H774.801C774.707 523.027 774.361 523.873 773.761 524.66C773.167 525.44 772.391 526.067 771.431 526.54C770.477 527.007 769.441 527.24 768.321 527.24Z" fill="black"/>
</g>
<defs>
<clipPath id="clip0_8714_5880">
<rect width="104" height="120" fill="white" transform="translate(743)"/>
</clipPath>
<clipPath id="clip1_8714_5880">
<rect width="104" height="120" fill="white" transform="translate(851)"/>
</clipPath>
<clipPath id="clip2_8714_5880">
<rect width="147" height="80" fill="white" transform="translate(973 369)"/>
</clipPath>
<clipPath id="clip3_8714_5880">
<rect width="194" height="159" fill="white" transform="translate(553 369)"/>
</clipPath>
<clipPath id="clip4_8714_5880">
<rect width="53" height="40" fill="white" transform="translate(731 500)"/>
</clipPath>
</defs>
</svg>
