<svg width="1617" height="840" viewBox="0 0 1617 840" fill="none" xmlns="http://www.w3.org/2000/svg">
<rect width="1617" height="840" fill="white"/>
<path opacity="0.8" d="M110.26 395.223L110.26 96H154.353L197.408 101.695L454.233 138.968V180.901H498.821H543.408M110.26 395.223L543.408 395.223M110.26 395.223V405.06V433.015L110.26 570.72V613.17L588.539 613.17V696H648.713M543.408 291.168H652.344H674.65M543.408 291.168V180.901M543.408 291.168V335.172M781.51 243.023V186.078H758.167M758.167 186.078H753.498L701.105 186.078V176.759L543.408 151.91V180.901M758.167 186.078V266.837H781.51M796.554 186.078L802.26 191.772V266.837M802.26 266.837H1321V323.265M802.26 266.837V323.265M714.593 459.934H758.167V440.262H802.26V459.934V545.353M802.26 545.353H758.167H652.344M802.26 545.353L802.26 570.72V613.17M635.225 545.353H652.344M652.344 545.353V459.934H635.225H674.65M592.539 459.934H543.408V440.262V570.72H592.539V545.353H582.083M802.26 613.17H764.5V696M802.26 613.17V638.537M543.408 353.291V335.172M543.408 335.172H588.539M629 335.172H674.65M732.749 291.168H758.167V284.956V308.252M714.593 335.172H758.167V323.265V338.278V353.291H781.51H802.26V338.278V323.265M760.242 397.294H796.554M701.105 559.33L701.105 575.379H644.563L644.563 559.33M802.26 638.537V696H732.5M802.26 638.537H1321V524.645V437.674V353.291V323.265M1321 323.265H802.26M648.713 696V672.704H658.05V696H648.713ZM732.5 696H724.423V672.704H732.5V696ZM687.618 696V672.704H696.955V696H687.618Z" stroke="black" stroke-opacity="0.5" stroke-width="4"/>
<text fill="black" xml:space="preserve" style="white-space: pre" font-family="JetBrains Sans" font-size="16" letter-spacing="0.0015em"><tspan x="299.128" y="514.6">Area 1</tspan></text>
<text fill="black" xml:space="preserve" style="white-space: pre" font-family="JetBrains Sans" font-size="16" letter-spacing="0.0015em"><tspan x="299.424" y="271.6">Area 2</tspan></text>
<path d="M623.25 539L611.703 559H634.797L623.25 539ZM673.5 717V641H669.5V717H673.5ZM655.5 623H639.25V627H655.5V623ZM625.25 609V557H621.25V609H625.25ZM639.25 623C631.518 623 625.25 616.732 625.25 609H621.25C621.25 618.941 629.309 627 639.25 627V623ZM673.5 641C673.5 631.059 665.441 623 655.5 623V627C663.232 627 669.5 633.268 669.5 641H673.5Z" fill="#08CA6D"/>
<rect x="629" y="717" width="85" height="40" rx="8" fill="#08CA6D"/>
<text fill="black" xml:space="preserve" style="white-space: pre" font-family="JetBrains Sans" font-size="16" letter-spacing="0.0015em"><tspan x="637" y="742.6">Entrance</tspan></text>
<rect x="624" y="192" width="120" height="64" rx="8" fill="#08CA6D"/>
<text fill="black" xml:space="preserve" style="white-space: pre" font-family="JetBrains Sans" font-size="16" letter-spacing="0.0015em"><tspan x="632" y="217.6">Workshop&#x2028;</tspan><tspan x="632" y="241.6">area entrance</tspan></text>
<path d="M655 314L675 325.547L675 302.453L655 314ZM700.267 382L700.267 322L696.267 322L696.267 382L700.267 382ZM690.267 312L673 312L673 316L690.267 316L690.267 312ZM700.267 322C700.267 316.477 695.789 312 690.267 312L690.267 316C693.58 316 696.267 318.686 696.267 322L700.267 322Z" fill="#A3A3A4"/>
<rect x="675" y="352" width="45" height="40" rx="8" fill="#A3A3A4"/>
<text fill="black" xml:space="preserve" style="white-space: pre" font-family="JetBrains Sans" font-size="16" letter-spacing="0.0015em"><tspan x="683" y="377.6">WC</tspan></text>
<path d="M685.333 566C685.333 563.054 682.946 560.667 680 560.667C677.054 560.667 674.667 563.054 674.667 566C674.667 568.946 677.054 571.333 680 571.333C682.946 571.333 685.333 568.946 685.333 566ZM686.009 514.864L679.009 565.864L680.991 566.136L687.991 515.136L686.009 514.864Z" fill="#303033"/>
<text fill="black" xml:space="preserve" style="white-space: pre" font-family="JetBrains Sans" font-size="16" letter-spacing="0.0015em"><tspan x="664.404" y="508.6">Reception</tspan></text>
<path d="M727.267 297L707.267 285.453L707.267 308.547L727.267 297ZM682 229L682 289L686 289L686 229L682 229ZM692 299L709.267 299L709.267 295L692 295L692 299ZM682 289C682 294.523 686.477 299 692 299L692 295C688.686 295 686 292.314 686 289L682 289Z" fill="#08CA6D"/>
<rect x="730.5" y="266.5" width="63" height="63" rx="7.5" fill="white"/>
<rect x="730.5" y="266.5" width="63" height="63" rx="7.5" stroke="black"/>
<path d="M774 288H776V286V280H780V316H744V312H750H752V310V304H758H760V302V296H766H768V294V288H774Z" fill="black" stroke="black" stroke-width="4"/>
</svg>
