<svg width="1617" height="840" viewBox="0 0 1617 840" fill="none" xmlns="http://www.w3.org/2000/svg">
<rect width="1617" height="840" fill="white"/>
<path opacity="0.8" d="M110.26 395.223L110.26 96H154.353L197.408 101.695L454.233 138.968V180.901H498.821H543.408M110.26 395.223L543.408 395.223M110.26 395.223V405.06V433.015L110.26 570.72V613.17L588.539 613.17V696H648.713M543.408 291.168H652.344H674.65M543.408 291.168V180.901M543.408 291.168V335.172M781.51 243.023V186.078H758.167M758.167 186.078H753.498L701.105 186.078V176.759L543.408 151.91V180.901M758.167 186.078V266.837H781.51M796.554 186.078L802.26 191.772V266.837M802.26 266.837H1321V323.265M802.26 266.837V323.265M714.593 459.934H758.167V440.262H802.26V459.934V545.353M802.26 545.353H758.167H652.344M802.26 545.353L802.26 570.72V613.17M635.225 545.353H652.344M652.344 545.353V459.934H635.225H674.65M592.539 459.934H543.408V440.262V570.72H592.539V545.353H582.083M802.26 613.17H764.5V696M802.26 613.17V638.537M543.408 353.291V335.172M543.408 335.172H588.539M629 335.172H674.65M732.749 291.168H758.167V284.956V308.252M714.593 335.172H758.167V323.265V338.278V353.291H781.51H802.26V338.278V323.265M760.242 397.294H796.554M701.105 559.33L701.105 575.379H644.563L644.563 559.33M802.26 638.537V696H732.5M802.26 638.537H1321V524.645V437.674V353.291V323.265M1321 323.265H802.26M648.713 696V672.704H658.05V696H648.713ZM732.5 696H724.423V672.704H732.5V696ZM687.618 696V672.704H696.955V696H687.618Z" stroke="black" stroke-opacity="0.5" stroke-width="4"/>
<path d="M303.624 503.8H305.056L309.36 515H307.952L306.872 512.024H301.92L300.912 515H299.472L303.624 503.8ZM306.44 510.872L304.528 505.664L304.336 504.984L304.144 505.664L302.328 510.872H306.44ZM311.13 506.808H312.41V508.168C312.671 507.704 313.01 507.349 313.426 507.104C313.842 506.853 314.319 506.728 314.858 506.728H315.146V508.064H314.81C314.324 508.064 313.9 508.157 313.538 508.344C313.175 508.531 312.895 508.797 312.698 509.144C312.506 509.485 312.41 509.888 312.41 510.352V515H311.13V506.808ZM320.2 515.192C319.432 515.192 318.742 515.008 318.128 514.64C317.515 514.272 317.035 513.763 316.688 513.112C316.347 512.456 316.176 511.715 316.176 510.888C316.176 510.083 316.35 509.355 316.696 508.704C317.048 508.053 317.531 507.544 318.144 507.176C318.758 506.803 319.443 506.616 320.2 506.616C320.974 506.616 321.651 506.8 322.232 507.168C322.819 507.536 323.27 508.045 323.584 508.696C323.904 509.347 324.064 510.083 324.064 510.904V511.216H317.48C317.534 511.776 317.686 512.272 317.936 512.704C318.187 513.136 318.515 513.472 318.92 513.712C319.326 513.952 319.779 514.072 320.28 514.072C320.819 514.072 321.294 513.973 321.704 513.776C322.115 513.579 322.414 513.309 322.6 512.968H323.88C323.784 513.309 323.582 513.651 323.272 513.992C322.968 514.333 322.552 514.619 322.024 514.848C321.502 515.077 320.894 515.192 320.2 515.192ZM322.736 510.16C322.63 509.413 322.358 508.824 321.92 508.392C321.488 507.96 320.92 507.744 320.216 507.744C319.742 507.744 319.315 507.843 318.936 508.04C318.558 508.232 318.246 508.512 318 508.88C317.755 509.243 317.592 509.669 317.512 510.16H322.736ZM329.081 506.616C329.7 506.616 330.244 506.731 330.713 506.96C331.183 507.184 331.545 507.515 331.801 507.952C332.063 508.384 332.193 508.899 332.193 509.496V515H330.945V513.664C330.716 514.16 330.38 514.539 329.937 514.8C329.495 515.061 328.969 515.192 328.361 515.192C327.839 515.192 327.367 515.091 326.945 514.888C326.524 514.685 326.193 514.405 325.953 514.048C325.713 513.691 325.593 513.285 325.593 512.832C325.593 512.405 325.703 512.013 325.921 511.656C326.145 511.293 326.452 510.997 326.841 510.768C327.236 510.539 327.679 510.397 328.169 510.344L330.353 510.104C330.535 510.083 330.676 510.008 330.777 509.88C330.879 509.752 330.929 509.565 330.929 509.32C330.929 508.995 330.852 508.709 330.697 508.464C330.543 508.219 330.324 508.029 330.041 507.896C329.764 507.757 329.441 507.688 329.073 507.688C328.705 507.688 328.375 507.752 328.081 507.88C327.788 508.003 327.551 508.171 327.369 508.384C327.193 508.592 327.087 508.819 327.049 509.064H325.769C325.833 508.6 326.015 508.184 326.313 507.816C326.617 507.443 327.009 507.149 327.489 506.936C327.969 506.723 328.5 506.616 329.081 506.616ZM326.921 512.76C326.921 513.037 326.993 513.283 327.137 513.496C327.287 513.709 327.492 513.877 327.753 514C328.015 514.117 328.313 514.176 328.649 514.176C329.108 514.176 329.508 514.083 329.849 513.896C330.196 513.709 330.463 513.448 330.649 513.112C330.836 512.771 330.929 512.379 330.929 511.936V511L328.345 511.288C327.919 511.336 327.575 511.496 327.313 511.768C327.052 512.04 326.921 512.371 326.921 512.76ZM338.151 513.784H341.575L341.583 506.64H338.639V505.56H340.303C340.82 505.56 341.228 505.403 341.527 505.088C341.831 504.768 341.98 504.339 341.975 503.8H342.911L342.919 513.784H345.911V515H338.151V513.784Z" fill="black"/>
<path d="M303.92 260.8H305.352L309.656 272H308.248L307.168 269.024H302.216L301.208 272H299.768L303.92 260.8ZM306.736 267.872L304.824 262.664L304.632 261.984L304.44 262.664L302.624 267.872H306.736ZM311.427 263.808H312.707V265.168C312.968 264.704 313.307 264.349 313.723 264.104C314.139 263.853 314.616 263.728 315.155 263.728H315.443V265.064H315.107C314.621 265.064 314.197 265.157 313.835 265.344C313.472 265.531 313.192 265.797 312.995 266.144C312.803 266.485 312.707 266.888 312.707 267.352V272H311.427V263.808ZM320.497 272.192C319.729 272.192 319.039 272.008 318.425 271.64C317.812 271.272 317.332 270.763 316.985 270.112C316.644 269.456 316.473 268.715 316.473 267.888C316.473 267.083 316.647 266.355 316.993 265.704C317.345 265.053 317.828 264.544 318.441 264.176C319.055 263.803 319.74 263.616 320.497 263.616C321.271 263.616 321.948 263.8 322.529 264.168C323.116 264.536 323.567 265.045 323.881 265.696C324.201 266.347 324.361 267.083 324.361 267.904V268.216H317.777C317.831 268.776 317.983 269.272 318.233 269.704C318.484 270.136 318.812 270.472 319.217 270.712C319.623 270.952 320.076 271.072 320.577 271.072C321.116 271.072 321.591 270.973 322.001 270.776C322.412 270.579 322.711 270.309 322.897 269.968H324.177C324.081 270.309 323.879 270.651 323.569 270.992C323.265 271.333 322.849 271.619 322.321 271.848C321.799 272.077 321.191 272.192 320.497 272.192ZM323.033 267.16C322.927 266.413 322.655 265.824 322.217 265.392C321.785 264.96 321.217 264.744 320.513 264.744C320.039 264.744 319.612 264.843 319.233 265.04C318.855 265.232 318.543 265.512 318.297 265.88C318.052 266.243 317.889 266.669 317.809 267.16H323.033ZM329.378 263.616C329.997 263.616 330.541 263.731 331.01 263.96C331.479 264.184 331.842 264.515 332.098 264.952C332.359 265.384 332.49 265.899 332.49 266.496V272H331.242V270.664C331.013 271.16 330.677 271.539 330.234 271.8C329.791 272.061 329.266 272.192 328.658 272.192C328.135 272.192 327.663 272.091 327.242 271.888C326.821 271.685 326.49 271.405 326.25 271.048C326.01 270.691 325.89 270.285 325.89 269.832C325.89 269.405 325.999 269.013 326.218 268.656C326.442 268.293 326.749 267.997 327.138 267.768C327.533 267.539 327.975 267.397 328.466 267.344L330.65 267.104C330.831 267.083 330.973 267.008 331.074 266.88C331.175 266.752 331.226 266.565 331.226 266.32C331.226 265.995 331.149 265.709 330.994 265.464C330.839 265.219 330.621 265.029 330.338 264.896C330.061 264.757 329.738 264.688 329.37 264.688C329.002 264.688 328.671 264.752 328.378 264.88C328.085 265.003 327.847 265.171 327.666 265.384C327.49 265.592 327.383 265.819 327.346 266.064H326.066C326.13 265.6 326.311 265.184 326.61 264.816C326.914 264.443 327.306 264.149 327.786 263.936C328.266 263.723 328.797 263.616 329.378 263.616ZM327.218 269.76C327.218 270.037 327.29 270.283 327.434 270.496C327.583 270.709 327.789 270.877 328.05 271C328.311 271.117 328.61 271.176 328.946 271.176C329.405 271.176 329.805 271.083 330.146 270.896C330.493 270.709 330.759 270.448 330.946 270.112C331.133 269.771 331.226 269.379 331.226 268.936V268L328.642 268.288C328.215 268.336 327.871 268.496 327.61 268.768C327.349 269.04 327.218 269.371 327.218 269.76ZM338.934 270.824L343.454 266.576C343.902 266.16 344.232 265.755 344.446 265.36C344.659 264.96 344.766 264.544 344.766 264.112C344.766 263.653 344.667 263.248 344.47 262.896C344.272 262.544 343.998 262.269 343.646 262.072C343.294 261.875 342.888 261.776 342.43 261.776C341.966 261.776 341.552 261.872 341.19 262.064C340.827 262.256 340.544 262.525 340.342 262.872C340.144 263.213 340.046 263.605 340.046 264.048H338.702C338.702 263.376 338.859 262.779 339.174 262.256C339.494 261.733 339.939 261.328 340.51 261.04C341.086 260.752 341.742 260.608 342.478 260.608C343.203 260.608 343.843 260.749 344.398 261.032C344.952 261.315 345.382 261.712 345.686 262.224C345.99 262.736 346.142 263.323 346.142 263.984C346.142 264.624 345.99 265.232 345.686 265.808C345.382 266.384 344.899 266.973 344.238 267.576L340.71 270.784H346.414V272H338.934V270.824Z" fill="black"/>
<path d="M623.25 539L611.703 559H634.797L623.25 539ZM673.5 717V641H669.5V717H673.5ZM655.5 623H639.25V627H655.5V623ZM625.25 609V557H621.25V609H625.25ZM639.25 623C631.518 623 625.25 616.732 625.25 609H621.25C621.25 618.941 629.309 627 639.25 627V623ZM673.5 641C673.5 631.059 665.441 623 655.5 623V627C663.232 627 669.5 633.268 669.5 641H673.5Z" fill="#08CA6D"/>
<rect x="629" y="717" width="85" height="40" rx="8" fill="#08CA6D"/>
<path d="M638.72 731.8H646.464V733.04H640.016V736.736H645.92V737.968H640.016V741.76H646.624V743H638.72V731.8ZM649.033 734.808H650.265V736.136C650.543 735.645 650.911 735.269 651.369 735.008C651.833 734.747 652.369 734.616 652.977 734.616C653.564 734.616 654.084 734.741 654.537 734.992C654.991 735.243 655.345 735.613 655.601 736.104C655.863 736.589 655.993 737.173 655.993 737.856V743H654.713V737.984C654.713 737.275 654.529 736.723 654.161 736.328C653.793 735.933 653.287 735.736 652.641 735.736C652.183 735.736 651.777 735.837 651.425 736.04C651.073 736.243 650.799 736.528 650.601 736.896C650.409 737.259 650.313 737.675 650.313 738.144V743H649.033V734.808ZM661.205 743C660.816 743 660.461 742.917 660.141 742.752C659.826 742.581 659.578 742.349 659.397 742.056C659.216 741.757 659.125 741.427 659.125 741.064L659.117 735.944H657.677L657.685 734.808H658.573C658.776 734.808 658.938 734.744 659.061 734.616C659.189 734.488 659.253 734.325 659.253 734.128V732.808H660.405V734.808H662.381L662.373 735.944H660.397L660.405 740.984C660.405 741.235 660.488 741.445 660.653 741.616C660.824 741.781 661.034 741.864 661.285 741.864H662.373V743H661.205ZM664.628 734.808H665.908V736.168C666.17 735.704 666.508 735.349 666.924 735.104C667.34 734.853 667.818 734.728 668.356 734.728H668.644V736.064H668.308C667.823 736.064 667.399 736.157 667.036 736.344C666.674 736.531 666.394 736.797 666.196 737.144C666.004 737.485 665.908 737.888 665.908 738.352V743H664.628V734.808ZM673.103 734.616C673.721 734.616 674.265 734.731 674.735 734.96C675.204 735.184 675.567 735.515 675.823 735.952C676.084 736.384 676.215 736.899 676.215 737.496V743H674.967V741.664C674.737 742.16 674.401 742.539 673.959 742.8C673.516 743.061 672.991 743.192 672.383 743.192C671.86 743.192 671.388 743.091 670.967 742.888C670.545 742.685 670.215 742.405 669.975 742.048C669.735 741.691 669.615 741.285 669.615 740.832C669.615 740.405 669.724 740.013 669.943 739.656C670.167 739.293 670.473 738.997 670.863 738.768C671.257 738.539 671.7 738.397 672.191 738.344L674.375 738.104C674.556 738.083 674.697 738.008 674.799 737.88C674.9 737.752 674.951 737.565 674.951 737.32C674.951 736.995 674.873 736.709 674.719 736.464C674.564 736.219 674.345 736.029 674.063 735.896C673.785 735.757 673.463 735.688 673.095 735.688C672.727 735.688 672.396 735.752 672.103 735.88C671.809 736.003 671.572 736.171 671.391 736.384C671.215 736.592 671.108 736.819 671.071 737.064H669.791C669.855 736.6 670.036 736.184 670.335 735.816C670.639 735.443 671.031 735.149 671.511 734.936C671.991 734.723 672.521 734.616 673.103 734.616ZM670.943 740.76C670.943 741.037 671.015 741.283 671.159 741.496C671.308 741.709 671.513 741.877 671.775 742C672.036 742.117 672.335 742.176 672.671 742.176C673.129 742.176 673.529 742.083 673.871 741.896C674.217 741.709 674.484 741.448 674.671 741.112C674.857 740.771 674.951 740.379 674.951 739.936V739L672.367 739.288C671.94 739.336 671.596 739.496 671.335 739.768C671.073 740.04 670.943 740.371 670.943 740.76ZM678.801 734.808H680.033V736.136C680.311 735.645 680.679 735.269 681.137 735.008C681.601 734.747 682.137 734.616 682.745 734.616C683.332 734.616 683.852 734.741 684.305 734.992C684.759 735.243 685.113 735.613 685.369 736.104C685.631 736.589 685.761 737.173 685.761 737.856V743H684.481V737.984C684.481 737.275 684.297 736.723 683.929 736.328C683.561 735.933 683.055 735.736 682.409 735.736C681.951 735.736 681.545 735.837 681.193 736.04C680.841 736.243 680.567 736.528 680.369 736.896C680.177 737.259 680.081 737.675 680.081 738.144V743H678.801V734.808ZM691.741 743.192C690.968 743.192 690.269 743.005 689.645 742.632C689.021 742.259 688.53 741.747 688.173 741.096C687.821 740.44 687.645 739.709 687.645 738.904C687.645 738.099 687.821 737.371 688.173 736.72C688.53 736.064 689.021 735.549 689.645 735.176C690.269 734.803 690.968 734.616 691.741 734.616C692.733 734.616 693.565 734.869 694.237 735.376C694.909 735.877 695.338 736.605 695.525 737.56H694.245C694.074 736.973 693.76 736.531 693.301 736.232C692.848 735.928 692.328 735.776 691.741 735.776C691.213 735.776 690.738 735.909 690.317 736.176C689.901 736.443 689.576 736.813 689.341 737.288C689.106 737.763 688.989 738.301 688.989 738.904C688.989 739.501 689.106 740.037 689.341 740.512C689.576 740.987 689.901 741.36 690.317 741.632C690.738 741.899 691.213 742.032 691.741 742.032C692.328 742.032 692.848 741.883 693.301 741.584C693.76 741.28 694.074 740.835 694.245 740.248H695.525C695.402 740.867 695.162 741.397 694.805 741.84C694.448 742.283 694.005 742.619 693.477 742.848C692.949 743.077 692.37 743.192 691.741 743.192ZM700.958 743.192C700.19 743.192 699.5 743.008 698.886 742.64C698.273 742.272 697.793 741.763 697.446 741.112C697.105 740.456 696.934 739.715 696.934 738.888C696.934 738.083 697.108 737.355 697.454 736.704C697.806 736.053 698.289 735.544 698.902 735.176C699.516 734.803 700.201 734.616 700.958 734.616C701.732 734.616 702.409 734.8 702.99 735.168C703.577 735.536 704.028 736.045 704.342 736.696C704.662 737.347 704.822 738.083 704.822 738.904V739.216H698.238C698.292 739.776 698.444 740.272 698.694 740.704C698.945 741.136 699.273 741.472 699.678 741.712C700.084 741.952 700.537 742.072 701.038 742.072C701.577 742.072 702.052 741.973 702.462 741.776C702.873 741.579 703.172 741.309 703.358 740.968H704.638C704.542 741.309 704.34 741.651 704.03 741.992C703.726 742.333 703.31 742.619 702.782 742.848C702.26 743.077 701.652 743.192 700.958 743.192ZM703.494 738.16C703.388 737.413 703.116 736.824 702.678 736.392C702.246 735.96 701.678 735.744 700.974 735.744C700.5 735.744 700.073 735.843 699.694 736.04C699.316 736.232 699.004 736.512 698.758 736.88C698.513 737.243 698.35 737.669 698.27 738.16H703.494Z" fill="black"/>
<rect x="624" y="192" width="120" height="64" rx="8" fill="#08CA6D"/>
<path d="M633.856 206.8L636.92 216.064L639.824 206.8H641.088L644.024 216.064L647.024 206.8H648.416L644.632 218H643.336L640.432 208.896L637.48 218H636.184L632.416 206.8H633.856ZM653.045 218.192C652.266 218.192 651.557 218.008 650.917 217.64C650.282 217.267 649.781 216.755 649.413 216.104C649.05 215.448 648.869 214.715 648.869 213.904C648.869 213.093 649.05 212.363 649.413 211.712C649.781 211.056 650.285 210.544 650.925 210.176C651.565 209.803 652.274 209.616 653.053 209.616C653.831 209.616 654.538 209.803 655.173 210.176C655.807 210.544 656.306 211.053 656.669 211.704C657.037 212.355 657.221 213.088 657.221 213.904C657.221 214.72 657.037 215.453 656.669 216.104C656.306 216.755 655.807 217.267 655.173 217.64C654.538 218.008 653.829 218.192 653.045 218.192ZM650.213 213.904C650.213 214.517 650.335 215.061 650.581 215.536C650.831 216.005 651.173 216.371 651.605 216.632C652.042 216.893 652.527 217.024 653.061 217.024C653.594 217.024 654.074 216.893 654.501 216.632C654.927 216.371 655.263 216.005 655.509 215.536C655.754 215.061 655.877 214.517 655.877 213.904C655.877 213.291 655.754 212.747 655.509 212.272C655.263 211.797 654.925 211.429 654.493 211.168C654.066 210.907 653.586 210.776 653.053 210.776C652.519 210.776 652.037 210.907 651.605 211.168C651.173 211.429 650.831 211.797 650.581 212.272C650.335 212.747 650.213 213.291 650.213 213.904ZM659.354 209.808H660.634V211.168C660.896 210.704 661.234 210.349 661.65 210.104C662.066 209.853 662.544 209.728 663.082 209.728H663.37V211.064H663.034C662.549 211.064 662.125 211.157 661.762 211.344C661.4 211.531 661.12 211.797 660.922 212.144C660.73 212.485 660.634 212.888 660.634 213.352V218H659.354V209.808ZM665.097 206.8H666.377V213.648L670.089 209.808H671.681L667.945 213.712L671.825 218H670.177L666.377 213.872V218H665.097V206.8ZM675.794 218.192C675.175 218.192 674.615 218.093 674.114 217.896C673.618 217.699 673.22 217.424 672.922 217.072C672.628 216.715 672.471 216.312 672.45 215.864H673.754C673.775 216.109 673.876 216.331 674.058 216.528C674.239 216.72 674.479 216.872 674.778 216.984C675.076 217.096 675.41 217.152 675.778 217.152C676.151 217.152 676.479 217.091 676.762 216.968C677.05 216.845 677.271 216.675 677.426 216.456C677.586 216.237 677.666 215.989 677.666 215.712C677.666 215.413 677.58 215.163 677.41 214.96C677.244 214.752 677.012 214.621 676.714 214.568L674.738 214.208C674.108 214.091 673.618 213.837 673.266 213.448C672.914 213.053 672.738 212.555 672.738 211.952C672.738 211.52 672.86 211.128 673.106 210.776C673.356 210.419 673.706 210.136 674.154 209.928C674.602 209.72 675.114 209.616 675.69 209.616C676.26 209.616 676.775 209.709 677.234 209.896C677.692 210.083 678.058 210.341 678.33 210.672C678.602 211.003 678.748 211.371 678.77 211.776H677.466C677.45 211.563 677.362 211.371 677.202 211.2C677.047 211.029 676.839 210.896 676.578 210.8C676.316 210.704 676.023 210.656 675.698 210.656C675.367 210.656 675.074 210.712 674.818 210.824C674.562 210.936 674.362 211.091 674.218 211.288C674.079 211.48 674.01 211.699 674.01 211.944C674.01 212.221 674.087 212.451 674.242 212.632C674.396 212.813 674.623 212.931 674.922 212.984L676.946 213.344C677.362 213.419 677.719 213.565 678.018 213.784C678.322 214.003 678.551 214.275 678.706 214.6C678.866 214.925 678.946 215.28 678.946 215.664C678.946 216.144 678.807 216.576 678.53 216.96C678.258 217.344 677.882 217.645 677.402 217.864C676.922 218.083 676.386 218.192 675.794 218.192ZM681.129 206.8H682.361V211.136C682.639 210.645 683.007 210.269 683.465 210.008C683.929 209.747 684.465 209.616 685.073 209.616C685.66 209.616 686.18 209.741 686.633 209.992C687.087 210.243 687.441 210.613 687.697 211.104C687.959 211.589 688.089 212.173 688.089 212.856V218H686.809V212.984C686.809 212.275 686.625 211.723 686.257 211.328C685.889 210.933 685.383 210.736 684.737 210.736C684.279 210.736 683.873 210.837 683.521 211.04C683.169 211.243 682.895 211.528 682.697 211.896C682.505 212.259 682.409 212.675 682.409 213.144V218H681.129V206.8ZM694.149 218.192C693.37 218.192 692.661 218.008 692.021 217.64C691.386 217.267 690.885 216.755 690.517 216.104C690.154 215.448 689.973 214.715 689.973 213.904C689.973 213.093 690.154 212.363 690.517 211.712C690.885 211.056 691.389 210.544 692.029 210.176C692.669 209.803 693.378 209.616 694.157 209.616C694.936 209.616 695.642 209.803 696.277 210.176C696.912 210.544 697.41 211.053 697.773 211.704C698.141 212.355 698.325 213.088 698.325 213.904C698.325 214.72 698.141 215.453 697.773 216.104C697.41 216.755 696.912 217.267 696.277 217.64C695.642 218.008 694.933 218.192 694.149 218.192ZM691.317 213.904C691.317 214.517 691.44 215.061 691.685 215.536C691.936 216.005 692.277 216.371 692.709 216.632C693.146 216.893 693.632 217.024 694.165 217.024C694.698 217.024 695.178 216.893 695.605 216.632C696.032 216.371 696.368 216.005 696.613 215.536C696.858 215.061 696.981 214.517 696.981 213.904C696.981 213.291 696.858 212.747 696.613 212.272C696.368 211.797 696.029 211.429 695.597 211.168C695.17 210.907 694.69 210.776 694.157 210.776C693.624 210.776 693.141 210.907 692.709 211.168C692.277 211.429 691.936 211.797 691.685 212.272C691.44 212.747 691.317 213.291 691.317 213.904ZM701.707 209.808V211.256C702.016 210.739 702.432 210.336 702.955 210.048C703.477 209.76 704.077 209.616 704.755 209.616C705.517 209.616 706.195 209.797 706.787 210.16C707.384 210.517 707.848 211.021 708.179 211.672C708.515 212.323 708.683 213.067 708.683 213.904C708.683 214.741 708.515 215.485 708.179 216.136C707.848 216.787 707.384 217.293 706.787 217.656C706.195 218.013 705.517 218.192 704.755 218.192C704.088 218.192 703.496 218.053 702.979 217.776C702.461 217.499 702.048 217.109 701.739 216.608V220.576H700.459V209.808H701.707ZM701.739 213.904C701.739 214.517 701.856 215.061 702.091 215.536C702.331 216.005 702.664 216.373 703.091 216.64C703.517 216.901 704.005 217.032 704.555 217.032C705.099 217.032 705.581 216.901 706.003 216.64C706.424 216.373 706.752 216.005 706.987 215.536C707.221 215.061 707.339 214.517 707.339 213.904C707.339 213.291 707.221 212.749 706.987 212.28C706.752 211.805 706.424 211.437 706.003 211.176C705.581 210.909 705.099 210.776 704.555 210.776C704.005 210.776 703.517 210.909 703.091 211.176C702.664 211.437 702.331 211.805 702.091 212.28C701.856 212.749 701.739 213.291 701.739 213.904ZM636.288 233.616C636.907 233.616 637.451 233.731 637.92 233.96C638.389 234.184 638.752 234.515 639.008 234.952C639.269 235.384 639.4 235.899 639.4 236.496V242H638.152V240.664C637.923 241.16 637.587 241.539 637.144 241.8C636.701 242.061 636.176 242.192 635.568 242.192C635.045 242.192 634.573 242.091 634.152 241.888C633.731 241.685 633.4 241.405 633.16 241.048C632.92 240.691 632.8 240.285 632.8 239.832C632.8 239.405 632.909 239.013 633.128 238.656C633.352 238.293 633.659 237.997 634.048 237.768C634.443 237.539 634.885 237.397 635.376 237.344L637.56 237.104C637.741 237.083 637.883 237.008 637.984 236.88C638.085 236.752 638.136 236.565 638.136 236.32C638.136 235.995 638.059 235.709 637.904 235.464C637.749 235.219 637.531 235.029 637.248 234.896C636.971 234.757 636.648 234.688 636.28 234.688C635.912 234.688 635.581 234.752 635.288 234.88C634.995 235.003 634.757 235.171 634.576 235.384C634.4 235.592 634.293 235.819 634.256 236.064H632.976C633.04 235.6 633.221 235.184 633.52 234.816C633.824 234.443 634.216 234.149 634.696 233.936C635.176 233.723 635.707 233.616 636.288 233.616ZM634.128 239.76C634.128 240.037 634.2 240.283 634.344 240.496C634.493 240.709 634.699 240.877 634.96 241C635.221 241.117 635.52 241.176 635.856 241.176C636.315 241.176 636.715 241.083 637.056 240.896C637.403 240.709 637.669 240.448 637.856 240.112C638.043 239.771 638.136 239.379 638.136 238.936V238L635.552 238.288C635.125 238.336 634.781 238.496 634.52 238.768C634.259 239.04 634.128 239.371 634.128 239.76ZM641.987 233.808H643.267V235.168C643.528 234.704 643.867 234.349 644.283 234.104C644.699 233.853 645.176 233.728 645.715 233.728H646.003V235.064H645.667C645.181 235.064 644.757 235.157 644.395 235.344C644.032 235.531 643.752 235.797 643.555 236.144C643.363 236.485 643.267 236.888 643.267 237.352V242H641.987V233.808ZM651.057 242.192C650.289 242.192 649.599 242.008 648.985 241.64C648.372 241.272 647.892 240.763 647.545 240.112C647.204 239.456 647.033 238.715 647.033 237.888C647.033 237.083 647.207 236.355 647.553 235.704C647.905 235.053 648.388 234.544 649.001 234.176C649.615 233.803 650.3 233.616 651.057 233.616C651.831 233.616 652.508 233.8 653.089 234.168C653.676 234.536 654.127 235.045 654.441 235.696C654.761 236.347 654.921 237.083 654.921 237.904V238.216H648.337C648.391 238.776 648.543 239.272 648.793 239.704C649.044 240.136 649.372 240.472 649.777 240.712C650.183 240.952 650.636 241.072 651.137 241.072C651.676 241.072 652.151 240.973 652.561 240.776C652.972 240.579 653.271 240.309 653.457 239.968H654.737C654.641 240.309 654.439 240.651 654.129 240.992C653.825 241.333 653.409 241.619 652.881 241.848C652.359 242.077 651.751 242.192 651.057 242.192ZM653.593 237.16C653.487 236.413 653.215 235.824 652.777 235.392C652.345 234.96 651.777 234.744 651.073 234.744C650.599 234.744 650.172 234.843 649.793 235.04C649.415 235.232 649.103 235.512 648.857 235.88C648.612 236.243 648.449 236.669 648.369 237.16H653.593ZM659.938 233.616C660.557 233.616 661.101 233.731 661.57 233.96C662.039 234.184 662.402 234.515 662.658 234.952C662.919 235.384 663.05 235.899 663.05 236.496V242H661.802V240.664C661.573 241.16 661.237 241.539 660.794 241.8C660.351 242.061 659.826 242.192 659.218 242.192C658.695 242.192 658.223 242.091 657.802 241.888C657.381 241.685 657.05 241.405 656.81 241.048C656.57 240.691 656.45 240.285 656.45 239.832C656.45 239.405 656.559 239.013 656.778 238.656C657.002 238.293 657.309 237.997 657.698 237.768C658.093 237.539 658.535 237.397 659.026 237.344L661.21 237.104C661.391 237.083 661.533 237.008 661.634 236.88C661.735 236.752 661.786 236.565 661.786 236.32C661.786 235.995 661.709 235.709 661.554 235.464C661.399 235.219 661.181 235.029 660.898 234.896C660.621 234.757 660.298 234.688 659.93 234.688C659.562 234.688 659.231 234.752 658.938 234.88C658.645 235.003 658.407 235.171 658.226 235.384C658.05 235.592 657.943 235.819 657.906 236.064H656.626C656.69 235.6 656.871 235.184 657.17 234.816C657.474 234.443 657.866 234.149 658.346 233.936C658.826 233.723 659.357 233.616 659.938 233.616ZM657.778 239.76C657.778 240.037 657.85 240.283 657.994 240.496C658.143 240.709 658.349 240.877 658.61 241C658.871 241.117 659.17 241.176 659.506 241.176C659.965 241.176 660.365 241.083 660.706 240.896C661.053 240.709 661.319 240.448 661.506 240.112C661.693 239.771 661.786 239.379 661.786 238.936V238L659.202 238.288C658.775 238.336 658.431 238.496 658.17 238.768C657.909 239.04 657.778 239.371 657.778 239.76ZM672.707 242.192C671.939 242.192 671.249 242.008 670.635 241.64C670.022 241.272 669.542 240.763 669.195 240.112C668.854 239.456 668.683 238.715 668.683 237.888C668.683 237.083 668.857 236.355 669.203 235.704C669.555 235.053 670.038 234.544 670.651 234.176C671.265 233.803 671.95 233.616 672.707 233.616C673.481 233.616 674.158 233.8 674.739 234.168C675.326 234.536 675.777 235.045 676.091 235.696C676.411 236.347 676.571 237.083 676.571 237.904V238.216H669.987C670.041 238.776 670.193 239.272 670.443 239.704C670.694 240.136 671.022 240.472 671.427 240.712C671.833 240.952 672.286 241.072 672.787 241.072C673.326 241.072 673.801 240.973 674.211 240.776C674.622 240.579 674.921 240.309 675.107 239.968H676.387C676.291 240.309 676.089 240.651 675.779 240.992C675.475 241.333 675.059 241.619 674.531 241.848C674.009 242.077 673.401 242.192 672.707 242.192ZM675.243 237.16C675.137 236.413 674.865 235.824 674.427 235.392C673.995 234.96 673.427 234.744 672.723 234.744C672.249 234.744 671.822 234.843 671.443 235.04C671.065 235.232 670.753 235.512 670.507 235.88C670.262 236.243 670.099 236.669 670.019 237.16H675.243ZM678.7 233.808H679.932V235.136C680.21 234.645 680.578 234.269 681.036 234.008C681.5 233.747 682.036 233.616 682.644 233.616C683.231 233.616 683.751 233.741 684.204 233.992C684.658 234.243 685.012 234.613 685.268 235.104C685.53 235.589 685.66 236.173 685.66 236.856V242H684.38V236.984C684.38 236.275 684.196 235.723 683.828 235.328C683.46 234.933 682.954 234.736 682.308 234.736C681.85 234.736 681.444 234.837 681.092 235.04C680.74 235.243 680.466 235.528 680.268 235.896C680.076 236.259 679.98 236.675 679.98 237.144V242H678.7V233.808ZM690.872 242C690.483 242 690.128 241.917 689.808 241.752C689.493 241.581 689.245 241.349 689.064 241.056C688.883 240.757 688.792 240.427 688.792 240.064L688.784 234.944H687.344L687.352 233.808H688.24C688.443 233.808 688.605 233.744 688.728 233.616C688.856 233.488 688.92 233.325 688.92 233.128V231.808H690.072V233.808H692.048L692.04 234.944H690.064L690.072 239.984C690.072 240.235 690.155 240.445 690.32 240.616C690.491 240.781 690.701 240.864 690.952 240.864H692.04V242H690.872ZM694.295 233.808H695.575V235.168C695.836 234.704 696.175 234.349 696.591 234.104C697.007 233.853 697.484 233.728 698.023 233.728H698.311V235.064H697.975C697.49 235.064 697.066 235.157 696.703 235.344C696.34 235.531 696.06 235.797 695.863 236.144C695.671 236.485 695.575 236.888 695.575 237.352V242H694.295V233.808ZM702.77 233.616C703.388 233.616 703.932 233.731 704.402 233.96C704.871 234.184 705.234 234.515 705.49 234.952C705.751 235.384 705.882 235.899 705.882 236.496V242H704.634V240.664C704.404 241.16 704.068 241.539 703.626 241.8C703.183 242.061 702.658 242.192 702.05 242.192C701.527 242.192 701.055 242.091 700.634 241.888C700.212 241.685 699.882 241.405 699.642 241.048C699.402 240.691 699.282 240.285 699.282 239.832C699.282 239.405 699.391 239.013 699.61 238.656C699.834 238.293 700.14 237.997 700.53 237.768C700.924 237.539 701.367 237.397 701.858 237.344L704.042 237.104C704.223 237.083 704.364 237.008 704.466 236.88C704.567 236.752 704.618 236.565 704.618 236.32C704.618 235.995 704.54 235.709 704.386 235.464C704.231 235.219 704.012 235.029 703.73 234.896C703.452 234.757 703.13 234.688 702.762 234.688C702.394 234.688 702.063 234.752 701.77 234.88C701.476 235.003 701.239 235.171 701.058 235.384C700.882 235.592 700.775 235.819 700.738 236.064H699.458C699.522 235.6 699.703 235.184 700.002 234.816C700.306 234.443 700.698 234.149 701.178 233.936C701.658 233.723 702.188 233.616 702.77 233.616ZM700.61 239.76C700.61 240.037 700.682 240.283 700.826 240.496C700.975 240.709 701.18 240.877 701.442 241C701.703 241.117 702.002 241.176 702.338 241.176C702.796 241.176 703.196 241.083 703.538 240.896C703.884 240.709 704.151 240.448 704.338 240.112C704.524 239.771 704.618 239.379 704.618 238.936V238L702.034 238.288C701.607 238.336 701.263 238.496 701.002 238.768C700.74 239.04 700.61 239.371 700.61 239.76ZM708.468 233.808H709.7V235.136C709.977 234.645 710.345 234.269 710.804 234.008C711.268 233.747 711.804 233.616 712.412 233.616C712.999 233.616 713.519 233.741 713.972 233.992C714.425 234.243 714.78 234.613 715.036 235.104C715.297 235.589 715.428 236.173 715.428 236.856V242H714.148V236.984C714.148 236.275 713.964 235.723 713.596 235.328C713.228 234.933 712.721 234.736 712.076 234.736C711.617 234.736 711.212 234.837 710.86 235.04C710.508 235.243 710.233 235.528 710.036 235.896C709.844 236.259 709.748 236.675 709.748 237.144V242H708.468V233.808ZM721.408 242.192C720.634 242.192 719.936 242.005 719.312 241.632C718.688 241.259 718.197 240.747 717.84 240.096C717.488 239.44 717.312 238.709 717.312 237.904C717.312 237.099 717.488 236.371 717.84 235.72C718.197 235.064 718.688 234.549 719.312 234.176C719.936 233.803 720.634 233.616 721.408 233.616C722.4 233.616 723.232 233.869 723.904 234.376C724.576 234.877 725.005 235.605 725.192 236.56H723.912C723.741 235.973 723.426 235.531 722.968 235.232C722.514 234.928 721.994 234.776 721.408 234.776C720.88 234.776 720.405 234.909 719.984 235.176C719.568 235.443 719.242 235.813 719.008 236.288C718.773 236.763 718.656 237.301 718.656 237.904C718.656 238.501 718.773 239.037 719.008 239.512C719.242 239.987 719.568 240.36 719.984 240.632C720.405 240.899 720.88 241.032 721.408 241.032C721.994 241.032 722.514 240.883 722.968 240.584C723.426 240.28 723.741 239.835 723.912 239.248H725.192C725.069 239.867 724.829 240.397 724.472 240.84C724.114 241.283 723.672 241.619 723.144 241.848C722.616 242.077 722.037 242.192 721.408 242.192ZM730.625 242.192C729.857 242.192 729.167 242.008 728.553 241.64C727.94 241.272 727.46 240.763 727.113 240.112C726.772 239.456 726.601 238.715 726.601 237.888C726.601 237.083 726.775 236.355 727.121 235.704C727.473 235.053 727.956 234.544 728.569 234.176C729.183 233.803 729.868 233.616 730.625 233.616C731.399 233.616 732.076 233.8 732.657 234.168C733.244 234.536 733.695 235.045 734.009 235.696C734.329 236.347 734.489 237.083 734.489 237.904V238.216H727.905C727.959 238.776 728.111 239.272 728.361 239.704C728.612 240.136 728.94 240.472 729.345 240.712C729.751 240.952 730.204 241.072 730.705 241.072C731.244 241.072 731.719 240.973 732.129 240.776C732.54 240.579 732.839 240.309 733.025 239.968H734.305C734.209 240.309 734.007 240.651 733.697 240.992C733.393 241.333 732.977 241.619 732.449 241.848C731.927 242.077 731.319 242.192 730.625 242.192ZM733.161 237.16C733.055 236.413 732.783 235.824 732.345 235.392C731.913 234.96 731.345 234.744 730.641 234.744C730.167 234.744 729.74 234.843 729.361 235.04C728.983 235.232 728.671 235.512 728.425 235.88C728.18 236.243 728.017 236.669 727.937 237.16H733.161Z" fill="black"/>
<path d="M655 314L675 325.547L675 302.453L655 314ZM700.267 382L700.267 322L696.267 322L696.267 382L700.267 382ZM690.267 312L673 312L673 316L690.267 316L690.267 312ZM700.267 322C700.267 316.477 695.789 312 690.267 312L690.267 316C693.58 316 696.267 318.686 696.267 322L700.267 322Z" fill="#A3A3A4"/>
<rect x="675" y="352" width="45" height="40" rx="8" fill="#A3A3A4"/>
<path d="M684.856 366.8L687.92 376.064L690.824 366.8H692.088L695.024 376.064L698.024 366.8H699.416L695.632 378H694.336L691.432 368.896L688.48 378H687.184L683.416 366.8H684.856ZM705.916 378.192C704.892 378.192 703.961 377.941 703.124 377.44C702.292 376.933 701.638 376.24 701.164 375.36C700.689 374.475 700.452 373.488 700.452 372.4C700.452 371.312 700.689 370.328 701.164 369.448C701.638 368.563 702.292 367.869 703.124 367.368C703.961 366.861 704.892 366.608 705.916 366.608C706.758 366.608 707.545 366.789 708.276 367.152C709.012 367.509 709.617 367.984 710.092 368.576C710.566 369.168 710.854 369.797 710.956 370.464H709.628C709.521 370.011 709.289 369.581 708.932 369.176C708.574 368.771 708.129 368.445 707.596 368.2C707.068 367.949 706.508 367.824 705.916 367.824C705.137 367.824 704.436 368.021 703.812 368.416C703.193 368.805 702.708 369.349 702.356 370.048C702.004 370.741 701.828 371.525 701.828 372.4C701.828 373.275 702.004 374.061 702.356 374.76C702.708 375.453 703.193 375.997 703.812 376.392C704.436 376.781 705.137 376.976 705.916 376.976C706.508 376.976 707.068 376.853 707.596 376.608C708.129 376.357 708.574 376.029 708.932 375.624C709.289 375.219 709.521 374.789 709.628 374.336H710.956C710.854 375.003 710.566 375.632 710.092 376.224C709.617 376.816 709.012 377.293 708.276 377.656C707.545 378.013 706.758 378.192 705.916 378.192Z" fill="black"/>
<path d="M685.333 566C685.333 563.054 682.946 560.667 680 560.667C677.054 560.667 674.667 563.054 674.667 566C674.667 568.946 677.054 571.333 680 571.333C682.946 571.333 685.333 568.946 685.333 566ZM686.009 514.864L679.009 565.864L680.991 566.136L687.991 515.136L686.009 514.864Z" fill="#303033"/>
<path d="M669.86 504.312H667.452V509H666.124V497.8H670.652C671.367 497.8 671.993 497.933 672.532 498.2C673.076 498.467 673.495 498.845 673.788 499.336C674.087 499.827 674.236 500.397 674.236 501.048C674.236 501.624 674.116 502.141 673.876 502.6C673.641 503.053 673.305 503.424 672.868 503.712C672.431 503.995 671.913 504.179 671.316 504.264L674.268 509H672.716L669.86 504.312ZM670.652 503.072C671.089 503.072 671.471 502.989 671.796 502.824C672.127 502.659 672.38 502.424 672.556 502.12C672.737 501.816 672.828 501.459 672.828 501.048C672.828 500.643 672.737 500.288 672.556 499.984C672.38 499.68 672.127 499.448 671.796 499.288C671.471 499.123 671.089 499.04 670.652 499.04H667.452V503.072H670.652ZM679.578 509.192C678.81 509.192 678.119 509.008 677.506 508.64C676.893 508.272 676.413 507.763 676.066 507.112C675.725 506.456 675.554 505.715 675.554 504.888C675.554 504.083 675.727 503.355 676.074 502.704C676.426 502.053 676.909 501.544 677.522 501.176C678.135 500.803 678.821 500.616 679.578 500.616C680.351 500.616 681.029 500.8 681.61 501.168C682.197 501.536 682.647 502.045 682.962 502.696C683.282 503.347 683.442 504.083 683.442 504.904V505.216H676.858C676.911 505.776 677.063 506.272 677.314 506.704C677.565 507.136 677.893 507.472 678.298 507.712C678.703 507.952 679.157 508.072 679.658 508.072C680.197 508.072 680.671 507.973 681.082 507.776C681.493 507.579 681.791 507.309 681.978 506.968H683.258C683.162 507.309 682.959 507.651 682.65 507.992C682.346 508.333 681.93 508.619 681.402 508.848C680.879 509.077 680.271 509.192 679.578 509.192ZM682.114 504.16C682.007 503.413 681.735 502.824 681.298 502.392C680.866 501.96 680.298 501.744 679.594 501.744C679.119 501.744 678.693 501.843 678.314 502.04C677.935 502.232 677.623 502.512 677.378 502.88C677.133 503.243 676.97 503.669 676.89 504.16H682.114ZM688.971 509.192C688.197 509.192 687.499 509.005 686.875 508.632C686.251 508.259 685.76 507.747 685.403 507.096C685.051 506.44 684.875 505.709 684.875 504.904C684.875 504.099 685.051 503.371 685.403 502.72C685.76 502.064 686.251 501.549 686.875 501.176C687.499 500.803 688.197 500.616 688.971 500.616C689.963 500.616 690.795 500.869 691.467 501.376C692.139 501.877 692.568 502.605 692.755 503.56H691.475C691.304 502.973 690.989 502.531 690.531 502.232C690.077 501.928 689.557 501.776 688.971 501.776C688.443 501.776 687.968 501.909 687.547 502.176C687.131 502.443 686.805 502.813 686.571 503.288C686.336 503.763 686.219 504.301 686.219 504.904C686.219 505.501 686.336 506.037 686.571 506.512C686.805 506.987 687.131 507.36 687.547 507.632C687.968 507.899 688.443 508.032 688.971 508.032C689.557 508.032 690.077 507.883 690.531 507.584C690.989 507.28 691.304 506.835 691.475 506.248H692.755C692.632 506.867 692.392 507.397 692.035 507.84C691.677 508.283 691.235 508.619 690.707 508.848C690.179 509.077 689.6 509.192 688.971 509.192ZM698.188 509.192C697.42 509.192 696.73 509.008 696.116 508.64C695.503 508.272 695.023 507.763 694.676 507.112C694.335 506.456 694.164 505.715 694.164 504.888C694.164 504.083 694.338 503.355 694.684 502.704C695.036 502.053 695.519 501.544 696.132 501.176C696.746 500.803 697.431 500.616 698.188 500.616C698.962 500.616 699.639 500.8 700.22 501.168C700.807 501.536 701.258 502.045 701.572 502.696C701.892 503.347 702.052 504.083 702.052 504.904V505.216H695.468C695.522 505.776 695.674 506.272 695.924 506.704C696.175 507.136 696.503 507.472 696.908 507.712C697.314 507.952 697.767 508.072 698.268 508.072C698.807 508.072 699.282 507.973 699.692 507.776C700.103 507.579 700.402 507.309 700.588 506.968H701.868C701.772 507.309 701.57 507.651 701.26 507.992C700.956 508.333 700.54 508.619 700.012 508.848C699.49 509.077 698.882 509.192 698.188 509.192ZM700.724 504.16C700.618 503.413 700.346 502.824 699.908 502.392C699.476 501.96 698.908 501.744 698.204 501.744C697.73 501.744 697.303 501.843 696.924 502.04C696.546 502.232 696.234 502.512 695.988 502.88C695.743 503.243 695.58 503.669 695.5 504.16H700.724ZM705.429 500.808V502.256C705.739 501.739 706.155 501.336 706.677 501.048C707.2 500.76 707.8 500.616 708.477 500.616C709.24 500.616 709.917 500.797 710.509 501.16C711.107 501.517 711.571 502.021 711.901 502.672C712.237 503.323 712.405 504.067 712.405 504.904C712.405 505.741 712.237 506.485 711.901 507.136C711.571 507.787 711.107 508.293 710.509 508.656C709.917 509.013 709.24 509.192 708.477 509.192C707.811 509.192 707.219 509.053 706.701 508.776C706.184 508.499 705.771 508.109 705.461 507.608V511.576H704.181V500.808H705.429ZM705.461 504.904C705.461 505.517 705.579 506.061 705.813 506.536C706.053 507.005 706.387 507.373 706.813 507.64C707.24 507.901 707.728 508.032 708.277 508.032C708.821 508.032 709.304 507.901 709.725 507.64C710.147 507.373 710.475 507.005 710.709 506.536C710.944 506.061 711.061 505.517 711.061 504.904C711.061 504.291 710.944 503.749 710.709 503.28C710.475 502.805 710.147 502.437 709.725 502.176C709.304 501.909 708.821 501.776 708.277 501.776C707.728 501.776 707.24 501.909 706.813 502.176C706.387 502.437 706.053 502.805 705.813 503.28C705.579 503.749 705.461 504.291 705.461 504.904ZM717.165 509C716.776 509 716.421 508.917 716.101 508.752C715.787 508.581 715.539 508.349 715.357 508.056C715.176 507.757 715.085 507.427 715.085 507.064L715.077 501.944H713.637L713.645 500.808H714.533C714.736 500.808 714.899 500.744 715.021 500.616C715.149 500.488 715.213 500.325 715.213 500.128V498.808H716.365V500.808H718.341L718.333 501.944H716.357L716.365 506.984C716.365 507.235 716.448 507.445 716.613 507.616C716.784 507.781 716.995 507.864 717.245 507.864H718.333V509H717.165ZM720.589 500.808H721.869V509H720.589V500.808ZM721.981 497.8V499.32H720.477V497.8H721.981ZM728.171 509.192C727.392 509.192 726.683 509.008 726.043 508.64C725.408 508.267 724.907 507.755 724.539 507.104C724.176 506.448 723.995 505.715 723.995 504.904C723.995 504.093 724.176 503.363 724.539 502.712C724.907 502.056 725.411 501.544 726.051 501.176C726.691 500.803 727.4 500.616 728.179 500.616C728.957 500.616 729.664 500.803 730.299 501.176C730.933 501.544 731.432 502.053 731.795 502.704C732.163 503.355 732.347 504.088 732.347 504.904C732.347 505.72 732.163 506.453 731.795 507.104C731.432 507.755 730.933 508.267 730.299 508.64C729.664 509.008 728.955 509.192 728.171 509.192ZM725.339 504.904C725.339 505.517 725.461 506.061 725.707 506.536C725.957 507.005 726.299 507.371 726.731 507.632C727.168 507.893 727.653 508.024 728.187 508.024C728.72 508.024 729.2 507.893 729.627 507.632C730.053 507.371 730.389 507.005 730.635 506.536C730.88 506.061 731.003 505.517 731.003 504.904C731.003 504.291 730.88 503.747 730.635 503.272C730.389 502.797 730.051 502.429 729.619 502.168C729.192 501.907 728.712 501.776 728.179 501.776C727.645 501.776 727.163 501.907 726.731 502.168C726.299 502.429 725.957 502.797 725.707 503.272C725.461 503.747 725.339 504.291 725.339 504.904ZM734.48 500.808H735.712V502.136C735.99 501.645 736.358 501.269 736.816 501.008C737.28 500.747 737.816 500.616 738.424 500.616C739.011 500.616 739.531 500.741 739.984 500.992C740.438 501.243 740.792 501.613 741.048 502.104C741.31 502.589 741.44 503.173 741.44 503.856V509H740.16V503.984C740.16 503.275 739.976 502.723 739.608 502.328C739.24 501.933 738.734 501.736 738.088 501.736C737.63 501.736 737.224 501.837 736.872 502.04C736.52 502.243 736.246 502.528 736.048 502.896C735.856 503.259 735.76 503.675 735.76 504.144V509H734.48V500.808Z" fill="black"/>
<path d="M727.267 297L707.267 285.453L707.267 308.547L727.267 297ZM682 229L682 289L686 289L686 229L682 229ZM692 299L709.267 299L709.267 295L692 295L692 299ZM682 289C682 294.523 686.477 299 692 299L692 295C688.686 295 686 292.314 686 289L682 289Z" fill="#08CA6D"/>
<rect x="730.5" y="266.5" width="63" height="63" rx="7.5" fill="white"/>
<rect x="730.5" y="266.5" width="63" height="63" rx="7.5" stroke="black"/>
<path d="M774 288H776V286V280H780V316H744V312H750H752V310V304H758H760V302V296H766H768V294V288H774Z" fill="black" stroke="black" stroke-width="4"/>
</svg>
