<svg width="270" height="112" viewBox="0 0 270 112" fill="none" xmlns="http://www.w3.org/2000/svg">
<path fill-rule="evenodd" clip-rule="evenodd" d="M63.4972 35.3588H62.6744C62.4001 35.3588 61.93 35.5938 61.7732 35.9463L49.7055 60.7001H49.588L37.5203 35.9463C37.3636 35.5938 36.8934 35.3588 36.6583 35.3588H35.8356C35.3654 35.3979 34.9736 35.7896 34.8952 36.2596L29.0181 74.7612C28.9005 75.5054 29.3707 76.0146 29.9976 76.0146H36.149C36.6583 76.0146 37.0893 75.5445 37.1285 75.0745L39.401 57.3709H39.5185L48.3342 75.9362C48.4909 76.2887 48.9219 76.5629 49.1962 76.5629H50.1366C50.4108 76.5629 50.881 76.2887 51.0377 75.9362L59.775 57.3709H59.8925L62.2434 75.0745C62.3217 75.5837 62.7527 75.9754 63.2229 76.0146H69.3743C70.0012 76.0146 70.4714 75.5054 70.3538 74.7612L64.4767 36.2596C64.3984 35.7896 64.0065 35.3979 63.4972 35.3588ZM86.0262 35.9463H79.7572C79.2479 35.9463 78.7777 36.4554 78.7777 37.0429V74.9962C78.7777 75.5837 79.2479 76.0929 79.7572 76.0929H86.0262C86.5355 76.0929 87.0057 75.5837 87.0057 74.9962V37.0429C87.0057 36.4554 86.5355 35.9463 86.0262 35.9463ZM125.638 48.3232C125.638 41.508 120.544 35.9463 114.276 35.9463H98.7207C98.133 35.9463 97.7412 36.4554 97.7412 37.0429V74.9962C97.7412 75.5837 98.1722 76.0929 98.7207 76.0929H104.911C105.421 76.0929 105.891 75.5837 105.891 74.9962V60.3867H109.495L116.43 75.5837C116.548 75.8187 116.861 76.0929 117.253 76.0929H124.188C125.089 76.0929 125.442 75.192 125.089 74.4479L117.959 59.8776C122.464 57.8409 125.638 53.5716 125.638 48.3232ZM113.609 53.0624H105.891V44.1322H113.609C115.725 44.1322 117.567 46.0906 117.567 48.4799C117.567 50.9082 115.725 53.0624 113.609 53.0624ZM157.022 35.9463H135.472C134.885 35.9463 134.493 36.4554 134.493 37.0429V74.9962C134.493 75.5837 134.924 76.0929 135.472 76.0929H157.022C157.57 76.0929 158.04 75.5837 158.001 74.9962V68.7686C158.001 68.1811 157.57 67.6719 157.022 67.6719H142.603V59.9559H154.475C154.984 59.9559 155.455 59.4859 155.455 58.8592V52.6316C155.455 52.0441 154.984 51.5349 154.475 51.5349H142.603V44.4456H157.022C157.609 44.4456 158.001 43.9364 158.001 43.3489V37.1213C158.04 36.4163 157.57 35.9463 157.022 35.9463ZM195.341 55.4125H184.879C184.292 55.4125 183.9 55.8825 183.9 56.5092V62.1885C183.9 62.776 184.331 63.2068 184.879 63.2068H188.171V66.536C186.603 67.2411 185.036 67.4761 183.547 67.4761C177.866 67.4761 173.243 62.3059 173.243 56.0783C173.243 49.7723 177.827 44.5239 183.508 44.5239C186.055 44.5239 188.366 45.2681 190.325 47.2656C190.756 47.6181 191.305 47.6181 191.736 47.2265L195.85 42.4089C196.242 42.0172 196.242 41.3514 195.85 40.9597C195.811 40.9205 195.772 40.8814 195.772 40.8814C192.245 37.513 187.465 35.4762 183.077 35.4762C172.733 35.4762 164.388 44.6415 164.388 56.1175C164.388 67.5936 172.733 76.6412 183.077 76.6412C190.639 76.6412 196.007 72.9203 196.007 72.9203C196.242 72.6853 196.398 72.3328 196.438 71.9803L196.398 56.5483C196.281 55.9217 195.85 55.4125 195.341 55.4125ZM221.788 35.3588C211.366 35.3588 203.098 44.6023 203.098 56.0392C203.098 67.5152 211.366 76.6021 221.788 76.6021C232.21 76.6021 240.516 67.476 240.516 56.0392C240.555 44.6023 232.21 35.3588 221.788 35.3588ZM221.788 67.4369C216.106 67.4369 211.444 62.2668 211.444 56.0392C211.444 49.7332 216.146 44.5239 221.788 44.5239C227.508 44.5239 232.21 49.7332 232.21 56.0392C232.21 62.3059 227.547 67.4369 221.788 67.4369Z" fill="white"/>
</svg>
