<svg width="270" height="112" viewBox="0 0 270 112" fill="none" xmlns="http://www.w3.org/2000/svg">
<path d="M4.11548 22.5133H69.7693V88.1448H4.11548V22.5133Z" fill="white"/>
<path d="M29.2307 48.5813H42.0769V62.0383H29.2307V48.5813Z" fill="url(#paint0_radial_1633_75578)"/>
<path d="M73.8462 18.3993H0V92.2203H73.8462V18.3993ZM56.1154 48.5813H49.4615V65.8447C49.4615 67.9209 47.8077 69.6126 45.7692 69.6895H25.5C23.4231 69.6126 21.8077 67.9209 21.8077 65.8447V44.698C21.8077 42.6218 23.4615 40.9301 25.5 40.8532H56.2308C58.3462 40.8532 60.0769 42.5834 60.0769 44.698C60.0769 46.8127 58.3462 48.5429 56.2308 48.5429L56.1154 48.5813Z" fill="url(#paint1_radial_1633_75578)"/>
<path d="M111.308 62.4228H105.346V42.2758H99.0769V68.2669H111.308V62.4228Z" fill="white"/>
<path d="M135.423 57.8858V42.2758H129.116V57.8858C129.116 60.8079 127.692 62.8841 124.731 62.8841C121.769 62.8841 120.346 60.8464 120.346 57.9243V42.2758H113.962V57.9243C113.962 64.4221 117.308 68.8052 124.654 68.8052C132 68.7667 135.423 64.1529 135.423 57.8858Z" fill="white"/>
<path d="M161.923 68.2669V42.2758H155.885V58.0012L146.116 42.2758H139.654V68.2669H145.731V52.8875L155.769 68.2669H161.923Z" fill="white"/>
<path d="M173.346 42.2758L164.23 68.2669H170.384L172.423 62.1151H180.615L182.807 68.2669H189.461L179.923 42.2758H173.346ZM174.346 56.8477L176.654 50.2731L178.961 56.8477H174.346Z" fill="white"/>
<path d="M188.577 48.1585H192.923V68.3055H199.231V48.1585H203.538V42.3143H188.577V48.1585Z" fill="white"/>
<path d="M219.501 48.1585V42.3143H207.193V68.3055H219.654V62.4613H213.501V58.0013H219.308V52.1956H213.462V48.197H219.501V48.1585Z" fill="white"/>
<path d="M236.808 47.6586C238.654 47.6586 240.423 48.3506 241.808 49.6194L245.539 44.8903C243.116 42.8141 239.962 41.6991 236.731 41.8144C229.462 41.5068 223.308 47.1203 223 54.387C223 54.6946 223 55.0407 223 55.3483C222.731 62.4997 228.27 68.5361 235.462 68.8437C235.923 68.8437 236.385 68.8437 236.847 68.8437C240.039 68.9206 243.116 67.6902 245.423 65.4602L241.731 61.0002C240.385 62.269 238.616 62.9995 236.77 63.038C232.808 63.0764 229.539 59.8852 229.5 55.925C229.5 55.7327 229.5 55.5789 229.5 55.3867C229.116 51.5034 231.962 48.0815 235.808 47.697C236.154 47.6586 236.462 47.6201 236.808 47.6586Z" fill="white"/>
<path d="M248.423 42.2758V68.2669H254.692V58.0012H263.73V68.2669H270V42.2758H263.73V52.0417H254.692V42.2758H248.423Z" fill="white"/>
<defs>
<radialGradient id="paint0_radial_1633_75578" cx="0" cy="0" r="1" gradientUnits="userSpaceOnUse" gradientTransform="translate(-0.384898 18.3531) scale(60.5529 60.5322)">
<stop stop-color="#EA212E"/>
<stop offset="0.5" stop-color="#AE151E"/>
<stop offset="1" stop-color="#9B0F17"/>
</radialGradient>
<radialGradient id="paint1_radial_1633_75578" cx="0" cy="0" r="1" gradientUnits="userSpaceOnUse" gradientTransform="translate(-0.384809 18.3531) scale(60.5528 60.5322)">
<stop stop-color="#EA212E"/>
<stop offset="0.5" stop-color="#AE151E"/>
<stop offset="1" stop-color="#9B0F17"/>
</radialGradient>
</defs>
</svg>
