<svg width="48" height="48" viewBox="0 0 48 48" fill="none" xmlns="http://www.w3.org/2000/svg">
<path fill-rule="evenodd" clip-rule="evenodd" d="M19.1691 13.2027H22.9691V9.4027C22.9862 8.89907 22.8996 8.3973 22.7147 7.92853C22.5298 7.45976 22.2505 7.034 21.8942 6.67768C21.5378 6.32135 21.1121 6.04206 20.6433 5.85714C20.1745 5.67222 19.6728 5.58561 19.1691 5.6027C18.1613 5.6027 17.1948 6.00306 16.4821 6.71569C15.7695 7.42833 15.3691 8.39488 15.3691 9.4027C15.3691 10.4105 15.7695 11.3771 16.4821 12.0897C17.1948 12.8023 18.1613 13.2027 19.1691 13.2027ZM22.9691 28.4027V37.8027C22.9862 38.3063 22.8996 38.8081 22.7147 39.2769C22.5297 39.7456 22.2505 40.1714 21.8941 40.5277C21.5378 40.884 21.1121 41.1633 20.6433 41.3482C20.1745 41.5332 19.6728 41.6198 19.1691 41.6027C18.67 41.603 18.1757 41.505 17.7145 41.3141C17.2534 41.1233 16.8343 40.8434 16.4814 40.4905C16.1285 40.1375 15.8486 39.7185 15.6577 39.2573C15.4669 38.7961 15.3688 38.3018 15.3691 37.8027V28.4027C15.3688 27.9036 15.4668 27.4093 15.6577 26.9481C15.8485 26.4869 16.1284 26.0678 16.4813 25.7149C16.8343 25.362 17.2533 25.0821 17.7145 24.8912C18.1757 24.7004 18.67 24.6023 19.1691 24.6027C19.6728 24.5856 20.1745 24.6722 20.6433 24.8571C21.1121 25.0421 21.5378 25.3214 21.8942 25.6777C22.2505 26.034 22.5298 26.4598 22.7147 26.9285C22.8996 27.3973 22.9862 27.8991 22.9691 28.4027ZM11.2429 31.9481C10.7741 32.133 10.2724 32.2196 9.76875 32.2025C8.76093 32.2025 7.79438 31.8022 7.08174 31.0895C6.36911 30.3769 5.96875 29.4104 5.96875 28.4025C5.96875 27.3947 6.36911 26.4282 7.08174 25.7155C7.79438 25.0029 8.76093 24.6025 9.76875 24.6025H13.5687V28.4025C13.5858 28.9062 13.4992 29.4079 13.3143 29.8767C13.1294 30.3455 12.8501 30.7712 12.4938 31.1275C12.1374 31.4839 11.7117 31.7632 11.2429 31.9481ZM19.1687 22.6023H9.76875C8.76093 22.6023 7.79438 22.2018 7.08174 21.4891C6.36911 20.7765 5.96875 19.8099 5.96875 18.8021C5.96875 17.7943 6.36911 16.8277 7.08174 16.1151C7.79438 15.4025 8.76093 15.0021 9.76875 15.0021H19.1687C19.6724 14.985 20.1742 15.0716 20.6429 15.2566C21.1117 15.4415 21.5374 15.7208 21.8938 16.0771C22.2501 16.4334 22.5294 16.8592 22.7143 17.3279C22.8992 17.7967 22.9858 18.2985 22.9688 18.8021C22.9691 19.3012 22.8711 19.7956 22.6802 20.2568C22.4894 20.718 22.2095 21.137 21.8566 21.49C21.5036 21.8429 21.0846 22.1228 20.6234 22.3137C20.1622 22.5046 19.6679 22.6026 19.1687 22.6023ZM41.9691 18.8029C41.9358 17.8057 41.5247 16.8585 40.8191 16.1529C40.1136 15.4474 39.1664 15.0363 38.1691 15.0029C37.67 15.0026 37.1757 15.1006 36.7145 15.2915C36.2533 15.4823 35.8343 15.7622 35.4814 16.1152C35.1284 16.4681 34.8486 16.8871 34.6577 17.3483C34.4669 17.8095 34.3688 18.3038 34.3691 18.8029V22.6031H38.1691C38.6683 22.6034 39.1626 22.5054 39.6238 22.3145C40.085 22.1236 40.504 21.8437 40.8569 21.4908C41.2099 21.1378 41.4897 20.7188 41.6806 20.2576C41.8714 19.7964 41.9695 19.3021 41.9691 18.8029ZM30.2431 22.3482C29.7743 22.5332 29.2725 22.6198 28.7689 22.6027C28.2698 22.603 27.7755 22.505 27.3143 22.3141C26.8531 22.1233 26.4341 21.8434 26.0812 21.4905C25.7282 21.1375 25.4483 20.7185 25.2575 20.2573C25.0666 19.7961 24.9686 19.3018 24.9689 18.8027V9.4027C24.9518 8.89907 25.0384 8.3973 25.2234 7.92853C25.4083 7.45976 25.6876 7.034 26.0439 6.67768C26.4002 6.32135 26.826 6.04206 27.2947 5.85714C27.7635 5.67222 28.2653 5.58561 28.7689 5.6027C29.268 5.60235 29.7623 5.7004 30.2235 5.89124C30.6847 6.08208 31.1038 6.36198 31.4567 6.71491C31.8096 7.06784 32.0895 7.48689 32.2804 7.94809C32.4712 8.40928 32.5693 8.90358 32.5689 9.4027V18.8027C32.586 19.3063 32.4994 19.8081 32.3144 20.2769C32.1295 20.7456 31.8502 21.1714 31.4939 21.5277C31.1376 21.884 30.7118 22.1633 30.2431 22.3482ZM28.7687 41.6029C29.2724 41.62 29.7741 41.5334 30.2429 41.3485C30.7117 41.1635 31.1374 40.8842 31.4937 40.5279C31.8501 40.1716 32.1294 39.7458 32.3143 39.2771C32.4992 38.8083 32.5858 38.3066 32.5687 37.8029C32.5691 37.3038 32.471 36.8095 32.2802 36.3483C32.0893 35.8871 31.8094 35.4681 31.4565 35.1152C31.1036 34.7622 30.6845 34.4823 30.2233 34.2915C29.7622 34.1007 29.2679 34.0026 28.7687 34.0029H24.9688V37.8029C24.9684 38.302 25.0665 38.7963 25.2573 39.2575C25.4482 39.7187 25.7281 40.1378 26.081 40.4907C26.4339 40.8436 26.853 41.1235 27.3142 41.3144C27.7753 41.5052 28.2696 41.6033 28.7687 41.6029ZM38.1688 32.2027H28.7687C27.7609 32.2027 26.7944 31.8023 26.0817 31.0897C25.3691 30.3771 24.9688 29.4105 24.9688 28.4027C24.9688 27.3949 25.3691 26.4283 26.0817 25.7157C26.7944 25.0031 27.7609 24.6027 28.7687 24.6027H38.1688C38.6724 24.5856 39.1742 24.6722 39.6429 24.8571C40.1117 25.0421 40.5374 25.3214 40.8938 25.6777C41.2501 26.034 41.5294 26.4598 41.7143 26.9285C41.8992 27.3973 41.9858 27.8991 41.9688 28.4027C41.9691 28.9018 41.871 29.3961 41.6802 29.8573C41.4894 30.3185 41.2095 30.7375 40.8565 31.0905C40.5036 31.4434 40.0845 31.7233 39.6234 31.9142C39.1622 32.105 38.6679 32.203 38.1688 32.2027Z" fill="#8C8C8E"/>
</svg>
