<svg width="375" height="812" viewBox="0 0 375 812" fill="none" xmlns="http://www.w3.org/2000/svg">
<g clip-path="url(#clip0_2224_91952)">
<rect width="375" height="812" fill="white"/>
<path d="M351.293 -48.1976L-529 398.959L-455.737 543.188L424.556 96.0315L351.293 -48.1976Z" fill="#7F52FF"/>
<path d="M-1.64263 276.717C-9.83499 280.952 -17.5414 281.924 -24.7617 279.702C-31.9127 277.481 -37.7445 271.996 -42.1879 263.317L-61.6968 225.202C-66.1401 216.524 -67.1815 208.609 -64.7516 201.528C-62.3911 194.377 -57.0452 188.753 -48.8528 184.518C-40.6605 180.283 -32.9541 179.311 -25.7337 181.533C-18.5133 183.754 -12.7509 189.17 -8.37702 197.779L11.2013 236.033C15.6446 244.711 16.686 252.626 14.2561 259.707C11.8956 266.858 6.61916 272.482 -1.64263 276.717ZM-6.71077 266.719C-1.78147 264.22 1.34273 260.888 2.59241 256.791C3.84209 252.695 3.14783 248.113 0.579041 243.045L-20.1796 202.5C-22.7484 197.431 -26.0808 194.168 -30.177 192.78C-34.2038 191.391 -38.7165 191.947 -43.6458 194.516C-48.5057 197.015 -51.5605 200.278 -52.8796 204.444C-54.1293 208.54 -53.5044 213.191 -50.8662 218.259L-30.1076 258.805C-27.5388 263.873 -24.1369 267.136 -20.0407 268.455C-16.0834 269.774 -11.5706 269.219 -6.71077 266.719Z" fill="white"/>
<path d="M63.8927 241.587L23.1392 161.954L-1.99328 174.798L-7.13086 164.731L54.5201 133.211L59.6577 143.278L34.5252 156.192L75.2787 235.824L63.8927 241.587Z" fill="white"/>
<path d="M120.064 212.913L74.1035 123.145L85.4201 117.382L126.174 197.015L167.691 175.77L172.828 185.837L120.064 212.913Z" fill="white"/>
<path d="M187.334 178.478L182.197 168.411L200.942 158.83L165.326 89.2643L146.581 98.8453L141.443 88.7784L190.528 63.6459L195.666 73.7128L176.92 83.2936L212.536 152.859L231.282 143.278L236.419 153.345L187.334 178.478Z" fill="white"/>
<path d="M257.311 142.654L211.42 52.9544L226.486 45.248L293.83 107.732C292.58 105.788 291.122 103.358 289.386 100.442C287.651 97.5264 285.845 94.4716 284.04 91.2085C282.235 87.9455 280.569 84.8212 279.042 81.9053L253.284 31.5015L264.254 25.8779L310.145 115.647L295.079 123.353L227.874 60.7996C229.054 62.6741 230.512 65.1041 232.179 67.9506C233.845 70.8665 235.65 73.9213 237.455 77.1843C239.26 80.4474 240.996 83.5716 242.523 86.6264L268.28 137.03L257.311 142.654Z" fill="white"/>
<path d="M336.875 68.5752L302.995 6.02165L316.325 -0.782166L347.22 63.2987L336.875 68.5752ZM353.954 93.9854C351.802 95.0962 349.58 95.3045 347.498 94.6796C345.345 93.9854 343.749 92.5968 342.638 90.514C341.527 88.3618 341.388 86.279 342.082 84.1268C342.777 81.9745 344.235 80.3777 346.456 79.2669L350.205 77.323C352.635 76.0733 354.857 75.7956 356.87 76.4898C358.884 77.1841 360.411 78.5726 361.522 80.7249C362.633 82.8771 362.841 85.0293 362.147 87.1815C361.452 89.3338 359.994 91 357.842 92.1108L353.954 93.9854Z" fill="white"/>
<path d="M-66.6011 -64.2192L-202.176 24.0394L242.716 707.441L378.291 619.182L-66.6011 -64.2192Z" fill="black"/>
<path d="M348.056 599.967L264.953 657.035L257.732 646.552L293.209 622.183L274.464 594.898L238.987 619.267L231.767 608.784L314.87 551.715L322.091 562.198L283.837 588.442L302.582 615.726L340.836 589.483L348.056 599.967Z" fill="white"/>
<path d="M286.889 508.601C292.096 516.238 294.109 523.736 292.79 531.095C291.541 538.524 286.82 544.981 278.836 550.465L243.567 574.695C235.513 580.25 227.807 582.263 220.448 580.805C213.088 579.347 206.771 574.834 201.563 567.197C196.356 559.56 194.343 552.062 195.662 544.703C196.912 537.274 201.563 530.887 209.548 525.402L244.955 501.103C253.009 495.549 260.715 493.536 268.074 494.994C275.434 496.451 281.682 500.964 286.889 508.601ZM277.725 514.919C274.6 510.337 270.921 507.699 266.686 507.004C262.451 506.31 258.007 507.56 253.286 510.823L215.727 536.65C211.006 539.913 208.228 543.592 207.395 547.758C206.562 551.924 207.673 556.367 210.797 560.949C213.921 565.462 217.532 568.1 221.836 568.794C226.071 569.558 230.584 568.308 235.235 565.045L272.795 539.218C277.516 535.955 280.293 532.276 281.127 528.041C281.89 523.806 280.779 519.432 277.725 514.919Z" fill="white"/>
<path d="M255.723 465.556L246.419 471.943L234.478 454.587L170.05 498.812L181.991 516.168L172.688 522.556L141.516 477.15L150.819 470.763L162.76 488.12L227.188 443.895L215.247 426.538L224.55 420.151L255.723 465.556Z" fill="white"/>
<path d="M222.741 393.074L183.515 410.57L174.906 398.004L215.313 382.244L222.741 393.074Z" fill="white"/>
<path d="M147.268 307.749L137.964 314.137L126.023 296.78L61.595 341.074L73.5364 358.431L64.2332 364.818L33.0605 319.413L42.3637 313.026L54.3051 330.382L118.733 286.158L106.792 268.801L116.095 262.414L147.268 307.749Z" fill="white"/>
<path d="M89.5804 223.743L15.8492 274.424L31.8867 297.752L22.5835 304.139L-16.6426 247.07L-7.3394 240.683L8.69819 264.01L82.4294 213.259L89.5804 223.743Z" fill="white"/>
<path d="M10.2218 196.875L-29.0043 214.37L-37.6826 201.804L2.72376 186.044L10.2218 196.875Z" fill="white"/>
<path d="M18.0015 117.103C21.7505 122.519 24.0416 127.934 24.9442 133.349C25.8467 138.695 25.2913 143.763 23.2085 148.484C21.1257 153.205 17.5849 157.232 12.6556 160.564L5.43523 150.081C10.0868 146.887 12.6556 142.93 13.211 138.07C13.7664 133.21 12.3085 128.35 8.90656 123.352C5.57408 118.561 1.61675 115.645 -3.10427 114.604C-7.82529 113.632 -12.338 114.604 -16.7813 117.659C-20.1138 119.95 -22.4049 122.866 -23.5852 126.406C-24.7654 129.947 -24.696 133.696 -23.238 137.723L-17.8922 153.066C-15.7399 159.454 -15.5317 165.563 -17.3368 171.326C-19.1418 177.088 -22.6826 181.809 -28.0285 185.419C-32.4024 188.474 -36.9845 190.071 -41.7056 190.349C-46.4266 190.626 -51.0087 189.585 -55.3132 187.224C-59.6871 184.864 -63.5056 181.323 -66.7686 176.533C-70.1011 171.742 -72.045 166.813 -72.7393 161.884C-73.4336 156.885 -72.8087 152.233 -70.9342 147.859C-69.0597 143.485 -66.0049 139.806 -61.631 136.89L-54.4107 147.373C-58.2291 150.012 -60.3814 153.413 -60.9368 157.718C-61.4922 162.022 -60.3814 166.188 -57.5349 170.284C-54.6884 174.38 -51.217 176.949 -47.0514 177.852C-42.8858 178.754 -38.9285 177.921 -35.11 175.352C-32.0552 173.27 -30.0419 170.631 -29.0005 167.507C-27.9591 164.383 -28.0979 160.981 -29.3476 157.371L-34.8323 141.611C-37.1928 134.877 -37.4011 128.559 -35.3183 122.519C-33.2355 116.478 -29.3476 111.48 -23.5852 107.522C-18.7253 104.19 -13.796 102.385 -8.72784 102.038C-3.65968 101.691 1.13076 102.871 5.85178 105.44C10.2257 107.87 14.3913 111.827 18.0015 117.103Z" fill="white"/>
<path d="M591.512 264.937L-10.5918 889.865L105.895 1002.1L707.998 377.169L591.512 264.937Z" fill="#7F52FF"/>
<path d="M163.803 900.376L155.681 892.461L170.399 877.396L114.441 822.826L99.7225 837.892L91.5996 829.977L130.062 790.543L138.185 798.458L123.466 813.523L179.424 868.093L194.143 853.027L202.266 860.942L163.803 900.376Z" fill="white"/>
<path d="M297.448 763.328L289.325 755.413L304.044 740.347L248.086 685.778L233.367 700.844L225.244 692.929L263.707 653.495L271.829 661.409L257.111 676.475L313.069 731.044L327.787 715.979L335.91 723.893L297.448 763.328Z" fill="white"/>
<path d="M368.541 690.36L304.46 627.876L284.743 648.149L276.62 640.234L324.941 590.663L333.064 598.578L313.347 618.851L377.428 681.335L368.541 690.36Z" fill="white"/>
<path d="M379.514 607.257L354.659 572.196L365.282 561.296L388.609 597.884L379.514 607.257Z" fill="white"/>
<path d="M459.215 599.342C454.633 604.063 449.773 607.395 444.635 609.339C439.567 611.283 434.499 611.7 429.5 610.52C424.501 609.409 419.85 606.771 415.545 602.536L424.432 593.441C428.459 597.329 432.902 599.134 437.692 598.717C442.552 598.3 447.065 595.94 451.231 591.636C455.327 587.47 457.41 582.957 457.41 578.167C457.479 573.376 455.605 569.072 451.786 565.392C448.87 562.546 445.607 560.879 441.927 560.394C438.248 559.908 434.568 560.741 430.889 562.962L416.864 571.224C411.033 574.626 405.062 575.945 399.091 575.32C393.12 574.695 387.775 572.127 383.192 567.614C379.374 563.865 376.875 559.769 375.694 555.187C374.514 550.604 374.653 545.953 376.111 541.232C377.569 536.511 380.346 532.067 384.373 527.971C388.469 523.806 392.843 520.89 397.564 519.223C402.285 517.627 407.006 517.279 411.657 518.251C416.309 519.223 420.475 521.515 424.224 525.194L415.337 534.289C412.074 531.095 408.255 529.637 403.951 529.846C399.647 530.123 395.759 532.067 392.287 535.608C388.816 539.218 387.011 543.106 386.941 547.341C386.872 551.576 388.469 555.325 391.732 558.519C394.37 561.088 397.355 562.546 400.619 562.962C403.882 563.309 407.214 562.546 410.477 560.671L424.918 552.201C431.027 548.591 437.276 547.133 443.594 547.966C449.912 548.799 455.605 551.646 460.603 556.575C464.838 560.671 467.546 565.184 468.865 570.044C470.184 574.904 469.976 579.902 468.379 584.971C466.782 589.9 463.728 594.76 459.215 599.342Z" fill="white"/>
<path d="M258.012 -71.8712L-53.0068 798.168L99.3105 852.618L410.329 -17.4213L258.012 -71.8712Z" fill="#FF6500"/>
<path d="M74.363 808.871L63.7407 804.914L71.0305 785.127L-2.28418 758.051L-9.57399 777.838L-20.1963 773.88L-1.10393 722.157L9.51837 726.115L2.22856 745.901L75.5432 772.978L82.833 753.191L93.4553 757.149L74.363 808.871Z" fill="white"/>
<path d="M109.701 713.34L25.764 682.306L15.9748 708.828L5.35254 704.87L29.3742 639.887L39.9965 643.844L30.2073 670.365L114.144 701.399L109.701 713.34Z" fill="white"/>
<path d="M85.8901 632.944L48.9551 611.005L54.2315 596.703L90.4029 620.656L85.8901 632.944Z" fill="white"/>
<path d="M155.525 593.301C153.234 599.48 150.18 604.479 146.292 608.367C142.404 612.185 137.961 614.615 132.962 615.657C127.963 616.629 122.617 616.143 116.994 614.06L121.437 602.119C126.713 604.062 131.434 603.854 135.739 601.494C140.043 599.133 143.168 595.176 145.25 589.483C147.264 583.998 147.333 579.069 145.459 574.626C143.584 570.182 140.113 567.058 135.114 565.253C131.296 563.864 127.616 563.656 124.075 564.697C120.534 565.739 117.48 568.03 114.98 571.501L105.538 584.762C101.581 590.247 96.721 593.857 90.9586 595.731C85.1962 597.606 79.3643 597.398 73.2548 595.176C68.256 593.301 64.2987 590.524 61.3134 586.845C58.3974 583.165 56.5923 578.861 56.0369 573.862C55.4815 568.933 56.1758 563.795 58.1892 558.38C60.2025 552.895 63.049 548.452 66.7286 545.05C70.4083 541.648 74.5739 539.426 79.156 538.454C83.8076 537.482 88.5981 537.899 93.5274 539.704L89.0841 551.645C84.7796 550.048 80.6834 550.257 76.865 552.27C73.0465 554.284 70.2694 557.616 68.5337 562.268C66.7981 566.919 66.7286 571.224 68.3949 575.181C70.0611 579.069 73.0465 581.846 77.3509 583.443C80.8223 584.692 84.0853 584.831 87.279 583.859C90.4726 582.887 93.1108 580.805 95.3325 577.75L105.052 564.142C109.148 558.31 114.286 554.492 120.396 552.687C126.505 550.882 132.823 551.159 139.418 553.589C144.973 555.603 149.277 558.588 152.471 562.545C155.664 566.503 157.539 571.085 158.094 576.361C158.58 581.638 157.747 587.261 155.525 593.301Z" fill="white"/>
<path d="M192.591 488.953L98.0312 454.031L102.475 442.09L143.159 457.086L148.435 442.784L115.735 406.266L120.526 393.283L157.252 434.106L215.571 426.886L210.503 440.563L158.502 446.95L153.364 460.835L197.034 476.942L192.591 488.953Z" fill="white"/>
<path d="M232.104 386.132C228.91 394.81 223.912 400.712 217.108 403.975C210.304 407.168 202.389 407.099 193.225 403.697L153.027 388.909C143.863 385.507 137.753 380.439 134.698 373.566C131.643 366.693 131.713 358.986 134.906 350.308C138.1 341.629 143.099 335.728 149.903 332.465C156.706 329.271 164.621 329.341 173.647 332.673L213.914 347.531C223.078 350.933 229.188 356.001 232.243 362.874C235.367 369.747 235.298 377.523 232.104 386.132ZM221.62 382.314C223.564 377.107 223.564 372.594 221.69 368.706C219.815 364.887 216.205 361.971 210.859 359.958L168.092 344.129C162.747 342.185 158.095 342.046 154.207 343.712C150.319 345.448 147.334 348.919 145.459 354.126C143.585 359.264 143.515 363.777 145.39 367.664C147.264 371.552 150.805 374.468 156.22 376.482L198.987 392.311C204.333 394.324 208.985 394.394 212.942 392.658C216.761 390.853 219.677 387.382 221.62 382.314Z" fill="white"/>
<path d="M256.533 315.942L172.665 284.908L162.876 311.429L152.254 307.472L176.276 242.488L186.898 246.445L177.109 272.966L261.046 304L256.533 315.942Z" fill="white"/>
<path d="M278.403 256.859L183.844 221.938L188.287 209.996L272.224 241.03L288.4 197.291L299.023 201.248L278.403 256.859Z" fill="white"/>
<path d="M304.658 185.905L294.036 181.948L301.325 162.161L228.011 135.085L220.721 154.872L210.099 150.914L229.191 99.1913L239.813 103.149L232.523 122.935L305.838 150.012L313.128 130.225L323.75 134.182L304.658 185.905Z" fill="white"/>
<path d="M331.869 112.174L237.31 77.2525L243.211 61.3538L335.062 61.701C332.841 61.0761 330.133 60.3124 326.87 59.3404C323.607 58.3685 320.275 57.327 316.734 56.2162C313.193 55.036 309.861 53.9251 306.736 52.7449L253.625 33.0971L257.86 21.5723L352.419 56.4939L346.518 72.3927L254.736 71.9067C256.888 72.4621 259.526 73.2952 262.789 74.2672C265.983 75.2392 269.385 76.35 272.926 77.4608C276.466 78.6411 279.868 79.8213 283.062 81.0016L336.173 100.649L331.869 112.174Z" fill="white"/>
<path d="M340.264 3.79881L272.989 -19.2509L278.196 -33.2751L344.291 -7.03176L340.264 3.79881ZM370.048 10.8803C369.215 13.1714 367.757 14.8377 365.743 15.7402C363.73 16.7122 361.578 16.7816 359.356 15.9485C357.135 15.1154 355.538 13.6574 354.635 11.644C353.733 9.63066 353.663 7.40902 354.566 5.11793L356.024 1.16059C356.996 -1.40819 358.384 -3.07443 360.328 -3.97698C362.272 -4.8101 364.355 -4.8101 366.577 -3.97698C368.798 -3.14386 370.395 -1.68591 371.367 0.327465C372.339 2.41027 372.408 4.56252 371.506 6.8536L370.048 10.8803Z" fill="white"/>
</g>
<defs>
<clipPath id="clip0_2224_91952">
<rect width="375" height="812" fill="white"/>
</clipPath>
</defs>
</svg>
