<svg width="135" height="56" viewBox="0 0 135 56" fill="none" xmlns="http://www.w3.org/2000/svg">
<path d="M5.20401 33.7011H11.9398L13.665 36.7397H13.6164H0L4.79812 28.4202L6.80887 24.9365L8.5352 27.9296L5.20401 33.7011ZM7.71612 23.361L9.37365 20.4872L18.7544 36.7397H15.4322L7.71612 23.361ZM10.2962 18.8884H13.6139L23.9139 36.7397H20.5921L10.2962 18.8884Z" fill="#8C8C8E"/>
<path d="M39.6469 34.5082L38.2545 30.7952H32.542L31.1496 34.5082H30.1143L34.8627 22.1373H35.9873L40.7358 34.5082H39.6469ZM32.8812 29.9205H37.9332L35.3982 23.2441L32.8812 29.9205ZM50.5045 34.5082L47.7912 23.9225L45.0956 34.5082H43.846L40.0973 22.1373H41.2397L44.4887 33.3122L47.1842 22.5479H48.4695L51.1472 33.3479L54.4675 22.1373H55.5743L51.7541 34.5082H50.5045ZM59.345 28.2603C58.4286 27.9033 57.7562 27.4808 57.3278 26.9929C56.8994 26.493 56.6852 25.8801 56.6852 25.1542C56.6852 24.1664 57.0362 23.3691 57.7384 22.7621C58.4524 22.1433 59.3866 21.8339 60.541 21.8339C61.0647 21.8339 61.6121 21.8993 62.1833 22.0302C62.7665 22.1492 63.3139 22.3218 63.8256 22.5479V23.4583C62.6118 23.0299 61.5347 22.8157 60.5946 22.8157C59.6782 22.8157 58.9761 23.018 58.4881 23.4226C58.0002 23.8153 57.7562 24.3806 57.7562 25.1185C57.7562 25.535 57.8276 25.8742 57.9704 26.136C58.1252 26.3859 58.3691 26.618 58.7023 26.8322C59.0475 27.0345 59.5354 27.2547 60.1661 27.4927L62.0762 28.2246C62.9331 28.5578 63.5579 28.9684 63.9506 29.4563C64.3433 29.9324 64.5397 30.5334 64.5397 31.2593C64.5397 32.3185 64.147 33.1753 63.3615 33.8299C62.588 34.4844 61.5645 34.8117 60.2911 34.8117C58.9701 34.8117 57.7919 34.5618 56.7566 34.062V33.1515C58.0061 33.6038 59.1546 33.8299 60.2019 33.8299C61.1896 33.8299 61.9751 33.5978 62.5582 33.1337C63.1533 32.6696 63.4508 32.0388 63.4508 31.2415C63.4508 30.7535 63.2901 30.337 62.9688 29.9919C62.6475 29.6468 62.1298 29.3373 61.4157 29.0636L59.345 28.2603Z" fill="#8C8C8E"/>
<path d="M78.1402 34.5082L77.2655 31.6877H73.0347L72.1957 34.5082H69.3931L73.7488 22.1373H76.6942L81.0499 34.5082H78.1402ZM73.606 29.7598H76.7121L75.1412 24.5829L73.606 29.7598ZM93.3502 34.5082V28.3317C93.3502 27.5225 92.9872 27.1178 92.2612 27.1178C91.6186 27.1178 90.97 27.2725 90.3155 27.582V27.7605V34.5082H87.7092V28.3317C87.7092 27.5225 87.3462 27.1178 86.6203 27.1178C85.9538 27.1178 85.2993 27.2785 84.6566 27.5998V34.5082H82.0503V25.3863H84.1925L84.4246 26.261C85.0553 25.8444 85.6206 25.5529 86.1204 25.3863C86.6322 25.2077 87.1558 25.1185 87.6913 25.1185C88.7624 25.1185 89.5181 25.4993 89.9584 26.261C90.5654 25.8563 91.1366 25.5648 91.6722 25.3863C92.2077 25.2077 92.7611 25.1185 93.3323 25.1185C94.1654 25.1185 94.808 25.3506 95.2603 25.8147C95.7244 26.2788 95.9565 26.9274 95.9565 27.7605V34.5082H93.3502ZM98.0625 38.1856V25.3863H100.205L100.419 26.2431C100.776 25.898 101.204 25.6243 101.704 25.422C102.216 25.2196 102.734 25.1185 103.257 25.1185C104.412 25.1185 105.322 25.541 105.988 26.3859C106.667 27.2309 107.006 28.3734 107.006 29.8134C107.006 30.7535 106.851 31.5925 106.542 32.3304C106.232 33.0682 105.786 33.6514 105.203 34.0798C104.62 34.4963 103.947 34.7046 103.186 34.7046C102.698 34.7046 102.234 34.6272 101.793 34.4725C101.353 34.3178 100.978 34.1036 100.669 33.8299V38.1856H98.0625ZM102.418 27.0821C101.799 27.0821 101.216 27.2428 100.669 27.5641V32.259C101.192 32.5803 101.776 32.741 102.418 32.741C103.085 32.741 103.573 32.5148 103.882 32.0626C104.203 31.6104 104.364 30.8963 104.364 29.9205C104.364 28.9327 104.209 28.2127 103.9 27.7605C103.59 27.3082 103.097 27.0821 102.418 27.0821ZM112.705 34.3297C112.205 34.532 111.67 34.6332 111.098 34.6332C109.492 34.6332 108.688 33.7347 108.688 31.9377V21.2983H111.295V31.7234C111.295 32.0567 111.348 32.2947 111.455 32.4375C111.574 32.5684 111.765 32.6339 112.027 32.6339C112.193 32.6339 112.419 32.616 112.705 32.5803V34.3297ZM114.208 34.5082V25.3863H116.814V34.5082H114.208ZM115.511 23.976C115.059 23.976 114.696 23.851 114.422 23.6011C114.148 23.3512 114.011 23.012 114.011 22.5836C114.011 22.1552 114.148 21.816 114.422 21.5661C114.696 21.3162 115.059 21.1912 115.511 21.1912C115.963 21.1912 116.326 21.3162 116.6 21.5661C116.874 21.816 117.011 22.1552 117.011 22.5836C117.011 23.012 116.874 23.3512 116.6 23.6011C116.326 23.851 115.963 23.976 115.511 23.976ZM119.473 34.5082V27.3142H118.027V25.7076L119.473 25.4398V24.6186C119.473 23.4167 119.747 22.5241 120.294 21.941C120.853 21.3459 121.698 21.0484 122.829 21.0484C123.15 21.0484 123.483 21.0841 123.829 21.1555C124.174 21.215 124.477 21.2983 124.739 21.4054V23.1727C124.263 23.1013 123.858 23.0656 123.525 23.0656C122.978 23.0656 122.597 23.1548 122.383 23.3334C122.18 23.5119 122.079 23.8272 122.079 24.2795V25.3863H124.632V27.3142H122.079V34.5082H119.473ZM128.733 34.651L125.127 25.3863H127.894L129.929 32.2054L131.857 25.3863H134.553L130.697 35.74C130.352 36.6801 129.929 37.3585 129.429 37.775C128.93 38.1915 128.299 38.3998 127.537 38.3998C126.942 38.3998 126.365 38.3046 125.806 38.1142V36.3469C126.186 36.3826 126.526 36.4005 126.823 36.4005C127.323 36.4005 127.71 36.2815 127.983 36.0434C128.257 35.8173 128.489 35.4186 128.68 34.8474L128.733 34.651Z" fill="#8C8C8E"/>
</svg>
