<svg width="128" height="119" viewBox="0 0 128 119" fill="none" xmlns="http://www.w3.org/2000/svg">
<path d="M86.2676 76.2681C76.7317 85.804 61.2675 85.8065 51.7291 76.2681C42.1932 66.7322 42.1906 51.268 51.729 41.7295L86.3444 7.11932C95.8802 -2.41657 111.274 -2.35135 120.813 7.1871C130.348 16.723 130.421 32.1195 120.883 41.6579L86.2676 76.2681Z" fill="#C202D7"/>
<path d="M51.7083 76.3851C42.1724 66.8492 42.1699 51.3849 51.7083 41.8465C61.2442 32.3106 76.7084 32.308 86.2469 41.8465L120.857 76.4618C130.393 85.9977 130.328 101.392 120.789 110.93C111.253 120.466 95.8569 120.539 86.3185 111L51.7083 76.3851Z" fill="#C202D7"/>
<path fill-rule="evenodd" clip-rule="evenodd" d="M51.9782 76.6645C61.5179 85.9047 76.7322 85.8058 86.151 76.3751L103.387 59.12L86.1117 41.8206C76.9996 32.6969 62.4683 32.3097 52.8956 40.6521L51.6844 41.8648C42.5163 51.0445 42.1811 65.7171 50.6718 75.299C50.9844 75.6501 51.3088 75.9942 51.6451 76.331L51.9782 76.6645Z" fill="#C202D7"/>
<path d="M-0.00143608 24.385C15.4553 9.14122 21.0876 0.0274359 34.4832 0.0274371C47.9345 0.0274382 58.8389 10.9626 58.8389 24.4517C58.8389 37.9409 47.9345 48.876 34.4832 48.876C21.0875 48.876 15.4553 39.6716 -0.00143608 24.385Z" fill="url(#paint0_linear_8138_14143)"/>
<path d="M23.6811 30.0063C27.5644 30.0063 30.7124 26.8583 30.7124 22.9751C30.7124 19.0918 27.5644 15.9438 23.6811 15.9438C19.7979 15.9438 16.6499 19.0918 16.6499 22.9751C16.6499 26.8583 19.7979 30.0063 23.6811 30.0063Z" fill="white"/>
<path d="M21.0919 27.4152C23.5445 27.4152 25.5327 25.427 25.5327 22.9745C25.5327 20.5219 23.5445 18.5337 21.0919 18.5337C18.6393 18.5337 16.6511 20.5219 16.6511 22.9745C16.6511 25.427 18.6393 27.4152 21.0919 27.4152Z" fill="black"/>
<defs>
<linearGradient id="paint0_linear_8138_14143" x1="29.5257" y1="23.992" x2="-0.0037409" y2="23.992" gradientUnits="userSpaceOnUse">
<stop stop-color="#C202D7"/>
<stop offset="1" stop-color="#E00189"/>
</linearGradient>
</defs>
</svg>
