<svg width="270" height="112" viewBox="0 0 270 112" fill="none" xmlns="http://www.w3.org/2000/svg">
<path d="M167.581 64.6901L147.646 38.8603H142.696V73.5551H147.826V47.0052L168.706 73.5551H173.116V38.8603H167.851V64.7351H167.581V64.6901ZM117.181 58.1652H135.181V53.6202H117.181V43.1353H137.476V38.6353H112.051V73.4201H137.611V68.8751H117.181V58.1652ZM96.1661 53.8452C89.1912 52.0902 87.2562 50.7852 87.2562 47.5902C87.2562 44.3953 89.9112 42.6403 93.6911 42.6403C97.1111 42.8203 100.396 43.9903 103.141 46.0602L105.796 42.2803C102.376 39.5353 98.0561 38.0503 93.6461 38.0953C87.9762 37.3303 82.8012 41.2903 82.0362 46.9602C82.0362 47.0502 81.9912 47.1402 81.9912 47.2302V47.9952C81.9912 53.7102 86.1312 56.3652 93.5561 58.2552C99.9911 59.7852 101.881 61.0902 101.881 64.3301C101.881 67.5701 99.2261 69.4601 95.0411 69.4601C90.9011 69.4601 86.8962 67.8851 83.8812 65.0501L80.8662 68.6501C84.7812 72.1151 89.8662 73.9151 95.0861 73.7801C102.466 73.7801 107.236 69.5951 107.236 63.5201C107.056 58.3902 103.816 55.5552 96.0311 53.8452H96.1661ZM264.42 38.8603L253.935 55.1952L243.45 38.8603H237.555L251.19 59.7402V73.4651H256.32V59.7402L270 38.8603H264.42ZM176.626 43.4053H188.011V73.4651H193.141V43.4053H204.615V38.6803H176.626V43.4053ZM228.6 59.9202C233.595 58.9752 237.15 54.5202 236.925 49.4352C236.925 42.8203 231.975 38.6353 224.19 38.6353H208.665V73.4651H213.795V60.8651H222.525L231.255 73.3751H237.33L227.835 60.1002L228.6 59.9202ZM213.885 56.5002V43.4053H223.56C228.69 43.4053 231.525 45.7002 231.525 49.8402C231.525 53.9802 228.51 56.5002 223.56 56.5002H213.885Z" fill="white"/>
<path d="M39.1514 29.3654C37.4415 26.3954 33.6615 25.3604 30.6915 27.0704L30.6465 27.1154C29.7015 27.7004 28.9365 28.4654 28.3515 29.4104L19.6216 44.5753L21.9166 45.9253C34.5615 53.1702 42.6164 66.3551 43.3364 80.89H37.0815C36.2265 68.6051 29.3415 57.5802 18.6766 51.4152L16.3816 50.0652L8.01165 64.0602L10.3066 65.4101C15.7966 68.6501 19.5316 74.2301 20.3416 80.5751H6.39166C5.85166 80.6201 5.35666 80.2151 5.26666 79.6751C5.22166 79.4501 5.31166 79.2701 5.44666 79.0901L9.40664 72.2501C8.05664 71.0801 6.52666 70.1801 4.86167 69.5951L0.856691 76.4351C-0.898298 79.4051 0.136696 83.23 3.10668 84.985H3.15168C4.09667 85.525 5.13166 85.795 6.21166 85.75H25.7415V83.095C25.6965 74.8601 21.7366 67.1201 15.1216 62.2152L18.1366 56.9502C26.7765 62.8902 31.9515 72.7001 31.9965 83.185V85.705H48.6914V83.05C48.6014 66.7151 40.3214 51.4602 26.6865 42.4603L32.9415 31.6604C33.3015 31.1654 33.9315 30.9854 34.4715 31.2554C34.6515 31.2554 34.6515 31.4354 34.8765 31.6604L62.1913 78.8651C62.4163 79.3601 62.2363 79.9001 61.7863 80.2151C61.6063 80.2151 61.3813 80.395 61.2463 80.395H54.5864V85.525H61.0213C64.4413 85.48 67.2313 82.69 67.2763 79.2701C67.3213 78.1901 67.0513 77.1551 66.5113 76.2551L39.1514 29.3654Z" fill="white"/>
</svg>
