<svg width="600" height="160" viewBox="0 0 600 160" fill="none" xmlns="http://www.w3.org/2000/svg">
<mask id="mask0_2061_90400" style="mask-type:alpha" maskUnits="userSpaceOnUse" x="0" y="3" width="600" height="154">
<rect y="3" width="600" height="154" fill="#D9D9D9"/>
</mask>
<g mask="url(#mask0_2061_90400)">
<rect width="946" height="20" transform="translate(-63.8906 37.4111) rotate(-1.15417)" fill="#FF5800"/>
<path d="M7.35685 51.9789L7.12158 40.3013L10.8808 40.2256C11.606 40.2109 12.2381 40.3422 12.7771 40.6194C13.316 40.886 13.7345 41.2723 14.0327 41.7784C14.3417 42.2843 14.5032 42.8891 14.5174 43.593C14.5314 44.2862 14.3943 44.8971 14.1062 45.4256C13.8286 45.9433 13.4261 46.3515 12.8986 46.6502C12.371 46.9382 11.7446 47.0896 11.0194 47.1042L8.69987 47.1509L8.79656 51.9499L7.35685 51.9789ZM8.67377 45.8552L10.9933 45.8084C11.6225 45.7957 12.1199 45.5937 12.4854 45.2022C12.8614 44.7999 13.0428 44.2735 13.0297 43.623C13.0164 42.9618 12.8139 42.4431 12.4222 42.0669C12.0412 41.6905 11.5361 41.5086 10.9069 41.5213L8.5874 41.568L8.67377 45.8552ZM16.3008 51.7987L19.1049 40.0599L21.0405 40.0209L24.2992 51.6376L22.8435 51.6669L22.0131 48.579L18.4778 48.6502L17.7725 51.7691L16.3008 51.7987ZM18.7413 47.4287L21.6847 47.3694L20.7163 43.7882C20.5319 43.1091 20.3871 42.5412 20.2819 42.0846C20.1767 41.6279 20.112 41.3305 20.0879 41.1923C20.0694 41.3314 20.0167 41.6312 19.93 42.0917C19.8433 42.5522 19.7213 43.1201 19.5642 43.7954L18.7413 47.4287ZM26.5884 51.5915L26.3532 39.9138L29.9684 39.841C30.6616 39.827 31.2724 39.9588 31.8008 40.2362C32.3289 40.5029 32.742 40.884 33.0401 41.3794C33.3381 41.8749 33.4939 42.4585 33.5074 43.1304C33.5233 43.9196 33.329 44.6009 32.9245 45.1745C32.5306 45.7479 31.9839 46.1484 31.2843 46.3758L33.835 51.4455L32.1393 51.4796L29.7999 46.5658L27.9282 46.6035L28.0282 51.5625L26.5884 51.5915ZM27.9021 45.3077L30.0777 45.2639C30.6749 45.2519 31.1511 45.0556 31.5061 44.675C31.861 44.2838 32.0322 43.7789 32.0197 43.1604C32.007 42.5312 31.8157 42.0336 31.4455 41.6676C31.0754 41.3017 30.5918 41.1247 29.9946 41.1367L27.819 41.1806L27.9021 45.3077ZM38.8117 51.3452L38.6029 40.9793L35.4035 41.0438L35.3771 39.732L43.2155 39.5741L43.2419 40.8859L40.0426 40.9503L40.2514 51.3162L38.8117 51.3452ZM48.4275 51.1515L48.3395 46.7844L44.673 39.5448L46.1607 39.5148L48.5769 44.2671C48.7102 44.5311 48.8162 44.7584 48.8947 44.9488C48.973 45.1286 49.0237 45.2609 49.0467 45.3458C49.0663 45.2601 49.1116 45.1258 49.1826 44.943C49.2641 44.7493 49.3661 44.5179 49.4887 44.2487L51.6635 39.4039L53.1512 39.3739L49.7792 46.7554L49.8672 51.1225L48.4275 51.1515Z" fill="white"/>
<path d="M76.3429 50.589L76.1077 38.9114L79.8669 38.8357C80.5921 38.8211 81.2242 38.9523 81.7632 39.2295C82.302 39.4961 82.7206 39.8824 83.0188 40.3885C83.3277 40.8944 83.4893 41.4992 83.5035 42.2031C83.5174 42.8963 83.3804 43.5072 83.0923 44.0358C82.8147 44.5534 82.4121 44.9616 81.8847 45.2603C81.3571 45.5483 80.7307 45.6997 80.0055 45.7143L77.686 45.761L77.7826 50.56L76.3429 50.589ZM77.6599 44.4653L79.9794 44.4185C80.6086 44.4059 81.106 44.2038 81.4715 43.8124C81.8474 43.41 82.0289 42.8836 82.0158 42.2331C82.0025 41.5719 81.8 41.0532 81.4083 40.677C81.0273 40.3006 80.5222 40.1187 79.893 40.1314L77.5735 40.1781L77.6599 44.4653ZM85.2869 50.4088L88.091 38.67L90.0266 38.631L93.2852 50.2477L91.8295 50.277L90.9992 47.1891L87.4639 47.2604L86.7586 50.3792L85.2869 50.4088ZM87.7273 46.0388L90.6707 45.9795L89.7024 42.3983C89.518 41.7192 89.3732 41.1513 89.268 40.6947C89.1628 40.238 89.0981 39.9406 89.074 39.8024C89.0555 39.9415 89.0028 40.2413 88.9161 40.7018C88.8293 41.1623 88.7074 41.7302 88.5503 42.4055L87.7273 46.0388ZM95.5745 50.2016L95.3393 38.5239L98.9545 38.4511C99.6477 38.4371 100.259 38.5689 100.787 38.8463C101.315 39.113 101.728 39.4941 102.026 39.9896C102.324 40.485 102.48 41.0686 102.494 41.7405C102.509 42.5297 102.315 43.2111 101.911 43.7847C101.517 44.358 100.97 44.7585 100.27 44.9859L102.821 50.0556L101.125 50.0897L98.786 45.1759L96.9143 45.2136L97.0142 50.1726L95.5745 50.2016ZM96.8882 43.9178L99.0638 43.874C99.661 43.862 100.137 43.6657 100.492 43.2851C100.847 42.8939 101.018 42.389 101.006 41.7705C100.993 41.1413 100.802 40.6437 100.432 40.2777C100.062 39.9118 99.5778 39.7348 98.9806 39.7468L96.8051 39.7907L96.8882 43.9178ZM107.798 49.9553L107.589 39.5894L104.39 39.6539L104.363 38.3421L112.202 38.1842L112.228 39.496L109.029 39.5604L109.238 49.9263L107.798 49.9553ZM117.414 49.7616L117.326 45.3945L113.659 38.1549L115.147 38.1249L117.563 42.8772C117.696 43.1412 117.802 43.3685 117.881 43.5589C117.959 43.7387 118.01 43.8711 118.033 43.9559C118.052 43.8702 118.098 43.7359 118.169 43.5531C118.25 43.3594 118.352 43.128 118.475 42.8588L120.65 38.014L122.137 37.9841L118.765 45.3655L118.853 49.7326L117.414 49.7616Z" fill="white"/>
<path d="M145.329 49.1994L145.094 37.5218L148.853 37.446C149.578 37.4314 150.21 37.5627 150.749 37.8399C151.288 38.1064 151.707 38.4927 152.005 38.9988C152.314 39.5047 152.475 40.1096 152.489 40.8134C152.503 41.5066 152.366 42.1175 152.078 42.6461C151.801 43.1638 151.398 43.572 150.871 43.8707C150.343 44.1587 149.717 44.31 148.991 44.3246L146.672 44.3714L146.769 49.1704L145.329 49.1994ZM146.646 43.0756L148.965 43.0289C149.595 43.0162 150.092 42.8141 150.457 42.4227C150.833 42.0204 151.015 41.494 151.002 40.8434C150.988 40.1822 150.786 39.6635 150.394 39.2873C150.013 38.9109 149.508 38.7291 148.879 38.7418L146.559 38.7885L146.646 43.0756ZM154.273 49.0192L157.077 37.2803L159.013 37.2413L162.271 48.8581L160.816 48.8874L159.985 45.7995L156.45 45.8707L155.745 48.9895L154.273 49.0192ZM156.713 44.6491L159.657 44.5898L158.688 41.0086C158.504 40.3295 158.359 39.7617 158.254 39.305C158.149 38.8484 158.084 38.551 158.06 38.4128C158.041 38.5518 157.989 38.8516 157.902 39.3121C157.815 39.7726 157.693 40.3405 157.536 41.0158L156.713 44.6491ZM164.56 48.8119L164.325 37.1343L167.94 37.0615C168.634 37.0475 169.244 37.1792 169.773 37.4566C170.301 37.7234 170.714 38.1045 171.012 38.5999C171.31 39.0953 171.466 39.679 171.479 40.3508C171.495 41.14 171.301 41.8214 170.897 42.395C170.503 42.9684 169.956 43.3688 169.256 43.5963L171.807 48.6659L170.111 48.7001L167.772 43.7862L165.9 43.8239L166 48.7829L164.56 48.8119ZM165.874 42.5282L168.05 42.4844C168.647 42.4723 169.123 42.276 169.478 41.8955C169.833 41.5042 170.004 40.9994 169.992 40.3808C169.979 39.7516 169.788 39.254 169.418 38.8881C169.047 38.5221 168.564 38.3452 167.967 38.3572L165.791 38.401L165.874 42.5282ZM176.784 48.5657L176.575 38.1998L173.376 38.2642L173.349 36.9525L181.188 36.7946L181.214 38.1063L178.015 38.1708L178.223 48.5367L176.784 48.5657ZM186.4 48.3719L186.312 44.0048L182.645 36.7652L184.133 36.7352L186.549 41.4875C186.682 41.7516 186.788 41.9788 186.867 42.1693C186.945 42.3491 186.996 42.4814 187.019 42.5663C187.038 42.4805 187.084 42.3463 187.155 42.1635C187.236 41.9698 187.338 41.7384 187.461 41.4692L189.636 36.6244L191.123 36.5944L187.751 43.9758L187.839 48.3429L186.4 48.3719Z" fill="white"/>
<path d="M214.315 47.8095L214.08 36.1319L217.839 36.0561C218.564 36.0415 219.196 36.1728 219.735 36.45C220.274 36.7165 220.693 37.1029 220.991 37.609C221.3 38.1148 221.461 38.7197 221.475 39.4236C221.489 40.1167 221.352 40.7276 221.064 41.2562C220.787 41.7739 220.384 42.1821 219.857 42.4808C219.329 42.7688 218.703 42.9201 217.977 42.9347L215.658 42.9815L215.755 47.7805L214.315 47.8095ZM215.632 41.6857L217.951 41.639C218.581 41.6263 219.078 41.4243 219.443 41.0328C219.819 40.6305 220.001 40.1041 219.988 39.4535C219.974 38.7923 219.772 38.2736 219.38 37.8974C218.999 37.521 218.494 37.3392 217.865 37.3519L215.545 37.3986L215.632 41.6857ZM223.259 47.6293L226.063 35.8904L227.999 35.8514L231.257 47.4682L229.802 47.4975L228.971 44.4096L225.436 44.4808L224.731 47.5996L223.259 47.6293ZM225.699 43.2593L228.643 43.2L227.674 39.6187C227.49 38.9396 227.345 38.3718 227.24 37.9151C227.135 37.4585 227.07 37.1611 227.046 37.0229C227.027 37.1619 226.975 37.4617 226.888 37.9222C226.801 38.3827 226.679 38.9506 226.522 39.6259L225.699 43.2593ZM233.547 47.422L233.311 35.7444L236.927 35.6716C237.62 35.6576 238.23 35.7893 238.759 36.0667C239.287 36.3335 239.7 36.7146 239.998 37.21C240.296 37.7054 240.452 38.2891 240.465 38.961C240.481 39.7501 240.287 40.4315 239.883 41.0051C239.489 41.5785 238.942 41.9789 238.242 42.2064L240.793 47.276L239.097 47.3102L236.758 42.3963L234.886 42.434L234.986 47.393L233.547 47.422ZM234.86 41.1383L237.036 41.0945C237.633 41.0824 238.109 40.8861 238.464 40.5056C238.819 40.1143 238.99 39.6095 238.978 38.9909C238.965 38.3617 238.774 37.8641 238.404 37.4982C238.033 37.1322 237.55 36.9553 236.953 36.9673L234.777 37.0111L234.86 41.1383ZM245.77 47.1758L245.561 36.8099L242.362 36.8743L242.335 35.5626L250.174 35.4047L250.2 36.7164L247.001 36.7809L247.209 47.1468L245.77 47.1758ZM255.386 46.982L255.298 42.6149L251.631 35.3753L253.119 35.3453L255.535 40.0976C255.668 40.3617 255.774 40.5889 255.853 40.7794C255.931 40.9592 255.982 41.0915 256.005 41.1764C256.024 41.0907 256.07 40.9564 256.141 40.7736C256.222 40.5799 256.324 40.3485 256.447 40.0793L258.622 35.2345L260.109 35.2045L256.737 42.5859L256.825 46.953L255.386 46.982Z" fill="white"/>
<path d="M283.301 46.4196L283.066 34.742L286.825 34.6662C287.55 34.6516 288.182 34.7829 288.721 35.0601C289.26 35.3266 289.679 35.713 289.977 36.2191C290.286 36.7249 290.447 37.3298 290.461 38.0337C290.475 38.7269 290.338 39.3377 290.05 39.8663C289.773 40.384 289.37 40.7922 288.843 41.0909C288.315 41.3789 287.689 41.5302 286.963 41.5448L284.644 41.5916L284.741 46.3906L283.301 46.4196ZM284.618 40.2958L286.937 40.2491C287.567 40.2364 288.064 40.0344 288.429 39.6429C288.805 39.2406 288.987 38.7142 288.974 38.0636C288.96 37.4024 288.758 36.8837 288.366 36.5076C287.985 36.1312 287.48 35.9493 286.851 35.962L284.531 36.0087L284.618 40.2958ZM292.245 46.2394L295.049 34.5005L296.985 34.4615L300.243 46.0783L298.787 46.1076L297.957 43.0197L294.422 43.0909L293.717 46.2098L292.245 46.2394ZM294.685 41.8694L297.629 41.8101L296.66 38.2288C296.476 37.5497 296.331 36.9819 296.226 36.5252C296.121 36.0686 296.056 35.7712 296.032 35.633C296.013 35.772 295.961 36.0718 295.874 36.5323C295.787 36.9928 295.665 37.5607 295.508 38.236L294.685 41.8694ZM302.532 46.0321L302.297 34.3545L305.912 34.2817C306.606 34.2677 307.216 34.3994 307.745 34.6768C308.273 34.9436 308.686 35.3247 308.984 35.8201C309.282 36.3155 309.438 36.8992 309.451 37.5711C309.467 38.3602 309.273 39.0416 308.869 39.6152C308.475 40.1886 307.928 40.589 307.228 40.8165L309.779 45.8861L308.083 45.9203L305.744 41.0064L303.872 41.0441L303.972 46.0031L302.532 46.0321ZM303.846 39.7484L306.022 39.7046C306.619 39.6925 307.095 39.4962 307.45 39.1157C307.805 38.7245 307.976 38.2196 307.964 37.601C307.951 36.9718 307.76 36.4742 307.39 36.1083C307.019 35.7423 306.536 35.5654 305.939 35.5774L303.763 35.6212L303.846 39.7484ZM314.756 45.7859L314.547 35.42L311.348 35.4844L311.321 34.1727L319.16 34.0148L319.186 35.3265L315.987 35.391L316.195 45.7569L314.756 45.7859ZM324.372 45.5922L324.284 41.225L320.617 33.9854L322.105 33.9555L324.521 38.7078C324.654 38.9718 324.76 39.199 324.839 39.3895C324.917 39.5693 324.968 39.7016 324.991 39.7865C325.01 39.7008 325.056 39.5665 325.127 39.3837C325.208 39.19 325.31 38.9586 325.433 38.6894L327.608 33.8446L329.095 33.8146L325.723 41.196L325.811 45.5632L324.372 45.5922Z" fill="white"/>
<path d="M352.287 45.0297L352.052 33.3521L355.811 33.2763C356.536 33.2617 357.168 33.393 357.707 33.6702C358.246 33.9368 358.665 34.3231 358.963 34.8292C359.272 35.335 359.433 35.9399 359.447 36.6438C359.461 37.337 359.324 37.9478 359.036 38.4764C358.759 38.9941 358.356 39.4023 357.829 39.701C357.301 39.989 356.675 40.1403 355.949 40.1549L353.63 40.2017L353.727 45.0007L352.287 45.0297ZM353.604 38.9059L355.923 38.8592C356.553 38.8465 357.05 38.6445 357.415 38.253C357.791 37.8507 357.973 37.3243 357.96 36.6737C357.946 36.0125 357.744 35.4939 357.352 35.1177C356.971 34.7413 356.466 34.5594 355.837 34.5721L353.517 34.6188L353.604 38.9059ZM361.231 44.8495L364.035 33.1106L365.971 33.0717L369.229 44.6884L367.774 44.7177L366.943 41.6298L363.408 41.701L362.703 44.8199L361.231 44.8495ZM363.671 40.4795L366.615 40.4202L365.646 36.8389C365.462 36.1599 365.317 35.592 365.212 35.1354C365.107 34.6787 365.042 34.3813 365.018 34.2431C364.999 34.3821 364.947 34.6819 364.86 35.1424C364.773 35.6029 364.651 36.1709 364.494 36.8462L363.671 40.4795ZM371.519 44.6423L371.283 32.9646L374.899 32.8918C375.592 32.8778 376.202 33.0095 376.731 33.287C377.259 33.5537 377.672 33.9348 377.97 34.4302C378.268 34.9257 378.424 35.5093 378.437 36.1812C378.453 36.9703 378.259 37.6517 377.855 38.2253C377.461 38.7987 376.914 39.1991 376.214 39.4266L378.765 44.4963L377.069 44.5304L374.73 39.6165L372.858 39.6543L372.958 44.6132L371.519 44.6423ZM372.832 38.3585L375.008 38.3147C375.605 38.3027 376.081 38.1064 376.436 37.7258C376.791 37.3346 376.962 36.8297 376.95 36.2111C376.937 35.5819 376.746 35.0844 376.376 34.7184C376.005 34.3524 375.522 34.1755 374.925 34.1875L372.749 34.2314L372.832 38.3585ZM383.742 44.396L383.533 34.0301L380.334 34.0946L380.307 32.7828L388.146 32.6249L388.172 33.9366L384.973 34.0011L385.181 44.367L383.742 44.396ZM393.358 44.2023L393.27 39.8351L389.603 32.5955L391.091 32.5656L393.507 37.3179C393.64 37.5819 393.746 37.8091 393.825 37.9996C393.903 38.1794 393.954 38.3117 393.977 38.3966C393.996 38.3109 394.042 38.1766 394.113 37.9938C394.194 37.8001 394.296 37.5687 394.419 37.2995L396.594 32.4547L398.081 32.4247L394.709 39.8061L394.797 44.1733L393.358 44.2023Z" fill="white"/>
<path d="M421.273 43.6398L421.038 31.9622L424.797 31.8864C425.522 31.8718 426.154 32.0031 426.693 32.2803C427.232 32.5469 427.651 32.9332 427.949 33.4393C428.258 33.9452 428.419 34.55 428.433 35.2539C428.447 35.9471 428.31 36.558 428.022 37.0865C427.745 37.6042 427.342 38.0124 426.815 38.3111C426.287 38.5991 425.661 38.7504 424.935 38.7651L422.616 38.8118L422.713 43.6108L421.273 43.6398ZM422.59 37.516L424.909 37.4693C425.539 37.4566 426.036 37.2546 426.401 36.8631C426.777 36.4608 426.959 35.9344 426.946 35.2839C426.932 34.6227 426.73 34.104 426.338 33.7278C425.957 33.3514 425.452 33.1695 424.823 33.1822L422.503 33.2289L422.59 37.516ZM430.217 43.4596L433.021 31.7208L434.957 31.6818L438.215 43.2985L436.759 43.3278L435.929 40.2399L432.394 40.3111L431.689 43.43L430.217 43.4596ZM432.657 39.0896L435.601 39.0303L434.632 35.4491C434.448 34.77 434.303 34.2021 434.198 33.7455C434.093 33.2888 434.028 32.9914 434.004 32.8532C433.985 32.9923 433.933 33.292 433.846 33.7525C433.759 34.2131 433.637 34.781 433.48 35.4563L432.657 39.0896ZM440.504 43.2524L440.269 31.5747L443.884 31.5019C444.578 31.4879 445.188 31.6197 445.717 31.8971C446.245 32.1638 446.658 32.5449 446.956 33.0403C447.254 33.5358 447.41 34.1194 447.423 34.7913C447.439 35.5804 447.245 36.2618 446.84 36.8354C446.447 37.4088 445.9 37.8092 445.2 38.0367L447.751 43.1064L446.055 43.1405L443.716 38.2267L441.844 38.2644L441.944 43.2234L440.504 43.2524ZM441.818 36.9686L443.994 36.9248C444.591 36.9128 445.067 36.7165 445.422 36.3359C445.777 35.9447 445.948 35.4398 445.936 34.8212C445.923 34.192 445.732 33.6945 445.362 33.3285C444.991 32.9626 444.508 32.7856 443.911 32.7976L441.735 32.8415L441.818 36.9686ZM452.728 43.0061L452.519 32.6402L449.32 32.7047L449.293 31.3929L457.132 31.235L457.158 32.5467L453.959 32.6112L454.167 42.9771L452.728 43.0061ZM462.344 42.8124L462.256 38.4453L458.589 31.2056L460.077 31.1757L462.493 35.928C462.626 36.192 462.732 36.4192 462.811 36.6097C462.889 36.7895 462.94 36.9218 462.963 37.0067C462.982 36.921 463.028 36.7867 463.099 36.6039C463.18 36.4102 463.282 36.1788 463.405 35.9096L465.58 31.0648L467.067 31.0348L463.695 38.4163L463.783 42.7834L462.344 42.8124Z" fill="white"/>
<path d="M490.259 42.2499L490.024 30.5723L493.783 30.4966C494.508 30.4819 495.14 30.6132 495.679 30.8904C496.218 31.157 496.637 31.5433 496.935 32.0494C497.244 32.5553 497.405 33.1601 497.419 33.864C497.433 34.5572 497.296 35.1681 497.008 35.6966C496.731 36.2143 496.328 36.6225 495.801 36.9212C495.273 37.2092 494.647 37.3605 493.921 37.3752L491.602 37.4219L491.699 42.2209L490.259 42.2499ZM491.576 36.1262L493.895 36.0794C494.525 36.0667 495.022 35.8647 495.387 35.4732C495.763 35.0709 495.945 34.5445 495.932 33.894C495.918 33.2328 495.716 32.7141 495.324 32.3379C494.943 31.9615 494.438 31.7796 493.809 31.7923L491.489 31.839L491.576 36.1262ZM499.203 42.0697L502.007 30.3309L503.943 30.2919L507.201 41.9086L505.745 41.9379L504.915 38.85L501.38 38.9212L500.675 42.0401L499.203 42.0697ZM501.643 37.6997L504.587 37.6404L503.618 34.0592C503.434 33.3801 503.289 32.8122 503.184 32.3556C503.079 31.8989 503.014 31.6015 502.99 31.4633C502.971 31.6024 502.919 31.9021 502.832 32.3627C502.745 32.8232 502.623 33.3911 502.466 34.0664L501.643 37.6997ZM509.49 41.8625L509.255 30.1848L512.87 30.112C513.564 30.098 514.174 30.2298 514.703 30.5072C515.231 30.7739 515.644 31.155 515.942 31.6504C516.24 32.1459 516.396 32.7295 516.409 33.4014C516.425 34.1906 516.231 34.8719 515.827 35.4455C515.433 36.0189 514.886 36.4193 514.186 36.6468L516.737 41.7165L515.041 41.7506L512.702 36.8368L510.83 36.8745L510.93 41.8335L509.49 41.8625ZM510.804 35.5787L512.98 35.5349C513.577 35.5229 514.053 35.3266 514.408 34.946C514.763 34.5548 514.934 34.0499 514.922 33.4314C514.909 32.8021 514.718 32.3046 514.348 31.9386C513.977 31.5727 513.494 31.3957 512.897 31.4077L510.721 31.4516L510.804 35.5787ZM521.714 41.6162L521.505 31.2503L518.306 31.3148L518.279 30.003L526.118 29.8451L526.144 31.1568L522.945 31.2213L523.153 41.5872L521.714 41.6162ZM531.33 41.4225L531.242 37.0554L527.575 29.8158L529.063 29.7858L531.479 34.5381C531.612 34.8021 531.718 35.0294 531.797 35.2198C531.875 35.3996 531.926 35.5319 531.949 35.6168C531.968 35.5311 532.014 35.3968 532.085 35.214C532.166 35.0203 532.268 34.7889 532.391 34.5197L534.566 29.6749L536.053 29.6449L532.681 37.0264L532.769 41.3935L531.33 41.4225Z" fill="white"/>
<path d="M559.245 40.8603L559.01 29.1826L562.769 29.1069C563.494 29.0923 564.126 29.2236 564.665 29.5008C565.204 29.7673 565.623 30.1536 565.921 30.6597C566.23 31.1656 566.391 31.7705 566.405 32.4743C566.419 33.1675 566.282 33.7784 565.994 34.307C565.717 34.8247 565.314 35.2329 564.787 35.5316C564.259 35.8196 563.633 35.9709 562.907 35.9855L560.588 36.0322L560.685 40.8313L559.245 40.8603ZM560.562 34.7365L562.881 34.6898C563.511 34.6771 564.008 34.475 564.373 34.0836C564.749 33.6813 564.931 33.1548 564.918 32.5043C564.904 31.8431 564.702 31.3244 564.31 30.9482C563.929 30.5718 563.424 30.39 562.795 30.4026L560.475 30.4494L560.562 34.7365ZM568.189 40.6801L570.993 28.9412L572.929 28.9022L576.187 40.5189L574.732 40.5483L573.901 37.4604L570.366 37.5316L569.661 40.6504L568.189 40.6801ZM570.629 36.31L573.573 36.2507L572.604 32.6695C572.42 31.9904 572.275 31.4226 572.17 30.9659C572.065 30.5093 572 30.2119 571.976 30.0736C571.957 30.2127 571.905 30.5125 571.818 30.973C571.731 31.4335 571.609 32.0014 571.452 32.6767L570.629 36.31ZM578.477 40.4728L578.241 28.7952L581.857 28.7224C582.55 28.7084 583.16 28.8401 583.689 29.1175C584.217 29.3843 584.63 29.7654 584.928 30.2608C585.226 30.7562 585.382 31.3399 585.395 32.0117C585.411 32.8009 585.217 33.4823 584.813 34.0559C584.419 34.6293 583.872 35.0297 583.172 35.2572L585.723 40.3268L584.027 40.361L581.688 35.4471L579.816 35.4848L579.916 40.4438L578.477 40.4728ZM579.79 34.1891L581.966 34.1452C582.563 34.1332 583.039 33.9369 583.394 33.5564C583.749 33.1651 583.92 32.6602 583.908 32.0417C583.895 31.4125 583.704 30.9149 583.334 30.549C582.963 30.183 582.48 30.0061 581.883 30.0181L579.707 30.0619L579.79 34.1891ZM590.7 40.2266L590.491 29.8607L587.292 29.9251L587.265 28.6134L595.104 28.4555L595.13 29.7672L591.931 29.8317L592.139 40.1976L590.7 40.2266ZM600.316 40.0328L600.228 35.6657L596.561 28.4261L598.049 28.3961L600.465 33.1484C600.598 33.4125 600.704 33.6397 600.783 33.8302C600.861 34.01 600.912 34.1423 600.935 34.2272C600.954 34.1414 601 34.0072 601.071 33.8244C601.152 33.6307 601.254 33.3992 601.377 33.1301L603.552 28.2853L605.039 28.2553L601.667 35.6367L601.755 40.0038L600.316 40.0328Z" fill="white"/>
<rect width="946" height="20" transform="translate(-116.186 6.48267) rotate(6.37393)" fill="#19191C"/>
<path d="M21.1122 37.9194L22.4089 26.3116L26.1456 26.729C26.8665 26.8096 27.4759 27.0225 27.974 27.368C28.4732 27.7028 28.8375 28.1406 29.0669 28.6814C29.3069 29.2234 29.3878 29.8442 29.3097 30.5439C29.2327 31.2329 29.0168 31.8206 28.6619 32.3069C28.3189 32.7837 27.8663 33.1357 27.3043 33.3627C26.7435 33.5791 26.1027 33.647 25.3818 33.5665L23.0762 33.3089L22.5433 38.0793L21.1122 37.9194ZM23.22 32.021L25.5257 32.2785C26.1511 32.3484 26.6707 32.2132 27.0843 31.873C27.5098 31.5234 27.7586 31.0253 27.8309 30.3787C27.9043 29.7214 27.7715 29.1807 27.4325 28.7564C27.1041 28.3334 26.6272 28.0869 26.0017 28.017L23.6961 27.7595L23.22 32.021ZM30.0026 38.9125L34.3205 27.6422L36.2446 27.8572L37.9532 39.8007L36.5062 39.639L36.0875 36.469L32.5734 36.0764L31.4655 39.076L30.0026 38.9125ZM32.9946 34.8999L35.9204 35.2267L35.4296 31.5495C35.3358 30.8521 35.2666 30.2702 35.2221 29.8037C35.1776 29.3372 35.1525 29.0339 35.1467 28.8937C35.1101 29.0291 35.0186 29.3194 34.8723 29.7646C34.726 30.2098 34.5307 30.7568 34.2865 31.4057L32.9946 34.8999ZM40.2288 40.0549L41.5255 28.4471L45.1191 28.8485C45.8081 28.9255 46.3964 29.1361 46.8839 29.4803C47.3725 29.814 47.7321 30.2459 47.9627 30.7761C48.1932 31.3063 48.2712 31.9053 48.1966 32.5732C48.109 33.3576 47.8271 34.0077 47.3509 34.5234C46.8853 35.0402 46.2908 35.3655 45.5675 35.4994L47.432 40.8595L45.7465 40.6712L44.0709 35.4932L42.2105 35.2854L41.6599 40.2147L40.2288 40.0549ZM42.3544 33.9974L44.5169 34.239C45.1106 34.3053 45.6083 34.1731 46.0102 33.8423C46.4133 33.5009 46.6491 33.0228 46.7178 32.408C46.7877 31.7826 46.6631 31.2642 46.3442 30.8529C46.0252 30.4416 45.5689 30.2028 44.9752 30.1365L42.8127 29.8949L42.3544 33.9974ZM52.379 41.4121L53.53 31.1082L50.3498 30.753L50.4954 29.4491L58.2869 30.3195L58.1413 31.6233L54.9611 31.2681L53.8101 41.572L52.379 41.4121ZM61.9373 42.4799L62.4222 38.1389L59.7357 30.4813L61.2145 30.6465L62.9873 35.6744C63.0849 35.9536 63.1601 36.1928 63.213 36.3919C63.2671 36.5804 63.3 36.7182 63.3117 36.8054C63.3424 36.7229 63.4049 36.5958 63.4992 36.4238C63.6054 36.2425 63.7368 36.0264 63.8936 35.7756L66.6845 31.2575L68.1633 31.4227L63.8533 38.2987L63.3684 42.6397L61.9373 42.4799Z" fill="white"/>
<path d="M89.6857 45.5796L90.9823 33.9718L94.7191 34.3892C95.44 34.4697 96.0494 34.6827 96.5475 35.0281C97.0467 35.3629 97.411 35.8008 97.6404 36.3416C97.8804 36.8836 97.9613 37.5044 97.8831 38.204C97.8062 38.8931 97.5903 39.4807 97.2354 39.967C96.8924 40.4439 96.4398 40.7958 95.8778 41.0228C95.317 41.2392 94.6762 41.3072 93.9553 41.2267L91.6496 40.9691L91.1168 45.7394L89.6857 45.5796ZM91.7935 39.6811L94.0992 39.9387C94.7246 40.0085 95.2442 39.8734 95.6578 39.5332C96.0833 39.1836 96.3321 38.6855 96.4043 38.0388C96.4778 37.3816 96.345 36.8408 96.006 36.4166C95.6776 35.9935 95.2007 35.747 94.5752 35.6772L92.2696 35.4196L91.7935 39.6811ZM98.5761 46.5727L102.894 35.3024L104.818 35.5173L106.527 47.4608L105.08 47.2992L104.661 44.1291L101.147 43.7366L100.039 46.7361L98.5761 46.5727ZM101.568 42.56L104.494 42.8869L104.003 39.2097C103.909 38.5123 103.84 37.9303 103.796 37.4638C103.751 36.9973 103.726 36.694 103.72 36.5538C103.684 36.6893 103.592 36.9796 103.446 37.4248C103.299 37.8699 103.104 38.417 102.86 39.0659L101.568 42.56ZM108.802 47.715L110.099 36.1072L113.693 36.5087C114.382 36.5856 114.97 36.7962 115.457 37.1405C115.946 37.4741 116.306 37.9061 116.536 38.4363C116.767 38.9665 116.845 39.5655 116.77 40.2333C116.682 41.0178 116.401 41.6679 115.924 42.1835C115.459 42.7003 114.864 43.0257 114.141 43.1596L116.005 48.5197L114.32 48.3314L112.644 43.1534L110.784 42.9456L110.233 47.8749L108.802 47.715ZM110.928 41.6576L113.09 41.8991C113.684 41.9654 114.182 41.8332 114.584 41.5025C114.987 41.1611 115.223 40.683 115.291 40.0681C115.361 39.4427 115.237 38.9243 114.918 38.5131C114.599 38.1018 114.142 37.863 113.549 37.7967L111.386 37.5551L110.928 41.6576ZM120.952 49.0723L122.103 38.7684L118.923 38.4131L119.069 37.1092L126.86 37.9796L126.715 39.2835L123.535 38.9282L122.384 49.2322L120.952 49.0723ZM130.511 50.14L130.996 45.799L128.309 38.1414L129.788 38.3066L131.561 43.3345C131.658 43.6138 131.734 43.8529 131.786 44.052C131.841 44.2405 131.873 44.3784 131.885 44.4655C131.916 44.3831 131.978 44.2559 132.073 44.084C132.179 43.9027 132.31 43.6866 132.467 43.4358L135.258 38.9177L136.737 39.0829L132.427 45.9589L131.942 50.2999L130.511 50.14Z" fill="white"/>
<path d="M158.259 53.2397L159.556 41.6319L163.293 42.0493C164.013 42.1299 164.623 42.3428 165.121 42.6883C165.62 43.0231 165.985 43.4609 166.214 44.0017C166.454 44.5437 166.535 45.1645 166.457 45.8642C166.38 46.5532 166.164 47.1409 165.809 47.6272C165.466 48.104 165.013 48.456 164.451 48.683C163.89 48.8994 163.25 48.9673 162.529 48.8868L160.223 48.6293L159.69 53.3996L158.259 53.2397ZM160.367 47.3413L162.673 47.5988C163.298 47.6687 163.818 47.5335 164.231 47.1934C164.657 46.8438 164.906 46.3456 164.978 45.699C165.051 45.0417 164.918 44.501 164.579 44.0767C164.251 43.6537 163.774 43.4072 163.149 43.3373L160.843 43.0798L160.367 47.3413ZM167.15 54.2328L171.467 42.9625L173.392 43.1775L175.1 55.121L173.653 54.9593L173.234 51.7893L169.72 51.3967L168.613 54.3963L167.15 54.2328ZM170.142 50.2202L173.067 50.547L172.577 46.8698C172.483 46.1724 172.414 45.5905 172.369 45.124C172.325 44.6575 172.299 44.3542 172.294 44.214C172.257 44.3494 172.166 44.6397 172.019 45.0849C171.873 45.5301 171.678 46.0771 171.433 46.726L170.142 50.2202ZM177.376 55.3752L178.672 43.7674L182.266 44.1688C182.955 44.2458 183.543 44.4564 184.031 44.8006C184.519 45.1343 184.879 45.5662 185.11 46.0964C185.34 46.6266 185.418 47.2257 185.344 47.8935C185.256 48.678 184.974 49.328 184.498 49.8437C184.032 50.3605 183.438 50.6859 182.714 50.8197L184.579 56.1798L182.893 55.9915L181.218 50.8135L179.357 50.6057L178.807 55.535L177.376 55.3752ZM179.501 49.3177L181.664 49.5593C182.258 49.6256 182.755 49.4934 183.157 49.1626C183.56 48.8213 183.796 48.3431 183.865 47.7283C183.935 47.1029 183.81 46.5845 183.491 46.1732C183.172 45.7619 182.716 45.5231 182.122 45.4568L179.96 45.2152L179.501 49.3177ZM189.526 56.7324L190.677 46.4285L187.497 46.0733L187.642 44.7694L195.434 45.6398L195.288 46.9437L192.108 46.5884L190.957 56.8923L189.526 56.7324ZM199.084 57.8002L199.569 53.4592L196.883 45.8016L198.361 45.9668L200.134 50.9947C200.232 51.2739 200.307 51.5131 200.36 51.7122C200.414 51.9007 200.447 52.0385 200.459 52.1257C200.489 52.0433 200.552 51.9161 200.646 51.7441C200.752 51.5628 200.884 51.3467 201.041 51.0959L203.831 46.5778L205.31 46.743L201 53.619L200.515 57.96L199.084 57.8002Z" fill="white"/>
<path d="M226.833 60.8999L228.129 49.2921L231.866 49.7095C232.587 49.79 233.196 50.003 233.694 50.3484C234.194 50.6833 234.558 51.1211 234.787 51.6619C235.027 52.2039 235.108 52.8247 235.03 53.5243C234.953 54.2134 234.737 54.8011 234.382 55.2873C234.039 55.7642 233.587 56.1161 233.025 56.3431C232.464 56.5596 231.823 56.6275 231.102 56.547L228.797 56.2894L228.264 61.0597L226.833 60.8999ZM228.94 55.0014L231.246 55.259C231.872 55.3288 232.391 55.1937 232.805 54.8535C233.23 54.5039 233.479 54.0058 233.551 53.3591C233.625 52.7019 233.492 52.1612 233.153 51.7369C232.824 51.3138 232.348 51.0674 231.722 50.9975L229.416 50.7399L228.94 55.0014ZM235.723 61.893L240.041 50.6227L241.965 50.8376L243.674 62.7811L242.227 62.6195L241.808 59.4494L238.294 59.0569L237.186 62.0564L235.723 61.893ZM238.715 57.8804L241.641 58.2072L241.15 54.53C241.056 53.8326 240.987 53.2506 240.943 52.7841C240.898 52.3177 240.873 52.0143 240.867 51.8741C240.83 52.0096 240.739 52.2999 240.593 52.7451C240.446 53.1902 240.251 53.7373 240.007 54.3862L238.715 57.8804ZM245.949 63.0353L247.246 51.4275L250.84 51.829C251.529 51.9059 252.117 52.1166 252.604 52.4608C253.093 52.7944 253.453 53.2264 253.683 53.7566C253.914 54.2868 253.992 54.8858 253.917 55.5537C253.829 56.3381 253.547 56.9882 253.071 57.5038C252.606 58.0207 252.011 58.346 251.288 58.4799L253.152 63.84L251.467 63.6517L249.791 58.4737L247.931 58.2659L247.38 63.1952L245.949 63.0353ZM248.075 56.9779L250.237 57.2194C250.831 57.2858 251.329 57.1535 251.731 56.8228C252.134 56.4814 252.37 56.0033 252.438 55.3885C252.508 54.763 252.384 54.2447 252.065 53.8334C251.746 53.4221 251.289 53.1833 250.696 53.117L248.533 52.8754L248.075 56.9779ZM258.099 64.3926L259.25 54.0887L256.07 53.7334L256.216 52.4295L264.007 53.2999L263.862 54.6038L260.681 54.2486L259.53 64.5525L258.099 64.3926ZM267.658 65.4603L268.143 61.1193L265.456 53.4618L266.935 53.6269L268.708 58.6548C268.805 58.9341 268.881 59.1732 268.933 59.3723C268.987 59.5608 269.02 59.6987 269.032 59.7858C269.063 59.7034 269.125 59.5762 269.22 59.4043C269.326 59.223 269.457 59.0069 269.614 58.7561L272.405 54.238L273.884 54.4032L269.574 61.2792L269.089 65.6202L267.658 65.4603Z" fill="white"/>
<path d="M295.406 68.56L296.703 56.9522L300.439 57.3697C301.16 57.4502 301.77 57.6632 302.268 58.0086C302.767 58.3434 303.131 58.7812 303.361 59.322C303.601 59.864 303.682 60.4848 303.604 61.1845C303.527 61.8735 303.311 62.4612 302.956 62.9475C302.613 63.4243 302.16 63.7763 301.598 64.0033C301.037 64.2197 300.397 64.2876 299.676 64.2071L297.37 63.9496L296.837 68.7199L295.406 68.56ZM297.514 62.6616L299.82 62.9191C300.445 62.989 300.965 62.8538 301.378 62.5137C301.804 62.1641 302.053 61.6659 302.125 61.0193C302.198 60.3621 302.065 59.8213 301.726 59.3971C301.398 58.974 300.921 58.7275 300.296 58.6576L297.99 58.4001L297.514 62.6616ZM304.297 69.5532L308.614 58.2829L310.538 58.4978L312.247 70.4413L310.8 70.2797L310.381 67.1096L306.867 66.717L305.759 69.7166L304.297 69.5532ZM307.288 65.5405L310.214 65.8673L309.723 62.1901C309.63 61.4927 309.561 60.9108 309.516 60.4443C309.472 59.9778 309.446 59.6745 309.441 59.5343C309.404 59.6697 309.313 59.9601 309.166 60.4052C309.02 60.8504 308.825 61.3974 308.58 62.0463L307.288 65.5405ZM314.523 70.6955L315.819 59.0877L319.413 59.4891C320.102 59.5661 320.69 59.7767 321.178 60.121C321.666 60.4546 322.026 60.8865 322.257 61.4167C322.487 61.9469 322.565 62.546 322.491 63.2138C322.403 63.9983 322.121 64.6483 321.645 65.164C321.179 65.6808 320.585 66.0062 319.861 66.14L321.726 71.5001L320.04 71.3119L318.365 66.1338L316.504 65.926L315.954 70.8554L314.523 70.6955ZM316.648 64.638L318.811 64.8796C319.404 64.9459 319.902 64.8137 320.304 64.4829C320.707 64.1416 320.943 63.6635 321.012 63.0486C321.082 62.4232 320.957 61.9048 320.638 61.4935C320.319 61.0822 319.863 60.8434 319.269 60.7771L317.107 60.5355L316.648 64.638ZM326.673 72.0528L327.824 61.7488L324.644 61.3936L324.789 60.0897L332.581 60.9601L332.435 62.264L329.255 61.9087L328.104 72.2126L326.673 72.0528ZM336.231 73.1205L336.716 68.7795L334.03 61.1219L335.508 61.2871L337.281 66.315C337.379 66.5942 337.454 66.8334 337.507 67.0325C337.561 67.221 337.594 67.3588 337.606 67.446C337.636 67.3636 337.699 67.2364 337.793 67.0645C337.899 66.8831 338.031 66.667 338.188 66.4162L340.978 61.8981L342.457 62.0633L338.147 68.9394L337.662 73.2804L336.231 73.1205Z" fill="white"/>
<path d="M363.98 76.2202L365.276 64.6124L369.013 65.0298C369.734 65.1103 370.343 65.3233 370.841 65.6687C371.341 66.0036 371.705 66.4414 371.934 66.9822C372.174 67.5242 372.255 68.145 372.177 68.8447C372.1 69.5337 371.884 70.1214 371.529 70.6076C371.186 71.0845 370.734 71.4364 370.172 71.6635C369.611 71.8799 368.97 71.9478 368.249 71.8673L365.944 71.6097L365.411 76.3801L363.98 76.2202ZM366.087 70.3217L368.393 70.5793C369.019 70.6492 369.538 70.514 369.952 70.1738C370.377 69.8242 370.626 69.3261 370.698 68.6795C370.772 68.0222 370.639 67.4815 370.3 67.0572C369.971 66.6341 369.495 66.3877 368.869 66.3178L366.563 66.0602L366.087 70.3217ZM372.87 77.2133L377.188 65.943L379.112 66.1579L380.821 78.1015L379.374 77.9398L378.955 74.7697L375.441 74.3772L374.333 77.3767L372.87 77.2133ZM375.862 73.2007L378.788 73.5275L378.297 69.8503C378.203 69.1529 378.134 68.571 378.09 68.1045C378.045 67.638 378.02 67.3346 378.014 67.1945C377.977 67.3299 377.886 67.6202 377.74 68.0654C377.593 68.5106 377.398 69.0576 377.154 69.7065L375.862 73.2007ZM383.096 78.3557L384.393 66.7479L387.986 67.1493C388.676 67.2263 389.264 67.4369 389.751 67.7811C390.24 68.1148 390.599 68.5467 390.83 69.0769C391.061 69.6071 391.139 70.2061 391.064 70.874C390.976 71.6584 390.694 72.3085 390.218 72.8241C389.753 73.341 389.158 73.6663 388.435 73.8002L390.299 79.1603L388.614 78.972L386.938 73.794L385.078 73.5862L384.527 78.5155L383.096 78.3557ZM385.222 72.2982L387.384 72.5398C387.978 72.6061 388.476 72.4738 388.878 72.1431C389.281 71.8017 389.517 71.3236 389.585 70.7088C389.655 70.0833 389.531 69.565 389.212 69.1537C388.893 68.7424 388.436 68.5036 387.843 68.4373L385.68 68.1957L385.222 72.2982ZM395.246 79.7129L396.397 69.409L393.217 69.0538L393.363 67.7499L401.154 68.6202L401.009 69.9241L397.828 69.5689L396.677 79.8728L395.246 79.7129ZM404.805 80.7806L405.29 76.4396L402.603 68.7821L404.082 68.9473L405.855 73.9751C405.952 74.2544 406.027 74.4935 406.08 74.6926C406.134 74.8811 406.167 75.019 406.179 75.1062C406.21 75.0237 406.272 74.8965 406.367 74.7246C406.473 74.5433 406.604 74.3272 406.761 74.0764L409.552 69.5583L411.031 69.7235L406.721 76.5995L406.236 80.9405L404.805 80.7806Z" fill="white"/>
<path d="M432.553 83.8803L433.85 72.2725L437.586 72.69C438.307 72.7705 438.917 72.9835 439.415 73.3289C439.914 73.6637 440.278 74.1015 440.508 74.6423C440.748 75.1843 440.829 75.8052 440.751 76.5048C440.674 77.1939 440.458 77.7815 440.103 78.2678C439.76 78.7447 439.307 79.0966 438.745 79.3236C438.184 79.54 437.544 79.608 436.823 79.5274L434.517 79.2699L433.984 84.0402L432.553 83.8803ZM434.661 77.9819L436.967 78.2394C437.592 78.3093 438.112 78.1742 438.525 77.834C438.951 77.4844 439.199 76.9863 439.272 76.3396C439.345 75.6824 439.212 75.1416 438.873 74.7174C438.545 74.2943 438.068 74.0478 437.443 73.978L435.137 73.7204L434.661 77.9819ZM441.443 84.8735L445.761 73.6032L447.685 73.8181L449.394 85.7616L447.947 85.6L447.528 82.4299L444.014 82.0373L442.906 85.0369L441.443 84.8735ZM444.435 80.8608L447.361 81.1877L446.87 77.5104C446.777 76.813 446.707 76.2311 446.663 75.7646C446.619 75.2981 446.593 74.9948 446.588 74.8546C446.551 74.9901 446.459 75.2804 446.313 75.7255C446.167 76.1707 445.972 76.7178 445.727 77.3666L444.435 80.8608ZM451.67 86.0158L452.966 74.408L456.56 74.8094C457.249 74.8864 457.837 75.097 458.325 75.4413C458.813 75.7749 459.173 76.2068 459.404 76.737C459.634 77.2673 459.712 77.8663 459.637 78.5341C459.55 79.3186 459.268 79.9686 458.792 80.4843C458.326 81.0011 457.732 81.3265 457.008 81.4603L458.873 86.8205L457.187 86.6322L455.512 81.4542L453.651 81.2463L453.101 86.1757L451.67 86.0158ZM453.795 79.9583L455.958 80.1999C456.551 80.2662 457.049 80.134 457.451 79.8032C457.854 79.4619 458.09 78.9838 458.159 78.3689C458.229 77.7435 458.104 77.2251 457.785 76.8138C457.466 76.4025 457.01 76.1637 456.416 76.0974L454.254 75.8559L453.795 79.9583ZM463.82 87.3731L464.971 77.0692L461.791 76.7139L461.936 75.41L469.728 76.2804L469.582 77.5843L466.402 77.229L465.251 87.5329L463.82 87.3731ZM473.378 88.4408L473.863 84.0998L471.177 76.4422L472.655 76.6074L474.428 81.6353C474.526 81.9145 474.601 82.1537 474.654 82.3528C474.708 82.5413 474.741 82.6791 474.753 82.7663C474.783 82.6839 474.846 82.5567 474.94 82.3848C475.046 82.2034 475.178 81.9874 475.334 81.7366L478.125 77.2185L479.604 77.3836L475.294 84.2597L474.809 88.6007L473.378 88.4408Z" fill="white"/>
<path d="M501.127 91.5405L502.423 79.9327L506.16 80.3501C506.881 80.4306 507.49 80.6436 507.988 80.9891C508.488 81.3239 508.852 81.7617 509.081 82.3025C509.321 82.8445 509.402 83.4653 509.324 84.165C509.247 84.854 509.031 85.4417 508.676 85.928C508.333 86.4048 507.881 86.7568 507.319 86.9838C506.758 87.2002 506.117 87.2681 505.396 87.1876L503.091 86.93L502.558 91.7004L501.127 91.5405ZM503.234 85.642L505.54 85.8996C506.165 85.9695 506.685 85.8343 507.099 85.4941C507.524 85.1445 507.773 84.6464 507.845 83.9998C507.919 83.3425 507.786 82.8018 507.447 82.3775C507.118 81.9544 506.642 81.708 506.016 81.6381L503.71 81.3806L503.234 85.642ZM510.017 92.5336L514.335 81.2633L516.259 81.4782L517.968 93.4218L516.521 93.2601L516.102 90.09L512.588 89.6975L511.48 92.697L510.017 92.5336ZM513.009 88.521L515.935 88.8478L515.444 85.1706C515.35 84.4732 515.281 83.8913 515.236 83.4248C515.192 82.9583 515.167 82.655 515.161 82.5148C515.124 82.6502 515.033 82.9405 514.887 83.3857C514.74 83.8309 514.545 84.3779 514.301 85.0268L513.009 88.521ZM520.243 93.676L521.54 82.0682L525.133 82.4696C525.822 82.5466 526.411 82.7572 526.898 83.1014C527.387 83.4351 527.746 83.867 527.977 84.3972C528.208 84.9274 528.286 85.5264 528.211 86.1943C528.123 86.9787 527.841 87.6288 527.365 88.1444C526.9 88.6613 526.305 88.9866 525.582 89.1205L527.446 94.4806L525.761 94.2923L524.085 89.1143L522.225 88.9065L521.674 93.8358L520.243 93.676ZM522.369 87.6185L524.531 87.8601C525.125 87.9264 525.623 87.7942 526.025 87.4634C526.428 87.122 526.663 86.6439 526.732 86.0291C526.802 85.4036 526.677 84.8853 526.358 84.474C526.04 84.0627 525.583 83.8239 524.99 83.7576L522.827 83.516L522.369 87.6185ZM532.393 95.0332L533.544 84.7293L530.364 84.3741L530.51 83.0702L538.301 83.9405L538.156 85.2444L534.975 84.8892L533.824 95.1931L532.393 95.0332ZM541.952 96.101L542.437 91.76L539.75 84.1024L541.229 84.2676L543.002 89.2955C543.099 89.5747 543.174 89.8139 543.227 90.013C543.281 90.2015 543.314 90.3393 543.326 90.4265C543.357 90.344 543.419 90.2169 543.514 90.0449C543.62 89.8636 543.751 89.6475 543.908 89.3967L546.699 84.8786L548.178 85.0438L543.868 91.9198L543.383 96.2608L541.952 96.101Z" fill="white"/>
<path d="M569.7 99.2007L570.997 87.5929L574.733 88.0103C575.454 88.0908 576.064 88.3038 576.562 88.6492C577.061 88.984 577.425 89.4219 577.655 89.9627C577.895 90.5047 577.976 91.1255 577.897 91.8251C577.821 92.5142 577.605 93.1018 577.25 93.5881C576.907 94.065 576.454 94.4169 575.892 94.6439C575.331 94.8603 574.69 94.9283 573.97 94.8478L571.664 94.5902L571.131 99.3605L569.7 99.2007ZM571.808 93.3022L574.114 93.5598C574.739 93.6296 575.259 93.4945 575.672 93.1543C576.098 92.8047 576.346 92.3066 576.419 91.6599C576.492 91.0027 576.359 90.4619 576.02 90.0377C575.692 89.6146 575.215 89.3681 574.59 89.2983L572.284 89.0407L571.808 93.3022ZM578.59 100.194L582.908 88.9235L584.832 89.1384L586.541 101.082L585.094 100.92L584.675 97.7502L581.161 97.3576L580.053 100.357L578.59 100.194ZM581.582 96.1811L584.508 96.508L584.017 92.8308C583.924 92.1334 583.854 91.5514 583.81 91.0849C583.765 90.6184 583.74 90.3151 583.735 90.1749C583.698 90.3104 583.606 90.6007 583.46 91.0459C583.314 91.491 583.119 92.0381 582.874 92.687L581.582 96.1811ZM588.817 101.336L590.113 89.7283L593.707 90.1298C594.396 90.2067 594.984 90.4173 595.472 90.7616C595.96 91.0952 596.32 91.5271 596.551 92.0574C596.781 92.5876 596.859 93.1866 596.784 93.8544C596.697 94.6389 596.415 95.2889 595.939 95.8046C595.473 96.3214 594.879 96.6468 594.155 96.7806L596.02 102.141L594.334 101.952L592.659 96.7745L590.798 96.5666L590.248 101.496L588.817 101.336ZM590.942 95.2787L593.105 95.5202C593.698 95.5865 594.196 95.4543 594.598 95.1236C595.001 94.7822 595.237 94.3041 595.306 93.6892C595.376 93.0638 595.251 92.5454 594.932 92.1341C594.613 91.7229 594.157 91.4841 593.563 91.4177L591.401 91.1762L590.942 95.2787ZM600.967 102.693L602.118 92.3895L598.938 92.0342L599.083 90.7303L606.875 91.6007L606.729 92.9046L603.549 92.5493L602.398 102.853L600.967 102.693ZM610.525 103.761L611.01 99.4201L608.324 91.7625L609.802 91.9277L611.575 96.9556C611.673 97.2348 611.748 97.474 611.801 97.6731C611.855 97.8616 611.888 97.9995 611.9 98.0866C611.93 98.0042 611.993 97.877 612.087 97.7051C612.193 97.5237 612.325 97.3077 612.481 97.0569L615.272 92.5388L616.751 92.704L612.441 99.58L611.956 103.921L610.525 103.761Z" fill="white"/>
<rect width="2024" height="20" transform="translate(-325 180.38) rotate(-9.33713)" fill="#8854FF"/>
<path d="M-32.3146 148.471L-34.2096 136.946L-32.7886 136.713L-31.9787 141.638L-28.2843 141.031L-29.0942 136.105L-27.6733 135.871L-25.7783 147.397L-27.1992 147.63L-28.0715 142.326L-31.7659 142.933L-30.8936 148.238L-32.3146 148.471ZM-22.6348 146.88L-22.8476 145.585L-20.4952 145.198L-21.9645 136.262L-24.3169 136.649L-24.5298 135.355L-18.3725 134.342L-18.1596 135.637L-20.512 136.024L-19.0427 144.96L-16.6903 144.573L-16.4774 145.867L-22.6348 146.88ZM-10.7762 144.93L-12.4584 134.699L-15.616 135.219L-15.8289 133.924L-8.09273 132.652L-7.87987 133.947L-11.0375 134.466L-9.35533 144.696L-10.7762 144.93ZM8.20439 141.809L6.52226 131.579L3.36465 132.098L3.15179 130.803L10.8879 129.531L11.1008 130.826L7.94318 131.345L9.62532 141.576L8.20439 141.809ZM15.1371 140.669L13.2421 129.144L14.663 128.91L15.4729 133.836L19.1673 133.229L18.3574 128.303L19.7783 128.069L21.6733 139.595L20.2524 139.828L19.3802 134.523L15.6858 135.131L16.558 140.436L15.1371 140.669ZM24.7379 139.091L22.8429 127.565L29.4739 126.475L29.6867 127.77L24.4609 128.629L25.0476 132.197L29.7208 131.429L29.9285 132.692L25.2552 133.46L25.9302 137.565L31.156 136.706L31.3689 138L24.7379 139.091ZM43.6396 135.983L41.7446 124.458L48.5334 123.341L48.7463 124.636L43.3468 125.524L43.975 129.344L48.964 128.524L49.1769 129.819L44.2195 130.634L45.0605 135.749L43.6396 135.983ZM53.6825 134.332L51.7875 122.806L53.2084 122.573L54.8906 132.803L60.1006 131.947L60.3135 133.241L53.6825 134.332ZM65.8827 132.488C65.1881 132.602 64.5665 132.569 64.018 132.389C63.4801 132.207 63.0336 131.891 62.6786 131.442C62.3324 130.98 62.103 130.407 61.9905 129.723L61.1339 124.513C61.0197 123.818 61.0535 123.202 61.2353 122.664C61.4276 122.124 61.7495 121.682 62.2009 121.337C62.6628 120.991 63.2411 120.761 63.9358 120.647C64.6305 120.533 65.2468 120.566 65.7848 120.748C66.3332 120.928 66.7797 121.244 67.1242 121.695C67.4792 122.145 67.7129 122.712 67.8254 123.396L68.6847 128.622C68.7971 129.306 68.7581 129.923 68.5675 130.473C68.3857 131.011 68.0638 131.454 67.6019 131.8C67.1505 132.144 66.5774 132.374 65.8827 132.488ZM65.6725 131.209C66.2935 131.107 66.7386 130.855 67.0077 130.454C67.2857 130.041 67.371 129.508 67.2637 128.856L66.4071 123.646C66.2998 122.993 66.0492 122.521 65.6553 122.229C65.2701 121.925 64.7671 121.823 64.1461 121.926C63.5356 122.026 63.0914 122.283 62.8134 122.696C62.5337 123.099 62.4475 123.626 62.5548 124.279L63.4115 129.489C63.5188 130.142 63.7702 130.619 64.1659 130.922C64.5598 131.214 65.062 131.309 65.6725 131.209ZM75.3731 130.927C74.6784 131.042 74.0568 131.009 73.5083 130.829C72.9704 130.647 72.5239 130.331 72.1689 129.881C71.8227 129.419 71.5934 128.846 71.4809 128.162L70.6242 122.952C70.51 122.257 70.5438 121.641 70.7256 121.103C70.9179 120.564 71.2398 120.121 71.6912 119.777C72.1532 119.431 72.7315 119.201 73.4261 119.086C74.1208 118.972 74.7371 119.006 75.2751 119.188C75.8236 119.368 76.27 119.684 76.6145 120.135C76.9695 120.585 77.2033 121.152 77.3157 121.836L78.175 127.062C78.2875 127.746 78.2484 128.363 78.0578 128.913C77.876 129.451 77.5542 129.893 77.0922 130.239C76.6408 130.584 76.0677 130.813 75.3731 130.927ZM75.1628 129.649C75.7838 129.546 76.2289 129.295 76.4981 128.894C76.776 128.481 76.8614 127.948 76.7541 127.295L75.8974 122.085C75.7901 121.433 75.5395 120.96 75.1456 120.668C74.7605 120.364 74.2574 120.263 73.6364 120.365C73.0259 120.466 72.5817 120.722 72.3037 121.136C72.024 121.538 71.9378 122.066 72.0451 122.719L72.9018 127.929C73.0091 128.581 73.2606 129.059 73.6562 129.361C74.0501 129.653 74.5523 129.749 75.1628 129.649ZM81.5535 129.749L79.6585 118.224L83.2266 117.637C83.9108 117.525 84.5341 117.568 85.0965 117.767C85.6573 117.956 86.1204 118.275 86.4859 118.723C86.8514 119.171 87.0887 119.726 87.1977 120.389C87.3258 121.168 87.2305 121.87 86.9117 122.496C86.6034 123.119 86.1193 123.593 85.4592 123.918L88.7055 128.573L87.032 128.848L84.0169 124.317L82.1697 124.621L82.9744 129.515L81.5535 129.749ZM81.9594 123.342L84.1066 122.989C84.696 122.892 85.1394 122.63 85.4367 122.203C85.7322 121.765 85.8298 121.241 85.7295 120.631C85.6274 120.01 85.3671 119.544 84.9487 119.235C84.5302 118.925 84.0263 118.819 83.4369 118.916L81.2897 119.269L81.9594 123.342Z" fill="white"/>
<path d="M111.751 124.784L109.856 113.259L111.277 113.025L112.087 117.951L115.781 117.343L114.971 112.418L116.392 112.184L118.287 123.709L116.866 123.943L115.994 118.638L112.3 119.245L113.172 124.55L111.751 124.784ZM121.431 123.192L121.218 121.898L123.57 121.511L122.101 112.575L119.749 112.962L119.536 111.667L125.693 110.655L125.906 111.949L123.554 112.336L125.023 121.272L127.375 120.885L127.588 122.18L121.431 123.192ZM133.289 121.243L131.607 111.012L128.45 111.531L128.237 110.236L135.973 108.964L136.186 110.259L133.028 110.778L134.71 121.009L133.289 121.243ZM152.27 118.122L150.588 107.891L147.43 108.41L147.217 107.116L154.953 105.844L155.166 107.138L152.009 107.657L153.691 117.888L152.27 118.122ZM159.203 116.982L157.308 105.457L158.729 105.223L159.538 110.149L163.233 109.541L162.423 104.615L163.844 104.382L165.739 115.907L164.318 116.141L163.446 110.836L159.751 111.443L160.624 116.748L159.203 116.982ZM168.803 115.403L166.908 103.878L173.539 102.788L173.752 104.082L168.526 104.942L169.113 108.51L173.786 107.741L173.994 109.004L169.321 109.773L169.996 113.878L175.222 113.018L175.434 114.313L168.803 115.403ZM187.705 112.295L185.81 100.77L192.599 99.6539L192.812 100.949L187.412 101.836L188.041 105.657L193.03 104.837L193.242 106.131L188.285 106.946L189.126 112.062L187.705 112.295ZM197.748 110.644L195.853 99.1188L197.274 98.8852L198.956 109.116L204.166 108.259L204.379 109.554L197.748 110.644ZM209.948 108.8C209.254 108.914 208.632 108.882 208.084 108.701C207.546 108.52 207.099 108.204 206.744 107.754C206.398 107.292 206.169 106.719 206.056 106.035L205.199 100.825C205.085 100.13 205.119 99.5141 205.301 98.9761C205.493 98.4364 205.815 97.9944 206.266 97.6499C206.728 97.3037 207.307 97.0735 208.001 96.9593C208.696 96.845 209.312 96.8788 209.85 97.0606C210.399 97.2407 210.845 97.5564 211.19 98.0079C211.545 98.4575 211.778 99.0245 211.891 99.7086L212.75 104.934C212.863 105.619 212.824 106.236 212.633 106.786C212.451 107.324 212.129 107.766 211.667 108.112C211.216 108.457 210.643 108.686 209.948 108.8ZM209.738 107.521C210.359 107.419 210.804 107.168 211.073 106.767C211.351 106.354 211.437 105.821 211.329 105.168L210.473 99.958C210.365 99.3055 210.115 98.8332 209.721 98.5412C209.336 98.237 208.833 98.136 208.212 98.2381C207.601 98.3385 207.157 98.5953 206.879 99.0085C206.599 99.4112 206.513 99.9389 206.62 100.591L207.477 105.801C207.584 106.454 207.836 106.932 208.231 107.234C208.625 107.526 209.128 107.622 209.738 107.521ZM219.439 107.24C218.744 107.354 218.122 107.321 217.574 107.141C217.036 106.959 216.589 106.644 216.234 106.194C215.888 105.732 215.659 105.159 215.546 104.475L214.69 99.2646C214.576 98.57 214.609 97.9537 214.791 97.4157C214.983 96.876 215.305 96.4339 215.757 96.0895C216.219 95.7433 216.797 95.5131 217.492 95.3988C218.186 95.2846 218.803 95.3184 219.341 95.5002C219.889 95.6803 220.336 95.996 220.68 96.4474C221.035 96.8971 221.269 97.4641 221.381 98.1482L222.241 103.374C222.353 104.058 222.314 104.675 222.123 105.226C221.942 105.764 221.62 106.206 221.158 106.552C220.706 106.896 220.133 107.126 219.439 107.24ZM219.228 105.961C219.849 105.859 220.294 105.607 220.564 105.206C220.842 104.793 220.927 104.26 220.82 103.608L219.963 98.3976C219.856 97.745 219.605 97.2728 219.211 96.9808C218.826 96.6766 218.323 96.5756 217.702 96.6777C217.091 96.778 216.647 97.0348 216.369 97.4481C216.09 97.8508 216.003 98.3784 216.111 99.031L216.967 104.241C217.075 104.894 217.326 105.371 217.722 105.674C218.116 105.966 218.618 106.061 219.228 105.961ZM225.619 106.061L223.724 94.5362L227.292 93.9496C227.976 93.8371 228.6 93.8805 229.162 94.0799C229.723 94.2688 230.186 94.5872 230.551 95.0352C230.917 95.4831 231.154 96.0386 231.263 96.7017C231.391 97.4806 231.296 98.1827 230.977 98.8081C230.669 99.4317 230.185 99.9058 229.525 100.231L232.771 104.886L231.098 105.161L228.082 100.63L226.235 100.934L227.04 105.828L225.619 106.061ZM226.025 99.6547L228.172 99.3017C228.762 99.2048 229.205 98.9427 229.502 98.5155C229.798 98.0777 229.895 97.5536 229.795 96.9432C229.693 96.3222 229.433 95.8569 229.014 95.5474C228.596 95.2378 228.092 95.1315 227.502 95.2284L225.355 95.5814L226.025 99.6547Z" fill="white"/>
<path d="M255.817 101.096L253.922 89.5709L255.343 89.3373L256.153 94.2631L259.847 93.6557L259.037 88.7298L260.458 88.4962L262.353 100.021L260.932 100.255L260.06 94.9503L256.365 95.5577L257.238 100.863L255.817 101.096ZM265.496 99.5046L265.284 98.21L267.636 97.8232L266.167 88.8872L263.814 89.2739L263.601 87.9793L269.759 86.9669L269.972 88.2615L267.619 88.6483L269.088 97.5844L271.441 97.1976L271.654 98.4922L265.496 99.5046ZM277.355 97.5548L275.673 87.3241L272.515 87.8433L272.302 86.5487L280.038 85.2767L280.251 86.5713L277.094 87.0905L278.776 97.3211L277.355 97.5548ZM296.336 94.4339L294.653 84.2033L291.496 84.7225L291.283 83.4279L299.019 82.1559L299.232 83.4505L296.074 83.9697L297.757 94.2003L296.336 94.4339ZM303.268 93.2941L301.373 81.7688L302.794 81.5352L303.604 86.461L307.299 85.8536L306.489 80.9277L307.91 80.6941L309.805 92.2194L308.384 92.453L307.511 87.1482L303.817 87.7557L304.689 93.0604L303.268 93.2941ZM312.869 91.7155L310.974 80.1902L317.605 79.1L317.818 80.3946L312.592 81.2538L313.179 84.8219L317.852 84.0535L318.06 85.3166L313.386 86.0849L314.061 90.1898L319.287 89.3306L319.5 90.6252L312.869 91.7155ZM331.771 88.6076L329.876 77.0824L336.665 75.9661L336.878 77.2608L331.478 78.1486L332.106 81.9693L337.095 81.149L337.308 82.4436L332.351 83.2587L333.192 88.374L331.771 88.6076ZM341.814 86.9564L339.919 75.4311L341.34 75.1975L343.022 85.4281L348.232 84.5715L348.445 85.8661L341.814 86.9564ZM354.014 85.1125C353.319 85.2267 352.698 85.1938 352.149 85.0137C351.611 84.832 351.165 84.5162 350.81 84.0665C350.464 83.6046 350.234 83.0315 350.122 82.3474L349.265 77.1373C349.151 76.4426 349.185 75.8263 349.366 75.2884C349.559 74.7487 349.881 74.3066 350.332 73.9621C350.794 73.6159 351.372 73.3857 352.067 73.2715C352.762 73.1573 353.378 73.1911 353.916 73.3729C354.464 73.5529 354.911 73.8687 355.255 74.3201C355.61 74.7698 355.844 75.3367 355.957 76.0209L356.816 81.2467C356.928 81.9309 356.889 82.548 356.699 83.0982C356.517 83.6362 356.195 84.0783 355.733 84.4245C355.282 84.769 354.709 84.9983 354.014 85.1125ZM353.804 83.8337C354.425 83.7316 354.87 83.48 355.139 83.0791C355.417 82.6658 355.502 82.1329 355.395 81.4803L354.538 76.2703C354.431 75.6177 354.18 75.1455 353.786 74.8535C353.401 74.5493 352.898 74.4482 352.277 74.5503C351.667 74.6507 351.223 74.9075 350.945 75.3208C350.665 75.7235 350.579 76.2511 350.686 76.9037L351.543 82.1137C351.65 82.7663 351.901 83.2438 352.297 83.5463C352.691 83.8383 353.193 83.9341 353.804 83.8337ZM363.504 83.5521C362.81 83.6663 362.188 83.6334 361.64 83.4533C361.102 83.2715 360.655 82.9558 360.3 82.5061C359.954 82.0441 359.725 81.4711 359.612 80.7869L358.755 75.5769C358.641 74.8822 358.675 74.2659 358.857 73.728C359.049 73.1883 359.371 72.7462 359.822 72.4017C360.284 72.0555 360.863 71.8253 361.557 71.7111C362.252 71.5969 362.868 71.6307 363.406 71.8125C363.955 71.9925 364.401 72.3083 364.746 72.7597C365.101 73.2094 365.334 73.7763 365.447 74.4605L366.306 79.6863C366.419 80.3704 366.38 80.9876 366.189 81.5378C366.007 82.0758 365.685 82.5179 365.223 82.8641C364.772 83.2085 364.199 83.4379 363.504 83.5521ZM363.294 82.2733C363.915 82.1712 364.36 81.9196 364.629 81.5186C364.907 81.1054 364.993 80.5725 364.885 79.9199L364.029 74.7099C363.921 74.0573 363.671 73.585 363.277 73.2931C362.892 72.9889 362.389 72.8878 361.768 72.9899C361.157 73.0903 360.713 73.3471 360.435 73.7603C360.155 74.1631 360.069 74.6907 360.176 75.3433L361.033 80.5533C361.14 81.2059 361.392 81.6834 361.787 81.9859C362.181 82.2779 362.684 82.3736 363.294 82.2733ZM369.685 82.3737L367.79 70.8485L371.358 70.2618C372.042 70.1493 372.665 70.1928 373.228 70.3922C373.788 70.581 374.252 70.8994 374.617 71.3474C374.983 71.7954 375.22 72.3509 375.329 73.014C375.457 73.7929 375.362 74.495 375.043 75.1203C374.735 75.7439 374.251 76.2181 373.59 76.5428L376.837 81.1978L375.163 81.473L372.148 76.9421L370.301 77.2458L371.106 82.1401L369.685 82.3737ZM370.091 75.967L372.238 75.614C372.827 75.5171 373.271 75.255 373.568 74.8278C373.863 74.39 373.961 73.8659 373.861 73.2554C373.759 72.6344 373.498 72.1692 373.08 71.8596C372.661 71.5501 372.158 71.4437 371.568 71.5407L369.421 71.8937L370.091 75.967Z" fill="white"/>
<path d="M399.882 77.4086L397.987 65.8834L399.408 65.6498L400.218 70.5756L403.912 69.9682L403.103 65.0423L404.523 64.8087L406.418 76.3339L404.998 76.5676L404.125 71.2628L400.431 71.8702L401.303 77.175L399.882 77.4086ZM409.562 75.8171L409.349 74.5225L411.702 74.1357L410.232 65.1997L407.88 65.5864L407.667 64.2918L413.824 63.2794L414.037 64.574L411.685 64.9608L413.154 73.8969L415.506 73.5101L415.719 74.8047L409.562 75.8171ZM421.421 73.8673L419.738 63.6366L416.581 64.1558L416.368 62.8612L424.104 61.5892L424.317 62.8838L421.159 63.403L422.841 73.6336L421.421 73.8673ZM440.401 70.7464L438.719 60.5158L435.561 61.035L435.349 59.7404L443.085 58.4684L443.298 59.763L440.14 60.2822L441.822 70.5128L440.401 70.7464ZM447.334 69.6066L445.439 58.0813L446.86 57.8477L447.67 62.7735L451.364 62.1661L450.554 57.2402L451.975 57.0066L453.87 68.5319L452.449 68.7655L451.577 63.4607L447.883 64.0682L448.755 69.3729L447.334 69.6066ZM456.935 68.028L455.04 56.5027L461.671 55.4125L461.883 56.7071L456.658 57.5663L457.244 61.1344L461.918 60.366L462.125 61.6291L457.452 62.3974L458.127 66.5023L463.353 65.6431L463.566 66.9377L456.935 68.028ZM475.836 64.9201L473.941 53.3949L480.73 52.2786L480.943 53.5733L475.544 54.4611L476.172 58.2818L481.161 57.4615L481.374 58.7561L476.416 59.5712L477.257 64.6865L475.836 64.9201ZM485.879 63.2689L483.984 51.7436L485.405 51.51L487.087 61.7406L492.297 60.884L492.51 62.1786L485.879 63.2689ZM498.08 61.425C497.385 61.5392 496.763 61.5063 496.215 61.3262C495.677 61.1445 495.23 60.8287 494.875 60.379C494.529 59.9171 494.3 59.344 494.187 58.6599L493.331 53.4498C493.216 52.7551 493.25 52.1388 493.432 51.6009C493.624 51.0612 493.946 50.6191 494.398 50.2746C494.86 49.9284 495.438 49.6982 496.133 49.584C496.827 49.4698 497.444 49.5036 497.982 49.6854C498.53 49.8654 498.976 50.1812 499.321 50.6326C499.676 51.0823 499.91 51.6492 500.022 52.3334L500.881 57.5592C500.994 58.2434 500.955 58.8605 500.764 59.4107C500.582 59.9487 500.261 60.3908 499.799 60.737C499.347 61.0815 498.774 61.3108 498.08 61.425ZM497.869 60.1462C498.49 60.0441 498.935 59.7925 499.205 59.3916C499.482 58.9783 499.568 58.4454 499.461 57.7928L498.604 52.5828C498.497 51.9302 498.246 51.458 497.852 51.166C497.467 50.8618 496.964 50.7607 496.343 50.8628C495.732 50.9632 495.288 51.22 495.01 51.6333C494.731 52.036 494.644 52.5636 494.752 53.2162L495.608 58.4262C495.716 59.0788 495.967 59.5563 496.363 59.8588C496.757 60.1508 497.259 60.2466 497.869 60.1462ZM507.57 59.8646C506.875 59.9788 506.254 59.9459 505.705 59.7658C505.167 59.584 504.721 59.2683 504.366 58.8186C504.019 58.3566 503.79 57.7836 503.678 57.0994L502.821 51.8894C502.707 51.1947 502.741 50.5784 502.922 50.0405C503.115 49.5008 503.437 49.0587 503.888 48.7142C504.35 48.368 504.928 48.1378 505.623 48.0236C506.318 47.9094 506.934 47.9432 507.472 48.125C508.02 48.305 508.467 48.6208 508.811 49.0722C509.166 49.5219 509.4 50.0888 509.513 50.773L510.372 55.9988C510.484 56.6829 510.445 57.3001 510.255 57.8503C510.073 58.3883 509.751 58.8304 509.289 59.1766C508.838 59.521 508.265 59.7504 507.57 59.8646ZM507.36 58.5858C507.981 58.4837 508.426 58.2321 508.695 57.8311C508.973 57.4179 509.058 56.885 508.951 56.2324L508.094 51.0224C507.987 50.3698 507.736 49.8975 507.342 49.6056C506.957 49.3014 506.454 49.2003 505.833 49.3024C505.223 49.4028 504.778 49.6596 504.501 50.0728C504.221 50.4756 504.135 51.0032 504.242 51.6558L505.099 56.8658C505.206 57.5184 505.457 57.9959 505.853 58.2984C506.247 58.5904 506.749 58.6861 507.36 58.5858ZM513.75 58.6862L511.855 47.161L515.423 46.5743C516.108 46.4618 516.731 46.5053 517.293 46.7047C517.854 46.8935 518.317 47.2119 518.683 47.6599C519.048 48.1079 519.285 48.6634 519.395 49.3265C519.523 50.1054 519.427 50.8075 519.108 51.4328C518.8 52.0564 518.316 52.5306 517.656 52.8553L520.902 57.5103L519.229 57.7855L516.214 53.2546L514.366 53.5583L515.171 58.4526L513.75 58.6862ZM514.156 52.2795L516.303 51.9265C516.893 51.8296 517.336 51.5675 517.633 51.1403C517.929 50.7025 518.027 50.1784 517.926 49.5679C517.824 48.9469 517.564 48.4817 517.145 48.1721C516.727 47.8626 516.223 47.7562 515.634 47.8532L513.486 48.2062L514.156 52.2795Z" fill="white"/>
<path d="M543.948 53.7211L542.053 42.1959L543.474 41.9623L544.284 46.8881L547.978 46.2807L547.168 41.3548L548.589 41.1212L550.484 52.6464L549.063 52.8801L548.191 47.5753L544.497 48.1827L545.369 53.4875L543.948 53.7211ZM553.628 52.1296L553.415 50.835L555.767 50.4482L554.298 41.5122L551.945 41.8989L551.733 40.6043L557.89 39.5919L558.103 40.8865L555.75 41.2733L557.22 50.2094L559.572 49.8226L559.785 51.1172L553.628 52.1296ZM565.486 50.1798L563.804 39.9491L560.646 40.4683L560.434 39.1737L568.17 37.9017L568.383 39.1963L565.225 39.7155L566.907 49.9461L565.486 50.1798ZM584.467 47.0589L582.785 36.8283L579.627 37.3475L579.414 36.0529L587.15 34.7809L587.363 36.0755L584.206 36.5947L585.888 46.8253L584.467 47.0589ZM591.399 45.9191L589.504 34.3938L590.925 34.1602L591.735 39.086L595.43 38.4786L594.62 33.5527L596.041 33.3191L597.936 44.8444L596.515 45.078L595.643 39.7732L591.948 40.3807L592.82 45.6854L591.399 45.9191ZM601 44.3405L599.105 32.8152L605.736 31.725L605.949 33.0196L600.723 33.8788L601.31 37.4469L605.983 36.6785L606.191 37.9416L601.518 38.7099L602.193 42.8148L607.418 41.9556L607.631 43.2502L601 44.3405ZM619.902 41.2326L618.007 29.7074L624.796 28.5911L625.009 29.8858L619.609 30.7736L620.237 34.5943L625.226 33.774L625.439 35.0686L620.482 35.8837L621.323 40.999L619.902 41.2326ZM629.945 39.5814L628.05 28.0561L629.471 27.8225L631.153 38.0531L636.363 37.1965L636.576 38.4911L629.945 39.5814ZM642.145 37.7375C641.45 37.8517 640.829 37.8188 640.28 37.6387C639.742 37.457 639.296 37.1412 638.941 36.6915C638.595 36.2296 638.365 35.6565 638.253 34.9724L637.396 29.7623C637.282 29.0676 637.316 28.4513 637.498 27.9134C637.69 27.3737 638.012 26.9316 638.463 26.5871C638.925 26.2409 639.504 26.0107 640.198 25.8965C640.893 25.7823 641.509 25.8161 642.047 25.9979C642.596 26.1779 643.042 26.4937 643.387 26.9451C643.742 27.3948 643.975 27.9617 644.088 28.6459L644.947 33.8717C645.06 34.5559 645.02 35.173 644.83 35.7232C644.648 36.2612 644.326 36.7033 643.864 37.0495C643.413 37.394 642.84 37.6233 642.145 37.7375ZM641.935 36.4587C642.556 36.3566 643.001 36.105 643.27 35.7041C643.548 35.2908 643.633 34.7579 643.526 34.1053L642.669 28.8953C642.562 28.2427 642.312 27.7705 641.918 27.4785C641.533 27.1743 641.029 27.0732 640.408 27.1753C639.798 27.2757 639.354 27.5325 639.076 27.9458C638.796 28.3485 638.71 28.8761 638.817 29.5287L639.674 34.7387C639.781 35.3913 640.033 35.8688 640.428 36.1713C640.822 36.4633 641.324 36.5591 641.935 36.4587ZM651.635 36.1771C650.941 36.2913 650.319 36.2584 649.771 36.0783C649.233 35.8965 648.786 35.5808 648.431 35.1311C648.085 34.6691 647.856 34.0961 647.743 33.4119L646.887 28.2019C646.772 27.5072 646.806 26.8909 646.988 26.353C647.18 25.8133 647.502 25.3712 647.954 25.0267C648.416 24.6805 648.994 24.4503 649.689 24.3361C650.383 24.2219 651 24.2557 651.537 24.4375C652.086 24.6175 652.532 24.9333 652.877 25.3847C653.232 25.8344 653.466 26.4013 653.578 27.0855L654.437 32.3113C654.55 32.9954 654.511 33.6126 654.32 34.1628C654.138 34.7008 653.817 35.1429 653.355 35.4891C652.903 35.8335 652.33 36.0629 651.635 36.1771ZM651.425 34.8983C652.046 34.7962 652.491 34.5446 652.76 34.1436C653.038 33.7304 653.124 33.1975 653.016 32.5449L652.16 27.3349C652.053 26.6823 651.802 26.21 651.408 25.9181C651.023 25.6139 650.52 25.5128 649.899 25.6149C649.288 25.7153 648.844 25.9721 648.566 26.3853C648.286 26.7881 648.2 27.3157 648.308 27.9683L649.164 33.1783C649.271 33.8309 649.523 34.3084 649.919 34.6109C650.313 34.9029 650.815 34.9986 651.425 34.8983ZM657.816 34.9987L655.921 23.4735L659.489 22.8868C660.173 22.7743 660.796 22.8178 661.359 23.0172C661.92 23.206 662.383 23.5244 662.748 23.9724C663.114 24.4204 663.351 24.9759 663.46 25.639C663.588 26.4179 663.493 27.12 663.174 27.7453C662.866 28.3689 662.382 28.8431 661.722 29.1678L664.968 33.8228L663.294 34.098L660.279 29.5671L658.432 29.8708L659.237 34.7651L657.816 34.9987ZM658.222 28.592L660.369 28.239C660.958 28.1421 661.402 27.88 661.699 27.4528C661.995 27.015 662.092 26.4909 661.992 25.8804C661.89 25.2594 661.629 24.7942 661.211 24.4846C660.793 24.1751 660.289 24.0687 659.699 24.1657L657.552 24.5187L658.222 28.592Z" fill="white"/>
</g>
</svg>
