<svg width="375" height="136" viewBox="0 0 375 136" fill="none" xmlns="http://www.w3.org/2000/svg">
<g clip-path="url(#clip0_2224_91540)">
<path d="M82.5 136L118.444 135.585L61.5256 51.7782L35 69.1704L82.5 136Z" fill="white"/>
<path d="M227.014 136L262.791 135.585L205.869 51.7782L179.344 69.1704L227.014 136Z" fill="white"/>
<path d="M189.656 69.9433L203.379 60.4148L206.472 64.7972C207.07 65.6415 207.419 66.4928 207.526 67.3442C207.632 68.1955 207.505 69.0018 207.146 69.763C206.785 70.5219 206.193 71.1906 205.366 71.7645C204.55 72.3313 203.719 72.6538 202.87 72.7344C202.021 72.8151 201.211 72.6586 200.441 72.2673C199.669 71.876 198.986 71.257 198.391 70.4128L196.483 67.7094L190.842 71.6246L189.659 69.9456L189.656 69.9433ZM198.003 66.6493L199.911 69.3528C200.43 70.0855 201.07 70.5148 201.84 70.6381C202.61 70.7614 203.374 70.5575 204.139 70.0263C204.916 69.4879 205.375 68.8405 205.514 68.084C205.652 67.3299 205.464 66.5853 204.947 65.8525L203.04 63.1491L198.001 66.647L198.003 66.6493Z" fill="black"/>
<path d="M199.837 84.7718C198.977 83.5529 198.654 82.3411 198.869 81.1364C199.084 79.9317 199.854 78.8669 201.183 77.9444L207.011 73.8987C208.34 72.9763 209.611 72.6205 210.826 72.834C212.04 73.0474 213.077 73.7612 213.936 74.9801C214.796 76.199 215.119 77.4109 214.904 78.6156C214.689 79.8202 213.924 80.8803 212.609 81.7933L206.762 85.8532C205.433 86.7757 204.161 87.1314 202.947 86.918C201.733 86.7045 200.695 85.9884 199.835 84.7718H199.837ZM201.36 83.7142C201.879 84.4469 202.483 84.8643 203.181 84.9639C203.877 85.0635 204.613 84.8453 205.392 84.3046L211.595 79.9957C212.372 79.4574 212.834 78.8456 212.977 78.1626C213.12 77.4796 212.934 76.7706 212.415 76.0378C211.906 75.3169 211.301 74.9019 210.601 74.7975C209.901 74.6908 209.162 74.909 208.385 75.4473L202.182 79.7562C201.405 80.2969 200.946 80.9111 200.808 81.5988C200.669 82.2889 200.853 82.9932 201.362 83.7142H201.36Z" fill="black"/>
<path d="M205.422 92.287L219.145 82.7585L220.328 84.4375L208.147 92.8965L212.49 99.0504L210.948 100.12L205.422 92.287Z" fill="black"/>
<path d="M212.727 102.638L214.268 101.569L216.228 104.348L226.87 96.9587L224.91 94.1794L226.452 93.1099L231.584 100.383L230.042 101.453L228.082 98.6733L217.44 106.063L219.4 108.842L217.859 109.912L212.727 102.638Z" fill="black"/>
<path d="M222.835 117.374C222.257 116.554 221.91 115.733 221.798 114.913C221.685 114.092 221.81 113.31 222.173 112.568C222.536 111.825 223.124 111.171 223.94 110.604L230.142 106.295C230.97 105.721 231.794 105.394 232.616 105.313C233.439 105.233 234.218 105.387 234.957 105.773C235.695 106.157 236.355 106.762 236.933 107.583C237.512 108.403 237.851 109.224 237.954 110.042C238.055 110.86 237.925 111.636 237.564 112.368C237.204 113.101 236.616 113.748 235.8 114.315L234.617 112.636C235.394 112.098 235.851 111.479 235.984 110.784C236.118 110.089 235.927 109.373 235.411 108.64C234.892 107.908 234.278 107.478 233.563 107.353C232.848 107.227 232.103 107.436 231.326 107.974L225.12 112.283C224.344 112.824 223.892 113.447 223.765 114.154C223.638 114.863 223.834 115.584 224.353 116.317C224.872 117.05 225.481 117.474 226.186 117.585C226.892 117.697 227.633 117.486 228.409 116.945L229.595 118.624C228.792 119.181 227.979 119.504 227.157 119.594C226.332 119.684 225.551 119.542 224.81 119.167C224.069 118.793 223.409 118.195 222.83 117.374H222.835Z" fill="black"/>
<path d="M229.956 127.071L235.088 123.507L240.784 113.438L242.046 115.228L238.274 121.792C238.066 122.16 237.882 122.461 237.724 122.701C237.566 122.94 237.447 123.106 237.363 123.201C237.48 123.156 237.683 123.104 237.968 123.045C238.252 122.985 238.606 122.921 239.024 122.852L246.533 121.584L247.756 123.317L236.271 125.179L231.139 128.743L229.953 127.064L229.956 127.071Z" fill="black"/>
<path d="M43.875 69.9433L57.5979 60.4148L60.6911 64.7972C61.2886 65.6415 61.6376 66.4928 61.7452 67.3442C61.8504 68.1955 61.7237 69.0018 61.3651 69.763C61.0042 70.5219 60.4114 71.1906 59.5843 71.7645C58.7692 72.3313 57.9374 72.6538 57.0888 72.7321C56.2402 72.8127 55.4299 72.6562 54.6602 72.2649C53.8881 71.8736 53.2045 71.2547 52.6093 70.4104L50.7018 67.707L45.0606 71.6222L43.8774 69.9433H43.875ZM52.2221 66.6493L54.1296 69.3528C54.6483 70.0855 55.2889 70.5148 56.0586 70.6381C56.8283 70.7614 57.5932 70.5575 58.3581 70.0263C59.1349 69.4879 59.5939 68.8405 59.7325 68.084C59.8712 67.3299 59.6823 66.5853 59.166 65.8525L57.2585 63.1491L52.2197 66.647L52.2221 66.6493Z" fill="black"/>
<path d="M54.0561 84.7718C53.1955 83.5529 52.8728 82.3411 53.088 81.1364C53.3031 79.9317 54.0728 78.8693 55.4018 77.9444L61.2295 73.8987C62.5585 72.9763 63.8302 72.6205 65.0445 72.834C66.2588 73.0474 67.2962 73.7612 68.1543 74.9801C69.0148 76.199 69.3375 77.4109 69.1224 78.6156C68.9073 79.8202 68.1423 80.8803 66.8277 81.7933L60.9809 85.8532C59.6519 86.7757 58.3802 87.1314 57.1659 86.918C55.9516 86.7045 54.9142 85.9884 54.0537 84.7718H54.0561ZM55.5787 83.7142C56.0974 84.4469 56.7022 84.8643 57.4002 84.9639C58.0957 85.0635 58.832 84.8453 59.6112 84.3046L65.8142 79.9957C66.591 79.4574 67.0524 78.8456 67.1958 78.1626C67.3392 77.4796 67.1527 76.7706 66.634 76.0378C66.1249 75.3169 65.5201 74.9019 64.8198 74.7975C64.1194 74.6908 63.3808 74.909 62.6039 75.4473L56.401 79.7562C55.6241 80.2969 55.1652 80.9111 55.0265 81.5988C54.8879 82.2889 55.072 82.9932 55.5811 83.7142H55.5787Z" fill="black"/>
<path d="M59.6406 92.287L73.3636 82.7585L74.5468 84.4375L62.3656 92.8965L66.7089 99.0504L65.1671 100.12L59.6406 92.287Z" fill="black"/>
<path d="M66.9453 102.638L68.4871 101.569L70.4472 104.348L81.089 96.9587L79.1289 94.1794L80.6707 93.1099L85.8027 100.383L84.2609 101.453L82.3009 98.6733L71.6591 106.063L73.6191 108.842L72.0774 109.912L66.9453 102.638Z" fill="black"/>
<path d="M77.0539 117.374C76.4755 116.554 76.1289 115.733 76.0165 114.913C75.9042 114.092 76.0285 113.31 76.3918 112.568C76.7551 111.825 77.3432 111.171 78.1583 110.604L84.3612 106.295C85.1883 105.721 86.0129 105.394 86.8352 105.313C87.6575 105.233 88.4367 105.387 89.1754 105.773C89.914 106.16 90.5737 106.762 91.1522 107.583C91.7306 108.403 92.0701 109.224 92.1728 110.042C92.2732 110.86 92.1442 111.636 91.7832 112.368C91.4223 113.101 90.8343 113.748 90.0191 114.315L88.8359 112.636C89.6128 112.098 90.0693 111.479 90.2032 110.784C90.3371 110.089 90.1458 109.373 89.6295 108.64C89.1108 107.908 88.4965 107.478 87.7818 107.353C87.0671 107.227 86.3213 107.436 85.5444 107.974L79.3391 112.283C78.5622 112.824 78.1105 113.447 77.9838 114.154C77.8571 114.863 78.0531 115.582 78.5718 116.317C79.0905 117.05 79.7 117.474 80.4052 117.585C81.1104 117.697 81.8514 117.486 82.6282 116.945L83.8138 118.624C83.0107 119.181 82.198 119.504 81.3757 119.594C80.551 119.684 79.7694 119.542 79.0284 119.167C78.2874 118.793 77.6276 118.195 77.0492 117.374H77.0539Z" fill="black"/>
<path d="M84.1743 127.071L89.3063 123.507L95.0025 113.438L96.2646 115.228L92.4927 121.792C92.2847 122.16 92.1006 122.461 91.9429 122.701C91.7851 122.94 91.6656 123.106 91.5819 123.201C91.6991 123.156 91.9022 123.104 92.1867 123.045C92.4711 122.985 92.8249 122.921 93.2432 122.852L100.751 121.584L101.975 123.317L90.4895 125.179L85.3575 128.743L84.1719 127.064L84.1743 127.071Z" fill="black"/>
<path d="M119.229 136L82.5 136L174.102 0L200.625 17.3945L119.229 136Z" fill="#7F52FF"/>
<path d="M263.589 136L227 136L318.459 0L344.985 17.3945L263.589 136Z" fill="#FF6500"/>
<path d="M114.805 131.859L100.922 122.559L103.938 118.124C104.519 117.268 105.193 116.639 105.958 116.236C106.723 115.833 107.526 115.662 108.37 115.724C109.214 115.786 110.055 116.096 110.892 116.658C111.717 117.211 112.317 117.865 112.697 118.624C113.077 119.383 113.22 120.187 113.127 121.041C113.036 121.895 112.699 122.751 112.116 123.604L110.254 126.341L115.96 130.164L114.805 131.862V131.859ZM108.714 125.307L110.576 122.57C111.081 121.828 111.255 121.079 111.095 120.322C110.935 119.566 110.471 118.928 109.697 118.411C108.91 117.884 108.138 117.692 107.376 117.832C106.616 117.972 105.982 118.416 105.478 119.156L103.616 121.892L108.712 125.307H108.714Z" fill="white"/>
<path d="M122.258 120.899L108.375 111.598L111.265 107.353C111.822 106.535 112.477 105.93 113.232 105.539C113.988 105.147 114.779 104.981 115.606 105.041C116.433 105.1 117.246 105.396 118.044 105.932C118.983 106.561 119.624 107.339 119.971 108.268C120.317 109.198 120.353 110.146 120.081 111.116L128.059 112.369L126.788 114.237L119.055 112.985L117.501 115.269L123.396 119.217L122.253 120.896L122.258 120.899ZM115.964 114.237L117.712 111.671C118.19 110.967 118.352 110.251 118.192 109.52C118.032 108.792 117.585 108.181 116.851 107.687C116.103 107.187 115.362 107.002 114.626 107.13C113.892 107.26 113.285 107.678 112.804 108.382L111.057 110.948L115.964 114.235V114.237Z" fill="white"/>
<path d="M129.873 109.729L128.314 108.683L130.227 105.873L119.463 98.6615L117.551 101.472L115.992 100.426L121 93.0673L122.558 94.1131L120.646 96.9232L131.41 104.135L133.322 101.325L134.881 102.37L129.873 109.729Z" fill="white"/>
<path d="M139.024 96.2759L122.727 90.5228L123.907 88.7869L134.965 92.7614C135.735 93.0389 136.435 93.3116 137.066 93.5796C137.697 93.8475 138.175 94.0515 138.5 94.1961C138.242 93.9519 137.874 93.5796 137.391 93.0816C136.908 92.5836 136.392 92.0334 135.845 91.4287L127.952 82.8464L129.147 81.0916L140.602 93.9566L139.022 96.2783L139.024 96.2759Z" fill="white"/>
<path d="M144.06 88.8816L132.617 75.9976L134.171 73.7139L150.48 79.448L149.311 81.1649L145.006 79.5998L142.169 83.7688L145.243 87.1457L144.062 88.8816H144.06ZM140.955 82.4598L143.316 78.988L138.318 77.1786C137.369 76.8371 136.585 76.5383 135.961 76.2869C135.337 76.0355 134.936 75.8671 134.754 75.7818C134.902 75.9169 135.211 76.2252 135.679 76.7019C136.148 77.1809 136.712 77.788 137.374 78.5232L140.952 82.4598H140.955Z" fill="white"/>
<path d="M155.009 73.197C154.445 74.027 153.795 74.6412 153.064 75.0396C152.332 75.438 151.551 75.6016 150.721 75.5305C149.892 75.4617 149.065 75.1487 148.24 74.5961L141.965 70.3915C141.129 69.8319 140.526 69.1845 140.156 68.4517C139.788 67.7189 139.652 66.9411 139.75 66.1206C139.848 65.2977 140.18 64.4724 140.744 63.6424C141.308 62.8124 141.958 62.203 142.692 61.8164C143.426 61.4299 144.203 61.271 145.02 61.3445C145.838 61.4156 146.66 61.7287 147.485 62.2812L146.33 63.9792C145.544 63.4527 144.8 63.2511 144.098 63.3768C143.395 63.5001 142.79 63.9341 142.286 64.6764C141.781 65.4186 141.597 66.1419 141.736 66.8486C141.875 67.5553 142.336 68.1719 143.122 68.6983L149.397 72.9029C150.183 73.4294 150.932 73.6238 151.644 73.4887C152.356 73.3511 152.963 72.9124 153.468 72.1701C153.972 71.4279 154.151 70.7117 154.006 70.0169C153.86 69.3244 153.394 68.7126 152.607 68.1861L153.762 66.4881C154.572 67.0312 155.17 67.6691 155.547 68.3995C155.927 69.1299 156.073 69.9054 155.985 70.7259C155.896 71.5464 155.571 72.3717 155.005 73.2017L155.009 73.197Z" fill="white"/>
<path d="M161.583 63.1278L156.392 59.6489L144.875 57.9771L146.108 56.1653L153.638 57.3083C154.056 57.37 154.408 57.4316 154.69 57.4909C154.972 57.5526 155.173 57.6024 155.29 57.6451C155.206 57.5526 155.084 57.3842 154.926 57.1399C154.769 56.8981 154.582 56.5945 154.369 56.2317L150.488 49.7316L151.683 47.9767L157.549 57.9486L162.74 61.4275L161.586 63.1255L161.583 63.1278Z" fill="white"/>
<path d="M174.391 44.3176L160.508 35.0168L163.524 30.5822C164.108 29.7261 164.779 29.0977 165.544 28.6945C166.309 28.2914 167.112 28.1207 167.956 28.1823C168.8 28.244 169.641 28.5546 170.478 29.1167C171.303 29.6692 171.903 30.3237 172.283 31.0826C172.663 31.8415 172.806 32.6454 172.713 33.4991C172.622 34.3528 172.285 35.2089 171.702 36.0626L169.84 38.7993L175.545 42.622L174.391 44.32V44.3176ZM168.3 37.7653L170.162 35.0287C170.667 34.2864 170.841 33.537 170.681 32.7805C170.521 32.0241 170.057 31.3861 169.283 30.8692C168.496 30.3427 167.724 30.1506 166.962 30.2905C166.202 30.4304 165.568 30.8739 165.064 31.6138L163.202 34.3504L168.298 37.7653H168.3Z" fill="white"/>
<path d="M184.692 29.5767C183.853 30.8099 182.828 31.5427 181.618 31.7751C180.406 32.0075 179.13 31.6755 177.787 30.7743L171.892 26.8259C170.549 25.9247 169.76 24.8742 169.523 23.6742C169.286 22.4743 169.59 21.2553 170.429 20.0246C171.268 18.7914 172.294 18.0586 173.503 17.8262C174.713 17.5938 175.984 17.9235 177.316 18.8151L183.229 22.7778C184.573 23.679 185.362 24.7295 185.598 25.9294C185.832 27.1318 185.531 28.3483 184.692 29.5791V29.5767ZM183.153 28.5452C183.657 27.8029 183.834 27.0915 183.679 26.4109C183.523 25.7302 183.052 25.1255 182.266 24.5991L175.991 20.3945C175.205 19.868 174.466 19.6617 173.771 19.7732C173.078 19.8846 172.478 20.3115 171.971 21.0538C171.474 21.7842 171.302 22.4909 171.452 23.1786C171.603 23.8663 172.071 24.4734 172.858 24.9998L179.132 29.2044C179.919 29.7309 180.66 29.9348 181.36 29.8162C182.058 29.6977 182.656 29.2756 183.153 28.5452Z" fill="white"/>
<path d="M189.774 21.7153L175.891 12.4145L177.048 10.7166L189.37 18.9715L193.577 12.7845L195.135 13.8303L189.771 21.7153H189.774Z" fill="white"/>
<path d="M258.367 132.806L244.484 123.505L247.501 119.07C248.082 118.214 248.756 117.586 249.521 117.183C250.286 116.779 251.089 116.609 251.933 116.67C252.776 116.732 253.615 117.043 254.454 117.605C255.279 118.157 255.879 118.812 256.259 119.571C256.639 120.329 256.783 121.133 256.689 121.987C256.599 122.841 256.262 123.697 255.678 124.551L253.816 127.287L259.522 131.11L258.365 132.808L258.367 132.806ZM252.277 126.253L254.139 123.517C254.643 122.774 254.818 122.025 254.658 121.269C254.498 120.512 254.031 119.874 253.259 119.357C252.473 118.831 251.701 118.639 250.938 118.779C250.178 118.918 249.545 119.362 249.04 120.102L247.178 122.838L252.275 126.253H252.277Z" fill="white"/>
<path d="M265.836 121.845L251.953 112.544L254.843 108.299C255.4 107.481 256.055 106.876 256.81 106.485C257.566 106.094 258.357 105.928 259.184 105.987C260.011 106.046 260.824 106.343 261.622 106.879C262.561 107.507 263.202 108.285 263.549 109.215C263.895 110.144 263.931 111.093 263.659 112.063L271.638 113.315L270.366 115.184L262.633 113.931L261.079 116.215L266.974 120.164L265.831 121.843L265.836 121.845ZM259.542 115.184L261.29 112.618C261.768 111.913 261.93 111.197 261.77 110.467C261.612 109.739 261.163 109.127 260.429 108.634C259.681 108.133 258.94 107.948 258.204 108.076C257.47 108.207 256.863 108.624 256.382 109.328L254.635 111.894L259.542 115.181V115.184Z" fill="white"/>
<path d="M273.435 110.675L271.877 109.63L273.792 106.819L263.028 99.6078L261.113 102.418L259.555 101.372L264.562 94.0135L266.121 95.0594L264.206 97.8695L274.97 105.081L276.885 102.271L278.443 103.317L273.435 110.675Z" fill="white"/>
<path d="M282.586 97.2221L266.289 91.469L267.47 89.7331L278.528 93.7077C279.297 93.9851 279.998 94.2578 280.629 94.5258C281.26 94.7938 281.738 94.9977 282.063 95.1448C281.805 94.8981 281.437 94.5282 280.954 94.0302C280.471 93.5322 279.955 92.982 279.407 92.3773L271.514 83.795L272.71 82.0402L284.164 94.9052L282.584 97.2269L282.586 97.2221Z" fill="white"/>
<path d="M287.622 89.8279L276.18 76.9439L277.733 74.6602L294.043 80.3943L292.874 82.1112L288.569 80.5461L285.731 84.7151L288.805 88.092L287.625 89.8279H287.622ZM284.517 83.406L286.879 79.9343L281.881 78.1248C280.932 77.7834 280.148 77.4845 279.524 77.2332C278.902 76.9818 278.498 76.8134 278.317 76.7281C278.465 76.8632 278.773 77.1715 279.239 77.6482C279.708 78.1272 280.272 78.7343 280.934 79.4694L284.512 83.406H284.517Z" fill="white"/>
<path d="M298.572 74.1433C298.005 74.9733 297.358 75.5875 296.626 75.9859C295.895 76.3843 295.113 76.548 294.284 76.4768C293.454 76.408 292.627 76.095 291.802 75.5425L285.528 71.3379C284.691 70.7782 284.089 70.1308 283.718 69.3981C283.35 68.6653 283.214 67.8874 283.312 67.0669C283.41 66.244 283.742 65.4188 284.306 64.5888C284.871 63.7588 285.521 63.1493 286.255 62.7628C286.988 62.3762 287.765 62.2197 288.583 62.2908C289.4 62.362 290.222 62.675 291.047 63.2276L289.893 64.9255C289.106 64.399 288.363 64.1975 287.66 64.3232C286.957 64.4488 286.353 64.8804 285.848 65.6227C285.344 66.365 285.16 67.0883 285.298 67.795C285.437 68.5016 285.898 69.1182 286.685 69.6447L292.962 73.8493C293.748 74.3757 294.496 74.5702 295.209 74.4326C295.921 74.2951 296.528 73.8564 297.033 73.1141C297.537 72.3718 297.716 71.6557 297.57 70.9608C297.425 70.2684 296.958 69.6565 296.172 69.1301L297.329 67.4321C298.139 67.9752 298.737 68.6131 299.115 69.3435C299.495 70.0739 299.64 70.8494 299.552 71.6699C299.464 72.4904 299.138 73.3157 298.572 74.1457V74.1433Z" fill="white"/>
<path d="M305.146 64.0742L299.954 60.5953L288.438 58.9234L289.671 57.1116L297.2 58.2547C297.621 58.3163 297.97 58.378 298.252 58.4373C298.534 58.4989 298.735 58.5487 298.852 58.5914C298.769 58.4989 298.647 58.3305 298.489 58.0863C298.331 57.8444 298.145 57.5409 297.932 57.178L294.05 50.6755L295.245 48.9207L301.111 58.8926L306.303 62.3715L305.148 64.0694L305.146 64.0742Z" fill="white"/>
<path d="M317.953 45.2639L304.07 35.9631L307.087 31.5285C307.67 30.6724 308.342 30.044 309.107 29.6408C309.872 29.2377 310.675 29.0669 311.519 29.1286C312.362 29.1903 313.204 29.5009 314.04 30.0629C314.865 30.6155 315.465 31.27 315.845 32.0289C316.225 32.7877 316.369 33.5917 316.275 34.4454C316.185 35.2991 315.848 36.1552 315.264 37.0089L313.402 39.7456L319.108 43.5683L317.951 45.2663L317.953 45.2639ZM311.863 38.7116L313.725 35.975C314.229 35.2327 314.404 34.4833 314.244 33.7268C314.083 32.9703 313.617 32.3324 312.845 31.8154C312.059 31.289 311.284 31.0969 310.524 31.2368C309.764 31.3767 309.131 31.8202 308.626 32.5601L306.764 35.2967L311.86 38.7116H311.863Z" fill="white"/>
<path d="M328.254 30.523C327.415 31.7562 326.389 32.4889 325.18 32.7213C323.968 32.9537 322.691 32.6217 321.348 31.7206L315.453 27.7721C314.11 26.871 313.321 25.8204 313.085 24.6205C312.85 23.4182 313.152 22.2016 313.991 20.9708C314.83 19.7377 315.855 19.0049 317.065 18.7725C318.274 18.5401 319.546 18.8697 320.877 19.7614L326.791 23.7241C328.134 24.6252 328.923 25.6758 329.16 26.8757C329.394 28.0781 329.093 29.2946 328.254 30.5254V30.523ZM326.714 29.4914C327.219 28.7492 327.396 28.0377 327.24 27.3571C327.085 26.6765 326.614 26.0718 325.828 25.5454L319.553 21.3408C318.766 20.8143 318.028 20.608 317.332 20.7195C316.639 20.8309 316.037 21.2578 315.532 22C315.035 22.7305 314.863 23.4371 315.014 24.1249C315.164 24.8126 315.633 25.4197 316.419 25.9461L322.694 30.1507C323.48 30.6772 324.221 30.8811 324.922 30.7625C325.62 30.644 326.217 30.2218 326.714 29.4914Z" fill="white"/>
<path d="M333.336 22.6616L319.453 13.3608L320.608 11.6628L332.932 19.9178L337.17 13.6928L338.729 14.7386L333.336 22.664V22.6616Z" fill="white"/>
</g>
<defs>
<clipPath id="clip0_2224_91540">
<rect width="343" height="136" fill="white" transform="translate(16)"/>
</clipPath>
</defs>
</svg>
