<svg width="270" height="112" viewBox="0 0 270 112" fill="none" xmlns="http://www.w3.org/2000/svg">
<path fill-rule="evenodd" clip-rule="evenodd" d="M68.7535 42.0124L68.7143 70.5262C68.7143 72.3671 67.6565 74.0122 66.0109 74.7955L41.9147 86.4283C40.5825 87.055 39.0545 87.055 37.7223 86.4283L23.4997 79.4956L13.6653 74.678C12.0197 73.8947 10.9619 72.2105 11.0011 70.3696L11.0402 41.8557C11.0402 40.054 12.0589 38.4089 13.7045 37.5864L37.8399 25.6012C39.1721 24.9353 40.7784 24.9353 42.1106 25.6012L66.1675 37.6648C67.7348 38.5265 68.7535 40.2107 68.7535 42.0124Z" fill="#FF0211"/>
<path d="M59.7809 55.6426C66.9434 55.6426 72.7497 49.8382 72.7497 42.6782C72.7497 35.5181 66.9434 29.7137 59.7809 29.7137C52.6184 29.7137 46.812 35.5181 46.812 42.6782C46.812 49.8382 52.6184 55.6426 59.7809 55.6426Z" fill="#4DC9FF"/>
<path d="M18.9154 66.3745L16.3687 65.1211V57.6401C16.3687 55.4468 17.6224 53.2534 20.1692 53.5276C22.5592 53.7626 24.4007 55.8776 24.9492 57.2485C25.8504 56.4651 26.6732 56.2692 27.8486 56.4259C29.1416 56.5826 34.0784 58.4235 34.0784 65.082V73.8946L31.2965 72.5238V64.2594C31.2965 61.831 29.8077 59.8335 27.8094 59.5985C26.9866 59.5202 26.2814 60.186 26.2814 61.596C26.2814 63.0061 26.2814 70.0171 26.2814 70.0171L23.7347 68.7637V60.9302C23.7347 57.4443 21.5013 56.3868 20.5218 56.3084C19.9732 56.2693 18.9545 56.5826 18.9545 58.3451L18.9154 66.3745Z" fill="white"/>
<path d="M257.331 46.0074H251.415V71.2705H257.331V46.0074Z" fill="#222222"/>
<path d="M188.176 66.4137C183.239 66.4137 180.301 63.3195 180.301 59.0502C180.301 54.8201 182.534 51.2951 187.745 51.2951C190.449 51.3342 193.113 51.9609 195.503 53.136V47.6133C192.995 46.5558 190.331 46.0074 187.628 46.0074C179.595 46.0074 174.502 51.5301 174.502 59.0111C174.502 66.4921 180.066 71.4663 188.059 71.4663C190.801 71.4663 193.544 70.918 196.091 69.8604V64.4945C196.091 64.4945 192.251 66.4137 188.176 66.4137Z" fill="#222222"/>
<path d="M111.265 46.0074C107.778 46.0074 105.584 47.2608 103.311 49.9242C101.156 47.3391 98.6095 46.0074 95.2007 46.0074C88.7751 46.0074 84.3477 50.8642 84.3477 57.2877V71.2705H90.1464V56.7393C90.1464 53.6451 92.0271 51.3342 95.2007 51.3342C98.3744 51.3342 100.451 53.6451 100.451 56.7393V71.2705H106.171V56.7393C106.171 53.6451 108.091 51.3342 111.304 51.3342C114.517 51.3342 116.633 53.6451 116.633 56.7393V71.2705H122.431V57.2877C122.392 50.8642 117.73 46.0074 111.265 46.0074Z" fill="#222222"/>
<path d="M254.354 43.2265C256.15 43.2265 257.606 41.771 257.606 39.9756C257.606 38.1802 256.15 36.7247 254.354 36.7247C252.558 36.7247 251.102 38.1802 251.102 39.9756C251.102 41.771 252.558 43.2265 254.354 43.2265Z" fill="#222222"/>
<path d="M213.526 46.0074C206.082 46.0074 200.714 51.3342 200.714 58.6977C200.714 66.1787 205.769 71.388 213.017 71.388C216.504 71.388 219.443 69.3904 220.344 67.1187V71.2313H226.143V58.6977C226.103 51.0209 221.245 46.0074 213.526 46.0074ZM213.487 66.3354C209.256 66.3354 206.552 63.437 206.552 58.7369C206.552 54.3893 209.53 51.1384 213.487 51.1384C217.68 51.1384 220.266 54.1151 220.266 58.7369C220.266 62.4186 217.954 66.3354 213.487 66.3354Z" fill="#222222"/>
<path d="M168.585 51.2951C165.412 51.2951 163.531 53.9193 163.531 57.4444V71.2705H157.732V57.2877C157.732 50.8642 162.16 46.0074 168.585 46.0074H170.701V51.2951H168.585Z" fill="#222222"/>
<path d="M243.304 51.2951C240.13 51.2951 238.249 53.9193 238.249 57.4444V71.2705H232.451V57.2877C232.451 50.8642 236.878 46.0074 243.304 46.0074H245.419V51.2951H243.304Z" fill="#222222"/>
<path d="M140.298 46.0074C132.461 46.0074 127.76 52.3134 127.76 58.776C127.76 66.727 133.441 71.4271 141.316 71.4271C144.451 71.4271 147.546 70.8788 150.524 69.8213V64.7295C150.524 64.7295 145.9 66.6487 141.591 66.6487C137.241 66.6487 134.185 64.7295 133.637 60.8128H151.307C151.425 59.8727 151.503 58.9327 151.464 58.0319C151.503 51.0209 146.214 46.0074 140.298 46.0074ZM133.715 56.2301C134.538 51.9609 137.751 50.8642 140.18 50.8642C142.844 50.8642 145.979 52.5484 146.449 56.2301H133.715Z" fill="#222222"/>
</svg>
