<svg xmlns="http://www.w3.org/2000/svg" width="170" height="71" fill="none" viewBox="0 0 170 71"><path fill="#231f20" d="M170 0H0v70.965h170z"/><path fill="#fff" d="M45.9 57.629q-.972 0-1.491.64-.52.639-.579 1.612h3.89q0-.986-.417-1.62-.416-.632-1.402-.632m-21.671.053q-.905 0-1.409.666-.503.666-.503 2.012.001 1.38.476 2.032.477.653 1.384.653.575 0 1.011-.217.437-.217.748-.496v-3.997q-.45-.326-.854-.49a2.3 2.3 0 0 0-.853-.163m29.251-.053q-.972 0-1.492.64-.519.639-.579 1.612h3.89q0-.986-.416-1.62-.417-.632-1.403-.632"/><path fill="#fff" d="M2.959 50.772v17.62h85.71v-17.62zm63.924 2.613h1.514v1.693h-1.515zm-36.427 0h1.515v1.693h-1.515zm-17.984 1.939h-4.42v3.084h4.201v1.086h-4.2v3.89h4.419v1.093h-5.71V54.244h5.71zm7.153 9.153h-1.25v-5.043q0-.993-.331-1.365-.331-.375-1.105-.374-.47 0-.9.177a4.5 4.5 0 0 0-.926.536v6.069H13.85v-7.681h1.111l.179.64q.535-.48 1.068-.663a3.4 3.4 0 0 1 1.101-.183q1.145 0 1.73.682.585.683.586 2.009zm7.561-1.34q.007 2.053-.989 2.979-.996.925-2.808.925-.476 0-.96-.082a11 11 0 0 1-1.018-.23v-1.2h.298q.291.195.75.347.46.153 1.082.153 1.158 0 1.776-.516.62-.516.62-1.909v-.366q-.306.313-.851.586a2.6 2.6 0 0 1-1.194.273q-1.323 0-2.084-.956-.761-.955-.76-2.781 0-1.739.823-2.755t2.074-1.015q.581 0 1.051.192.47.194.927.574l.152-.56h1.111zm6.412 1.34h-4.677v-1h1.859v-5.689h-1.548v-.992h2.791v6.682h1.575zm7.492 0h-1.25v-5.043q0-.993-.331-1.365-.33-.375-1.105-.374-.47 0-.9.177a4.6 4.6 0 0 0-.926.536v6.069h-1.263v-7.681h1.111l.179.64q.535-.48 1.068-.663a3.4 3.4 0 0 1 1.101-.183q1.145 0 1.73.682.586.683.586 2.009zm7.834-3.657h-5.107q0 1.405.721 2.095t1.892.69a3.7 3.7 0 0 0 1.208-.2q.584-.201.903-.453h.317v1.159q-.648.273-1.29.416a6 6 0 0 1-1.276.143q-1.648 0-2.693-.965-1.045-.967-1.045-2.992 0-1.979.942-3.05.944-1.074 2.431-1.073 1.476 0 2.237.925.76.927.76 2.485zm7.582 0H51.4q0 1.405.721 2.095.72.69 1.892.69.622 0 1.208-.2.585-.201.903-.453h.317v1.159q-.648.273-1.29.416a6 6 0 0 1-1.277.143q-1.647 0-2.692-.965-1.046-.967-1.046-2.992 0-1.979.943-3.05.943-1.074 2.432-1.073 1.475 0 2.235.925.762.927.761 2.485zm7.529-2.745h-.344l-.196-.11a1.5 1.5 0 0 0-.237-.103 2.2 2.2 0 0 0-.745-.113 1.6 1.6 0 0 0-.658.14q-.307.14-.582.349-.275.21-.516.457l-.453.46v4.322h1.521v1h-3.943v-1h1.178v-5.689h-1.178v-.992h2.237l.171 1.34q.258-.294.55-.57.291-.278.588-.494.298-.215.596-.35.297-.132.575-.132.45 0 .804.056.353.057.632.15zm5.99 6.402h-4.677v-1h1.859v-5.689h-1.548v-.992h2.791v6.682h1.575zm7.492 0h-1.25v-5.043q0-.993-.331-1.365-.331-.375-1.105-.374-.47 0-.9.177a4.5 4.5 0 0 0-.926.536v6.069h-1.263v-7.681h1.111l.179.64q.535-.48 1.068-.663a3.4 3.4 0 0 1 1.101-.183q1.145 0 1.73.682.585.683.586 2.009zm7.561-1.34q.007 2.053-.989 2.979-.996.925-2.808.925-.477 0-.96-.082a11 11 0 0 1-1.018-.23v-1.2h.298q.291.195.75.347.46.153 1.082.153 1.158 0 1.776-.516.62-.516.62-1.909v-.366q-.305.313-.851.586a2.6 2.6 0 0 1-1.194.273q-1.323 0-2.084-.956-.761-.955-.76-2.781-.001-1.739.823-2.755.823-1.015 2.074-1.015.582 0 1.051.192.47.194.927.574l.152-.56h1.111z"/><path fill="#fff" d="M82.123 57.682q-.906 0-1.41.666-.502.666-.502 2.012 0 1.38.476 2.032.477.653 1.383.653.576 0 1.012-.217t.748-.496v-3.997q-.45-.326-.854-.49a2.3 2.3 0 0 0-.853-.163M7.272 6.55h3.533c3.228 0 4.654 1.033 4.654 3.133 0 1.824-1.426 3.064-4.28 3.064H7.272zM2.99 27.205h8.664c4.553 0 9.106-1.652 9.106-6.954 0-3.131-2.175-5.542-5.199-5.885v-.07c2.48-.756 4.18-2.58 4.18-5.335 0-4.44-3.738-6.127-7.373-6.127H2.99zm4.282-10.74h4.11c3.466 0 5.097.894 5.097 3.442 0 3.202-3.058 3.58-5.267 3.58h-3.94zM27.63 2.256h-4.077v24.947h4.077zm6.804 16.686c0-2.581 1.801-4.956 4.792-4.956 2.989 0 4.79 2.375 4.79 4.956s-1.801 4.958-4.79 4.958c-2.991 0-4.792-2.375-4.792-4.958m-4.077 0c0 5.199 3.941 8.675 8.869 8.675 4.925 0 8.866-3.476 8.866-8.675 0-5.197-3.94-8.674-8.866-8.674-4.928 0-8.869 3.477-8.869 8.674m23.655 0c0-2.581 1.802-4.956 4.791-4.956s4.79 2.375 4.79 4.956-1.8 4.958-4.79 4.958-4.79-2.375-4.79-4.958m-4.077 0c0 5.199 3.942 8.675 8.868 8.675s8.868-3.476 8.868-8.675c0-5.197-3.942-8.674-8.868-8.674s-8.867 3.477-8.867 8.674M70.16 10.68h3.873v2.582h.067c.714-1.547 2.277-2.994 4.995-2.994 2.515 0 4.247.998 5.097 3.064 1.189-2.1 2.92-3.064 5.367-3.064 4.35 0 5.878 3.132 5.878 7.09v9.846H91.36v-9.362c0-2.066-.611-3.856-3.023-3.856-2.549 0-3.5 2.134-3.5 4.267v8.95H80.76v-9.845c0-2.03-.816-3.372-2.786-3.372-2.684 0-3.737 1.997-3.737 4.2v9.018H70.16zm42.105 8.262c0 2.582-1.801 4.958-4.791 4.958-2.989 0-4.79-2.375-4.79-4.958 0-2.581 1.801-4.956 4.79-4.956 2.99 0 4.791 2.375 4.791 4.956m-13.523 8.262h3.873v-2.479h.069c1.189 1.996 3.329 2.892 5.606 2.892 5.028 0 8.051-3.786 8.051-8.675 0-4.886-3.227-8.674-7.882-8.674-3.057 0-4.689 1.447-5.537 2.513h-.103V2.257h-4.077zm23.517-9.913c.306-2.376 1.801-3.925 4.213-3.925 2.548 0 4.111 1.514 4.145 3.925zm12.435 3.096v-1.134c0-5.748-3.091-8.985-7.645-8.985-4.926 0-8.867 3.477-8.867 8.674 0 5.199 3.941 8.675 8.867 8.675 2.583 0 4.994-.931 6.897-3.305l-2.921-2.236c-1.018 1.273-2.344 2.236-4.383 2.236-2.276 0-4.111-1.479-4.383-3.925zm2.661-9.707h4.077v2.617h.069c.883-1.892 2.683-3.03 4.824-3.03.51 0 .986.105 1.46.242v3.993c-.679-.172-1.325-.31-1.969-.31-3.84 0-4.384 3.271-4.384 4.166v8.846h-4.077zm19.546 3.306c2.956 0 4.825 1.997 4.825 4.853 0 2.755-1.834 4.854-4.859 4.854-2.752 0-4.79-2.169-4.79-4.785 0-2.925 1.971-4.922 4.824-4.922m4.825-3.305v2.48h-.068c-1.189-1.998-3.329-2.893-5.606-2.893-5.029 0-8.052 3.788-8.052 8.674 0 4.681 3.228 8.469 8.119 8.469 2.039 0 4.146-.792 5.335-2.41h.067v1.206c0 3.27-1.223 5.54-5.163 5.54-2.277 0-3.975-.86-5.607-2.375l-2.446 3.374c2.311 2.066 5.063 2.719 8.087 2.719 6.353 0 9.207-3.786 9.207-9.74V10.68z"/></svg>