<svg xmlns="http://www.w3.org/2000/svg" width="270" height="100" viewBox="0 0 270 100"><path fill="#1c0d1f" fill-rule="evenodd" d="m41.926 35.871-4.689 16.525h8.367l4.689-16.525z" clip-rule="evenodd" style="stroke-width:1"/><path fill="#1c0d1f" fill-rule="evenodd" d="M41.193 9.654C27.711 6.924 19.528 11.306 14.4 20.229c-4.219 7.336-6.753 18.846-6.753 30.219 0 7.366 1.063 14.781 2.961 21.083h29.503l2.167-7.491H28.965c-1.601 0-2.868-.629-3.704-1.914v-.005l-.005-.006c-.808-1.302-.949-2.728-.557-4.298l1.102-3.997 6.94-24.303c.391-1.441 1.199-2.666 2.401-3.667 1.213-1.065 2.565-1.62 4.047-1.62h19.375c1.65 0 2.931.659 3.715 2.016.809 1.314.968 2.804.52 4.419a825 825 0 0 1-3.129 10.849q-1.362 4.766-2.725 9.599l18.74-8.18c.318-.18.673-.268 1.044-.195.379.073.694.289.957.571.514.552.649 1.245.446 1.977v.005l-2.202 7.68c-.096.607-.489 1.026-1.041 1.25l-21.47 9.301s-1.465 5.169-1.984 7.053a574 574 0 0 1-2.028 7.205l-.071.214c-.026.076-.13.36-.13.36-.5 1.318-1.361 2.421-2.561 3.301-1.158.946-2.425 1.438-3.796 1.438H16.077c5.687 7.191 15.855 10.296 25.242 7.445 22.97-6.978 51.48-22.492 51.48-40.087S63.701 14.208 41.193 9.654" clip-rule="evenodd" style="stroke-width:1"/><path fill="#1c0d1f" d="M186.254 28.576h-4.213l4.625-17.01q.422-1.425-.336-2.494-.759-1.158-2.188-1.158h-2.271c-1.705 0-2.804.505-4.039 1.514q-1.766 1.512-2.441 3.652c-1.516 5.176-3.019 10.322-4.517 15.453h-3.324c-.829 0-1.544.575-1.724 1.384l-1.571 7.07a1.766 1.766 0 0 0 1.726 2.149h1.805A2811 2811 0 0 1 160.5 64.29c-.738 2.509-.177 4.93 2.385 5.872 1.049.388 2.25.399 3.321.403 1.436 0 3.582-.145 4.267-1.978 1.424-3.808 7.948-28.7 7.948-28.7h5.143c.776 0 1.458-.503 1.687-1.245.652-2.119 1.801-5.857 2.531-8.181.562-1.473-.632-1.885-1.528-1.885m-24.997 3.032-7.388 26.103-2.463 8.71c-.177.748-.585 2.11-.757 2.411-.21.375-.471.713-.834.949-.365.235-.778.367-1.189.473a9 9 0 0 1-1.935.296 8.6 8.6 0 0 1-1.927-.118 6.4 6.4 0 0 1-1.743-.575 4.4 4.4 0 0 1-1.35-1.047 3.8 3.8 0 0 1-.781-1.54c-.162-.674-.147-1.379-.029-2.057q.076-.421.197-.832l8.749-30.552c.794-2.657 2.547-4.947 6.48-5.247 1.87-.145 5.779-.019 4.967 3.026zm-5.389-16.681c-.72.652-1.392 1.818-1.774 3.055-.38 1.229-.482 2.559-.262 3.503.275 1.158 1.418 2.011 2.698 2.029 2.813.037 6.539-.664 7.132-2.578.592-1.914-2.051-4.955-4.43-6.231-1.421-.765-2.488-.572-3.364.222" style="stroke-width:1"/><path fill="#1c0d1f" d="M154.266 53.013c-.434-.44-.989-.533-1.585-.322-.496.175-15.109 5.284-15.109 5.284h-.171q1.672-5.836 3.367-11.668a955 955 0 0 0 3.45-11.755q.67-2.402-.506-4.274-1.094-1.868-3.533-1.868h-21.371q-2.189 0-4.039 1.603-1.853 1.515-2.441 3.652l-8.918 30.638q-.587 2.316.59 4.186 1.176 1.78 3.534 1.781H123.1l-2.777 9.441h-19.689c-.448 0-.984.02-1.376.315-.451.297-.617.813-.729 1.288l-1.092 3.563q-.675 2.581.672 4.275 1.345 1.78 3.787 1.78h20.951q2.018 0 3.786-1.424 1.852-1.337 2.607-3.296 0-.087.17-.445c.784-2.671 4.542-15.852 4.542-15.852s17.499-6.118 17.502-6.126c.446-.177.605-.375.756-.89.616-2.091 2.435-8.357 2.45-8.417.14-.63.025-1.045-.394-1.469m-27.887 5.947h-10.601l5.553-19.235h10.603zm123.323-19.072h-10.603s-6.256 21.33-8.325 28.527c-.134.47-.35 1.118-.976 1.56-.943.664-2.959.679-4.585.478-1.626-.198-2.83-.643-3.616-1.891q-1.095-1.87-.421-4.275l8.834-30.457q.67-2.137 2.525-3.652 1.933-1.604 4.039-1.604h21.371q2.187 0 3.366 1.604 1.263 1.603.842 3.829a15 15 0 0 1-.253.89l-2.354 8.015q-.59 2.137-2.441 3.652t-4.039 1.515h-2.441q-1.345 0-2.104-1.07-.674-1.07-.252-2.406z" style="stroke-width:1"/><path fill="#1c0d1f" d="M232.525 53.61c-.327-.304-.818-.466-1.431-.268l-15.31 4.638h-.084l5.638-19.234 1.261-4.364q.588-2.318-.588-4.098-1.178-1.869-3.533-1.869h-21.371q-2.105 0-3.953 1.515-1.77 1.422-2.441 3.472a343 343 0 0 0-4.629 15.408 1451 1451 0 0 1-4.375 15.407q-.674 2.315.42 4.186c.845 1.327 2.083 1.843 4.132 1.869h.407c2.07-.026 4.226-.557 6.766-1.798l9.979-5.324-.335 1.07c-.448 1.542-.363 2.959.505 4.185.784 1.108 1.955 1.753 4.194 1.892 2.481.155 4.276-.364 5.316-.685 4.454-1.381 16.571-5.226 16.571-5.226q.587-.265.842-.89l2.441-8.371c.169-.655 0-1.125-.422-1.515m-25.575-2.663-12.537 6.678 5.217-17.9h10.598z" style="stroke-width:1"/></svg>