<svg xmlns="http://www.w3.org/2000/svg" width="251" height="64" fill="none" viewBox="0 0 251 64"><path fill="#f0a698" d="M61.818 21.482h4.825v8.948l7.048-8.948h4.738l-6.668 8.89 7.604 11.464h-5.206l-5.205-7.691-2.31 3.099v4.592h-4.826z"/><path fill="#f0a698" d="M93.088 31.628c0-3.363-1.725-6.375-4.737-6.375-3.071 0-4.826 2.895-4.826 6.375 0 3.51 1.755 6.375 4.826 6.375 3.012 0 4.737-3.012 4.737-6.375m-14.914 0c0-6.434 4.27-10.381 10.147-10.381 5.879 0 10.236 3.947 10.236 10.381 0 6.463-4.387 10.381-10.236 10.381-5.79 0-10.147-3.918-10.147-10.38m27.661-6.258v12.575h2.72c2.924 0 5.029-2.281 5.029-6.522 0-3.743-1.783-6.053-4.883-6.053zm-4.796-3.89h8.013c5.556 0 9.65 3.685 9.65 10.031 0 6.61-4.357 10.324-9.767 10.324h-7.896zm20.354.001h13.569v3.977h-8.803v3.655h8.364v3.773h-8.364v4.971h8.803v3.978h-13.569zm20.94-.003h-4.825v20.353h4.825zm3.132.003h4.533l7.837 10.907c.292.556.877 1.55.994 1.785l.117-.03c-.058-.497-.117-1.813-.117-2.807v-9.855h4.153v20.354h-4.445l-8.013-11.055c-.263-.526-.819-1.461-.936-1.696l-.117.03c.059.614.117 1.783.117 2.573v10.148h-4.123zm21.463 0h1.784v11.375l9.387-11.375h1.959l-7.398 9.095 8.334 11.259h-2.047l-7.428-9.885-2.807 3.48v6.405h-1.784zm26.583 12.72c0-3.714-1.9-6.17-5.117-6.17s-5.147 2.456-5.147 6.17c0 3.51 1.93 6.23 5.147 6.23s5.117-2.72 5.117-6.23m-12.107 0c0-4.883 2.983-7.837 6.99-7.837s6.96 2.954 6.96 7.837c0 4.884-2.954 7.808-6.96 7.808s-6.99-2.924-6.99-7.808m28.397.088c0-3.743-1.931-6.374-5.03-6.374-3.071 0-5.001 2.544-5.001 6.316 0 3.685 1.842 6.229 5.001 6.229 3.158 0 5.03-2.632 5.03-6.17m-11.961-.029c0-4.854 2.866-7.866 6.668-7.866 2.573 0 4.298 1.286 5.176 2.953V20.78h1.784v21.055h-1.609l-.117-2.983c-1.111 2.048-3.099 3.159-5.352 3.159-3.743 0-6.55-2.632-6.55-7.75m18.889-1.375h9.299c-.087-3.042-1.929-4.854-4.59-4.854-2.545 0-4.357 1.87-4.709 4.854m-1.872 1.111c0-4.533 2.925-7.632 6.581-7.632 4.24 0 6.374 3.1 6.228 7.252l-.029.585h-10.966c.117 4.211 2.807 6.346 6.141 6.346 1.959 0 3.538-.673 4.621-1.346v1.463c-1.112.79-2.72 1.374-4.913 1.374-4.212 0-7.663-2.72-7.663-8.042m16.26-7.367h1.609l.146 3.1c.818-2.136 2.485-3.335 4.328-3.335.877 0 1.374.117 1.871.38v1.843c-.613-.293-1.227-.468-2.105-.468-2.223 0-4.065 2.193-4.065 5.147v8.54h-1.784zm9.275 14.417v-1.521c1.404.643 2.72 1.053 4.68 1.053 2.047 0 3.655-.79 3.655-2.486 0-1.754-1.199-2.31-4.299-3.597-3.334-1.375-4.094-2.281-4.094-4.182 0-2.222 2.047-3.919 5.469-3.919 1.93 0 3.275.41 4.211.82v1.608c-1.199-.498-2.427-.936-4.182-.936-2.282 0-3.714.76-3.714 2.34 0 1.286.76 1.959 3.89 3.216 3.011 1.229 4.503 2.106 4.503 4.504 0 2.749-2.603 4.094-5.381 4.094-2.047 0-3.655-.439-4.738-.994"/><path fill="#f0a698" stroke="#f0a698" stroke-miterlimit="9.799" stroke-width="1.021" d="M49.964 21.995C49.964 7.233 39.676.51 30.117.51 20.2.51 13.276 6.261 13.276 14.497c0 1.372.162 2.657.477 3.85C6.069 23.893.51 32.623.51 41.261c0 14.761 10.288 21.484 19.847 21.484 9.917 0 16.842-5.75 16.842-13.985 0-1.373-.162-2.659-.478-3.85 7.684-5.549 13.243-14.279 13.243-22.916ZM35.5 41.929c-2.623-4.571-8.182-7.155-15.943-7.155l-.031.004-.063-.004c-4.416 0-8.007 3.592-8.007 8.008s3.592 8.008 8.007 8.008c.11 0 .216-.012.324-.016.055.005.107.016.163.016 4.812 0 9.65-1.529 13.997-4.071.101.636.161 1.312.161 2.042 0 6.517-5.526 10.895-13.75 10.895C12.286 59.656 3.6 53.9 3.6 41.262c0-7.34 4.78-14.923 11.374-19.935 2.623 4.572 8.182 7.156 15.943 7.156l.031-.003.063.003c4.415 0 8.007-3.592 8.007-8.008s-3.592-8.008-8.007-8.008c-.11 0-.216.012-.324.016-.054-.006-.107-.016-.163-.016-4.811 0-9.649 1.528-13.996 4.071a13 13 0 0 1-.162-2.041c0-6.517 5.526-10.896 13.75-10.896 8.071 0 16.757 5.756 16.757 18.394 0 7.34-4.779 14.923-11.373 19.934Zm-16.037-4.064a4.923 4.923 0 0 1 4.918 4.917 4.924 4.924 0 0 1-4.918 4.918 4.924 4.924 0 0 1-4.917-4.918 4.923 4.923 0 0 1 4.917-4.917Zm6.916.898c2.68.805 5.183 2.281 6.579 4.914-2.065 1.276-4.255 2.293-6.495 2.987a7.96 7.96 0 0 0-.084-7.9Zm4.632-13.371a4.923 4.923 0 0 1-4.918-4.917 4.923 4.923 0 0 1 4.918-4.918 4.923 4.923 0 0 1 4.917 4.918 4.923 4.923 0 0 1-4.917 4.917Zm-6.916-.898c-2.679-.805-5.182-2.282-6.579-4.914 2.065-1.276 4.255-2.292 6.495-2.986a7.96 7.96 0 0 0 .084 7.9Z"/></svg>