<svg xmlns="http://www.w3.org/2000/svg" width="210" height="50" fill="none" viewBox="0 0 210 50"><path fill="#000" d="M63.508 21.352V0h3.657v9.685L75.968 0h4.508l-9.35 10.295 9.532 11.057h-4.644l-8.849-10.203v10.203z"/><path fill="#000" d="M88.245 21.718q-2.323 0-4.204-1.053a7.6 7.6 0 0 1-2.93-2.913q-1.062-1.875-1.062-4.209t1.063-4.194a7.57 7.57 0 0 1 2.944-2.928q1.882-1.053 4.204-1.053t4.189 1.053a7.6 7.6 0 0 1 2.929 2.913q1.062 1.86 1.062 4.21 0 2.348-1.062 4.208a7.6 7.6 0 0 1-2.93 2.913q-1.866 1.053-4.203 1.053m.03-3.264q1.26 0 2.261-.61a4.37 4.37 0 0 0 1.579-1.739q.576-1.113.577-2.562 0-1.449-.577-2.562-.576-1.128-1.594-1.739-1.002-.625-2.261-.625t-2.292.625q-1.017.61-1.593 1.739-.577 1.113-.577 2.562t.577 2.562a4.33 4.33 0 0 0 1.593 1.739q1.032.61 2.307.61m15.536 2.898q-1.35 0-2.382-.55a4 4 0 0 1-1.61-1.54q-.576-.99-.576-2.287l-.015-8.114h-2.732l.015-3.127h1.7q.577 0 .926-.35.35-.366.349-.93V1.936h3.354v3.797h3.734l-.016 3.127h-3.718v7.656q0 .504.212.9.228.38.608.595.38.213.88.213h2.018v3.127zm4.502 0V0h3.597v21.352zm6.486 0V5.734h3.612v15.618zM114.632 0h3.916v3.447h-3.916zm6.653 21.352V5.734h3.506v6.452l-.88.046q0-2.227.728-3.768.744-1.54 2.034-2.318 1.29-.777 2.96-.778 1.67 0 2.944.732 1.275.733 1.988 2.136.729 1.387.729 3.294v9.822h-3.613v-9.258q0-1.129-.394-1.921a2.66 2.66 0 0 0-1.108-1.205q-.729-.412-1.761-.412t-1.836.488a3.3 3.3 0 0 0-1.26 1.327q-.44.855-.44 1.952v9.029zM63.508 49.143V27.79h14.175v3.493H67.226v5.871h9.85v3.493h-9.85v8.495zm22.958.366q-2.323 0-4.204-1.053a7.6 7.6 0 0 1-2.93-2.912q-1.06-1.876-1.061-4.21t1.062-4.194a7.57 7.57 0 0 1 2.944-2.928q1.882-1.052 4.204-1.052t4.19 1.052a7.6 7.6 0 0 1 2.928 2.913q1.063 1.86 1.063 4.21 0 2.347-1.062 4.209a7.6 7.6 0 0 1-2.93 2.913q-1.866 1.052-4.204 1.052m.03-3.264q1.26 0 2.262-.61a4.37 4.37 0 0 0 1.578-1.739q.577-1.113.577-2.562t-.577-2.562q-.576-1.128-1.593-1.739-1.002-.624-2.262-.625-1.26 0-2.291.625-1.017.61-1.594 1.739-.577 1.113-.577 2.562t.577 2.562a4.33 4.33 0 0 0 1.594 1.74q1.032.61 2.307.61m23.565-12.72v15.617h-3.506v-6.451l.88-.046q0 2.226-.744 3.767-.728 1.54-2.018 2.318t-2.96.778-2.944-.732-2.004-2.12q-.713-1.403-.713-3.31v-9.821h3.612v9.257q0 1.128.38 1.922.394.793 1.123 1.205.728.411 1.76.411t1.837-.472a3.3 3.3 0 0 0 1.244-1.342q.456-.854.456-1.953v-9.028zm2.876 15.617V33.526h3.506v6.45l-.881.047q0-2.227.729-3.767.743-1.54 2.034-2.319 1.29-.777 2.959-.777t2.944.732 1.989 2.135q.728 1.388.728 3.294v9.822h-3.612v-9.258q0-1.129-.395-1.921a2.66 2.66 0 0 0-1.108-1.205q-.728-.412-1.76-.412t-1.837.488a3.3 3.3 0 0 0-1.259 1.327q-.44.854-.44 1.952v9.029zm31.5 0h-3.597V27.79h3.597zm-8.773.366q-2.064 0-3.748-1.053-1.67-1.066-2.626-2.928-.956-1.86-.956-4.194t.956-4.194 2.626-2.913q1.67-1.068 3.748-1.067 1.897 0 3.37.945 1.487.93 2.307 2.639.835 1.707.85 3.92h-1.23v1.356h1.23q-.016 2.212-.85 3.92-.82 1.693-2.292 2.639-1.472.93-3.385.93m.79-3.249q1.29 0 2.291-.625a4.13 4.13 0 0 0 1.564-1.739q.561-1.113.561-2.562t-.561-2.562a4.13 4.13 0 0 0-1.564-1.739q-1-.624-2.291-.625-1.29 0-2.292.625-.987.626-1.548 1.739-.546 1.113-.547 2.562 0 1.449.547 2.562.561 1.114 1.548 1.74 1.002.624 2.292.624m16.977-13.1q1.897 0 3.339.686 1.442.67 2.246 1.952.805 1.266.805 3.005v10.34h-3.491l-.015-5.841h.835q0 1.935-.683 3.34a4.8 4.8 0 0 1-1.973 2.135q-1.305.732-3.127.732-1.517 0-2.717-.564-1.198-.58-1.866-1.602-.668-1.036-.668-2.349 0-1.25.637-2.302a5.1 5.1 0 0 1 1.791-1.724q1.153-.686 2.611-.839l4.128-.427q.47-.045.728-.35.274-.306.274-.885l.167 3.432-4.432.503a2.8 2.8 0 0 0-1.169.35 2.2 2.2 0 0 0-.789.763q-.273.458-.273 1.068 0 .64.334 1.144.348.502.971.777.622.275 1.411.275 1.138 0 1.989-.427a3.24 3.24 0 0 0 1.32-1.235q.471-.794.471-1.815v-4.804q0-.748-.38-1.312-.365-.564-1.047-.87-.667-.32-1.533-.32-.88 0-1.578.305a2.9 2.9 0 0 0-1.124.793q-.425.504-.5 1.114h-3.567a4.85 4.85 0 0 1 1.078-2.608q.925-1.145 2.428-1.785 1.518-.655 3.369-.655m14.533 15.983q-1.351 0-2.383-.55a4 4 0 0 1-1.609-1.54q-.577-.99-.577-2.287l-.015-8.114h-2.732l.015-3.126h1.7q.577 0 .926-.351.35-.366.349-.93v-2.517h3.354v3.798h3.734l-.015 3.126h-3.719v7.656q0 .504.213.9.228.382.607.595.38.213.88.213h2.019v3.127zm4.502 0V33.526h3.612v15.617zM172.3 27.79h3.915v3.447H172.3zm13.725 21.719q-2.322 0-4.204-1.053a7.6 7.6 0 0 1-2.929-2.912q-1.062-1.876-1.063-4.21t1.063-4.194a7.57 7.57 0 0 1 2.944-2.928q1.882-1.052 4.204-1.052t4.189 1.052a7.6 7.6 0 0 1 2.929 2.913q1.063 1.86 1.063 4.21 0 2.347-1.063 4.209a7.6 7.6 0 0 1-2.929 2.913q-1.867 1.052-4.204 1.052m.03-3.264q1.26 0 2.262-.61a4.36 4.36 0 0 0 1.578-1.739q.577-1.113.577-2.562t-.577-2.562q-.576-1.128-1.593-1.739-1.002-.624-2.262-.625-1.26 0-2.291.625-1.018.61-1.594 1.739-.577 1.113-.577 2.562t.577 2.562a4.33 4.33 0 0 0 1.594 1.74q1.032.61 2.306.61m9.936 2.897V33.526h3.506v6.45l-.88.047q0-2.227.728-3.767.744-1.54 2.034-2.319 1.29-.777 2.96-.777t2.944.732q1.275.732 1.988 2.135.729 1.388.729 3.294v9.822h-3.612v-9.258q0-1.129-.395-1.921a2.66 2.66 0 0 0-1.108-1.205q-.728-.412-1.76-.412t-1.837.488a3.3 3.3 0 0 0-1.26 1.327q-.44.854-.44 1.952v9.029z"/><path fill="url(#paint0_radial_9147_23265)" d="M49.167 49.167H0V0h49.167L24.075 24.228z"/><defs><radialGradient id="paint0_radial_9147_23265" cx="0" cy="0" r="1" gradientTransform="translate(47.534 2.021)scale(56.3206)" gradientUnits="userSpaceOnUse"><stop offset=".003" stop-color="#ef4857"/><stop offset=".469" stop-color="#d211ec"/><stop offset="1" stop-color="#7f52ff"/></radialGradient></defs></svg>