<svg xmlns="http://www.w3.org/2000/svg" width="150" height="105" fill="none" viewBox="0 0 150 105"><path fill="#55c4a4" d="M50.988 73.962c-2.187-17.65-8.245-33.944-17.594-46.94a77 77 0 0 0-7.886-9.341 75 75 0 0 0-7.537 7.626c11.282 11.33 19.425 28.627 22.163 48.655zm-19.958 0c-2.056-13.176-6.805-25.318-13.89-35.14a64 64 0 0 0-4.852-5.956 75 75 0 0 0-5.53 9.98c6.459 8.055 11.214 18.852 13.38 31.116zM2.826 53.523A75 75 0 0 0 0 73.962h10.926c-1.572-7.472-4.315-14.423-8.1-20.44m87.913 20.44c3.209-27.907 15.092-46.694 25.304-58.033a95 95 0 0 1 2.53-2.692 75 75 0 0 0-4.358-2.917 95 95 0 0 0-2.009 2.153c-8.698 9.659-18.552 24.44-23.77 45.238-1.598-8.391-3.845-16.498-6.707-24.203 5.664-12.674 12.7-22.47 19.181-29.71a74 74 0 0 0-5.327-1.756c-5.566 6.467-11.416 14.716-16.47 24.914-3.643-8.464-8.06-16.367-13.204-23.538A113 113 0 0 0 63.349 0 74.4 74.4 0 0 0 51.75 2.757c8.981 10.392 16.308 23.563 21.327 38.585a132.5 132.5 0 0 0-4.698 17.093c-3.535-16.12-9.893-30.914-18.727-43.215a93 93 0 0 0-7.132-8.78 75 75 0 0 0-9.58 5.499c14.194 14.37 24.25 36.508 27.095 62.023h11.242c.837-8.647 2.38-16.57 4.425-23.795 1.984 7.577 3.4 15.544 4.176 23.795zm19.522 0c3.081-21.791 12.547-36.601 20.726-45.673a78 78 0 0 1 1.696-1.817 75 75 0 0 0-3.451-3.91c-11.534 11.813-21.175 28.951-24.185 51.4zm19.608 0c2.471-13.507 8.029-23.407 13.44-30.234a74 74 0 0 0-2.497-5.115c-7.514 8.779-13.657 20.564-16.183 35.349zm18.827-12.098a57.2 57.2 0 0 0-4.296 12.098h5.275c0-4.12-.339-8.16-.979-12.098M72.367 84.82h-4.285v19.074h11.757v-3.763h-7.472zm31.173 0h-1.55v19.074h10.242v-1.392h-8.692zm10.476 19.074h1.55V84.821h-1.55zm26.609-1.392v-7.7h8.431v-1.36h-8.431v-7.23h9.06v-1.391h-10.609v19.073H150v-1.392zm-6.725 0h-.314l-11.048-17.681h-2.786v19.073h1.543V86.212h.376l11.048 17.682h2.727V84.821H133.9zm-114.539-2.371h-.32L15.9 85.344h-4.46L8.634 100.13H8.22L4.395 84.82H.008l4.704 19.073h6.57l2.363-11.617 2.545 11.617h6.702l4.18-19.073h-4.405zm74.818-3.241c-.542 1.415-1.544 2.418-2.966 2.953q-1.071.405-2.43.405h-2.879V88.412h2.88q1.358 0 2.43.366c1.423.482 2.424 1.48 2.965 2.873.534 1.48.546 3.738 0 5.24m2.28-9.405c-2.032-1.988-4.7-2.83-7.76-2.823h-7.08v19.335h7.08q2.587 0 4.52-.797c2.431-.98 4.278-2.832 5.187-5.186.507-1.294.68-2.635.64-3.997-.003-2.445-.834-4.8-2.587-6.532m-59.104 13.028c-3.631 0-5.718-2.857-5.718-6.173 0-3.44 1.957-6.174 5.718-6.174 3.189 0 5.719 2.199 5.719 6.174 0 3.336-2.128 6.173-5.719 6.173m4.404-15.42c-2.438-1.133-6.419-1.13-8.844 0-2.418 1.064-4.23 3.004-5.122 5.41-.505 1.343-.678 2.7-.64 4.088.035 3.65 2.229 7.331 5.683 8.91 2.45 1.219 6.564 1.219 9.014 0 3.454-1.578 5.65-5.26 5.683-8.91.11-2.61-.777-5.28-2.587-7.237q-1.28-1.411-3.187-2.26m18.372 7.865c-.563.985-1.52 1.454-2.691 1.45h-3.428v-5.997h3.428c.627 0 1.167.009 1.62.261q.68.38 1.071 1.072c.514.878.532 2.318 0 3.213m3.901 2.037c.71-.994 1.008-2.468.953-3.932q0-2.115-.94-3.54c-1.484-2.191-4.066-2.84-6.82-2.862h-7.498v19.231h4.285v-5.906c.084 0 3.153.003 3.245 0l4.044 5.906h4.964l-4.871-6.83q1.698-.692 2.638-2.067"/></svg>