<svg width="270" height="112" viewBox="0 0 270 112" fill="none" xmlns="http://www.w3.org/2000/svg">
<path d="M129.538 37.6484V48.5761C128.206 49.5553 126.756 50.2994 125.15 50.7694C123.543 51.2395 121.858 51.4745 120.174 51.4745C118.136 51.5136 116.099 51.1611 114.218 50.4561C112.494 49.8294 110.966 48.8111 109.634 47.5577C108.341 46.3435 107.362 44.8552 106.696 43.2101C105.99 41.4476 105.638 39.5676 105.677 37.6875C105.638 35.7683 105.99 33.8883 106.656 32.1257C107.283 30.4807 108.224 28.9923 109.438 27.7781C110.692 26.5248 112.22 25.5848 113.866 24.9581C115.707 24.2531 117.705 23.9397 119.664 23.9397C120.683 23.9397 121.702 24.0181 122.72 24.2139C123.622 24.3706 124.523 24.6056 125.385 24.9189C126.168 25.1931 126.913 25.5848 127.618 26.0156C128.284 26.4465 128.872 26.9165 129.46 27.4648L128.01 29.7365C127.814 30.0499 127.501 30.324 127.148 30.4024C126.717 30.4807 126.325 30.3632 125.972 30.1282L124.758 29.4232C124.327 29.1882 123.896 28.9924 123.426 28.8749C122.877 28.679 122.289 28.5615 121.741 28.444C121.036 28.3265 120.291 28.2482 119.586 28.2873C118.371 28.2873 117.118 28.4832 115.981 28.9532C114.923 29.384 113.983 30.0499 113.239 30.8724C112.455 31.7341 111.867 32.7524 111.476 33.8883C111.045 35.1416 110.849 36.4733 110.849 37.805C110.809 39.2151 111.045 40.6251 111.515 41.9176C111.906 43.0535 112.533 44.111 113.356 45.0118C114.179 45.8343 115.158 46.461 116.216 46.8919C118.293 47.6361 120.526 47.7536 122.681 47.2444C123.465 47.0485 124.248 46.7352 124.993 46.3827V41.5259H121.584C121.31 41.5651 120.997 41.4476 120.801 41.2518C120.644 41.0951 120.526 40.8601 120.526 40.5859V37.7658H129.538V37.6484ZM137.727 35.3375C138.236 34.28 138.98 33.3791 139.882 32.6349C140.704 31.9691 141.723 31.6166 142.781 31.6557C143.525 31.6166 144.27 31.8124 144.897 32.2432L144.544 35.69C144.505 35.8858 144.427 36.0425 144.27 36.16C144.113 36.2383 143.956 36.3167 143.8 36.3167C143.525 36.3167 143.251 36.2775 142.977 36.2383C142.624 36.16 142.272 36.16 141.919 36.16C141.449 36.16 140.979 36.2383 140.548 36.395C140.156 36.5517 139.803 36.7475 139.49 37.0217C139.176 37.335 138.863 37.6484 138.667 38.04C138.393 38.4709 138.197 38.9409 138.001 39.4109V51.2003H133.378V32.0866H136.081C136.434 32.0474 136.786 32.1257 137.061 32.3216C137.296 32.5566 137.413 32.9091 137.452 33.2224L137.727 35.3375ZM146.621 34.6716C148.776 32.6741 151.636 31.5774 154.574 31.6557C155.593 31.6557 156.612 31.8124 157.591 32.2041C158.453 32.5566 159.198 33.1049 159.825 33.7708C160.452 34.4366 160.922 35.2592 161.235 36.1208C161.549 37.1 161.705 38.0792 161.705 39.0976V51.122H159.629C159.276 51.1611 158.924 51.0828 158.61 50.9261C158.336 50.7303 158.14 50.4561 158.061 50.1428L157.67 48.7719C157.2 49.1636 156.729 49.5553 156.259 49.8686C155.828 50.2211 155.319 50.4953 154.809 50.7303C154.3 50.9653 153.791 51.122 153.242 51.2395C152.615 51.357 151.989 51.4353 151.362 51.4353C150.617 51.4353 149.834 51.3178 149.128 51.122C148.462 50.9261 147.874 50.5736 147.365 50.1428C146.856 49.7119 146.464 49.1244 146.19 48.4977C145.915 47.7927 145.759 47.0094 145.798 46.2652C145.798 45.2468 146.151 44.2285 146.817 43.4451C147.248 42.9751 147.718 42.5443 148.266 42.2309C148.932 41.8001 149.677 41.4868 150.421 41.2126C151.401 40.8993 152.38 40.6642 153.399 40.5076C154.692 40.3117 155.985 40.1942 157.317 40.1942V39.0584C157.356 38.04 157.043 37.0217 156.377 36.1992C155.75 35.5725 154.927 35.22 154.026 35.2591C153.399 35.2591 152.772 35.3375 152.184 35.5333C151.753 35.69 151.283 35.8858 150.891 36.1208L149.873 36.7083C149.559 36.865 149.207 36.9825 148.854 36.9825C148.58 36.9825 148.305 36.9042 148.07 36.7475C147.874 36.5908 147.679 36.395 147.522 36.16L146.621 34.6716ZM157.16 42.9751C156.024 43.0143 154.927 43.1318 153.791 43.3276C153.046 43.4451 152.302 43.6802 151.597 43.9543C151.126 44.1502 150.735 44.4635 150.421 44.8552C149.834 45.756 149.99 46.9702 150.774 47.7144C151.322 48.0669 151.988 48.2627 152.655 48.2236C153.516 48.2627 154.339 48.0669 155.123 47.7144C155.867 47.3227 156.573 46.7744 157.16 46.1477V42.9751ZM182.589 23.4697V51.1611H179.768C179.219 51.2003 178.749 50.8478 178.592 50.3386L178.2 48.4977C177.456 49.3594 176.555 50.1036 175.536 50.652C174.439 51.2003 173.264 51.4745 172.049 51.4353C171.069 51.4353 170.09 51.2395 169.189 50.7694C168.288 50.3386 167.543 49.6728 166.956 48.8894C166.289 47.9494 165.78 46.931 165.506 45.8344C165.153 44.4635 164.957 43.0535 164.996 41.6434C164.996 40.3117 165.192 38.9801 165.584 37.6875C165.937 36.5517 166.525 35.4942 167.269 34.5541C167.974 33.6925 168.836 32.9483 169.855 32.4782C170.913 31.9691 172.088 31.6949 173.264 31.6949C174.204 31.6557 175.144 31.8516 176.006 32.2041C176.751 32.5174 177.456 32.9874 178.044 33.575V23.5089H182.589V23.4697ZM178.005 36.9042C177.534 36.3167 176.986 35.8467 176.32 35.5725C175.693 35.2983 175.027 35.1808 174.322 35.1808C173.655 35.1808 173.029 35.2983 172.441 35.5725C171.853 35.8467 171.383 36.2383 170.991 36.7475C170.56 37.335 170.247 38.04 170.09 38.745C169.855 39.6851 169.777 40.6643 169.777 41.6043C169.777 42.5443 169.855 43.5235 170.051 44.4635C170.208 45.1293 170.482 45.7952 170.834 46.3435C171.148 46.8135 171.579 47.1661 172.088 47.4011C172.598 47.6361 173.146 47.7536 173.695 47.7144C174.557 47.7536 175.379 47.5186 176.124 47.1269C176.868 46.696 177.495 46.1085 178.005 45.4427V36.9042ZM191.796 23.4697V51.1611H187.173V23.4697H191.796ZM199.946 42.1918C199.985 43.0535 200.181 43.9152 200.455 44.7377C200.69 45.4035 201.043 45.991 201.552 46.5002C201.983 46.9702 202.532 47.3227 203.119 47.5577C203.785 47.7927 204.452 47.9102 205.157 47.9102C205.823 47.9102 206.45 47.8319 207.077 47.6361C207.547 47.4794 208.056 47.2835 208.487 47.0485C208.879 46.8527 209.271 46.6569 209.545 46.461C209.819 46.3044 210.133 46.226 210.446 46.1869C210.799 46.1477 211.112 46.3435 211.308 46.6177L212.68 48.3019C212.17 48.8894 211.622 49.3986 210.956 49.7903C210.329 50.1819 209.663 50.5344 208.957 50.7694C208.291 51.0045 207.586 51.1611 206.842 51.2786C206.136 51.3961 205.47 51.4353 204.765 51.4353C203.511 51.4353 202.257 51.2395 201.043 50.7694C199.907 50.3386 198.888 49.6728 198.065 48.8111C197.203 47.9102 196.498 46.8135 196.067 45.5993C195.558 44.1893 195.322 42.6618 195.322 41.1734C195.322 39.9201 195.518 38.6667 195.949 37.4917C196.341 36.395 196.968 35.3766 197.752 34.4758C198.574 33.6141 199.554 32.9091 200.651 32.4391C201.866 31.9299 203.159 31.6557 204.491 31.6557C205.627 31.6557 206.763 31.8516 207.821 32.2432C208.801 32.5958 209.702 33.1833 210.446 33.9274C211.191 34.7108 211.778 35.6117 212.17 36.63C212.601 37.805 212.797 39.0584 212.797 40.3117C212.836 40.7817 212.758 41.2909 212.562 41.7218C212.366 41.9959 212.053 42.1134 211.7 42.0743L199.946 42.1918ZM208.722 39.4109C208.722 38.8234 208.644 38.275 208.487 37.7267C208.33 37.2175 208.056 36.7475 207.704 36.3558C207.351 35.9642 206.92 35.6116 206.411 35.4158C205.823 35.1808 205.235 35.0633 204.608 35.0633C203.472 35.0241 202.336 35.4158 201.474 36.1992C200.69 37.1 200.181 38.1967 200.063 39.3717L208.722 39.4109Z" fill="url(#paint0_linear_1633_75572)"/>
<path d="M123.858 83.8268V85.3935H108.029V59.0339H123.858V60.6006H109.949V71.2933H121.507V72.86H109.949V83.866L123.858 83.8268ZM129.853 70.0791C130.676 69.0607 131.695 68.1599 132.831 67.494C133.967 66.8282 135.299 66.5148 136.592 66.554C137.532 66.554 138.434 66.7107 139.296 67.024C140.04 67.3373 140.706 67.8074 141.215 68.434C141.725 69.0999 142.117 69.8441 142.352 70.6274C142.626 71.5674 142.783 72.5466 142.744 73.5258V85.3935H140.941V73.5258C141.02 72.0766 140.589 70.6274 139.727 69.4524C138.825 68.434 137.454 67.8465 136.083 67.964C134.907 67.964 133.732 68.2774 132.713 68.904C131.616 69.5699 130.676 70.4316 129.892 71.4499V85.3935H128.09V66.8282H129.069C129.344 66.789 129.579 66.9848 129.618 67.259C129.618 67.259 129.618 67.259 129.618 67.2982L129.853 70.0791ZM153.479 85.7069C152.382 85.7852 151.324 85.3935 150.54 84.6494C149.757 83.7485 149.404 82.6126 149.483 81.4376V68.7474H146.818C146.701 68.7474 146.583 68.7082 146.466 68.6299C146.387 68.5515 146.309 68.434 146.348 68.3165V67.6115L149.522 67.3765L149.953 60.7572C149.992 60.6397 150.031 60.5614 150.109 60.4439C150.188 60.3655 150.305 60.3264 150.423 60.3264H151.246V67.4157H157.084V68.7474H151.246V81.3201C151.246 81.751 151.285 82.221 151.442 82.6518C151.559 83.0043 151.755 83.2785 151.99 83.5527C152.225 83.7877 152.46 83.9835 152.774 84.0618C153.479 84.2968 154.223 84.2968 154.929 84.0618C155.203 83.9443 155.516 83.8268 155.752 83.631C155.947 83.5135 156.143 83.3568 156.339 83.2002C156.418 83.0827 156.574 83.0435 156.692 83.0043C156.809 83.0043 156.927 83.0827 157.005 83.2002L157.475 83.9835C156.966 84.5318 156.378 84.9627 155.673 85.2369C155.007 85.5502 154.263 85.7069 153.479 85.7069ZM161.785 75.3667V75.7192C161.746 76.9725 161.942 78.1867 162.295 79.4009C162.569 80.3801 163.039 81.281 163.666 82.0643C164.254 82.7693 164.998 83.3177 165.821 83.6702C166.722 84.0227 167.662 84.2185 168.642 84.2185C169.465 84.2185 170.288 84.1402 171.071 83.9052C171.659 83.7485 172.247 83.5135 172.795 83.2002C173.187 83.0043 173.54 82.7693 173.892 82.4951C174.049 82.3385 174.284 82.221 174.48 82.1818C174.637 82.1818 174.754 82.2601 174.872 82.3776L175.342 82.9652C174.989 83.3568 174.598 83.7093 174.167 84.0227C173.657 84.3752 173.109 84.6494 172.56 84.8844C171.933 85.1194 171.267 85.3152 170.64 85.4327C169.935 85.5894 169.269 85.6285 168.564 85.6285C167.388 85.6285 166.213 85.4327 165.116 84.9627C164.097 84.5318 163.157 83.866 162.412 83.0435C161.629 82.1426 161.041 81.0851 160.688 79.9101C160.257 78.5392 160.061 77.1292 160.061 75.7192C160.061 74.4658 160.257 73.2125 160.649 72.0374C161.002 70.9799 161.55 69.9616 162.295 69.1391C163 68.3165 163.901 67.6507 164.92 67.2198C166.017 66.7498 167.231 66.5148 168.446 66.5148C169.426 66.5148 170.444 66.6715 171.346 67.0632C172.247 67.4157 173.03 67.9249 173.696 68.6299C174.402 69.3741 174.911 70.2357 175.264 71.1758C175.655 72.2725 175.851 73.4475 175.812 74.6617C175.851 74.8575 175.812 75.0533 175.695 75.21C175.616 75.3275 175.459 75.3667 175.303 75.3667H161.785ZM174.127 74.2308C174.127 73.33 174.01 72.4291 173.696 71.5674C173.461 70.8233 173.069 70.1574 172.56 69.5699C172.051 69.0215 171.424 68.5907 170.758 68.3165C170.013 68.0032 169.23 67.8857 168.407 67.8857C167.545 67.8857 166.644 68.0424 165.821 68.3557C165.077 68.6299 164.41 69.0607 163.862 69.6482C163.313 70.2357 162.843 70.9408 162.53 71.6849C162.177 72.5075 161.942 73.4083 161.864 74.3092L174.127 74.2308ZM182.277 71.3324C182.551 70.6274 182.904 69.9616 183.296 69.2957C183.648 68.7474 184.079 68.2382 184.549 67.8073C185.02 67.4157 185.568 67.0632 186.156 66.8673C186.783 66.6323 187.449 66.554 188.115 66.554C188.507 66.554 188.899 66.5932 189.251 66.6715C189.604 66.7107 189.917 66.8673 190.231 67.024L190.074 68.2774C190.035 68.434 189.917 68.5515 189.761 68.5515C189.525 68.5515 189.29 68.4732 189.094 68.434C188.703 68.3557 188.311 68.2774 187.88 68.3165C187.214 68.3165 186.587 68.434 185.96 68.6299C185.411 68.8649 184.902 69.1782 184.471 69.6091C184.001 70.0791 183.609 70.6274 183.296 71.2149C182.943 71.9199 182.63 72.6641 182.394 73.4083V85.4327H180.592V66.8673H181.533C181.689 66.8673 181.846 66.9065 181.963 66.9848C182.081 67.1023 182.12 67.259 182.12 67.4157L182.277 71.3324ZM195.481 70.1966C196.264 69.1391 197.244 68.199 198.38 67.5332C199.517 66.8673 200.77 66.5148 202.102 66.554C204.14 66.4365 206.138 67.2982 207.431 68.904C208.685 70.4707 209.351 72.8208 209.351 75.9934C209.351 77.2859 209.194 78.5784 208.802 79.7926C208.489 80.8893 207.94 81.9468 207.235 82.8477C206.569 83.7093 205.707 84.4535 204.728 84.9235C203.67 85.4327 202.455 85.7069 201.28 85.7069C200.143 85.746 199.046 85.511 198.028 85.0019C197.087 84.5319 196.265 83.8268 195.638 82.9652V91.9345H193.874V66.8282H194.854C195.128 66.789 195.363 66.9848 195.403 67.259C195.403 67.259 195.403 67.259 195.403 67.2982L195.481 70.1966ZM195.52 81.3593C195.834 81.8293 196.225 82.2993 196.656 82.7302C197.009 83.0827 197.44 83.396 197.91 83.631C198.341 83.866 198.811 84.0227 199.321 84.1402C199.83 84.2577 200.378 84.2969 200.888 84.2969C201.867 84.336 202.847 84.101 203.748 83.7094C204.571 83.3177 205.276 82.7301 205.785 82.0251C206.373 81.2418 206.804 80.3409 207.039 79.4009C207.313 78.3042 207.47 77.1684 207.47 76.0717C207.47 73.33 206.961 71.2933 205.903 70.0007C204.845 68.669 203.2 67.964 201.515 68.0424C200.339 68.0424 199.164 68.3557 198.184 68.9824C197.126 69.6874 196.225 70.5882 195.52 71.6458V81.3593ZM216.051 71.3324C216.325 70.6274 216.638 69.9616 217.03 69.2957C217.383 68.7474 217.814 68.2382 218.284 67.8073C218.754 67.4157 219.303 67.0632 219.891 66.8673C220.517 66.6323 221.183 66.554 221.85 66.554C222.241 66.554 222.594 66.5932 222.986 66.6715C223.338 66.7107 223.691 66.8673 223.965 67.024L223.809 68.2774C223.769 68.434 223.613 68.5907 223.456 68.5907C223.221 68.5907 222.986 68.5124 222.79 68.4732C222.398 68.3949 222.006 68.3165 221.575 68.3557C220.909 68.3557 220.282 68.4732 219.655 68.669C219.107 68.904 218.598 69.2174 218.167 69.6482C217.696 70.1182 217.305 70.6666 216.991 71.2541C216.639 71.9591 216.325 72.7033 216.09 73.4475V85.4719H214.288V66.9065H215.228C215.385 66.9065 215.541 66.9457 215.659 67.024C215.777 67.1415 215.816 67.2982 215.816 67.4549L216.051 71.3324ZM230.273 60.4439C230.273 60.6789 230.234 60.8747 230.117 61.0705C230.038 61.2664 229.921 61.4231 229.764 61.5797C229.607 61.7364 229.451 61.8539 229.255 61.9322C228.863 62.0889 228.393 62.0889 228.001 61.9322C227.805 61.8539 227.609 61.7364 227.492 61.5797C227.335 61.4231 227.217 61.2664 227.139 61.0705C227.061 60.8747 227.021 60.6789 227.021 60.4439C227.021 60.2089 227.061 60.013 227.139 59.8172C227.217 59.6214 227.335 59.4255 227.492 59.2688C227.648 59.1122 227.805 58.9947 228.001 58.9163C228.393 58.7597 228.863 58.7597 229.255 58.9163C229.451 58.9947 229.607 59.1122 229.764 59.2688C229.921 59.4255 230.038 59.6214 230.117 59.8172C230.234 60.013 230.273 60.2089 230.273 60.4439ZM229.49 66.8282V85.3935H227.727V66.8282H229.49ZM246.063 69.1391C245.985 69.2957 245.828 69.4132 245.632 69.4132C245.436 69.3741 245.24 69.2957 245.123 69.1782C244.849 68.9824 244.574 68.8257 244.261 68.669C243.83 68.434 243.399 68.2774 242.929 68.1599C242.302 68.0032 241.675 67.9248 241.048 67.9248C240.421 67.9248 239.794 68.0032 239.207 68.199C238.697 68.3557 238.227 68.6299 237.796 68.9824C237.404 69.2957 237.091 69.6482 236.856 70.0791C236.66 70.5099 236.542 70.9799 236.542 71.4499C236.542 71.9591 236.699 72.4683 236.973 72.8991C237.287 73.2908 237.679 73.6433 238.149 73.8783C238.658 74.1916 239.207 74.4266 239.794 74.5833L241.675 75.1708C242.302 75.3667 242.968 75.6017 243.556 75.8367C244.143 76.0717 244.731 76.385 245.24 76.7375C245.711 77.09 246.102 77.56 246.416 78.0692C246.729 78.6567 246.886 79.3226 246.886 79.9493C246.886 80.7326 246.729 81.4768 246.455 82.221C246.181 82.926 245.75 83.5135 245.201 84.0227C244.614 84.571 243.908 84.9627 243.164 85.2369C242.263 85.5502 241.322 85.7069 240.382 85.7069C239.246 85.746 238.07 85.5111 237.012 85.0802C236.072 84.6885 235.21 84.1402 234.466 83.4352L234.897 82.8085C234.936 82.7301 235.014 82.6518 235.093 82.5735C235.21 82.5343 235.289 82.4951 235.406 82.4951C235.641 82.5343 235.837 82.6126 235.994 82.8085C236.268 83.0435 236.582 83.2785 236.934 83.4352C237.404 83.7093 237.875 83.9052 238.345 84.101C239.011 84.2969 239.716 84.4144 240.46 84.4144C241.166 84.4144 241.871 84.2969 242.537 84.101C243.086 83.9052 243.595 83.5918 244.026 83.2002C244.418 82.8476 244.731 82.3777 244.927 81.8685C245.123 81.3593 245.24 80.8501 245.24 80.3018C245.28 79.7534 245.123 79.2051 244.81 78.7351C244.496 78.3042 244.104 77.9517 243.634 77.6776C243.125 77.3642 242.576 77.1292 241.988 76.9334L240.069 76.3067C239.403 76.1109 238.776 75.8758 238.188 75.6408C237.6 75.4058 237.052 75.1317 236.542 74.74C236.072 74.3875 235.68 73.9175 235.367 73.4083C235.053 72.8208 234.897 72.1549 234.936 71.4891C234.936 70.8233 235.093 70.1966 235.367 69.5699C235.641 68.9824 236.072 68.434 236.582 68.0032C237.169 67.5332 237.796 67.1415 238.501 66.8673C239.324 66.5932 240.186 66.4365 241.048 66.4757C242.067 66.4757 243.086 66.6323 244.065 66.9457C244.966 67.259 245.75 67.7682 246.455 68.434L246.063 69.1391ZM252.293 75.4058V75.7583C252.254 77.0117 252.45 78.2259 252.763 79.4401C253.037 80.4193 253.508 81.3201 254.134 82.1035C254.722 82.8085 255.467 83.3568 256.289 83.7094C257.191 84.0619 258.131 84.2577 259.111 84.2577C259.933 84.2577 260.756 84.1794 261.54 83.9443C262.127 83.7877 262.715 83.5527 263.264 83.2393C263.655 83.0435 264.008 82.8085 264.361 82.5343C264.517 82.3777 264.713 82.2601 264.948 82.221C265.105 82.221 265.223 82.2993 265.34 82.4168L265.81 83.0043C265.458 83.396 265.066 83.7485 264.635 84.0618C264.126 84.4144 263.577 84.6885 262.989 84.9235C262.363 85.1585 261.696 85.3544 261.07 85.4719C260.404 85.6286 259.698 85.6677 258.993 85.6677C257.818 85.6677 256.642 85.4719 255.506 85.0019C254.487 84.571 253.547 83.9052 252.802 83.0827C252.019 82.1818 251.431 81.1243 251.078 79.9493C250.647 78.5784 250.452 77.1684 250.452 75.7583C250.452 74.505 250.647 73.2516 251.039 72.0766C251.392 71.0191 251.94 70.0007 252.685 69.1782C253.429 68.3557 254.33 67.6899 255.349 67.259C256.446 66.789 257.661 66.554 258.875 66.554C259.855 66.554 260.874 66.7107 261.775 67.1023C262.676 67.4548 263.46 67.964 264.126 68.669C264.831 69.4132 265.34 70.2749 265.693 71.2149C266.085 72.3116 266.281 73.4866 266.241 74.7008C266.281 74.8967 266.241 75.0925 266.124 75.2492C266.046 75.3667 265.889 75.4058 265.732 75.4058H252.293ZM264.674 74.2308C264.674 73.33 264.557 72.4291 264.243 71.5674C264.008 70.8233 263.577 70.1574 263.068 69.5699C262.558 69.0215 261.932 68.5907 261.265 68.3165C260.521 68.0032 259.737 67.8857 258.915 67.8857C258.053 67.8857 257.151 68.0424 256.329 68.3557C255.584 68.6299 254.918 69.0607 254.37 69.6482C253.821 70.2357 253.39 70.9408 253.077 71.6849C252.724 72.5075 252.489 73.4083 252.411 74.3092L264.674 74.2308Z" fill="url(#paint1_linear_1633_75572)"/>
<path d="M83.2654 24.0573C78.0544 18.848 69.6696 18.7305 64.3018 23.744C64.0276 23.979 63.91 24.3315 63.91 24.684C63.91 25.0365 64.0276 25.389 64.3018 25.624L66.0258 27.3474C66.496 27.8174 67.2013 27.8566 67.7106 27.4649C71.1585 24.8798 76.0561 25.5457 78.642 29.0316C80.9929 32.165 80.6795 36.5126 77.8976 39.2543C67.0837 50.0645 52.6259 19.7489 19.8316 35.3376C17.5983 36.3559 16.6188 39.0193 17.6767 41.2518C17.7158 41.3693 17.7943 41.4869 17.8334 41.6044L23.4754 51.3179C24.6901 53.4329 27.3936 54.1379 29.5093 52.9629L29.666 52.8454L29.5485 52.9237L32.0561 51.5529C34.8379 49.8295 37.463 47.8711 39.9314 45.6778C40.4407 45.2077 41.1852 45.2077 41.7337 45.5994C42.2823 46.0303 42.3998 46.8528 41.9688 47.4011C41.9296 47.4795 41.8513 47.5186 41.8121 47.5578C39.2262 49.8687 36.4835 51.9446 33.5449 53.7854H33.4666L30.959 55.1954C27.5503 57.0755 23.2795 55.9005 21.3205 52.5321L15.992 43.3669C5.76578 50.6129 -0.424849 64.5173 2.90552 82.0643C3.02306 82.691 3.53239 83.1219 4.15929 83.1219H10.1932C10.8593 83.1219 11.4078 82.6127 11.4862 81.986C12.1131 77.1292 16.5404 73.6825 21.3988 74.3092C25.4345 74.8184 28.569 77.9909 29.0783 81.986C29.1567 82.6518 29.7052 83.1219 30.3713 83.1219H36.2876C36.9536 83.1219 37.5022 82.6127 37.5805 81.986C38.2074 77.1292 42.6349 73.6825 47.4933 74.3092C51.5289 74.8184 54.6634 77.9909 55.1728 81.986C55.2511 82.6518 55.8388 83.161 56.5049 83.1219H62.3428C63.048 83.1219 63.6358 82.5343 63.6358 81.8293C63.7533 73.6041 65.9867 64.1648 72.2948 59.4256C94.0793 43.1711 88.3197 29.1491 83.2654 24.0573ZM60.9323 48.8112L56.7791 46.7353C56.7791 45.2861 57.9545 44.1111 59.4042 44.1111C60.8539 44.1111 62.0294 45.2861 62.0294 46.7353C61.9902 47.5186 61.5984 48.302 60.9323 48.8112Z" fill="url(#paint2_linear_1633_75572)"/>
<defs>
<linearGradient id="paint0_linear_1633_75572" x1="105.021" y1="43.6687" x2="212.729" y2="32.3445" gradientUnits="userSpaceOnUse">
<stop stop-color="#06A0CE"/>
<stop offset="1" stop-color="#51CBBF"/>
</linearGradient>
<linearGradient id="paint1_linear_1633_75572" x1="105.684" y1="80.5487" x2="266.204" y2="63.672" gradientUnits="userSpaceOnUse">
<stop stop-color="#06A0CE"/>
<stop offset="1" stop-color="#51CBBF"/>
</linearGradient>
<linearGradient id="paint2_linear_1633_75572" x1="-0.861632" y1="58.838" x2="89.9805" y2="49.287" gradientUnits="userSpaceOnUse">
<stop stop-color="#06A0CE"/>
<stop offset="1" stop-color="#51CBBF"/>
</linearGradient>
</defs>
</svg>
