<svg width="48" height="24" viewBox="0 0 48 24" fill="none" xmlns="http://www.w3.org/2000/svg">
<path d="M11 9.07001C11 10.14 10.14 11 9.07001 11H8V0H6V11H4.92999C3.85999 11 3 10.14 3 9.07001V0H1V9.07001C1 11.24 2.76001 13 4.92999 13H6V24H8V13H9.07001C11.24 13 13 11.24 13 9.07001V0H11V9.07001ZM25 7C23.35 7 22 8.34998 22 10V14C22 15.65 23.35 17 25 17C26.65 17 28 15.65 28 14V10C28 8.34998 26.65 7 25 7ZM25.02 0C20.06 0 16.02 4.03998 16.02 9V15C16.02 19.96 20.06 24 25.02 24C29.98 24 34.02 19.96 34.02 15V9C34.02 4.03998 29.98 0 25.02 0ZM30 14C30 16.76 27.76 19 25 19C22.24 19 20 16.76 20 14V10C20 7.23999 22.24 5 25 5C27.76 5 30 7.23999 30 10V14ZM41.93 0C39.76 0 38 1.76001 38 3.92999V17H44V24H46V0H41.93ZM44 15H40V3.92999C40 2.85999 40.86 2 41.93 2H44V15Z" fill="black"/>
</svg>
