<svg width="375" height="268" viewBox="0 0 375 268" fill="none" xmlns="http://www.w3.org/2000/svg">
<rect width="375.001" height="268" fill="black"/>
<path d="M35.3413 93.8502H19.7876V48.9203H35.3413V67.4455L47.2859 48.9203H64.4724L50.1217 70.4632L64.9879 93.8502H47.2859L35.4273 74.4868V93.8502H35.3413Z" fill="white"/>
<path d="M72.8963 91.5887C69.2012 89.5769 66.2794 86.8107 64.1311 83.2063C61.9828 79.6857 60.9517 75.7459 60.9517 71.3032C60.9517 66.9443 61.9828 63.0046 64.1311 59.4001C66.2794 55.8795 69.2012 53.1133 72.8963 51.0177C76.5913 49.0059 80.802 48 85.3564 48C89.9108 48 94.0356 49.0059 97.7307 51.0177C101.426 53.0294 104.347 55.7957 106.41 59.4001C108.558 62.9207 109.589 66.8605 109.589 71.3032C109.589 75.6621 108.558 79.6018 106.41 83.2063C104.262 86.7269 101.426 89.4931 97.7307 91.5887C94.0356 93.6005 89.9108 94.6064 85.3564 94.6064C80.7161 94.6064 76.5913 93.6005 72.8963 91.5887ZM89.739 79.6018C91.0279 78.8474 92.0591 77.6738 92.7466 76.2488C93.434 74.8238 93.7777 73.1473 93.7777 71.3032C93.7777 69.4591 93.434 67.8664 92.7466 66.3575C92.0591 64.9325 91.0279 63.8428 89.739 63.0046C88.45 62.2501 86.9892 61.831 85.2705 61.831C83.5519 61.831 82.091 62.2501 80.802 63.0046C79.513 63.759 78.4818 64.9325 77.7944 66.3575C77.1069 67.7825 76.6773 69.4591 76.6773 71.3032C76.6773 73.1473 77.021 74.8238 77.7944 76.2488C78.4818 77.6738 79.513 78.7635 80.802 79.6018C82.091 80.3562 83.6378 80.7754 85.2705 80.7754C86.9892 80.7754 88.45 80.44 89.739 79.6018Z" fill="white"/>
<path d="M122.723 63.007H110.606V48.8407H150.307V63.007H138.277V93.9383H122.723V63.007Z" fill="white"/>
<path d="M154.085 93.8502V48.9203H169.639V79.7677H188.63V93.934H154.085V93.8502Z" fill="white"/>
<path d="M209.09 93.8502H192.591V48.9203H209.09V93.8502Z" fill="white"/>
<path d="M228.589 48.9203L242.768 72.2235V48.9203H256.603V93.8502H241.737L227.644 70.547V93.8502H213.809V48.9203H228.589Z" fill="white"/>
<path d="M27.9446 144.985C24.1636 142.973 21.2419 140.29 19.1796 136.686C17.1172 133.165 16 129.142 16 124.699C16 120.256 17.0312 116.233 19.1796 112.712C21.2419 109.192 24.1636 106.425 27.9446 104.414C31.7256 102.402 35.9363 101.48 40.6626 101.48C45.0452 101.48 48.9121 102.318 52.4353 103.994C55.9585 105.671 58.7084 108.018 60.7708 111.036C62.7472 113.97 63.7784 117.323 63.7784 121.011H48.6543C48.3965 119.921 47.8809 118.915 47.1934 117.993C46.4201 117.155 45.4748 116.4 44.3576 115.981C43.2405 115.562 42.0375 115.227 40.6626 115.227C38.944 115.227 37.3972 115.646 36.1082 116.4C34.8192 117.155 33.788 118.328 33.0146 119.753C32.2412 121.178 31.8975 122.855 31.8975 124.699C31.8975 126.543 32.2412 128.22 33.0146 129.645C33.788 131.07 34.8192 132.159 36.1082 132.998C37.3972 133.752 38.944 134.171 40.6626 134.171C42.725 134.171 44.4436 133.668 45.9045 132.662C47.3653 131.657 48.3105 130.315 48.6543 128.723H63.7784C63.7784 132.327 62.7472 135.596 60.7708 138.53C58.7943 141.464 55.9585 143.727 52.4353 145.404C48.9121 147.08 44.9592 147.918 40.6626 147.918C35.9363 148.002 31.7256 146.996 27.9446 144.985Z" fill="white"/>
<path d="M78.0437 144.982C74.3486 142.97 71.4269 140.204 69.2786 136.6C67.1303 133.079 66.0991 129.139 66.0991 124.697C66.0991 120.338 67.1303 116.398 69.2786 112.794C71.4269 109.273 74.3486 106.507 78.0437 104.411C81.7388 102.399 85.9495 101.394 90.5039 101.394C95.0583 101.394 99.1831 102.399 102.878 104.411C106.573 106.423 109.495 109.189 111.557 112.794C113.706 116.314 114.737 120.254 114.737 124.697C114.737 129.056 113.706 132.995 111.557 136.6C109.409 140.12 106.573 142.887 102.878 144.982C99.1831 146.994 95.0583 148 90.5039 148C85.9495 148 81.8247 146.994 78.0437 144.982ZM94.9723 132.995C96.2613 132.241 97.2925 131.067 97.98 129.642C98.6674 128.217 99.0112 126.541 99.0112 124.697C99.0112 122.853 98.6674 121.26 97.98 119.751C97.2925 118.326 96.2613 117.236 94.9723 116.398C93.6833 115.644 92.2225 115.225 90.5039 115.225C88.7852 115.225 87.3243 115.644 86.0354 116.398C84.7464 117.153 83.7152 118.326 83.0277 119.751C82.3403 121.176 81.9107 122.853 81.9107 124.697C81.9107 126.541 82.2543 128.217 83.0277 129.642C83.7152 131.067 84.7464 132.157 86.0354 132.995C87.3243 133.75 88.8712 134.169 90.5039 134.169C92.2225 134.169 93.6833 133.75 94.9723 132.995Z" fill="white"/>
<path d="M132.019 102.238L146.198 125.541V102.238H160.033V147.168H145.081L130.988 123.865V147.168H117.153V102.238H132.019Z" fill="white"/>
<path d="M180.732 147.164H165.179V102.234H199.38V116.233H180.732V119.754H198.005V133.752H180.732V147.164Z" fill="white"/>
<path d="M203.58 119.754C205.299 119.754 206.674 119.419 207.705 118.748C208.736 118.078 209.252 117.24 209.252 116.15H203.58V102.151H216.728V114.809C216.728 117.072 216.212 119.084 215.095 120.844C213.978 122.604 212.431 123.945 210.455 124.951C208.478 125.957 206.158 126.376 203.58 126.376V119.754Z" fill="white"/>
<path d="M222.666 146.995L222.58 136.349L240.54 122.434C241.313 121.847 241.915 121.177 242.43 120.339C242.946 119.584 243.118 118.746 243.118 117.992C243.118 116.902 242.86 116.064 242.258 115.393C241.657 114.722 240.884 114.471 239.852 114.471C238.821 114.471 237.962 114.806 237.274 115.561C236.673 116.231 236.329 117.237 236.329 118.411H220.861C220.861 115.058 221.635 112.04 223.267 109.441C224.814 106.843 227.048 104.831 229.97 103.406C232.892 101.981 236.157 101.31 240.024 101.31C243.719 101.31 246.985 101.981 249.821 103.238C252.656 104.496 254.805 106.34 256.351 108.687C257.898 111.034 258.672 113.716 258.672 116.734C258.672 122.183 255.836 126.793 250.25 130.481L244.665 134.17H259.617V146.995H222.666Z" fill="white"/>
<path d="M288.399 118.916C292.008 119.922 294.844 121.598 296.906 124.029C298.969 126.46 300 129.31 300 132.663C300 135.597 299.227 138.28 297.594 140.627C295.961 142.974 293.727 144.734 290.805 145.991C287.884 147.249 284.532 147.919 280.751 147.919C277.056 147.919 273.791 147.249 270.955 145.908C268.119 144.566 265.885 142.722 264.252 140.291C262.62 137.86 261.846 135.094 261.846 131.993H277.314C277.314 132.915 277.658 133.669 278.259 134.172C278.947 134.759 279.72 135.01 280.751 135.01C281.868 135.01 282.728 134.675 283.415 134.088C284.103 133.418 284.446 132.663 284.446 131.657C284.446 130.651 284.017 129.813 283.243 129.143C282.47 128.472 281.439 128.221 280.236 128.221H271.556V119.084L279.204 114.389H263.651V102.151H298.281V111.623L288.399 118.916Z" fill="white"/>
<path d="M16.4 214L19.264 202.32H22.304L25.2 214H22.752L22.192 211.36H19.408L18.848 214H16.4ZM19.808 209.44H21.776L21.216 206.624C21.1413 206.219 21.0613 205.819 20.976 205.424C20.9013 205.019 20.8427 204.704 20.8 204.48C20.7573 204.704 20.6987 205.013 20.624 205.408C20.56 205.803 20.4853 206.203 20.4 206.608L19.808 209.44ZM26.6738 214V202.32H30.6578C31.4791 202.32 32.1938 202.475 32.8018 202.784C33.4204 203.093 33.8951 203.525 34.2258 204.08C34.5671 204.635 34.7378 205.285 34.7378 206.032C34.7378 206.768 34.5671 207.419 34.2258 207.984C33.8844 208.539 33.4098 208.971 32.8018 209.28C32.1938 209.589 31.4791 209.744 30.6578 209.744H29.0738V214H26.6738ZM29.0738 207.664H30.6578C31.1698 207.664 31.5751 207.509 31.8738 207.2C32.1831 206.891 32.3378 206.501 32.3378 206.032C32.3378 205.563 32.1831 205.173 31.8738 204.864C31.5751 204.555 31.1698 204.4 30.6578 204.4H29.0738V207.664ZM36.2755 214V202.32H40.0355C40.8675 202.32 41.5875 202.464 42.1955 202.752C42.8035 203.04 43.2728 203.451 43.6035 203.984C43.9448 204.517 44.1155 205.147 44.1155 205.872C44.1155 206.629 43.9288 207.307 43.5555 207.904C43.1928 208.501 42.6968 208.933 42.0675 209.2L44.2755 214H41.6675L39.7795 209.584H38.6595V214H36.2755ZM38.6595 207.504H40.0355C40.5688 207.504 40.9795 207.371 41.2675 207.104C41.5662 206.837 41.7155 206.464 41.7155 205.984C41.7155 205.483 41.5662 205.093 41.2675 204.816C40.9795 204.539 40.5688 204.4 40.0355 204.4H38.6595V207.504ZM46.1333 214V211.84H48.4533V204.48H46.1333V202.32H53.1733V204.48H50.8533V211.84H53.1733V214H46.1333ZM56.311 214V202.32H58.711V211.84H63.431V214H56.311ZM74.9865 214V211.84H77.9305V204.512L74.9545 206.72V204.24L77.6905 202.32H80.3305V211.84H82.6665V214H74.9865ZM88.0602 214.16C87.2602 214.16 86.5669 214.027 85.9802 213.76C85.4042 213.483 84.9562 213.093 84.6362 212.592C84.3162 212.08 84.1562 211.483 84.1562 210.8H86.5562C86.5562 211.227 86.6842 211.563 86.9402 211.808C87.2069 212.043 87.5802 212.16 88.0602 212.16C88.5509 212.16 88.9242 212.043 89.1802 211.808C89.4362 211.573 89.5642 211.237 89.5642 210.8V209.872C89.5642 209.435 89.4309 209.099 89.1642 208.864C88.9082 208.619 88.5402 208.496 88.0602 208.496H86.6202V206.64L88.9882 204.32H84.7162V202.32H91.5162V204.176L88.0602 207.552V206.464C89.2656 206.464 90.2149 206.768 90.9082 207.376C91.6122 207.984 91.9642 208.811 91.9642 209.856V210.8C91.9642 211.483 91.8042 212.08 91.4843 212.592C91.1749 213.093 90.7269 213.483 90.1402 213.76C89.5536 214.027 88.8602 214.16 88.0602 214.16ZM94.142 209.84V207.6H101.342V209.84H94.142ZM103.84 214V211.84H106.784V204.512L103.808 206.72V204.24L106.544 202.32H109.184V211.84H111.52V214H103.84ZM118.097 214V211.856H112.977V208.512L117.361 202.32H120.001L115.217 209.184V209.776H118.097V207.28H120.497V214H118.097ZM151.048 214L153.912 202.32H156.952L159.848 214H157.4L156.84 211.36H154.056L153.496 214H151.048ZM154.456 209.44H156.424L155.864 206.624C155.79 206.219 155.71 205.819 155.624 205.424C155.55 205.019 155.491 204.704 155.448 204.48C155.406 204.704 155.347 205.013 155.272 205.408C155.208 205.803 155.134 206.203 155.048 206.608L154.456 209.44ZM160.938 214V202.32H163.642L164.682 206C164.8 206.384 164.885 206.72 164.938 207.008C165.002 207.296 165.04 207.499 165.05 207.616C165.061 207.499 165.093 207.296 165.146 207.008C165.21 206.72 165.296 206.384 165.402 206L166.474 202.32H169.194V214H167.002V209.52C167.002 208.741 167.024 208.021 167.066 207.36C167.109 206.688 167.162 206.059 167.226 205.472C167.29 204.875 167.349 204.304 167.402 203.76L166.042 209.04H164.042L162.682 203.952C162.746 204.411 162.81 204.917 162.874 205.472C162.949 206.016 163.008 206.624 163.05 207.296C163.104 207.957 163.13 208.699 163.13 209.52V214H160.938ZM174.684 214.16C173.863 214.16 173.148 214.021 172.54 213.744C171.932 213.467 171.463 213.077 171.132 212.576C170.801 212.075 170.636 211.483 170.636 210.8H173.036C173.036 211.195 173.185 211.509 173.484 211.744C173.793 211.968 174.209 212.08 174.732 212.08C175.233 212.08 175.623 211.968 175.9 211.744C176.188 211.52 176.332 211.211 176.332 210.816C176.332 210.475 176.225 210.181 176.012 209.936C175.799 209.691 175.5 209.525 175.116 209.44L173.932 209.168C172.94 208.933 172.167 208.501 171.612 207.872C171.068 207.232 170.796 206.453 170.796 205.536C170.796 204.512 171.143 203.696 171.836 203.088C172.529 202.469 173.468 202.16 174.652 202.16C175.847 202.16 176.791 202.459 177.484 203.056C178.188 203.643 178.54 204.437 178.54 205.44H176.14C176.14 205.067 176.007 204.773 175.74 204.56C175.484 204.347 175.111 204.24 174.62 204.24C174.161 204.24 173.809 204.347 173.564 204.56C173.319 204.773 173.196 205.088 173.196 205.504C173.196 205.813 173.297 206.091 173.5 206.336C173.713 206.571 174.017 206.731 174.412 206.816L175.58 207.088C176.615 207.323 177.399 207.749 177.932 208.368C178.465 208.976 178.732 209.755 178.732 210.704C178.732 211.387 178.561 211.989 178.22 212.512C177.889 213.035 177.42 213.44 176.812 213.728C176.215 214.016 175.505 214.16 174.684 214.16ZM183.102 214V204.48H180.142V202.32H188.462V204.48H185.502V214H183.102ZM190.4 214V202.32H197.6V204.4H192.752V207.024H197.04V209.008H192.752V211.92H197.6V214H190.4ZM199.777 214V202.32H203.537C204.369 202.32 205.089 202.464 205.697 202.752C206.305 203.04 206.775 203.451 207.105 203.984C207.447 204.517 207.617 205.147 207.617 205.872C207.617 206.629 207.431 207.307 207.057 207.904C206.695 208.501 206.199 208.933 205.569 209.2L207.777 214H205.169L203.281 209.584H202.161V214H199.777ZM202.161 207.504H203.537C204.071 207.504 204.481 207.371 204.769 207.104C205.068 206.837 205.217 206.464 205.217 205.984C205.217 205.483 205.068 205.093 204.769 204.816C204.481 204.539 204.071 204.4 203.537 204.4H202.161V207.504ZM209.363 214V202.32H213.155C213.966 202.32 214.67 202.475 215.267 202.784C215.875 203.093 216.344 203.531 216.675 204.096C217.016 204.651 217.187 205.307 217.187 206.064V210.24C217.187 210.987 217.016 211.643 216.675 212.208C216.344 212.773 215.875 213.216 215.267 213.536C214.67 213.845 213.966 214 213.155 214H209.363ZM211.763 211.84H213.155C213.635 211.84 214.024 211.691 214.323 211.392C214.632 211.093 214.787 210.709 214.787 210.24V206.064C214.787 205.595 214.632 205.216 214.323 204.928C214.024 204.629 213.635 204.48 213.155 204.48H211.763V211.84ZM218.373 214L221.237 202.32H224.277L227.173 214H224.725L224.165 211.36H221.381L220.821 214H218.373ZM221.781 209.44H223.749L223.189 206.624C223.114 206.219 223.034 205.819 222.949 205.424C222.874 205.019 222.815 204.704 222.773 204.48C222.73 204.704 222.671 205.013 222.597 205.408C222.533 205.803 222.458 206.203 222.373 206.608L221.781 209.44ZM228.262 214V202.32H230.967L232.007 206C232.124 206.384 232.209 206.72 232.263 207.008C232.327 207.296 232.364 207.499 232.375 207.616C232.385 207.499 232.417 207.296 232.47 207.008C232.535 206.72 232.62 206.384 232.727 206L233.799 202.32H236.519V214H234.327V209.52C234.327 208.741 234.348 208.021 234.391 207.36C234.433 206.688 234.487 206.059 234.551 205.472C234.615 204.875 234.673 204.304 234.727 203.76L233.367 209.04H231.367L230.007 203.952C230.07 204.411 230.134 204.917 230.198 205.472C230.273 206.016 230.332 206.624 230.375 207.296C230.428 207.957 230.454 208.699 230.454 209.52V214H228.262ZM17.056 238V226.32H20.816C21.5947 226.32 22.272 226.448 22.848 226.704C23.4347 226.949 23.888 227.296 24.208 227.744C24.5387 228.192 24.704 228.715 24.704 229.312C24.704 230.08 24.464 230.699 23.984 231.168C23.504 231.637 22.8693 231.872 22.08 231.872V231.76C22.944 231.749 23.6373 232.005 24.16 232.528C24.6933 233.051 24.96 233.749 24.96 234.624C24.96 235.296 24.7893 235.888 24.448 236.4C24.1173 236.901 23.6533 237.296 23.056 237.584C22.4587 237.861 21.76 238 20.96 238H17.056ZM19.376 236.064H20.864C21.3867 236.064 21.7973 235.925 22.096 235.648C22.3947 235.371 22.544 234.987 22.544 234.496C22.544 234.005 22.3947 233.621 22.096 233.344C21.7973 233.056 21.3867 232.912 20.864 232.912H19.376V236.064ZM19.376 231.024H20.784C21.2533 231.024 21.6213 230.901 21.888 230.656C22.1547 230.4 22.288 230.059 22.288 229.632C22.288 229.195 22.1547 228.859 21.888 228.624C21.6213 228.379 21.2533 228.256 20.784 228.256H19.376V231.024ZM26.8978 238V226.32H34.0978V228.4H29.2498V231.024H33.5378V233.008H29.2498V235.92H34.0978V238H26.8978ZM40.0355 238.16C38.8515 238.16 37.9128 237.84 37.2195 237.2C36.5368 236.56 36.1955 235.685 36.1955 234.576V226.32H38.5955V234.56C38.5955 235.051 38.7182 235.429 38.9635 235.696C39.2195 235.952 39.5768 236.08 40.0355 236.08C40.4835 236.08 40.8355 235.952 41.0915 235.696C41.3475 235.429 41.4755 235.051 41.4755 234.56V226.32H43.8755V234.576C43.8755 235.675 43.5288 236.549 42.8355 237.2C42.1528 237.84 41.2195 238.16 40.0355 238.16ZM45.8933 238V226.32H49.6533C50.4853 226.32 51.2053 226.464 51.8133 226.752C52.4213 227.04 52.8906 227.451 53.2213 227.984C53.5626 228.517 53.7333 229.147 53.7333 229.872C53.7333 230.629 53.5466 231.307 53.1733 231.904C52.8106 232.501 52.3146 232.933 51.6853 233.2L53.8933 238H51.2853L49.3973 233.584H48.2773V238H45.8933ZM48.2773 231.504H49.6533C50.1866 231.504 50.5973 231.371 50.8853 231.104C51.1839 230.837 51.3333 230.464 51.3333 229.984C51.3333 229.483 51.1839 229.093 50.8853 228.816C50.5973 228.539 50.1866 228.4 49.6533 228.4H48.2773V231.504ZM59.271 238.16C58.4497 238.16 57.735 238.021 57.127 237.744C56.519 237.467 56.0497 237.077 55.719 236.576C55.3883 236.075 55.223 235.483 55.223 234.8H57.623C57.623 235.195 57.7723 235.509 58.071 235.744C58.3803 235.968 58.7963 236.08 59.319 236.08C59.8203 236.08 60.2097 235.968 60.487 235.744C60.775 235.52 60.919 235.211 60.919 234.816C60.919 234.475 60.8123 234.181 60.599 233.936C60.3857 233.691 60.087 233.525 59.703 233.44L58.519 233.168C57.527 232.933 56.7537 232.501 56.199 231.872C55.655 231.232 55.383 230.453 55.383 229.536C55.383 228.512 55.7297 227.696 56.423 227.088C57.1163 226.469 58.055 226.16 59.239 226.16C60.4337 226.16 61.3777 226.459 62.071 227.056C62.775 227.643 63.127 228.437 63.127 229.44H60.727C60.727 229.067 60.5937 228.773 60.327 228.56C60.071 228.347 59.6977 228.24 59.207 228.24C58.7483 228.24 58.3963 228.347 58.151 228.56C57.9057 228.773 57.783 229.088 57.783 229.504C57.783 229.813 57.8843 230.091 58.087 230.336C58.3003 230.571 58.6043 230.731 58.999 230.816L60.167 231.088C61.2017 231.323 61.9857 231.749 62.519 232.368C63.0523 232.976 63.319 233.755 63.319 234.704C63.319 235.387 63.1483 235.989 62.807 236.512C62.4763 237.035 62.007 237.44 61.399 237.728C60.8017 238.016 60.0923 238.16 59.271 238.16ZM77.0025 238L74.1065 226.32H76.5865L78.2025 233.696C78.2558 233.952 78.3198 234.277 78.3945 234.672C78.4798 235.067 78.5438 235.403 78.5865 235.68C78.6292 235.403 78.6825 235.067 78.7465 234.672C78.8105 234.277 78.8692 233.947 78.9225 233.68L80.4905 226.32H82.9065L80.0425 238H77.0025ZM83.7242 238L86.5882 226.32H89.6282L92.5243 238H90.0762L89.5162 235.36H86.7322L86.1722 238H83.7242ZM87.1322 233.44H89.1002L88.5402 230.624C88.4656 230.219 88.3856 229.819 88.3002 229.424C88.2256 229.019 88.1669 228.704 88.1242 228.48C88.0816 228.704 88.0229 229.013 87.9482 229.408C87.8842 229.803 87.8096 230.203 87.7242 230.608L87.1322 233.44ZM93.902 238V226.32H96.702L99.726 235.36C99.694 234.965 99.6567 234.512 99.614 234C99.5713 233.477 99.534 232.96 99.502 232.448C99.4807 231.925 99.47 231.483 99.47 231.12V226.32H101.582V238H98.782L95.79 228.96C95.822 229.301 95.854 229.707 95.886 230.176C95.918 230.645 95.9447 231.12 95.966 231.6C95.998 232.08 96.014 232.507 96.014 232.88V238H93.902ZM113.233 238V226.32H116.993C117.772 226.32 118.449 226.448 119.025 226.704C119.612 226.949 120.065 227.296 120.385 227.744C120.716 228.192 120.881 228.715 120.881 229.312C120.881 230.08 120.641 230.699 120.161 231.168C119.681 231.637 119.047 231.872 118.257 231.872V231.76C119.121 231.749 119.815 232.005 120.337 232.528C120.871 233.051 121.137 233.749 121.137 234.624C121.137 235.296 120.967 235.888 120.625 236.4C120.295 236.901 119.831 237.296 119.233 237.584C118.636 237.861 117.937 238 117.137 238H113.233ZM115.553 236.064H117.041C117.564 236.064 117.975 235.925 118.273 235.648C118.572 235.371 118.721 234.987 118.721 234.496C118.721 234.005 118.572 233.621 118.273 233.344C117.975 233.056 117.564 232.912 117.041 232.912H115.553V236.064ZM115.553 231.024H116.961C117.431 231.024 117.799 230.901 118.065 230.656C118.332 230.4 118.465 230.059 118.465 229.632C118.465 229.195 118.332 228.859 118.065 228.624C117.799 228.379 117.431 228.256 116.961 228.256H115.553V231.024ZM123.075 238V226.32H130.275V228.4H125.427V231.024H129.715V233.008H125.427V235.92H130.275V238H123.075ZM132.453 238V226.32H136.213C137.045 226.32 137.765 226.464 138.373 226.752C138.981 227.04 139.45 227.451 139.781 227.984C140.122 228.517 140.293 229.147 140.293 229.872C140.293 230.629 140.106 231.307 139.733 231.904C139.37 232.501 138.874 232.933 138.245 233.2L140.453 238H137.845L135.957 233.584H134.837V238H132.453ZM134.837 231.504H136.213C136.746 231.504 137.157 231.371 137.445 231.104C137.744 230.837 137.893 230.464 137.893 229.984C137.893 229.483 137.744 229.093 137.445 228.816C137.157 228.539 136.746 228.4 136.213 228.4H134.837V231.504ZM142.871 238V226.32H145.271V235.84H149.991V238H142.871ZM151.048 238L153.912 226.32H156.952L159.848 238H157.4L156.84 235.36H154.056L153.496 238H151.048ZM154.456 233.44H156.424L155.864 230.624C155.79 230.219 155.71 229.819 155.624 229.424C155.55 229.019 155.491 228.704 155.448 228.48C155.406 228.704 155.347 229.013 155.272 229.408C155.208 229.803 155.134 230.203 155.048 230.608L154.456 233.44ZM165.13 238.16C164.352 238.16 163.669 238.016 163.082 237.728C162.496 237.429 162.037 237.019 161.706 236.496C161.386 235.963 161.226 235.344 161.226 234.64V229.68C161.226 228.965 161.386 228.347 161.706 227.824C162.037 227.301 162.496 226.896 163.082 226.608C163.669 226.309 164.352 226.16 165.13 226.16C165.92 226.16 166.602 226.309 167.178 226.608C167.765 226.896 168.218 227.301 168.538 227.824C168.869 228.347 169.034 228.965 169.034 229.68H166.634C166.634 229.211 166.501 228.853 166.234 228.608C165.978 228.363 165.61 228.24 165.13 228.24C164.65 228.24 164.277 228.363 164.01 228.608C163.754 228.853 163.626 229.211 163.626 229.68V234.64C163.626 235.099 163.754 235.456 164.01 235.712C164.277 235.957 164.65 236.08 165.13 236.08C165.61 236.08 165.978 235.957 166.234 235.712C166.501 235.456 166.634 235.099 166.634 234.64V233.632H164.906V231.6H169.034V234.64C169.034 235.344 168.869 235.963 168.538 236.496C168.218 237.019 167.765 237.429 167.178 237.728C166.602 238.016 165.92 238.16 165.13 238.16ZM171.164 238V226.32H178.364V228.4H173.516V231.024H177.804V233.008H173.516V235.92H178.364V238H171.164Z" fill="#F4F4F4"/>
<path d="M132.213 215.76L137.733 200.72H140.213L134.693 215.76H132.213ZM247.626 215.76L253.146 200.72H255.626L250.106 215.76H247.626Z" fill="#8C8C8E"/>
<path d="M359.001 196H337.801L316.601 217.31L327.201 227.986L359.001 196Z" fill="#7F52FF"/>
<path d="M343.101 244L327.201 227.987H343.101L359.001 244H343.101Z" fill="#7F52FF"/>
<path d="M306 206.676L316.6 196V206.676H306Z" fill="#7F52FF"/>
</svg>
