<?xml version="1.0" encoding="UTF-8"?><svg id="Layer_1" xmlns="http://www.w3.org/2000/svg" viewBox="0 0 80 80"><defs><style>.cls-1{fill:#8c8c8e;}</style></defs><path class="cls-1" d="M80,80H0V0H80V80Zm-41-15H9v5h30v-5ZM11.84,22.73c1.43,0,2.6-.45,3.43-1.27,.84-.84,1.23-1.94,1.23-3.51v-7.92h-3.44v7.9c0,1.16-.55,1.75-1.41,1.75-.78,0-1.36-.43-1.96-1.16l-2.23,2.11c.89,1.2,2.21,2.11,4.39,2.11Zm6.2-.21h10.13v-2.94h-6.71v-1.98h5.99v-2.73h-5.99v-1.91h6.62v-2.93h-10.05v12.49Zm14.94,0h3.46V13.06h3.75v-3.03h-10.94v3.03h3.73v9.46ZM8.84,39.93h5.92c2.98,0,4.73-1.3,4.73-3.44v-.04c0-1.69-.96-2.55-2.48-3.05,1.11-.48,1.93-1.34,1.93-2.78v-.04c0-.86-.3-1.52-.8-2.03-.73-.71-1.84-1.11-3.41-1.11h-5.89v12.49Zm6.69-8.6c0,.73-.61,1.09-1.66,1.09h-1.66v-2.19h1.75c1.02,0,1.57,.37,1.57,1.07v.04Zm.5,4.64v.04c0,.73-.59,1.14-1.66,1.14h-2.16v-2.3h2.12c1.16,0,1.69,.45,1.69,1.12Zm4.57,3.96h3.46v-3.78h1.16l2.52,3.78h3.98l-2.98-4.35c1.55-.66,2.57-1.93,2.57-3.85v-.04c0-1.23-.37-2.18-1.11-2.91-.84-.84-2.16-1.34-4.07-1.34h-5.53v12.49Zm3.46-6.49v-3.02h1.91c1.14,0,1.87,.5,1.87,1.5v.04c0,.91-.7,1.48-1.86,1.48h-1.93Zm6.76,6.49h3.62l.89-2.25h4.84l.89,2.25h3.71l-5.32-12.58h-3.34l-5.3,12.58Zm5.53-4.94l1.41-3.53,1.39,3.53h-2.8Zm8.93,4.91h3.46v-12.49h-3.46v12.49Zm4.8,0h3.43v-6.85l4.71,6.85h3.02v-12.49h-3.43v6.6l-4.49-6.6h-3.23v12.49Zm17.59,.21c3.03,0,5.05-1.52,5.05-4.07v-.04c0-2.34-1.78-3.26-4.64-3.89-1.75-.39-2.18-.64-2.18-1.21v-.04c0-.46,.41-.8,1.25-.8,1.11,0,2.36,.41,3.5,1.23l1.73-2.44c-1.36-1.09-3.02-1.66-5.14-1.66-3,0-4.84,1.68-4.84,4v.04c0,2.55,2.05,3.3,4.71,3.91,1.71,.41,2.12,.68,2.12,1.21v.04c0,.54-.5,.86-1.45,.86-1.45,0-2.8-.52-4.05-1.5l-1.93,2.3c1.55,1.37,3.64,2.07,5.85,2.07Z"/></svg>