<svg width="270" height="112" viewBox="0 0 270 112" fill="none" xmlns="http://www.w3.org/2000/svg">
<path d="M231.337 23.726L199.052 65.6744C198.934 65.5961 198.817 65.4785 198.778 65.361C193.802 58.8984 188.826 52.4358 183.85 45.9731L166.963 24.0002C166.884 23.8827 166.728 23.8044 166.767 23.6477H230.984C231.102 23.6477 231.259 23.5302 231.337 23.726Z" fill="#FEE475"/>
<path d="M66.9732 88.274C68.4621 88.1957 69.951 87.9998 71.4007 87.7257C74.8094 87.099 78.0614 85.8456 81 84.0831C84.0561 82.2814 86.7204 79.8922 88.8361 77.0721C90.6776 74.6046 91.853 71.7453 92.284 68.6903C93.0284 63.951 91.9314 59.0943 89.2279 55.1383C86.8379 51.5741 83.5858 48.6757 79.7853 46.7173C78.5707 46.0907 77.3561 45.5032 76.0631 45.0331C75.6713 44.8765 75.6713 44.8765 75.828 44.4456C76.6508 42.2131 76.8859 39.8239 76.4549 37.4738C76.0631 35.1238 75.0444 32.9304 73.5164 31.1287C71.0088 28.1128 67.6784 25.8411 63.9171 24.7052C62.2715 24.1961 60.5867 23.8827 58.8628 23.726V23.6477H101.844C101.844 23.8044 101.844 23.961 101.844 24.1177V88.039C101.844 88.1173 101.844 88.1957 101.962 88.1957V88.3915H66.9732C66.934 88.3524 66.934 88.3132 66.9732 88.274Z" fill="#FD6565"/>
<path d="M101.923 88.1957C101.844 88.1565 101.844 88.1173 101.805 88.039V24.1177C101.805 23.961 101.805 23.8044 101.805 23.6477H134.051C134.129 23.8435 133.973 23.9611 133.894 24.0786C132.366 27.1728 130.799 30.267 129.271 33.3221C120.22 51.4566 111.169 69.5911 102.119 87.6865C102.04 87.8823 101.962 88.039 101.923 88.1957Z" fill="#539BFF"/>
<path d="M166.492 23.6477C166.492 23.8043 166.492 23.961 166.492 24.1177V88.1565H166.414C166.336 88.039 166.257 87.8823 166.179 87.7648L145.805 47.0307C142.004 39.393 138.165 31.7553 134.364 24.1177C134.286 23.961 134.129 23.8435 134.207 23.6085L166.492 23.6477Z" fill="#539BFF"/>
<path d="M117.673 88.3915C117.713 88.1957 117.752 88.039 117.869 87.8823L133.111 57.3709C133.385 56.8225 133.659 56.2742 133.933 55.7258C133.933 55.6867 133.894 55.6475 133.933 55.5692C133.973 55.4908 133.973 55.4908 133.973 55.4517C134.012 55.4125 134.051 55.3733 134.09 55.3733C134.129 55.3733 134.168 55.3342 134.208 55.3342C134.247 55.3342 134.286 55.3342 134.325 55.3733C134.364 55.4125 134.404 55.4517 134.404 55.4908C134.443 55.53 134.443 55.5692 134.443 55.6083C134.443 55.6475 134.443 55.6867 134.404 55.7258L141.691 70.3353C144.591 76.1712 147.529 82.0072 150.429 87.8432C150.546 87.9998 150.624 88.1565 150.624 88.3523H117.673V88.3915Z" fill="#539BFF"/>
<path d="M180.01 88.3915C180.01 88.2348 180.01 88.1173 180.01 87.9606C180.01 79.6571 180.01 72.8812 180.01 64.5777V62.6193L180.088 62.5801L199.052 87.334L218.015 62.5801C218.054 62.5801 218.054 64.1077 218.093 64.1077V88.3915H180.01Z" fill="#FEE475"/>
<path d="M66.9732 88.274C66.934 88.3132 66.934 88.3523 66.9732 88.3915H65.3276C65.3668 88.3523 65.3668 88.3523 65.406 88.3132C65.4452 88.3132 65.4844 88.274 65.5235 88.274C65.9545 88.3132 66.4247 88.274 66.8557 88.1957C66.8948 88.1957 66.934 88.2348 66.9732 88.274Z" fill="white"/>
<path d="M58.8236 23.6477V23.726C58.3142 23.7652 57.8049 23.6085 57.2563 23.6477H58.8236Z" fill="#FF2B2B"/>
<path d="M52.9072 65.6352V56.6267C52.9072 56.5483 52.9072 56.47 52.9072 56.3525C52.9072 55.9608 52.9072 55.9608 53.299 55.9608C57.2171 55.9608 61.1352 55.9608 65.0141 55.9608C67.9135 55.9608 70.7345 56.9008 72.9678 58.7025C74.4567 59.7992 75.5537 61.2876 76.1414 63.0501C77.1601 66.1835 76.4941 69.0428 74.2216 71.4711C72.3801 73.4295 69.9508 74.722 67.3257 75.1137C66.3462 75.2704 65.3667 75.3487 64.3872 75.3487H53.3382C52.8288 75.3487 52.9072 75.3879 52.9072 74.9179V65.6352Z" fill="#FD6565"/>
<path d="M52.9073 39.7846C52.9073 38.8055 52.9073 37.8263 52.9073 36.8471C52.9073 36.6121 52.9857 36.5338 53.1816 36.5338C54.6705 36.5729 56.1986 36.4946 57.6874 36.6121C58.04 36.6513 58.3927 36.6904 58.7453 36.8079C59.333 36.9646 59.8423 37.3171 60.195 37.7479C60.5476 38.2179 60.7827 38.8055 60.7827 39.393C60.8218 39.7846 60.7826 40.1763 60.7434 40.5288C60.6651 41.038 60.4692 41.508 60.1166 41.8997C59.8032 42.2914 59.3722 42.5655 58.8628 42.7222C58.1968 42.918 57.4915 43.0356 56.7862 42.9964C55.6108 42.9964 54.3962 42.9964 53.2208 42.9964C52.9073 42.9964 52.8682 42.9964 52.8682 42.6439C52.9073 41.7038 52.9073 40.7247 52.9073 39.7846Z" fill="#FD6565"/>
</svg>
