<svg width="270" height="112" viewBox="0 0 270 112" fill="none" xmlns="http://www.w3.org/2000/svg">
<path fill-rule="evenodd" clip-rule="evenodd" d="M8.22081 33.0283L0 77.4133V77.4511H2.08362L9.77409 38.2546V77.4511H33.5653L39.4373 40.0724L39.854 77.4511H63.6451V33.142H38.3765L33.7925 60.2955L33.6031 33.0283H8.22081ZM100.733 65.0293C100.923 65.4838 101.188 65.711 101.529 65.9004C101.639 65.9613 101.768 66.0026 101.872 66.0357C102.09 66.1054 102.193 66.1385 101.756 66.2412C101.756 66.4306 101.491 66.4306 100.885 66.4306H100.809C100.336 66.4306 99.8338 66.3833 99.3318 66.3359C98.8298 66.2886 98.3279 66.2412 97.8543 66.2412C97.5134 66.2412 97.144 66.2602 96.7746 66.2791C96.4053 66.298 96.0359 66.317 95.695 66.317H95.6191C95.4297 66.317 95.354 66.2033 95.354 66.1276C95.354 66.0519 95.6192 66.0519 95.695 66.0519C96.0286 66.0519 96.2897 65.9068 96.6202 65.7232L96.6421 65.711C97.4376 65.2566 97.4376 63.8934 97.4376 63.0981V63.0979C97.4376 62.4447 97.3736 61.8554 97.3097 61.2661L97.3097 61.2659C97.2884 61.0694 97.2671 60.873 97.2481 60.6742L96.4526 50.8277C96.4526 50.6383 96.339 50.3733 96.2632 50.2975C96.1117 50.449 95.9222 50.7141 95.5813 51.5851L89.5198 64.9157C89.4644 65.0154 89.4115 65.1119 89.3609 65.2039C89.0659 65.7412 88.8536 66.1276 88.7242 66.1276C88.6216 66.1276 88.5364 65.9713 88.4686 65.8469C88.4362 65.7876 88.4078 65.7355 88.3833 65.711C88.1841 65.2795 87.9921 64.8407 87.5906 63.9229L87.5906 63.9227L87.5901 63.9218L87.59 63.9215L87.5895 63.9203C87.0747 62.7435 86.2157 60.78 84.557 57.0385C83.6857 54.9556 82.6249 52.797 81.602 50.7898C81.602 50.7141 81.4126 50.449 81.3369 50.3732C81.2611 50.449 81.2611 50.6004 81.2611 50.7896V50.7898L80.4655 61.0908C80.4655 61.5261 80.4466 61.9615 80.4277 62.3968L80.4276 62.3973C80.4087 62.8328 80.3898 63.2683 80.3898 63.7038C80.3898 64.3098 80.4655 65.4459 81.0717 65.7868C81.4469 66.0446 81.6915 66.0703 81.9492 66.0974C82.1078 66.1141 82.2713 66.1312 82.4734 66.2034H82.4735C82.5113 66.2034 82.5302 66.2034 82.5397 66.2128C82.5491 66.2223 82.5491 66.2412 82.5491 66.2791C82.5491 66.3548 82.1325 66.3548 82.1325 66.3548H82.0567C81.621 66.3548 81.2138 66.3075 80.8065 66.2601C80.3993 66.2128 79.992 66.1655 79.5563 66.1655C79.1586 66.1655 78.7514 66.2128 78.3442 66.2601L78.3441 66.2601L78.3439 66.2602C77.9367 66.3075 77.5295 66.3548 77.1318 66.3548H77.056H77.0558C76.8286 66.3548 76.6393 66.3548 76.6393 66.2791C76.6393 66.2034 76.8287 66.2034 76.9044 66.2034C77.2454 66.1276 77.4348 66.0519 77.7758 65.8625C78.5714 65.2566 78.8366 63.4388 78.9123 62.492C79.0196 61.446 79.1248 60.4022 79.2299 59.3594L79.2309 59.3499L79.231 59.3492C79.5707 55.9781 79.9092 52.6186 80.314 49.2371L80.8444 44.8062C80.8444 44.6926 80.9202 44.276 81.1096 44.276C81.2299 44.276 81.3348 44.4134 81.4633 44.5815C81.5372 44.6783 81.6189 44.7851 81.7157 44.8819C81.9051 45.3364 82.1325 45.8666 82.3219 46.2831C82.4036 46.4582 82.4853 46.6323 82.5875 46.8502L82.5877 46.8505C83.149 48.0467 84.3286 50.5607 89.5198 61.7724C89.5577 61.8103 89.6051 61.8766 89.6524 61.9428C89.6998 62.0091 89.7471 62.0754 89.785 62.1133C89.9413 61.9571 90.1238 61.538 90.4411 60.8095C90.6624 60.3015 90.9492 59.6431 91.3383 58.8185L97.7407 44.9576C97.7716 44.9003 97.7999 44.847 97.8261 44.7977C98.025 44.4238 98.1037 44.276 98.271 44.276C98.3847 44.276 98.4604 44.3517 98.4604 44.6926L98.9909 50.2217C99.0192 50.4935 99.0686 50.9954 99.1337 51.6556C99.504 55.4115 100.379 64.2885 100.733 65.0293ZM128.465 66.0141C128.048 65.8247 127.669 65.5975 127.518 65.143C127.315 64.8272 127.166 64.4846 127.022 64.155L127.022 64.1549C126.924 63.9312 126.83 63.7136 126.722 63.5145L120.926 48.0253C120.681 47.4304 120.476 46.8517 120.275 46.2818C120.04 45.6179 119.81 44.9659 119.524 44.3139C119.502 44.2914 119.476 44.2353 119.445 44.1677L119.445 44.1677C119.371 44.008 119.267 43.7837 119.108 43.7837C118.944 43.7837 118.567 44.7587 118.045 46.107C117.839 46.6377 117.611 47.2262 117.365 47.8359L112.175 60.8257C111.569 62.4541 110.622 64.9915 109.675 65.8626C109.498 65.9997 109.251 66.0659 109.053 66.1188C108.869 66.1682 108.727 66.206 108.727 66.2791C108.727 66.4306 109.068 66.4685 109.144 66.4685C109.495 66.4685 109.806 66.4484 110.108 66.429L110.108 66.4289C110.392 66.4106 110.668 66.3928 110.963 66.3928C111.276 66.3928 111.66 66.413 112.031 66.4325C112.378 66.4508 112.714 66.4685 112.97 66.4685C113.046 66.4685 113.311 66.4685 113.311 66.2791C113.311 66.1525 113.04 66.1106 112.804 66.074C112.687 66.0559 112.579 66.0391 112.516 66.0141C112.099 65.749 111.91 65.4081 111.91 64.8779C111.91 64.4613 112.251 63.3252 112.44 62.8707L113.728 59.4245C114.069 58.5534 114.145 58.5534 115.13 58.5534H121.002C122.025 58.5534 122.138 58.7428 122.479 59.5002L123.957 63.3252C124.146 63.7418 124.298 64.5371 124.298 64.9536C124.298 65.4838 124.108 65.9004 123.616 65.9762C123.554 66.0009 123.431 66.0095 123.294 66.0191C123.012 66.0388 122.669 66.0628 122.669 66.2413C122.669 66.317 123.199 66.317 123.199 66.317H123.275C123.673 66.317 124.061 66.2981 124.449 66.2791L124.449 66.2791L124.45 66.2791C124.838 66.2602 125.226 66.2413 125.624 66.2413C126.097 66.2413 126.571 66.2602 127.044 66.2791C127.518 66.2981 127.991 66.317 128.465 66.317H128.541C128.617 66.317 128.73 66.317 128.73 66.1276C129.298 66.0898 128.541 66.0141 128.465 66.0141ZM115.395 57.2658C115.13 57.2658 114.978 57.2658 114.978 57.0764C114.978 56.8113 116.607 52.7591 116.797 52.3047L118.009 49.275C118.274 48.6691 118.426 48.3282 118.539 48.1389C118.707 48.3069 118.846 48.654 119.193 49.5242C119.236 49.6344 119.284 49.7531 119.335 49.8809L120.282 52.3805C120.471 52.797 121.835 56.622 121.835 56.8871C121.835 57.1522 121.419 57.1522 121.04 57.1522H115.395V57.2658ZM158.241 44.6169H158.317H158.317C158.506 44.6169 158.733 44.6169 158.43 44.7683C158.43 44.8432 158.282 44.8811 158.082 44.9322C157.877 44.9846 157.618 45.0509 157.408 45.1849C156.877 45.4122 156.801 48.6312 156.801 49.2371V65.8625C156.801 66.2791 156.801 66.885 156.612 66.885C156.352 66.885 155.694 66.135 155.28 65.662C155.151 65.5152 155.046 65.3951 154.983 65.3323L140.284 49.4265L139.754 48.8963V49.578V62.5677C139.754 63.4388 139.829 65.143 140.625 65.6732L140.658 65.6921C140.906 65.8342 141.094 65.9415 141.421 66.014C141.61 66.014 141.951 66.1276 141.951 66.2034C141.951 66.3927 141.534 66.3927 141.345 66.3927C140.947 66.3927 140.625 66.3454 140.303 66.2981C139.981 66.2507 139.659 66.2034 139.261 66.2034C138.872 66.2034 138.474 66.2233 138.085 66.2427L138.085 66.2428C137.717 66.2612 137.358 66.2791 137.026 66.2791C136.912 66.2791 136.496 66.2791 136.496 66.0898C136.496 66.0203 136.663 65.9986 136.884 65.9699C137.146 65.9361 137.482 65.8924 137.708 65.7489C138.428 65.2945 138.504 63.2494 138.504 62.4541V49.7295V45.5636C138.504 45.0713 138.579 44.5411 138.769 44.5411H138.844C139.054 44.5411 139.525 45.0624 139.806 45.3741C139.88 45.4564 139.941 45.5241 139.981 45.5636L155.286 62.2648C155.362 62.2648 155.551 62.4541 155.627 62.5299C155.703 62.4541 155.703 62.1134 155.703 61.8484V61.8482L155.513 49.578C155.513 48.8205 155.4 46.2074 154.983 45.6015C154.706 45.2318 154.245 45.0877 153.928 44.9885C153.725 44.9251 153.581 44.88 153.581 44.8062C153.581 44.6169 153.771 44.6169 153.847 44.6169H153.922C154.263 44.6169 154.633 44.6642 155.002 44.7115C155.371 44.7589 155.741 44.8062 156.082 44.8062C156.47 44.8062 156.849 44.7564 157.218 44.7078C157.568 44.6617 157.909 44.6169 158.241 44.6169ZM190.518 44.6169H190.442C190.11 44.6169 189.77 44.6617 189.42 44.7078C189.051 44.7564 188.672 44.8062 188.283 44.8062C187.942 44.8062 187.573 44.7589 187.203 44.7115C186.834 44.6642 186.465 44.6169 186.124 44.6169H186.048C185.972 44.6169 185.783 44.6169 185.783 44.8062C185.783 44.88 185.927 44.9251 186.129 44.9885C186.446 45.0877 186.907 45.2318 187.184 45.6015C187.601 46.2074 187.715 48.8205 187.715 49.578L187.904 61.8482V61.8484C187.904 62.1134 187.904 62.4541 187.828 62.5299C187.753 62.4541 187.563 62.2648 187.487 62.2648L172.182 45.5636C172.143 45.5241 172.082 45.4564 172.007 45.3741C171.726 45.0624 171.256 44.5411 171.046 44.5411H170.97C170.781 44.5411 170.705 45.0713 170.705 45.5636V49.7295V62.4541C170.705 63.2494 170.629 65.2945 169.909 65.7489C169.684 65.8924 169.347 65.9361 169.086 65.9699C168.864 65.9986 168.697 66.0203 168.697 66.0898C168.697 66.2791 169.114 66.2791 169.227 66.2791C169.559 66.2791 169.918 66.2612 170.287 66.2428L170.287 66.2427C170.675 66.2233 171.074 66.2034 171.463 66.2034C171.86 66.2034 172.182 66.2507 172.504 66.2981C172.826 66.3454 173.148 66.3927 173.546 66.3927C173.736 66.3927 174.152 66.3927 174.152 66.2034C174.152 66.1276 173.811 66.014 173.622 66.014C173.295 65.9415 173.108 65.8342 172.859 65.6921L172.826 65.6732C172.031 65.143 171.955 63.4388 171.955 62.5677V49.578V48.8963L172.485 49.4265L187.184 65.3323C187.247 65.3951 187.353 65.5152 187.481 65.662C187.896 66.135 188.553 66.885 188.813 66.885C189.003 66.885 189.003 66.2791 189.003 65.8625V49.2371C189.003 48.6312 189.079 45.4122 189.609 45.1849C189.82 45.0509 190.079 44.9846 190.284 44.9322C190.484 44.8811 190.632 44.8432 190.632 44.7683C190.935 44.6169 190.708 44.6169 190.518 44.6169H190.518ZM205.255 61.9239C205.255 63.666 205.255 65.2187 206.203 65.7489C206.468 65.9324 206.865 65.9952 207.246 66.0554C207.572 66.107 207.887 66.1567 208.097 66.2791C208.097 66.3927 207.945 66.4684 207.756 66.4684H207.68H207.604H207.529H207.453C207.026 66.4684 206.536 66.4231 206.036 66.3767C205.514 66.3284 204.981 66.2791 204.498 66.2791C204.001 66.2791 203.581 66.2984 203.165 66.3175H203.164L203.164 66.3175C202.756 66.3363 202.353 66.3548 201.884 66.3548H201.808C201.619 66.3548 201.543 66.2412 201.543 66.1655C201.543 66.0438 201.758 65.9779 202.043 65.8911C202.378 65.7887 202.809 65.657 203.096 65.3702C203.513 65.0294 203.513 63.4392 203.513 62.4167V62.4163V47.4572C203.513 45.9802 203.437 45.2227 202.035 44.9576C201.694 44.8819 201.429 44.7683 201.429 44.6926C201.429 44.5789 201.619 44.5032 201.96 44.5032C202.311 44.5032 202.688 44.5482 203.076 44.5943C203.483 44.6428 203.901 44.6926 204.308 44.6926C204.783 44.6926 205.259 44.6363 205.691 44.5851C206.051 44.5424 206.382 44.5032 206.657 44.5032H206.733C206.922 44.5032 207.339 44.5032 207.339 44.6926C207.339 44.8051 207.005 44.9042 206.662 45.0059C206.427 45.0753 206.189 45.1459 206.051 45.2228C205.255 45.6393 205.255 46.7753 205.255 47.6463V47.6465V61.9239ZM239.427 44.6169H239.351C239.019 44.6169 238.678 44.6617 238.328 44.7078C237.959 44.7564 237.581 44.8062 237.192 44.8062C236.851 44.8062 236.481 44.7589 236.112 44.7115C235.743 44.6642 235.373 44.6169 235.032 44.6169C234.956 44.6169 234.767 44.6169 234.767 44.8062C234.767 44.88 234.911 44.9251 235.114 44.9885C235.431 45.0877 235.891 45.2318 236.169 45.6015C236.585 46.2074 236.699 48.8205 236.699 49.578L236.889 61.8482V61.8484C236.889 62.1134 236.889 62.4541 236.813 62.5299C236.737 62.4541 236.548 62.2648 236.472 62.2648L221.167 45.5636C221.127 45.5241 221.066 45.4564 220.992 45.3741C220.711 45.0624 220.24 44.5411 220.03 44.5411H219.954C219.765 44.5411 219.689 45.0713 219.689 45.5636V49.7295V62.4541C219.689 63.2494 219.613 65.2945 218.894 65.7489C218.668 65.8924 218.331 65.9361 218.07 65.9699C217.849 65.9986 217.681 66.0203 217.681 66.0898C217.681 66.2791 218.098 66.2791 218.212 66.2791C218.544 66.2791 218.902 66.2612 219.271 66.2428L219.271 66.2427L219.271 66.2427C219.659 66.2233 220.058 66.2034 220.447 66.2034C220.845 66.2034 221.167 66.2507 221.489 66.2981C221.811 66.3454 222.133 66.3927 222.531 66.3927C222.72 66.3927 223.137 66.3927 223.137 66.2034C223.137 66.1276 222.796 66.014 222.606 66.014C222.28 65.9415 222.092 65.8342 221.844 65.6921L221.811 65.6732C221.015 65.143 220.939 63.4388 220.939 62.5677V49.578V48.8963L221.47 49.4265L236.169 65.3323C236.232 65.3951 236.337 65.5152 236.465 65.662L236.466 65.6622C236.88 66.1352 237.538 66.885 237.798 66.885C237.987 66.885 237.987 66.2791 237.987 65.8625V49.2371C237.987 48.6312 238.063 45.4122 238.593 45.1849C238.804 45.0509 239.063 44.9846 239.268 44.9322C239.468 44.8811 239.616 44.8432 239.616 44.7683C239.843 44.6169 239.616 44.6169 239.427 44.6169H239.427ZM269.053 55.5995H269.129C269.204 55.5995 269.47 55.5995 270 55.8646C270 55.9538 269.807 56.0009 269.559 56.0615C269.28 56.1295 268.932 56.2145 268.712 56.3948C268.182 56.8493 268.106 57.7203 268.106 59.6138V65.143C268.106 65.3702 268.03 65.4838 267.841 65.5596C266.704 66.4306 262.916 66.8472 261.514 66.8472C253.824 66.8472 249.315 63.4009 249.315 55.1829C249.315 51.0171 251.664 46.7755 255.566 45.1471C256.892 44.5411 259.127 44.3518 260.605 44.3518C262.082 44.3518 263.446 44.4275 264.924 44.7683C265.123 44.8182 265.388 44.9091 265.679 45.0086C266.27 45.2114 266.966 45.45 267.424 45.45C267.859 45.4017 268.016 45.2764 268.122 45.192C268.183 45.144 268.227 45.1092 268.295 45.1092H268.371C268.371 45.1092 268.447 45.1092 268.447 45.2985C268.447 45.6115 268.391 45.9084 268.33 46.2297C268.259 46.6083 268.182 47.0208 268.182 47.533V48.404C268.182 49.0099 268.182 49.6159 267.992 49.6159C267.803 49.6159 267.727 49.3886 267.727 49.1993C267.727 48.6479 267.413 48.2533 267.043 47.7873C267.006 47.7412 266.969 47.6943 266.931 47.6466C265.454 45.9045 262.272 45.2228 260.188 45.2228C258.597 45.2228 257.233 45.4122 255.756 46.0938C252.649 47.4951 251.513 50.752 251.513 53.971C251.513 57.6824 252.46 61.2423 255.415 63.666C257.233 65.143 259.127 65.8247 261.476 65.8247C262.575 65.8247 263.976 65.5596 264.924 64.8779C265.795 64.1584 265.871 63.0601 265.871 61.6589V58.2126C265.871 57.796 265.681 56.925 265.34 56.5842C265 56.2436 264.551 56.1184 264.224 56.0269C263.969 55.9557 263.787 55.905 263.787 55.7889C263.787 55.5995 264.014 55.5995 264.204 55.5995C264.501 55.5995 264.85 55.6356 265.242 55.6763C265.749 55.7287 266.329 55.7889 266.969 55.7889C267.272 55.7889 267.642 55.7415 268.011 55.6942C268.38 55.6469 268.75 55.5995 269.053 55.5995Z" fill="#999A98"/>
</svg>
