<svg width="343" height="204" viewBox="0 0 343 204" fill="none" xmlns="http://www.w3.org/2000/svg">
<g clip-path="url(#clip0_2224_92498)">
<path d="M213.438 98.1047L244.479 72.5267V27.5384L213.438 13.0177V98.1047Z" fill="#7F52FF"/>
<path d="M343 31.5L277.862 82.5849L247.469 135.741L260.119 176.099L343 31.5Z" fill="#FF6500"/>
<path d="M213.455 44.5789H182.32L213.436 13L213.455 44.5789Z" fill="white"/>
<path d="M275.683 148.891L322.5 176.08L307.021 203.769L260.125 176.08L275.683 148.891Z" fill="white"/>
<path d="M311.406 16.5111L213.336 97.9308L244.804 112.655L343 31.5L311.406 16.5111Z" fill="white"/>
<path d="M230.305 92.2294L237.454 108.176L239.176 106.732L237.083 102.305L241.158 98.9156L245.122 101.805L246.881 100.342L232.62 90.3032L230.305 92.2294ZM234.157 93.8038L239.714 97.8599L236.324 100.675L233.379 94.4705C233.101 93.8964 232.842 93.3963 232.601 92.9888C232.49 92.7851 232.379 92.5999 232.286 92.4332L232.361 92.3776C232.509 92.5073 232.657 92.6369 232.842 92.8036C233.194 93.0814 233.639 93.4148 234.157 93.8038Z" fill="black"/>
<path d="M241.433 87.9511C241.174 87.6548 240.933 87.414 240.711 87.1917C240.452 86.9324 240.211 86.6917 239.989 86.4694L240.118 86.3583C240.322 86.5065 240.581 86.6917 240.878 86.8954C241.118 87.0621 241.415 87.2658 241.767 87.4881C242.118 87.7103 242.526 87.9696 242.97 88.2475L246.823 90.6737L248.268 89.4884L246.582 85.2655C246.397 84.821 246.23 84.4321 246.082 84.0616C245.915 83.6912 245.767 83.3763 245.638 83.08C245.489 82.7466 245.341 82.4503 245.212 82.191L245.397 82.0428C245.563 82.3206 245.749 82.5984 245.952 82.8948C246.119 83.1541 246.323 83.4504 246.564 83.7653C246.786 84.0802 247.045 84.395 247.304 84.7099L254.843 93.7853L256.454 92.4333L245.675 79.4498L243.526 81.2464L245.73 86.8213C245.823 87.0436 245.915 87.2844 246.045 87.5436C246.156 87.7844 246.267 88.0067 246.36 88.2289C246.471 88.4697 246.601 88.7105 246.73 88.9327L246.582 89.0624C246.378 88.8957 246.193 88.729 245.971 88.5623C245.786 88.4327 245.6 88.2845 245.378 88.1178C245.156 87.9511 244.934 87.8215 244.73 87.6918L239.563 84.5802L237.414 86.3768L248.175 99.3232L249.786 97.9712L242.248 88.8957C241.952 88.5438 241.692 88.2475 241.433 87.9511Z" fill="black"/>
<path d="M256.565 82.0427L258.584 81.2833C259.288 81.024 259.973 80.9499 260.64 81.0796C261.288 81.2092 261.844 81.5426 262.27 82.0797C262.77 82.6909 262.955 83.3577 262.807 84.08C262.659 84.8023 262.196 85.4876 261.399 86.1359C260.64 86.7656 259.862 87.0805 259.102 87.099C258.325 87.099 257.676 86.8026 257.158 86.1729L255.417 87.6176C256.324 88.6548 257.417 89.1734 258.714 89.1734C260.01 89.1734 261.288 88.6548 262.566 87.5991C263.881 86.5063 264.659 85.3395 264.9 84.0985C265.14 82.8576 264.807 81.6908 263.918 80.6165C263.177 79.709 262.27 79.1533 261.232 78.9126C260.195 78.6718 259.065 78.7829 257.862 79.2274L255.75 80.0053C254.88 80.3202 254.157 80.4128 253.583 80.3202C253.009 80.2091 252.49 79.8942 252.046 79.3756C251.583 78.82 251.416 78.1902 251.546 77.5235C251.675 76.8567 252.083 76.2455 252.768 75.6713C253.435 75.1157 254.139 74.8379 254.843 74.8564C255.546 74.8749 256.158 75.1898 256.676 75.801L258.417 74.3563C257.528 73.3376 256.454 72.8005 255.232 72.782C254.009 72.7635 252.787 73.245 251.583 74.2267C250.36 75.2453 249.657 76.3381 249.471 77.5235C249.286 78.7088 249.62 79.8386 250.49 80.8943C251.953 82.6354 253.954 83.0058 256.565 82.0427Z" fill="black"/>
<path d="M262.105 68.1885L271.681 79.7273L273.385 78.3197L263.809 66.7809L267.662 63.5952L266.476 62.1691L257.086 69.9665L258.271 71.3927L262.105 68.1885Z" fill="black"/>
<path d="M286.72 67.244L285.479 65.7623L279.312 70.8927L275.608 66.4291L281.145 61.8358L279.905 60.3726L274.385 64.9474L271.014 60.8912L277.182 55.7608L275.96 54.2976L268.125 60.7986L278.886 73.745L286.72 67.244Z" fill="black"/>
<path d="M290.571 64.0217L286.089 58.632L288.312 56.7799L295.368 60.0396L297.313 58.4098L289.868 55.1685C290.479 54.261 290.757 53.2794 290.701 52.2607C290.645 51.242 290.256 50.2789 289.497 49.3714C289.034 48.8157 288.515 48.3712 287.941 48.0749C287.367 47.7785 286.774 47.5933 286.145 47.5563C285.515 47.5192 284.885 47.5933 284.237 47.8341C283.589 48.0563 282.978 48.4268 282.366 48.9268L278.125 52.4459L288.886 65.3923L290.571 64.0217ZM281.014 52.52L283.589 50.3715C284.274 49.7973 284.996 49.5566 285.774 49.6307C286.552 49.7047 287.219 50.0937 287.812 50.816C288.404 51.5198 288.664 52.2607 288.608 53.02C288.553 53.7794 288.164 54.4647 287.478 55.0389L284.904 57.1873L281.014 52.52Z" fill="black"/>
<path d="M302.704 53.9458C303.334 53.4087 303.834 52.8346 304.205 52.2048C304.575 51.5751 304.797 50.9454 304.89 50.2786C304.983 49.6304 304.927 48.9636 304.723 48.3154C304.52 47.6486 304.168 47.0374 303.686 46.4447L299.482 41.3884C299 40.7957 298.445 40.3512 297.833 40.0363C297.222 39.7215 296.592 39.5362 295.944 39.5177C295.277 39.4807 294.611 39.5918 293.944 39.8326C293.259 40.0734 292.61 40.4623 291.962 40.9994L288.258 44.074L299.019 57.0204L302.704 53.9458ZM293.147 42.4441C293.925 41.7959 294.74 41.518 295.592 41.5736C296.444 41.6292 297.185 42.0366 297.815 42.796L302.019 47.8523C302.649 48.6117 302.908 49.4081 302.834 50.2601C302.741 51.1121 302.315 51.8529 301.538 52.5012L299.5 54.2051L291.129 44.1295L293.147 42.4441Z" fill="black"/>
<path d="M310.051 47.8522L307.959 43.4256L312.033 40.0362L315.997 42.9256L317.756 41.4624L303.495 31.4238L301.18 33.35L308.329 49.2969L310.051 47.8522ZM304.236 35.5541C303.958 34.9799 303.699 34.4798 303.458 34.0724C303.347 33.8686 303.236 33.6834 303.143 33.5167L303.217 33.4612C303.365 33.5908 303.513 33.7205 303.699 33.8872C304.051 34.202 304.495 34.5354 305.014 34.9244L310.57 38.9805L307.181 41.7958L304.236 35.5541Z" fill="black"/>
<path d="M320.653 39.0547L313.114 29.9792C312.855 29.6643 312.596 29.368 312.337 29.0717C312.077 28.7753 311.836 28.5345 311.614 28.3123C311.355 28.053 311.114 27.8122 310.892 27.59L311.022 27.4788C311.225 27.627 311.485 27.8122 311.781 28.016C312.022 28.1826 312.318 28.3864 312.67 28.6086C313.022 28.8309 313.429 29.0902 313.874 29.368L317.726 31.7943L319.171 30.6089L317.485 26.3861C317.3 25.9416 317.134 25.5526 316.985 25.1822C316.837 24.8118 316.671 24.4969 316.541 24.2006C316.393 23.8672 316.245 23.5708 316.115 23.3115L316.3 23.1634C316.467 23.4412 316.652 23.719 316.856 24.0153C317.022 24.2746 317.226 24.571 317.467 24.8858C317.689 25.2007 317.948 25.5156 318.208 25.8304L325.746 34.9059L327.357 33.5538L316.596 20.6074L314.448 22.404L316.652 27.9789C316.745 28.2012 316.837 28.4419 316.967 28.7012C317.078 28.942 317.189 29.1643 317.282 29.3865C317.393 29.6273 317.523 29.8681 317.652 30.0903L317.504 30.22C317.3 30.0533 317.115 29.8866 316.893 29.7199C316.708 29.5903 316.522 29.4421 316.3 29.2754C316.078 29.1087 315.856 28.9791 315.652 28.8494L310.484 25.7378L308.336 27.5344L319.097 40.4808L320.653 39.0547Z" fill="black"/>
<path d="M225.363 45.524H232.605C234.142 45.524 235.365 45.061 236.272 44.1164C237.18 43.1718 237.624 41.8938 237.624 40.264C237.624 38.6341 237.18 37.3561 236.272 36.4115C235.365 35.4669 234.142 35.0039 232.605 35.0039H225.363C223.826 35.0039 222.603 35.4669 221.696 36.4115C220.788 37.3561 220.344 38.6341 220.344 40.264C220.344 41.8753 220.807 43.1533 221.714 44.0979C222.603 45.0425 223.826 45.524 225.363 45.524ZM223.048 37.9858C223.622 37.4302 224.381 37.1524 225.345 37.1524H232.586C233.549 37.1524 234.327 37.4302 234.883 37.9858C235.457 38.5415 235.735 39.3009 235.735 40.264C235.735 41.2271 235.457 41.9864 234.883 42.5421C234.309 43.0977 233.549 43.3755 232.586 43.3755H225.345C224.381 43.3755 223.603 43.0977 223.048 42.5421C222.474 41.9864 222.196 41.2271 222.196 40.264C222.196 39.3009 222.492 38.5415 223.048 37.9858Z" fill="white"/>
<path d="M220.57 74.8434V84.6597H222.422V80.8443H234.369L237.406 78.3439V74.8434H235.554V78.6403H222.422V74.8434H220.57Z" fill="white"/>
<path d="M237.406 33.4295V30.892L230.257 26.9655V24.2244H237.388L232.776 22.0574H220.57V24.2244H228.405V26.9655L220.57 31.1143V33.6702L229.405 28.8547L237.406 33.4295Z" fill="white"/>
<path d="M220.57 89.8272H223.478L225.979 87.7711H220.57V89.8272Z" fill="white"/>
<path d="M237.406 47.3204H235.554V52.3212H220.57V54.5252H235.554V59.526H237.406V47.3204Z" fill="white"/>
<path d="M237.406 61.9152H220.57V72.213H222.497V64.0636H237.406V61.9152Z" fill="white"/>
<path d="M293.378 104.273L291.767 103.347L289.877 106.663L278.468 100.106L280.376 96.8094L278.765 95.8833L273.875 104.403L275.486 105.311L277.376 102.014L288.766 108.57L286.877 111.867L288.488 112.775L293.378 104.273Z" fill="white"/>
<path d="M287.171 115.071L285.504 114.108L281.447 121.165L268.52 113.738L267.445 115.608L282.04 123.999L287.171 115.071Z" fill="white"/>
<path d="M266.239 117.683L260.164 128.259L261.757 129.185L264.257 124.851L277.259 132.315L278.352 130.407L265.35 122.943L267.85 118.59L266.239 117.683Z" fill="white"/>
<path d="M292.616 76.4913C293.302 76.2505 294.042 76.3061 294.82 76.6395L295.895 74.7688C294.561 74.2132 293.32 74.1206 292.172 74.5096C291.024 74.8985 290.06 75.7505 289.32 77.047C288.505 78.4546 288.264 79.8066 288.579 81.0661C288.894 82.3255 289.727 83.3442 291.061 84.1221L297.339 87.7338C298.673 88.4931 299.969 88.6969 301.229 88.345C302.488 87.9745 303.507 87.0855 304.322 85.6779C305.063 84.3814 305.322 83.122 305.081 81.9366C304.84 80.7327 304.137 79.714 302.988 78.8435L301.914 80.7142C302.599 81.2143 303.007 81.8255 303.136 82.5478C303.266 83.2701 303.118 83.9925 302.692 84.7518C302.21 85.6038 301.581 86.1224 300.821 86.3076C300.062 86.5114 299.247 86.3632 298.395 85.8631L292.116 82.2515C291.264 81.7699 290.727 81.1402 290.523 80.3808C290.32 79.6214 290.449 78.825 290.931 77.9916C291.375 77.2322 291.931 76.7321 292.616 76.4913Z" fill="white"/>
<path d="M284.445 92.8272C284.76 92.9198 285.112 92.9939 285.5 93.068C285.889 93.1421 286.26 93.2162 286.649 93.2903L298.706 95.0313L300.058 92.6606L285.463 84.2704L284.445 86.0484L294.372 91.753C294.724 91.9567 295.057 92.142 295.391 92.2901C295.724 92.4568 296.021 92.5865 296.28 92.6976C296.539 92.8087 296.817 92.9384 297.113 93.068L297.021 93.2347C296.613 93.1236 296.224 93.0125 295.835 92.9013C295.521 92.8087 295.169 92.7161 294.798 92.6235C294.428 92.5309 294.094 92.4753 293.78 92.4568L281.704 90.7899L280.352 93.1606L294.946 101.551L295.965 99.7727L285.982 94.0497C285.593 93.8274 285.223 93.6237 284.908 93.457C284.574 93.2903 284.297 93.1421 284.056 93.031C283.778 92.9013 283.519 92.7902 283.278 92.6976L283.371 92.5309C283.704 92.642 284.074 92.7346 284.445 92.8272Z" fill="white"/>
<path d="M305.781 62.2671L314.597 67.3234L315.616 65.5454L307.467 60.8595L305.781 62.2671Z" fill="white"/>
<path d="M309.061 67.3237L303.504 64.1381L301.745 65.6012L307.986 69.1944C308.82 69.6759 309.357 70.3057 309.561 71.065C309.783 71.8244 309.653 72.6393 309.172 73.4543C308.69 74.2877 308.06 74.8063 307.301 75.0101C306.523 75.2138 305.727 75.0656 304.893 74.5841L298.614 70.9724C297.892 70.565 297.429 70.0464 297.17 69.4166L295.484 70.8243C295.91 71.6207 296.596 72.306 297.559 72.8431L303.838 76.4547C305.171 77.2141 306.468 77.4178 307.727 77.0659C308.986 76.6955 310.005 75.8065 310.82 74.3989C311.616 73.0098 311.857 71.6577 311.542 70.3797C311.209 69.1203 310.394 68.0831 309.061 67.3237Z" fill="white"/>
<path d="M312.524 56.6553L314.024 57.5073C314.376 57.711 314.71 57.8963 315.043 58.0444C315.377 58.2111 315.673 58.3408 315.932 58.4519C316.191 58.563 316.469 58.6927 316.766 58.8223L316.673 58.989C316.266 58.8779 315.877 58.7668 315.488 58.6556C315.173 58.563 314.821 58.4704 314.45 58.3778C314.08 58.2852 313.747 58.2296 313.432 58.2111L311.024 57.8777L309.172 59.415L318.358 60.73L319.711 58.3593L314.21 55.1921L312.524 56.6553Z" fill="white"/>
<path d="M316.789 53.1364L321.272 55.7111L322.346 53.8403L318.549 51.6545L316.789 53.1364Z" fill="white"/>
<path d="M269.706 135.815L263.427 132.204C262.094 131.444 260.797 131.241 259.538 131.593C258.278 131.963 257.26 132.852 256.445 134.26C255.63 135.667 255.389 137.001 255.704 138.279C256.019 139.538 256.852 140.557 258.186 141.335L264.464 144.946C265.798 145.706 267.094 145.91 268.354 145.558C269.613 145.206 270.632 144.298 271.447 142.891C272.243 141.501 272.484 140.149 272.169 138.871C271.854 137.593 271.039 136.575 269.706 135.815ZM269.835 141.965C269.354 142.798 268.743 143.317 267.965 143.52C267.187 143.724 266.391 143.576 265.557 143.094L259.278 139.483C258.445 139.001 257.908 138.371 257.704 137.612C257.482 136.853 257.611 136.038 258.093 135.223C258.575 134.389 259.186 133.871 259.964 133.685C260.742 133.482 261.538 133.63 262.371 134.111L268.65 137.723C269.484 138.205 270.021 138.834 270.224 139.594C270.428 140.335 270.298 141.131 269.835 141.965Z" fill="white"/>
<path d="M253.247 140.298L251.969 142.502L256.229 149.466L254.858 151.855L252.006 150.225L252.95 153.244L262.174 158.541L263.248 156.67L256.451 152.781L257.821 150.392L266.675 150.707L267.953 148.484L257.896 148.243L253.247 140.298Z" fill="white"/>
<path d="M284.997 162.912L282.33 161.319L276.977 166.617L278.625 167.58L284.997 162.912Z" fill="black"/>
<path d="M280.792 177.488C280.903 177.488 281.014 177.47 281.125 177.47C281.236 177.47 281.347 177.451 281.44 177.451L285.181 176.803C287.181 176.47 288.793 175.97 289.997 175.321C291.201 174.673 292.127 173.803 292.775 172.71C293.497 171.469 293.682 170.265 293.312 169.061C292.942 167.857 292.053 166.857 290.682 166.042C289.274 165.209 287.922 164.912 286.626 165.135C285.329 165.357 284.292 166.061 283.533 167.265L285.44 168.394C285.866 167.672 286.478 167.246 287.256 167.098C288.033 166.968 288.848 167.153 289.719 167.654C290.497 168.117 290.997 168.709 291.201 169.413C291.404 170.117 291.275 170.858 290.83 171.599C290.552 172.062 290.219 172.488 289.849 172.84C289.478 173.191 289.034 173.506 288.515 173.784C287.996 174.062 287.404 174.303 286.718 174.488C286.033 174.692 285.255 174.858 284.366 175.006L278.513 175.97L277.328 177.988L286.607 183.471L287.589 181.822L282.107 178.581C281.94 178.489 281.755 178.377 281.57 178.266C281.366 178.155 281.162 178.044 280.977 177.933C280.773 177.803 280.551 177.692 280.329 177.581L280.384 177.507C280.495 177.488 280.643 177.488 280.792 177.488Z" fill="black"/>
<path d="M296.744 172.08L301.911 175.136C302.096 175.247 302.282 175.358 302.467 175.451C302.633 175.543 302.819 175.636 302.967 175.71C303.133 175.803 303.3 175.877 303.467 175.951L303.448 175.988C303.226 176.006 303.004 176.025 302.763 176.043C302.578 176.062 302.356 176.08 302.133 176.117C301.911 176.155 301.689 176.192 301.467 176.247L296.799 177.432L295.669 179.34L297.392 180.359C298.281 180.877 298.855 181.563 299.077 182.396C299.3 183.23 299.17 184.063 298.67 184.915C298.17 185.767 297.503 186.286 296.688 186.489C295.855 186.693 295.021 186.545 294.151 186.026C293.41 185.582 292.91 185.008 292.65 184.285C292.391 183.563 292.41 182.822 292.725 182.063L290.872 180.97C290.576 181.6 290.409 182.23 290.391 182.859C290.354 183.489 290.446 184.1 290.65 184.674C290.854 185.248 291.169 185.804 291.595 186.304C292.021 186.804 292.558 187.249 293.206 187.638C294.669 188.49 296.058 188.786 297.373 188.49C298.688 188.193 299.763 187.378 300.559 186.008C300.948 185.341 301.207 184.656 301.3 183.971C301.392 183.285 301.337 182.618 301.152 181.989C300.966 181.359 300.633 180.766 300.152 180.211C299.67 179.655 299.059 179.155 298.318 178.71C298.411 178.692 298.522 178.673 298.633 178.655C298.725 178.636 298.837 178.618 298.966 178.599C299.096 178.581 299.207 178.562 299.337 178.525L304.726 177.34L305.912 175.321L297.67 170.45L296.744 172.08Z" fill="black"/>
<path d="M325.645 47.9694L327.997 43.8202L324.07 47.0803L325.645 47.9694Z" fill="white"/>
</g>
<path d="M1.76562 91H13.4375V102.68H21.8677V91H33.5396V125.43H21.8677V113.502H13.4375V125.43H1.76562V91Z" fill="white"/>
<path d="M46.8406 124.01C44.076 122.473 41.9047 120.358 40.327 117.667C38.742 114.975 37.9531 111.972 37.9531 108.653C37.9531 105.333 38.742 102.331 40.327 99.6459C41.9047 96.954 44.0832 94.8394 46.8406 93.3022C49.6053 91.765 52.6885 91 56.0973 91C59.5061 91 62.5603 91.765 65.3032 93.3022C68.0535 94.8394 70.2102 96.954 71.7807 99.6459C73.3512 102.338 74.1401 105.34 74.1401 108.653C74.1401 111.965 73.3512 114.975 71.7807 117.667C70.2102 120.358 68.0462 122.473 65.3032 124.01C62.553 125.547 59.4844 126.312 56.0973 126.312C52.7102 126.312 49.6053 125.547 46.8406 124.01ZM59.3831 114.924C60.3384 114.325 61.0766 113.481 61.6049 112.391C62.1333 111.301 62.4011 110.06 62.4011 108.66C62.4011 107.26 62.1333 106.018 61.6049 104.929C61.0766 103.839 60.3312 102.995 59.3831 102.396C58.4277 101.797 57.3349 101.493 56.0973 101.493C54.8597 101.493 53.7306 101.797 52.7608 102.396C51.791 102.995 51.0383 103.839 50.4955 104.929C49.96 106.018 49.6849 107.26 49.6849 108.66C49.6849 110.06 49.9527 111.301 50.4955 112.391C51.0311 113.481 51.7838 114.325 52.7608 114.924C53.7306 115.523 54.8452 115.826 56.0973 115.826C57.3493 115.826 58.435 115.523 59.3831 114.924Z" fill="white"/>
<path d="M76.2578 91H88.6143V125.43H76.2578V91Z" fill="white"/>
<path d="M91.7891 120.486H93.7699C94.9583 120.486 95.9047 120.224 96.5943 119.702C97.2913 119.179 97.6361 118.475 97.6361 117.589H93.3444V107.774H103.263V116.602C103.263 118.402 102.882 119.963 102.111 121.284C101.341 122.606 100.24 123.629 98.8172 124.348C97.3866 125.067 95.7066 125.43 93.7699 125.43H91.7891V120.471V120.486Z" fill="white"/>
<path d="M115.625 91H127.982V125.43H115.625V91Z" fill="white"/>
<path d="M130.625 91H159.751V101.822H150.91V125.43H139.509V101.822H130.625V91Z" fill="white"/>
<path d="M161.531 104.588H163.512C164.701 104.588 165.647 104.327 166.337 103.804C167.033 103.281 167.378 102.577 167.378 101.691H163.087V91.8829H173.005V100.711C173.005 102.512 172.624 104.072 171.853 105.394C171.083 106.715 169.983 107.739 168.559 108.457C167.129 109.176 165.449 109.539 163.512 109.539H161.531V104.581V104.588Z" fill="white"/>
<path d="M181.01 124.862C178.844 123.902 177.132 122.552 175.88 120.813C174.629 119.074 173.963 117.075 173.875 114.816H185.547C185.562 115.206 185.701 115.552 185.965 115.855C186.228 116.158 186.579 116.389 187.026 116.548C187.472 116.714 187.984 116.793 188.555 116.793C189.031 116.793 189.455 116.736 189.814 116.62C190.18 116.505 190.458 116.346 190.655 116.144C190.853 115.942 190.955 115.711 190.955 115.451C190.955 115.155 190.838 114.888 190.612 114.643C190.377 114.397 190.092 114.246 189.748 114.181L182.898 113.134C181.266 112.889 179.825 112.29 178.573 111.345C177.322 110.392 176.349 109.179 175.653 107.7C174.958 106.221 174.614 104.589 174.614 102.8C174.614 100.49 175.192 98.4407 176.356 96.6581C177.519 94.8683 179.151 93.4826 181.252 92.4867C183.352 91.4908 185.774 91 188.511 91C191.248 91 193.627 91.4619 195.742 92.3784C197.856 93.295 199.525 94.5868 200.74 96.2467C201.955 97.9066 202.591 99.8047 202.657 101.955H190.985C190.985 101.681 190.882 101.428 190.685 101.212C190.487 100.995 190.209 100.822 189.858 100.7C189.507 100.577 189.097 100.519 188.636 100.519C188.204 100.519 187.831 100.57 187.501 100.678C187.172 100.786 186.916 100.93 186.733 101.118C186.55 101.306 186.462 101.522 186.462 101.76C186.462 101.999 186.55 102.23 186.718 102.432C186.894 102.634 187.121 102.756 187.399 102.785L193.407 103.586C195.288 103.832 196.956 104.445 198.413 105.441C199.869 106.43 201.003 107.707 201.801 109.266C202.599 110.825 203.001 112.557 203.001 114.462C203.001 116.786 202.394 118.85 201.172 120.647C199.949 122.444 198.237 123.837 196.027 124.826C193.817 125.814 191.277 126.312 188.409 126.312C185.54 126.312 183.169 125.836 181.003 124.876L181.01 124.862Z" fill="white"/>
<path d="M2.64844 129.844H14.1875V144.006L23.0642 129.844H35.8476L25.1622 146.371L36.1876 164.273H23.0136L14.1875 149.471V164.273H2.64844V129.844Z" fill="white"/>
<path d="M45.2918 162.854C42.4597 161.317 40.2355 159.202 38.6193 156.51C36.9956 153.818 36.1875 150.816 36.1875 147.496C36.1875 144.177 36.9956 141.174 38.6193 138.49C40.2355 135.798 42.4671 133.683 45.2918 132.146C48.1239 130.609 51.2822 129.844 54.7742 129.844C58.2661 129.844 61.3948 130.609 64.2047 132.146C67.022 133.683 69.2313 135.798 70.8402 138.49C72.449 141.182 73.2571 144.184 73.2571 147.496C73.2571 150.809 72.449 153.818 70.8402 156.51C69.2313 159.202 67.0146 161.317 64.2047 162.854C61.3874 164.391 58.2439 165.156 54.7742 165.156C51.3045 165.156 48.1239 164.391 45.2918 162.854ZM58.1401 153.768C59.1187 153.169 59.875 152.324 60.4162 151.235C60.9574 150.145 61.2317 148.904 61.2317 147.504C61.2317 146.103 60.9574 144.862 60.4162 143.772C59.875 142.683 59.1113 141.838 58.1401 141.239C57.1615 140.64 56.042 140.337 54.7742 140.337C53.5064 140.337 52.3498 140.64 51.3564 141.239C50.3629 141.838 49.5919 142.683 49.0358 143.772C48.4872 144.862 48.2055 146.103 48.2055 147.504C48.2055 148.904 48.4798 150.145 49.0358 151.235C49.5844 152.324 50.3555 153.169 51.3564 153.768C52.3498 154.367 53.4916 154.67 54.7742 154.67C56.0568 154.67 57.1689 154.367 58.1401 153.768Z" fill="white"/>
<path d="M75.9062 129.844H105.915V140.665H96.8056V164.273H85.0598V140.665H75.9062V129.844Z" fill="white"/>
<path d="M120.975 129.844V153.452H135.041V164.273H109.445V129.844H120.975Z" fill="white"/>
<path d="M138.562 129.844H150.919V164.273H138.562V129.844Z" fill="white"/>
<path d="M153.578 129.844H164.579L175.089 147.699V129.844H185.352V164.273H174.308L163.849 146.418V164.273H153.585V129.844H153.578Z" fill="white"/>
<path d="M8.80628 201.692C6.039 200.153 3.87707 198.007 2.32768 195.254C0.778296 192.502 0 189.387 0 185.902C0 182.417 0.778296 179.303 2.32768 176.55C3.87707 173.798 6.039 171.652 8.80628 170.113C11.5736 168.574 14.7084 167.805 18.2179 167.805C21.432 167.805 24.3434 168.471 26.9449 169.795C29.5536 171.119 31.5931 172.94 33.0776 175.255C34.5621 177.571 35.3044 180.161 35.3044 183.032H24.1056C23.9254 182.166 23.5579 181.389 22.9958 180.708C22.4337 180.028 21.7346 179.495 20.8987 179.118C20.0627 178.74 19.1475 178.555 18.1602 178.555C16.8919 178.555 15.7677 178.866 14.7876 179.48C13.8075 180.094 13.0437 180.96 12.496 182.07C11.9555 183.18 11.6816 184.46 11.6816 185.91C11.6816 187.36 11.9555 188.64 12.496 189.75C13.0365 190.86 13.8003 191.718 14.7876 192.339C15.7677 192.953 16.8919 193.264 18.1602 193.264C19.1475 193.264 20.0627 193.087 20.8987 192.724C21.7346 192.362 22.4337 191.866 22.9958 191.222C23.5579 190.578 23.9254 189.853 24.1056 189.032H35.3044C35.3044 191.851 34.5621 194.396 33.0776 196.668C31.5931 198.947 29.5464 200.737 26.9449 202.039C24.3362 203.349 21.432 204 18.2179 204C14.7084 204 11.5736 203.23 8.80628 201.692Z" fill="white"/>
<path d="M46.8406 201.64C44.076 200.065 41.9047 197.897 40.327 195.138C38.742 192.379 37.9531 189.301 37.9531 185.899C37.9531 182.496 38.742 179.419 40.327 176.667C41.9047 173.908 44.0832 171.74 46.8406 170.164C49.6053 168.589 52.6885 167.805 56.0973 167.805C59.5061 167.805 62.5603 168.589 65.3032 170.164C68.0535 171.74 70.2102 173.908 71.7807 176.667C73.3512 179.426 74.1401 182.503 74.1401 185.899C74.1401 189.294 73.3512 192.379 71.7807 195.138C70.2102 197.897 68.0462 200.065 65.3032 201.64C62.553 203.216 59.4844 204 56.0973 204C52.7102 204 49.6053 203.216 46.8406 201.64ZM59.3831 192.327C60.3384 191.713 61.0766 190.847 61.6049 189.73C62.1333 188.613 62.4011 187.341 62.4011 185.906C62.4011 184.471 62.1333 183.199 61.6049 182.082C61.0766 180.965 60.3312 180.099 59.3831 179.485C58.4277 178.871 57.3349 178.56 56.0973 178.56C54.8597 178.56 53.7306 178.871 52.7608 179.485C51.791 180.099 51.0383 180.965 50.4955 182.082C49.96 183.199 49.6849 184.471 49.6849 185.906C49.6849 187.341 49.9527 188.613 50.4955 189.73C51.0311 190.847 51.7838 191.713 52.7608 192.327C53.7306 192.941 54.8452 193.252 56.0973 193.252C57.3493 193.252 58.435 192.941 59.3831 192.327Z" fill="white"/>
<path d="M75.0078 168.688H86.3146L97.1158 186.543V168.688H107.664V203.117H96.313L85.5638 185.262V203.117H75.0152V168.688H75.0078Z" fill="white"/>
<path d="M111.203 168.688H136.799V179.388H122.844V182.066H135.814V192.766H122.844V203.117H111.203V168.688Z" fill="white"/>
<path d="M139.46 168.688H150.044L149.156 191.98H140.342L139.453 168.688H139.46ZM139.854 194.085H149.702V204H139.854V194.085Z" fill="white"/>
<defs>
<clipPath id="clip0_2224_92498">
<rect width="161" height="191" fill="white" transform="translate(182 13)"/>
</clipPath>
</defs>
</svg>
