<svg width="270" height="112" viewBox="0 0 270 112" fill="none" xmlns="http://www.w3.org/2000/svg">
<path d="M10.408 67.4023H23.8796L27.3301 73.4793H27.2329H0L9.59623 56.8405L13.6177 49.8729L17.0704 55.8592L10.408 67.4023ZM15.4322 46.722L18.7473 40.9743L37.5087 73.4793H30.8644L15.4322 46.722ZM20.5924 37.7769H27.2278L47.8279 73.4793H41.1843L20.5924 37.7769Z" fill="#FF9900"/>
<path d="M79.2938 69.0165L76.509 61.5904H65.0841L62.2993 69.0165H60.2285L69.7254 44.2747H71.9746L81.4716 69.0165H79.2938ZM65.7624 59.8409H75.8663L70.7964 46.4882L65.7624 59.8409ZM101.009 69.0165L95.5823 47.8449L90.1912 69.0165H87.6921L80.1945 44.2747H82.4795L88.9773 66.6244L94.3684 45.0958H96.939L102.294 66.6958L108.935 44.2747H111.149L103.508 69.0165H101.009ZM118.69 56.5206C116.857 55.8066 115.512 54.9616 114.656 53.9857C113.799 52.9861 113.37 51.7603 113.37 50.3084C113.37 48.3328 114.072 46.7381 115.477 45.5243C116.905 44.2866 118.773 43.6677 121.082 43.6677C122.129 43.6677 123.224 43.7986 124.367 44.0605C125.533 44.2985 126.628 44.6436 127.651 45.0958V46.9167C125.224 46.0598 123.069 45.6314 121.189 45.6314C119.356 45.6314 117.952 46.036 116.976 46.8452C116 47.6307 115.512 48.7613 115.512 50.237C115.512 51.07 115.655 51.7484 115.941 52.272C116.25 52.7719 116.738 53.236 117.405 53.6644C118.095 54.069 119.071 54.5094 120.332 54.9854L124.152 56.4492C125.866 57.1157 127.116 57.9368 127.901 58.9127C128.687 59.8647 129.079 61.0667 129.079 62.5186C129.079 64.637 128.294 66.3507 126.723 67.6598C125.176 68.9689 123.129 69.6234 120.582 69.6234C117.94 69.6234 115.584 69.1236 113.513 68.1239V66.3031C116.012 67.2076 118.309 67.6598 120.404 67.6598C122.379 67.6598 123.95 67.1957 125.116 66.2674C126.307 65.3391 126.902 64.0776 126.902 62.4829C126.902 61.5071 126.58 60.674 125.938 59.9838C125.295 59.2935 124.26 58.6747 122.831 58.1272L118.69 56.5206Z" fill="#000716"/>
<path d="M156.28 69.0165L154.531 63.3755H146.069L144.391 69.0165H138.786L147.497 44.2747H153.388L162.1 69.0165H156.28ZM147.212 59.5196H153.424L150.282 49.1659L147.212 59.5196ZM186.7 69.0165V56.6634C186.7 55.0449 185.974 54.2356 184.522 54.2356C183.237 54.2356 181.94 54.5451 180.631 55.1639V55.5209V69.0165H175.418V56.6634C175.418 55.0449 174.692 54.2356 173.24 54.2356C171.907 54.2356 170.598 54.557 169.313 55.1996V69.0165H164.1V50.7725H168.385L168.849 52.5219C170.11 51.6889 171.241 51.1057 172.241 50.7725C173.264 50.4155 174.311 50.237 175.382 50.237C177.525 50.237 179.036 50.9986 179.917 52.5219C181.131 51.7127 182.273 51.1295 183.344 50.7725C184.415 50.4155 185.522 50.237 186.664 50.237C188.331 50.237 189.616 50.7011 190.52 51.6294C191.449 52.5576 191.913 53.8548 191.913 55.5209V69.0165H186.7ZM196.125 76.3712V50.7725H200.409L200.838 52.4862C201.552 51.796 202.408 51.2485 203.408 50.8439C204.432 50.4393 205.467 50.237 206.514 50.237C208.823 50.237 210.644 51.0819 211.977 52.7718C213.333 54.4618 214.012 56.7467 214.012 59.6267C214.012 61.507 213.702 63.1851 213.083 64.6608C212.465 66.1365 211.572 67.3028 210.406 68.1596C209.24 68.9927 207.895 69.4092 206.371 69.4092C205.396 69.4092 204.467 69.2545 203.587 68.9451C202.706 68.6356 201.956 68.2072 201.337 67.6598V76.3712H196.125ZM204.836 54.1642C203.599 54.1642 202.432 54.4856 201.337 55.1282V64.518C202.385 65.1606 203.551 65.4819 204.836 65.4819C206.169 65.4819 207.145 65.0297 207.764 64.1252C208.406 63.2208 208.728 61.7927 208.728 59.8409C208.728 57.8654 208.418 56.4254 207.8 55.5209C207.181 54.6165 206.193 54.1642 204.836 54.1642ZM225.41 68.6594C224.41 69.0641 223.339 69.2664 222.197 69.2664C218.983 69.2664 217.377 67.4694 217.377 63.8753V42.5966H222.589V63.4469C222.589 64.1133 222.696 64.5894 222.911 64.875C223.149 65.1368 223.529 65.2677 224.053 65.2677C224.386 65.2677 224.839 65.232 225.41 65.1606V68.6594ZM228.415 69.0165V50.7725H233.628V69.0165H228.415ZM231.022 47.952C230.117 47.952 229.391 47.7021 228.844 47.2023C228.296 46.7024 228.023 46.0241 228.023 45.1672C228.023 44.3104 228.296 43.632 228.844 43.1322C229.391 42.6323 230.117 42.3824 231.022 42.3824C231.926 42.3824 232.652 42.6323 233.2 43.1322C233.747 43.632 234.021 44.3104 234.021 45.1672C234.021 46.0241 233.747 46.7024 233.2 47.2023C232.652 47.7021 231.926 47.952 231.022 47.952ZM238.945 69.0165V54.6284H236.054V51.4151L238.945 50.8796V49.2373C238.945 46.8333 239.493 45.0482 240.588 43.8819C241.706 42.6918 243.396 42.0968 245.658 42.0968C246.3 42.0968 246.967 42.1682 247.657 42.311C248.347 42.43 248.954 42.5966 249.478 42.8109V46.3454C248.526 46.2026 247.716 46.1312 247.05 46.1312C245.955 46.1312 245.193 46.3097 244.765 46.6667C244.36 47.0237 244.158 47.6545 244.158 48.559V50.7725H249.263V54.6284H244.158V69.0165H238.945ZM257.466 69.3021L250.254 50.7725H255.788L259.858 64.4109L263.714 50.7725H269.105L261.393 71.4799C260.703 73.3603 259.858 74.717 258.859 75.55C257.859 76.3831 256.597 76.7996 255.074 76.7996C253.884 76.7996 252.73 76.6092 251.611 76.2284V72.6938C252.373 72.7652 253.051 72.8009 253.646 72.8009C254.646 72.8009 255.419 72.5629 255.967 72.0869C256.514 71.6347 256.978 70.8373 257.359 69.6948L257.466 69.3021Z" fill="#000716"/>
</svg>
