<svg width="48" height="24" viewBox="0 0 48 24" fill="none" xmlns="http://www.w3.org/2000/svg">
<path d="M25.0185 0C20.0565 0 16.0185 4.0376 16.0185 9V15C16.0185 19.9624 20.0565 24 25.0185 24C29.9805 24 34.0185 19.9624 34.0185 15V9C34.0185 4.0376 29.9805 0 25.0185 0ZM32.0185 15C32.0185 18.8599 28.8785 22 25.0185 22C21.1585 22 18.0185 18.8599 18.0185 15V9C18.0185 5.14008 21.1585 2 25.0185 2C28.8785 2 32.0185 5.14008 32.0185 9V15ZM11 9.07001C11 10.14 10.14 11 9.07001 11H8V0H6V11H4.92999C3.85999 11 3 10.14 3 9.07001V0H1V9.07001C1 11.24 2.76001 13 4.92999 13H6V24H8V13H9.07001C11.24 13 13 11.24 13 9.07001V0H11V9.07001ZM25 5C22.2386 5 20 7.23859 20 10V14C20 16.7614 22.2386 19 25 19C27.7614 19 30 16.7614 30 14V10C30 7.23859 27.7614 5 25 5ZM28 14C28 15.6542 26.6542 17 25 17C23.3458 17 22 15.6542 22 14V10C22 8.34576 23.3458 7 25 7C26.6542 7 28 8.34576 28 10V14ZM41.93 0C39.76 0 38 1.76001 38 3.92999V17H44V24H46V0H41.93ZM44 15H40V3.92999C40 2.85999 40.86 2 41.93 2H44V15Z" fill="black"/>
</svg>
