<svg width="160" height="133" viewBox="0 0 160 133" fill="none" xmlns="http://www.w3.org/2000/svg">
    <g clip-path="url(#clip0_11255_29119)">
        <path d="M19.4109 112.898C31.84 125.209 48.6965 132.124 66.2729 132.124C83.8493 132.124 100.706 125.209 113.135 112.898L160 66.4755L113.135 20.0587C100.706 7.74744 83.8496 0.831055 66.2729 0.831055C48.6962 0.831055 31.8395 7.74744 19.4109 20.0587C6.98229 32.37 -6.67572e-06 49.0677 -6.67572e-06 66.4785C-6.67572e-06 83.8893 6.98229 100.587 19.4109 112.898Z" fill="url(#paint0_linear_11255_29119)"/>
        <path d="M94.1205 82.8893C83.7246 82.8893 75.297 74.4919 75.297 64.1331C75.297 53.7744 83.7246 45.377 94.1205 45.377C104.516 45.377 112.944 53.7744 112.944 64.1331C112.944 74.4919 104.516 82.8893 94.1205 82.8893Z" fill="white"/>
        <path d="M101.19 75.8709C94.6881 75.8709 89.4175 70.6192 89.4175 64.1408C89.4175 57.6624 94.6881 52.4106 101.19 52.4106C107.691 52.4106 112.962 57.6624 112.962 64.1408C112.962 70.6192 107.691 75.8709 101.19 75.8709Z" fill="black"/>
    </g>
    <defs>
        <linearGradient id="paint0_linear_11255_29119" x1="160" y1="66.4777" x2="-2.67226" y2="66.4777" gradientUnits="userSpaceOnUse">
            <stop stop-color="#FF021D"/>
            <stop offset="0.462963" stop-color="#C202D7"/>
        </linearGradient>
        <clipPath id="clip0_11255_29119">
            <rect width="160" height="133" fill="white"/>
        </clipPath>
    </defs>
</svg>
