<svg width="270" height="112" viewBox="0 0 270 112" fill="none" xmlns="http://www.w3.org/2000/svg">
<path d="M55.4735 71.6502C51.7833 71.6502 48.3912 71.2404 45.4092 68.2594L49.2485 64.4213C51.1869 66.3589 53.7216 66.6198 55.5481 66.6198C57.5982 66.6198 59.6856 65.9491 59.6856 64.1605C59.6856 62.9681 59.0519 62.1483 57.1882 61.9992L53.4979 61.6266C49.2485 61.2167 46.6393 59.3536 46.6393 55.0311C46.6393 50.1497 50.9632 47.5041 55.7717 47.5041C59.462 47.5041 62.5558 48.1375 64.7923 50.2615L61.1394 53.9505C59.7602 52.7208 57.71 52.3482 55.6599 52.3482C53.3115 52.3482 52.3424 53.4288 52.3424 54.6212C52.3424 55.4783 52.7151 56.4844 54.8026 56.6707L58.4928 57.0433C63.1522 57.4905 65.5006 59.9498 65.5006 63.9742C65.5378 69.1909 61.0648 71.6502 55.4735 71.6502Z" fill="#4E2817"/>
<path d="M75.789 71.3893C70.9805 71.3893 68.9677 67.9984 68.9677 64.6075V52.9071H66.4702V48.4356H68.9677V41.4675H74.8572V48.4356H78.9947V52.9071H74.8572V64.2349C74.8572 65.5764 75.4908 66.3962 76.9073 66.3962H79.0693V71.3521H75.789V71.3893Z" fill="#4E2817"/>
<path d="M81.6411 43.7778V38.9709H87.6797V43.7778H81.6411ZM81.7529 71.3894V47.8022H87.6424V71.3894H81.7529Z" fill="#4E2817"/>
<path d="M100.912 71.6502C96.1782 71.6502 90.3633 69.1537 90.3633 59.5399C90.3633 50.0007 96.2155 47.5041 100.912 47.5041C104.192 47.5041 106.615 48.4729 108.703 50.6714L104.714 54.6958C103.484 53.3543 102.44 52.8326 100.912 52.8326C99.533 52.8326 98.4148 53.3543 97.5947 54.3604C96.6628 55.4783 96.2528 57.0806 96.2528 59.5772C96.2528 62.0738 96.6628 63.676 97.5947 64.8685C98.452 65.9118 99.533 66.3962 100.912 66.3962C102.44 66.3962 103.484 65.8373 104.714 64.5331L108.703 68.4829C106.615 70.6442 104.192 71.6502 100.912 71.6502Z" fill="#4E2817"/>
<path d="M124.992 71.3894L119.215 61.5521L116.717 64.384V71.3894H110.828V39.1572H116.717V57.4532L124.582 47.8022H131.702L123.278 57.3414L132.298 71.4639H124.955L124.992 71.3894Z" fill="#4E2817"/>
<path d="M137.182 61.403C137.182 64.4213 139.045 66.6198 142.363 66.6198C144.935 66.6198 146.202 65.9118 147.693 64.4213L151.272 67.924C148.849 70.346 146.538 71.613 142.288 71.613C136.697 71.613 131.367 69.1164 131.367 59.5026C131.367 51.8265 135.504 47.4668 141.692 47.4668C148.252 47.4668 152.017 52.2737 152.017 58.7574V61.3658H137.182V61.403ZM145.643 54.8448C145.009 53.4661 143.705 52.3855 141.692 52.3855C139.679 52.3855 138.374 53.4288 137.741 54.8448C137.368 55.7018 137.219 56.3353 137.182 57.3414H146.165C146.09 56.3353 146.016 55.7018 145.643 54.8448Z" fill="#4E2817"/>
<path d="M167.598 54.2113C166.666 53.2797 165.921 52.8326 164.467 52.8326C162.678 52.8326 160.665 54.2113 160.665 57.1923V71.3893H154.775V47.8021H160.516V50.0751C161.634 48.6964 163.908 47.5786 166.48 47.5786C168.791 47.5786 170.431 48.1375 172.071 49.777L167.598 54.2113Z" fill="#4E2817"/>
<path fill-rule="evenodd" clip-rule="evenodd" d="M27.2936 73.9978C26.9209 74.1469 26.4736 74.1096 26.0262 74.1469C25.6162 74.1469 25.0571 74.1469 24.7962 73.9233C24.6471 73.8115 24.6471 73.5507 24.6471 73.4016C24.6471 73.2526 24.6843 72.9917 24.6843 72.8427C24.7216 72.6191 24.7962 72.321 24.6843 72.172C24.5725 72.0229 24.237 72.0602 24.0134 71.9484C23.7897 71.8366 23.7525 71.5385 23.7152 71.2404C23.7152 71.1286 23.6034 71.0168 23.6034 70.9795C23.5661 70.5324 23.7152 69.8617 23.827 69.3773C23.9388 68.8556 24.0879 68.4084 24.1998 67.8868C24.3489 67.1788 24.3489 66.359 24.3116 65.5765C24.3116 65.1666 24.1998 64.8685 24.3116 64.5331C24.3489 64.235 24.5352 63.9742 24.5725 63.6761C24.5725 63.5643 24.5725 63.4525 24.5725 63.378C24.5725 63.2662 24.6098 63.2289 24.6098 63.1171C24.6098 62.8936 24.5725 62.67 24.5725 62.4092C24.5352 61.7384 24.5725 60.7696 24.6098 60.2106C24.6098 59.9871 24.7216 59.8008 24.5725 59.689C23.8643 59.689 23.2306 59.8008 22.5597 59.9126C20.8077 60.1361 18.5712 60.1734 16.8565 59.8008C16.7074 59.7635 16.5583 59.7635 16.4092 59.7635C15.1791 59.5027 14.0982 58.9437 13.2408 58.273C13.0917 58.1612 12.9426 58.0494 12.7935 57.9004C12.6444 57.7886 12.4953 57.6395 12.3462 57.5277C11.6753 57.2296 10.7434 57.565 10.4452 58.0494C10.3334 58.1985 10.2215 58.4593 10.147 58.6829C10.0351 58.9065 9.92332 59.0928 9.88605 59.3164C9.43874 60.3597 8.91689 61.3658 8.43231 62.4092C8.17139 63.0426 7.87318 63.6761 7.64953 64.3468C7.2395 65.8001 7.61225 67.6632 7.94773 69.0791C7.985 69.1909 8.05955 69.34 8.09683 69.489C8.20865 69.7871 8.39503 70.2715 8.65596 70.4579C8.80506 70.5697 9.02872 70.6814 9.17782 70.756C9.40147 70.905 9.47602 71.2031 9.62512 71.5385C9.66239 71.6503 9.77422 71.7993 9.84877 71.9484C9.99787 72.2465 10.1097 72.5073 9.73695 72.7309C9.47602 72.8799 9.06599 72.8799 8.69323 72.9545C8.54413 72.9917 8.58141 73.2153 8.46958 73.3271C8.4323 73.3644 8.17139 73.4761 8.05956 73.5507C7.61226 73.6997 6.79219 73.6997 6.41944 73.5507C6.19579 73.5134 6.00942 73.3271 5.97214 73.178C5.86032 72.8799 6.12124 72.5073 5.93486 72.321C5.82304 72.2092 5.63666 72.2092 5.48756 72.172C5.22663 72.0602 5.04026 71.7993 4.85388 71.5385C4.59296 70.8305 4.74206 69.7499 4.70478 68.8556C4.70478 68.5947 4.66751 68.3339 4.66751 68.0358C4.66751 67.5141 4.5184 66.9925 4.44385 66.508C4.40658 66.2472 4.33203 66.0609 4.29475 65.8373C4.18293 65.4647 4.14565 65.0548 4.03382 64.7194C3.922 64.3095 3.922 63.8997 4.03382 63.6016C4.0711 63.4898 4.18293 63.378 4.25748 63.3034C4.3693 63.0799 4.3693 62.8936 4.3693 62.67C4.33202 62.5582 4.0711 62.67 3.99654 62.5582C3.84744 61.4403 3.69835 60.3597 3.58653 59.1673C3.54925 58.7574 3.54925 58.3848 3.54925 57.9749C3.51197 57.1924 3.54924 56.3726 3.43742 55.6274C3.40014 55.2547 3.32559 54.9194 3.28832 54.5467C3.13922 53.5034 2.87829 52.2365 3.06466 51.1558C3.21376 50.4851 3.43742 49.9262 3.84745 49.4045C4.10837 49.0319 4.40658 48.7338 4.70478 48.3611C5.00299 48.063 5.37574 47.7277 5.74849 47.5041C6.00942 47.3551 6.27034 47.1315 6.53127 46.9824C7.0904 46.7216 7.87318 46.4607 8.69323 46.4235C9.51329 46.3862 10.4452 46.3862 11.1907 46.5353C11.9735 46.6843 12.719 46.7961 13.5017 46.9452C14.21 47.0942 14.9555 47.3178 15.6637 47.4668C15.7755 47.4668 15.8128 47.5786 15.9246 47.5786C16.1483 47.6159 16.372 47.6159 16.6329 47.7277C17.3038 47.8767 18.1239 47.9885 18.9439 47.9885C19.8013 47.9885 20.5841 47.9885 21.2923 47.765C21.4041 47.7277 21.5159 47.6531 21.5905 47.6531C21.7023 47.6159 21.8514 47.6159 21.9632 47.6159C22.0005 47.6159 22.1123 47.5041 22.1869 47.4668C22.5969 47.2433 22.9697 47.057 23.3052 46.7961C23.6034 46.5725 23.827 46.4235 24.237 46.2744C24.3861 46.2372 24.6098 46.1254 24.7589 46.0509C25.1316 45.9391 25.5417 45.8273 25.8026 45.641C26.2499 45.3801 26.5854 44.9703 26.9209 44.5976C27.2936 44.2995 27.7036 43.9269 28.1137 43.6288C28.9337 42.9581 29.7538 42.3991 30.5366 41.7657C30.9466 41.4676 31.3566 41.1322 31.8039 40.9086C32.6612 40.3869 33.5931 39.828 34.8978 39.7162C35.4196 39.679 35.9415 39.679 36.4261 39.7162C36.5752 39.7162 36.7243 39.828 36.8734 39.7535C37.0225 39.7162 37.1343 39.4926 37.1716 39.3436C37.3952 38.971 37.4698 38.7847 37.6934 38.3748C37.8052 38.1139 37.7307 37.8531 37.9916 37.8531C38.2525 37.8531 38.2153 38.5238 38.2153 38.7847C38.2153 39.0828 38.178 39.4926 38.2153 39.7162C38.2525 39.8653 38.4762 40.0888 38.6626 40.0888C38.8117 40.0888 38.9235 39.9771 39.0353 39.8653C39.1844 39.7535 39.2962 39.7535 39.4081 39.6417C39.6317 39.4926 39.8554 39.2318 40.079 39.0082C40.2281 38.8592 40.5263 38.3748 40.7873 38.4493C41.3091 38.4866 40.7873 39.2691 40.6754 39.4927C40.4145 40.0516 40.1536 40.536 39.8554 41.0204C39.7436 41.244 39.4454 41.5421 39.4454 41.8029C39.4454 41.952 39.5945 42.0638 39.669 42.2501C39.7063 42.3619 39.7063 42.3991 39.7808 42.5109C39.9299 42.9208 40.079 43.4798 40.2281 43.9642C40.34 44.3741 40.4518 44.7839 40.6009 45.1566C40.75 45.5292 40.9736 45.8646 41.1227 46.2744C41.16 46.3862 41.16 46.498 41.2346 46.5725C41.5328 47.3923 41.8682 48.3239 42.2783 49.1437C42.4274 49.4418 42.651 49.8516 42.651 50.3361C42.651 50.8577 42.3901 51.1186 42.1292 51.5285C42.0174 51.752 41.831 52.0501 41.6073 52.0874C41.4582 52.1247 41.3091 52.0874 41.16 52.0874C40.9364 52.1247 40.7873 52.2365 40.6382 52.2365C40.1909 52.2737 39.7063 51.9383 39.5945 51.5657C39.5572 51.4539 39.5945 51.3049 39.5572 51.1558C39.4454 50.5969 39.1472 50.3361 38.7744 49.9262C38.5135 49.6653 38.3271 49.5163 37.9916 49.3672C37.5443 49.1064 37.0597 48.9946 36.5379 48.7338C36.3888 48.622 36.1279 48.5102 35.9788 48.5847C35.7178 48.622 35.4569 49.0319 35.2705 49.2927C34.0404 50.9323 32.9222 52.6091 31.7294 54.2114C30.9093 55.292 30.0893 56.3726 29.4183 57.5277C29.2692 57.8258 29.1574 58.1985 29.0083 58.5711C28.8964 58.9437 28.7846 59.2791 28.7101 59.689C28.2628 61.0304 28.0764 62.67 27.6664 64.0487C27.6291 64.1977 27.6291 64.3468 27.5545 64.4958C27.3309 65.2038 27.1445 66.0236 26.9209 66.8061C26.7717 67.3651 26.6972 68.1476 26.6599 68.8556C26.6599 69.5636 26.6227 70.5324 26.8836 70.9423C27.0327 71.2031 27.5173 71.2404 27.6664 71.5012C27.7782 71.6503 27.89 72.0229 28.0391 72.2092C28.1509 72.3583 28.4119 72.6564 28.3373 72.9172C28.3373 73.0663 28.1882 73.2153 28.0391 73.2898C27.89 73.3644 27.6664 73.3271 27.5173 73.4016C27.3682 73.6997 27.4427 73.9233 27.2936 73.9978Z" fill="#4E2817"/>
<path d="M198.536 47.5042C195.629 47.5042 193.467 48.4357 191.454 50.4852C189.963 48.4357 187.801 47.5042 185.192 47.5042C183.03 47.5042 180.831 48.3612 179.302 49.9635V47.8022H173.562V71.3895H179.452V57.1551C179.452 53.9133 181.539 52.8327 183.403 52.8327C185.266 52.8327 187.317 53.9133 187.317 57.1551V71.3895H193.206V56.9688C193.206 53.876 195.368 52.8327 197.157 52.8327C199.021 52.8327 201.071 53.9133 201.071 57.1551V71.3895H206.961V56.2981C206.961 53.727 206.29 51.4912 204.389 49.5908C202.972 48.2867 200.885 47.5042 198.536 47.5042Z" fill="#F26922"/>
<path d="M224.107 62.0738C224.107 65.3157 222.02 66.3963 220.156 66.3963C218.292 66.3963 216.242 65.3157 216.242 62.0738V47.765H210.353V62.8936C210.353 65.4647 210.874 67.7005 212.775 69.6009C214.117 70.9423 216.018 71.6876 218.367 71.6876C220.529 71.6876 222.728 70.8678 224.256 69.2283V71.3895H229.997V47.8023H224.107V62.0738Z" fill="#F26922"/>
<path d="M239.651 64.2723V39.1573H233.761V64.6449C233.761 67.9613 235.811 71.4267 240.62 71.4267H243.937V66.4708H241.664C240.21 66.4335 239.651 65.6883 239.651 64.2723Z" fill="#F26922"/>
<path d="M265.595 58.7947C265.595 52.3483 261.905 47.5042 255.27 47.5042C249.156 47.5042 244.944 51.8639 244.944 59.54C244.944 69.0792 250.275 71.6503 255.866 71.6503C260.115 71.6503 262.426 70.3088 264.849 67.9613L261.271 64.4586C259.78 65.9491 258.513 66.6571 255.941 66.6571C252.623 66.6571 250.759 64.4586 250.759 61.4403H265.52V58.7947H265.595ZM250.834 57.416C250.871 56.3726 251.057 55.7392 251.393 54.9194C252.027 53.5407 253.331 52.4601 255.344 52.4601C257.357 52.4601 258.624 53.5034 259.295 54.9194C259.668 55.7764 259.817 56.4099 259.854 57.416H250.834Z" fill="#F26922"/>
</svg>
