<svg xmlns="http://www.w3.org/2000/svg" width="1200" height="1200" fill="none" viewBox="0 0 1200 1200"><path stroke="#e8e8e8" d="m600 848-102 61m-4.5-244v-68H807v37h-94.5v85.5L776 740v84.5m150.5-59v-25l64-21.5v-84.5h-94l.268-37.5h167.502"/><path stroke="#e8e8e8" d="M599.607 848.158s-10.24-24.462-47.423-95.97c-40.754-64.455-58.545-87.39-58.545-87.39M647.607 244.5V531a2 2 0 0 0 2 2h97.5a2 2 0 0 0 2-2v-31.5m158 33.5h-30a2 2 0 0 1-2-2v-29.5a2 2 0 0 1 2-2h30a2 2 0 0 1 2 2V531a2 2 0 0 1-2 2Zm-111.5-33.5h30a2 2 0 0 1 2 2V531a2 2 0 0 1-2 2h-30a2 2 0 0 1-2-2v-29.5a2 2 0 0 1 2-2Zm155.5 0V531c0 1.104.908 2 2.013 2h99.97c1.11 0 2.02-.896 2.02-2V242.5m-407.503 8 .001-113.5"/><rect width="26" height="23" x="431.609" y="509.501" stroke="#e8e8e8" rx="1.5"/><rect width="26" height="23" x="842.499" y="707.501" stroke="#e8e8e8" rx="1.5"/><path stroke="#e8e8e8" d="M566.966 533H585m64.966 0H626.5M319.136 190.5h18.97a2 2 0 0 0 1.93-1.477l14.1-52.023m794.364 0H1055m-486 0h78.5m-78.534 53.5h-17.835a2 2 0 0 1-1.93-1.477L535.101 137M497 436.237 503.635 461l19.1 70.523a2 2 0 0 0 1.93 1.477h42.81a2 2 0 0 0 2-2l.006-76.5m-.38-170V344m0-207v117.5M776 740v78.999M926.5 740.5v31.998"/><path stroke="#e8e8e8" d="M315.5 532.866h48.971a2 2 0 0 0 1.93-1.478l19.1-70.522 6.635-24.763M717.635 834l55.716-19.092A2 2 0 0 1 776 816.8V838a2 2 0 0 0 2 2h146.635a2 2 0 0 0 2-2v-73.06a2 2 0 0 1 1.366-1.897l125.769-42.086a2 2 0 0 0 1.37-1.897V599c0-1.105.88-2 1.99-2h89.54c1.1 0 1.97-.895 1.97-2V53c0-1.105-.9-2-2-2H321.635a2 2 0 0 0-2 2v477.999a2 2 0 0 1-2 2l-115.942-.04c-1.544-.001-2.506 1.675-1.727 3.009l118.289 202.524a2 2 0 0 1-.719 2.736L45.505 900.114a2 2 0 0 0-.719 2.736l116.896 200.14a2.01 2.01 0 0 0 2.736.72l334.054-195.115q.164-.095.341-.158L579.135 880zM1053 532.903h20.86m75.14 0h-27.14M406 689l-90 53"/><path stroke="#e8e8e8" d="M406 689v-94H234.5"/><path stroke="#a0a0a0" stroke-linejoin="round" stroke-width="3" d="m150.5 869-13-21.5L406 689v-94H234.5L198 533h167.5l26.5-95.5M242 1029l12 21 346-202c-11.833-25.167-37.9-79.3-47.5-94.5-12-19-44.5-71-59-89V597H807v37.5h-94v85l63 21V840h150.5v-99l63.5-21.5v-85h-93v-37h251.5V137H1055v395H951.5v-34M320 382.5v-192h19.5l15-53.5H535l7.5 26.75 7.5 26.75h19V137h79v395.5l100 .134v-34.5"/><path fill="#19191c" d="M338.64 389.064h2.12l2.968 4.936h-2.224zm-3.56-6.264h4.736q1.152 0 2.024.424a3.13 3.13 0 0 1 1.344 1.2q.48.768.48 1.784 0 1.024-.488 1.808a3.2 3.2 0 0 1-1.368 1.216q-.88.424-2.056.424h-2.712V394h-1.96zm4.632 5.184q.576 0 1.008-.216t.664-.608q.24-.4.24-.936 0-.528-.24-.92a1.5 1.5 0 0 0-.664-.608 2.2 2.2 0 0 0-1.008-.216h-2.672v3.504zm9.02 6.208q-1.224 0-2.216-.552a4 4 0 0 1-1.544-1.528q-.56-.984-.56-2.208t.56-2.2a3.97 3.97 0 0 1 1.552-1.536q.992-.552 2.216-.552t2.208.552 1.544 1.528.56 2.208-.56 2.208a4 4 0 0 1-1.544 1.528q-.984.552-2.216.552m.016-1.712q.663 0 1.192-.32.528-.329.832-.912.303-.584.304-1.344 0-.76-.304-1.344a2.2 2.2 0 0 0-.84-.912 2.2 2.2 0 0 0-1.192-.328q-.665 0-1.208.328a2.2 2.2 0 0 0-.84.912q-.304.584-.304 1.344t.304 1.344.84.912q.543.32 1.216.32m9.515 1.712q-1.224 0-2.216-.552a4 4 0 0 1-1.544-1.528q-.56-.984-.56-2.208t.56-2.2a4 4 0 0 1 1.552-1.536q.992-.552 2.216-.552t2.208.552a4 4 0 0 1 1.544 1.528q.56.976.56 2.208t-.56 2.208a4 4 0 0 1-1.544 1.528q-.984.552-2.216.552m.016-1.712q.664 0 1.192-.32.528-.329.832-.912.304-.584.304-1.344t-.304-1.344a2.2 2.2 0 0 0-.84-.912 2.2 2.2 0 0 0-1.192-.328q-.664 0-1.208.328a2.2 2.2 0 0 0-.84.912q-.304.584-.304 1.344t.304 1.344.84.912q.544.32 1.216.32m5.787-6.672h1.848v3.408h-.48q.009-1.104.352-1.912.352-.816 1-1.248.656-.44 1.544-.44.873 0 1.504.4.632.392.968 1.12.345.728.344 1.696V394h-1.856v-4.944q0-.544-.184-.944a1.36 1.36 0 0 0-.544-.616 1.57 1.57 0 0 0-.84-.216q-.528 0-.928.24t-.616.688q-.207.44-.208 1.04V394h-1.904zm10.408 3.248a2.16 2.16 0 0 0-.192-.944 1.37 1.37 0 0 0-.536-.616q-.344-.216-.84-.216-.528 0-.928.248-.391.24-.616.68-.216.44-.216 1.04l-.784-.032q0-1.072.384-1.888a2.95 2.95 0 0 1 1.088-1.264q.705-.448 1.64-.448.873 0 1.528.4.665.392 1.016 1.12.36.728.36 1.696V394h-1.904zm-27.495 13.072h-2.632v-1.632h1.48q.497 0 .864-.208.376-.208.568-.592.2-.384.2-.896h1.48V410h-1.96zm6.532 0h-2.632v-1.632h1.48q.495 0 .864-.208.376-.208.568-.592.2-.384.2-.896h1.48V410h-1.96zm4.571-3.328h1.896V410h-1.896zm4.688 11.392q-1.016 0-1.792-.448a3.1 3.1 0 0 1-1.2-1.264q-.425-.816-.432-1.888h.568v-1.376h-.568q.007-1.072.432-1.888a3.1 3.1 0 0 1 1.2-1.264q.776-.448 1.792-.448 1.104 0 1.968.544.864.536 1.344 1.512.488.976.488 2.232 0 1.255-.488 2.232a3.66 3.66 0 0 1-1.344 1.52q-.864.536-1.968.536m-.48-1.704a2.2 2.2 0 0 0 1.2-.328 2.2 2.2 0 0 0 .816-.912q.296-.584.296-1.344t-.296-1.344a2.2 2.2 0 0 0-.816-.912 2.2 2.2 0 0 0-1.2-.328 2.3 2.3 0 0 0-1.216.328 2.24 2.24 0 0 0-.824.912q-.288.584-.288 1.344t.288 1.344q.296.584.824.912a2.3 2.3 0 0 0 1.216.328m154.35-19.424h2.12l2.968 4.936h-2.224zm-3.56-6.264h4.736q1.152 0 2.024.424a3.13 3.13 0 0 1 1.344 1.2q.48.768.48 1.784 0 1.024-.488 1.808a3.2 3.2 0 0 1-1.368 1.216q-.88.424-2.056.424h-2.712V394h-1.96zm4.632 5.184q.576 0 1.008-.216t.664-.608q.24-.4.24-.936 0-.528-.24-.92a1.5 1.5 0 0 0-.664-.608 2.2 2.2 0 0 0-1.008-.216h-2.672v3.504zm9.02 6.208q-1.224 0-2.216-.552a4 4 0 0 1-1.544-1.528q-.56-.984-.56-2.208t.56-2.2a3.97 3.97 0 0 1 1.552-1.536q.992-.552 2.216-.552t2.208.552 1.544 1.528.56 2.208-.56 2.208a4 4 0 0 1-1.544 1.528q-.984.552-2.216.552m.016-1.712q.663 0 1.192-.32.528-.329.832-.912.303-.584.304-1.344 0-.76-.304-1.344a2.2 2.2 0 0 0-.84-.912 2.2 2.2 0 0 0-1.192-.328q-.665 0-1.208.328a2.2 2.2 0 0 0-.84.912q-.304.584-.304 1.344t.304 1.344.84.912q.543.32 1.216.32m9.515 1.712q-1.224 0-2.216-.552a4 4 0 0 1-1.544-1.528q-.56-.984-.56-2.208t.56-2.2a4 4 0 0 1 1.552-1.536q.992-.552 2.216-.552t2.208.552a4 4 0 0 1 1.544 1.528q.56.976.56 2.208t-.56 2.208a4 4 0 0 1-1.544 1.528q-.984.552-2.216.552m.016-1.712q.664 0 1.192-.32.528-.329.832-.912.304-.584.304-1.344t-.304-1.344a2.2 2.2 0 0 0-.84-.912 2.2 2.2 0 0 0-1.192-.328q-.664 0-1.208.328a2.2 2.2 0 0 0-.84.912q-.304.584-.304 1.344t.304 1.344.84.912q.544.32 1.216.32m5.787-6.672h1.848v3.408h-.48q.009-1.104.352-1.912.352-.816 1-1.248.657-.44 1.544-.44.873 0 1.504.4.633.392.968 1.12.344.728.344 1.696V394h-1.856v-4.944q0-.544-.184-.944a1.36 1.36 0 0 0-.544-.616 1.57 1.57 0 0 0-.84-.216q-.528 0-.928.24t-.616.688q-.207.44-.208 1.04V394h-1.904zm10.408 3.248a2.16 2.16 0 0 0-.192-.944 1.37 1.37 0 0 0-.536-.616q-.344-.216-.84-.216-.528 0-.928.248-.391.24-.616.68-.216.44-.216 1.04l-.784-.032q0-1.072.384-1.888a2.95 2.95 0 0 1 1.088-1.264q.704-.448 1.64-.448.873 0 1.528.4.665.392 1.016 1.12.36.728.36 1.696V394h-1.904zm-28.893 13.072h-2.632v-1.632h1.48q.497 0 .864-.208.376-.208.568-.592.2-.384.2-.896h1.48V410h-1.96zm4.291 6.328 4.544-4.08q.593-.544.872-1.064.28-.52.28-1.096 0-.552-.248-.968a1.63 1.63 0 0 0-.688-.656 2.1 2.1 0 0 0-1.008-.232q-.615 0-1.096.264-.48.264-.744.736a2.2 2.2 0 0 0-.264 1.08h-1.976q0-1.096.528-1.968a3.6 3.6 0 0 1 1.464-1.368q.936-.496 2.112-.496 1.12 0 2.016.448a3.4 3.4 0 0 1 1.4 1.232 3.16 3.16 0 0 1 .496 1.776q0 .944-.488 1.792-.487.848-1.512 1.744l-2.92 2.648h5.224V410h-7.984zm9.608-9.656h1.896V410h-1.896zm4.688 11.392q-1.015 0-1.792-.448a3.1 3.1 0 0 1-1.2-1.264q-.423-.816-.432-1.888h.568v-1.376h-.568q.009-1.072.432-1.888a3.1 3.1 0 0 1 1.2-1.264q.777-.448 1.792-.448 1.104 0 1.968.544.864.536 1.344 1.512.489.976.488 2.232 0 1.255-.488 2.232a3.66 3.66 0 0 1-1.344 1.52q-.864.536-1.968.536m-.48-1.704q.681 0 1.2-.328a2.2 2.2 0 0 0 .816-.912q.296-.584.296-1.344t-.296-1.344a2.2 2.2 0 0 0-.816-.912 2.2 2.2 0 0 0-1.2-.328q-.68 0-1.216.328a2.25 2.25 0 0 0-.824.912q-.288.584-.288 1.344t.288 1.344q.297.584.824.912.537.328 1.216.328M338.64 432.064h2.12l2.968 4.936h-2.224zm-3.56-6.264h4.736q1.152 0 2.024.424a3.13 3.13 0 0 1 1.344 1.2q.48.768.48 1.784 0 1.024-.488 1.808a3.2 3.2 0 0 1-1.368 1.216q-.88.424-2.056.424h-2.712V437h-1.96zm4.632 5.184q.576 0 1.008-.216t.664-.608q.24-.4.24-.936 0-.528-.24-.92a1.5 1.5 0 0 0-.664-.608 2.2 2.2 0 0 0-1.008-.216h-2.672v3.504zm9.02 6.208q-1.224 0-2.216-.552a4 4 0 0 1-1.544-1.528q-.56-.984-.56-2.208t.56-2.2a3.97 3.97 0 0 1 1.552-1.536q.992-.552 2.216-.552t2.208.552 1.544 1.528.56 2.208-.56 2.208a4 4 0 0 1-1.544 1.528q-.984.552-2.216.552m.016-1.712q.663 0 1.192-.32.528-.329.832-.912.303-.584.304-1.344 0-.76-.304-1.344a2.2 2.2 0 0 0-.84-.912 2.2 2.2 0 0 0-1.192-.328q-.665 0-1.208.328a2.2 2.2 0 0 0-.84.912q-.304.584-.304 1.344t.304 1.344.84.912q.543.32 1.216.32m9.515 1.712q-1.224 0-2.216-.552a4 4 0 0 1-1.544-1.528q-.56-.984-.56-2.208t.56-2.2a4 4 0 0 1 1.552-1.536q.992-.552 2.216-.552t2.208.552a4 4 0 0 1 1.544 1.528q.56.976.56 2.208t-.56 2.208a4 4 0 0 1-1.544 1.528q-.984.552-2.216.552m.016-1.712q.664 0 1.192-.32.528-.329.832-.912.304-.584.304-1.344t-.304-1.344a2.2 2.2 0 0 0-.84-.912 2.2 2.2 0 0 0-1.192-.328q-.664 0-1.208.328a2.2 2.2 0 0 0-.84.912q-.304.584-.304 1.344t.304 1.344.84.912q.544.32 1.216.32m5.787-6.672h1.848v3.408h-.48q.009-1.104.352-1.912.352-.816 1-1.248.656-.44 1.544-.44.873 0 1.504.4.632.392.968 1.12.345.728.344 1.696V437h-1.856v-4.944q0-.544-.184-.944a1.36 1.36 0 0 0-.544-.616 1.57 1.57 0 0 0-.84-.216q-.528 0-.928.24t-.616.688q-.207.44-.208 1.04V437h-1.904zm10.408 3.248a2.16 2.16 0 0 0-.192-.944 1.37 1.37 0 0 0-.536-.616q-.344-.216-.84-.216-.528 0-.928.248-.391.24-.616.68-.216.44-.216 1.04l-.784-.032q0-1.072.384-1.888a2.95 2.95 0 0 1 1.088-1.264q.705-.448 1.64-.448.873 0 1.528.4.665.392 1.016 1.12.36.728.36 1.696V437h-1.904zm-26.784 13.072h-2.632v-1.632h1.48q.496 0 .864-.208.376-.208.568-.592.2-.384.2-.896h1.48V453h-1.96zm6.532 0h-2.632v-1.632h1.48q.495 0 .864-.208.376-.208.568-.592.2-.384.2-.896h1.48V453h-1.96zm7.843-.512q1.008 0 1.768.36.768.352 1.192 1.024.423.664.424 1.576V453h-1.84l-.008-3.064h.44q0 1.008-.368 1.744a2.57 2.57 0 0 1-1.048 1.12q-.68.392-1.616.392a3.3 3.3 0 0 1-1.424-.296 2.4 2.4 0 0 1-.976-.84 2.2 2.2 0 0 1-.352-1.232q0-.656.336-1.208.344-.552.944-.904a3.3 3.3 0 0 1 1.376-.44l2.136-.224a.56.56 0 0 0 .392-.184q.144-.16.144-.464l.088 1.8-2.304.264q-.352.032-.616.184a1.15 1.15 0 0 0-.416.4q-.144.24-.144.56 0 .336.176.6.183.264.512.408.327.144.744.144.583 0 1.024-.224.44-.232.688-.648t.248-.952v-2.52q0-.392-.2-.688a1.3 1.3 0 0 0-.552-.456 1.9 1.9 0 0 0-.816-.168 2 2 0 0 0-.824.16 1.5 1.5 0 0 0-.592.416q-.225.264-.264.584h-1.88q.08-.768.568-1.368t1.28-.936a4.4 4.4 0 0 1 1.76-.344m154.575-12.552h2.12l2.968 4.936h-2.224zm-3.56-6.264h4.736q1.152 0 2.024.424a3.13 3.13 0 0 1 1.344 1.2q.48.768.48 1.784 0 1.024-.488 1.808a3.2 3.2 0 0 1-1.368 1.216q-.88.424-2.056.424h-2.712V437h-1.96zm4.632 5.184q.576 0 1.008-.216t.664-.608q.24-.4.24-.936 0-.528-.24-.92a1.5 1.5 0 0 0-.664-.608 2.2 2.2 0 0 0-1.008-.216h-2.672v3.504zm9.02 6.208q-1.224 0-2.216-.552a4 4 0 0 1-1.544-1.528q-.56-.984-.56-2.208t.56-2.2a3.97 3.97 0 0 1 1.552-1.536q.992-.552 2.216-.552t2.208.552 1.544 1.528.56 2.208-.56 2.208a4 4 0 0 1-1.544 1.528q-.984.552-2.216.552m.016-1.712q.663 0 1.192-.32.528-.329.832-.912.303-.584.304-1.344 0-.76-.304-1.344a2.2 2.2 0 0 0-.84-.912 2.2 2.2 0 0 0-1.192-.328q-.665 0-1.208.328a2.2 2.2 0 0 0-.84.912q-.304.584-.304 1.344t.304 1.344.84.912q.543.32 1.216.32m9.515 1.712q-1.224 0-2.216-.552a4 4 0 0 1-1.544-1.528q-.56-.984-.56-2.208t.56-2.2a4 4 0 0 1 1.552-1.536q.992-.552 2.216-.552t2.208.552a4 4 0 0 1 1.544 1.528q.56.976.56 2.208t-.56 2.208a4 4 0 0 1-1.544 1.528q-.984.552-2.216.552m.016-1.712q.664 0 1.192-.32.528-.329.832-.912.304-.584.304-1.344t-.304-1.344a2.2 2.2 0 0 0-.84-.912 2.2 2.2 0 0 0-1.192-.328q-.664 0-1.208.328a2.2 2.2 0 0 0-.84.912q-.304.584-.304 1.344t.304 1.344.84.912q.544.32 1.216.32m5.787-6.672h1.848v3.408h-.48q.009-1.104.352-1.912.352-.816 1-1.248.657-.44 1.544-.44.873 0 1.504.4.633.392.968 1.12.344.728.344 1.696V437h-1.856v-4.944q0-.544-.184-.944a1.36 1.36 0 0 0-.544-.616 1.57 1.57 0 0 0-.84-.216q-.528 0-.928.24t-.616.688q-.207.44-.208 1.04V437h-1.904zm10.408 3.248a2.16 2.16 0 0 0-.192-.944 1.37 1.37 0 0 0-.536-.616q-.344-.216-.84-.216-.528 0-.928.248-.391.24-.616.68-.216.44-.216 1.04l-.784-.032q0-1.072.384-1.888a2.95 2.95 0 0 1 1.088-1.264q.704-.448 1.64-.448.873 0 1.528.4.665.392 1.016 1.12.36.728.36 1.696V437h-1.904zm-28.182 13.072h-2.632v-1.632h1.48q.497 0 .864-.208.376-.208.568-.592.2-.384.2-.896h1.48V453h-1.96zm4.291 6.328 4.544-4.08q.592-.544.872-1.064t.28-1.096q0-.552-.248-.968a1.63 1.63 0 0 0-.688-.656 2.1 2.1 0 0 0-1.008-.232q-.616 0-1.096.264t-.744.736a2.2 2.2 0 0 0-.264 1.08h-1.976q0-1.096.528-1.968a3.6 3.6 0 0 1 1.464-1.368q.936-.496 2.112-.496 1.12 0 2.016.448a3.4 3.4 0 0 1 1.4 1.232q.504.784.496 1.776 0 .944-.488 1.792t-1.512 1.744l-2.92 2.648h5.224V453h-7.984zm12.88-6.84q1.008 0 1.768.36a2.7 2.7 0 0 1 1.192 1.024q.424.664.424 1.576V453h-1.84l-.008-3.064h.44q0 1.008-.368 1.744-.36.728-1.048 1.12-.68.392-1.616.392a3.3 3.3 0 0 1-1.424-.296 2.4 2.4 0 0 1-.976-.84 2.2 2.2 0 0 1-.352-1.232q0-.656.336-1.208.345-.552.944-.904.609-.36 1.376-.44l2.136-.224a.56.56 0 0 0 .392-.184q.144-.16.144-.464l.088 1.8-2.304.264q-.351.032-.616.184a1.16 1.16 0 0 0-.416.4q-.144.24-.144.56 0 .336.176.6.185.264.512.408.328.144.744.144.585 0 1.024-.224.44-.232.688-.648.249-.416.248-.952v-2.52q0-.392-.2-.688a1.3 1.3 0 0 0-.552-.456 1.9 1.9 0 0 0-.816-.168q-.455 0-.824.16-.367.152-.592.416a1.1 1.1 0 0 0-.264.584h-1.88a2.55 2.55 0 0 1 .568-1.368q.488-.6 1.28-.936a4.4 4.4 0 0 1 1.76-.344m255.89-139.817h1.928v5.08l4.64-5.08h2.376l-4.928 5.4 5.024 5.8h-2.448l-4.664-5.352v5.352h-1.928zm13.246 11.392q-1.2 0-2.16-.552a3.9 3.9 0 0 1-1.488-1.528q-.536-.984-.536-2.216 0-1.216.544-2.192a3.95 3.95 0 0 1 1.496-1.536q.953-.552 2.144-.552 1.209 0 2.128.552a3.64 3.64 0 0 1 1.416 1.52q.496.976.496 2.208v.52h-6.296l.016-.424q0 .751.296 1.344.305.584.824.912.528.32 1.192.32.465 0 .84-.088a2 2 0 0 0 .648-.28q.28-.184.456-.44h1.88q-.135.6-.64 1.16-.495.552-1.344.912-.84.36-1.912.36m-2.256-5.096h4.392v.624q0-.744-.248-1.312-.24-.576-.72-.896t-1.16-.32q-.663 0-1.176.312-.504.304-.792.872-.28.56-.28 1.304zm7.498 5.904h1.144q.32 0 .56-.168t.368-.464l.392-.848-3.152-7.712h1.976l2.12 5.504 1.944-5.504h1.928l-3.4 8.744q-.24.608-.584 1.048a2.4 2.4 0 0 1-.84.704q-.504.256-1.184.256h-1.272zm8.496-9.192h1.848v3.408h-.544q0-1.096.376-1.904.376-.816 1.072-1.256.703-.44 1.648-.44.88 0 1.552.384t1.048 1.12q.384.727.384 1.728v5.152h-1.904v-4.864q0-.576-.208-.992a1.4 1.4 0 0 0-.584-.632 1.77 1.77 0 0 0-.904-.224q-.56 0-.992.248a1.73 1.73 0 0 0-.664.696q-.232.448-.232 1.024v4.744h-1.896zm13.248 8.384q-1.224 0-2.216-.552a4 4 0 0 1-1.544-1.528q-.56-.984-.56-2.208t.56-2.2a3.97 3.97 0 0 1 1.552-1.536q.992-.552 2.216-.552t2.208.552 1.544 1.528.56 2.208-.56 2.208a4 4 0 0 1-1.544 1.528q-.984.552-2.216.552m.016-1.712q.663 0 1.192-.32.528-.329.832-.912.303-.584.304-1.344 0-.76-.304-1.344a2.2 2.2 0 0 0-.84-.912 2.2 2.2 0 0 0-1.192-.328q-.665 0-1.208.328a2.2 2.2 0 0 0-.84.912q-.304.584-.304 1.344t.304 1.344.84.912q.543.32 1.216.32m8.945 1.52q-.665 0-1.184-.28a2.07 2.07 0 0 1-.816-.776 2.2 2.2 0 0 1-.288-1.128l-.008-4.368h-1.44l.008-1.64h.896a.66.66 0 0 0 .488-.184.68.68 0 0 0 .184-.488v-1.32h1.768v1.992h1.968l-.008 1.64h-1.968l.008 4.136q0 .336.216.56a.77.77 0 0 0 .56.216h1.184v1.64zm7.013.192q-1.2 0-2.16-.552a3.9 3.9 0 0 1-1.488-1.528q-.536-.984-.536-2.216 0-1.216.544-2.192a3.94 3.94 0 0 1 1.496-1.536q.951-.552 2.144-.552 1.207 0 2.128.552a3.65 3.65 0 0 1 1.416 1.52q.495.976.496 2.208v.52h-6.296l.016-.424q0 .751.296 1.344.303.584.824.912.528.32 1.192.32.463 0 .84-.088.375-.096.648-.28.279-.184.456-.44h1.88q-.136.6-.64 1.16-.496.552-1.344.912-.84.36-1.912.36m-2.256-5.096h4.392v.624q0-.744-.248-1.312-.24-.576-.72-.896t-1.16-.32q-.664 0-1.176.312-.504.304-.792.872-.28.56-.28 1.304zm15.254-.032h2.12l2.968 4.936h-2.224zm-3.56-6.264h4.736q1.152 0 2.024.424a3.13 3.13 0 0 1 1.344 1.2q.48.768.48 1.784 0 1.024-.488 1.808a3.2 3.2 0 0 1-1.368 1.216q-.88.424-2.056.424h-2.712v4.344h-1.96zm4.632 5.184q.576 0 1.008-.216t.664-.608q.24-.4.24-.936 0-.528-.24-.92a1.5 1.5 0 0 0-.664-.608 2.2 2.2 0 0 0-1.008-.216h-2.672v3.504zm9.29 6.208q-1.224 0-2.216-.552a4 4 0 0 1-1.544-1.528q-.56-.984-.56-2.208t.56-2.2a4 4 0 0 1 1.552-1.536q.992-.552 2.216-.552t2.208.552a4 4 0 0 1 1.544 1.528q.56.977.56 2.208t-.56 2.208a4 4 0 0 1-1.544 1.528q-.984.552-2.216.552m.016-1.712q.664 0 1.192-.32.528-.329.832-.912.304-.584.304-1.344t-.304-1.344a2.2 2.2 0 0 0-.84-.912 2.2 2.2 0 0 0-1.192-.328q-.664 0-1.208.328a2.2 2.2 0 0 0-.84.912q-.304.584-.304 1.344t.304 1.344.84.912q.544.32 1.216.32m9.785 1.712q-1.224 0-2.216-.552a4 4 0 0 1-1.544-1.528q-.56-.984-.56-2.208t.56-2.2a4 4 0 0 1 1.552-1.536q.993-.552 2.216-.552t2.208.552a4 4 0 0 1 1.544 1.528q.56.977.56 2.208t-.56 2.208a4 4 0 0 1-1.544 1.528q-.983.552-2.216.552m.016-1.712q.664 0 1.192-.32.529-.329.832-.912.304-.584.304-1.344t-.304-1.344a2.2 2.2 0 0 0-.84-.912 2.2 2.2 0 0 0-1.192-.328q-.663 0-1.208.328a2.2 2.2 0 0 0-.84.912q-.304.584-.304 1.344t.304 1.344.84.912q.544.32 1.216.32m6.057-6.672h1.848v3.408h-.48q.009-1.104.352-1.912.352-.816 1-1.248.656-.44 1.544-.44.873 0 1.504.4.632.392.968 1.12.345.728.344 1.696v5.168h-1.856v-4.944q0-.544-.184-.944a1.36 1.36 0 0 0-.544-.616 1.57 1.57 0 0 0-.84-.216q-.528 0-.928.24t-.616.688q-.207.44-.208 1.04v4.752h-1.904zm10.408 3.248a2.16 2.16 0 0 0-.192-.944 1.37 1.37 0 0 0-.536-.616q-.343-.216-.84-.216-.528 0-.928.248-.391.24-.616.68-.216.44-.216 1.04l-.784-.032q0-1.072.384-1.888a2.95 2.95 0 0 1 1.088-1.264q.704-.448 1.64-.448.873 0 1.528.4.665.392 1.016 1.12.36.728.36 1.696v5.168h-1.904zm-57.443 13.072h-2.632v-1.632h1.48q.497 0 .864-.208.376-.208.568-.592.2-.384.2-.896h1.48v11.2h-1.96zm9.354 5.352h-5.496v-1.6l5.184-7.08h1.008l.728.152-4.944 6.912h3.64v-7.064h1.824v7.064h1.664v1.616h-1.664v2.52h-1.944zM467.453 225.063h2.12l2.968 4.936h-2.224zm-3.56-6.264h4.736q1.152 0 2.024.424a3.14 3.14 0 0 1 1.344 1.2q.48.768.48 1.784 0 1.024-.488 1.808a3.2 3.2 0 0 1-1.368 1.216q-.88.424-2.056.424h-2.712v4.344h-1.96zm4.632 5.184q.576 0 1.008-.216t.664-.608q.24-.4.24-.936 0-.528-.24-.92a1.5 1.5 0 0 0-.664-.608 2.2 2.2 0 0 0-1.008-.216h-2.672v3.504zm9.019 6.208q-1.223 0-2.216-.552a4 4 0 0 1-1.544-1.528q-.56-.984-.56-2.208t.56-2.2a4 4 0 0 1 1.552-1.536q.992-.552 2.216-.552t2.208.552a4 4 0 0 1 1.544 1.528q.56.976.56 2.208 0 1.231-.56 2.208a4 4 0 0 1-1.544 1.528q-.984.552-2.216.552m.016-1.712q.664 0 1.192-.32.528-.328.832-.912t.304-1.344-.304-1.344a2.2 2.2 0 0 0-.84-.912 2.2 2.2 0 0 0-1.192-.328q-.663 0-1.208.328a2.2 2.2 0 0 0-.84.912q-.303.584-.304 1.344 0 .76.304 1.344t.84.912q.544.32 1.216.32m9.516 1.712q-1.224 0-2.216-.552a4 4 0 0 1-1.544-1.528q-.56-.984-.56-2.208t.56-2.2a3.97 3.97 0 0 1 1.552-1.536q.992-.552 2.216-.552t2.208.552 1.544 1.528.56 2.208q0 1.231-.56 2.208a4 4 0 0 1-1.544 1.528q-.984.552-2.216.552m.016-1.712q.663 0 1.192-.32.528-.328.832-.912t.304-1.344-.304-1.344a2.2 2.2 0 0 0-.84-.912 2.2 2.2 0 0 0-1.192-.328q-.665 0-1.208.328a2.2 2.2 0 0 0-.84.912q-.304.584-.304 1.344t.304 1.344.84.912q.543.32 1.216.32m5.787-6.672h1.848v3.408h-.48q.007-1.104.352-1.912.351-.816 1-1.248.656-.44 1.544-.44.871 0 1.504.4.632.392.968 1.12.344.728.344 1.696v5.168h-1.856v-4.944q0-.544-.184-.944a1.36 1.36 0 0 0-.544-.616 1.6 1.6 0 0 0-.84-.216q-.528 0-.928.24t-.616.688q-.208.44-.208 1.04v4.752h-1.904zm10.408 3.248a2.16 2.16 0 0 0-.192-.944 1.4 1.4 0 0 0-.536-.616q-.345-.216-.84-.216-.528 0-.928.248-.393.24-.616.68-.216.44-.216 1.04l-.784-.032q0-1.072.384-1.888a2.94 2.94 0 0 1 1.088-1.264q.704-.448 1.64-.448.871 0 1.528.4.663.392 1.016 1.12.36.728.36 1.696v5.168h-1.904zm-27.206 13.072h-2.632v-1.632h1.48q.497 0 .864-.208.376-.208.568-.592.2-.384.2-.896h1.48v11.2h-1.96zm7.947 8.064q-1.168 0-2.104-.44a3.76 3.76 0 0 1-1.48-1.24 3.25 3.25 0 0 1-.568-1.8h1.984q.032.512.32.92.297.408.784.64.489.224 1.08.224a2.4 2.4 0 0 0 1.12-.256q.505-.256.784-.712.28-.456.28-1.024a1.9 1.9 0 0 0-.288-1.048 1.96 1.96 0 0 0-.792-.72 2.5 2.5 0 0 0-1.152-.256h-1.416v-1.424l2.84-2.592h-4.952v-1.664h7.352v1.456l-3.792 3.424v-.696q1.217-.024 2.168.424a3.5 3.5 0 0 1 1.488 1.272q.537.824.536 1.88 0 1.056-.536 1.88a3.6 3.6 0 0 1-1.488 1.288q-.951.464-2.168.464m5.952-11.392h1.896v11.2h-1.896zm4.688 11.392q-1.015 0-1.792-.448a3.1 3.1 0 0 1-1.2-1.264q-.423-.816-.432-1.888h.568v-1.376h-.568q.009-1.072.432-1.888a3.1 3.1 0 0 1 1.2-1.264q.777-.448 1.792-.448 1.104 0 1.968.544.864.536 1.344 1.512.488.976.488 2.232 0 1.255-.488 2.232a3.66 3.66 0 0 1-1.344 1.52q-.864.536-1.968.536m-.48-1.704q.681 0 1.2-.328a2.2 2.2 0 0 0 .816-.912q.296-.584.296-1.344t-.296-1.344a2.2 2.2 0 0 0-.816-.912 2.2 2.2 0 0 0-1.2-.328q-.68 0-1.216.328a2.25 2.25 0 0 0-.824.912q-.288.584-.288 1.344t.288 1.344q.297.584.824.912.537.328 1.216.328m-111.735-19.424h2.12l2.968 4.936h-2.224zm-3.56-6.264h4.736q1.152 0 2.024.424a3.14 3.14 0 0 1 1.344 1.2q.48.768.48 1.784 0 1.024-.488 1.808a3.2 3.2 0 0 1-1.368 1.216q-.88.424-2.056.424h-2.712v4.344h-1.96zm4.632 5.184q.576 0 1.008-.216t.664-.608q.24-.4.24-.936 0-.528-.24-.92a1.5 1.5 0 0 0-.664-.608 2.2 2.2 0 0 0-1.008-.216h-2.672v3.504zm9.019 6.208q-1.223 0-2.216-.552a4 4 0 0 1-1.544-1.528q-.56-.984-.56-2.208t.56-2.2a4 4 0 0 1 1.552-1.536q.992-.552 2.216-.552t2.208.552a4 4 0 0 1 1.544 1.528q.56.976.56 2.208 0 1.231-.56 2.208a4 4 0 0 1-1.544 1.528q-.984.552-2.216.552m.016-1.712q.664 0 1.192-.32.528-.328.832-.912t.304-1.344-.304-1.344a2.2 2.2 0 0 0-.84-.912 2.2 2.2 0 0 0-1.192-.328q-.663 0-1.208.328a2.2 2.2 0 0 0-.84.912q-.303.584-.304 1.344 0 .76.304 1.344t.84.912q.544.32 1.216.32m9.516 1.712q-1.224 0-2.216-.552a4 4 0 0 1-1.544-1.528q-.56-.984-.56-2.208t.56-2.2a3.97 3.97 0 0 1 1.552-1.536q.992-.552 2.216-.552t2.208.552 1.544 1.528.56 2.208q0 1.231-.56 2.208a4 4 0 0 1-1.544 1.528q-.984.552-2.216.552m.016-1.712q.663 0 1.192-.32.528-.328.832-.912t.304-1.344-.304-1.344a2.2 2.2 0 0 0-.84-.912 2.2 2.2 0 0 0-1.192-.328q-.665 0-1.208.328a2.2 2.2 0 0 0-.84.912q-.304.584-.304 1.344t.304 1.344.84.912q.543.32 1.216.32m5.787-6.672h1.848v3.408h-.48q.007-1.104.352-1.912.351-.816 1-1.248.656-.44 1.544-.44.871 0 1.504.4.632.392.968 1.12.344.728.344 1.696v5.168h-1.856v-4.944q0-.544-.184-.944a1.36 1.36 0 0 0-.544-.616 1.6 1.6 0 0 0-.84-.216q-.528 0-.928.24t-.616.688q-.208.44-.208 1.04v4.752h-1.904zm10.408 3.248a2.16 2.16 0 0 0-.192-.944 1.4 1.4 0 0 0-.536-.616q-.345-.216-.84-.216-.528 0-.928.248-.393.24-.616.68-.216.44-.216 1.04l-.784-.032q0-1.072.384-1.888a2.94 2.94 0 0 1 1.088-1.264q.704-.448 1.64-.448.871 0 1.528.4.663.392 1.016 1.12.36.728.36 1.696v5.168h-1.904zm-26.495 13.072h-2.632v-1.632h1.48q.497 0 .864-.208.376-.208.568-.592.2-.384.2-.896h1.48v11.2h-1.96zm7.947 8.064q-1.168 0-2.104-.44a3.75 3.75 0 0 1-1.48-1.24 3.24 3.24 0 0 1-.568-1.8h1.984q.032.512.32.92.296.408.784.64.488.224 1.08.224.624 0 1.12-.256a1.9 1.9 0 0 0 .784-.712q.28-.456.28-1.024a1.9 1.9 0 0 0-.288-1.048 1.96 1.96 0 0 0-.792-.72 2.5 2.5 0 0 0-1.152-.256h-1.416v-1.424l2.84-2.592h-4.952v-1.664h7.352v1.456l-3.792 3.424v-.696q1.216-.024 2.168.424a3.5 3.5 0 0 1 1.488 1.272q.536.824.536 1.88t-.536 1.88a3.6 3.6 0 0 1-1.488 1.288q-.952.464-2.168.464m9.224-8.576q1.009 0 1.768.36a2.7 2.7 0 0 1 1.192 1.024q.424.664.424 1.576v5.424h-1.84l-.008-3.064h.44q0 1.008-.368 1.744-.36.728-1.048 1.12-.68.392-1.616.392a3.3 3.3 0 0 1-1.424-.296 2.4 2.4 0 0 1-.976-.84 2.2 2.2 0 0 1-.352-1.232q0-.656.336-1.208.345-.552.944-.904.609-.36 1.376-.44l2.136-.224a.56.56 0 0 0 .392-.184q.144-.16.144-.464l.088 1.8-2.304.264q-.351.032-.616.184a1.16 1.16 0 0 0-.416.4q-.144.24-.144.56 0 .336.176.6.185.264.512.408.328.144.744.144.585 0 1.024-.224.44-.232.688-.648.249-.416.248-.952v-2.52q0-.392-.2-.688a1.3 1.3 0 0 0-.552-.456 1.9 1.9 0 0 0-.816-.168q-.455 0-.824.16-.367.152-.592.416a1.1 1.1 0 0 0-.264.584h-1.88a2.55 2.55 0 0 1 .568-1.368q.489-.6 1.28-.936a4.4 4.4 0 0 1 1.76-.344m96.614 386.731H504v-4.939h5.635v-4.128h5.659v-4.151h5.658V607h6.447v1.577h-4.87v4.151h-5.635v4.128h-5.659v4.151h-5.658zm-72-233H432v-4.939h5.635v-4.128h5.659v-4.151h5.658V374h6.447v1.577h-4.87v4.151h-5.635v4.128h-5.659v4.151h-5.658zm91 381H523v-4.939h5.635v-4.128h5.659v-4.151h5.658V755h6.447v1.577h-4.87v4.151h-5.635v4.128h-5.659v4.151h-5.658zm250-148H773v-4.939h5.635v-4.128h5.659v-4.151h5.658V607h6.447v1.577h-4.87v4.151h-5.635v4.128h-5.659v4.151h-5.658zm134 0H907v-4.939h5.635v-4.128h5.659v-4.151h5.658V607h6.447v1.577h-4.87v4.151h-5.635v4.128h-5.659v4.151h-5.658z"/><path fill="#000" d="M851.857 664.769a.85.85 0 0 1-.857.846h-.857V658h-1.714v7.615h-.858a.85.85 0 0 1-.857-.846V658H845v6.769c0 1.401 1.153 2.539 2.571 2.539h.858V680h1.714v-12.692H851c1.419 0 2.571-1.138 2.571-2.539V658h-1.714zm9.534-6.769c-1.402 0-2.72.539-3.71 1.517a5.1 5.1 0 0 0-1.536 3.661v9.204h5.143v7.616h1.714V658zm-.105 12.692h-3.429v-7.511c0-.931.367-1.807 1.035-2.467a3.47 3.47 0 0 1 2.394-1.02zM476.375 779.25h1.564v-.893c0-.425.112-.83.313-1.136l1.461-2.227c.367-.56.568-1.267.568-1.994h-1.562c0 .426-.112.828-.315 1.137l-1.461 2.226c-.367.561-.568 1.268-.568 1.994z"/><path fill="#000" fill-rule="evenodd" d="M481.574 791.75h-4.933c-1.508 0-2.795-.98-3.129-2.387l-2.033-8.551h15.908c1.681 0 3.05 1.37 3.05 3.051a3.045 3.045 0 0 1-2.085 2.895l-3.296 1.12-.353 1.485c-.334 1.405-1.621 2.387-3.129 2.387m3.913-5.685 2.37-.79a1.49 1.49 0 0 0 1.018-1.412 1.49 1.49 0 0 0-1.488-1.488h-1.022zm-12.03-3.69 1.576 6.627c.164.687.84 1.186 1.61 1.186h4.935c.77 0 1.445-.499 1.609-1.186l1.577-6.627z" clip-rule="evenodd"/><path fill="#000" d="M470.125 793.312v1.563h18.75v-1.563zm9.375-14.062c0-.727.201-1.434.568-1.994l.047-.065 1.473-1.812c.16-.197.256-.504.256-.818h1.562c0 .683-.215 1.322-.605 1.804l-1.446 1.778a2.1 2.1 0 0 0-.293 1.105v.002z"/><path stroke="url(#paint0_linear_10312_7177)" stroke-width="3" d="M749.39 499.499h-53.384a2 2 0 0 1-2-2.006l.384-122.494.001-32.5V139.5a2 2 0 0 1 2-2h15.5l19.499-.001h220.5l33 .5h8.502c1.105 0 1.998.693 1.998 1.798v349.702l.001-114.5v122.5a2 2 0 0 1-2 2h-43.5m-75.391 0h35m-116.5 0h35"/><path stroke="url(#paint1_linear_10312_7177)" stroke-miterlimit="3.994" stroke-width="3" d="M444.002 137.499v203.5a2 2 0 0 0 2 2h5.498"/><path stroke="url(#paint2_linear_10312_7177)" stroke-width="3" d="M426.135 343h36"/><path stroke="url(#paint3_linear_10312_7177)" stroke-width="3" d="m527.5 249.499 9-31.5-17.5-61L513.5 137c-57.798 0-137-.135-137-.135l-5.899 20.134-17.5 61 9 31.5"/><path stroke="url(#paint4_linear_10312_7177)" stroke-width="3" d="M478.135 343h24.012a2 2 0 0 0 1.938-1.505L508.301 325l3.834-15 4.365-18.5 3.635-13.5"/><path stroke="url(#paint5_linear_10312_7177)" stroke-width="3" d="M409.999 342.999h-24.103a2 2 0 0 1-1.905-1.392L383 338.5l-14.5-59-.365-1.5"/><path stroke="url(#paint6_linear_10312_7177)" stroke-width="3" d="M384.974 375H322a2 2 0 0 0-2 2v54.046l.125 27.963a2.003 2.003 0 0 0 2.004 1.991h61.774c.909 0 1.711-.613 1.941-1.493l1.832-6.994L392.5 436m-5.5-48 8.226 27.357a2 2 0 0 1-1.916 2.576h-73.176"/><path stroke="url(#paint7_linear_10312_7177)" stroke-width="3" d="M506.135 374.867h61.5a2 2 0 0 1 2 2v41M497 436.104l4.393 16.396 1.849 7.011a2.01 2.01 0 0 0 1.941 1.49h62.322c1.102 0 1.999-.89 2.004-1.991l.126-28.01v-13.133M501.5 390l-7.712 25.284a2 2 0 0 0 1.913 2.583h73.934"/><path stroke="#e8e8e8" d="m463.776 793.717 12.487 21.628a2 2 0 0 0 2.541.829l25.928-11.477a2 2 0 0 1 2.542.829l14.238 24.661a2 2 0 0 1-.579 2.634l-28.496 20.113-28.589 20.179a2 2 0 0 0-.639 2.522l8.563 17.292a2 2 0 0 1-.78 2.612L243.316 1029.09c-.95.55-2.172.24-2.733-.71l-12.576-21.25a2 2 0 0 0-2.538-.81l-68.222 30.54c-.937.42-2.039.06-2.55-.83l-55.205-95.882a2 2 0 0 1 .552-2.612l60.633-44.401a2 2 0 0 0 .568-2.582l-11.203-20.252a2 2 0 0 1 .74-2.694l227.181-133.052a2 2 0 0 1 2.68.624l11.885 18.018a2 2 0 0 0 2.508.715l31.763-14.666 31.666-14.622a2 2 0 0 1 2.571.816l14.238 24.661a2 2 0 0 1-.553 2.615l-22.903 16.716a2 2 0 0 0-.553 2.615l12.487 21.628"/><path stroke="#a0a0a0" stroke-width="3" d="m464.045 794.509 12.487 21.627a2 2 0 0 0 2.541.829l25.928-11.476a2 2 0 0 1 2.541.828l14.238 24.661a2 2 0 0 1-.579 2.634l-28.495 20.113-28.589 20.179a2 2 0 0 0-.639 2.522l8.563 17.292a2 2 0 0 1-.781 2.612l-229.393 134.56M464.02 794.466l-12.486-21.628a2 2 0 0 1 .553-2.615l22.902-16.716a2 2 0 0 0 .553-2.615l-14.238-24.661a2 2 0 0 0-2.57-.816l-31.667 14.622-31.763 14.666a2 2 0 0 1-2.508-.715l-11.884-18.017a2 2 0 0 0-2.681-.625L149.098 869.595"/><defs><linearGradient id="paint0_linear_10312_7177" x1="2923" x2="2992.54" y1="1133.5" y2="841.94" gradientUnits="userSpaceOnUse"><stop stop-color="#ff9419"/><stop offset=".2" stop-color="#ff021d"/><stop offset=".99" stop-color="#e600ff"/></linearGradient><linearGradient id="paint1_linear_10312_7177" x1="454" x2="454.006" y1="142.992" y2="142.992" gradientUnits="userSpaceOnUse"><stop offset=".057" stop-color="#e600ff"/><stop offset=".639" stop-color="#f6026d"/></linearGradient><linearGradient id="paint2_linear_10312_7177" x1="31.621" x2="4041.34" y1="1904410000" y2="1904410000" gradientUnits="userSpaceOnUse"><stop stop-color="#ff9419"/><stop offset=".706" stop-color="#ff021d"/><stop offset=".99" stop-color="#e600ff"/></linearGradient><linearGradient id="paint3_linear_10312_7177" x1="172.5" x2="-36.977" y1="1103" y2="963.231" gradientUnits="userSpaceOnUse"><stop stop-color="#ff9419"/><stop offset=".2" stop-color="#ff021d"/><stop offset=".99" stop-color="#e600ff"/></linearGradient><linearGradient id="paint4_linear_10312_7177" x1="162" x2="930.021" y1="1109" y2="420.629" gradientUnits="userSpaceOnUse"><stop stop-color="#ff9419"/><stop offset=".674" stop-color="#ff021d"/><stop offset=".883" stop-color="#e600ff"/></linearGradient><linearGradient id="paint5_linear_10312_7177" x1="163" x2="132.525" y1="1105.5" y2="149.211" gradientUnits="userSpaceOnUse"><stop stop-color="#ff9419"/><stop offset=".714" stop-color="#ff021d"/><stop offset="1" stop-color="#e600ff"/></linearGradient><linearGradient id="paint6_linear_10312_7177" x1="199.5" x2="192.916" y1="572" y2="204.594" gradientUnits="userSpaceOnUse"><stop stop-color="#ff9419"/><stop offset=".201" stop-color="#ff021d"/><stop offset="1" stop-color="#e600ff"/></linearGradient><linearGradient id="paint7_linear_10312_7177" x1="168" x2="679.727" y1="1105" y2="1212.78" gradientUnits="userSpaceOnUse"><stop stop-color="#ff9419"/><stop offset=".201" stop-color="#ff021d"/><stop offset=".907" stop-color="#e600ff"/></linearGradient></defs></svg>