<svg width="1200" height="1200" viewBox="0 0 1200 1200" fill="none" xmlns="http://www.w3.org/2000/svg">
<path d="M600 848L498 909M493.5 665V597H807V634H712.5V719.5L776 740V824.5" stroke="#58585D"/>
<path d="M926.5 765.5V740.5L990.5 719V634.5H896.5L896.768 597H1064.27" stroke="#58585D"/>
<path d="M599.606 848.158C599.606 848.158 589.367 823.696 552.183 752.188C511.43 687.733 493.639 664.798 493.639 664.798" stroke="#58585D"/>
<path d="M647.606 244.499L647.606 530.999C647.606 532.104 648.502 532.999 649.606 532.999L665.606 532.999L747.106 532.999C748.211 532.999 749.106 532.104 749.106 530.999L749.106 499.499M907.106 532.999L877.106 532.999C876.002 532.999 875.106 532.104 875.106 530.999L875.106 501.499C875.106 500.395 876.002 499.499 877.106 499.499L907.106 499.499C908.211 499.499 909.106 500.395 909.106 501.499L909.106 530.999C909.106 532.104 908.211 532.999 907.106 532.999ZM795.606 499.499L825.606 499.499C826.711 499.499 827.606 500.395 827.606 501.499L827.606 530.999C827.606 532.104 826.711 532.999 825.606 532.999L795.606 532.999C794.502 532.999 793.606 532.104 793.606 530.999L793.606 501.499C793.606 500.395 794.502 499.499 795.606 499.499Z" stroke="#58585D"/>
<path d="M951.106 499.499L951.106 530.999C951.106 532.104 952.014 532.999 953.119 532.999C991.818 532.999 1014.4 532.999 1053.09 532.999C1054.2 532.999 1055.11 532.104 1055.11 530.999L1055.11 242.499M647.606 250.499L647.607 137M955.606 137.499L747.106 137.499" stroke="#58585D"/>
<rect x="431.608" y="509.5" width="26" height="23" rx="1.5" stroke="#58585D"/>
<rect x="842.498" y="707.5" width="26" height="23" rx="1.5" stroke="#58585D"/>
<path d="M1005 249.999L1005.6 137.5M1055.1 250.5L1055.1 249.999L1055.1 137" stroke="#58585D"/>
<path d="M566.965 533L584.999 533M649.965 533L626.499 533" stroke="#58585D"/>
<path d="M319.136 190.5L338.106 190.5C339.009 190.5 339.8 189.895 340.036 189.023L354.136 137" stroke="#58585D"/>
<path d="M1148.5 137L1055 136.999M569 137L647.5 137M704.5 137L1004.5 136.999" stroke="#58585D"/>
<path d="M568.965 190.499L551.131 190.499C550.228 190.499 549.437 189.894 549.2 189.023L535.101 136.999M496.999 436.236L503.635 460.999L522.734 531.522C522.971 532.394 523.762 532.999 524.665 532.999L567.474 532.999C568.579 532.999 569.474 532.104 569.474 531L569.48 454.499M569.101 284.499L569.101 343.999M569.101 136.999C569.101 182.886 569.101 254.499 569.101 254.499" stroke="#58585D"/>
<path d="M241.269 1028.12L254.295 1050.68" stroke="#58585D"/>
<path d="M151.52 872.672L136.77 847.124" stroke="#58585D"/>
<path d="M410.553 932.518L377.999 951.499M464.177 794.121L476.663 815.749C477.174 816.634 478.27 816.991 479.205 816.578L505.132 805.101C506.067 804.687 507.163 805.045 507.674 805.93L521.912 830.591C522.429 831.486 522.178 832.629 521.333 833.225L492.837 853.338L464.8 873.127C463.783 873.845 462.374 873.492 461.841 872.367C457.882 864.016 443.058 833.052 431.468 812.977C419.878 792.902 400.474 764.582 395.221 756.978C394.513 755.954 394.912 754.557 396.043 754.036L427.199 739.649L458.866 725.028C459.805 724.594 460.919 724.948 461.436 725.843L475.674 750.504C476.185 751.389 475.947 752.517 475.121 753.12L452.218 769.836C451.393 770.438 451.154 771.566 451.665 772.451L464.152 794.079M317.485 771.32L283.999 790.499" stroke="#58585D"/>
<path d="M776 740.001L776 818.999" stroke="#58585D"/>
<path d="M926.5 740.5L926.5 772.498" stroke="#58585D"/>
<path d="M315.5 532.865L364.47 532.865C365.373 532.865 366.164 532.26 366.401 531.388L385.5 460.865L392.136 436.102M717.635 834L773.351 814.907C774.649 814.462 775.999 815.427 775.999 816.799L775.999 838C775.999 839.104 776.895 840 777.999 840L924.635 840C925.739 840 926.635 839.104 926.635 838L926.635 764.94C926.635 764.08 927.185 763.316 928 763.043L1053.77 720.957C1054.58 720.684 1055.13 719.92 1055.13 719.06L1055.13 599C1055.13 597.895 1056.02 597 1057.13 597C1092.63 597 1136.89 597 1146.67 597C1147.77 597 1148.63 596.104 1148.63 595L1148.63 52.9998C1148.63 51.8952 1147.74 50.9998 1146.63 50.9998L321.635 50.9998C320.53 50.9998 319.635 51.8952 319.635 52.9998L319.635 530.999C319.635 532.104 318.739 532.999 317.634 532.999L201.693 532.959C200.149 532.958 199.186 534.634 199.965 535.967L318.254 738.492C318.811 739.446 318.49 740.671 317.536 741.228L45.5042 900.114C44.5504 900.671 44.2288 901.896 44.7859 902.85L161.681 1102.99C162.238 1103.94 163.463 1104.26 164.417 1103.71L498.472 908.595C498.58 908.532 498.694 908.479 498.813 908.437L579.135 880L717.635 834Z" stroke="#58585D"/>
<path d="M1053 532.904L1073.86 532.904M1149 532.904L1121.86 532.904" stroke="#58585D"/>
<path d="M406 689L316 742" stroke="#58585D"/>
<path d="M406 689V629V612V595H234.5" stroke="#58585D"/>
<path d="M149 868.5L136.5 847L406 689V595H234.5L198 533H365.5L392 437.5M242 1028.5L255 1051.5L600 848C588.167 822.833 562.1 768.7 552.5 753.5C540.5 734.5 508 682.5 493.5 664.5V597H807V634.5H713V719.5L776 740.5V840H926.5V741L990 719.5V634.5H897V597.5H1148.5V137H1055V532H951.5V498M320 382.5V190.5H339.5L354.5 137H535L542.5 163.75L550 190.5H569V137H648V532.5L748 532.634V498.134" stroke="#606060" stroke-width="3" stroke-linejoin="round"/>
<path d="M473 894.999L327.514 980.462L274.389 1011.23C264.067 1017.19 248.989 1025.89 243.942 1028.81C242.987 1029.36 241.776 1029.03 241.222 1028.07L228.83 1006.75C228.315 1005.87 227.212 1005.51 226.278 1005.94L157.812 1036.86C156.875 1037.28 155.771 1036.93 155.257 1036.04L127.928 988.705L127.515 987.989L100.186 940.655C99.6725 939.764 99.9168 938.63 100.752 938.03L161.767 894.2C162.6 893.602 162.845 892.47 162.335 891.581L150.067 870.189C149.519 869.233 149.847 868.013 150.802 867.462L181.24 849.889L234.446 819.264C234.446 819.264 356.427 747.184 374.999 736.341L379.864 733.841M394.5 754.5C402.851 766.698 415.323 785.349 431.32 810.65C446.896 840.606 457.093 861.168 463.5 874.486" stroke="url(#paint0_linear_12435_15818)" stroke-width="3"/>
<path d="M444.001 137.499L444.001 340.999C444.001 342.104 444.896 342.999 446.001 342.999L451.499 342.999" stroke="url(#paint1_linear_12435_15818)" stroke-width="3" stroke-miterlimit="3.99393"/>
<path d="M426.135 343L462.135 343" stroke="url(#paint2_linear_12435_15818)" stroke-width="3"/>
<path d="M527.5 249.499L536.5 217.999C536.5 217.999 525.834 180.821 519 156.999L513.5 137C455.702 137 376.5 136.865 376.5 136.865L370.601 156.999C363.766 180.821 353.101 217.999 353.101 217.999L362.101 249.499" stroke="url(#paint3_linear_12435_15818)" stroke-width="3"/>
<path d="M797.353 304.799H799.281V309.879L803.921 304.799H806.297L801.369 310.199L806.393 315.999H803.945L799.281 310.647V315.999H797.353V304.799ZM810.599 316.191C809.799 316.191 809.079 316.007 808.439 315.639C807.805 315.271 807.309 314.762 806.951 314.111C806.594 313.455 806.415 312.716 806.415 311.895C806.415 311.084 806.597 310.354 806.959 309.703C807.322 309.047 807.821 308.535 808.455 308.167C809.09 307.799 809.805 307.615 810.599 307.615C811.405 307.615 812.114 307.799 812.727 308.167C813.341 308.53 813.813 309.036 814.143 309.687C814.474 310.338 814.639 311.074 814.639 311.895V312.415H808.343L808.359 311.991C808.359 312.492 808.458 312.94 808.655 313.335C808.858 313.724 809.133 314.028 809.479 314.247C809.831 314.46 810.229 314.567 810.671 314.567C810.981 314.567 811.261 314.538 811.511 314.479C811.762 314.415 811.978 314.322 812.159 314.199C812.346 314.076 812.498 313.93 812.615 313.759H814.495C814.405 314.159 814.191 314.546 813.855 314.919C813.525 315.287 813.077 315.591 812.511 315.831C811.951 316.071 811.314 316.191 810.599 316.191ZM808.343 311.095H812.735V311.719C812.735 311.223 812.653 310.786 812.487 310.407C812.327 310.023 812.087 309.724 811.767 309.511C811.447 309.298 811.061 309.191 810.607 309.191C810.165 309.191 809.773 309.295 809.431 309.503C809.095 309.706 808.831 309.996 808.639 310.375C808.453 310.748 808.359 311.183 808.359 311.679L808.343 311.095ZM815.841 316.999H816.985C817.198 316.999 817.385 316.943 817.545 316.831C817.705 316.719 817.827 316.564 817.913 316.367L818.305 315.519L815.153 307.807H817.129L819.249 313.311L821.193 307.807H823.121L819.721 316.551C819.561 316.956 819.366 317.306 819.137 317.599C818.913 317.898 818.633 318.132 818.297 318.303C817.961 318.474 817.566 318.559 817.113 318.559H815.841V316.999ZM824.337 307.807H826.185V311.215H825.641C825.641 310.484 825.766 309.85 826.017 309.311C826.267 308.767 826.625 308.348 827.089 308.055C827.558 307.762 828.107 307.615 828.737 307.615C829.323 307.615 829.841 307.743 830.289 307.999C830.737 308.255 831.086 308.628 831.337 309.119C831.593 309.604 831.721 310.18 831.721 310.847V315.999H829.817V311.135C829.817 310.751 829.747 310.42 829.609 310.143C829.475 309.866 829.281 309.655 829.025 309.511C828.769 309.362 828.467 309.287 828.121 309.287C827.747 309.287 827.417 309.37 827.129 309.535C826.846 309.7 826.625 309.932 826.465 310.231C826.31 310.53 826.233 310.871 826.233 311.255V315.999H824.337V307.807ZM837.585 316.191C836.769 316.191 836.03 316.007 835.369 315.639C834.713 315.271 834.198 314.762 833.825 314.111C833.451 313.455 833.265 312.719 833.265 311.903C833.265 311.087 833.451 310.354 833.825 309.703C834.198 309.047 834.715 308.535 835.377 308.167C836.038 307.799 836.777 307.615 837.593 307.615C838.409 307.615 839.145 307.799 839.801 308.167C840.457 308.535 840.971 309.044 841.345 309.695C841.718 310.346 841.905 311.082 841.905 311.903C841.905 312.724 841.718 313.46 841.345 314.111C840.971 314.762 840.457 315.271 839.801 315.639C839.145 316.007 838.406 316.191 837.585 316.191ZM837.601 314.479C838.043 314.479 838.441 314.372 838.793 314.159C839.145 313.94 839.422 313.636 839.625 313.247C839.827 312.858 839.929 312.41 839.929 311.903C839.929 311.396 839.827 310.948 839.625 310.559C839.422 310.164 839.142 309.86 838.785 309.647C838.433 309.428 838.035 309.319 837.593 309.319C837.15 309.319 836.747 309.428 836.385 309.647C836.027 309.86 835.747 310.164 835.545 310.559C835.342 310.948 835.241 311.396 835.241 311.903C835.241 312.41 835.342 312.858 835.545 313.247C835.747 313.636 836.027 313.94 836.385 314.159C836.747 314.372 837.153 314.479 837.601 314.479ZM846.546 315.999C846.103 315.999 845.708 315.906 845.362 315.719C845.015 315.532 844.743 315.274 844.546 314.943C844.354 314.612 844.258 314.236 844.258 313.815L844.25 309.447H842.81L842.818 307.807H843.714C843.916 307.807 844.079 307.746 844.202 307.623C844.324 307.495 844.386 307.332 844.386 307.135V305.815H846.154V307.807H848.122L848.114 309.447H846.146L846.154 313.583C846.154 313.807 846.226 313.994 846.37 314.143C846.519 314.287 846.706 314.359 846.93 314.359H848.114V315.999H846.546ZM853.559 316.191C852.759 316.191 852.039 316.007 851.399 315.639C850.764 315.271 850.268 314.762 849.911 314.111C849.553 313.455 849.375 312.716 849.375 311.895C849.375 311.084 849.556 310.354 849.919 309.703C850.281 309.047 850.78 308.535 851.415 308.167C852.049 307.799 852.764 307.615 853.559 307.615C854.364 307.615 855.073 307.799 855.687 308.167C856.3 308.53 856.772 309.036 857.103 309.687C857.433 310.338 857.599 311.074 857.599 311.895V312.415H851.303L851.319 311.991C851.319 312.492 851.417 312.94 851.615 313.335C851.817 313.724 852.092 314.028 852.439 314.247C852.791 314.46 853.188 314.567 853.631 314.567C853.94 314.567 854.22 314.538 854.471 314.479C854.721 314.415 854.937 314.322 855.119 314.199C855.305 314.076 855.457 313.93 855.575 313.759H857.455C857.364 314.159 857.151 314.546 856.815 314.919C856.484 315.287 856.036 315.591 855.471 315.831C854.911 316.071 854.273 316.191 853.559 316.191ZM851.303 311.095H855.695V311.719C855.695 311.223 855.612 310.786 855.447 310.407C855.287 310.023 855.047 309.724 854.727 309.511C854.407 309.298 854.02 309.191 853.567 309.191C853.124 309.191 852.732 309.295 852.391 309.503C852.055 309.706 851.791 309.996 851.599 310.375C851.412 310.748 851.319 311.183 851.319 311.679L851.303 311.095ZM866.557 311.063H868.677L871.645 315.999H869.421L866.557 311.063ZM862.997 304.799H867.733C868.501 304.799 869.176 304.94 869.757 305.223C870.339 305.506 870.787 305.906 871.101 306.423C871.421 306.935 871.581 307.53 871.581 308.207C871.581 308.89 871.419 309.492 871.093 310.015C870.773 310.538 870.317 310.943 869.725 311.231C869.139 311.514 868.453 311.655 867.669 311.655H864.957V315.999H862.997V304.799ZM867.629 309.983C868.013 309.983 868.349 309.911 868.637 309.767C868.925 309.623 869.147 309.42 869.301 309.159C869.461 308.892 869.541 308.58 869.541 308.223C869.541 307.871 869.461 307.564 869.301 307.303C869.147 307.036 868.925 306.834 868.637 306.695C868.349 306.551 868.013 306.479 867.629 306.479H864.957V309.983H867.629ZM876.919 316.191C876.103 316.191 875.364 316.007 874.703 315.639C874.047 315.271 873.532 314.762 873.159 314.111C872.786 313.455 872.599 312.719 872.599 311.903C872.599 311.087 872.786 310.354 873.159 309.703C873.532 309.047 874.05 308.535 874.711 308.167C875.372 307.799 876.111 307.615 876.927 307.615C877.743 307.615 878.479 307.799 879.135 308.167C879.791 308.535 880.306 309.044 880.679 309.695C881.052 310.346 881.239 311.082 881.239 311.903C881.239 312.724 881.052 313.46 880.679 314.111C880.306 314.762 879.791 315.271 879.135 315.639C878.479 316.007 877.74 316.191 876.919 316.191ZM876.935 314.479C877.378 314.479 877.775 314.372 878.127 314.159C878.479 313.94 878.756 313.636 878.959 313.247C879.162 312.858 879.263 312.41 879.263 311.903C879.263 311.396 879.162 310.948 878.959 310.559C878.756 310.164 878.476 309.86 878.119 309.647C877.767 309.428 877.37 309.319 876.927 309.319C876.484 309.319 876.082 309.428 875.719 309.647C875.362 309.86 875.082 310.164 874.879 310.559C874.676 310.948 874.575 311.396 874.575 311.903C874.575 312.41 874.676 312.858 874.879 313.247C875.082 313.636 875.362 313.94 875.719 314.159C876.082 314.372 876.487 314.479 876.935 314.479ZM886.72 316.191C885.904 316.191 885.166 316.007 884.504 315.639C883.848 315.271 883.334 314.762 882.96 314.111C882.587 313.455 882.4 312.719 882.4 311.903C882.4 311.087 882.587 310.354 882.96 309.703C883.334 309.047 883.851 308.535 884.512 308.167C885.174 307.799 885.912 307.615 886.728 307.615C887.544 307.615 888.28 307.799 888.936 308.167C889.592 308.535 890.107 309.044 890.48 309.695C890.854 310.346 891.04 311.082 891.04 311.903C891.04 312.724 890.854 313.46 890.48 314.111C890.107 314.762 889.592 315.271 888.936 315.639C888.28 316.007 887.542 316.191 886.72 316.191ZM886.736 314.479C887.179 314.479 887.576 314.372 887.928 314.159C888.28 313.94 888.558 313.636 888.76 313.247C888.963 312.858 889.064 312.41 889.064 311.903C889.064 311.396 888.963 310.948 888.76 310.559C888.558 310.164 888.278 309.86 887.92 309.647C887.568 309.428 887.171 309.319 886.728 309.319C886.286 309.319 885.883 309.428 885.52 309.647C885.163 309.86 884.883 310.164 884.68 310.559C884.478 310.948 884.376 311.396 884.376 311.903C884.376 312.41 884.478 312.858 884.68 313.247C884.883 313.636 885.163 313.94 885.52 314.159C885.883 314.372 886.288 314.479 886.736 314.479ZM892.793 307.807H894.641V311.215H894.161C894.167 310.479 894.284 309.842 894.513 309.303C894.748 308.759 895.081 308.343 895.513 308.055C895.951 307.762 896.465 307.615 897.057 307.615C897.639 307.615 898.14 307.748 898.561 308.015C898.983 308.276 899.305 308.65 899.529 309.135C899.759 309.62 899.873 310.186 899.873 310.831V315.999H898.017V311.055C898.017 310.692 897.956 310.378 897.833 310.111C897.711 309.844 897.529 309.639 897.289 309.495C897.055 309.351 896.775 309.279 896.449 309.279C896.097 309.279 895.788 309.359 895.521 309.519C895.255 309.679 895.049 309.908 894.905 310.207C894.767 310.5 894.697 310.847 894.697 311.247V315.999H892.793V307.807ZM903.201 311.055C903.201 310.692 903.137 310.378 903.009 310.111C902.887 309.844 902.708 309.639 902.473 309.495C902.244 309.351 901.964 309.279 901.633 309.279C901.281 309.279 900.972 309.362 900.705 309.527C900.444 309.687 900.239 309.914 900.089 310.207C899.945 310.5 899.873 310.847 899.873 311.247L899.089 311.215C899.089 310.5 899.217 309.871 899.473 309.327C899.729 308.783 900.092 308.362 900.561 308.063C901.031 307.764 901.577 307.615 902.201 307.615C902.783 307.615 903.292 307.748 903.729 308.015C904.172 308.276 904.511 308.65 904.745 309.135C904.985 309.62 905.105 310.186 905.105 310.831V315.999H903.201V311.055ZM845.758 324.127H843.126V322.495H844.606C844.937 322.495 845.225 322.426 845.47 322.287C845.721 322.148 845.91 321.951 846.038 321.695C846.172 321.439 846.238 321.14 846.238 320.799H846.246H847.718V331.999H845.758V324.127ZM855.112 329.479H849.616V327.879L854.8 320.799H855.808L856.536 320.951L851.592 327.863H855.232V320.799H857.056V327.863H858.72V329.479H857.056V331.999H855.112V329.479Z" fill="white"/>
<path d="M467.453 225.063H469.573L472.541 229.999H470.317L467.453 225.063ZM463.893 218.799H468.629C469.397 218.799 470.071 218.94 470.653 219.223C471.234 219.506 471.682 219.906 471.997 220.423C472.317 220.935 472.477 221.53 472.477 222.207C472.477 222.89 472.314 223.492 471.989 224.015C471.669 224.538 471.213 224.943 470.621 225.231C470.034 225.514 469.349 225.655 468.565 225.655H465.853V229.999H463.893V218.799ZM468.525 223.983C468.909 223.983 469.245 223.911 469.533 223.767C469.821 223.623 470.042 223.42 470.197 223.159C470.357 222.892 470.437 222.58 470.437 222.223C470.437 221.871 470.357 221.564 470.197 221.303C470.042 221.036 469.821 220.834 469.533 220.695C469.245 220.551 468.909 220.479 468.525 220.479H465.853V223.983H468.525ZM477.544 230.191C476.728 230.191 475.99 230.007 475.328 229.639C474.672 229.271 474.158 228.762 473.784 228.111C473.411 227.455 473.224 226.719 473.224 225.903C473.224 225.087 473.411 224.354 473.784 223.703C474.158 223.047 474.675 222.535 475.336 222.167C475.998 221.799 476.736 221.615 477.552 221.615C478.368 221.615 479.104 221.799 479.76 222.167C480.416 222.535 480.931 223.044 481.304 223.695C481.678 224.346 481.864 225.082 481.864 225.903C481.864 226.724 481.678 227.46 481.304 228.111C480.931 228.762 480.416 229.271 479.76 229.639C479.104 230.007 478.366 230.191 477.544 230.191ZM477.56 228.479C478.003 228.479 478.4 228.372 478.752 228.159C479.104 227.94 479.382 227.636 479.584 227.247C479.787 226.858 479.888 226.41 479.888 225.903C479.888 225.396 479.787 224.948 479.584 224.559C479.382 224.164 479.102 223.86 478.744 223.647C478.392 223.428 477.995 223.319 477.552 223.319C477.11 223.319 476.707 223.428 476.344 223.647C475.987 223.86 475.707 224.164 475.504 224.559C475.302 224.948 475.2 225.396 475.2 225.903C475.2 226.41 475.302 226.858 475.504 227.247C475.707 227.636 475.987 227.94 476.344 228.159C476.707 228.372 477.112 228.479 477.56 228.479ZM487.076 230.191C486.26 230.191 485.521 230.007 484.86 229.639C484.204 229.271 483.689 228.762 483.316 228.111C482.942 227.455 482.756 226.719 482.756 225.903C482.756 225.087 482.942 224.354 483.316 223.703C483.689 223.047 484.206 222.535 484.868 222.167C485.529 221.799 486.268 221.615 487.084 221.615C487.9 221.615 488.636 221.799 489.292 222.167C489.948 222.535 490.462 223.044 490.836 223.695C491.209 224.346 491.396 225.082 491.396 225.903C491.396 226.724 491.209 227.46 490.836 228.111C490.462 228.762 489.948 229.271 489.292 229.639C488.636 230.007 487.897 230.191 487.076 230.191ZM487.092 228.479C487.534 228.479 487.932 228.372 488.284 228.159C488.636 227.94 488.913 227.636 489.116 227.247C489.318 226.858 489.42 226.41 489.42 225.903C489.42 225.396 489.318 224.948 489.116 224.559C488.913 224.164 488.633 223.86 488.276 223.647C487.924 223.428 487.526 223.319 487.084 223.319C486.641 223.319 486.238 223.428 485.876 223.647C485.518 223.86 485.238 224.164 485.036 224.559C484.833 224.948 484.732 225.396 484.732 225.903C484.732 226.41 484.833 226.858 485.036 227.247C485.238 227.636 485.518 227.94 485.876 228.159C486.238 228.372 486.644 228.479 487.092 228.479ZM492.879 221.807H494.727V225.215H494.247C494.252 224.479 494.369 223.842 494.599 223.303C494.833 222.759 495.167 222.343 495.599 222.055C496.036 221.762 496.551 221.615 497.143 221.615C497.724 221.615 498.225 221.748 498.647 222.015C499.068 222.276 499.391 222.65 499.615 223.135C499.844 223.62 499.959 224.186 499.959 224.831V229.999H498.103V225.055C498.103 224.692 498.041 224.378 497.919 224.111C497.796 223.844 497.615 223.639 497.375 223.495C497.14 223.351 496.86 223.279 496.535 223.279C496.183 223.279 495.873 223.359 495.607 223.519C495.34 223.679 495.135 223.908 494.991 224.207C494.852 224.5 494.783 224.847 494.783 225.247V229.999H492.879V221.807ZM503.287 225.055C503.287 224.692 503.223 224.378 503.095 224.111C502.972 223.844 502.793 223.639 502.559 223.495C502.329 223.351 502.049 223.279 501.719 223.279C501.367 223.279 501.057 223.362 500.791 223.527C500.529 223.687 500.324 223.914 500.175 224.207C500.031 224.5 499.959 224.847 499.959 225.247L499.175 225.215C499.175 224.5 499.303 223.871 499.559 223.327C499.815 222.783 500.177 222.362 500.647 222.063C501.116 221.764 501.663 221.615 502.287 221.615C502.868 221.615 503.377 221.748 503.815 222.015C504.257 222.276 504.596 222.65 504.831 223.135C505.071 223.62 505.191 224.186 505.191 224.831V229.999H503.287V225.055ZM476.081 238.127H473.449V236.495H474.929C475.26 236.495 475.548 236.426 475.793 236.287C476.044 236.148 476.233 235.951 476.361 235.695C476.494 235.439 476.561 235.14 476.561 234.799H476.569H478.041V245.999H476.081V238.127ZM484.028 246.191C483.25 246.191 482.548 246.044 481.924 245.751C481.306 245.452 480.812 245.039 480.444 244.511C480.082 243.983 479.892 243.383 479.876 242.711H481.86C481.882 243.052 481.988 243.359 482.18 243.631C482.378 243.903 482.639 244.116 482.964 244.271C483.29 244.42 483.65 244.495 484.044 244.495C484.46 244.495 484.834 244.41 485.164 244.239C485.5 244.068 485.762 243.831 485.948 243.527C486.135 243.223 486.228 242.882 486.228 242.503C486.228 242.108 486.132 241.759 485.94 241.455C485.748 241.146 485.484 240.906 485.148 240.735C484.812 240.564 484.428 240.479 483.996 240.479H482.58V239.055L485.42 236.463H480.468V234.799H487.82V236.255L484.028 239.679V238.983C484.839 238.967 485.562 239.108 486.196 239.407C486.831 239.706 487.327 240.13 487.684 240.679C488.042 241.228 488.22 241.855 488.22 242.559C488.22 243.263 488.042 243.89 487.684 244.439C487.327 244.988 486.831 245.418 486.196 245.727C485.562 246.036 484.839 246.191 484.028 246.191ZM489.98 234.799H491.876V245.999H489.98V234.799ZM494.668 246.191C493.991 246.191 493.394 246.042 492.876 245.743C492.364 245.444 491.964 245.023 491.676 244.479C491.394 243.935 491.25 243.306 491.244 242.591H491.812V241.215H491.244C491.25 240.5 491.394 239.871 491.676 239.327C491.964 238.783 492.364 238.362 492.876 238.063C493.394 237.764 493.991 237.615 494.668 237.615C495.404 237.615 496.06 237.796 496.636 238.159C497.212 238.516 497.66 239.02 497.98 239.671C498.306 240.322 498.468 241.066 498.468 241.903C498.468 242.74 498.306 243.484 497.98 244.135C497.66 244.786 497.212 245.292 496.636 245.655C496.06 246.012 495.404 246.191 494.668 246.191ZM494.188 244.487C494.642 244.487 495.042 244.378 495.388 244.159C495.74 243.94 496.012 243.636 496.204 243.247C496.402 242.858 496.5 242.41 496.5 241.903C496.5 241.396 496.402 240.948 496.204 240.559C496.012 240.17 495.74 239.866 495.388 239.647C495.042 239.428 494.642 239.319 494.188 239.319C493.735 239.319 493.33 239.428 492.972 239.647C492.62 239.866 492.346 240.17 492.148 240.559C491.956 240.948 491.86 241.396 491.86 241.903C491.86 242.41 491.956 242.858 492.148 243.247C492.346 243.636 492.62 243.94 492.972 244.159C493.33 244.378 493.735 244.487 494.188 244.487Z" fill="white"/>
<path d="M382.453 225.063H384.573L387.541 229.999H385.317L382.453 225.063ZM378.893 218.799H383.629C384.397 218.799 385.071 218.94 385.653 219.223C386.234 219.506 386.682 219.906 386.997 220.423C387.317 220.935 387.477 221.53 387.477 222.207C387.477 222.89 387.314 223.492 386.989 224.015C386.669 224.538 386.213 224.943 385.621 225.231C385.034 225.514 384.349 225.655 383.565 225.655H380.853V229.999H378.893V218.799ZM383.525 223.983C383.909 223.983 384.245 223.911 384.533 223.767C384.821 223.623 385.042 223.42 385.197 223.159C385.357 222.892 385.437 222.58 385.437 222.223C385.437 221.871 385.357 221.564 385.197 221.303C385.042 221.036 384.821 220.834 384.533 220.695C384.245 220.551 383.909 220.479 383.525 220.479H380.853V223.983H383.525ZM392.544 230.191C391.728 230.191 390.99 230.007 390.328 229.639C389.672 229.271 389.158 228.762 388.784 228.111C388.411 227.455 388.224 226.719 388.224 225.903C388.224 225.087 388.411 224.354 388.784 223.703C389.158 223.047 389.675 222.535 390.336 222.167C390.998 221.799 391.736 221.615 392.552 221.615C393.368 221.615 394.104 221.799 394.76 222.167C395.416 222.535 395.931 223.044 396.304 223.695C396.678 224.346 396.864 225.082 396.864 225.903C396.864 226.724 396.678 227.46 396.304 228.111C395.931 228.762 395.416 229.271 394.76 229.639C394.104 230.007 393.366 230.191 392.544 230.191ZM392.56 228.479C393.003 228.479 393.4 228.372 393.752 228.159C394.104 227.94 394.382 227.636 394.584 227.247C394.787 226.858 394.888 226.41 394.888 225.903C394.888 225.396 394.787 224.948 394.584 224.559C394.382 224.164 394.102 223.86 393.744 223.647C393.392 223.428 392.995 223.319 392.552 223.319C392.11 223.319 391.707 223.428 391.344 223.647C390.987 223.86 390.707 224.164 390.504 224.559C390.302 224.948 390.2 225.396 390.2 225.903C390.2 226.41 390.302 226.858 390.504 227.247C390.707 227.636 390.987 227.94 391.344 228.159C391.707 228.372 392.112 228.479 392.56 228.479ZM402.076 230.191C401.26 230.191 400.521 230.007 399.86 229.639C399.204 229.271 398.689 228.762 398.316 228.111C397.942 227.455 397.756 226.719 397.756 225.903C397.756 225.087 397.942 224.354 398.316 223.703C398.689 223.047 399.206 222.535 399.868 222.167C400.529 221.799 401.268 221.615 402.084 221.615C402.9 221.615 403.636 221.799 404.292 222.167C404.948 222.535 405.462 223.044 405.836 223.695C406.209 224.346 406.396 225.082 406.396 225.903C406.396 226.724 406.209 227.46 405.836 228.111C405.462 228.762 404.948 229.271 404.292 229.639C403.636 230.007 402.897 230.191 402.076 230.191ZM402.092 228.479C402.534 228.479 402.932 228.372 403.284 228.159C403.636 227.94 403.913 227.636 404.116 227.247C404.318 226.858 404.42 226.41 404.42 225.903C404.42 225.396 404.318 224.948 404.116 224.559C403.913 224.164 403.633 223.86 403.276 223.647C402.924 223.428 402.526 223.319 402.084 223.319C401.641 223.319 401.238 223.428 400.876 223.647C400.518 223.86 400.238 224.164 400.036 224.559C399.833 224.948 399.732 225.396 399.732 225.903C399.732 226.41 399.833 226.858 400.036 227.247C400.238 227.636 400.518 227.94 400.876 228.159C401.238 228.372 401.644 228.479 402.092 228.479ZM407.879 221.807H409.727V225.215H409.247C409.252 224.479 409.369 223.842 409.599 223.303C409.833 222.759 410.167 222.343 410.599 222.055C411.036 221.762 411.551 221.615 412.143 221.615C412.724 221.615 413.225 221.748 413.647 222.015C414.068 222.276 414.391 222.65 414.615 223.135C414.844 223.62 414.959 224.186 414.959 224.831V229.999H413.103V225.055C413.103 224.692 413.041 224.378 412.919 224.111C412.796 223.844 412.615 223.639 412.375 223.495C412.14 223.351 411.86 223.279 411.535 223.279C411.183 223.279 410.873 223.359 410.607 223.519C410.34 223.679 410.135 223.908 409.991 224.207C409.852 224.5 409.783 224.847 409.783 225.247V229.999H407.879V221.807ZM418.287 225.055C418.287 224.692 418.223 224.378 418.095 224.111C417.972 223.844 417.793 223.639 417.559 223.495C417.329 223.351 417.049 223.279 416.719 223.279C416.367 223.279 416.057 223.362 415.791 223.527C415.529 223.687 415.324 223.914 415.175 224.207C415.031 224.5 414.959 224.847 414.959 225.247L414.175 225.215C414.175 224.5 414.303 223.871 414.559 223.327C414.815 222.783 415.177 222.362 415.647 222.063C416.116 221.764 416.663 221.615 417.287 221.615C417.868 221.615 418.377 221.748 418.815 222.015C419.257 222.276 419.596 222.65 419.831 223.135C420.071 223.62 420.191 224.186 420.191 224.831V229.999H418.287V225.055ZM391.792 238.127H389.16V236.495H390.64C390.971 236.495 391.259 236.426 391.504 236.287C391.755 236.148 391.944 235.951 392.072 235.695C392.205 235.439 392.272 235.14 392.272 234.799H392.28H393.752V245.999H391.792V238.127ZM399.739 246.191C398.96 246.191 398.259 246.044 397.635 245.751C397.016 245.452 396.523 245.039 396.155 244.511C395.792 243.983 395.603 243.383 395.587 242.711H397.571C397.592 243.052 397.699 243.359 397.891 243.631C398.088 243.903 398.35 244.116 398.675 244.271C399 244.42 399.36 244.495 399.755 244.495C400.171 244.495 400.544 244.41 400.875 244.239C401.211 244.068 401.472 243.831 401.659 243.527C401.846 243.223 401.939 242.882 401.939 242.503C401.939 242.108 401.843 241.759 401.651 241.455C401.459 241.146 401.195 240.906 400.859 240.735C400.523 240.564 400.139 240.479 399.707 240.479H398.291V239.055L401.131 236.463H396.179V234.799H403.531V236.255L399.739 239.679V238.983C400.55 238.967 401.272 239.108 401.907 239.407C402.542 239.706 403.038 240.13 403.395 240.679C403.752 241.228 403.931 241.855 403.931 242.559C403.931 243.263 403.752 243.89 403.395 244.439C403.038 244.988 402.542 245.418 401.907 245.727C401.272 246.036 400.55 246.191 399.739 246.191ZM408.963 237.615C409.635 237.615 410.225 237.735 410.731 237.975C411.243 238.21 411.641 238.551 411.923 238.999C412.206 239.442 412.347 239.967 412.347 240.575V245.999H410.507L410.499 242.935H410.939C410.939 243.607 410.817 244.188 410.571 244.679C410.331 245.164 409.982 245.538 409.523 245.799C409.07 246.06 408.531 246.191 407.907 246.191C407.379 246.191 406.905 246.092 406.483 245.895C406.067 245.692 405.742 245.412 405.507 245.055C405.273 244.692 405.155 244.282 405.155 243.823C405.155 243.386 405.267 242.983 405.491 242.615C405.721 242.247 406.035 241.946 406.435 241.711C406.841 241.471 407.299 241.324 407.811 241.271L409.947 241.047C410.118 241.031 410.249 240.97 410.339 240.863C410.435 240.756 410.483 240.602 410.483 240.399L410.571 242.199L408.267 242.463C408.033 242.484 407.827 242.546 407.651 242.647C407.475 242.748 407.337 242.882 407.235 243.047C407.139 243.207 407.091 243.394 407.091 243.607C407.091 243.831 407.15 244.031 407.267 244.207C407.39 244.383 407.561 244.519 407.779 244.615C407.998 244.711 408.246 244.759 408.523 244.759C408.913 244.759 409.254 244.684 409.547 244.535C409.841 244.38 410.07 244.164 410.235 243.887C410.401 243.61 410.483 243.292 410.483 242.935V240.415C410.483 240.154 410.417 239.924 410.283 239.727C410.15 239.53 409.966 239.378 409.731 239.271C409.497 239.159 409.225 239.103 408.915 239.103C408.611 239.103 408.337 239.156 408.091 239.263C407.846 239.364 407.649 239.503 407.499 239.679C407.35 239.855 407.262 240.05 407.235 240.263H405.355C405.409 239.751 405.598 239.295 405.923 238.895C406.249 238.495 406.675 238.183 407.203 237.959C407.731 237.73 408.318 237.615 408.963 237.615Z" fill="white"/>
<path d="M257.757 880.799H259.893L264.077 891.999H262.077L261.125 889.303H256.621L255.741 891.999H253.685L257.757 880.799ZM260.589 887.743L258.973 883.247L258.805 882.551L258.629 883.247L257.117 887.743H260.589ZM272.6 891.999H270.752V888.591H271.296C271.296 889.322 271.171 889.959 270.92 890.503C270.669 891.042 270.309 891.458 269.84 891.751C269.376 892.044 268.829 892.191 268.2 892.191C267.613 892.191 267.096 892.063 266.648 891.807C266.2 891.551 265.848 891.18 265.592 890.695C265.341 890.204 265.216 889.626 265.216 888.959V883.807H267.12V888.671C267.12 889.055 267.187 889.386 267.32 889.663C267.459 889.94 267.656 890.154 267.912 890.303C268.168 890.447 268.469 890.519 268.816 890.519C269.189 890.519 269.517 890.436 269.8 890.271C270.088 890.106 270.309 889.874 270.464 889.575C270.624 889.276 270.704 888.935 270.704 888.551V883.807H272.6V891.999ZM280.944 880.799H282.84V891.999H280.944V880.799ZM278.152 892.191C277.416 892.191 276.76 892.012 276.184 891.655C275.608 891.292 275.157 890.786 274.832 890.135C274.507 889.484 274.344 888.74 274.344 887.903C274.344 887.066 274.507 886.322 274.832 885.671C275.157 885.02 275.608 884.516 276.184 884.159C276.76 883.796 277.416 883.615 278.152 883.615C278.829 883.615 279.424 883.764 279.936 884.063C280.448 884.362 280.845 884.783 281.128 885.327C281.416 885.871 281.565 886.5 281.576 887.215H281.008V888.591H281.576C281.565 889.306 281.416 889.935 281.128 890.479C280.845 891.023 280.448 891.444 279.936 891.743C279.424 892.042 278.829 892.191 278.152 892.191ZM278.624 890.487C279.083 890.487 279.488 890.378 279.84 890.159C280.197 889.94 280.472 889.636 280.664 889.247C280.861 888.858 280.96 888.41 280.96 887.903C280.96 887.396 280.861 886.948 280.664 886.559C280.472 886.17 280.197 885.866 279.84 885.647C279.488 885.428 279.085 885.319 278.632 885.319C278.179 885.319 277.776 885.428 277.424 885.647C277.077 885.866 276.805 886.17 276.608 886.559C276.416 886.948 276.32 887.396 276.32 887.903C276.32 888.41 276.416 888.858 276.608 889.247C276.805 889.636 277.077 889.94 277.424 890.159C277.776 890.378 278.176 890.487 278.624 890.487ZM285.081 883.807H286.985V891.999H285.081V883.807ZM287.057 880.799V882.607H284.993V880.799H287.057ZM292.208 891.999C291.765 891.999 291.37 891.906 291.024 891.719C290.677 891.532 290.405 891.274 290.208 890.943C290.016 890.612 289.92 890.236 289.92 889.815L289.912 885.447H288.472L288.48 883.807H289.376C289.578 883.807 289.741 883.746 289.864 883.623C289.986 883.495 290.048 883.332 290.048 883.135V881.815H291.816V883.807H293.784L293.776 885.447H291.808L291.816 889.583C291.816 889.807 291.888 889.994 292.032 890.143C292.181 890.287 292.368 890.359 292.592 890.359H293.776V891.999H292.208ZM299.365 892.191C298.549 892.191 297.81 892.007 297.149 891.639C296.493 891.271 295.978 890.762 295.605 890.111C295.231 889.455 295.045 888.719 295.045 887.903C295.045 887.087 295.231 886.354 295.605 885.703C295.978 885.047 296.495 884.535 297.157 884.167C297.818 883.799 298.557 883.615 299.373 883.615C300.189 883.615 300.925 883.799 301.581 884.167C302.237 884.535 302.751 885.044 303.125 885.695C303.498 886.346 303.685 887.082 303.685 887.903C303.685 888.724 303.498 889.46 303.125 890.111C302.751 890.762 302.237 891.271 301.581 891.639C300.925 892.007 300.186 892.191 299.365 892.191ZM299.381 890.479C299.823 890.479 300.221 890.372 300.573 890.159C300.925 889.94 301.202 889.636 301.405 889.247C301.607 888.858 301.709 888.41 301.709 887.903C301.709 887.396 301.607 886.948 301.405 886.559C301.202 886.164 300.922 885.86 300.565 885.647C300.213 885.428 299.815 885.319 299.373 885.319C298.93 885.319 298.527 885.428 298.165 885.647C297.807 885.86 297.527 886.164 297.325 886.559C297.122 886.948 297.021 887.396 297.021 887.903C297.021 888.41 297.122 888.858 297.325 889.247C297.527 889.636 297.807 889.94 298.165 890.159C298.527 890.372 298.933 890.479 299.381 890.479ZM305.438 883.807H307.326V886.983L306.694 887.503C306.715 886.735 306.846 886.068 307.086 885.503C307.331 884.938 307.67 884.506 308.102 884.207C308.539 883.903 309.051 883.751 309.638 883.751H309.942V885.671H309.398C308.982 885.666 308.616 885.74 308.302 885.895C307.992 886.05 307.755 886.271 307.59 886.559C307.424 886.847 307.342 887.186 307.342 887.575V891.999H305.438V883.807ZM311.38 883.807H313.284V891.999H311.38V883.807ZM313.356 880.799V882.607H311.292V880.799H313.356ZM322.802 891.999H320.954V888.591H321.498C321.498 889.322 321.373 889.959 321.122 890.503C320.872 891.042 320.512 891.458 320.042 891.751C319.578 892.044 319.032 892.191 318.402 892.191C317.816 892.191 317.298 892.063 316.85 891.807C316.402 891.551 316.05 891.18 315.794 890.695C315.544 890.204 315.418 889.626 315.418 888.959V883.807H317.322V888.671C317.322 889.055 317.389 889.386 317.522 889.663C317.661 889.94 317.858 890.154 318.114 890.303C318.37 890.447 318.672 890.519 319.018 890.519C319.392 890.519 319.72 890.436 320.002 890.271C320.29 890.106 320.512 889.874 320.666 889.575C320.826 889.276 320.906 888.935 320.906 888.551V883.807H322.802V891.999ZM325.138 883.807H326.986V887.215H326.506C326.512 886.479 326.629 885.842 326.858 885.303C327.093 884.759 327.426 884.343 327.858 884.055C328.296 883.762 328.81 883.615 329.402 883.615C329.984 883.615 330.485 883.748 330.906 884.015C331.328 884.276 331.65 884.65 331.874 885.135C332.104 885.62 332.218 886.186 332.218 886.831V891.999H330.362V887.055C330.362 886.692 330.301 886.378 330.178 886.111C330.056 885.844 329.874 885.639 329.634 885.495C329.4 885.351 329.12 885.279 328.794 885.279C328.442 885.279 328.133 885.359 327.866 885.519C327.6 885.679 327.394 885.908 327.25 886.207C327.112 886.5 327.042 886.847 327.042 887.247V891.999H325.138V883.807ZM335.546 887.055C335.546 886.692 335.482 886.378 335.354 886.111C335.232 885.844 335.053 885.639 334.818 885.495C334.589 885.351 334.309 885.279 333.978 885.279C333.626 885.279 333.317 885.362 333.05 885.527C332.789 885.687 332.584 885.914 332.434 886.207C332.29 886.5 332.218 886.847 332.218 887.247L331.434 887.215C331.434 886.5 331.562 885.871 331.818 885.327C332.074 884.783 332.437 884.362 332.906 884.063C333.376 883.764 333.922 883.615 334.546 883.615C335.128 883.615 335.637 883.748 336.074 884.015C336.517 884.276 336.856 884.65 337.09 885.135C337.33 885.62 337.45 886.186 337.45 886.831V891.999H335.546V887.055ZM338.908 893.319H339.26C339.639 893.319 339.94 893.199 340.164 892.959C340.388 892.719 340.5 892.399 340.5 891.999H339.42V889.871H341.628V891.831C341.628 892.338 341.532 892.778 341.34 893.151C341.148 893.53 340.873 893.818 340.516 894.015C340.159 894.218 339.74 894.319 339.26 894.319H338.908V893.319ZM275.723 903.063H277.843L280.811 907.999H278.587L275.723 903.063ZM272.163 896.799H276.899C277.667 896.799 278.342 896.94 278.923 897.223C279.504 897.506 279.952 897.906 280.267 898.423C280.587 898.935 280.747 899.53 280.747 900.207C280.747 900.89 280.584 901.492 280.259 902.015C279.939 902.538 279.483 902.943 278.891 903.231C278.304 903.514 277.619 903.655 276.835 903.655H274.123V907.999H272.163V896.799ZM276.795 901.983C277.179 901.983 277.515 901.911 277.803 901.767C278.091 901.623 278.312 901.42 278.467 901.159C278.627 900.892 278.707 900.58 278.707 900.223C278.707 899.871 278.627 899.564 278.467 899.303C278.312 899.036 278.091 898.834 277.803 898.695C277.515 898.551 277.179 898.479 276.795 898.479H274.123V901.983H276.795ZM286.085 908.191C285.269 908.191 284.53 908.007 283.869 907.639C283.213 907.271 282.698 906.762 282.325 906.111C281.951 905.455 281.765 904.719 281.765 903.903C281.765 903.087 281.951 902.354 282.325 901.703C282.698 901.047 283.215 900.535 283.877 900.167C284.538 899.799 285.277 899.615 286.093 899.615C286.909 899.615 287.645 899.799 288.301 900.167C288.957 900.535 289.471 901.044 289.845 901.695C290.218 902.346 290.405 903.082 290.405 903.903C290.405 904.724 290.218 905.46 289.845 906.111C289.471 906.762 288.957 907.271 288.301 907.639C287.645 908.007 286.906 908.191 286.085 908.191ZM286.101 906.479C286.543 906.479 286.941 906.372 287.293 906.159C287.645 905.94 287.922 905.636 288.125 905.247C288.327 904.858 288.429 904.41 288.429 903.903C288.429 903.396 288.327 902.948 288.125 902.559C287.922 902.164 287.642 901.86 287.285 901.647C286.933 901.428 286.535 901.319 286.093 901.319C285.65 901.319 285.247 901.428 284.885 901.647C284.527 901.86 284.247 902.164 284.045 902.559C283.842 902.948 283.741 903.396 283.741 903.903C283.741 904.41 283.842 904.858 284.045 905.247C284.247 905.636 284.527 905.94 284.885 906.159C285.247 906.372 285.653 906.479 286.101 906.479ZM295.886 908.191C295.07 908.191 294.331 908.007 293.67 907.639C293.014 907.271 292.499 906.762 292.126 906.111C291.752 905.455 291.566 904.719 291.566 903.903C291.566 903.087 291.752 902.354 292.126 901.703C292.499 901.047 293.016 900.535 293.678 900.167C294.339 899.799 295.078 899.615 295.894 899.615C296.71 899.615 297.446 899.799 298.102 900.167C298.758 900.535 299.272 901.044 299.646 901.695C300.019 902.346 300.206 903.082 300.206 903.903C300.206 904.724 300.019 905.46 299.646 906.111C299.272 906.762 298.758 907.271 298.102 907.639C297.446 908.007 296.707 908.191 295.886 908.191ZM295.902 906.479C296.344 906.479 296.742 906.372 297.094 906.159C297.446 905.94 297.723 905.636 297.926 905.247C298.128 904.858 298.23 904.41 298.23 903.903C298.23 903.396 298.128 902.948 297.926 902.559C297.723 902.164 297.443 901.86 297.086 901.647C296.734 901.428 296.336 901.319 295.894 901.319C295.451 901.319 295.048 901.428 294.686 901.647C294.328 901.86 294.048 902.164 293.846 902.559C293.643 902.948 293.542 903.396 293.542 903.903C293.542 904.41 293.643 904.858 293.846 905.247C294.048 905.636 294.328 905.94 294.686 906.159C295.048 906.372 295.454 906.479 295.902 906.479ZM301.959 899.807H303.807V903.215H303.327C303.332 902.479 303.45 901.842 303.679 901.303C303.914 900.759 304.247 900.343 304.679 900.055C305.116 899.762 305.631 899.615 306.223 899.615C306.804 899.615 307.306 899.748 307.727 900.015C308.148 900.276 308.471 900.65 308.695 901.135C308.924 901.62 309.039 902.186 309.039 902.831V907.999H307.183V903.055C307.183 902.692 307.122 902.378 306.999 902.111C306.876 901.844 306.695 901.639 306.455 901.495C306.22 901.351 305.94 901.279 305.615 901.279C305.263 901.279 304.954 901.359 304.687 901.519C304.42 901.679 304.215 901.908 304.071 902.207C303.932 902.5 303.863 902.847 303.863 903.247V907.999H301.959V899.807ZM312.367 903.055C312.367 902.692 312.303 902.378 312.175 902.111C312.052 901.844 311.874 901.639 311.639 901.495C311.41 901.351 311.13 901.279 310.799 901.279C310.447 901.279 310.138 901.362 309.871 901.527C309.61 901.687 309.404 901.914 309.255 902.207C309.111 902.5 309.039 902.847 309.039 903.247L308.255 903.215C308.255 902.5 308.383 901.871 308.639 901.327C308.895 900.783 309.258 900.362 309.727 900.063C310.196 899.764 310.743 899.615 311.367 899.615C311.948 899.615 312.458 899.748 312.895 900.015C313.338 900.276 313.676 900.65 313.911 901.135C314.151 901.62 314.271 902.186 314.271 902.831V907.999H312.367V903.055ZM321.6 900.127H318.968V898.495H320.448C320.778 898.495 321.066 898.426 321.312 898.287C321.562 898.148 321.752 897.951 321.88 897.695C322.013 897.439 322.08 897.14 322.08 896.799H322.088H323.56V907.999H321.6V900.127Z" fill="white"/>
<path d="M505.577 624.346H504V619.407H509.635V615.279H515.294V611.128H520.952V607H527.399V608.577H522.529V612.728H516.894V616.856H511.235V621.007H505.577V624.346Z" fill="white"/>
<path d="M433.577 391.346H432V386.407H437.635V382.279H443.294V378.128H448.952V374H455.399V375.577H450.529V379.728H444.894V383.856H439.235V388.007H433.577V391.346Z" fill="white"/>
<path d="M597.577 520.345H596V515.406H601.635V511.278H607.294V507.127H612.952V502.999H619.399V504.576H614.529V508.727H608.894V512.855H603.235V517.006H597.577V520.345Z" fill="white"/>
<path d="M597.577 342.346H596V337.407H601.635V333.279H607.294V329.128H612.952V325H619.399V326.577H614.529V330.728H608.894V334.856H603.235V339.007H597.577V342.346Z" fill="white"/>
<path d="M595.577 248.345H594V243.406H599.635V239.278H605.294V235.127H610.952V230.999H617.399V232.576H612.529V236.727H606.894V240.855H601.235V245.006H595.577V248.345Z" fill="white"/>
<path d="M1091.58 520.345H1090V515.406H1095.64V511.278H1101.29V507.127H1106.95V502.999H1113.4V504.576H1108.53V508.727H1102.89V512.855H1097.24V517.006H1091.58V520.345Z" fill="white"/>
<path d="M1091.58 342.346H1090V337.407H1095.64V333.279H1101.29V329.128H1106.95V325H1113.4V326.577H1108.53V330.728H1102.89V334.856H1097.24V339.007H1091.58V342.346Z" fill="white"/>
<path d="M1087.58 248.345H1086V243.406H1091.64V239.278H1097.29V235.127H1102.95V230.999H1109.4V232.576H1104.53V236.727H1098.89V240.855H1093.24V245.006H1087.58V248.345Z" fill="white"/>
<path d="M524.577 772.346H523V767.407H528.635V763.279H534.294V759.128H539.952V755H546.399V756.577H541.529V760.728H535.894V764.856H530.235V769.007H524.577V772.346Z" fill="white"/>
<path d="M774.577 624.346H773V619.407H778.635V615.279H784.294V611.128H789.952V607H796.399V608.577H791.529V612.728H785.894V616.856H780.235V621.007H774.577V624.346Z" fill="white"/>
<path d="M908.577 624.346H907V619.407H912.635V615.279H918.294V611.128H923.952V607H930.399V608.577H925.529V612.728H919.894V616.856H914.235V621.007H908.577V624.346Z" fill="white"/>
<path d="M950 499.499L1003.38 499.499C1004.49 499.499 1005.39 498.6 1005.38 497.493L1005 374.999L1005 342.499L1005 283.499L1005 250.5C1005 218.672 1005 169 1005 169L1005 139.5C1005 138.395 1004.1 137.5 1003 137.5L998 137.5C998 137.5 991.6 137.5 987.5 137.5L968 137.499C881.889 137.499 833.61 137.499 747.5 137.499L714.5 137.999C711.842 137.999 708.219 137.999 705.998 137.999C704.894 137.999 704 138.692 704 139.797C704 165 704 447.346 704 489.499L704 374.999C704 407.803 704 458.999 704 458.999L704 497.499C704 498.604 704.895 499.499 706 499.499L749.5 499.499M828 499.499L794 499.499M909.5 499.499L875.5 499.499" stroke="url(#paint4_linear_12435_15818)" stroke-width="3"/>
<path d="M478.135 343L502.147 343C503.06 343 503.858 342.38 504.084 341.495L508.301 325C508.301 325 510.637 315.857 512.135 310L516.5 291.5C517.919 286.228 520.135 278 520.135 278" stroke="url(#paint5_linear_12435_15818)" stroke-width="3"/>
<path d="M409.999 342.999L385.896 342.999C385.025 342.999 384.254 342.436 383.99 341.607L383 338.5L368.5 279.5L368.135 278" stroke="url(#paint6_linear_12435_15818)" stroke-width="3"/>
<path d="M420.375 623.25H421.939V622.357C421.939 621.932 422.051 621.527 422.252 621.221L423.713 618.994C424.08 618.434 424.281 617.727 424.281 617H422.719C422.719 617.426 422.607 617.828 422.404 618.137L420.943 620.363C420.576 620.924 420.375 621.631 420.375 622.357V623.25Z" fill="white"/>
<path fill-rule="evenodd" clip-rule="evenodd" d="M425.574 635.75H420.641C419.133 635.75 417.846 634.77 417.512 633.363L415.479 624.812H431.387C433.068 624.812 434.437 626.182 434.437 627.863C434.437 629.18 433.6 630.342 432.352 630.758L429.056 631.878L428.703 633.363C428.369 634.768 427.082 635.75 425.574 635.75ZM429.487 630.065L431.857 629.275C432.467 629.072 432.875 628.504 432.875 627.863C432.875 627.043 432.207 626.375 431.387 626.375H430.365L429.487 630.065ZM417.457 626.375L419.033 633.002C419.197 633.689 419.873 634.188 420.643 634.188H425.578C426.348 634.188 427.023 633.689 427.187 633.002L428.764 626.375H417.457Z" fill="white"/>
<path d="M414.125 637.312V638.875H432.875V637.312H414.125Z" fill="white"/>
<path d="M423.5 623.25C423.5 622.523 423.701 621.816 424.068 621.256L424.115 621.191L425.588 619.379C425.748 619.182 425.844 618.875 425.844 618.561H427.406C427.406 619.244 427.191 619.883 426.801 620.365L425.355 622.143C425.166 622.445 425.062 622.838 425.062 623.248V623.25H423.5Z" fill="white"/>
<g clip-path="url(#clip0_12435_15818)">
<path d="M851.857 664.769C851.857 665.237 851.474 665.615 851 665.615H850.143V658H848.429V665.615H847.571C847.098 665.615 846.714 665.237 846.714 664.769V658H845V664.769C845 666.17 846.153 667.308 847.571 667.308H848.429V680H850.143V667.308H851C852.419 667.308 853.571 666.17 853.571 664.769V658H851.857V664.769Z" fill="white"/>
<path d="M861.39 658C859.989 658 858.671 658.539 857.681 659.517C856.691 660.494 856.145 661.795 856.145 663.178V672.382H861.287V679.998H863.002V658H861.392H861.39ZM861.285 670.692H857.857V663.181C857.857 662.25 858.223 661.374 858.892 660.714C859.56 660.054 860.381 659.72 861.285 659.694V670.692Z" fill="white"/>
</g>
<path d="M338.64 389.064H340.76L343.728 394H341.504L338.64 389.064ZM335.08 382.8H339.816C340.584 382.8 341.259 382.941 341.84 383.224C342.422 383.507 342.87 383.907 343.184 384.424C343.504 384.936 343.664 385.531 343.664 386.208C343.664 386.891 343.502 387.493 343.176 388.016C342.856 388.539 342.4 388.944 341.808 389.232C341.222 389.515 340.536 389.656 339.752 389.656H337.04V394H335.08V382.8ZM339.712 387.984C340.096 387.984 340.432 387.912 340.72 387.768C341.008 387.624 341.23 387.421 341.384 387.16C341.544 386.893 341.624 386.581 341.624 386.224C341.624 385.872 341.544 385.565 341.384 385.304C341.23 385.037 341.008 384.835 340.72 384.696C340.432 384.552 340.096 384.48 339.712 384.48H337.04V387.984H339.712ZM348.732 394.192C347.916 394.192 347.177 394.008 346.516 393.64C345.86 393.272 345.345 392.763 344.972 392.112C344.598 391.456 344.412 390.72 344.412 389.904C344.412 389.088 344.598 388.355 344.972 387.704C345.345 387.048 345.862 386.536 346.524 386.168C347.185 385.8 347.924 385.616 348.74 385.616C349.556 385.616 350.292 385.8 350.948 386.168C351.604 386.536 352.118 387.045 352.492 387.696C352.865 388.347 353.052 389.083 353.052 389.904C353.052 390.725 352.865 391.461 352.492 392.112C352.118 392.763 351.604 393.272 350.948 393.64C350.292 394.008 349.553 394.192 348.732 394.192ZM348.748 392.48C349.19 392.48 349.588 392.373 349.94 392.16C350.292 391.941 350.569 391.637 350.772 391.248C350.974 390.859 351.076 390.411 351.076 389.904C351.076 389.397 350.974 388.949 350.772 388.56C350.569 388.165 350.289 387.861 349.932 387.648C349.58 387.429 349.182 387.32 348.74 387.32C348.297 387.32 347.894 387.429 347.532 387.648C347.174 387.861 346.894 388.165 346.692 388.56C346.489 388.949 346.388 389.397 346.388 389.904C346.388 390.411 346.489 390.859 346.692 391.248C346.894 391.637 347.174 391.941 347.532 392.16C347.894 392.373 348.3 392.48 348.748 392.48ZM358.263 394.192C357.447 394.192 356.708 394.008 356.047 393.64C355.391 393.272 354.876 392.763 354.503 392.112C354.13 391.456 353.943 390.72 353.943 389.904C353.943 389.088 354.13 388.355 354.503 387.704C354.876 387.048 355.394 386.536 356.055 386.168C356.716 385.8 357.455 385.616 358.271 385.616C359.087 385.616 359.823 385.8 360.479 386.168C361.135 386.536 361.65 387.045 362.023 387.696C362.396 388.347 362.583 389.083 362.583 389.904C362.583 390.725 362.396 391.461 362.023 392.112C361.65 392.763 361.135 393.272 360.479 393.64C359.823 394.008 359.084 394.192 358.263 394.192ZM358.279 392.48C358.722 392.48 359.119 392.373 359.471 392.16C359.823 391.941 360.1 391.637 360.303 391.248C360.506 390.859 360.607 390.411 360.607 389.904C360.607 389.397 360.506 388.949 360.303 388.56C360.1 388.165 359.82 387.861 359.463 387.648C359.111 387.429 358.714 387.32 358.271 387.32C357.828 387.32 357.426 387.429 357.063 387.648C356.706 387.861 356.426 388.165 356.223 388.56C356.02 388.949 355.919 389.397 355.919 389.904C355.919 390.411 356.02 390.859 356.223 391.248C356.426 391.637 356.706 391.941 357.063 392.16C357.426 392.373 357.831 392.48 358.279 392.48ZM364.066 385.808H365.914V389.216H365.434C365.44 388.48 365.557 387.843 365.786 387.304C366.021 386.76 366.354 386.344 366.786 386.056C367.224 385.763 367.738 385.616 368.33 385.616C368.912 385.616 369.413 385.749 369.834 386.016C370.256 386.277 370.578 386.651 370.802 387.136C371.032 387.621 371.146 388.187 371.146 388.832V394H369.29V389.056C369.29 388.693 369.229 388.379 369.106 388.112C368.984 387.845 368.802 387.64 368.562 387.496C368.328 387.352 368.048 387.28 367.722 387.28C367.37 387.28 367.061 387.36 366.794 387.52C366.528 387.68 366.322 387.909 366.178 388.208C366.04 388.501 365.97 388.848 365.97 389.248V394H364.066V385.808ZM374.474 389.056C374.474 388.693 374.41 388.379 374.282 388.112C374.16 387.845 373.981 387.64 373.746 387.496C373.517 387.352 373.237 387.28 372.906 387.28C372.554 387.28 372.245 387.363 371.978 387.528C371.717 387.688 371.512 387.915 371.362 388.208C371.218 388.501 371.146 388.848 371.146 389.248L370.362 389.216C370.362 388.501 370.49 387.872 370.746 387.328C371.002 386.784 371.365 386.363 371.834 386.064C372.304 385.765 372.85 385.616 373.474 385.616C374.056 385.616 374.565 385.749 375.002 386.016C375.445 386.277 375.784 386.651 376.018 387.136C376.258 387.621 376.378 388.187 376.378 388.832V394H374.474V389.056ZM346.979 402.128H344.347V400.496H345.827C346.158 400.496 346.446 400.427 346.691 400.288C346.942 400.149 347.131 399.952 347.259 399.696C347.393 399.44 347.459 399.141 347.459 398.8H347.467H348.939V410H346.979V402.128ZM353.511 402.128H350.879V400.496H352.359C352.689 400.496 352.977 400.427 353.223 400.288C353.473 400.149 353.663 399.952 353.791 399.696C353.924 399.44 353.991 399.141 353.991 398.8H353.999H355.471V410H353.511V402.128ZM358.082 398.8H359.978V410H358.082V398.8ZM362.77 410.192C362.093 410.192 361.495 410.043 360.978 409.744C360.466 409.445 360.066 409.024 359.778 408.48C359.495 407.936 359.351 407.307 359.346 406.592H359.914V405.216H359.346C359.351 404.501 359.495 403.872 359.778 403.328C360.066 402.784 360.466 402.363 360.978 402.064C361.495 401.765 362.093 401.616 362.77 401.616C363.506 401.616 364.162 401.797 364.738 402.16C365.314 402.517 365.762 403.021 366.082 403.672C366.407 404.323 366.57 405.067 366.57 405.904C366.57 406.741 366.407 407.485 366.082 408.136C365.762 408.787 365.314 409.293 364.738 409.656C364.162 410.013 363.506 410.192 362.77 410.192ZM362.29 408.488C362.743 408.488 363.143 408.379 363.49 408.16C363.842 407.941 364.114 407.637 364.306 407.248C364.503 406.859 364.602 406.411 364.602 405.904C364.602 405.397 364.503 404.949 364.306 404.56C364.114 404.171 363.842 403.867 363.49 403.648C363.143 403.429 362.743 403.32 362.29 403.32C361.837 403.32 361.431 403.429 361.074 403.648C360.722 403.867 360.447 404.171 360.25 404.56C360.058 404.949 359.962 405.397 359.962 405.904C359.962 406.411 360.058 406.859 360.25 407.248C360.447 407.637 360.722 407.941 361.074 408.16C361.431 408.379 361.837 408.488 362.29 408.488Z" fill="white"/>
<path d="M516.64 389.064H518.76L521.728 394H519.504L516.64 389.064ZM513.08 382.8H517.816C518.584 382.8 519.259 382.941 519.84 383.224C520.422 383.507 520.87 383.907 521.184 384.424C521.504 384.936 521.664 385.531 521.664 386.208C521.664 386.891 521.502 387.493 521.176 388.016C520.856 388.539 520.4 388.944 519.808 389.232C519.222 389.515 518.536 389.656 517.752 389.656H515.04V394H513.08V382.8ZM517.712 387.984C518.096 387.984 518.432 387.912 518.72 387.768C519.008 387.624 519.23 387.421 519.384 387.16C519.544 386.893 519.624 386.581 519.624 386.224C519.624 385.872 519.544 385.565 519.384 385.304C519.23 385.037 519.008 384.835 518.72 384.696C518.432 384.552 518.096 384.48 517.712 384.48H515.04V387.984H517.712ZM526.732 394.192C525.916 394.192 525.177 394.008 524.516 393.64C523.86 393.272 523.345 392.763 522.972 392.112C522.598 391.456 522.412 390.72 522.412 389.904C522.412 389.088 522.598 388.355 522.972 387.704C523.345 387.048 523.862 386.536 524.524 386.168C525.185 385.8 525.924 385.616 526.74 385.616C527.556 385.616 528.292 385.8 528.948 386.168C529.604 386.536 530.118 387.045 530.492 387.696C530.865 388.347 531.052 389.083 531.052 389.904C531.052 390.725 530.865 391.461 530.492 392.112C530.118 392.763 529.604 393.272 528.948 393.64C528.292 394.008 527.553 394.192 526.732 394.192ZM526.748 392.48C527.19 392.48 527.588 392.373 527.94 392.16C528.292 391.941 528.569 391.637 528.772 391.248C528.974 390.859 529.076 390.411 529.076 389.904C529.076 389.397 528.974 388.949 528.772 388.56C528.569 388.165 528.289 387.861 527.932 387.648C527.58 387.429 527.182 387.32 526.74 387.32C526.297 387.32 525.894 387.429 525.532 387.648C525.174 387.861 524.894 388.165 524.692 388.56C524.489 388.949 524.388 389.397 524.388 389.904C524.388 390.411 524.489 390.859 524.692 391.248C524.894 391.637 525.174 391.941 525.532 392.16C525.894 392.373 526.3 392.48 526.748 392.48ZM536.263 394.192C535.447 394.192 534.708 394.008 534.047 393.64C533.391 393.272 532.876 392.763 532.503 392.112C532.13 391.456 531.943 390.72 531.943 389.904C531.943 389.088 532.13 388.355 532.503 387.704C532.876 387.048 533.394 386.536 534.055 386.168C534.716 385.8 535.455 385.616 536.271 385.616C537.087 385.616 537.823 385.8 538.479 386.168C539.135 386.536 539.65 387.045 540.023 387.696C540.396 388.347 540.583 389.083 540.583 389.904C540.583 390.725 540.396 391.461 540.023 392.112C539.65 392.763 539.135 393.272 538.479 393.64C537.823 394.008 537.084 394.192 536.263 394.192ZM536.279 392.48C536.722 392.48 537.119 392.373 537.471 392.16C537.823 391.941 538.1 391.637 538.303 391.248C538.506 390.859 538.607 390.411 538.607 389.904C538.607 389.397 538.506 388.949 538.303 388.56C538.1 388.165 537.82 387.861 537.463 387.648C537.111 387.429 536.714 387.32 536.271 387.32C535.828 387.32 535.426 387.429 535.063 387.648C534.706 387.861 534.426 388.165 534.223 388.56C534.02 388.949 533.919 389.397 533.919 389.904C533.919 390.411 534.02 390.859 534.223 391.248C534.426 391.637 534.706 391.941 535.063 392.16C535.426 392.373 535.831 392.48 536.279 392.48ZM542.066 385.808H543.914V389.216H543.434C543.44 388.48 543.557 387.843 543.786 387.304C544.021 386.76 544.354 386.344 544.786 386.056C545.224 385.763 545.738 385.616 546.33 385.616C546.912 385.616 547.413 385.749 547.834 386.016C548.256 386.277 548.578 386.651 548.802 387.136C549.032 387.621 549.146 388.187 549.146 388.832V394H547.29V389.056C547.29 388.693 547.229 388.379 547.106 388.112C546.984 387.845 546.802 387.64 546.562 387.496C546.328 387.352 546.048 387.28 545.722 387.28C545.37 387.28 545.061 387.36 544.794 387.52C544.528 387.68 544.322 387.909 544.178 388.208C544.04 388.501 543.97 388.848 543.97 389.248V394H542.066V385.808ZM552.474 389.056C552.474 388.693 552.41 388.379 552.282 388.112C552.16 387.845 551.981 387.64 551.746 387.496C551.517 387.352 551.237 387.28 550.906 387.28C550.554 387.28 550.245 387.363 549.978 387.528C549.717 387.688 549.512 387.915 549.362 388.208C549.218 388.501 549.146 388.848 549.146 389.248L548.362 389.216C548.362 388.501 548.49 387.872 548.746 387.328C549.002 386.784 549.365 386.363 549.834 386.064C550.304 385.765 550.85 385.616 551.474 385.616C552.056 385.616 552.565 385.749 553.002 386.016C553.445 386.277 553.784 386.651 554.018 387.136C554.258 387.621 554.378 388.187 554.378 388.832V394H552.474V389.056ZM523.581 402.128H520.949V400.496H522.429C522.76 400.496 523.048 400.427 523.293 400.288C523.544 400.149 523.733 399.952 523.861 399.696C523.994 399.44 524.061 399.141 524.061 398.8H524.069H525.541V410H523.581V402.128ZM527.872 408.456L532.416 404.376C532.811 404.013 533.102 403.659 533.288 403.312C533.475 402.965 533.568 402.6 533.568 402.216C533.568 401.848 533.486 401.525 533.32 401.248C533.16 400.965 532.931 400.747 532.632 400.592C532.339 400.437 532.003 400.36 531.624 400.36C531.214 400.36 530.848 400.448 530.528 400.624C530.208 400.8 529.96 401.045 529.784 401.36C529.608 401.675 529.52 402.035 529.52 402.44H527.544C527.544 401.709 527.72 401.053 528.072 400.472C528.424 399.885 528.912 399.429 529.536 399.104C530.16 398.773 530.864 398.608 531.648 398.608C532.395 398.608 533.067 398.757 533.664 399.056C534.262 399.349 534.728 399.76 535.064 400.288C535.4 400.811 535.566 401.403 535.56 402.064C535.56 402.693 535.398 403.291 535.072 403.856C534.747 404.421 534.243 405.003 533.56 405.6L530.64 408.248H535.864V410H527.88L527.872 408.456ZM537.48 398.8H539.376V410H537.48V398.8ZM542.168 410.192C541.491 410.192 540.894 410.043 540.376 409.744C539.864 409.445 539.464 409.024 539.176 408.48C538.894 407.936 538.75 407.307 538.744 406.592H539.312V405.216H538.744C538.75 404.501 538.894 403.872 539.176 403.328C539.464 402.784 539.864 402.363 540.376 402.064C540.894 401.765 541.491 401.616 542.168 401.616C542.904 401.616 543.56 401.797 544.136 402.16C544.712 402.517 545.16 403.021 545.48 403.672C545.806 404.323 545.968 405.067 545.968 405.904C545.968 406.741 545.806 407.485 545.48 408.136C545.16 408.787 544.712 409.293 544.136 409.656C543.56 410.013 542.904 410.192 542.168 410.192ZM541.688 408.488C542.142 408.488 542.542 408.379 542.888 408.16C543.24 407.941 543.512 407.637 543.704 407.248C543.902 406.859 544 406.411 544 405.904C544 405.397 543.902 404.949 543.704 404.56C543.512 404.171 543.24 403.867 542.888 403.648C542.542 403.429 542.142 403.32 541.688 403.32C541.235 403.32 540.83 403.429 540.472 403.648C540.12 403.867 539.846 404.171 539.648 404.56C539.456 404.949 539.36 405.397 539.36 405.904C539.36 406.411 539.456 406.859 539.648 407.248C539.846 407.637 540.12 407.941 540.472 408.16C540.83 408.379 541.235 408.488 541.688 408.488Z" fill="white"/>
<path d="M338.64 432.064H340.76L343.728 437H341.504L338.64 432.064ZM335.08 425.8H339.816C340.584 425.8 341.259 425.941 341.84 426.224C342.422 426.507 342.87 426.907 343.184 427.424C343.504 427.936 343.664 428.531 343.664 429.208C343.664 429.891 343.502 430.493 343.176 431.016C342.856 431.539 342.4 431.944 341.808 432.232C341.222 432.515 340.536 432.656 339.752 432.656H337.04V437H335.08V425.8ZM339.712 430.984C340.096 430.984 340.432 430.912 340.72 430.768C341.008 430.624 341.23 430.421 341.384 430.16C341.544 429.893 341.624 429.581 341.624 429.224C341.624 428.872 341.544 428.565 341.384 428.304C341.23 428.037 341.008 427.835 340.72 427.696C340.432 427.552 340.096 427.48 339.712 427.48H337.04V430.984H339.712ZM348.732 437.192C347.916 437.192 347.177 437.008 346.516 436.64C345.86 436.272 345.345 435.763 344.972 435.112C344.598 434.456 344.412 433.72 344.412 432.904C344.412 432.088 344.598 431.355 344.972 430.704C345.345 430.048 345.862 429.536 346.524 429.168C347.185 428.8 347.924 428.616 348.74 428.616C349.556 428.616 350.292 428.8 350.948 429.168C351.604 429.536 352.118 430.045 352.492 430.696C352.865 431.347 353.052 432.083 353.052 432.904C353.052 433.725 352.865 434.461 352.492 435.112C352.118 435.763 351.604 436.272 350.948 436.64C350.292 437.008 349.553 437.192 348.732 437.192ZM348.748 435.48C349.19 435.48 349.588 435.373 349.94 435.16C350.292 434.941 350.569 434.637 350.772 434.248C350.974 433.859 351.076 433.411 351.076 432.904C351.076 432.397 350.974 431.949 350.772 431.56C350.569 431.165 350.289 430.861 349.932 430.648C349.58 430.429 349.182 430.32 348.74 430.32C348.297 430.32 347.894 430.429 347.532 430.648C347.174 430.861 346.894 431.165 346.692 431.56C346.489 431.949 346.388 432.397 346.388 432.904C346.388 433.411 346.489 433.859 346.692 434.248C346.894 434.637 347.174 434.941 347.532 435.16C347.894 435.373 348.3 435.48 348.748 435.48ZM358.263 437.192C357.447 437.192 356.708 437.008 356.047 436.64C355.391 436.272 354.876 435.763 354.503 435.112C354.13 434.456 353.943 433.72 353.943 432.904C353.943 432.088 354.13 431.355 354.503 430.704C354.876 430.048 355.394 429.536 356.055 429.168C356.716 428.8 357.455 428.616 358.271 428.616C359.087 428.616 359.823 428.8 360.479 429.168C361.135 429.536 361.65 430.045 362.023 430.696C362.396 431.347 362.583 432.083 362.583 432.904C362.583 433.725 362.396 434.461 362.023 435.112C361.65 435.763 361.135 436.272 360.479 436.64C359.823 437.008 359.084 437.192 358.263 437.192ZM358.279 435.48C358.722 435.48 359.119 435.373 359.471 435.16C359.823 434.941 360.1 434.637 360.303 434.248C360.506 433.859 360.607 433.411 360.607 432.904C360.607 432.397 360.506 431.949 360.303 431.56C360.1 431.165 359.82 430.861 359.463 430.648C359.111 430.429 358.714 430.32 358.271 430.32C357.828 430.32 357.426 430.429 357.063 430.648C356.706 430.861 356.426 431.165 356.223 431.56C356.02 431.949 355.919 432.397 355.919 432.904C355.919 433.411 356.02 433.859 356.223 434.248C356.426 434.637 356.706 434.941 357.063 435.16C357.426 435.373 357.831 435.48 358.279 435.48ZM364.066 428.808H365.914V432.216H365.434C365.44 431.48 365.557 430.843 365.786 430.304C366.021 429.76 366.354 429.344 366.786 429.056C367.224 428.763 367.738 428.616 368.33 428.616C368.912 428.616 369.413 428.749 369.834 429.016C370.256 429.277 370.578 429.651 370.802 430.136C371.032 430.621 371.146 431.187 371.146 431.832V437H369.29V432.056C369.29 431.693 369.229 431.379 369.106 431.112C368.984 430.845 368.802 430.64 368.562 430.496C368.328 430.352 368.048 430.28 367.722 430.28C367.37 430.28 367.061 430.36 366.794 430.52C366.528 430.68 366.322 430.909 366.178 431.208C366.04 431.501 365.97 431.848 365.97 432.248V437H364.066V428.808ZM374.474 432.056C374.474 431.693 374.41 431.379 374.282 431.112C374.16 430.845 373.981 430.64 373.746 430.496C373.517 430.352 373.237 430.28 372.906 430.28C372.554 430.28 372.245 430.363 371.978 430.528C371.717 430.688 371.512 430.915 371.362 431.208C371.218 431.501 371.146 431.848 371.146 432.248L370.362 432.216C370.362 431.501 370.49 430.872 370.746 430.328C371.002 429.784 371.365 429.363 371.834 429.064C372.304 428.765 372.85 428.616 373.474 428.616C374.056 428.616 374.565 428.749 375.002 429.016C375.445 429.277 375.784 429.651 376.018 430.136C376.258 430.621 376.378 431.187 376.378 431.832V437H374.474V432.056ZM347.69 445.128H345.058V443.496H346.538C346.869 443.496 347.157 443.427 347.402 443.288C347.653 443.149 347.842 442.952 347.97 442.696C348.104 442.44 348.17 442.141 348.17 441.8H348.178H349.65V453H347.69V445.128ZM354.222 445.128H351.59V443.496H353.07C353.4 443.496 353.688 443.427 353.934 443.288C354.184 443.149 354.374 442.952 354.502 442.696C354.635 442.44 354.702 442.141 354.702 441.8H354.71H356.182V453H354.222V445.128ZM362.065 444.616C362.737 444.616 363.326 444.736 363.833 444.976C364.345 445.211 364.742 445.552 365.025 446C365.307 446.443 365.449 446.968 365.449 447.576V453H363.609L363.601 449.936H364.041C364.041 450.608 363.918 451.189 363.673 451.68C363.433 452.165 363.083 452.539 362.625 452.8C362.171 453.061 361.633 453.192 361.009 453.192C360.481 453.192 360.006 453.093 359.585 452.896C359.169 452.693 358.843 452.413 358.609 452.056C358.374 451.693 358.257 451.283 358.257 450.824C358.257 450.387 358.369 449.984 358.593 449.616C358.822 449.248 359.137 448.947 359.537 448.712C359.942 448.472 360.401 448.325 360.913 448.272L363.049 448.048C363.219 448.032 363.35 447.971 363.441 447.864C363.537 447.757 363.585 447.603 363.585 447.4L363.673 449.2L361.369 449.464C361.134 449.485 360.929 449.547 360.753 449.648C360.577 449.749 360.438 449.883 360.337 450.048C360.241 450.208 360.193 450.395 360.193 450.608C360.193 450.832 360.251 451.032 360.369 451.208C360.491 451.384 360.662 451.52 360.881 451.616C361.099 451.712 361.347 451.76 361.625 451.76C362.014 451.76 362.355 451.685 362.649 451.536C362.942 451.381 363.171 451.165 363.337 450.888C363.502 450.611 363.585 450.293 363.585 449.936V447.416C363.585 447.155 363.518 446.925 363.385 446.728C363.251 446.531 363.067 446.379 362.833 446.272C362.598 446.16 362.326 446.104 362.017 446.104C361.713 446.104 361.438 446.157 361.193 446.264C360.947 446.365 360.75 446.504 360.601 446.68C360.451 446.856 360.363 447.051 360.337 447.264H358.457C358.51 446.752 358.699 446.296 359.025 445.896C359.35 445.496 359.777 445.184 360.305 444.96C360.833 444.731 361.419 444.616 362.065 444.616Z" fill="white"/>
<path d="M516.64 432.064H518.76L521.728 437H519.504L516.64 432.064ZM513.08 425.8H517.816C518.584 425.8 519.259 425.941 519.84 426.224C520.422 426.507 520.87 426.907 521.184 427.424C521.504 427.936 521.664 428.531 521.664 429.208C521.664 429.891 521.502 430.493 521.176 431.016C520.856 431.539 520.4 431.944 519.808 432.232C519.222 432.515 518.536 432.656 517.752 432.656H515.04V437H513.08V425.8ZM517.712 430.984C518.096 430.984 518.432 430.912 518.72 430.768C519.008 430.624 519.23 430.421 519.384 430.16C519.544 429.893 519.624 429.581 519.624 429.224C519.624 428.872 519.544 428.565 519.384 428.304C519.23 428.037 519.008 427.835 518.72 427.696C518.432 427.552 518.096 427.48 517.712 427.48H515.04V430.984H517.712ZM526.732 437.192C525.916 437.192 525.177 437.008 524.516 436.64C523.86 436.272 523.345 435.763 522.972 435.112C522.598 434.456 522.412 433.72 522.412 432.904C522.412 432.088 522.598 431.355 522.972 430.704C523.345 430.048 523.862 429.536 524.524 429.168C525.185 428.8 525.924 428.616 526.74 428.616C527.556 428.616 528.292 428.8 528.948 429.168C529.604 429.536 530.118 430.045 530.492 430.696C530.865 431.347 531.052 432.083 531.052 432.904C531.052 433.725 530.865 434.461 530.492 435.112C530.118 435.763 529.604 436.272 528.948 436.64C528.292 437.008 527.553 437.192 526.732 437.192ZM526.748 435.48C527.19 435.48 527.588 435.373 527.94 435.16C528.292 434.941 528.569 434.637 528.772 434.248C528.974 433.859 529.076 433.411 529.076 432.904C529.076 432.397 528.974 431.949 528.772 431.56C528.569 431.165 528.289 430.861 527.932 430.648C527.58 430.429 527.182 430.32 526.74 430.32C526.297 430.32 525.894 430.429 525.532 430.648C525.174 430.861 524.894 431.165 524.692 431.56C524.489 431.949 524.388 432.397 524.388 432.904C524.388 433.411 524.489 433.859 524.692 434.248C524.894 434.637 525.174 434.941 525.532 435.16C525.894 435.373 526.3 435.48 526.748 435.48ZM536.263 437.192C535.447 437.192 534.708 437.008 534.047 436.64C533.391 436.272 532.876 435.763 532.503 435.112C532.13 434.456 531.943 433.72 531.943 432.904C531.943 432.088 532.13 431.355 532.503 430.704C532.876 430.048 533.394 429.536 534.055 429.168C534.716 428.8 535.455 428.616 536.271 428.616C537.087 428.616 537.823 428.8 538.479 429.168C539.135 429.536 539.65 430.045 540.023 430.696C540.396 431.347 540.583 432.083 540.583 432.904C540.583 433.725 540.396 434.461 540.023 435.112C539.65 435.763 539.135 436.272 538.479 436.64C537.823 437.008 537.084 437.192 536.263 437.192ZM536.279 435.48C536.722 435.48 537.119 435.373 537.471 435.16C537.823 434.941 538.1 434.637 538.303 434.248C538.506 433.859 538.607 433.411 538.607 432.904C538.607 432.397 538.506 431.949 538.303 431.56C538.1 431.165 537.82 430.861 537.463 430.648C537.111 430.429 536.714 430.32 536.271 430.32C535.828 430.32 535.426 430.429 535.063 430.648C534.706 430.861 534.426 431.165 534.223 431.56C534.02 431.949 533.919 432.397 533.919 432.904C533.919 433.411 534.02 433.859 534.223 434.248C534.426 434.637 534.706 434.941 535.063 435.16C535.426 435.373 535.831 435.48 536.279 435.48ZM542.066 428.808H543.914V432.216H543.434C543.44 431.48 543.557 430.843 543.786 430.304C544.021 429.76 544.354 429.344 544.786 429.056C545.224 428.763 545.738 428.616 546.33 428.616C546.912 428.616 547.413 428.749 547.834 429.016C548.256 429.277 548.578 429.651 548.802 430.136C549.032 430.621 549.146 431.187 549.146 431.832V437H547.29V432.056C547.29 431.693 547.229 431.379 547.106 431.112C546.984 430.845 546.802 430.64 546.562 430.496C546.328 430.352 546.048 430.28 545.722 430.28C545.37 430.28 545.061 430.36 544.794 430.52C544.528 430.68 544.322 430.909 544.178 431.208C544.04 431.501 543.97 431.848 543.97 432.248V437H542.066V428.808ZM552.474 432.056C552.474 431.693 552.41 431.379 552.282 431.112C552.16 430.845 551.981 430.64 551.746 430.496C551.517 430.352 551.237 430.28 550.906 430.28C550.554 430.28 550.245 430.363 549.978 430.528C549.717 430.688 549.512 430.915 549.362 431.208C549.218 431.501 549.146 431.848 549.146 432.248L548.362 432.216C548.362 431.501 548.49 430.872 548.746 430.328C549.002 429.784 549.365 429.363 549.834 429.064C550.304 428.765 550.85 428.616 551.474 428.616C552.056 428.616 552.565 428.749 553.002 429.016C553.445 429.277 553.784 429.651 554.018 430.136C554.258 430.621 554.378 431.187 554.378 431.832V437H552.474V432.056ZM524.292 445.128H521.66V443.496H523.14C523.471 443.496 523.759 443.427 524.004 443.288C524.255 443.149 524.444 442.952 524.572 442.696C524.705 442.44 524.772 442.141 524.772 441.8H524.78H526.252V453H524.292V445.128ZM528.583 451.456L533.127 447.376C533.522 447.013 533.812 446.659 533.999 446.312C534.186 445.965 534.279 445.6 534.279 445.216C534.279 444.848 534.196 444.525 534.031 444.248C533.871 443.965 533.642 443.747 533.343 443.592C533.05 443.437 532.714 443.36 532.335 443.36C531.924 443.36 531.559 443.448 531.239 443.624C530.919 443.8 530.671 444.045 530.495 444.36C530.319 444.675 530.231 445.035 530.231 445.44H528.255C528.255 444.709 528.431 444.053 528.783 443.472C529.135 442.885 529.623 442.429 530.247 442.104C530.871 441.773 531.575 441.608 532.359 441.608C533.106 441.608 533.778 441.757 534.375 442.056C534.972 442.349 535.439 442.76 535.775 443.288C536.111 443.811 536.276 444.403 536.271 445.064C536.271 445.693 536.108 446.291 535.783 446.856C535.458 447.421 534.954 448.003 534.271 448.6L531.351 451.248H536.575V453H528.591L528.583 451.456ZM541.463 444.616C542.135 444.616 542.725 444.736 543.231 444.976C543.743 445.211 544.141 445.552 544.423 446C544.706 446.443 544.847 446.968 544.847 447.576V453H543.007L542.999 449.936H543.439C543.439 450.608 543.317 451.189 543.071 451.68C542.831 452.165 542.482 452.539 542.023 452.8C541.57 453.061 541.031 453.192 540.407 453.192C539.879 453.192 539.405 453.093 538.983 452.896C538.567 452.693 538.242 452.413 538.007 452.056C537.773 451.693 537.655 451.283 537.655 450.824C537.655 450.387 537.767 449.984 537.991 449.616C538.221 449.248 538.535 448.947 538.935 448.712C539.341 448.472 539.799 448.325 540.311 448.272L542.447 448.048C542.618 448.032 542.749 447.971 542.839 447.864C542.935 447.757 542.983 447.603 542.983 447.4L543.071 449.2L540.767 449.464C540.533 449.485 540.327 449.547 540.151 449.648C539.975 449.749 539.837 449.883 539.735 450.048C539.639 450.208 539.591 450.395 539.591 450.608C539.591 450.832 539.65 451.032 539.767 451.208C539.89 451.384 540.061 451.52 540.279 451.616C540.498 451.712 540.746 451.76 541.023 451.76C541.413 451.76 541.754 451.685 542.047 451.536C542.341 451.381 542.57 451.165 542.735 450.888C542.901 450.611 542.983 450.293 542.983 449.936V447.416C542.983 447.155 542.917 446.925 542.783 446.728C542.65 446.531 542.466 446.379 542.231 446.272C541.997 446.16 541.725 446.104 541.415 446.104C541.111 446.104 540.837 446.157 540.591 446.264C540.346 446.365 540.149 446.504 539.999 446.68C539.85 446.856 539.762 447.051 539.735 447.264H537.855C537.909 446.752 538.098 446.296 538.423 445.896C538.749 445.496 539.175 445.184 539.703 444.96C540.231 444.731 540.818 444.616 541.463 444.616Z" fill="white"/>
<path d="M384.974 375L322 375C320.895 375 320 375.895 320 377L320 377.496L320 431.046L320.125 459.009C320.13 460.11 321.027 461 322.129 461C345.604 461 360.316 461 383.903 461C384.812 461 385.614 460.387 385.844 459.507L387.676 452.513L392.5 436M387 388L395.226 415.357C395.611 416.641 394.65 417.933 393.31 417.933L320.134 417.933" stroke="url(#paint7_linear_12435_15818)" stroke-width="3"/>
<path d="M506.135 374.867L567.635 374.867C568.739 374.867 569.635 375.762 569.635 376.867L569.635 377.367L569.635 417.867M497 436.104L501.393 452.5L503.242 459.511C503.473 460.389 504.274 461 505.182 461C528.981 461 543.818 461 567.505 461C568.606 461 569.504 460.111 569.509 459.009L569.635 431L569.635 417.867M501.5 390L493.788 415.283C493.396 416.568 494.357 417.867 495.701 417.867L569.635 417.867" stroke="url(#paint8_linear_12435_15818)" stroke-width="3"/>
<defs>
<linearGradient id="paint0_linear_12435_15818" x1="191.5" y1="1065.5" x2="772.107" y2="-127.27" gradientUnits="userSpaceOnUse">
<stop offset="0.0277398" stop-color="#FF9419"/>
<stop offset="0.247777" stop-color="#FF021D"/>
<stop offset="0.99" stop-color="#E600FF"/>
</linearGradient>
<linearGradient id="paint1_linear_12435_15818" x1="453.999" y1="142.992" x2="454.006" y2="142.992" gradientUnits="userSpaceOnUse">
<stop offset="0.0567356" stop-color="#E600FF"/>
<stop offset="0.639223" stop-color="#F6026D"/>
</linearGradient>
<linearGradient id="paint2_linear_12435_15818" x1="31.6202" y1="1.90441e+09" x2="4041.34" y2="1.90441e+09" gradientUnits="userSpaceOnUse">
<stop stop-color="#FF9419"/>
<stop offset="0.705621" stop-color="#FF021D"/>
<stop offset="0.99" stop-color="#E600FF"/>
</linearGradient>
<linearGradient id="paint3_linear_12435_15818" x1="172.5" y1="1103" x2="-36.9767" y2="963.231" gradientUnits="userSpaceOnUse">
<stop stop-color="#FF9419"/>
<stop offset="0.2" stop-color="#FF021D"/>
<stop offset="0.99" stop-color="#E600FF"/>
</linearGradient>
<linearGradient id="paint4_linear_12435_15818" x1="483.5" y1="1204.5" x2="355.83" y2="1108.67" gradientUnits="userSpaceOnUse">
<stop stop-color="#FF9419"/>
<stop offset="0.2" stop-color="#FF021D"/>
<stop offset="0.99" stop-color="#E600FF"/>
</linearGradient>
<linearGradient id="paint5_linear_12435_15818" x1="161.999" y1="1109" x2="930.021" y2="420.629" gradientUnits="userSpaceOnUse">
<stop stop-color="#FF9419"/>
<stop offset="0.673749" stop-color="#FF021D"/>
<stop offset="0.883294" stop-color="#E600FF"/>
</linearGradient>
<linearGradient id="paint6_linear_12435_15818" x1="163" y1="1105.5" x2="132.525" y2="149.211" gradientUnits="userSpaceOnUse">
<stop stop-color="#FF9419"/>
<stop offset="0.713742" stop-color="#FF021D"/>
<stop offset="1" stop-color="#E600FF"/>
</linearGradient>
<linearGradient id="paint7_linear_12435_15818" x1="322.5" y1="467.5" x2="351.028" y2="44.5029" gradientUnits="userSpaceOnUse">
<stop stop-color="#FF9419"/>
<stop offset="0.227503" stop-color="#FF021D"/>
<stop offset="1" stop-color="#E600FF"/>
</linearGradient>
<linearGradient id="paint8_linear_12435_15818" x1="168" y1="1105" x2="679.726" y2="1212.78" gradientUnits="userSpaceOnUse">
<stop stop-color="#FF9419"/>
<stop offset="0.200736" stop-color="#FF021D"/>
<stop offset="0.99" stop-color="#E600FF"/>
</linearGradient>
<clipPath id="clip0_12435_15818">
<rect width="18" height="22" fill="white" transform="translate(845 658)"/>
</clipPath>
</defs>
</svg>
