<svg width="1200" height="1200" viewBox="0 0 1200 1200" fill="none" xmlns="http://www.w3.org/2000/svg">
<rect width="1200" height="1200" fill="white"/>
<path d="M600 848L498 909M493.5 665V597H807V634H712.5V719.5L776 740V824.5" stroke="#D1D1D2"/>
<path d="M926.5 765.5V740.5L990.5 719V634.5H896.5L896.768 597H1064.27" stroke="#D1D1D2"/>
<path d="M599.607 848.158C599.607 848.158 589.367 823.696 552.184 752.188C511.43 687.733 493.639 664.798 493.639 664.798" stroke="#D1D1D2"/>
<path d="M647.607 244.5L647.607 531C647.607 532.105 648.503 533 649.607 533L665.607 533L747.107 533C748.212 533 749.107 532.105 749.107 531L749.107 499.5M907.107 533L877.107 533C876.003 533 875.107 532.105 875.107 531L875.107 501.5C875.107 500.395 876.003 499.5 877.107 499.5L907.107 499.5C908.212 499.5 909.107 500.395 909.107 501.5L909.107 531C909.107 532.105 908.212 533 907.107 533ZM795.607 499.5L825.607 499.5C826.712 499.5 827.607 500.395 827.607 501.5L827.607 531C827.607 532.105 826.712 533 825.607 533L795.607 533C794.503 533 793.607 532.105 793.607 531L793.607 501.5C793.607 500.395 794.503 499.5 795.607 499.5Z" stroke="#D1D1D2"/>
<path d="M951.107 499.5L951.107 531C951.107 532.104 952.015 533 953.12 533C991.818 533 1014.4 533 1053.09 533C1054.2 533 1055.11 532.104 1055.11 531L1055.11 242.5M647.607 250.5L647.607 137M955.607 137.5L747.107 137.5" stroke="#D1D1D2"/>
<rect x="431.609" y="509.501" width="26" height="23" rx="1.5" stroke="#D1D1D2"/>
<rect x="842.498" y="707.501" width="26" height="23" rx="1.5" stroke="#D1D1D2"/>
<path d="M1005 250L1005.6 137.5M1055.1 250.5L1055.1 250L1055.1 137" stroke="#D1D1D2"/>
<path d="M566.965 533L585 533M649.965 533L626.5 533" stroke="#D1D1D2"/>
<path d="M319.136 190.5L338.106 190.5C339.009 190.5 339.8 189.895 340.036 189.023L354.136 137" stroke="#D1D1D2"/>
<path d="M1148.5 137L1055 137M569 137L647.5 137M704.5 137L1004.5 137" stroke="#D1D1D2"/>
<path d="M568.966 190.5L551.131 190.5C550.228 190.5 549.437 189.895 549.201 189.023L535.101 137M497 436.237L503.635 461L522.735 531.523C522.971 532.395 523.762 533 524.665 533L567.475 533C568.579 533 569.475 532.105 569.475 531L569.481 454.5M569.101 284.5L569.101 344M569.101 137C569.101 182.887 569.101 254.5 569.101 254.5" stroke="#D1D1D2"/>
<path d="M241.27 1028.12L254.296 1050.68" stroke="#D1D1D2"/>
<path d="M151.52 872.672L136.77 847.125" stroke="#D1D1D2"/>
<path d="M410.554 932.518L378 951.499M464.177 794.121L476.664 815.749C477.175 816.634 478.271 816.992 479.206 816.578L505.133 805.101C506.068 804.688 507.164 805.045 507.675 805.93L521.913 830.591C522.43 831.487 522.179 832.629 521.334 833.225L492.838 853.338L464.801 873.127C463.784 873.845 462.375 873.492 461.841 872.368C457.883 864.016 443.059 833.052 431.469 812.977C419.878 792.903 400.475 764.583 395.222 756.979C394.514 755.954 394.913 754.558 396.043 754.036L427.2 739.65L458.866 725.028C459.805 724.594 460.92 724.948 461.437 725.844L475.675 750.504C476.186 751.39 475.947 752.517 475.122 753.12L452.219 769.836C451.394 770.438 451.155 771.566 451.666 772.451L464.153 794.079M317.486 771.32L284 790.5" stroke="#D1D1D2"/>
<path d="M776 740L776 818.999" stroke="#D1D1D2"/>
<path d="M926.5 740.5L926.5 772.498" stroke="#D1D1D2"/>
<path d="M315.5 532.866L364.471 532.866C365.374 532.866 366.165 532.26 366.401 531.388L385.501 460.866L392.136 436.103M717.635 834L773.351 814.908C774.65 814.463 776 815.427 776 816.8L776 838C776 839.105 776.895 840 778 840L924.635 840C925.74 840 926.635 839.105 926.635 838L926.635 764.94C926.635 764.08 927.185 763.316 928.001 763.043L1053.77 720.957C1054.59 720.684 1055.14 719.92 1055.14 719.06L1055.14 599C1055.14 597.895 1056.02 597 1057.13 597C1092.63 597 1136.89 597 1146.67 597C1147.77 597 1148.64 596.105 1148.64 595L1148.64 53C1148.64 51.8954 1147.74 51 1146.64 51L321.635 51C320.531 51 319.635 51.8954 319.635 53L319.635 530.999C319.635 532.104 318.739 533 317.635 532.999L201.693 532.959C200.149 532.958 199.187 534.634 199.966 535.968L318.255 738.492C318.812 739.446 318.49 740.671 317.536 741.228L45.5047 900.114C44.5509 900.671 44.2293 901.896 44.7864 902.85L161.682 1102.99C162.239 1103.94 163.464 1104.26 164.418 1103.71L498.472 908.595C498.581 908.532 498.695 908.479 498.813 908.437L579.135 880L717.635 834Z" stroke="#D1D1D2"/>
<path d="M1053 532.903L1073.86 532.903M1149 532.903L1121.86 532.903" stroke="#D1D1D2"/>
<path d="M406 689L316 742" stroke="#D1D1D2"/>
<path d="M406 689V629V612V595H234.5" stroke="#D1D1D2"/>
<path d="M149 868.5L136.5 847L406 689V595H234.5L198 533H365.5L392 437.5M242 1028.5L255 1051.5L600 848C588.167 822.833 562.1 768.7 552.5 753.5C540.5 734.5 508 682.5 493.5 664.5V597H807V634.5H713V719.5L776 740.5V840H926.5V741L990 719.5V634.5H897V597.5H1148.5V137H1055V533H951.5V498M320 382.5V190.5H339.5L354.5 137H535L542.5 163.75L550 190.5H569V137H648V533.5L748 533.634V498.134" stroke="#A3A3A4" stroke-width="3" stroke-linejoin="round"/>
<path d="M473 894.999L327.513 980.462L274.388 1011.23C264.066 1017.19 248.989 1025.89 243.941 1028.81C242.987 1029.36 241.775 1029.03 241.221 1028.07L228.83 1006.75C228.314 1005.87 227.212 1005.51 226.277 1005.94L157.812 1036.86C156.875 1037.28 155.77 1036.93 155.256 1036.04L127.928 988.705L127.514 987.989L100.186 940.654C99.672 939.764 99.9164 938.63 100.751 938.03L161.767 894.2C162.599 893.602 162.845 892.47 162.335 891.581L150.066 870.189C149.518 869.233 149.847 868.013 150.801 867.462L181.239 849.889L234.445 819.264C234.445 819.264 356.427 747.184 374.998 736.341L379.863 733.841M394.5 754.5C402.851 766.698 415.322 785.349 431.319 810.65C446.896 840.606 457.093 861.168 463.5 874.486" stroke="url(#paint0_linear_9601_1218)" stroke-width="3"/>
<path d="M444.002 137.499L444.002 340.999C444.002 342.104 444.897 342.999 446.002 342.999L451.5 342.999" stroke="url(#paint1_linear_9601_1218)" stroke-width="3" stroke-miterlimit="3.99393"/>
<path d="M426.135 343L462.135 343" stroke="url(#paint2_linear_9601_1218)" stroke-width="3"/>
<path d="M527.5 249.499L536.5 217.999C536.5 217.999 525.834 180.821 519 156.999L513.5 137C455.702 137 376.5 136.865 376.5 136.865L370.601 156.999C363.766 180.821 353.101 217.999 353.101 217.999L362.101 249.499" stroke="url(#paint3_linear_9601_1218)" stroke-width="3"/>
<path d="M338.64 411.064H340.76L343.728 416H341.504L338.64 411.064ZM335.08 404.8H339.816C340.584 404.8 341.259 404.941 341.84 405.224C342.422 405.507 342.87 405.907 343.184 406.424C343.504 406.936 343.664 407.531 343.664 408.208C343.664 408.891 343.502 409.493 343.176 410.016C342.856 410.539 342.4 410.944 341.808 411.232C341.222 411.515 340.536 411.656 339.752 411.656H337.04V416H335.08V404.8ZM339.712 409.984C340.096 409.984 340.432 409.912 340.72 409.768C341.008 409.624 341.23 409.421 341.384 409.16C341.544 408.893 341.624 408.581 341.624 408.224C341.624 407.872 341.544 407.565 341.384 407.304C341.23 407.037 341.008 406.835 340.72 406.696C340.432 406.552 340.096 406.48 339.712 406.48H337.04V409.984H339.712ZM348.732 416.192C347.916 416.192 347.177 416.008 346.516 415.64C345.86 415.272 345.345 414.763 344.972 414.112C344.598 413.456 344.412 412.72 344.412 411.904C344.412 411.088 344.598 410.355 344.972 409.704C345.345 409.048 345.862 408.536 346.524 408.168C347.185 407.8 347.924 407.616 348.74 407.616C349.556 407.616 350.292 407.8 350.948 408.168C351.604 408.536 352.118 409.045 352.492 409.696C352.865 410.347 353.052 411.083 353.052 411.904C353.052 412.725 352.865 413.461 352.492 414.112C352.118 414.763 351.604 415.272 350.948 415.64C350.292 416.008 349.553 416.192 348.732 416.192ZM348.748 414.48C349.19 414.48 349.588 414.373 349.94 414.16C350.292 413.941 350.569 413.637 350.772 413.248C350.974 412.859 351.076 412.411 351.076 411.904C351.076 411.397 350.974 410.949 350.772 410.56C350.569 410.165 350.289 409.861 349.932 409.648C349.58 409.429 349.182 409.32 348.74 409.32C348.297 409.32 347.894 409.429 347.532 409.648C347.174 409.861 346.894 410.165 346.692 410.56C346.489 410.949 346.388 411.397 346.388 411.904C346.388 412.411 346.489 412.859 346.692 413.248C346.894 413.637 347.174 413.941 347.532 414.16C347.894 414.373 348.3 414.48 348.748 414.48ZM358.263 416.192C357.447 416.192 356.708 416.008 356.047 415.64C355.391 415.272 354.876 414.763 354.503 414.112C354.13 413.456 353.943 412.72 353.943 411.904C353.943 411.088 354.13 410.355 354.503 409.704C354.876 409.048 355.394 408.536 356.055 408.168C356.716 407.8 357.455 407.616 358.271 407.616C359.087 407.616 359.823 407.8 360.479 408.168C361.135 408.536 361.65 409.045 362.023 409.696C362.396 410.347 362.583 411.083 362.583 411.904C362.583 412.725 362.396 413.461 362.023 414.112C361.65 414.763 361.135 415.272 360.479 415.64C359.823 416.008 359.084 416.192 358.263 416.192ZM358.279 414.48C358.722 414.48 359.119 414.373 359.471 414.16C359.823 413.941 360.1 413.637 360.303 413.248C360.506 412.859 360.607 412.411 360.607 411.904C360.607 411.397 360.506 410.949 360.303 410.56C360.1 410.165 359.82 409.861 359.463 409.648C359.111 409.429 358.714 409.32 358.271 409.32C357.828 409.32 357.426 409.429 357.063 409.648C356.706 409.861 356.426 410.165 356.223 410.56C356.02 410.949 355.919 411.397 355.919 411.904C355.919 412.411 356.02 412.859 356.223 413.248C356.426 413.637 356.706 413.941 357.063 414.16C357.426 414.373 357.831 414.48 358.279 414.48ZM364.066 407.808H365.914V411.216H365.434C365.44 410.48 365.557 409.843 365.786 409.304C366.021 408.76 366.354 408.344 366.786 408.056C367.224 407.763 367.738 407.616 368.33 407.616C368.912 407.616 369.413 407.749 369.834 408.016C370.256 408.277 370.578 408.651 370.802 409.136C371.032 409.621 371.146 410.187 371.146 410.832V416H369.29V411.056C369.29 410.693 369.229 410.379 369.106 410.112C368.984 409.845 368.802 409.64 368.562 409.496C368.328 409.352 368.048 409.28 367.722 409.28C367.37 409.28 367.061 409.36 366.794 409.52C366.528 409.68 366.322 409.909 366.178 410.208C366.04 410.501 365.97 410.848 365.97 411.248V416H364.066V407.808ZM374.474 411.056C374.474 410.693 374.41 410.379 374.282 410.112C374.16 409.845 373.981 409.64 373.746 409.496C373.517 409.352 373.237 409.28 372.906 409.28C372.554 409.28 372.245 409.363 371.978 409.528C371.717 409.688 371.512 409.915 371.362 410.208C371.218 410.501 371.146 410.848 371.146 411.248L370.362 411.216C370.362 410.501 370.49 409.872 370.746 409.328C371.002 408.784 371.365 408.363 371.834 408.064C372.304 407.765 372.85 407.616 373.474 407.616C374.056 407.616 374.565 407.749 375.002 408.016C375.445 408.277 375.784 408.651 376.018 409.136C376.258 409.621 376.378 410.187 376.378 410.832V416H374.474V411.056ZM351.964 424.128H349.332V422.496H350.812C351.142 422.496 351.43 422.427 351.676 422.288C351.926 422.149 352.116 421.952 352.244 421.696C352.377 421.44 352.444 421.141 352.444 420.8H352.452H353.924V432H351.964V424.128ZM358.495 424.128H355.863V422.496H357.343C357.674 422.496 357.962 422.427 358.207 422.288C358.458 422.149 358.647 421.952 358.775 421.696C358.908 421.44 358.975 421.141 358.975 420.8H358.983H360.455V432H358.495V424.128Z" fill="#19191C"/>
<path d="M516.64 411.064H518.76L521.728 416H519.504L516.64 411.064ZM513.08 404.8H517.816C518.584 404.8 519.259 404.941 519.84 405.224C520.422 405.507 520.87 405.907 521.184 406.424C521.504 406.936 521.664 407.531 521.664 408.208C521.664 408.891 521.502 409.493 521.176 410.016C520.856 410.539 520.4 410.944 519.808 411.232C519.222 411.515 518.536 411.656 517.752 411.656H515.04V416H513.08V404.8ZM517.712 409.984C518.096 409.984 518.432 409.912 518.72 409.768C519.008 409.624 519.23 409.421 519.384 409.16C519.544 408.893 519.624 408.581 519.624 408.224C519.624 407.872 519.544 407.565 519.384 407.304C519.23 407.037 519.008 406.835 518.72 406.696C518.432 406.552 518.096 406.48 517.712 406.48H515.04V409.984H517.712ZM526.732 416.192C525.916 416.192 525.177 416.008 524.516 415.64C523.86 415.272 523.345 414.763 522.972 414.112C522.598 413.456 522.412 412.72 522.412 411.904C522.412 411.088 522.598 410.355 522.972 409.704C523.345 409.048 523.862 408.536 524.524 408.168C525.185 407.8 525.924 407.616 526.74 407.616C527.556 407.616 528.292 407.8 528.948 408.168C529.604 408.536 530.118 409.045 530.492 409.696C530.865 410.347 531.052 411.083 531.052 411.904C531.052 412.725 530.865 413.461 530.492 414.112C530.118 414.763 529.604 415.272 528.948 415.64C528.292 416.008 527.553 416.192 526.732 416.192ZM526.748 414.48C527.19 414.48 527.588 414.373 527.94 414.16C528.292 413.941 528.569 413.637 528.772 413.248C528.974 412.859 529.076 412.411 529.076 411.904C529.076 411.397 528.974 410.949 528.772 410.56C528.569 410.165 528.289 409.861 527.932 409.648C527.58 409.429 527.182 409.32 526.74 409.32C526.297 409.32 525.894 409.429 525.532 409.648C525.174 409.861 524.894 410.165 524.692 410.56C524.489 410.949 524.388 411.397 524.388 411.904C524.388 412.411 524.489 412.859 524.692 413.248C524.894 413.637 525.174 413.941 525.532 414.16C525.894 414.373 526.3 414.48 526.748 414.48ZM536.263 416.192C535.447 416.192 534.708 416.008 534.047 415.64C533.391 415.272 532.876 414.763 532.503 414.112C532.13 413.456 531.943 412.72 531.943 411.904C531.943 411.088 532.13 410.355 532.503 409.704C532.876 409.048 533.394 408.536 534.055 408.168C534.716 407.8 535.455 407.616 536.271 407.616C537.087 407.616 537.823 407.8 538.479 408.168C539.135 408.536 539.65 409.045 540.023 409.696C540.396 410.347 540.583 411.083 540.583 411.904C540.583 412.725 540.396 413.461 540.023 414.112C539.65 414.763 539.135 415.272 538.479 415.64C537.823 416.008 537.084 416.192 536.263 416.192ZM536.279 414.48C536.722 414.48 537.119 414.373 537.471 414.16C537.823 413.941 538.1 413.637 538.303 413.248C538.506 412.859 538.607 412.411 538.607 411.904C538.607 411.397 538.506 410.949 538.303 410.56C538.1 410.165 537.82 409.861 537.463 409.648C537.111 409.429 536.714 409.32 536.271 409.32C535.828 409.32 535.426 409.429 535.063 409.648C534.706 409.861 534.426 410.165 534.223 410.56C534.02 410.949 533.919 411.397 533.919 411.904C533.919 412.411 534.02 412.859 534.223 413.248C534.426 413.637 534.706 413.941 535.063 414.16C535.426 414.373 535.831 414.48 536.279 414.48ZM542.066 407.808H543.914V411.216H543.434C543.44 410.48 543.557 409.843 543.786 409.304C544.021 408.76 544.354 408.344 544.786 408.056C545.224 407.763 545.738 407.616 546.33 407.616C546.912 407.616 547.413 407.749 547.834 408.016C548.256 408.277 548.578 408.651 548.802 409.136C549.032 409.621 549.146 410.187 549.146 410.832V416H547.29V411.056C547.29 410.693 547.229 410.379 547.106 410.112C546.984 409.845 546.802 409.64 546.562 409.496C546.328 409.352 546.048 409.28 545.722 409.28C545.37 409.28 545.061 409.36 544.794 409.52C544.528 409.68 544.322 409.909 544.178 410.208C544.04 410.501 543.97 410.848 543.97 411.248V416H542.066V407.808ZM552.474 411.056C552.474 410.693 552.41 410.379 552.282 410.112C552.16 409.845 551.981 409.64 551.746 409.496C551.517 409.352 551.237 409.28 550.906 409.28C550.554 409.28 550.245 409.363 549.978 409.528C549.717 409.688 549.512 409.915 549.362 410.208C549.218 410.501 549.146 410.848 549.146 411.248L548.362 411.216C548.362 410.501 548.49 409.872 548.746 409.328C549.002 408.784 549.365 408.363 549.834 408.064C550.304 407.765 550.85 407.616 551.474 407.616C552.056 407.616 552.565 407.749 553.002 408.016C553.445 408.277 553.784 408.651 554.018 409.136C554.258 409.621 554.378 410.187 554.378 410.832V416H552.474V411.056ZM528.565 424.128H525.933V422.496H527.413C527.744 422.496 528.032 422.427 528.277 422.288C528.528 422.149 528.717 421.952 528.845 421.696C528.979 421.44 529.045 421.141 529.045 420.8H529.053H530.525V432H528.565V424.128ZM532.857 430.456L537.401 426.376C537.795 426.013 538.086 425.659 538.273 425.312C538.459 424.965 538.553 424.6 538.553 424.216C538.553 423.848 538.47 423.525 538.305 423.248C538.145 422.965 537.915 422.747 537.617 422.592C537.323 422.437 536.987 422.36 536.609 422.36C536.198 422.36 535.833 422.448 535.513 422.624C535.193 422.8 534.945 423.045 534.769 423.36C534.593 423.675 534.505 424.035 534.505 424.44H532.529C532.529 423.709 532.705 423.053 533.057 422.472C533.409 421.885 533.897 421.429 534.521 421.104C535.145 420.773 535.849 420.608 536.633 420.608C537.379 420.608 538.051 420.757 538.649 421.056C539.246 421.349 539.713 421.76 540.049 422.288C540.385 422.811 540.55 423.403 540.545 424.064C540.545 424.693 540.382 425.291 540.057 425.856C539.731 426.421 539.227 427.003 538.545 427.6L535.625 430.248H540.849V432H532.865L532.857 430.456Z" fill="#19191C"/>
<g clip-path="url(#clip0_9601_1218)">
<path d="M479.375 777.249H480.939V776.356C480.939 775.93 481.051 775.526 481.252 775.219L482.713 772.993C483.08 772.432 483.281 771.725 483.281 770.999H481.719C481.719 771.424 481.607 771.827 481.404 772.135L479.943 774.362C479.576 774.922 479.375 775.629 479.375 776.356V777.249Z" fill="#19191C"/>
<path fill-rule="evenodd" clip-rule="evenodd" d="M484.574 789.749H479.641C478.133 789.749 476.846 788.768 476.512 787.362L474.479 778.811H490.387C492.068 778.811 493.437 780.18 493.437 781.862C493.437 783.178 492.6 784.34 491.352 784.756L488.056 785.877L487.703 787.362C487.369 788.766 486.082 789.749 484.574 789.749ZM488.487 784.064L490.857 783.274C491.467 783.071 491.875 782.502 491.875 781.862C491.875 781.042 491.207 780.374 490.387 780.374H489.365L488.487 784.064ZM476.457 780.374L478.033 787C478.197 787.688 478.873 788.186 479.643 788.186H484.578C485.348 788.186 486.023 787.688 486.187 787L487.764 780.374H476.457Z" fill="#19191C"/>
<path d="M473.125 791.311V792.874H491.875V791.311H473.125Z" fill="#19191C"/>
<path d="M482.5 777.249C482.5 776.522 482.701 775.815 483.068 775.254L483.115 775.19L484.588 773.377C484.748 773.18 484.844 772.874 484.844 772.559H486.406C486.406 773.243 486.191 773.881 485.801 774.364L484.355 776.141C484.166 776.444 484.062 776.836 484.062 777.247V777.249H482.5Z" fill="#19191C"/>
</g>
<path d="M821.309 304.799H823.237V309.879L827.877 304.799H830.253L825.325 310.199L830.349 315.999H827.901L823.237 310.647V315.999H821.309V304.799ZM834.556 316.191C833.756 316.191 833.036 316.007 832.396 315.639C831.761 315.271 831.265 314.762 830.908 314.111C830.55 313.455 830.372 312.716 830.372 311.895C830.372 311.084 830.553 310.354 830.916 309.703C831.278 309.047 831.777 308.535 832.412 308.167C833.046 307.799 833.761 307.615 834.556 307.615C835.361 307.615 836.07 307.799 836.684 308.167C837.297 308.53 837.769 309.036 838.1 309.687C838.43 310.338 838.596 311.074 838.596 311.895V312.415H832.3L832.316 311.991C832.316 312.492 832.414 312.94 832.612 313.335C832.814 313.724 833.089 314.028 833.436 314.247C833.788 314.46 834.185 314.567 834.628 314.567C834.937 314.567 835.217 314.538 835.468 314.479C835.718 314.415 835.934 314.322 836.116 314.199C836.302 314.076 836.454 313.93 836.572 313.759H838.452C838.361 314.159 838.148 314.546 837.812 314.919C837.481 315.287 837.033 315.591 836.468 315.831C835.908 316.071 835.27 316.191 834.556 316.191ZM832.3 311.095H836.692V311.719C836.692 311.223 836.609 310.786 836.444 310.407C836.284 310.023 836.044 309.724 835.724 309.511C835.404 309.298 835.017 309.191 834.564 309.191C834.121 309.191 833.729 309.295 833.388 309.503C833.052 309.706 832.788 309.996 832.596 310.375C832.409 310.748 832.316 311.183 832.316 311.679L832.3 311.095ZM839.797 316.999H840.941C841.154 316.999 841.341 316.943 841.501 316.831C841.661 316.719 841.784 316.564 841.869 316.367L842.261 315.519L839.109 307.807H841.085L843.205 313.311L845.149 307.807H847.077L843.677 316.551C843.517 316.956 843.322 317.306 843.093 317.599C842.869 317.898 842.589 318.132 842.253 318.303C841.917 318.474 841.522 318.559 841.069 318.559H839.797V316.999ZM848.293 307.807H850.141V311.215H849.597C849.597 310.484 849.722 309.85 849.973 309.311C850.223 308.767 850.581 308.348 851.045 308.055C851.514 307.762 852.063 307.615 852.693 307.615C853.279 307.615 853.797 307.743 854.245 307.999C854.693 308.255 855.042 308.628 855.293 309.119C855.549 309.604 855.677 310.18 855.677 310.847V315.999H853.773V311.135C853.773 310.751 853.703 310.42 853.565 310.143C853.431 309.866 853.237 309.655 852.981 309.511C852.725 309.362 852.423 309.287 852.077 309.287C851.703 309.287 851.373 309.37 851.085 309.535C850.802 309.7 850.581 309.932 850.421 310.231C850.266 310.53 850.189 310.871 850.189 311.255V315.999H848.293V307.807ZM861.541 316.191C860.725 316.191 859.986 316.007 859.325 315.639C858.669 315.271 858.154 314.762 857.781 314.111C857.407 313.455 857.221 312.719 857.221 311.903C857.221 311.087 857.407 310.354 857.781 309.703C858.154 309.047 858.671 308.535 859.333 308.167C859.994 307.799 860.733 307.615 861.549 307.615C862.365 307.615 863.101 307.799 863.757 308.167C864.413 308.535 864.927 309.044 865.301 309.695C865.674 310.346 865.861 311.082 865.861 311.903C865.861 312.724 865.674 313.46 865.301 314.111C864.927 314.762 864.413 315.271 863.757 315.639C863.101 316.007 862.362 316.191 861.541 316.191ZM861.557 314.479C861.999 314.479 862.397 314.372 862.749 314.159C863.101 313.94 863.378 313.636 863.581 313.247C863.783 312.858 863.885 312.41 863.885 311.903C863.885 311.396 863.783 310.948 863.581 310.559C863.378 310.164 863.098 309.86 862.741 309.647C862.389 309.428 861.991 309.319 861.549 309.319C861.106 309.319 860.703 309.428 860.341 309.647C859.983 309.86 859.703 310.164 859.501 310.559C859.298 310.948 859.197 311.396 859.197 311.903C859.197 312.41 859.298 312.858 859.501 313.247C859.703 313.636 859.983 313.94 860.341 314.159C860.703 314.372 861.109 314.479 861.557 314.479ZM870.502 315.999C870.059 315.999 869.665 315.906 869.318 315.719C868.971 315.532 868.699 315.274 868.502 314.943C868.31 314.612 868.214 314.236 868.214 313.815L868.206 309.447H866.766L866.774 307.807H867.67C867.873 307.807 868.035 307.746 868.158 307.623C868.281 307.495 868.342 307.332 868.342 307.135V305.815H870.11V307.807H872.078L872.07 309.447H870.102L870.11 313.583C870.11 313.807 870.182 313.994 870.326 314.143C870.475 314.287 870.662 314.359 870.886 314.359H872.07V315.999H870.502ZM877.515 316.191C876.715 316.191 875.995 316.007 875.355 315.639C874.72 315.271 874.224 314.762 873.867 314.111C873.51 313.455 873.331 312.716 873.331 311.895C873.331 311.084 873.512 310.354 873.875 309.703C874.238 309.047 874.736 308.535 875.371 308.167C876.006 307.799 876.72 307.615 877.515 307.615C878.32 307.615 879.03 307.799 879.643 308.167C880.256 308.53 880.728 309.036 881.059 309.687C881.39 310.338 881.555 311.074 881.555 311.895V312.415H875.259L875.275 311.991C875.275 312.492 875.374 312.94 875.571 313.335C875.774 313.724 876.048 314.028 876.395 314.247C876.747 314.46 877.144 314.567 877.587 314.567C877.896 314.567 878.176 314.538 878.427 314.479C878.678 314.415 878.894 314.322 879.075 314.199C879.262 314.076 879.414 313.93 879.531 313.759H881.411C881.32 314.159 881.107 314.546 880.771 314.919C880.44 315.287 879.992 315.591 879.427 315.831C878.867 316.071 878.23 316.191 877.515 316.191ZM875.259 311.095H879.651V311.719C879.651 311.223 879.568 310.786 879.403 310.407C879.243 310.023 879.003 309.724 878.683 309.511C878.363 309.298 877.976 309.191 877.523 309.191C877.08 309.191 876.688 309.295 876.347 309.503C876.011 309.706 875.747 309.996 875.555 310.375C875.368 310.748 875.275 311.183 875.275 311.679L875.259 311.095ZM833.735 327.063H835.855L838.823 331.999H836.599L833.735 327.063ZM830.175 320.799H834.911C835.679 320.799 836.354 320.94 836.935 321.223C837.517 321.506 837.965 321.906 838.279 322.423C838.599 322.935 838.759 323.53 838.759 324.207C838.759 324.89 838.597 325.492 838.271 326.015C837.951 326.538 837.495 326.943 836.903 327.231C836.317 327.514 835.631 327.655 834.847 327.655H832.135V331.999H830.175V320.799ZM834.807 325.983C835.191 325.983 835.527 325.911 835.815 325.767C836.103 325.623 836.325 325.42 836.479 325.159C836.639 324.892 836.719 324.58 836.719 324.223C836.719 323.871 836.639 323.564 836.479 323.303C836.325 323.036 836.103 322.834 835.815 322.695C835.527 322.551 835.191 322.479 834.807 322.479H832.135V325.983H834.807ZM844.097 332.191C843.281 332.191 842.542 332.007 841.881 331.639C841.225 331.271 840.71 330.762 840.337 330.111C839.963 329.455 839.777 328.719 839.777 327.903C839.777 327.087 839.963 326.354 840.337 325.703C840.71 325.047 841.227 324.535 841.889 324.167C842.55 323.799 843.289 323.615 844.105 323.615C844.921 323.615 845.657 323.799 846.313 324.167C846.969 324.535 847.483 325.044 847.857 325.695C848.23 326.346 848.417 327.082 848.417 327.903C848.417 328.724 848.23 329.46 847.857 330.111C847.483 330.762 846.969 331.271 846.313 331.639C845.657 332.007 844.918 332.191 844.097 332.191ZM844.113 330.479C844.555 330.479 844.953 330.372 845.305 330.159C845.657 329.94 845.934 329.636 846.137 329.247C846.339 328.858 846.441 328.41 846.441 327.903C846.441 327.396 846.339 326.948 846.137 326.559C845.934 326.164 845.654 325.86 845.297 325.647C844.945 325.428 844.547 325.319 844.105 325.319C843.662 325.319 843.259 325.428 842.897 325.647C842.539 325.86 842.259 326.164 842.057 326.559C841.854 326.948 841.753 327.396 841.753 327.903C841.753 328.41 841.854 328.858 842.057 329.247C842.259 329.636 842.539 329.94 842.897 330.159C843.259 330.372 843.665 330.479 844.113 330.479ZM853.898 332.191C853.082 332.191 852.343 332.007 851.682 331.639C851.026 331.271 850.511 330.762 850.138 330.111C849.765 329.455 849.578 328.719 849.578 327.903C849.578 327.087 849.765 326.354 850.138 325.703C850.511 325.047 851.029 324.535 851.69 324.167C852.351 323.799 853.09 323.615 853.906 323.615C854.722 323.615 855.458 323.799 856.114 324.167C856.77 324.535 857.285 325.044 857.658 325.695C858.031 326.346 858.218 327.082 858.218 327.903C858.218 328.724 858.031 329.46 857.658 330.111C857.285 330.762 856.77 331.271 856.114 331.639C855.458 332.007 854.719 332.191 853.898 332.191ZM853.914 330.479C854.357 330.479 854.754 330.372 855.106 330.159C855.458 329.94 855.735 329.636 855.938 329.247C856.141 328.858 856.242 328.41 856.242 327.903C856.242 327.396 856.141 326.948 855.938 326.559C855.735 326.164 855.455 325.86 855.098 325.647C854.746 325.428 854.349 325.319 853.906 325.319C853.463 325.319 853.061 325.428 852.698 325.647C852.341 325.86 852.061 326.164 851.858 326.559C851.655 326.948 851.554 327.396 851.554 327.903C851.554 328.41 851.655 328.858 851.858 329.247C852.061 329.636 852.341 329.94 852.698 330.159C853.061 330.372 853.466 330.479 853.914 330.479ZM859.971 323.807H861.819V327.215H861.339C861.345 326.479 861.462 325.842 861.691 325.303C861.926 324.759 862.259 324.343 862.691 324.055C863.129 323.762 863.643 323.615 864.235 323.615C864.817 323.615 865.318 323.748 865.739 324.015C866.161 324.276 866.483 324.65 866.707 325.135C866.937 325.62 867.051 326.186 867.051 326.831V331.999H865.195V327.055C865.195 326.692 865.134 326.378 865.011 326.111C864.889 325.844 864.707 325.639 864.467 325.495C864.233 325.351 863.953 325.279 863.627 325.279C863.275 325.279 862.966 325.359 862.699 325.519C862.433 325.679 862.227 325.908 862.083 326.207C861.945 326.5 861.875 326.847 861.875 327.247V331.999H859.971V323.807ZM870.379 327.055C870.379 326.692 870.315 326.378 870.187 326.111C870.065 325.844 869.886 325.639 869.651 325.495C869.422 325.351 869.142 325.279 868.811 325.279C868.459 325.279 868.15 325.362 867.883 325.527C867.622 325.687 867.417 325.914 867.267 326.207C867.123 326.5 867.051 326.847 867.051 327.247L866.267 327.215C866.267 326.5 866.395 325.871 866.651 325.327C866.907 324.783 867.27 324.362 867.739 324.063C868.209 323.764 868.755 323.615 869.379 323.615C869.961 323.615 870.47 323.748 870.907 324.015C871.35 324.276 871.689 324.65 871.923 325.135C872.163 325.62 872.283 326.186 872.283 326.831V331.999H870.379V327.055Z" fill="#19191C"/>
<path d="M467.453 225.063H469.573L472.541 229.999H470.317L467.453 225.063ZM463.893 218.799H468.629C469.397 218.799 470.071 218.94 470.653 219.223C471.234 219.506 471.682 219.906 471.997 220.423C472.317 220.935 472.477 221.53 472.477 222.207C472.477 222.89 472.314 223.492 471.989 224.015C471.669 224.538 471.213 224.943 470.621 225.231C470.034 225.514 469.349 225.655 468.565 225.655H465.853V229.999H463.893V218.799ZM468.525 223.983C468.909 223.983 469.245 223.911 469.533 223.767C469.821 223.623 470.042 223.42 470.197 223.159C470.357 222.892 470.437 222.58 470.437 222.223C470.437 221.871 470.357 221.564 470.197 221.303C470.042 221.036 469.821 220.834 469.533 220.695C469.245 220.551 468.909 220.479 468.525 220.479H465.853V223.983H468.525ZM477.544 230.191C476.728 230.191 475.99 230.007 475.328 229.639C474.672 229.271 474.158 228.762 473.784 228.111C473.411 227.455 473.224 226.719 473.224 225.903C473.224 225.087 473.411 224.354 473.784 223.703C474.158 223.047 474.675 222.535 475.336 222.167C475.998 221.799 476.736 221.615 477.552 221.615C478.368 221.615 479.104 221.799 479.76 222.167C480.416 222.535 480.931 223.044 481.304 223.695C481.678 224.346 481.864 225.082 481.864 225.903C481.864 226.724 481.678 227.46 481.304 228.111C480.931 228.762 480.416 229.271 479.76 229.639C479.104 230.007 478.366 230.191 477.544 230.191ZM477.56 228.479C478.003 228.479 478.4 228.372 478.752 228.159C479.104 227.94 479.382 227.636 479.584 227.247C479.787 226.858 479.888 226.41 479.888 225.903C479.888 225.396 479.787 224.948 479.584 224.559C479.382 224.164 479.102 223.86 478.744 223.647C478.392 223.428 477.995 223.319 477.552 223.319C477.11 223.319 476.707 223.428 476.344 223.647C475.987 223.86 475.707 224.164 475.504 224.559C475.302 224.948 475.2 225.396 475.2 225.903C475.2 226.41 475.302 226.858 475.504 227.247C475.707 227.636 475.987 227.94 476.344 228.159C476.707 228.372 477.112 228.479 477.56 228.479ZM487.076 230.191C486.26 230.191 485.521 230.007 484.86 229.639C484.204 229.271 483.689 228.762 483.316 228.111C482.942 227.455 482.756 226.719 482.756 225.903C482.756 225.087 482.942 224.354 483.316 223.703C483.689 223.047 484.206 222.535 484.868 222.167C485.529 221.799 486.268 221.615 487.084 221.615C487.9 221.615 488.636 221.799 489.292 222.167C489.948 222.535 490.462 223.044 490.836 223.695C491.209 224.346 491.396 225.082 491.396 225.903C491.396 226.724 491.209 227.46 490.836 228.111C490.462 228.762 489.948 229.271 489.292 229.639C488.636 230.007 487.897 230.191 487.076 230.191ZM487.092 228.479C487.534 228.479 487.932 228.372 488.284 228.159C488.636 227.94 488.913 227.636 489.116 227.247C489.318 226.858 489.42 226.41 489.42 225.903C489.42 225.396 489.318 224.948 489.116 224.559C488.913 224.164 488.633 223.86 488.276 223.647C487.924 223.428 487.526 223.319 487.084 223.319C486.641 223.319 486.238 223.428 485.876 223.647C485.518 223.86 485.238 224.164 485.036 224.559C484.833 224.948 484.732 225.396 484.732 225.903C484.732 226.41 484.833 226.858 485.036 227.247C485.238 227.636 485.518 227.94 485.876 228.159C486.238 228.372 486.644 228.479 487.092 228.479ZM492.879 221.807H494.727V225.215H494.247C494.252 224.479 494.369 223.842 494.599 223.303C494.833 222.759 495.167 222.343 495.599 222.055C496.036 221.762 496.551 221.615 497.143 221.615C497.724 221.615 498.225 221.748 498.647 222.015C499.068 222.276 499.391 222.65 499.615 223.135C499.844 223.62 499.959 224.186 499.959 224.831V229.999H498.103V225.055C498.103 224.692 498.041 224.378 497.919 224.111C497.796 223.844 497.615 223.639 497.375 223.495C497.14 223.351 496.86 223.279 496.535 223.279C496.183 223.279 495.873 223.359 495.607 223.519C495.34 223.679 495.135 223.908 494.991 224.207C494.852 224.5 494.783 224.847 494.783 225.247V229.999H492.879V221.807ZM503.287 225.055C503.287 224.692 503.223 224.378 503.095 224.111C502.972 223.844 502.793 223.639 502.559 223.495C502.329 223.351 502.049 223.279 501.719 223.279C501.367 223.279 501.057 223.362 500.791 223.527C500.529 223.687 500.324 223.914 500.175 224.207C500.031 224.5 499.959 224.847 499.959 225.247L499.175 225.215C499.175 224.5 499.303 223.871 499.559 223.327C499.815 222.783 500.177 222.362 500.647 222.063C501.116 221.764 501.663 221.615 502.287 221.615C502.868 221.615 503.377 221.748 503.815 222.015C504.257 222.276 504.596 222.65 504.831 223.135C505.071 223.62 505.191 224.186 505.191 224.831V229.999H503.287V225.055ZM475.761 238.127H473.129V236.495H474.609C474.939 236.495 475.227 236.426 475.473 236.287C475.723 236.148 475.913 235.951 476.041 235.695C476.174 235.439 476.241 235.14 476.241 234.799H476.249H477.721V245.999H475.761V238.127ZM483.708 246.191C482.929 246.191 482.228 246.044 481.604 245.751C480.985 245.452 480.492 245.039 480.124 244.511C479.761 243.983 479.572 243.383 479.556 242.711H481.54C481.561 243.052 481.668 243.359 481.86 243.631C482.057 243.903 482.319 244.116 482.644 244.271C482.969 244.42 483.329 244.495 483.724 244.495C484.14 244.495 484.513 244.41 484.844 244.239C485.18 244.068 485.441 243.831 485.628 243.527C485.815 243.223 485.908 242.882 485.908 242.503C485.908 242.108 485.812 241.759 485.62 241.455C485.428 241.146 485.164 240.906 484.828 240.735C484.492 240.564 484.108 240.479 483.676 240.479H482.26V239.055L485.1 236.463H480.148V234.799H487.5V236.255L483.708 239.679V238.983C484.519 238.967 485.241 239.108 485.876 239.407C486.511 239.706 487.007 240.13 487.364 240.679C487.721 241.228 487.9 241.855 487.9 242.559C487.9 243.263 487.721 243.89 487.364 244.439C487.007 244.988 486.511 245.418 485.876 245.727C485.241 246.036 484.519 246.191 483.708 246.191ZM494.708 234.799C495.396 234.799 496.009 234.924 496.548 235.175C497.087 235.426 497.505 235.775 497.804 236.223C498.103 236.666 498.252 237.17 498.252 237.735C498.252 238.236 498.137 238.679 497.908 239.063C497.679 239.447 497.356 239.746 496.94 239.959C496.524 240.172 496.047 240.279 495.508 240.279V240.023C496.1 240.023 496.625 240.146 497.084 240.391C497.543 240.636 497.9 240.978 498.156 241.415C498.412 241.847 498.54 242.34 498.54 242.895C498.54 243.498 498.383 244.034 498.068 244.503C497.753 244.972 497.311 245.34 496.74 245.607C496.175 245.868 495.529 245.999 494.804 245.999H489.924V234.799H494.708ZM491.852 244.415H494.596C494.969 244.415 495.303 244.348 495.596 244.215C495.889 244.076 496.116 243.884 496.276 243.639C496.436 243.388 496.516 243.098 496.516 242.767C496.516 242.436 496.433 242.143 496.268 241.887C496.108 241.626 495.881 241.426 495.588 241.287C495.3 241.143 494.969 241.071 494.596 241.071H491.852V244.415ZM494.5 239.535C494.847 239.535 495.151 239.471 495.412 239.343C495.679 239.215 495.884 239.031 496.028 238.791C496.177 238.551 496.252 238.271 496.252 237.951C496.252 237.636 496.177 237.362 496.028 237.127C495.884 236.887 495.679 236.703 495.412 236.575C495.145 236.447 494.841 236.383 494.5 236.383H491.852V239.535H494.5Z" fill="#19191C"/>
<path d="M382.453 225.063H384.573L387.541 229.999H385.317L382.453 225.063ZM378.893 218.799H383.629C384.397 218.799 385.071 218.94 385.653 219.223C386.234 219.506 386.682 219.906 386.997 220.423C387.317 220.935 387.477 221.53 387.477 222.207C387.477 222.89 387.314 223.492 386.989 224.015C386.669 224.538 386.213 224.943 385.621 225.231C385.034 225.514 384.349 225.655 383.565 225.655H380.853V229.999H378.893V218.799ZM383.525 223.983C383.909 223.983 384.245 223.911 384.533 223.767C384.821 223.623 385.042 223.42 385.197 223.159C385.357 222.892 385.437 222.58 385.437 222.223C385.437 221.871 385.357 221.564 385.197 221.303C385.042 221.036 384.821 220.834 384.533 220.695C384.245 220.551 383.909 220.479 383.525 220.479H380.853V223.983H383.525ZM392.544 230.191C391.728 230.191 390.99 230.007 390.328 229.639C389.672 229.271 389.158 228.762 388.784 228.111C388.411 227.455 388.224 226.719 388.224 225.903C388.224 225.087 388.411 224.354 388.784 223.703C389.158 223.047 389.675 222.535 390.336 222.167C390.998 221.799 391.736 221.615 392.552 221.615C393.368 221.615 394.104 221.799 394.76 222.167C395.416 222.535 395.931 223.044 396.304 223.695C396.678 224.346 396.864 225.082 396.864 225.903C396.864 226.724 396.678 227.46 396.304 228.111C395.931 228.762 395.416 229.271 394.76 229.639C394.104 230.007 393.366 230.191 392.544 230.191ZM392.56 228.479C393.003 228.479 393.4 228.372 393.752 228.159C394.104 227.94 394.382 227.636 394.584 227.247C394.787 226.858 394.888 226.41 394.888 225.903C394.888 225.396 394.787 224.948 394.584 224.559C394.382 224.164 394.102 223.86 393.744 223.647C393.392 223.428 392.995 223.319 392.552 223.319C392.11 223.319 391.707 223.428 391.344 223.647C390.987 223.86 390.707 224.164 390.504 224.559C390.302 224.948 390.2 225.396 390.2 225.903C390.2 226.41 390.302 226.858 390.504 227.247C390.707 227.636 390.987 227.94 391.344 228.159C391.707 228.372 392.112 228.479 392.56 228.479ZM402.076 230.191C401.26 230.191 400.521 230.007 399.86 229.639C399.204 229.271 398.689 228.762 398.316 228.111C397.942 227.455 397.756 226.719 397.756 225.903C397.756 225.087 397.942 224.354 398.316 223.703C398.689 223.047 399.206 222.535 399.868 222.167C400.529 221.799 401.268 221.615 402.084 221.615C402.9 221.615 403.636 221.799 404.292 222.167C404.948 222.535 405.462 223.044 405.836 223.695C406.209 224.346 406.396 225.082 406.396 225.903C406.396 226.724 406.209 227.46 405.836 228.111C405.462 228.762 404.948 229.271 404.292 229.639C403.636 230.007 402.897 230.191 402.076 230.191ZM402.092 228.479C402.534 228.479 402.932 228.372 403.284 228.159C403.636 227.94 403.913 227.636 404.116 227.247C404.318 226.858 404.42 226.41 404.42 225.903C404.42 225.396 404.318 224.948 404.116 224.559C403.913 224.164 403.633 223.86 403.276 223.647C402.924 223.428 402.526 223.319 402.084 223.319C401.641 223.319 401.238 223.428 400.876 223.647C400.518 223.86 400.238 224.164 400.036 224.559C399.833 224.948 399.732 225.396 399.732 225.903C399.732 226.41 399.833 226.858 400.036 227.247C400.238 227.636 400.518 227.94 400.876 228.159C401.238 228.372 401.644 228.479 402.092 228.479ZM407.879 221.807H409.727V225.215H409.247C409.252 224.479 409.369 223.842 409.599 223.303C409.833 222.759 410.167 222.343 410.599 222.055C411.036 221.762 411.551 221.615 412.143 221.615C412.724 221.615 413.225 221.748 413.647 222.015C414.068 222.276 414.391 222.65 414.615 223.135C414.844 223.62 414.959 224.186 414.959 224.831V229.999H413.103V225.055C413.103 224.692 413.041 224.378 412.919 224.111C412.796 223.844 412.615 223.639 412.375 223.495C412.14 223.351 411.86 223.279 411.535 223.279C411.183 223.279 410.873 223.359 410.607 223.519C410.34 223.679 410.135 223.908 409.991 224.207C409.852 224.5 409.783 224.847 409.783 225.247V229.999H407.879V221.807ZM418.287 225.055C418.287 224.692 418.223 224.378 418.095 224.111C417.972 223.844 417.793 223.639 417.559 223.495C417.329 223.351 417.049 223.279 416.719 223.279C416.367 223.279 416.057 223.362 415.791 223.527C415.529 223.687 415.324 223.914 415.175 224.207C415.031 224.5 414.959 224.847 414.959 225.247L414.175 225.215C414.175 224.5 414.303 223.871 414.559 223.327C414.815 222.783 415.177 222.362 415.647 222.063C416.116 221.764 416.663 221.615 417.287 221.615C417.868 221.615 418.377 221.748 418.815 222.015C419.257 222.276 419.596 222.65 419.831 223.135C420.071 223.62 420.191 224.186 420.191 224.831V229.999H418.287V225.055ZM390.823 238.127H388.191V236.495H389.671C390.002 236.495 390.29 236.426 390.535 236.287C390.786 236.148 390.975 235.951 391.103 235.695C391.236 235.439 391.303 235.14 391.303 234.799H391.311H392.783V245.999H390.823V238.127ZM398.77 246.191C397.992 246.191 397.29 246.044 396.666 245.751C396.048 245.452 395.554 245.039 395.186 244.511C394.824 243.983 394.634 243.383 394.618 242.711H396.602C396.624 243.052 396.73 243.359 396.922 243.631C397.12 243.903 397.381 244.116 397.706 244.271C398.032 244.42 398.392 244.495 398.786 244.495C399.202 244.495 399.576 244.41 399.906 244.239C400.242 244.068 400.504 243.831 400.69 243.527C400.877 243.223 400.97 242.882 400.97 242.503C400.97 242.108 400.874 241.759 400.682 241.455C400.49 241.146 400.226 240.906 399.89 240.735C399.554 240.564 399.17 240.479 398.738 240.479H397.322V239.055L400.162 236.463H395.21V234.799H402.562V236.255L398.77 239.679V238.983C399.581 238.967 400.304 239.108 400.938 239.407C401.573 239.706 402.069 240.13 402.426 240.679C402.784 241.228 402.962 241.855 402.962 242.559C402.962 243.263 402.784 243.89 402.426 244.439C402.069 244.988 401.573 245.418 400.938 245.727C400.304 246.036 399.581 246.191 398.77 246.191ZM407.803 234.799H409.939L414.123 245.999H412.123L411.171 243.303H406.667L405.787 245.999H403.731L407.803 234.799ZM410.635 241.743L409.019 237.247L408.851 236.551L408.675 237.247L407.163 241.743H410.635Z" fill="#19191C"/>
<path d="M275.723 895.063H277.843L280.811 899.999H278.587L275.723 895.063ZM272.163 888.799H276.899C277.667 888.799 278.342 888.94 278.923 889.223C279.504 889.506 279.952 889.906 280.267 890.423C280.587 890.935 280.747 891.53 280.747 892.207C280.747 892.89 280.584 893.492 280.259 894.015C279.939 894.538 279.483 894.943 278.891 895.231C278.304 895.514 277.619 895.655 276.835 895.655H274.123V899.999H272.163V888.799ZM276.795 893.983C277.179 893.983 277.515 893.911 277.803 893.767C278.091 893.623 278.312 893.42 278.467 893.159C278.627 892.892 278.707 892.58 278.707 892.223C278.707 891.871 278.627 891.564 278.467 891.303C278.312 891.036 278.091 890.834 277.803 890.695C277.515 890.551 277.179 890.479 276.795 890.479H274.123V893.983H276.795ZM286.085 900.191C285.269 900.191 284.53 900.007 283.869 899.639C283.213 899.271 282.698 898.762 282.325 898.111C281.951 897.455 281.765 896.719 281.765 895.903C281.765 895.087 281.951 894.354 282.325 893.703C282.698 893.047 283.215 892.535 283.877 892.167C284.538 891.799 285.277 891.615 286.093 891.615C286.909 891.615 287.645 891.799 288.301 892.167C288.957 892.535 289.471 893.044 289.845 893.695C290.218 894.346 290.405 895.082 290.405 895.903C290.405 896.724 290.218 897.46 289.845 898.111C289.471 898.762 288.957 899.271 288.301 899.639C287.645 900.007 286.906 900.191 286.085 900.191ZM286.101 898.479C286.543 898.479 286.941 898.372 287.293 898.159C287.645 897.94 287.922 897.636 288.125 897.247C288.327 896.858 288.429 896.41 288.429 895.903C288.429 895.396 288.327 894.948 288.125 894.559C287.922 894.164 287.642 893.86 287.285 893.647C286.933 893.428 286.535 893.319 286.093 893.319C285.65 893.319 285.247 893.428 284.885 893.647C284.527 893.86 284.247 894.164 284.045 894.559C283.842 894.948 283.741 895.396 283.741 895.903C283.741 896.41 283.842 896.858 284.045 897.247C284.247 897.636 284.527 897.94 284.885 898.159C285.247 898.372 285.653 898.479 286.101 898.479ZM295.886 900.191C295.07 900.191 294.331 900.007 293.67 899.639C293.014 899.271 292.499 898.762 292.126 898.111C291.752 897.455 291.566 896.719 291.566 895.903C291.566 895.087 291.752 894.354 292.126 893.703C292.499 893.047 293.016 892.535 293.678 892.167C294.339 891.799 295.078 891.615 295.894 891.615C296.71 891.615 297.446 891.799 298.102 892.167C298.758 892.535 299.272 893.044 299.646 893.695C300.019 894.346 300.206 895.082 300.206 895.903C300.206 896.724 300.019 897.46 299.646 898.111C299.272 898.762 298.758 899.271 298.102 899.639C297.446 900.007 296.707 900.191 295.886 900.191ZM295.902 898.479C296.344 898.479 296.742 898.372 297.094 898.159C297.446 897.94 297.723 897.636 297.926 897.247C298.128 896.858 298.23 896.41 298.23 895.903C298.23 895.396 298.128 894.948 297.926 894.559C297.723 894.164 297.443 893.86 297.086 893.647C296.734 893.428 296.336 893.319 295.894 893.319C295.451 893.319 295.048 893.428 294.686 893.647C294.328 893.86 294.048 894.164 293.846 894.559C293.643 894.948 293.542 895.396 293.542 895.903C293.542 896.41 293.643 896.858 293.846 897.247C294.048 897.636 294.328 897.94 294.686 898.159C295.048 898.372 295.454 898.479 295.902 898.479ZM301.959 891.807H303.807V895.215H303.327C303.332 894.479 303.45 893.842 303.679 893.303C303.914 892.759 304.247 892.343 304.679 892.055C305.116 891.762 305.631 891.615 306.223 891.615C306.804 891.615 307.306 891.748 307.727 892.015C308.148 892.276 308.471 892.65 308.695 893.135C308.924 893.62 309.039 894.186 309.039 894.831V899.999H307.183V895.055C307.183 894.692 307.122 894.378 306.999 894.111C306.876 893.844 306.695 893.639 306.455 893.495C306.22 893.351 305.94 893.279 305.615 893.279C305.263 893.279 304.954 893.359 304.687 893.519C304.42 893.679 304.215 893.908 304.071 894.207C303.932 894.5 303.863 894.847 303.863 895.247V899.999H301.959V891.807ZM312.367 895.055C312.367 894.692 312.303 894.378 312.175 894.111C312.052 893.844 311.874 893.639 311.639 893.495C311.41 893.351 311.13 893.279 310.799 893.279C310.447 893.279 310.138 893.362 309.871 893.527C309.61 893.687 309.404 893.914 309.255 894.207C309.111 894.5 309.039 894.847 309.039 895.247L308.255 895.215C308.255 894.5 308.383 893.871 308.639 893.327C308.895 892.783 309.258 892.362 309.727 892.063C310.196 891.764 310.743 891.615 311.367 891.615C311.948 891.615 312.458 891.748 312.895 892.015C313.338 892.276 313.676 892.65 313.911 893.135C314.151 893.62 314.271 894.186 314.271 894.831V899.999H312.367V895.055ZM321.6 892.127H318.968V890.495H320.448C320.778 890.495 321.066 890.426 321.312 890.287C321.562 890.148 321.752 889.951 321.88 889.695C322.013 889.439 322.08 889.14 322.08 888.799H322.088H323.56V899.999H321.6V892.127Z" fill="#19191C"/>
<path d="M505.577 624.346H504V619.407H509.635V615.279H515.294V611.128H520.952V607H527.399V608.577H522.529V612.728H516.894V616.856H511.235V621.007H505.577V624.346Z" fill="#19191C"/>
<path d="M433.577 391.346H432V386.407H437.635V382.279H443.294V378.128H448.952V374H455.399V375.577H450.529V379.728H444.894V383.856H439.235V388.007H433.577V391.346Z" fill="#19191C"/>
<path d="M597.577 520.345H596V515.406H601.635V511.278H607.294V507.127H612.952V502.999H619.399V504.576H614.529V508.727H608.894V512.855H603.235V517.006H597.577V520.345Z" fill="#19191C"/>
<path d="M597.577 342.346H596V337.407H601.635V333.279H607.294V329.128H612.952V325H619.399V326.577H614.529V330.728H608.894V334.856H603.235V339.007H597.577V342.346Z" fill="#19191C"/>
<path d="M595.577 248.345H594V243.406H599.635V239.278H605.294V235.127H610.952V230.999H617.399V232.576H612.529V236.727H606.894V240.855H601.235V245.006H595.577V248.345Z" fill="#19191C"/>
<path d="M1091.58 520.345H1090V515.406H1095.64V511.278H1101.29V507.127H1106.95V502.999H1113.4V504.576H1108.53V508.727H1102.89V512.855H1097.24V517.006H1091.58V520.345Z" fill="#19191C"/>
<path d="M1091.58 342.346H1090V337.407H1095.64V333.279H1101.29V329.128H1106.95V325H1113.4V326.577H1108.53V330.728H1102.89V334.856H1097.24V339.007H1091.58V342.346Z" fill="#19191C"/>
<path d="M1087.58 248.345H1086V243.406H1091.64V239.278H1097.29V235.127H1102.95V230.999H1109.4V232.576H1104.53V236.727H1098.89V240.855H1093.24V245.006H1087.58V248.345Z" fill="#19191C"/>
<path d="M524.577 772.346H523V767.407H528.635V763.279H534.294V759.128H539.952V755H546.399V756.577H541.529V760.728H535.894V764.856H530.235V769.007H524.577V772.346Z" fill="#19191C"/>
<path d="M774.577 624.346H773V619.407H778.635V615.279H784.294V611.128H789.952V607H796.399V608.577H791.529V612.728H785.894V616.856H780.235V621.007H774.577V624.346Z" fill="#19191C"/>
<path d="M908.577 624.346H907V619.407H912.635V615.279H918.294V611.128H923.952V607H930.399V608.577H925.529V612.728H919.894V616.856H914.235V621.007H908.577V624.346Z" fill="#19191C"/>
<path d="M950 499.499L1003.38 499.499C1004.49 499.499 1005.39 498.6 1005.38 497.493L1005 374.999L1005 342.499L1005 283.499L1005 250.5C1005 218.672 1005 169 1005 169L1005 139.5C1005 138.395 1004.1 137.5 1003 137.5L998 137.5C998 137.5 991.6 137.5 987.5 137.5L968 137.499C881.889 137.499 833.61 137.499 747.5 137.499L714.5 137.999C711.842 137.999 708.219 137.999 705.998 137.999C704.894 137.999 704 138.692 704 139.797C704 165 704 447.346 704 489.499L704 374.999C704 407.803 704 458.999 704 458.999L704 497.499C704 498.604 704.895 499.499 706 499.499L749.5 499.499M828 499.499L794 499.499M909.5 499.499L875.5 499.499" stroke="url(#paint4_linear_9601_1218)" stroke-width="3"/>
<path d="M396 417.933L383.404 376.419C383.149 375.576 382.371 375 381.49 375L322 375C320.895 375 320 375.895 320 377L320 377.496L320 431.046L320.125 459.009C320.13 460.11 321.027 461 322.129 461C345.604 461 360.316 461 383.903 461C384.812 461 385.614 460.386 385.844 459.507L387.676 452.513L392.033 436.142" stroke="url(#paint5_linear_9601_1218)" stroke-width="3"/>
<path d="M493 417.867L505.703 376.282C505.96 375.441 506.736 374.867 507.616 374.867L567.635 374.867C568.74 374.867 569.635 375.762 569.635 376.867L569.635 377.367L569.635 431L569.509 459.009C569.504 460.111 568.607 461 567.505 461C543.819 461 528.981 461 505.183 461C504.275 461 503.474 460.389 503.242 459.511L501.393 452.5L497 436.104" stroke="url(#paint6_linear_9601_1218)" stroke-width="3"/>
<path d="M478.135 343L502.147 343C503.061 343 503.859 342.38 504.085 341.495L508.301 325C508.301 325 510.638 315.857 512.135 310L516.5 291.5C517.92 286.228 520.135 278 520.135 278" stroke="url(#paint7_linear_9601_1218)" stroke-width="3"/>
<path d="M409.999 342.999L385.896 342.999C385.026 342.999 384.255 342.436 383.991 341.607L383 338.5L368.5 279.5L368.135 278" stroke="url(#paint8_linear_9601_1218)" stroke-width="3"/>
<defs>
<linearGradient id="paint0_linear_9601_1218" x1="191.5" y1="1065.5" x2="772.107" y2="-127.27" gradientUnits="userSpaceOnUse">
<stop offset="0.0277398" stop-color="#FF9419"/>
<stop offset="0.247777" stop-color="#FF021D"/>
<stop offset="0.99" stop-color="#E600FF"/>
</linearGradient>
<linearGradient id="paint1_linear_9601_1218" x1="454" y1="142.992" x2="454.006" y2="142.992" gradientUnits="userSpaceOnUse">
<stop offset="0.0567356" stop-color="#E600FF"/>
<stop offset="0.639223" stop-color="#F6026D"/>
</linearGradient>
<linearGradient id="paint2_linear_9601_1218" x1="31.6207" y1="1.90441e+09" x2="4041.34" y2="1.90441e+09" gradientUnits="userSpaceOnUse">
<stop stop-color="#FF9419"/>
<stop offset="0.705621" stop-color="#FF021D"/>
<stop offset="0.99" stop-color="#E600FF"/>
</linearGradient>
<linearGradient id="paint3_linear_9601_1218" x1="172.5" y1="1103" x2="-36.9767" y2="963.231" gradientUnits="userSpaceOnUse">
<stop stop-color="#FF9419"/>
<stop offset="0.2" stop-color="#FF021D"/>
<stop offset="0.99" stop-color="#E600FF"/>
</linearGradient>
<linearGradient id="paint4_linear_9601_1218" x1="483.5" y1="1204.5" x2="355.83" y2="1108.67" gradientUnits="userSpaceOnUse">
<stop stop-color="#FF9419"/>
<stop offset="0.2" stop-color="#FF021D"/>
<stop offset="0.99" stop-color="#E600FF"/>
</linearGradient>
<linearGradient id="paint5_linear_9601_1218" x1="322.5" y1="467.5" x2="351.028" y2="44.5029" gradientUnits="userSpaceOnUse">
<stop stop-color="#FF9419"/>
<stop offset="0.227503" stop-color="#FF021D"/>
<stop offset="1" stop-color="#E600FF"/>
</linearGradient>
<linearGradient id="paint6_linear_9601_1218" x1="168" y1="1105" x2="679.727" y2="1212.78" gradientUnits="userSpaceOnUse">
<stop stop-color="#FF9419"/>
<stop offset="0.200736" stop-color="#FF021D"/>
<stop offset="0.99" stop-color="#E600FF"/>
</linearGradient>
<linearGradient id="paint7_linear_9601_1218" x1="162" y1="1109" x2="930.021" y2="420.629" gradientUnits="userSpaceOnUse">
<stop stop-color="#FF9419"/>
<stop offset="0.673749" stop-color="#FF021D"/>
<stop offset="0.883294" stop-color="#E600FF"/>
</linearGradient>
<linearGradient id="paint8_linear_9601_1218" x1="163" y1="1105.5" x2="132.525" y2="149.211" gradientUnits="userSpaceOnUse">
<stop stop-color="#FF9419"/>
<stop offset="0.713742" stop-color="#FF021D"/>
<stop offset="1" stop-color="#E600FF"/>
</linearGradient>
<clipPath id="clip0_9601_1218">
<rect width="25" height="25" fill="white" transform="translate(470 770.999)"/>
</clipPath>
</defs>
</svg>
