<svg width="1200" height="1200" viewBox="0 0 1200 1200" fill="none" xmlns="http://www.w3.org/2000/svg">
<g clip-path="url(#clip0_9601_1216)">
<rect width="1200" height="1200" fill="white"/>
<path d="M0 0H1200V1200H0V0Z" fill="white"/>
<path d="M641 796L724 796C725.105 796 726 795.105 726 794L726 635C726 633.895 725.105 633 724 633L558 633C556.895 633 556 633.895 556 635L556 794C556 795.105 556.895 796 558 796L641 796Z" fill="#F4F4F4"/>
<path d="M640 830L695 830C696.105 830 697 829.105 697 828L697 802C697 800.895 696.105 800 695 800L585 800C583.895 800 583 800.895 583 802L583 828C583 829.105 583.895 830 585 830L640 830Z" fill="#F4F4F4"/>
<path d="M646.608 375.509L646.608 531.009C646.608 532.113 647.504 533.009 648.608 533.009L664.608 533.009L746.108 533.009C747.213 533.009 748.108 532.113 748.108 531.009L748.108 501.509C748.108 500.404 747.213 499.509 746.108 499.509L646.608 499.509M876.108 499.509L906.108 499.509C907.213 499.509 908.108 500.404 908.108 501.509L908.108 531.009C908.108 532.113 907.213 533.009 906.108 533.009L876.108 533.009C875.004 533.009 874.108 532.113 874.108 531.009L874.108 501.509C874.108 500.404 875.004 499.509 876.108 499.509ZM794.608 499.509L824.608 499.509C825.713 499.509 826.608 500.404 826.608 501.509L826.608 531.009C826.608 532.113 825.713 533.009 824.608 533.009L794.608 533.009C793.504 533.009 792.608 532.113 792.608 531.009L792.608 501.509C792.608 500.404 793.504 499.509 794.608 499.509Z" stroke="#D1D1D2"/>
<path d="M1054 499.509L952.108 499.509C951.004 499.509 950.108 500.404 950.108 501.509L950.108 531.009C950.108 532.113 951.016 533.009 952.121 533.009C990.817 533.009 1013.39 533.009 1052.09 533.009C1053.2 533.009 1054.11 532.109 1054.1 531.002L1053.61 375.509M646.608 250.509L646.608 171.009C646.608 169.904 647.504 169.009 648.608 169.009L672.608 169.009C673.713 169.009 674.608 168.113 674.608 167.009L674.608 139.509C674.608 138.404 675.504 137.509 676.608 137.509L694.108 137.509" stroke="#D1D1D2"/>
<rect x="430.608" y="509.509" width="26" height="23" rx="1.5" stroke="#D1D1D2"/>
<path d="M987.101 137.509L1006.6 137.509L1024.1 137.509C1025.21 137.509 1026.1 138.404 1026.1 139.509L1026.1 167.009C1026.1 168.113 1027 169.009 1028.1 169.009L1052.1 169.009C1053.21 169.009 1054.1 169.904 1054.1 171.009L1054.1 250.509" stroke="#D1D1D2"/>
<path d="M565.965 533.008L584 533.008M648.965 533.008L625.5 533.008" stroke="#D1D1D2"/>
<path d="M567.965 190.509L548.601 190.509M495.999 436.246L502.635 461.009L521.734 531.532C521.971 532.403 522.762 533.009 523.665 533.009L566.474 533.009C567.579 533.009 568.474 532.113 568.474 531.009L568.48 454.508M568.101 284.509L568.101 344.009M568.101 137.009C568.101 182.895 568.101 254.509 568.101 254.509" stroke="#D1D1D2"/>
<path d="M240.27 1028.13L253.295 1050.69" stroke="#D1D1D2"/>
<path d="M149.75 872.681L135 847.133" stroke="#D1D1D2"/>
<path d="M402.457 917.592L445.145 885.562C445.641 885.19 445.781 884.506 445.471 883.97L433.097 862.536C432.544 861.58 431.321 861.252 430.364 861.804L411.445 872.728L389.765 885.244C388.87 885.761 388.516 886.875 388.949 887.813L408.792 930.878C409.224 931.813 408.873 932.923 407.983 933.442L376.999 951.509M463.176 794.131L475.663 815.758C476.174 816.643 477.27 817.001 478.205 816.587L504.132 805.111C505.067 804.697 506.163 805.054 506.674 805.939L520.912 830.6C521.429 831.496 521.178 832.638 520.333 833.234L491.837 853.347L463.8 873.137C462.783 873.854 461.374 873.502 460.841 872.377C456.882 864.025 442.058 833.062 430.468 812.987C418.877 792.912 399.474 764.592 394.221 756.988C393.513 755.964 393.912 754.567 395.042 754.045L426.199 739.659L457.865 725.037C458.804 724.604 459.919 724.957 460.436 725.853L474.674 750.514C475.185 751.399 474.946 752.527 474.121 753.129L451.218 769.845C450.393 770.447 450.154 771.575 450.665 772.46L463.152 794.088M325.871 784.942L374.954 763.988C375.524 763.744 376.186 763.965 376.496 764.502L388.871 785.935C389.423 786.892 389.095 788.115 388.139 788.667L369.219 799.59L347.539 812.107C346.644 812.624 345.503 812.373 344.906 811.53L317.534 772.814C316.939 771.972 315.802 771.72 314.907 772.233L282.999 790.509" stroke="#D1D1D2"/>
<path d="M875.862 682.51L861.862 682.51H825.862M775 819.009L775 717.51C775 716.406 775.895 715.51 777 715.51L825.862 715.51" stroke="#D1D1D2"/>
<path d="M875.862 682.51C875.862 682.51 889.862 682.423 913.862 686.51C933.021 689.774 943.576 692.925 947.055 694.064C947.849 694.323 948.362 695.064 948.362 695.9L948.362 724.816C948.362 725.552 947.959 726.226 947.299 726.549C945.6 727.38 941.987 729.034 937.362 730.51C933.166 731.849 929.444 732.501 927.332 732.794C926.299 732.938 925.5 733.813 925.5 734.857L925.5 772.507" stroke="#D1D1D2"/>
<path d="M261.5 1047.5L163.411 1103.74C162.459 1104.28 161.244 1103.96 160.69 1103.01L43.7862 902.859C43.2291 901.905 43.5507 900.68 44.5045 900.123L316.536 741.237C317.49 740.68 317.812 739.455 317.254 738.502L198.965 535.977C198.187 534.643 199.149 532.968 200.693 532.968L316.634 533.009C317.739 533.009 318.635 532.113 318.635 531.009L318.635 53.0093C318.635 51.9047 319.53 51.0093 320.635 51.0093L1145.63 51.0093C1146.74 51.0093 1147.64 51.9047 1147.64 53.0093L1147.64 595.009C1147.64 596.114 1146.77 597.009 1145.67 597.009C1135.89 597.009 1091.63 597.009 1056.13 597.009C1055.02 597.009 1054.14 597.905 1054.14 599.009L1054.14 719.07C1054.14 719.93 1053.59 720.693 1052.77 720.966L927 763.052C926.185 763.325 925.635 764.089 925.635 764.949L925.635 838.009C925.635 839.114 924.74 840.009 923.635 840.009L775 840.009M314.5 532.875L363.47 532.875C364.374 532.875 365.165 532.27 365.401 531.398L384.501 460.875L391.136 436.112" stroke="#D1D1D2" stroke-width="3"/>
<path d="M1052 532.904L1072.86 532.904M1148 532.904L1120.86 532.904" stroke="#D1D1D2"/>
<path d="M640.75 888L631 897.52M640.75 888L650.5 897.52M640.75 888V902.42V941.5" stroke="black" stroke-width="2"/>
<path d="M833.189 312.8H837.925C838.693 312.8 839.367 312.941 839.949 313.224C840.53 313.507 840.978 313.907 841.293 314.424C841.613 314.936 841.773 315.531 841.773 316.208C841.773 316.891 841.61 317.493 841.285 318.016C840.965 318.539 840.509 318.944 839.917 319.232C839.33 319.515 838.645 319.656 837.861 319.656H835.149V324H833.189V312.8ZM837.821 317.984C838.205 317.984 838.541 317.912 838.829 317.768C839.117 317.624 839.338 317.421 839.493 317.16C839.653 316.893 839.733 316.581 839.733 316.224C839.733 315.872 839.653 315.565 839.493 315.304C839.338 315.037 839.117 314.835 838.829 314.696C838.541 314.552 838.205 314.48 837.821 314.48H835.149V317.984H837.821ZM846.217 315.616C846.889 315.616 847.478 315.736 847.985 315.976C848.497 316.211 848.894 316.552 849.177 317C849.459 317.443 849.601 317.968 849.601 318.576V324H847.761L847.753 320.936H848.193C848.193 321.608 848.07 322.189 847.825 322.68C847.585 323.165 847.235 323.539 846.777 323.8C846.323 324.061 845.785 324.192 845.161 324.192C844.633 324.192 844.158 324.093 843.737 323.896C843.321 323.693 842.995 323.413 842.761 323.056C842.526 322.693 842.409 322.283 842.409 321.824C842.409 321.387 842.521 320.984 842.745 320.616C842.974 320.248 843.289 319.947 843.689 319.712C844.094 319.472 844.553 319.325 845.065 319.272L847.201 319.048C847.371 319.032 847.502 318.971 847.593 318.864C847.689 318.757 847.737 318.603 847.737 318.4L847.825 320.2L845.521 320.464C845.286 320.485 845.081 320.547 844.905 320.648C844.729 320.749 844.59 320.883 844.489 321.048C844.393 321.208 844.345 321.395 844.345 321.608C844.345 321.832 844.403 322.032 844.521 322.208C844.643 322.384 844.814 322.52 845.033 322.616C845.251 322.712 845.499 322.76 845.777 322.76C846.166 322.76 846.507 322.685 846.801 322.536C847.094 322.381 847.323 322.165 847.489 321.888C847.654 321.611 847.737 321.293 847.737 320.936V318.416C847.737 318.155 847.67 317.925 847.537 317.728C847.403 317.531 847.219 317.379 846.985 317.272C846.75 317.16 846.478 317.104 846.169 317.104C845.865 317.104 845.59 317.157 845.345 317.264C845.099 317.365 844.902 317.504 844.753 317.68C844.603 317.856 844.515 318.051 844.489 318.264H842.609C842.662 317.752 842.851 317.296 843.177 316.896C843.502 316.496 843.929 316.184 844.457 315.96C844.985 315.731 845.571 315.616 846.217 315.616ZM851.762 315.808H853.65V318.984L853.018 319.504C853.039 318.736 853.17 318.069 853.41 317.504C853.655 316.939 853.994 316.507 854.426 316.208C854.863 315.904 855.375 315.752 855.962 315.752H856.266V317.672H855.722C855.306 317.667 854.94 317.741 854.626 317.896C854.316 318.051 854.079 318.272 853.914 318.56C853.748 318.848 853.666 319.187 853.666 319.576V324H851.762V315.808ZM859.807 324C859.365 324 858.978 323.917 858.647 323.752C858.322 323.587 858.071 323.349 857.895 323.04C857.725 322.725 857.639 322.357 857.639 321.936V313.76H859.543V315.808H861.463L861.455 317.448H859.535L859.543 321.704C859.543 321.907 859.602 322.067 859.719 322.184C859.837 322.301 859.997 322.36 860.199 322.36H861.455V324H859.807ZM862.919 325H864.063C864.277 325 864.463 324.944 864.623 324.832C864.783 324.72 864.906 324.565 864.991 324.368L865.383 323.52L862.231 315.808H864.207L866.327 321.312L868.271 315.808H870.199L866.799 324.552C866.639 324.957 866.445 325.307 866.215 325.6C865.991 325.899 865.711 326.133 865.375 326.304C865.039 326.475 864.645 326.56 864.191 326.56H862.919V325Z" fill="#19191C"/>
<path d="M418.865 288.8V298.168H424.289V300H416.913V288.8H418.865ZM429.288 300.192C428.472 300.192 427.733 300.008 427.072 299.64C426.416 299.272 425.901 298.763 425.528 298.112C425.154 297.456 424.968 296.72 424.968 295.904C424.968 295.088 425.154 294.355 425.528 293.704C425.901 293.048 426.418 292.536 427.08 292.168C427.741 291.8 428.48 291.616 429.296 291.616C430.112 291.616 430.848 291.8 431.504 292.168C432.16 292.536 432.674 293.045 433.048 293.696C433.421 294.347 433.608 295.083 433.608 295.904C433.608 296.725 433.421 297.461 433.048 298.112C432.674 298.763 432.16 299.272 431.504 299.64C430.848 300.008 430.109 300.192 429.288 300.192ZM429.304 298.48C429.746 298.48 430.144 298.373 430.496 298.16C430.848 297.941 431.125 297.637 431.328 297.248C431.53 296.859 431.632 296.411 431.632 295.904C431.632 295.397 431.53 294.949 431.328 294.56C431.125 294.165 430.845 293.861 430.488 293.648C430.136 293.429 429.738 293.32 429.296 293.32C428.853 293.32 428.45 293.429 428.088 293.648C427.73 293.861 427.45 294.165 427.248 294.56C427.045 294.949 426.944 295.397 426.944 295.904C426.944 296.411 427.045 296.859 427.248 297.248C427.45 297.637 427.73 297.941 428.088 298.16C428.45 298.373 428.856 298.48 429.304 298.48ZM442.545 300H440.697V296.592H441.241C441.241 297.323 441.116 297.96 440.865 298.504C440.614 299.043 440.254 299.459 439.785 299.752C439.321 300.045 438.774 300.192 438.145 300.192C437.558 300.192 437.041 300.064 436.593 299.808C436.145 299.552 435.793 299.181 435.537 298.696C435.286 298.205 435.161 297.627 435.161 296.96V291.808H437.065V296.672C437.065 297.056 437.132 297.387 437.265 297.664C437.404 297.941 437.601 298.155 437.857 298.304C438.113 298.448 438.414 298.52 438.761 298.52C439.134 298.52 439.462 298.437 439.745 298.272C440.033 298.107 440.254 297.875 440.409 297.576C440.569 297.277 440.649 296.936 440.649 296.552V291.808H442.545V300ZM444.881 291.808H446.729V295.216H446.185C446.185 294.485 446.31 293.851 446.561 293.312C446.812 292.768 447.169 292.349 447.633 292.056C448.102 291.763 448.652 291.616 449.281 291.616C449.868 291.616 450.385 291.744 450.833 292C451.281 292.256 451.63 292.629 451.881 293.12C452.137 293.605 452.265 294.181 452.265 294.848V300H450.361V295.136C450.361 294.752 450.292 294.421 450.153 294.144C450.02 293.867 449.825 293.656 449.569 293.512C449.313 293.363 449.012 293.288 448.665 293.288C448.292 293.288 447.961 293.371 447.673 293.536C447.39 293.701 447.169 293.933 447.009 294.232C446.854 294.531 446.777 294.872 446.777 295.256V300H444.881V291.808ZM458.009 302.752C457.348 302.752 456.745 302.648 456.201 302.44C455.657 302.237 455.212 301.949 454.865 301.576C454.524 301.208 454.313 300.787 454.233 300.312H456.089C456.18 300.504 456.318 300.669 456.505 300.808C456.692 300.952 456.908 301.059 457.153 301.128C457.404 301.203 457.665 301.24 457.937 301.24C458.369 301.24 458.745 301.152 459.065 300.976C459.39 300.8 459.638 300.555 459.809 300.24C459.985 299.925 460.073 299.56 460.073 299.144V298.784L460.145 296.424L460.809 295.736C460.798 296.451 460.649 297.083 460.361 297.632C460.073 298.181 459.676 298.608 459.169 298.912C458.668 299.211 458.1 299.36 457.465 299.36C456.782 299.36 456.166 299.195 455.617 298.864C455.073 298.528 454.644 298.067 454.329 297.48C454.014 296.893 453.857 296.232 453.857 295.496C453.857 294.76 454.014 294.099 454.329 293.512C454.644 292.925 455.073 292.464 455.617 292.128C456.166 291.792 456.782 291.624 457.465 291.624C458.1 291.624 458.668 291.779 459.169 292.088C459.676 292.392 460.073 292.821 460.361 293.376C460.649 293.931 460.798 294.565 460.809 295.28L460.145 294.656V291.808H461.993L461.969 299.144C461.969 299.853 461.804 300.483 461.473 301.032C461.142 301.581 460.676 302.005 460.073 302.304C459.476 302.603 458.788 302.752 458.009 302.752ZM457.945 297.76C458.35 297.76 458.716 297.661 459.041 297.464C459.366 297.267 459.622 296.997 459.809 296.656C460.001 296.309 460.097 295.923 460.097 295.496C460.097 295.069 460.001 294.685 459.809 294.344C459.622 293.997 459.366 293.725 459.041 293.528C458.716 293.331 458.35 293.232 457.945 293.232C457.54 293.232 457.172 293.331 456.841 293.528C456.516 293.725 456.262 293.997 456.081 294.344C455.9 294.685 455.809 295.069 455.809 295.496C455.809 295.923 455.9 296.309 456.081 296.656C456.262 296.997 456.516 297.267 456.841 297.464C457.172 297.661 457.54 297.76 457.945 297.76ZM467.911 300.192C467.111 300.192 466.391 300.008 465.751 299.64C465.117 299.272 464.621 298.763 464.263 298.112C463.906 297.456 463.727 296.717 463.727 295.896C463.727 295.085 463.909 294.355 464.271 293.704C464.634 293.048 465.133 292.536 465.767 292.168C466.402 291.8 467.117 291.616 467.911 291.616C468.717 291.616 469.426 291.8 470.039 292.168C470.653 292.531 471.125 293.037 471.455 293.688C471.786 294.339 471.951 295.075 471.951 295.896V296.416H465.655L465.671 295.992C465.671 296.493 465.77 296.941 465.967 297.336C466.17 297.725 466.445 298.029 466.791 298.248C467.143 298.461 467.541 298.568 467.983 298.568C468.293 298.568 468.573 298.539 468.823 298.48C469.074 298.416 469.29 298.323 469.471 298.2C469.658 298.077 469.81 297.931 469.927 297.76H471.807C471.717 298.16 471.503 298.547 471.167 298.92C470.837 299.288 470.389 299.592 469.823 299.832C469.263 300.072 468.626 300.192 467.911 300.192ZM465.655 295.096H470.047V295.72C470.047 295.224 469.965 294.787 469.799 294.408C469.639 294.024 469.399 293.725 469.079 293.512C468.759 293.299 468.373 293.192 467.919 293.192C467.477 293.192 467.085 293.296 466.743 293.504C466.407 293.707 466.143 293.997 465.951 294.376C465.765 294.749 465.671 295.184 465.671 295.68L465.655 295.096Z" fill="#19191C"/>
<path d="M338.64 411.064H340.76L343.728 416H341.504L338.64 411.064ZM335.08 404.8H339.816C340.584 404.8 341.259 404.941 341.84 405.224C342.422 405.507 342.87 405.907 343.184 406.424C343.504 406.936 343.664 407.531 343.664 408.208C343.664 408.891 343.502 409.493 343.176 410.016C342.856 410.539 342.4 410.944 341.808 411.232C341.222 411.515 340.536 411.656 339.752 411.656H337.04V416H335.08V404.8ZM339.712 409.984C340.096 409.984 340.432 409.912 340.72 409.768C341.008 409.624 341.23 409.421 341.384 409.16C341.544 408.893 341.624 408.581 341.624 408.224C341.624 407.872 341.544 407.565 341.384 407.304C341.23 407.037 341.008 406.835 340.72 406.696C340.432 406.552 340.096 406.48 339.712 406.48H337.04V409.984H339.712ZM348.732 416.192C347.916 416.192 347.177 416.008 346.516 415.64C345.86 415.272 345.345 414.763 344.972 414.112C344.598 413.456 344.412 412.72 344.412 411.904C344.412 411.088 344.598 410.355 344.972 409.704C345.345 409.048 345.862 408.536 346.524 408.168C347.185 407.8 347.924 407.616 348.74 407.616C349.556 407.616 350.292 407.8 350.948 408.168C351.604 408.536 352.118 409.045 352.492 409.696C352.865 410.347 353.052 411.083 353.052 411.904C353.052 412.725 352.865 413.461 352.492 414.112C352.118 414.763 351.604 415.272 350.948 415.64C350.292 416.008 349.553 416.192 348.732 416.192ZM348.748 414.48C349.19 414.48 349.588 414.373 349.94 414.16C350.292 413.941 350.569 413.637 350.772 413.248C350.974 412.859 351.076 412.411 351.076 411.904C351.076 411.397 350.974 410.949 350.772 410.56C350.569 410.165 350.289 409.861 349.932 409.648C349.58 409.429 349.182 409.32 348.74 409.32C348.297 409.32 347.894 409.429 347.532 409.648C347.174 409.861 346.894 410.165 346.692 410.56C346.489 410.949 346.388 411.397 346.388 411.904C346.388 412.411 346.489 412.859 346.692 413.248C346.894 413.637 347.174 413.941 347.532 414.16C347.894 414.373 348.3 414.48 348.748 414.48ZM358.263 416.192C357.447 416.192 356.708 416.008 356.047 415.64C355.391 415.272 354.876 414.763 354.503 414.112C354.13 413.456 353.943 412.72 353.943 411.904C353.943 411.088 354.13 410.355 354.503 409.704C354.876 409.048 355.394 408.536 356.055 408.168C356.716 407.8 357.455 407.616 358.271 407.616C359.087 407.616 359.823 407.8 360.479 408.168C361.135 408.536 361.65 409.045 362.023 409.696C362.396 410.347 362.583 411.083 362.583 411.904C362.583 412.725 362.396 413.461 362.023 414.112C361.65 414.763 361.135 415.272 360.479 415.64C359.823 416.008 359.084 416.192 358.263 416.192ZM358.279 414.48C358.722 414.48 359.119 414.373 359.471 414.16C359.823 413.941 360.1 413.637 360.303 413.248C360.506 412.859 360.607 412.411 360.607 411.904C360.607 411.397 360.506 410.949 360.303 410.56C360.1 410.165 359.82 409.861 359.463 409.648C359.111 409.429 358.714 409.32 358.271 409.32C357.828 409.32 357.426 409.429 357.063 409.648C356.706 409.861 356.426 410.165 356.223 410.56C356.02 410.949 355.919 411.397 355.919 411.904C355.919 412.411 356.02 412.859 356.223 413.248C356.426 413.637 356.706 413.941 357.063 414.16C357.426 414.373 357.831 414.48 358.279 414.48ZM364.066 407.808H365.914V411.216H365.434C365.44 410.48 365.557 409.843 365.786 409.304C366.021 408.76 366.354 408.344 366.786 408.056C367.224 407.763 367.738 407.616 368.33 407.616C368.912 407.616 369.413 407.749 369.834 408.016C370.256 408.277 370.578 408.651 370.802 409.136C371.032 409.621 371.146 410.187 371.146 410.832V416H369.29V411.056C369.29 410.693 369.229 410.379 369.106 410.112C368.984 409.845 368.802 409.64 368.562 409.496C368.328 409.352 368.048 409.28 367.722 409.28C367.37 409.28 367.061 409.36 366.794 409.52C366.528 409.68 366.322 409.909 366.178 410.208C366.04 410.501 365.97 410.848 365.97 411.248V416H364.066V407.808ZM374.474 411.056C374.474 410.693 374.41 410.379 374.282 410.112C374.16 409.845 373.981 409.64 373.746 409.496C373.517 409.352 373.237 409.28 372.906 409.28C372.554 409.28 372.245 409.363 371.978 409.528C371.717 409.688 371.512 409.915 371.362 410.208C371.218 410.501 371.146 410.848 371.146 411.248L370.362 411.216C370.362 410.501 370.49 409.872 370.746 409.328C371.002 408.784 371.365 408.363 371.834 408.064C372.304 407.765 372.85 407.616 373.474 407.616C374.056 407.616 374.565 407.749 375.002 408.016C375.445 408.277 375.784 408.651 376.018 409.136C376.258 409.621 376.378 410.187 376.378 410.832V416H374.474V411.056ZM351.591 430.456L356.135 426.376C356.53 426.013 356.82 425.659 357.007 425.312C357.194 424.965 357.287 424.6 357.287 424.216C357.287 423.848 357.204 423.525 357.039 423.248C356.879 422.965 356.65 422.747 356.351 422.592C356.058 422.437 355.722 422.36 355.343 422.36C354.932 422.36 354.567 422.448 354.247 422.624C353.927 422.8 353.679 423.045 353.503 423.36C353.327 423.675 353.239 424.035 353.239 424.44H351.263C351.263 423.709 351.439 423.053 351.791 422.472C352.143 421.885 352.631 421.429 353.255 421.104C353.879 420.773 354.583 420.608 355.367 420.608C356.114 420.608 356.786 420.757 357.383 421.056C357.98 421.349 358.447 421.76 358.783 422.288C359.119 422.811 359.284 423.403 359.279 424.064C359.279 424.693 359.116 425.291 358.791 425.856C358.466 426.421 357.962 427.003 357.279 427.6L354.359 430.248H359.583V432H351.599L351.591 430.456Z" fill="#19191C"/>
<path d="M516.64 411.064H518.76L521.728 416H519.504L516.64 411.064ZM513.08 404.8H517.816C518.584 404.8 519.259 404.941 519.84 405.224C520.422 405.507 520.87 405.907 521.184 406.424C521.504 406.936 521.664 407.531 521.664 408.208C521.664 408.891 521.502 409.493 521.176 410.016C520.856 410.539 520.4 410.944 519.808 411.232C519.222 411.515 518.536 411.656 517.752 411.656H515.04V416H513.08V404.8ZM517.712 409.984C518.096 409.984 518.432 409.912 518.72 409.768C519.008 409.624 519.23 409.421 519.384 409.16C519.544 408.893 519.624 408.581 519.624 408.224C519.624 407.872 519.544 407.565 519.384 407.304C519.23 407.037 519.008 406.835 518.72 406.696C518.432 406.552 518.096 406.48 517.712 406.48H515.04V409.984H517.712ZM526.732 416.192C525.916 416.192 525.177 416.008 524.516 415.64C523.86 415.272 523.345 414.763 522.972 414.112C522.598 413.456 522.412 412.72 522.412 411.904C522.412 411.088 522.598 410.355 522.972 409.704C523.345 409.048 523.862 408.536 524.524 408.168C525.185 407.8 525.924 407.616 526.74 407.616C527.556 407.616 528.292 407.8 528.948 408.168C529.604 408.536 530.118 409.045 530.492 409.696C530.865 410.347 531.052 411.083 531.052 411.904C531.052 412.725 530.865 413.461 530.492 414.112C530.118 414.763 529.604 415.272 528.948 415.64C528.292 416.008 527.553 416.192 526.732 416.192ZM526.748 414.48C527.19 414.48 527.588 414.373 527.94 414.16C528.292 413.941 528.569 413.637 528.772 413.248C528.974 412.859 529.076 412.411 529.076 411.904C529.076 411.397 528.974 410.949 528.772 410.56C528.569 410.165 528.289 409.861 527.932 409.648C527.58 409.429 527.182 409.32 526.74 409.32C526.297 409.32 525.894 409.429 525.532 409.648C525.174 409.861 524.894 410.165 524.692 410.56C524.489 410.949 524.388 411.397 524.388 411.904C524.388 412.411 524.489 412.859 524.692 413.248C524.894 413.637 525.174 413.941 525.532 414.16C525.894 414.373 526.3 414.48 526.748 414.48ZM536.263 416.192C535.447 416.192 534.708 416.008 534.047 415.64C533.391 415.272 532.876 414.763 532.503 414.112C532.13 413.456 531.943 412.72 531.943 411.904C531.943 411.088 532.13 410.355 532.503 409.704C532.876 409.048 533.394 408.536 534.055 408.168C534.716 407.8 535.455 407.616 536.271 407.616C537.087 407.616 537.823 407.8 538.479 408.168C539.135 408.536 539.65 409.045 540.023 409.696C540.396 410.347 540.583 411.083 540.583 411.904C540.583 412.725 540.396 413.461 540.023 414.112C539.65 414.763 539.135 415.272 538.479 415.64C537.823 416.008 537.084 416.192 536.263 416.192ZM536.279 414.48C536.722 414.48 537.119 414.373 537.471 414.16C537.823 413.941 538.1 413.637 538.303 413.248C538.506 412.859 538.607 412.411 538.607 411.904C538.607 411.397 538.506 410.949 538.303 410.56C538.1 410.165 537.82 409.861 537.463 409.648C537.111 409.429 536.714 409.32 536.271 409.32C535.828 409.32 535.426 409.429 535.063 409.648C534.706 409.861 534.426 410.165 534.223 410.56C534.02 410.949 533.919 411.397 533.919 411.904C533.919 412.411 534.02 412.859 534.223 413.248C534.426 413.637 534.706 413.941 535.063 414.16C535.426 414.373 535.831 414.48 536.279 414.48ZM542.066 407.808H543.914V411.216H543.434C543.44 410.48 543.557 409.843 543.786 409.304C544.021 408.76 544.354 408.344 544.786 408.056C545.224 407.763 545.738 407.616 546.33 407.616C546.912 407.616 547.413 407.749 547.834 408.016C548.256 408.277 548.578 408.651 548.802 409.136C549.032 409.621 549.146 410.187 549.146 410.832V416H547.29V411.056C547.29 410.693 547.229 410.379 547.106 410.112C546.984 409.845 546.802 409.64 546.562 409.496C546.328 409.352 546.048 409.28 545.722 409.28C545.37 409.28 545.061 409.36 544.794 409.52C544.528 409.68 544.322 409.909 544.178 410.208C544.04 410.501 543.97 410.848 543.97 411.248V416H542.066V407.808ZM552.474 411.056C552.474 410.693 552.41 410.379 552.282 410.112C552.16 409.845 551.981 409.64 551.746 409.496C551.517 409.352 551.237 409.28 550.906 409.28C550.554 409.28 550.245 409.363 549.978 409.528C549.717 409.688 549.512 409.915 549.362 410.208C549.218 410.501 549.146 410.848 549.146 411.248L548.362 411.216C548.362 410.501 548.49 409.872 548.746 409.328C549.002 408.784 549.365 408.363 549.834 408.064C550.304 407.765 550.85 407.616 551.474 407.616C552.056 407.616 552.565 407.749 553.002 408.016C553.445 408.277 553.784 408.651 554.018 409.136C554.258 409.621 554.378 410.187 554.378 410.832V416H552.474V411.056ZM533.247 432.192C532.468 432.192 531.767 432.045 531.143 431.752C530.524 431.453 530.031 431.04 529.663 430.512C529.3 429.984 529.111 429.384 529.095 428.712H531.079C531.1 429.053 531.207 429.36 531.399 429.632C531.596 429.904 531.858 430.117 532.183 430.272C532.508 430.421 532.868 430.496 533.263 430.496C533.679 430.496 534.052 430.411 534.383 430.24C534.719 430.069 534.98 429.832 535.167 429.528C535.354 429.224 535.447 428.883 535.447 428.504C535.447 428.109 535.351 427.76 535.159 427.456C534.967 427.147 534.703 426.907 534.367 426.736C534.031 426.565 533.647 426.48 533.215 426.48H531.799V425.056L534.639 422.464H529.687V420.8H537.039V422.256L533.247 425.68V424.984C534.058 424.968 534.78 425.109 535.415 425.408C536.05 425.707 536.546 426.131 536.903 426.68C537.26 427.229 537.439 427.856 537.439 428.56C537.439 429.264 537.26 429.891 536.903 430.44C536.546 430.989 536.05 431.419 535.415 431.728C534.78 432.037 534.058 432.192 533.247 432.192Z" fill="#19191C"/>
<path d="M774.027 707.192C773.227 707.192 772.518 707.048 771.899 706.76C771.28 706.467 770.798 706.059 770.451 705.536C770.104 705.013 769.926 704.411 769.915 703.728H771.907C771.907 704.075 771.995 704.381 772.171 704.648C772.352 704.915 772.606 705.123 772.931 705.272C773.262 705.421 773.635 705.496 774.051 705.496C774.462 705.496 774.819 705.429 775.123 705.296C775.432 705.157 775.672 704.968 775.843 704.728C776.014 704.483 776.099 704.2 776.099 703.88C776.099 703.48 775.976 703.136 775.731 702.848C775.491 702.56 775.171 702.381 774.771 702.312L772.851 701.992C772.312 701.901 771.843 701.712 771.443 701.424C771.043 701.131 770.734 700.765 770.515 700.328C770.302 699.885 770.195 699.405 770.195 698.888C770.195 698.259 770.355 697.696 770.675 697.2C771 696.704 771.454 696.315 772.035 696.032C772.616 695.749 773.275 695.608 774.011 695.608C774.763 695.608 775.43 695.747 776.011 696.024C776.598 696.296 777.054 696.677 777.379 697.168C777.704 697.653 777.87 698.211 777.875 698.84H775.891C775.891 698.541 775.814 698.277 775.659 698.048C775.504 697.813 775.286 697.632 775.003 697.504C774.726 697.371 774.403 697.304 774.035 697.304C773.672 697.304 773.35 697.368 773.067 697.496C772.79 697.619 772.571 697.792 772.411 698.016C772.256 698.24 772.179 698.501 772.179 698.8C772.179 699.147 772.291 699.448 772.515 699.704C772.744 699.955 773.043 700.112 773.411 700.176L775.275 700.48C775.83 700.571 776.32 700.776 776.747 701.096C777.179 701.416 777.512 701.811 777.747 702.28C777.987 702.749 778.107 703.251 778.107 703.784C778.107 704.429 777.936 705.011 777.595 705.528C777.254 706.045 776.771 706.453 776.147 706.752C775.528 707.045 774.822 707.192 774.027 707.192ZM778.693 698.808H780.661L782.261 703.944L782.445 704.704L782.605 703.944L784.285 698.808H786.021L787.733 703.944L787.917 704.704L788.077 703.944L789.645 698.808H791.549L788.893 707H787.005L785.309 701.664L785.149 701.024L785.013 701.648L783.277 707H781.357L778.693 698.808ZM795.776 698.616C796.448 698.616 797.037 698.736 797.544 698.976C798.056 699.211 798.453 699.552 798.736 700C799.018 700.443 799.16 700.968 799.16 701.576V707H797.32L797.312 703.936H797.752C797.752 704.608 797.629 705.189 797.384 705.68C797.144 706.165 796.794 706.539 796.336 706.8C795.882 707.061 795.344 707.192 794.72 707.192C794.192 707.192 793.717 707.093 793.296 706.896C792.88 706.693 792.554 706.413 792.32 706.056C792.085 705.693 791.968 705.283 791.968 704.824C791.968 704.387 792.08 703.984 792.304 703.616C792.533 703.248 792.848 702.947 793.248 702.712C793.653 702.472 794.112 702.325 794.624 702.272L796.76 702.048C796.93 702.032 797.061 701.971 797.152 701.864C797.248 701.757 797.296 701.603 797.296 701.4L797.384 703.2L795.08 703.464C794.845 703.485 794.64 703.547 794.464 703.648C794.288 703.749 794.149 703.883 794.048 704.048C793.952 704.208 793.904 704.395 793.904 704.608C793.904 704.832 793.962 705.032 794.08 705.208C794.202 705.384 794.373 705.52 794.592 705.616C794.81 705.712 795.058 705.76 795.336 705.76C795.725 705.76 796.066 705.685 796.36 705.536C796.653 705.381 796.882 705.165 797.048 704.888C797.213 704.611 797.296 704.293 797.296 703.936V701.416C797.296 701.155 797.229 700.925 797.096 700.728C796.962 700.531 796.778 700.379 796.544 700.272C796.309 700.16 796.037 700.104 795.728 700.104C795.424 700.104 795.149 700.157 794.904 700.264C794.658 700.365 794.461 700.504 794.312 700.68C794.162 700.856 794.074 701.051 794.048 701.264H792.168C792.221 700.752 792.41 700.296 792.736 699.896C793.061 699.496 793.488 699.184 794.016 698.96C794.544 698.731 795.13 698.616 795.776 698.616ZM804.659 709.752C803.997 709.752 803.395 709.648 802.851 709.44C802.307 709.237 801.861 708.949 801.515 708.576C801.173 708.208 800.963 707.787 800.883 707.312H802.739C802.829 707.504 802.968 707.669 803.155 707.808C803.341 707.952 803.557 708.059 803.803 708.128C804.053 708.203 804.315 708.24 804.587 708.24C805.019 708.24 805.395 708.152 805.715 707.976C806.04 707.8 806.288 707.555 806.459 707.24C806.635 706.925 806.723 706.56 806.723 706.144V705.784L806.795 703.424L807.459 702.736C807.448 703.451 807.299 704.083 807.011 704.632C806.723 705.181 806.325 705.608 805.819 705.912C805.317 706.211 804.749 706.36 804.115 706.36C803.432 706.36 802.816 706.195 802.267 705.864C801.723 705.528 801.293 705.067 800.979 704.48C800.664 703.893 800.507 703.232 800.507 702.496C800.507 701.76 800.664 701.099 800.979 700.512C801.293 699.925 801.723 699.464 802.267 699.128C802.816 698.792 803.432 698.624 804.115 698.624C804.749 698.624 805.317 698.779 805.819 699.088C806.325 699.392 806.723 699.821 807.011 700.376C807.299 700.931 807.448 701.565 807.459 702.28L806.795 701.656V698.808H808.643L808.619 706.144C808.619 706.853 808.453 707.483 808.123 708.032C807.792 708.581 807.325 709.005 806.723 709.304C806.125 709.603 805.437 709.752 804.659 709.752ZM804.595 704.76C805 704.76 805.365 704.661 805.691 704.464C806.016 704.267 806.272 703.997 806.459 703.656C806.651 703.309 806.747 702.923 806.747 702.496C806.747 702.069 806.651 701.685 806.459 701.344C806.272 700.997 806.016 700.725 805.691 700.528C805.365 700.331 805 700.232 804.595 700.232C804.189 700.232 803.821 700.331 803.491 700.528C803.165 700.725 802.912 700.997 802.731 701.344C802.549 701.685 802.459 702.069 802.459 702.496C802.459 702.923 802.549 703.309 802.731 703.656C802.912 703.997 803.165 704.267 803.491 704.464C803.821 704.661 804.189 704.76 804.595 704.76Z" fill="#19191C"/>
<path d="M420.418 193.064H422.538L425.506 198H423.282L420.418 193.064ZM416.858 186.8H421.594C422.362 186.8 423.037 186.941 423.618 187.224C424.2 187.507 424.648 187.907 424.962 188.424C425.282 188.936 425.442 189.531 425.442 190.208C425.442 190.891 425.28 191.493 424.954 192.016C424.634 192.539 424.178 192.944 423.586 193.232C423 193.515 422.314 193.656 421.53 193.656H418.818V198H416.858V186.8ZM421.49 191.984C421.874 191.984 422.21 191.912 422.498 191.768C422.786 191.624 423.008 191.421 423.162 191.16C423.322 190.893 423.402 190.581 423.402 190.224C423.402 189.872 423.322 189.565 423.162 189.304C423.008 189.037 422.786 188.835 422.498 188.696C422.21 188.552 421.874 188.48 421.49 188.48H418.818V191.984H421.49ZM430.78 198.192C429.964 198.192 429.225 198.008 428.564 197.64C427.908 197.272 427.393 196.763 427.02 196.112C426.647 195.456 426.46 194.72 426.46 193.904C426.46 193.088 426.647 192.355 427.02 191.704C427.393 191.048 427.911 190.536 428.572 190.168C429.233 189.8 429.972 189.616 430.788 189.616C431.604 189.616 432.34 189.8 432.996 190.168C433.652 190.536 434.167 191.045 434.54 191.696C434.913 192.347 435.1 193.083 435.1 193.904C435.1 194.725 434.913 195.461 434.54 196.112C434.167 196.763 433.652 197.272 432.996 197.64C432.34 198.008 431.601 198.192 430.78 198.192ZM430.796 196.48C431.239 196.48 431.636 196.373 431.988 196.16C432.34 195.941 432.617 195.637 432.82 195.248C433.023 194.859 433.124 194.411 433.124 193.904C433.124 193.397 433.023 192.949 432.82 192.56C432.617 192.165 432.337 191.861 431.98 191.648C431.628 191.429 431.231 191.32 430.788 191.32C430.345 191.32 429.943 191.429 429.58 191.648C429.223 191.861 428.943 192.165 428.74 192.56C428.537 192.949 428.436 193.397 428.436 193.904C428.436 194.411 428.537 194.859 428.74 195.248C428.943 195.637 429.223 195.941 429.58 196.16C429.943 196.373 430.348 196.48 430.796 196.48ZM440.581 198.192C439.765 198.192 439.026 198.008 438.365 197.64C437.709 197.272 437.194 196.763 436.821 196.112C436.448 195.456 436.261 194.72 436.261 193.904C436.261 193.088 436.448 192.355 436.821 191.704C437.194 191.048 437.712 190.536 438.373 190.168C439.034 189.8 439.773 189.616 440.589 189.616C441.405 189.616 442.141 189.8 442.797 190.168C443.453 190.536 443.968 191.045 444.341 191.696C444.714 192.347 444.901 193.083 444.901 193.904C444.901 194.725 444.714 195.461 444.341 196.112C443.968 196.763 443.453 197.272 442.797 197.64C442.141 198.008 441.402 198.192 440.581 198.192ZM440.597 196.48C441.04 196.48 441.437 196.373 441.789 196.16C442.141 195.941 442.418 195.637 442.621 195.248C442.824 194.859 442.925 194.411 442.925 193.904C442.925 193.397 442.824 192.949 442.621 192.56C442.418 192.165 442.138 191.861 441.781 191.648C441.429 191.429 441.032 191.32 440.589 191.32C440.146 191.32 439.744 191.429 439.381 191.648C439.024 191.861 438.744 192.165 438.541 192.56C438.338 192.949 438.237 193.397 438.237 193.904C438.237 194.411 438.338 194.859 438.541 195.248C438.744 195.637 439.024 195.941 439.381 196.16C439.744 196.373 440.149 196.48 440.597 196.48ZM446.654 189.808H448.502V193.216H448.022C448.028 192.48 448.145 191.843 448.374 191.304C448.609 190.76 448.942 190.344 449.374 190.056C449.812 189.763 450.326 189.616 450.918 189.616C451.5 189.616 452.001 189.749 452.422 190.016C452.844 190.277 453.166 190.651 453.39 191.136C453.62 191.621 453.734 192.187 453.734 192.832V198H451.878V193.056C451.878 192.693 451.817 192.379 451.694 192.112C451.572 191.845 451.39 191.64 451.15 191.496C450.916 191.352 450.636 191.28 450.31 191.28C449.958 191.28 449.649 191.36 449.382 191.52C449.116 191.68 448.91 191.909 448.766 192.208C448.628 192.501 448.558 192.848 448.558 193.248V198H446.654V189.808ZM457.062 193.056C457.062 192.693 456.998 192.379 456.87 192.112C456.748 191.845 456.569 191.64 456.334 191.496C456.105 191.352 455.825 191.28 455.494 191.28C455.142 191.28 454.833 191.363 454.566 191.528C454.305 191.688 454.1 191.915 453.95 192.208C453.806 192.501 453.734 192.848 453.734 193.248L452.95 193.216C452.95 192.501 453.078 191.872 453.334 191.328C453.59 190.784 453.953 190.363 454.422 190.064C454.892 189.765 455.438 189.616 456.062 189.616C456.644 189.616 457.153 189.749 457.59 190.016C458.033 190.277 458.372 190.651 458.606 191.136C458.846 191.621 458.966 192.187 458.966 192.832V198H457.062V193.056ZM468.637 198.192C467.906 198.192 467.24 198.059 466.637 197.792C466.04 197.52 465.554 197.147 465.181 196.672C464.813 196.197 464.594 195.664 464.525 195.072H466.509C466.568 195.339 466.696 195.581 466.893 195.8C467.096 196.019 467.346 196.192 467.645 196.32C467.949 196.443 468.277 196.504 468.629 196.504C469.061 196.504 469.44 196.411 469.765 196.224C470.096 196.037 470.352 195.773 470.533 195.432C470.714 195.091 470.805 194.699 470.805 194.256C470.805 193.808 470.714 193.413 470.533 193.072C470.352 192.731 470.096 192.467 469.765 192.28C469.44 192.093 469.061 192 468.629 192C468.341 192 468.066 192.051 467.805 192.152C467.549 192.253 467.325 192.387 467.133 192.552C466.946 192.712 466.808 192.877 466.717 193.048H464.853L465.357 186.8H472.141V188.488H466.901L466.637 191.552C466.781 191.333 466.984 191.141 467.245 190.976C467.506 190.811 467.797 190.685 468.117 190.6C468.437 190.509 468.752 190.464 469.061 190.464C469.781 190.464 470.424 190.627 470.989 190.952C471.554 191.272 471.997 191.723 472.317 192.304C472.637 192.88 472.797 193.536 472.797 194.272C472.797 195.035 472.621 195.715 472.269 196.312C471.922 196.904 471.434 197.365 470.805 197.696C470.176 198.027 469.453 198.192 468.637 198.192Z" fill="#19191C"/>
<path d="M227.723 910.064H229.843L232.811 915H230.587L227.723 910.064ZM224.163 903.8H228.899C229.667 903.8 230.342 903.941 230.923 904.224C231.504 904.507 231.952 904.907 232.267 905.424C232.587 905.936 232.747 906.531 232.747 907.208C232.747 907.891 232.584 908.493 232.259 909.016C231.939 909.539 231.483 909.944 230.891 910.232C230.304 910.515 229.619 910.656 228.835 910.656H226.123V915H224.163V903.8ZM228.795 908.984C229.179 908.984 229.515 908.912 229.803 908.768C230.091 908.624 230.312 908.421 230.467 908.16C230.627 907.893 230.707 907.581 230.707 907.224C230.707 906.872 230.627 906.565 230.467 906.304C230.312 906.037 230.091 905.835 229.803 905.696C229.515 905.552 229.179 905.48 228.795 905.48H226.123V908.984H228.795ZM238.085 915.192C237.269 915.192 236.53 915.008 235.869 914.64C235.213 914.272 234.698 913.763 234.325 913.112C233.951 912.456 233.765 911.72 233.765 910.904C233.765 910.088 233.951 909.355 234.325 908.704C234.698 908.048 235.215 907.536 235.877 907.168C236.538 906.8 237.277 906.616 238.093 906.616C238.909 906.616 239.645 906.8 240.301 907.168C240.957 907.536 241.471 908.045 241.845 908.696C242.218 909.347 242.405 910.083 242.405 910.904C242.405 911.725 242.218 912.461 241.845 913.112C241.471 913.763 240.957 914.272 240.301 914.64C239.645 915.008 238.906 915.192 238.085 915.192ZM238.101 913.48C238.543 913.48 238.941 913.373 239.293 913.16C239.645 912.941 239.922 912.637 240.125 912.248C240.327 911.859 240.429 911.411 240.429 910.904C240.429 910.397 240.327 909.949 240.125 909.56C239.922 909.165 239.642 908.861 239.285 908.648C238.933 908.429 238.535 908.32 238.093 908.32C237.65 908.32 237.247 908.429 236.885 908.648C236.527 908.861 236.247 909.165 236.045 909.56C235.842 909.949 235.741 910.397 235.741 910.904C235.741 911.411 235.842 911.859 236.045 912.248C236.247 912.637 236.527 912.941 236.885 913.16C237.247 913.373 237.653 913.48 238.101 913.48ZM247.886 915.192C247.07 915.192 246.331 915.008 245.67 914.64C245.014 914.272 244.499 913.763 244.126 913.112C243.752 912.456 243.566 911.72 243.566 910.904C243.566 910.088 243.752 909.355 244.126 908.704C244.499 908.048 245.016 907.536 245.678 907.168C246.339 906.8 247.078 906.616 247.894 906.616C248.71 906.616 249.446 906.8 250.102 907.168C250.758 907.536 251.272 908.045 251.646 908.696C252.019 909.347 252.206 910.083 252.206 910.904C252.206 911.725 252.019 912.461 251.646 913.112C251.272 913.763 250.758 914.272 250.102 914.64C249.446 915.008 248.707 915.192 247.886 915.192ZM247.902 913.48C248.344 913.48 248.742 913.373 249.094 913.16C249.446 912.941 249.723 912.637 249.926 912.248C250.128 911.859 250.23 911.411 250.23 910.904C250.23 910.397 250.128 909.949 249.926 909.56C249.723 909.165 249.443 908.861 249.086 908.648C248.734 908.429 248.336 908.32 247.894 908.32C247.451 908.32 247.048 908.429 246.686 908.648C246.328 908.861 246.048 909.165 245.846 909.56C245.643 909.949 245.542 910.397 245.542 910.904C245.542 911.411 245.643 911.859 245.846 912.248C246.048 912.637 246.328 912.941 246.686 913.16C247.048 913.373 247.454 913.48 247.902 913.48ZM253.959 906.808H255.807V910.216H255.327C255.332 909.48 255.45 908.843 255.679 908.304C255.914 907.76 256.247 907.344 256.679 907.056C257.116 906.763 257.631 906.616 258.223 906.616C258.804 906.616 259.306 906.749 259.727 907.016C260.148 907.277 260.471 907.651 260.695 908.136C260.924 908.621 261.039 909.187 261.039 909.832V915H259.183V910.056C259.183 909.693 259.122 909.379 258.999 909.112C258.876 908.845 258.695 908.64 258.455 908.496C258.22 908.352 257.94 908.28 257.615 908.28C257.263 908.28 256.954 908.36 256.687 908.52C256.42 908.68 256.215 908.909 256.071 909.208C255.932 909.501 255.863 909.848 255.863 910.248V915H253.959V906.808ZM264.367 910.056C264.367 909.693 264.303 909.379 264.175 909.112C264.052 908.845 263.874 908.64 263.639 908.496C263.41 908.352 263.13 908.28 262.799 908.28C262.447 908.28 262.138 908.363 261.871 908.528C261.61 908.688 261.404 908.915 261.255 909.208C261.111 909.501 261.039 909.848 261.039 910.248L260.255 910.216C260.255 909.501 260.383 908.872 260.639 908.328C260.895 907.784 261.258 907.363 261.727 907.064C262.196 906.765 262.743 906.616 263.367 906.616C263.948 906.616 264.458 906.749 264.895 907.016C265.338 907.277 265.676 907.651 265.911 908.136C266.151 908.621 266.271 909.187 266.271 909.832V915H264.367V910.056ZM273.6 907.128H270.968V905.496H272.448C272.778 905.496 273.066 905.427 273.312 905.288C273.562 905.149 273.752 904.952 273.88 904.696C274.013 904.44 274.08 904.141 274.08 903.8H274.088H275.56V915H273.6V907.128ZM211.791 919.8H213.927L218.111 931H216.111L215.159 928.304H210.655L209.775 931H207.719L211.791 919.8ZM214.623 926.744L213.007 922.248L212.839 921.552L212.663 922.248L211.151 926.744H214.623ZM226.633 931H224.785V927.592H225.329C225.329 928.323 225.204 928.96 224.953 929.504C224.703 930.043 224.343 930.459 223.873 930.752C223.409 931.045 222.863 931.192 222.233 931.192C221.647 931.192 221.129 931.064 220.681 930.808C220.233 930.552 219.881 930.181 219.625 929.696C219.375 929.205 219.249 928.627 219.249 927.96V922.808H221.153V927.672C221.153 928.056 221.22 928.387 221.353 928.664C221.492 928.941 221.689 929.155 221.945 929.304C222.201 929.448 222.503 929.52 222.849 929.52C223.223 929.52 223.551 929.437 223.833 929.272C224.121 929.107 224.343 928.875 224.497 928.576C224.657 928.277 224.737 927.936 224.737 927.552V922.808H226.633V931ZM234.977 919.8H236.873V931H234.977V919.8ZM232.185 931.192C231.449 931.192 230.793 931.013 230.217 930.656C229.641 930.293 229.191 929.787 228.865 929.136C228.54 928.485 228.377 927.741 228.377 926.904C228.377 926.067 228.54 925.323 228.865 924.672C229.191 924.021 229.641 923.517 230.217 923.16C230.793 922.797 231.449 922.616 232.185 922.616C232.863 922.616 233.457 922.765 233.969 923.064C234.481 923.363 234.879 923.784 235.161 924.328C235.449 924.872 235.599 925.501 235.609 926.216H235.041V927.592H235.609C235.599 928.307 235.449 928.936 235.161 929.48C234.879 930.024 234.481 930.445 233.969 930.744C233.457 931.043 232.863 931.192 232.185 931.192ZM232.657 929.488C233.116 929.488 233.521 929.379 233.873 929.16C234.231 928.941 234.505 928.637 234.697 928.248C234.895 927.859 234.993 927.411 234.993 926.904C234.993 926.397 234.895 925.949 234.697 925.56C234.505 925.171 234.231 924.867 233.873 924.648C233.521 924.429 233.119 924.32 232.665 924.32C232.212 924.32 231.809 924.429 231.457 924.648C231.111 924.867 230.839 925.171 230.641 925.56C230.449 925.949 230.353 926.397 230.353 926.904C230.353 927.411 230.449 927.859 230.641 928.248C230.839 928.637 231.111 928.941 231.457 929.16C231.809 929.379 232.209 929.488 232.657 929.488ZM239.114 922.808H241.018V931H239.114V922.808ZM241.09 919.8V921.608H239.026V919.8H241.09ZM246.241 931C245.798 931 245.404 930.907 245.057 930.72C244.71 930.533 244.438 930.275 244.241 929.944C244.049 929.613 243.953 929.237 243.953 928.816L243.945 924.448H242.505L242.513 922.808H243.409C243.612 922.808 243.774 922.747 243.897 922.624C244.02 922.496 244.081 922.333 244.081 922.136V920.816H245.849V922.808H247.817L247.809 924.448H245.841L245.849 928.584C245.849 928.808 245.921 928.995 246.065 929.144C246.214 929.288 246.401 929.36 246.625 929.36H247.809V931H246.241ZM253.398 931.192C252.582 931.192 251.843 931.008 251.182 930.64C250.526 930.272 250.011 929.763 249.638 929.112C249.265 928.456 249.078 927.72 249.078 926.904C249.078 926.088 249.265 925.355 249.638 924.704C250.011 924.048 250.529 923.536 251.19 923.168C251.851 922.8 252.59 922.616 253.406 922.616C254.222 922.616 254.958 922.8 255.614 923.168C256.27 923.536 256.785 924.045 257.158 924.696C257.531 925.347 257.718 926.083 257.718 926.904C257.718 927.725 257.531 928.461 257.158 929.112C256.785 929.763 256.27 930.272 255.614 930.64C254.958 931.008 254.219 931.192 253.398 931.192ZM253.414 929.48C253.857 929.48 254.254 929.373 254.606 929.16C254.958 928.941 255.235 928.637 255.438 928.248C255.641 927.859 255.742 927.411 255.742 926.904C255.742 926.397 255.641 925.949 255.438 925.56C255.235 925.165 254.955 924.861 254.598 924.648C254.246 924.429 253.849 924.32 253.406 924.32C252.963 924.32 252.561 924.429 252.198 924.648C251.841 924.861 251.561 925.165 251.358 925.56C251.155 925.949 251.054 926.397 251.054 926.904C251.054 927.411 251.155 927.859 251.358 928.248C251.561 928.637 251.841 928.941 252.198 929.16C252.561 929.373 252.966 929.48 253.414 929.48ZM259.471 922.808H261.359V925.984L260.727 926.504C260.749 925.736 260.879 925.069 261.119 924.504C261.365 923.939 261.703 923.507 262.135 923.208C262.573 922.904 263.085 922.752 263.671 922.752H263.975V924.672H263.431C263.015 924.667 262.65 924.741 262.335 924.896C262.026 925.051 261.789 925.272 261.623 925.56C261.458 925.848 261.375 926.187 261.375 926.576V931H259.471V922.808ZM265.413 922.808H267.317V931H265.413V922.808ZM267.389 919.8V921.608H265.325V919.8H267.389ZM276.836 931H274.988V927.592H275.532C275.532 928.323 275.407 928.96 275.156 929.504C274.905 930.043 274.545 930.459 274.076 930.752C273.612 931.045 273.065 931.192 272.436 931.192C271.849 931.192 271.332 931.064 270.884 930.808C270.436 930.552 270.084 930.181 269.828 929.696C269.577 929.205 269.452 928.627 269.452 927.96V922.808H271.356V927.672C271.356 928.056 271.423 928.387 271.556 928.664C271.695 928.941 271.892 929.155 272.148 929.304C272.404 929.448 272.705 929.52 273.052 929.52C273.425 929.52 273.753 929.437 274.036 929.272C274.324 929.107 274.545 928.875 274.7 928.576C274.86 928.277 274.94 927.936 274.94 927.552V922.808H276.836V931ZM279.172 922.808H281.02V926.216H280.54C280.545 925.48 280.663 924.843 280.892 924.304C281.127 923.76 281.46 923.344 281.892 923.056C282.329 922.763 282.844 922.616 283.436 922.616C284.017 922.616 284.519 922.749 284.94 923.016C285.361 923.277 285.684 923.651 285.908 924.136C286.137 924.621 286.252 925.187 286.252 925.832V931H284.396V926.056C284.396 925.693 284.335 925.379 284.212 925.112C284.089 924.845 283.908 924.64 283.668 924.496C283.433 924.352 283.153 924.28 282.828 924.28C282.476 924.28 282.167 924.36 281.9 924.52C281.633 924.68 281.428 924.909 281.284 925.208C281.145 925.501 281.076 925.848 281.076 926.248V931H279.172V922.808ZM289.58 926.056C289.58 925.693 289.516 925.379 289.388 925.112C289.265 924.845 289.087 924.64 288.852 924.496C288.623 924.352 288.343 924.28 288.012 924.28C287.66 924.28 287.351 924.363 287.084 924.528C286.823 924.688 286.617 924.915 286.468 925.208C286.324 925.501 286.252 925.848 286.252 926.248L285.468 926.216C285.468 925.501 285.596 924.872 285.852 924.328C286.108 923.784 286.471 923.363 286.94 923.064C287.409 922.765 287.956 922.616 288.58 922.616C289.161 922.616 289.671 922.749 290.108 923.016C290.551 923.277 290.889 923.651 291.124 924.136C291.364 924.621 291.484 925.187 291.484 925.832V931H289.58V926.056Z" fill="#19191C"/>
<path d="M624.574 966.8H627.11L630.542 974.888L630.734 975.512L630.918 974.888L634.278 966.8H636.846V978H634.886V970.032L634.91 969.608L631.43 978H629.966L626.502 969.664L626.526 970.032V978H624.574V966.8ZM642.727 969.616C643.399 969.616 643.988 969.736 644.495 969.976C645.007 970.211 645.404 970.552 645.687 971C645.969 971.443 646.111 971.968 646.111 972.576V978H644.271L644.263 974.936H644.703C644.703 975.608 644.58 976.189 644.335 976.68C644.095 977.165 643.745 977.539 643.287 977.8C642.833 978.061 642.295 978.192 641.671 978.192C641.143 978.192 640.668 978.093 640.247 977.896C639.831 977.693 639.505 977.413 639.271 977.056C639.036 976.693 638.919 976.283 638.919 975.824C638.919 975.387 639.031 974.984 639.255 974.616C639.484 974.248 639.799 973.947 640.199 973.712C640.604 973.472 641.063 973.325 641.575 973.272L643.711 973.048C643.881 973.032 644.012 972.971 644.103 972.864C644.199 972.757 644.247 972.603 644.247 972.4L644.335 974.2L642.031 974.464C641.796 974.485 641.591 974.547 641.415 974.648C641.239 974.749 641.1 974.883 640.999 975.048C640.903 975.208 640.855 975.395 640.855 975.608C640.855 975.832 640.913 976.032 641.031 976.208C641.153 976.384 641.324 976.52 641.543 976.616C641.761 976.712 642.009 976.76 642.287 976.76C642.676 976.76 643.017 976.685 643.311 976.536C643.604 976.381 643.833 976.165 643.999 975.888C644.164 975.611 644.247 975.293 644.247 974.936V972.416C644.247 972.155 644.18 971.925 644.047 971.728C643.913 971.531 643.729 971.379 643.495 971.272C643.26 971.16 642.988 971.104 642.679 971.104C642.375 971.104 642.1 971.157 641.855 971.264C641.609 971.365 641.412 971.504 641.263 971.68C641.113 971.856 641.025 972.051 640.999 972.264H639.119C639.172 971.752 639.361 971.296 639.687 970.896C640.012 970.496 640.439 970.184 640.967 969.96C641.495 969.731 642.081 969.616 642.727 969.616ZM648.272 969.808H650.176V978H648.272V969.808ZM650.248 966.8V968.608H648.184V966.8H650.248ZM652.51 969.808H654.358V973.216H653.814C653.814 972.485 653.94 971.851 654.19 971.312C654.441 970.768 654.798 970.349 655.262 970.056C655.732 969.763 656.281 969.616 656.91 969.616C657.497 969.616 658.014 969.744 658.462 970C658.91 970.256 659.26 970.629 659.51 971.12C659.766 971.605 659.894 972.181 659.894 972.848V978H657.99V973.136C657.99 972.752 657.921 972.421 657.782 972.144C657.649 971.867 657.454 971.656 657.198 971.512C656.942 971.363 656.641 971.288 656.294 971.288C655.921 971.288 655.59 971.371 655.302 971.536C655.02 971.701 654.798 971.933 654.638 972.232C654.484 972.531 654.406 972.872 654.406 973.256V978H652.51V969.808ZM608.862 982.8H616.878V984.536H610.79V987.496H616.334V989.24H610.79V992.256H617.038V994H608.862V982.8ZM619.024 985.808H620.872V989.216H620.328C620.328 988.485 620.453 987.851 620.704 987.312C620.955 986.768 621.312 986.349 621.776 986.056C622.245 985.763 622.795 985.616 623.424 985.616C624.011 985.616 624.528 985.744 624.976 986C625.424 986.256 625.773 986.629 626.024 987.12C626.28 987.605 626.408 988.181 626.408 988.848V994H624.504V989.136C624.504 988.752 624.435 988.421 624.296 988.144C624.163 987.867 623.968 987.656 623.712 987.512C623.456 987.363 623.155 987.288 622.808 987.288C622.435 987.288 622.104 987.371 621.816 987.536C621.533 987.701 621.312 987.933 621.152 988.232C620.997 988.531 620.92 988.872 620.92 989.256V994H619.024V985.808ZM631.432 994C630.989 994 630.595 993.907 630.248 993.72C629.901 993.533 629.629 993.275 629.432 992.944C629.24 992.613 629.144 992.237 629.144 991.816L629.136 987.448H627.696L627.704 985.808H628.6C628.803 985.808 628.965 985.747 629.088 985.624C629.211 985.496 629.272 985.333 629.272 985.136V983.816H631.04V985.808H633.008L633 987.448H631.032L631.04 991.584C631.04 991.808 631.112 991.995 631.256 992.144C631.405 992.288 631.592 992.36 631.816 992.36H633V994H631.432ZM634.861 985.808H636.749V988.984L636.117 989.504C636.138 988.736 636.269 988.069 636.509 987.504C636.754 986.939 637.093 986.507 637.525 986.208C637.962 985.904 638.474 985.752 639.061 985.752H639.365V987.672H638.821C638.405 987.667 638.04 987.741 637.725 987.896C637.416 988.051 637.178 988.272 637.013 988.56C636.848 988.848 636.765 989.187 636.765 989.576V994H634.861V985.808ZM643.903 985.616C644.575 985.616 645.164 985.736 645.671 985.976C646.183 986.211 646.58 986.552 646.863 987C647.146 987.443 647.287 987.968 647.287 988.576V994H645.447L645.439 990.936H645.879C645.879 991.608 645.756 992.189 645.511 992.68C645.271 993.165 644.922 993.539 644.463 993.8C644.01 994.061 643.471 994.192 642.847 994.192C642.319 994.192 641.844 994.093 641.423 993.896C641.007 993.693 640.682 993.413 640.447 993.056C640.212 992.693 640.095 992.283 640.095 991.824C640.095 991.387 640.207 990.984 640.431 990.616C640.66 990.248 640.975 989.947 641.375 989.712C641.78 989.472 642.239 989.325 642.751 989.272L644.887 989.048C645.058 989.032 645.188 988.971 645.279 988.864C645.375 988.757 645.423 988.603 645.423 988.4L645.511 990.2L643.207 990.464C642.972 990.485 642.767 990.547 642.591 990.648C642.415 990.749 642.276 990.883 642.175 991.048C642.079 991.208 642.031 991.395 642.031 991.608C642.031 991.832 642.09 992.032 642.207 992.208C642.33 992.384 642.5 992.52 642.719 992.616C642.938 992.712 643.186 992.76 643.463 992.76C643.852 992.76 644.194 992.685 644.487 992.536C644.78 992.381 645.01 992.165 645.175 991.888C645.34 991.611 645.423 991.293 645.423 990.936V988.416C645.423 988.155 645.356 987.925 645.223 987.728C645.09 987.531 644.906 987.379 644.671 987.272C644.436 987.16 644.164 987.104 643.855 987.104C643.551 987.104 643.276 987.157 643.031 987.264C642.786 987.365 642.588 987.504 642.439 987.68C642.29 987.856 642.202 988.051 642.175 988.264H640.295C640.348 987.752 640.538 987.296 640.863 986.896C641.188 986.496 641.615 986.184 642.143 985.96C642.671 985.731 643.258 985.616 643.903 985.616ZM649.448 985.808H651.296V989.216H650.752C650.752 988.485 650.877 987.851 651.128 987.312C651.378 986.768 651.736 986.349 652.2 986.056C652.669 985.763 653.218 985.616 653.848 985.616C654.434 985.616 654.952 985.744 655.4 986C655.848 986.256 656.197 986.629 656.448 987.12C656.704 987.605 656.832 988.181 656.832 988.848V994H654.928V989.136C654.928 988.752 654.858 988.421 654.72 988.144C654.586 987.867 654.392 987.656 654.136 987.512C653.88 987.363 653.578 987.288 653.232 987.288C652.858 987.288 652.528 987.371 652.24 987.536C651.957 987.701 651.736 987.933 651.576 988.232C651.421 988.531 651.344 988.872 651.344 989.256V994H649.448V985.808ZM662.64 994.192C661.845 994.192 661.122 994.005 660.472 993.632C659.821 993.259 659.309 992.747 658.936 992.096C658.562 991.44 658.376 990.709 658.376 989.904C658.376 989.099 658.562 988.371 658.936 987.72C659.309 987.064 659.821 986.549 660.472 986.176C661.122 985.803 661.845 985.616 662.64 985.616C663.344 985.616 663.978 985.741 664.544 985.992C665.114 986.243 665.581 986.608 665.944 987.088C666.306 987.568 666.538 988.139 666.64 988.8H664.736C664.64 988.475 664.485 988.203 664.272 987.984C664.064 987.76 663.818 987.595 663.536 987.488C663.258 987.376 662.962 987.32 662.648 987.32C662.21 987.32 661.816 987.429 661.464 987.648C661.117 987.867 660.845 988.173 660.648 988.568C660.45 988.963 660.352 989.408 660.352 989.904C660.352 990.4 660.45 990.845 660.648 991.24C660.845 991.629 661.117 991.936 661.464 992.16C661.816 992.379 662.21 992.488 662.648 992.488C662.962 992.488 663.258 992.435 663.536 992.328C663.818 992.216 664.064 992.051 664.272 991.832C664.485 991.608 664.64 991.333 664.736 991.008H666.64C666.544 991.653 666.309 992.219 665.936 992.704C665.562 993.184 665.09 993.552 664.52 993.808C663.949 994.064 663.322 994.192 662.64 994.192ZM671.962 994.192C671.162 994.192 670.442 994.008 669.802 993.64C669.168 993.272 668.672 992.763 668.314 992.112C667.957 991.456 667.778 990.717 667.778 989.896C667.778 989.085 667.96 988.355 668.322 987.704C668.685 987.048 669.184 986.536 669.818 986.168C670.453 985.8 671.168 985.616 671.962 985.616C672.768 985.616 673.477 985.8 674.09 986.168C674.704 986.531 675.176 987.037 675.506 987.688C675.837 988.339 676.002 989.075 676.002 989.896V990.416H669.706L669.722 989.992C669.722 990.493 669.821 990.941 670.018 991.336C670.221 991.725 670.496 992.029 670.842 992.248C671.194 992.461 671.592 992.568 672.034 992.568C672.344 992.568 672.624 992.539 672.874 992.48C673.125 992.416 673.341 992.323 673.522 992.2C673.709 992.077 673.861 991.931 673.978 991.76H675.858C675.768 992.16 675.554 992.547 675.218 992.92C674.888 993.288 674.44 993.592 673.874 993.832C673.314 994.072 672.677 994.192 671.962 994.192ZM669.706 989.096H674.098V989.72C674.098 989.224 674.016 988.787 673.85 988.408C673.69 988.024 673.45 987.725 673.13 987.512C672.81 987.299 672.424 987.192 671.97 987.192C671.528 987.192 671.136 987.296 670.794 987.504C670.458 987.707 670.194 987.997 670.002 988.376C669.816 988.749 669.722 989.184 669.722 989.68L669.706 989.096Z" fill="#19191C"/>
<path d="M624.003 708.8H632.019V710.536H625.931V713.496H631.475V715.24H625.931V718.256H632.179V720H624.003V708.8ZM636.622 716.496L636.326 716.16L633.278 711.808H635.446L637.702 715.088L637.958 715.376L641.182 720H639.022L636.622 716.496ZM636.422 715.28L636.838 714.912L638.894 711.808H641.014L638.054 716.152L637.558 716.608L635.31 720H633.182L636.422 715.28ZM644.385 711.808V713.4H644.425V722.576H642.529V711.808H644.385ZM647.233 720.192C646.556 720.192 645.961 720.043 645.449 719.744C644.937 719.445 644.537 719.024 644.249 718.48C643.967 717.936 643.82 717.307 643.809 716.592H644.377V715.216H643.809C643.82 714.501 643.967 713.872 644.249 713.328C644.537 712.784 644.937 712.363 645.449 712.064C645.967 711.765 646.561 711.616 647.233 711.616C647.975 711.616 648.633 711.797 649.209 712.16C649.785 712.517 650.233 713.021 650.553 713.672C650.879 714.323 651.041 715.067 651.041 715.904C651.041 716.741 650.879 717.485 650.553 718.136C650.233 718.787 649.783 719.293 649.201 719.656C648.625 720.013 647.969 720.192 647.233 720.192ZM646.761 718.488C647.209 718.488 647.607 718.379 647.953 718.16C648.305 717.941 648.577 717.637 648.769 717.248C648.967 716.859 649.065 716.411 649.065 715.904C649.065 715.397 648.967 714.949 648.769 714.56C648.577 714.171 648.305 713.867 647.953 713.648C647.607 713.429 647.209 713.32 646.761 713.32C646.303 713.32 645.897 713.429 645.545 713.648C645.193 713.867 644.919 714.171 644.721 714.56C644.524 714.949 644.425 715.397 644.425 715.904C644.425 716.411 644.524 716.859 644.721 717.248C644.919 717.637 645.193 717.941 645.545 718.16C645.897 718.379 646.303 718.488 646.761 718.488ZM656.527 720.192C655.711 720.192 654.973 720.008 654.311 719.64C653.655 719.272 653.141 718.763 652.767 718.112C652.394 717.456 652.207 716.72 652.207 715.904C652.207 715.088 652.394 714.355 652.767 713.704C653.141 713.048 653.658 712.536 654.319 712.168C654.981 711.8 655.719 711.616 656.535 711.616C657.351 711.616 658.087 711.8 658.743 712.168C659.399 712.536 659.914 713.045 660.287 713.696C660.661 714.347 660.847 715.083 660.847 715.904C660.847 716.725 660.661 717.461 660.287 718.112C659.914 718.763 659.399 719.272 658.743 719.64C658.087 720.008 657.349 720.192 656.527 720.192ZM656.543 718.48C656.986 718.48 657.383 718.373 657.735 718.16C658.087 717.941 658.365 717.637 658.567 717.248C658.77 716.859 658.871 716.411 658.871 715.904C658.871 715.397 658.77 714.949 658.567 714.56C658.365 714.165 658.085 713.861 657.727 713.648C657.375 713.429 656.978 713.32 656.535 713.32C656.093 713.32 655.69 713.429 655.327 713.648C654.97 713.861 654.69 714.165 654.487 714.56C654.285 714.949 654.183 715.397 654.183 715.904C654.183 716.411 654.285 716.859 654.487 717.248C654.69 717.637 654.97 717.941 655.327 718.16C655.69 718.373 656.095 718.48 656.543 718.48Z" fill="#19191C"/>
<path d="M599.476 816.064H601.596L604.564 821H602.34L599.476 816.064ZM595.916 809.8H600.652C601.42 809.8 602.094 809.941 602.676 810.224C603.257 810.507 603.705 810.907 604.02 811.424C604.34 811.936 604.5 812.531 604.5 813.208C604.5 813.891 604.337 814.493 604.012 815.016C603.692 815.539 603.236 815.944 602.644 816.232C602.057 816.515 601.372 816.656 600.588 816.656H597.876V821H595.916V809.8ZM600.548 814.984C600.932 814.984 601.268 814.912 601.556 814.768C601.844 814.624 602.065 814.421 602.22 814.16C602.38 813.893 602.46 813.581 602.46 813.224C602.46 812.872 602.38 812.565 602.22 812.304C602.065 812.037 601.844 811.835 601.556 811.696C601.268 811.552 600.932 811.48 600.548 811.48H597.876V814.984H600.548ZM609.693 821.192C608.893 821.192 608.173 821.008 607.533 820.64C606.898 820.272 606.402 819.763 606.045 819.112C605.688 818.456 605.509 817.717 605.509 816.896C605.509 816.085 605.69 815.355 606.053 814.704C606.416 814.048 606.914 813.536 607.549 813.168C608.184 812.8 608.898 812.616 609.693 812.616C610.498 812.616 611.208 812.8 611.821 813.168C612.434 813.531 612.906 814.037 613.237 814.688C613.568 815.339 613.733 816.075 613.733 816.896V817.416H607.437L607.453 816.992C607.453 817.493 607.552 817.941 607.749 818.336C607.952 818.725 608.226 819.029 608.573 819.248C608.925 819.461 609.322 819.568 609.765 819.568C610.074 819.568 610.354 819.539 610.605 819.48C610.856 819.416 611.072 819.323 611.253 819.2C611.44 819.077 611.592 818.931 611.709 818.76H613.589C613.498 819.16 613.285 819.547 612.949 819.92C612.618 820.288 612.17 820.592 611.605 820.832C611.045 821.072 610.408 821.192 609.693 821.192ZM607.437 816.096H611.829V816.72C611.829 816.224 611.746 815.787 611.581 815.408C611.421 815.024 611.181 814.725 610.861 814.512C610.541 814.299 610.154 814.192 609.701 814.192C609.258 814.192 608.866 814.296 608.525 814.504C608.189 814.707 607.925 814.997 607.733 815.376C607.546 815.749 607.453 816.184 607.453 816.68L607.437 816.096ZM619.081 823.752C618.419 823.752 617.817 823.648 617.273 823.44C616.729 823.237 616.283 822.949 615.937 822.576C615.595 822.208 615.385 821.787 615.305 821.312H617.161C617.251 821.504 617.39 821.669 617.577 821.808C617.763 821.952 617.979 822.059 618.225 822.128C618.475 822.203 618.737 822.24 619.009 822.24C619.441 822.24 619.817 822.152 620.137 821.976C620.462 821.8 620.71 821.555 620.881 821.24C621.057 820.925 621.145 820.56 621.145 820.144V819.784L621.217 817.424L621.881 816.736C621.87 817.451 621.721 818.083 621.433 818.632C621.145 819.181 620.747 819.608 620.241 819.912C619.739 820.211 619.171 820.36 618.537 820.36C617.854 820.36 617.238 820.195 616.689 819.864C616.145 819.528 615.715 819.067 615.401 818.48C615.086 817.893 614.929 817.232 614.929 816.496C614.929 815.76 615.086 815.099 615.401 814.512C615.715 813.925 616.145 813.464 616.689 813.128C617.238 812.792 617.854 812.624 618.537 812.624C619.171 812.624 619.739 812.779 620.241 813.088C620.747 813.392 621.145 813.821 621.433 814.376C621.721 814.931 621.87 815.565 621.881 816.28L621.217 815.656V812.808H623.065L623.041 820.144C623.041 820.853 622.875 821.483 622.545 822.032C622.214 822.581 621.747 823.005 621.145 823.304C620.547 823.603 619.859 823.752 619.081 823.752ZM619.017 818.76C619.422 818.76 619.787 818.661 620.113 818.464C620.438 818.267 620.694 817.997 620.881 817.656C621.073 817.309 621.169 816.923 621.169 816.496C621.169 816.069 621.073 815.685 620.881 815.344C620.694 814.997 620.438 814.725 620.113 814.528C619.787 814.331 619.422 814.232 619.017 814.232C618.611 814.232 618.243 814.331 617.913 814.528C617.587 814.725 617.334 814.997 617.153 815.344C616.971 815.685 616.881 816.069 616.881 816.496C616.881 816.923 616.971 817.309 617.153 817.656C617.334 817.997 617.587 818.267 617.913 818.464C618.243 818.661 618.611 818.76 619.017 818.76ZM625.399 812.808H627.303V821H625.399V812.808ZM627.375 809.8V811.608H625.311V809.8H627.375ZM632.678 821.192C632 821.192 631.387 821.091 630.838 820.888C630.294 820.68 629.862 820.389 629.542 820.016C629.222 819.643 629.054 819.221 629.038 818.752H630.95C630.971 818.939 631.056 819.107 631.206 819.256C631.36 819.405 631.563 819.523 631.814 819.608C632.064 819.693 632.347 819.736 632.662 819.736C632.976 819.736 633.251 819.691 633.486 819.6C633.726 819.509 633.912 819.384 634.046 819.224C634.179 819.059 634.246 818.872 634.246 818.664C634.246 818.515 634.214 818.379 634.15 818.256C634.091 818.128 634.003 818.024 633.886 817.944C633.774 817.864 633.638 817.811 633.478 817.784L631.382 817.464C630.96 817.395 630.59 817.256 630.27 817.048C629.955 816.84 629.715 816.573 629.55 816.248C629.384 815.917 629.302 815.547 629.302 815.136C629.302 814.667 629.44 814.243 629.718 813.864C629.995 813.48 630.384 813.179 630.886 812.96C631.387 812.741 631.955 812.632 632.59 812.632C633.224 812.632 633.795 812.731 634.302 812.928C634.814 813.125 635.216 813.403 635.51 813.76C635.808 814.112 635.968 814.507 635.99 814.944H634.062C634.051 814.784 633.979 814.637 633.846 814.504C633.718 814.371 633.542 814.269 633.318 814.2C633.099 814.125 632.851 814.088 632.574 814.088C632.296 814.088 632.051 814.131 631.838 814.216C631.624 814.296 631.459 814.408 631.342 814.552C631.224 814.696 631.166 814.861 631.166 815.048C631.166 815.192 631.192 815.32 631.246 815.432C631.304 815.544 631.39 815.637 631.502 815.712C631.619 815.781 631.76 815.829 631.926 815.856L633.982 816.16C634.419 816.224 634.8 816.368 635.126 816.592C635.451 816.816 635.699 817.099 635.87 817.44C636.046 817.781 636.134 818.155 636.134 818.56C636.134 819.067 635.984 819.52 635.686 819.92C635.387 820.315 634.974 820.627 634.446 820.856C633.923 821.08 633.334 821.192 632.678 821.192ZM640.796 821C640.353 821 639.958 820.907 639.612 820.72C639.265 820.533 638.993 820.275 638.796 819.944C638.604 819.613 638.508 819.237 638.508 818.816L638.5 814.448H637.06L637.068 812.808H637.964C638.166 812.808 638.329 812.747 638.452 812.624C638.574 812.496 638.636 812.333 638.636 812.136V810.816H640.404V812.808H642.372L642.364 814.448H640.396L640.404 818.584C640.404 818.808 640.476 818.995 640.62 819.144C640.769 819.288 640.956 819.36 641.18 819.36H642.364V821H640.796ZM644.225 812.808H646.113V815.984L645.481 816.504C645.502 815.736 645.633 815.069 645.873 814.504C646.118 813.939 646.457 813.507 646.889 813.208C647.326 812.904 647.838 812.752 648.425 812.752H648.729V814.672H648.185C647.769 814.667 647.403 814.741 647.089 814.896C646.779 815.051 646.542 815.272 646.377 815.56C646.211 815.848 646.129 816.187 646.129 816.576V821H644.225V812.808ZM653.267 812.616C653.939 812.616 654.528 812.736 655.035 812.976C655.547 813.211 655.944 813.552 656.227 814C656.509 814.443 656.651 814.968 656.651 815.576V821H654.811L654.803 817.936H655.243C655.243 818.608 655.12 819.189 654.875 819.68C654.635 820.165 654.285 820.539 653.827 820.8C653.373 821.061 652.835 821.192 652.211 821.192C651.683 821.192 651.208 821.093 650.787 820.896C650.371 820.693 650.045 820.413 649.811 820.056C649.576 819.693 649.459 819.283 649.459 818.824C649.459 818.387 649.571 817.984 649.795 817.616C650.024 817.248 650.339 816.947 650.739 816.712C651.144 816.472 651.603 816.325 652.115 816.272L654.251 816.048C654.421 816.032 654.552 815.971 654.643 815.864C654.739 815.757 654.787 815.603 654.787 815.4L654.875 817.2L652.571 817.464C652.336 817.485 652.131 817.547 651.955 817.648C651.779 817.749 651.64 817.883 651.539 818.048C651.443 818.208 651.395 818.395 651.395 818.608C651.395 818.832 651.453 819.032 651.571 819.208C651.693 819.384 651.864 819.52 652.083 819.616C652.301 819.712 652.549 819.76 652.827 819.76C653.216 819.76 653.557 819.685 653.851 819.536C654.144 819.381 654.373 819.165 654.539 818.888C654.704 818.611 654.787 818.293 654.787 817.936V815.416C654.787 815.155 654.72 814.925 654.587 814.728C654.453 814.531 654.269 814.379 654.035 814.272C653.8 814.16 653.528 814.104 653.219 814.104C652.915 814.104 652.64 814.157 652.395 814.264C652.149 814.365 651.952 814.504 651.803 814.68C651.653 814.856 651.565 815.051 651.539 815.264H649.659C649.712 814.752 649.901 814.296 650.227 813.896C650.552 813.496 650.979 813.184 651.507 812.96C652.035 812.731 652.621 812.616 653.267 812.616ZM661.7 821C661.257 821 660.862 820.907 660.516 820.72C660.169 820.533 659.897 820.275 659.7 819.944C659.508 819.613 659.412 819.237 659.412 818.816L659.404 814.448H657.964L657.972 812.808H658.868C659.07 812.808 659.233 812.747 659.356 812.624C659.478 812.496 659.54 812.333 659.54 812.136V810.816H661.308V812.808H663.276L663.268 814.448H661.3L661.308 818.584C661.308 818.808 661.38 818.995 661.524 819.144C661.673 819.288 661.86 819.36 662.084 819.36H663.268V821H661.7ZM665.128 812.808H667.032V821H665.128V812.808ZM667.104 809.8V811.608H665.04V809.8H667.104ZM673.095 821.192C672.279 821.192 671.541 821.008 670.879 820.64C670.223 820.272 669.709 819.763 669.335 819.112C668.962 818.456 668.775 817.72 668.775 816.904C668.775 816.088 668.962 815.355 669.335 814.704C669.709 814.048 670.226 813.536 670.887 813.168C671.549 812.8 672.287 812.616 673.103 812.616C673.919 812.616 674.655 812.8 675.311 813.168C675.967 813.536 676.482 814.045 676.855 814.696C677.229 815.347 677.415 816.083 677.415 816.904C677.415 817.725 677.229 818.461 676.855 819.112C676.482 819.763 675.967 820.272 675.311 820.64C674.655 821.008 673.917 821.192 673.095 821.192ZM673.111 819.48C673.554 819.48 673.951 819.373 674.303 819.16C674.655 818.941 674.933 818.637 675.135 818.248C675.338 817.859 675.439 817.411 675.439 816.904C675.439 816.397 675.338 815.949 675.135 815.56C674.933 815.165 674.653 814.861 674.295 814.648C673.943 814.429 673.546 814.32 673.103 814.32C672.661 814.32 672.258 814.429 671.895 814.648C671.538 814.861 671.258 815.165 671.055 815.56C670.853 815.949 670.751 816.397 670.751 816.904C670.751 817.411 670.853 817.859 671.055 818.248C671.258 818.637 671.538 818.941 671.895 819.16C672.258 819.373 672.663 819.48 673.111 819.48ZM679.168 812.808H681.016V816.216H680.472C680.472 815.485 680.598 814.851 680.848 814.312C681.099 813.768 681.456 813.349 681.92 813.056C682.39 812.763 682.939 812.616 683.568 812.616C684.155 812.616 684.672 812.744 685.12 813C685.568 813.256 685.918 813.629 686.168 814.12C686.424 814.605 686.552 815.181 686.552 815.848V821H684.648V816.136C684.648 815.752 684.579 815.421 684.44 815.144C684.307 814.867 684.112 814.656 683.856 814.512C683.6 814.363 683.299 814.288 682.952 814.288C682.579 814.288 682.248 814.371 681.96 814.536C681.678 814.701 681.456 814.933 681.296 815.232C681.142 815.531 681.064 815.872 681.064 816.256V821H679.168V812.808Z" fill="#19191C"/>
<path d="M598.577 520.345H597V515.406H602.635V511.278H608.294V507.127H613.952V502.999H620.399V504.576H615.529V508.727H609.894V512.855H604.235V517.006H598.577V520.345Z" fill="#19191C"/>
<path d="M598.577 342.346H597V337.407H602.635V333.279H608.294V329.128H613.952V325H620.399V326.577H615.529V330.728H609.894V334.856H604.235V339.007H598.577V342.346Z" fill="#19191C"/>
<path d="M596.577 248.345H595V243.406H600.635V239.278H606.294V235.127H611.952V230.999H618.399V232.576H613.529V236.727H607.894V240.855H602.235V245.006H596.577V248.345Z" fill="#19191C"/>
<path d="M1092.58 520.345H1091V515.406H1096.64V511.278H1102.29V507.127H1107.95V502.999H1114.4V504.576H1109.53V508.727H1103.89V512.855H1098.24V517.006H1092.58V520.345Z" fill="#19191C"/>
<path d="M1092.58 342.346H1091V337.407H1096.64V333.279H1102.29V329.128H1107.95V325H1114.4V326.577H1109.53V330.728H1103.89V334.856H1098.24V339.007H1092.58V342.346Z" fill="#19191C"/>
<path d="M1088.58 248.345H1087V243.406H1092.64V239.278H1098.29V235.127H1103.95V230.999H1110.4V232.576H1105.53V236.727H1099.89V240.855H1094.24V245.006H1088.58V248.345Z" fill="#19191C"/>
<path d="M505.577 624.346H504V619.407H509.635V615.279H515.294V611.128H520.952V607H527.399V608.577H522.529V612.728H516.894V616.856H511.235V621.007H505.577V624.346Z" fill="#19191C"/>
<path d="M524.577 772.346H523V767.407H528.635V763.279H534.294V759.128H539.952V755H546.399V756.577H541.529V760.728H535.894V764.856H530.235V769.007H524.577V772.346Z" fill="#19191C"/>
<path d="M774.577 624.346H773V619.407H778.635V615.279H784.294V611.128H789.952V607H796.399V608.577H791.529V612.728H785.894V616.856H780.235V621.007H774.577V624.346Z" fill="#19191C"/>
<path d="M908.577 624.346H907V619.407H912.635V615.279H918.294V611.128H923.952V607H930.399V608.577H925.529V612.728H919.894V616.856H914.235V621.007H908.577V624.346Z" fill="#19191C"/>
<path d="M634.375 610.25H635.939V609.357C635.939 608.932 636.051 608.527 636.252 608.221L637.713 605.994C638.08 605.434 638.281 604.727 638.281 604H636.719C636.719 604.426 636.607 604.828 636.404 605.137L634.943 607.363C634.576 607.924 634.375 608.631 634.375 609.357V610.25Z" fill="#19191C"/>
<path fill-rule="evenodd" clip-rule="evenodd" d="M639.574 622.75H634.641C633.133 622.75 631.846 621.77 631.512 620.363L629.479 611.812H645.387C647.068 611.812 648.437 613.182 648.437 614.863C648.437 616.18 647.6 617.342 646.352 617.758L643.056 618.878L642.703 620.363C642.369 621.768 641.082 622.75 639.574 622.75ZM643.487 617.065L645.857 616.275C646.467 616.072 646.875 615.504 646.875 614.863C646.875 614.043 646.207 613.375 645.387 613.375H644.365L643.487 617.065ZM631.457 613.375L633.033 620.002C633.197 620.689 633.873 621.188 634.643 621.188H639.578C640.348 621.188 641.023 620.689 641.187 620.002L642.764 613.375H631.457Z" fill="#19191C"/>
<path d="M628.125 624.312V625.875H646.875V624.312H628.125Z" fill="#19191C"/>
<path d="M637.5 610.25C637.5 609.523 637.701 608.816 638.068 608.256L638.115 608.191L639.588 606.379C639.748 606.182 639.844 605.875 639.844 605.561H641.406C641.406 606.244 641.191 606.883 640.801 607.365L639.355 609.143C639.166 609.445 639.062 609.838 639.062 610.248V610.25H637.5Z" fill="#19191C"/>
<path d="M451.375 610.25H452.939V609.357C452.939 608.932 453.051 608.527 453.252 608.221L454.713 605.994C455.08 605.434 455.281 604.727 455.281 604H453.719C453.719 604.426 453.607 604.828 453.404 605.137L451.943 607.363C451.576 607.924 451.375 608.631 451.375 609.357V610.25Z" fill="#19191C"/>
<path fill-rule="evenodd" clip-rule="evenodd" d="M456.574 622.75H451.641C450.133 622.75 448.846 621.77 448.512 620.363L446.479 611.812H462.387C464.068 611.812 465.437 613.182 465.437 614.863C465.437 616.18 464.6 617.342 463.352 617.758L460.056 618.878L459.703 620.363C459.369 621.768 458.082 622.75 456.574 622.75ZM460.487 617.065L462.857 616.275C463.467 616.072 463.875 615.504 463.875 614.863C463.875 614.043 463.207 613.375 462.387 613.375H461.365L460.487 617.065ZM448.457 613.375L450.033 620.002C450.197 620.689 450.873 621.188 451.643 621.188H456.578C457.348 621.188 458.023 620.689 458.187 620.002L459.764 613.375H448.457Z" fill="#19191C"/>
<path d="M445.125 624.312V625.875H463.875V624.312H445.125Z" fill="#19191C"/>
<path d="M454.5 610.25C454.5 609.523 454.701 608.816 455.068 608.256L455.115 608.191L456.588 606.379C456.748 606.182 456.844 605.875 456.844 605.561H458.406C458.406 606.244 458.191 606.883 457.801 607.365L456.355 609.143C456.166 609.445 456.062 609.838 456.062 610.248V610.25H454.5Z" fill="#19191C"/>
<path d="M849.375 610.25H850.939V609.357C850.939 608.932 851.051 608.527 851.252 608.221L852.713 605.994C853.08 605.434 853.281 604.727 853.281 604H851.719C851.719 604.426 851.607 604.828 851.404 605.137L849.943 607.363C849.576 607.924 849.375 608.631 849.375 609.357V610.25Z" fill="#19191C"/>
<path fill-rule="evenodd" clip-rule="evenodd" d="M854.574 622.75H849.641C848.133 622.75 846.846 621.77 846.512 620.363L844.479 611.812H860.387C862.068 611.812 863.437 613.182 863.437 614.863C863.437 616.18 862.6 617.342 861.352 617.758L858.056 618.878L857.703 620.363C857.369 621.768 856.082 622.75 854.574 622.75ZM858.487 617.065L860.857 616.275C861.467 616.072 861.875 615.504 861.875 614.863C861.875 614.043 861.207 613.375 860.387 613.375H859.365L858.487 617.065ZM846.457 613.375L848.033 620.002C848.197 620.689 848.873 621.188 849.643 621.188H854.578C855.348 621.188 856.023 620.689 856.187 620.002L857.764 613.375H846.457Z" fill="#19191C"/>
<path d="M843.125 624.312V625.875H861.875V624.312H843.125Z" fill="#19191C"/>
<path d="M852.5 610.25C852.5 609.523 852.701 608.816 853.068 608.256L853.115 608.191L854.588 606.379C854.748 606.182 854.844 605.875 854.844 605.561H856.406C856.406 606.244 856.191 606.883 855.801 607.365L854.355 609.143C854.166 609.445 854.062 609.838 854.062 610.248V610.25H852.5Z" fill="#19191C"/>
<path d="M150.333 872.809L136.577 848.983C136.027 848.031 136.349 846.813 137.298 846.257L316.536 741.272C317.489 740.714 317.809 739.49 317.252 738.537L199.019 536.271C198.24 534.938 199.202 533.262 200.746 533.262L281.26 533.262L363.73 533.262C364.633 533.262 365.425 532.657 365.661 531.785L378.261 485.262L391.261 437.262M319.261 376.262L319.261 192.762C319.261 191.657 320.156 190.762 321.261 190.762L336.271 190.762C337.155 190.762 337.933 190.185 338.185 189.338C340.079 182.987 347.871 156.748 352.861 138.47C353.098 137.599 353.887 137 354.791 137L364.5 137L532.466 137C533.371 137 534.163 137.607 534.398 138.481L548.102 189.519C548.337 190.393 549.129 191 550.034 191L566 191C567.105 191 568 190.105 568 189L568 138.5C568 137.395 568.895 136.5 570 136.5L644.76 136.5C645.865 136.5 646.76 137.395 646.76 138.5L646.76 167.762C646.76 168.867 647.656 169.762 648.76 169.762L673.26 169.762C674.365 169.762 675.26 168.867 675.26 167.762L675.26 139.762C675.26 138.657 676.156 137.762 677.26 137.762L714.26 137.762L730 137.762L743 137.762L746.26 137.762L955.26 137.762L968 137.762L977 137.762L987.26 137.762L1024.76 137.762C1025.87 137.762 1026.76 138.657 1026.76 139.762L1026.76 167.762C1026.76 168.867 1027.66 169.762 1028.76 169.762L1054.26 169.762M241.761 1029.26L252.782 1049.93C253.316 1050.93 254.576 1051.28 255.556 1050.71L498.1 908.855C498.207 908.793 498.319 908.741 498.435 908.699L577.761 880.262M635.261 861.262L659.761 852.762M717.26 834.762L772.594 815.204C773.895 814.744 775.261 815.709 775.261 817.09L775.261 838.262C775.261 839.366 776.156 840.262 777.261 840.262L923.76 840.262C924.865 840.262 925.76 839.366 925.76 838.262L925.76 764.943C925.76 764.081 926.312 763.317 927.129 763.045L1052.89 721.217C1053.71 720.945 1054.26 720.18 1054.26 719.319L1054.26 598.762C1054.26 597.657 1055.16 596.762 1056.26 596.762L1145.76 596.762C1146.87 596.762 1147.76 595.866 1147.76 594.762L1147.76 139.762C1147.76 138.657 1146.86 137.762 1145.76 137.762L1056.26 137.762C1055.16 137.762 1054.26 138.657 1054.26 139.762L1054.26 169.762M1054.26 180.262L1054.26 169.762M679.862 846.009L675.362 847.509M700.362 839.509L695.862 841.009M598.861 873.009L594.361 874.509M618.361 866.509L614.361 868.009" stroke="#A3A3A4" stroke-width="3"/>
<path d="M950.133 500L1051.9 500C1053 500 1053.9 499.105 1053.9 498.001L1054 171.501C1054 170.396 1053.1 169.5 1052 169.5L1028.03 169.5C1026.93 169.5 1026.03 168.605 1026.03 167.5L1026.03 140C1026.03 138.896 1025.14 138 1024.03 138L1006.56 138L987.081 138L954.628 138C954.628 138 827.706 138 746.38 138L713.919 138L694.443 138L676.966 138C675.862 138 674.966 138.895 674.966 140L674.966 167.5C674.966 168.605 674.079 169.5 672.975 169.5C668.521 169.5 657.481 169.5 648.999 169.5C647.894 169.5 647 170.395 647 171.5L647 497.5C647 498.605 647.88 499.5 648.985 499.5C688.668 499.5 748.5 499.5 748.5 499.5M827 499.5L793 499.5M908.5 499.5L874.5 499.5" stroke="url(#paint0_linear_9601_1216)" stroke-width="3"/>
<path d="M326.513 980.463L377.439 951.061C378.327 950.548 378.695 949.474 378.272 948.539C374.102 939.311 352.914 892.816 337.321 865.809C321.706 838.762 292.578 798.265 286.855 790.364C286.278 789.566 285.22 789.332 284.344 789.782L281 791.5C262.429 802.343 233.445 819.265 233.445 819.265M273.388 1011.23C263.066 1017.19 247.989 1025.89 242.941 1028.81C241.986 1029.36 240.775 1029.03 240.221 1028.07L227.83 1006.75C227.314 1005.87 226.212 1005.51 225.277 1005.94L156.811 1036.86C155.875 1037.29 154.77 1036.93 154.256 1036.04L126.928 988.706L126.514 987.989L99.1857 940.655C98.6719 939.765 98.9162 938.631 99.751 938.031L160.766 894.201C161.599 893.603 161.845 892.471 161.335 891.582L149.066 870.19C148.518 869.234 148.847 868.014 149.801 867.463L180.239 849.89M313.232 988.155L310 990M286.669 1003.54L290 1001.5M218 828L214.768 829.845M191.437 843.383L194.768 841.345" stroke="url(#paint1_linear_9601_1216)" stroke-width="3"/>
<path d="M395 417.933L382.404 376.419C382.149 375.576 381.371 375 380.49 375L321 375C319.895 375 319 375.895 319 377L319 377.496L319 431.046L319.125 459.009C319.13 460.11 320.027 461 321.129 461C344.604 461 359.316 461 382.903 461C383.812 461 384.614 460.386 384.844 459.507L386.676 452.513L391.033 436.142" stroke="url(#paint2_linear_9601_1216)" stroke-width="3"/>
<path d="M492 417.867L504.703 376.282C504.96 375.441 505.736 374.867 506.616 374.867L566.635 374.867C567.74 374.867 568.635 375.762 568.635 376.867L568.635 377.367L568.635 431L568.509 459.009C568.504 460.111 567.607 461 566.505 461C542.819 461 527.981 461 504.183 461C503.275 461 502.474 460.389 502.242 459.511L500.393 452.5L496 436.104" stroke="url(#paint3_linear_9601_1216)" stroke-width="3"/>
<path d="M753.362 724.808L753.362 695.891C753.362 695.056 753.875 694.315 754.668 694.055C758.147 692.916 768.703 689.765 787.862 686.502C806.588 683.312 819.226 682.665 823.876 682.534C824.975 682.503 825.862 683.389 825.862 684.489L825.862 713.5C825.862 714.605 824.967 715.5 823.862 715.5L777.362 715.5C776.258 715.5 775.362 716.395 775.362 717.5L775.362 730.803C775.362 731.982 774.351 732.889 773.189 732.69C771.254 732.358 768.147 731.709 764.362 730.502C759.737 729.026 756.124 727.372 754.425 726.54C753.765 726.217 753.362 725.543 753.362 724.808Z" stroke="url(#paint4_linear_9601_1216)" stroke-width="3"/>
<path d="M525.601 249.5L534.601 218L511.5 137H375L352.101 217.999L361.101 249.499" stroke="url(#paint5_linear_9601_1216)" stroke-width="3"/>
<path d="M477.136 343C477.136 343 491.182 343 501.147 343C502.062 343 502.858 342.379 503.082 341.491L518.86 279.092C519.031 278.414 518.836 277.696 518.346 277.198L487.223 245.597C486.847 245.215 486.334 245 485.798 245L400.34 245C399.803 245 399.288 245.217 398.912 245.6L367.922 277.199C367.434 277.697 367.238 278.403 367.409 279.08C373.085 301.529 381.346 334.2 383.194 341.512C383.419 342.4 384.212 343 385.128 343L409.136 343" stroke="url(#paint6_linear_9601_1216)" stroke-width="3"/>
<path d="M425.136 343L461.136 343" stroke="url(#paint7_linear_9601_1216)" stroke-width="3"/>
</g>
<defs>
<linearGradient id="paint0_linear_9601_1216" x1="51.5003" y1="1196" x2="-131.863" y2="927.552" gradientUnits="userSpaceOnUse">
    <stop stop-color="#FF9419"/>
    <stop offset="0.2" stop-color="#FF021D"/>
    <stop offset="0.99" stop-color="#E600FF"/>
</linearGradient>
<linearGradient id="paint1_linear_9601_1216" x1="161.5" y1="1112" x2="1036.42" y2="1200.47" gradientUnits="userSpaceOnUse">
    <stop stop-color="#FF9419"/>
    <stop offset="0.2" stop-color="#FF021D"/>
    <stop offset="0.99" stop-color="#E600FF"/>
</linearGradient>
<linearGradient id="paint2_linear_9601_1216" x1="321.5" y1="467.5" x2="350.028" y2="44.5029" gradientUnits="userSpaceOnUse">
    <stop stop-color="#FF9419"/>
    <stop offset="0.227503" stop-color="#FF021D"/>
    <stop offset="1" stop-color="#E600FF"/>
</linearGradient>
<linearGradient id="paint3_linear_9601_1216" x1="167" y1="1105" x2="678.727" y2="1212.78" gradientUnits="userSpaceOnUse">
    <stop stop-color="#FF9419"/>
    <stop offset="0.200736" stop-color="#FF021D"/>
    <stop offset="0.99" stop-color="#E600FF"/>
</linearGradient>
<linearGradient id="paint4_linear_9601_1216" x1="728" y1="805.5" x2="581.519" y2="630.7" gradientUnits="userSpaceOnUse">
    <stop offset="0.0214886" stop-color="#FF9419"/>
    <stop offset="0.155778" stop-color="#FF021D"/>
    <stop offset="0.99" stop-color="#E600FF"/>
</linearGradient>
<linearGradient id="paint5_linear_9601_1216" x1="-1883" y1="590.999" x2="-1822.31" y2="785.734" gradientUnits="userSpaceOnUse">
    <stop stop-color="#FF9419"/>
    <stop offset="0.2" stop-color="#FF021D"/>
    <stop offset="1" stop-color="#E600FF"/>
</linearGradient>
<linearGradient id="paint6_linear_9601_1216" x1="162.501" y1="1105.5" x2="-10.8667" y2="302.789" gradientUnits="userSpaceOnUse">
    <stop stop-color="#FF9419"/>
    <stop offset="0.731585" stop-color="#FF021D"/>
    <stop offset="0.99" stop-color="#E600FF"/>
</linearGradient>
<linearGradient id="paint7_linear_9601_1216" x1="160.375" y1="1.66341e+09" x2="160.376" y2="1.66341e+09" gradientUnits="userSpaceOnUse">
    <stop stop-color="#FF9419"/>
    <stop offset="0.662265" stop-color="#FF021D"/>
    <stop offset="0.852061" stop-color="#F60270"/>
</linearGradient>
<clipPath id="clip0_9601_1216">
    <rect width="1200" height="1200" fill="white"/>
</clipPath>
</defs>
</svg>
