<svg xmlns="http://www.w3.org/2000/svg" width="1200" height="1200" fill="none" viewBox="0 0 1200 1200"><path fill="#19191c" d="M0 0h1200v1200H0z"/><path fill="#303033" d="M640 830h55a2 2 0 0 0 2-2v-26a2 2 0 0 0-2-2H585a2 2 0 0 0-2 2v26a2 2 0 0 0 2 2z"/><path stroke="#303033" d="M646.608 375.509v155.5a2 2 0 0 0 2 2h97.5a2 2 0 0 0 2-2v-29.5a2 2 0 0 0-2-2h-99.5m229.5 0h30a2 2 0 0 1 2 2v29.5a2 2 0 0 1-2 2h-30a2 2 0 0 1-2-2v-29.5a2 2 0 0 1 2-2Zm-81.5 0h30a2 2 0 0 1 2 2v29.5a2 2 0 0 1-2 2h-30a2 2 0 0 1-2-2v-29.5a2 2 0 0 1 2-2Zm259.392 0H952.108a2 2 0 0 0-2 2v29.5c0 1.104.908 2 2.013 2h99.969c1.11 0 2.02-.9 2.01-2.007l-.49-155.493m-407.002-125v-79.5a2 2 0 0 1 2-2h24a2 2 0 0 0 2-2v-27.5a2 2 0 0 1 2-2h17.5"/><rect width="26" height="23" x="430.608" y="509.509" stroke="#303033" rx="1.5"/><path stroke="#303033" d="M987.101 137.509h36.999c1.11 0 2 .895 2 2v27.5c0 1.104.9 2 2 2h24c1.11 0 2 .895 2 2v79.5M565.965 533.008H584m64.965 0H625.5m-57.535-342.499h-19.364m-52.602 245.737 6.636 24.763 19.099 70.523a2 2 0 0 0 1.931 1.477h42.809a2 2 0 0 0 2-2l.006-76.501m-.379-169.999v59.5m0-207v117.5M240.27 1028.13l13.025 22.56M149.75 872.681 135 847.133m267.457 70.459 42.688-32.03a1.224 1.224 0 0 0 .326-1.592l-12.374-21.434a2 2 0 0 0-2.733-.732l-18.919 10.924-21.68 12.516a2 2 0 0 0-.816 2.569l19.843 43.065a2 2 0 0 1-.809 2.564l-30.984 18.067m86.177-157.378 12.487 21.627a2 2 0 0 0 2.542.829l25.927-11.476a2 2 0 0 1 2.542.828l14.238 24.661a2 2 0 0 1-.579 2.634l-28.496 20.113-28.037 19.79c-1.017.717-2.426.365-2.959-.76-3.959-8.352-18.783-39.315-30.373-59.39s-30.994-48.395-36.247-55.999c-.708-1.024-.309-2.421.821-2.943l31.157-14.386 31.666-14.622a2 2 0 0 1 2.571.816l14.238 24.661a2 2 0 0 1-.553 2.615l-22.903 16.716a2 2 0 0 0-.553 2.615l12.487 21.628m-137.281-9.146 49.083-20.954a1.224 1.224 0 0 1 1.542.514l12.375 21.433a2 2 0 0 1-.732 2.732l-18.92 10.923-21.68 12.517a2 2 0 0 1-2.633-.577l-27.372-38.716a2 2 0 0 0-2.627-.581l-31.908 18.276M875.862 682.51h-50M775 731.5v87.509M875.862 682.51s14-.087 38 4c19.159 3.264 29.714 6.415 33.193 7.554.794.259 1.307 1 1.307 1.836v28.916c0 .736-.403 1.41-1.063 1.733-1.699.831-5.312 2.485-9.937 3.961a61.7 61.7 0 0 1-10.03 2.284c-1.033.144-1.832 1.019-1.832 2.063v37.65"/><path stroke="#303033" d="m261.5 1047.5-98.089 56.24c-.952.54-2.167.22-2.721-.73L43.786 902.859a2 2 0 0 1 .718-2.736l272.032-158.886a2 2 0 0 0 .718-2.735L198.965 535.977c-.778-1.334.184-3.009 1.728-3.009l115.941.041a2 2 0 0 0 2.001-2v-478a2 2 0 0 1 2-2h824.995c1.11 0 2.01.896 2.01 2v542c0 1.105-.87 2-1.97 2h-89.54c-1.11 0-1.99.896-1.99 2V719.07c0 .86-.55 1.623-1.37 1.896L927 763.052a2 2 0 0 0-1.365 1.897v73.06a2 2 0 0 1-2 2H775M314.5 532.875h48.97a2 2 0 0 0 1.931-1.477l19.1-70.523 6.635-24.763M1052 532.904h20.86m75.14 0h-27.14"/><path stroke="#fff" stroke-width="2" d="m640.75 888-9.75 9.52m9.75-9.52 9.75 9.52m-9.75-9.52v53.5"/><path fill="#fff" d="M624.574 966.8h2.536l3.432 8.088.192.624.184-.624 3.36-8.088h2.568V978h-1.96v-7.968l.024-.424-3.48 8.392h-1.464l-3.464-8.336.024.368V978h-1.952zm18.153 2.816q1.008 0 1.768.36.768.352 1.192 1.024.424.664.424 1.576V978h-1.84l-.008-3.064h.44q0 1.008-.368 1.744a2.57 2.57 0 0 1-1.048 1.12q-.68.392-1.616.392a3.3 3.3 0 0 1-1.424-.296 2.4 2.4 0 0 1-.976-.84 2.2 2.2 0 0 1-.352-1.232q0-.656.336-1.208.344-.552.944-.904a3.3 3.3 0 0 1 1.376-.44l2.136-.224a.56.56 0 0 0 .392-.184q.144-.16.144-.464l.088 1.8-2.304.264q-.352.032-.616.184a1.15 1.15 0 0 0-.416.4q-.144.24-.144.56 0 .336.176.6.183.264.512.408.327.144.744.144.583 0 1.024-.224.44-.232.688-.648t.248-.952v-2.52q0-.392-.2-.688a1.3 1.3 0 0 0-.552-.456 1.9 1.9 0 0 0-.816-.168 2 2 0 0 0-.824.16 1.5 1.5 0 0 0-.592.416q-.225.264-.264.584h-1.88q.08-.768.568-1.368t1.28-.936a4.4 4.4 0 0 1 1.76-.344m5.545.192h1.904V978h-1.904zm1.976-3.008v1.808h-2.064V966.8zm2.262 3.008h1.848v3.408h-.544q0-1.096.376-1.904.376-.816 1.072-1.256.705-.44 1.648-.44.88 0 1.552.384.673.384 1.048 1.12.384.728.384 1.728V978h-1.904v-4.864q0-.576-.208-.992a1.4 1.4 0 0 0-.584-.632 1.77 1.77 0 0 0-.904-.224 1.96 1.96 0 0 0-.992.248 1.74 1.74 0 0 0-.664.696q-.231.448-.232 1.024V978h-1.896zM608.862 982.8h8.016v1.736h-6.088v2.96h5.544v1.744h-5.544v3.016h6.248V994h-8.176zm10.162 3.008h1.848v3.408h-.544q0-1.096.376-1.904.376-.816 1.072-1.256.704-.44 1.648-.44.88 0 1.552.384t1.048 1.12q.384.728.384 1.728V994h-1.904v-4.864q0-.576-.208-.992a1.4 1.4 0 0 0-.584-.632 1.77 1.77 0 0 0-.904-.224 1.96 1.96 0 0 0-.992.248 1.73 1.73 0 0 0-.664.696q-.232.448-.232 1.024V994h-1.896zM631.432 994q-.664 0-1.184-.28a2.07 2.07 0 0 1-.816-.776 2.2 2.2 0 0 1-.288-1.128l-.008-4.368h-1.44l.008-1.64h.896a.66.66 0 0 0 .488-.184.68.68 0 0 0 .184-.488v-1.32h1.768v1.992h1.968l-.008 1.64h-1.968l.008 4.136q0 .336.216.56a.77.77 0 0 0 .56.216H633V994zm3.429-8.192h1.888v3.176l-.632.52q.032-1.152.392-2 .368-.847 1.016-1.296.655-.456 1.536-.456h.304v1.92h-.544a2.4 2.4 0 0 0-1.096.224 1.65 1.65 0 0 0-.712.664 2 2 0 0 0-.248 1.016V994h-1.904zm9.042-.192q1.008 0 1.768.36.768.352 1.192 1.024.424.664.424 1.576V994h-1.84l-.008-3.064h.44q0 1.008-.368 1.744-.36.728-1.048 1.12-.68.392-1.616.392a3.3 3.3 0 0 1-1.424-.296 2.4 2.4 0 0 1-.976-.84 2.2 2.2 0 0 1-.352-1.232q0-.656.336-1.208.344-.552.944-.904a3.3 3.3 0 0 1 1.376-.44l2.136-.224a.56.56 0 0 0 .392-.184q.144-.16.144-.464l.088 1.8-2.304.264q-.352.032-.616.184a1.15 1.15 0 0 0-.416.4q-.144.24-.144.56 0 .336.176.6.184.264.512.408t.744.144q.584 0 1.024-.224a1.7 1.7 0 0 0 .688-.648q.248-.416.248-.952v-2.52q0-.392-.2-.688a1.3 1.3 0 0 0-.552-.456 1.9 1.9 0 0 0-.816-.168 2 2 0 0 0-.824.16q-.368.152-.592.416a1.1 1.1 0 0 0-.264.584h-1.88q.08-.768.568-1.368t1.28-.936a4.4 4.4 0 0 1 1.76-.344m5.545.192h1.848v3.408h-.544q0-1.096.376-1.904.375-.816 1.072-1.256.703-.44 1.648-.44.88 0 1.552.384t1.048 1.12q.384.728.384 1.728V994h-1.904v-4.864q0-.576-.208-.992a1.4 1.4 0 0 0-.584-.632 1.77 1.77 0 0 0-.904-.224q-.56 0-.992.248a1.73 1.73 0 0 0-.664.696q-.232.448-.232 1.024V994h-1.896zm13.192 8.384a4.3 4.3 0 0 1-2.168-.56 4.1 4.1 0 0 1-1.536-1.536 4.35 4.35 0 0 1-.56-2.192q0-1.207.56-2.184a4.06 4.06 0 0 1 1.536-1.544 4.3 4.3 0 0 1 2.168-.56q1.055 0 1.904.376a3.5 3.5 0 0 1 1.4 1.096q.543.72.696 1.712h-1.904a1.9 1.9 0 0 0-.464-.816 1.9 1.9 0 0 0-.736-.496 2.4 2.4 0 0 0-.888-.168q-.657 0-1.184.328a2.24 2.24 0 0 0-.816.92q-.296.592-.296 1.336t.296 1.336q.296.584.816.92.527.328 1.184.328.471 0 .888-.16.424-.168.736-.496.32-.336.464-.824h1.904a3.6 3.6 0 0 1-.704 1.696q-.561.72-1.416 1.104a4.5 4.5 0 0 1-1.88.384m9.322 0q-1.2 0-2.16-.552a3.9 3.9 0 0 1-1.488-1.528q-.536-.984-.536-2.216 0-1.216.544-2.192a3.95 3.95 0 0 1 1.496-1.536q.953-.552 2.144-.552 1.209 0 2.128.552a3.64 3.64 0 0 1 1.416 1.52q.496.976.496 2.208v.52h-6.296l.016-.424q0 .751.296 1.344.305.583.824.912.528.32 1.192.32.465 0 .84-.088a2 2 0 0 0 .648-.28q.28-.184.456-.44h1.88q-.136.6-.64 1.16-.495.552-1.344.912-.84.36-1.912.36m-2.256-5.096h4.392v.624q0-.744-.248-1.312-.24-.576-.72-.896t-1.16-.32q-.663 0-1.176.312-.504.304-.792.872-.28.56-.28 1.304zm-71.23-173.032h2.12l2.968 4.936h-2.224zm-3.56-6.264h4.736q1.152 0 2.024.424a3.14 3.14 0 0 1 1.344 1.2q.48.768.48 1.784 0 1.024-.488 1.808a3.2 3.2 0 0 1-1.368 1.216q-.88.424-2.056.424h-2.712V821h-1.96zm4.632 5.184q.576 0 1.008-.216t.664-.608q.24-.4.24-.936 0-.528-.24-.92a1.5 1.5 0 0 0-.664-.608 2.2 2.2 0 0 0-1.008-.216h-2.672v3.504zm9.145 6.208q-1.2 0-2.16-.552a3.9 3.9 0 0 1-1.488-1.528q-.536-.984-.536-2.216 0-1.216.544-2.192a3.95 3.95 0 0 1 1.496-1.536q.952-.552 2.144-.552 1.208 0 2.128.552a3.65 3.65 0 0 1 1.416 1.52q.496.976.496 2.208v.52h-6.296l.016-.424q0 .751.296 1.344.304.583.824.912.528.32 1.192.32.463 0 .84-.088a2 2 0 0 0 .648-.28q.28-.184.456-.44h1.88q-.136.6-.64 1.16-.497.552-1.344.912-.84.36-1.912.36m-2.256-5.096h4.392v.624q0-.744-.248-1.312-.24-.576-.72-.896t-1.16-.32q-.665 0-1.176.312-.504.304-.792.872-.28.56-.28 1.304zm11.644 7.656a5 5 0 0 1-1.808-.312q-.816-.304-1.336-.864a2.4 2.4 0 0 1-.632-1.264h1.856q.135.288.416.496.279.216.648.32.375.112.784.112.648 0 1.128-.264.487-.264.744-.736.264-.472.264-1.096v-.36l.072-2.36.664-.688q-.016 1.072-.448 1.896a3.2 3.2 0 0 1-1.192 1.28 3.27 3.27 0 0 1-1.704.448 3.5 3.5 0 0 1-1.848-.496 3.6 3.6 0 0 1-1.288-1.384q-.472-.88-.472-1.984t.472-1.984a3.6 3.6 0 0 1 1.288-1.384 3.47 3.47 0 0 1 1.848-.504q.951 0 1.704.464.76.456 1.192 1.288t.448 1.904l-.664-.624v-2.848h1.848l-.024 7.336q0 1.064-.496 1.888a3.3 3.3 0 0 1-1.4 1.272q-.897.448-2.064.448m-.064-4.992a2.08 2.08 0 0 0 1.864-1.104q.288-.52.288-1.16t-.288-1.152a2.1 2.1 0 0 0-.768-.816 2.1 2.1 0 0 0-1.096-.296q-.609 0-1.104.296a2.03 2.03 0 0 0-.76.816 2.4 2.4 0 0 0-.272 1.152q0 .64.272 1.16.271.512.76.808.495.296 1.104.296m6.382-5.952h1.904V821h-1.904zm1.976-3.008v1.808h-2.064V809.8zm5.303 11.392q-1.017 0-1.84-.304-.816-.312-1.296-.872a2 2 0 0 1-.504-1.264h1.912a.83.83 0 0 0 .256.504q.231.224.608.352.375.128.848.128.471 0 .824-.136.36-.136.56-.376a.87.87 0 0 0 .2-.56.9.9 0 0 0-.096-.408.75.75 0 0 0-.264-.312 1 1 0 0 0-.408-.16l-2.096-.32a2.9 2.9 0 0 1-1.112-.416 2.07 2.07 0 0 1-.72-.8 2.44 2.44 0 0 1-.248-1.112q0-.704.416-1.272.415-.576 1.168-.904.751-.328 1.704-.328.951 0 1.712.296.768.296 1.208.832.447.528.48 1.184h-1.928a.68.68 0 0 0-.216-.44 1.2 1.2 0 0 0-.528-.304 2.3 2.3 0 0 0-.744-.112q-.417 0-.736.128a1.13 1.13 0 0 0-.496.336.76.76 0 0 0-.176.496q0 .216.08.384a.75.75 0 0 0 .256.28q.175.103.424.144l2.056.304q.655.096 1.144.432.487.336.744.848.264.512.264 1.12 0 .76-.448 1.36-.448.592-1.24.936-.784.336-1.768.336m8.118-.192q-.665 0-1.184-.28a2.07 2.07 0 0 1-.816-.776 2.2 2.2 0 0 1-.288-1.128l-.008-4.368h-1.44l.008-1.64h.896a.66.66 0 0 0 .488-.184.68.68 0 0 0 .184-.488v-1.32h1.768v1.992h1.968l-.008 1.64h-1.968l.008 4.136q0 .336.216.56a.77.77 0 0 0 .56.216h1.184V821zm3.429-8.192h1.888v3.176l-.632.52q.032-1.152.392-2 .368-.847 1.016-1.296.655-.456 1.536-.456h.304v1.92h-.544q-.625-.008-1.096.224-.465.232-.712.664-.249.432-.248 1.016V821h-1.904zm9.042-.192q1.008 0 1.768.36.768.352 1.192 1.024.424.664.424 1.576V821h-1.84l-.008-3.064h.44q0 1.008-.368 1.744a2.57 2.57 0 0 1-1.048 1.12q-.68.392-1.616.392a3.3 3.3 0 0 1-1.424-.296 2.4 2.4 0 0 1-.976-.84 2.2 2.2 0 0 1-.352-1.232q0-.656.336-1.208.344-.552.944-.904a3.3 3.3 0 0 1 1.376-.44l2.136-.224a.56.56 0 0 0 .392-.184q.144-.16.144-.464l.088 1.8-2.304.264q-.352.032-.616.184a1.15 1.15 0 0 0-.416.4q-.144.24-.144.56 0 .336.176.6.183.264.512.408.327.144.744.144.583 0 1.024-.224.44-.232.688-.648t.248-.952v-2.52q0-.392-.2-.688a1.3 1.3 0 0 0-.552-.456 1.9 1.9 0 0 0-.816-.168 2 2 0 0 0-.824.16 1.5 1.5 0 0 0-.592.416q-.225.264-.264.584h-1.88q.08-.768.568-1.368t1.28-.936a4.4 4.4 0 0 1 1.76-.344M660.7 821q-.665 0-1.184-.28a2.07 2.07 0 0 1-.816-.776 2.2 2.2 0 0 1-.288-1.128l-.008-4.368h-1.44l.008-1.64h.896a.66.66 0 0 0 .488-.184.68.68 0 0 0 .184-.488v-1.32h1.768v1.992h1.968l-.008 1.64H660.3l.008 4.136q0 .336.216.56a.77.77 0 0 0 .56.216h1.184V821zm3.428-8.192h1.904V821h-1.904zm1.976-3.008v1.808h-2.064V809.8zm5.991 11.392q-1.224 0-2.216-.552a4 4 0 0 1-1.544-1.528q-.56-.984-.56-2.208t.56-2.2a4 4 0 0 1 1.552-1.536q.993-.552 2.216-.552t2.208.552a4 4 0 0 1 1.544 1.528q.56.976.56 2.208 0 1.231-.56 2.208a4 4 0 0 1-1.544 1.528q-.983.552-2.216.552m.016-1.712q.664 0 1.192-.32.529-.328.832-.912.304-.583.304-1.344 0-.76-.304-1.344a2.2 2.2 0 0 0-.84-.912 2.2 2.2 0 0 0-1.192-.328q-.663 0-1.208.328a2.2 2.2 0 0 0-.84.912q-.303.583-.304 1.344 0 .76.304 1.344.304.583.84.912.544.32 1.216.32m6.057-6.672h1.848v3.408h-.544q0-1.096.376-1.904.376-.816 1.072-1.256.705-.44 1.648-.44.88 0 1.552.384t1.048 1.12q.384.728.384 1.728V821h-1.904v-4.864q0-.576-.208-.992a1.4 1.4 0 0 0-.584-.632 1.77 1.77 0 0 0-.904-.224 1.96 1.96 0 0 0-.992.248 1.74 1.74 0 0 0-.664.696q-.231.448-.232 1.024V821h-1.896zm-79.591-292.463H597v-4.939h5.635v-4.128h5.659v-4.151h5.658v-4.128h6.447v1.577h-4.87v4.151h-5.635v4.128h-5.659v4.151h-5.658zm0-177.999H597v-4.939h5.635v-4.128h5.659v-4.151h5.658V325h6.447v1.577h-4.87v4.151h-5.635v4.128h-5.659v4.151h-5.658zm-2-94.001H595v-4.939h5.635v-4.128h5.659v-4.151h5.658v-4.128h6.447v1.577h-4.87v4.151h-5.635v4.128h-5.659v4.151h-5.658zm496.003 272H1091v-4.939h5.64v-4.128h5.65v-4.151h5.66v-4.128h6.45v1.577h-4.87v4.151h-5.64v4.128h-5.65v4.151h-5.66zm0-177.999H1091v-4.939h5.64v-4.128h5.65v-4.151h5.66V325h6.45v1.577h-4.87v4.151h-5.64v4.128h-5.65v4.151h-5.66zm-4-94.001H1087v-4.939h5.64v-4.128h5.65v-4.151h5.66v-4.128h6.45v1.577h-4.87v4.151h-5.64v4.128h-5.65v4.151h-5.66zM505.577 624.346H504v-4.939h5.635v-4.128h5.659v-4.151h5.658V607h6.447v1.577h-4.87v4.151h-5.635v4.128h-5.659v4.151h-5.658zm19 148H523v-4.939h5.635v-4.128h5.659v-4.151h5.658V755h6.447v1.577h-4.87v4.151h-5.635v4.128h-5.659v4.151h-5.658zm250-148H773v-4.939h5.635v-4.128h5.659v-4.151h5.658V607h6.447v1.577h-4.87v4.151h-5.635v4.128h-5.659v4.151h-5.658zm134 0H907v-4.939h5.635v-4.128h5.659v-4.151h5.658V607h6.447v1.577h-4.87v4.151h-5.635v4.128h-5.659v4.151h-5.658z"/><path stroke="#4b4b4b" stroke-width="3" d="m150.333 872.809-13.756-23.826a2 2 0 0 1 .721-2.726l89.624-52.495 89.614-52.49a2 2 0 0 0 .716-2.735L199.019 536.271c-.779-1.333.183-3.009 1.727-3.009H363.73a2 2 0 0 0 1.931-1.477l12.6-46.523 13-48m-72-61v-183.5a2 2 0 0 1 2-2h15.01c.884 0 1.662-.577 1.914-1.424 1.894-6.351 9.686-32.59 14.676-50.868a1.994 1.994 0 0 1 1.93-1.47h177.675a2 2 0 0 1 1.932 1.481l13.704 51.038a2 2 0 0 0 1.932 1.481H566a2 2 0 0 0 2-2v-50.5a2 2 0 0 1 2-2h74.76a2 2 0 0 1 2 2v29.262a2 2 0 0 0 2 2h24.5a2 2 0 0 0 2-2v-28a2 2 0 0 1 2-2h347.5c1.11 0 2 .895 2 2v28c0 1.105.9 2 2 2h25.5M241.761 1029.26l11.021 20.67c.534 1 1.794 1.35 2.774.78L498.1 908.855a2 2 0 0 1 .335-.156l79.326-28.437m57.5-19 24.5-8.5m57.499-18 55.334-19.558a2 2 0 0 1 2.667 1.886v21.172a2 2 0 0 0 2 2H923.76a2 2 0 0 0 2-2v-73.319a2 2 0 0 1 1.369-1.898l125.761-41.828a2 2 0 0 0 1.37-1.898V598.762c0-1.105.9-2 2-2h89.5c1.11 0 2-.896 2-2v-455c0-1.105-.9-2-2-2h-89.5c-1.1 0-2 .895-2 2v30m0 10.5v-10.5M679.862 846.009l-4.5 1.5m25-8-4.5 1.5m-97.001 32-4.5 1.5m24-8-4 1.5"/><path stroke="url(#paint0_linear_9955_3642)" stroke-width="3" d="M477.136 343h24.011c.915 0 1.711-.621 1.935-1.509l15.778-62.399a2 2 0 0 0-.514-1.894l-31.123-31.601a2 2 0 0 0-1.425-.597H400.34c-.537 0-1.052.217-1.428.6l-30.99 31.599a1.98 1.98 0 0 0-.513 1.881l15.785 62.432a1.975 1.975 0 0 0 1.934 1.488h24.008"/><path stroke="url(#paint1_linear_9955_3642)" stroke-width="3" d="M425.136 343h36"/><g fill="#fff" clip-path="url(#clip0_9955_3642)"><path d="M851.857 610.769a.85.85 0 0 1-.857.846h-.857V604h-1.714v7.615h-.858a.85.85 0 0 1-.857-.846V604H845v6.769c0 1.401 1.153 2.539 2.571 2.539h.858V626h1.714v-12.692H851c1.419 0 2.571-1.138 2.571-2.539V604h-1.714zm9.534-6.769c-1.402 0-2.72.539-3.71 1.517a5.1 5.1 0 0 0-1.536 3.661v9.204h5.143v7.616h1.714V604zm-.105 12.692h-3.429v-7.511c0-.931.367-1.807 1.035-2.467a3.47 3.47 0 0 1 2.394-1.02z"/></g><g fill="#fff" clip-path="url(#clip1_9955_3642)"><path d="M634.857 610.769a.85.85 0 0 1-.857.846h-.857V604h-1.714v7.615h-.858a.85.85 0 0 1-.857-.846V604H628v6.769c0 1.401 1.153 2.539 2.571 2.539h.858V626h1.714v-12.692H634c1.419 0 2.571-1.138 2.571-2.539V604h-1.714zm9.534-6.769c-1.402 0-2.72.539-3.71 1.517a5.1 5.1 0 0 0-1.536 3.661v9.204h5.143v7.616h1.714V604zm-.105 12.692h-3.429v-7.511c0-.931.367-1.807 1.035-2.467a3.47 3.47 0 0 1 2.394-1.02z"/></g><g fill="#fff" clip-path="url(#clip2_9955_3642)"><path d="M452.857 610.769a.85.85 0 0 1-.857.846h-.857V604h-1.714v7.615h-.858a.85.85 0 0 1-.857-.846V604H446v6.769c0 1.401 1.153 2.539 2.571 2.539h.858V626h1.714v-12.692H452c1.419 0 2.571-1.138 2.571-2.539V604h-1.714zm9.534-6.769c-1.402 0-2.72.539-3.71 1.517a5.1 5.1 0 0 0-1.536 3.661v9.204h5.143v7.616h1.714V604zm-.105 12.692h-3.429v-7.511c0-.931.367-1.807 1.035-2.467a3.47 3.47 0 0 1 2.394-1.02z"/></g><g clip-path="url(#clip3_9955_3642)"><path fill="#fff" d="M389 497c-5.523 0-10 4.286-10 9.574v4.682c0 4.608 3.432 8.573 8.185 9.404l.987.17v-4.702h1.656V521l.987-.17c4.733-.85 8.185-4.872 8.185-9.536v-4.72c0-5.288-4.497-9.574-10-9.574m-2.505 13.747-2.505-1.435v-2.134l2.505 1.435zm10.828-2.191v2.7c0 3.513-2.406 6.572-5.838 7.61v-6.401l4.162-2.398v-5.703l-5.838 3.343v6.835h-1.657v-6.835l-5.838-3.343v5.854l4.161 2.398v6.25c-3.432-1.038-5.838-4.097-5.838-7.61v-4.682c.02-4.4 3.767-7.988 8.363-7.988s8.323 3.569 8.323 7.969zm-5.838 2.04v-1.983l2.505-1.435v1.983z"/></g><path fill="#fff" d="M209.757 903.8h2.136l4.184 11.2h-2l-.952-2.696h-4.504l-.88 2.696h-2.056zm2.832 6.944-1.616-4.496-.168-.696-.176.696-1.512 4.496zM224.6 915h-1.848v-3.408h.544q0 1.096-.376 1.912a2.85 2.85 0 0 1-1.08 1.248q-.696.44-1.64.44-.88 0-1.552-.384a2.7 2.7 0 0 1-1.056-1.112q-.376-.736-.376-1.736v-5.152h1.904v4.864q0 .576.2.992.208.416.592.64.384.216.904.216.56 0 .984-.248a1.67 1.67 0 0 0 .664-.696q.24-.448.24-1.024v-4.744h1.896zm8.344-11.2h1.896V915h-1.896zm-2.792 11.392q-1.104 0-1.968-.536a3.7 3.7 0 0 1-1.352-1.52q-.488-.976-.488-2.232 0-1.255.488-2.232.488-.976 1.352-1.512.864-.544 1.968-.544 1.016 0 1.784.448t1.192 1.264q.432.816.448 1.888h-.568v1.376h.568q-.016 1.072-.448 1.888-.424.816-1.192 1.264t-1.784.448m.472-1.704q.688 0 1.216-.328.536-.328.824-.912.296-.583.296-1.344 0-.76-.296-1.344a2.17 2.17 0 0 0-.824-.912 2.24 2.24 0 0 0-1.208-.328 2.24 2.24 0 0 0-1.208.328 2.26 2.26 0 0 0-.816.912q-.288.583-.288 1.344 0 .76.288 1.344.296.583.816.912.528.328 1.2.328m6.457-6.68h1.904V915h-1.904zm1.976-3.008v1.808h-2.064V903.8zm5.151 11.2q-.665 0-1.184-.28a2.07 2.07 0 0 1-.816-.776 2.2 2.2 0 0 1-.288-1.128l-.008-4.368h-1.44l.008-1.64h.896a.66.66 0 0 0 .488-.184.68.68 0 0 0 .184-.488v-1.32h1.768v1.992h1.968l-.008 1.64h-1.968l.008 4.136q0 .336.216.56a.77.77 0 0 0 .56.216h1.184V915zm7.157.192q-1.224 0-2.216-.552a4 4 0 0 1-1.544-1.528q-.56-.984-.56-2.208t.56-2.2a3.97 3.97 0 0 1 1.552-1.536q.992-.552 2.216-.552t2.208.552 1.544 1.528.56 2.208-.56 2.208a4 4 0 0 1-1.544 1.528q-.984.552-2.216.552m.016-1.712q.664 0 1.192-.32.528-.328.832-.912.304-.583.304-1.344 0-.76-.304-1.344a2.2 2.2 0 0 0-.84-.912 2.2 2.2 0 0 0-1.192-.328q-.665 0-1.208.328a2.2 2.2 0 0 0-.84.912q-.304.583-.304 1.344 0 .76.304 1.344.303.583.84.912.543.32 1.216.32m6.057-6.672h1.888v3.176l-.632.52q.032-1.152.392-2 .368-.847 1.016-1.296.656-.456 1.536-.456h.304v1.92h-.544q-.624-.008-1.096.224-.465.232-.712.664-.248.432-.248 1.016V915h-1.904zm5.942 0h1.904V915h-1.904zm1.976-3.008v1.808h-2.064V903.8zm9.446 11.2h-1.848v-3.408h.544q0 1.096-.376 1.912-.375.809-1.08 1.248-.695.44-1.64.44-.88 0-1.552-.384a2.7 2.7 0 0 1-1.056-1.112q-.375-.736-.376-1.736v-5.152h1.904v4.864q0 .576.2.992.208.416.592.64.384.216.904.216.561 0 .984-.248.433-.247.664-.696.24-.448.24-1.024v-4.744h1.896zm2.336-8.192h1.848v3.408h-.48q.009-1.104.352-1.912.352-.816 1-1.248.656-.44 1.544-.44.873 0 1.504.4.633.392.968 1.12.344.728.344 1.696V915h-1.856v-4.944q0-.544-.184-.944a1.36 1.36 0 0 0-.544-.616 1.57 1.57 0 0 0-.84-.216q-.528 0-.928.24t-.616.688q-.207.44-.208 1.04V915h-1.904zm10.408 3.248a2.16 2.16 0 0 0-.192-.944 1.37 1.37 0 0 0-.536-.616q-.344-.216-.84-.216-.528 0-.928.248-.391.24-.616.68-.216.44-.216 1.04l-.784-.032q0-1.072.384-1.888a2.95 2.95 0 0 1 1.088-1.264q.705-.448 1.64-.448.873 0 1.528.4.665.392 1.016 1.12.36.728.36 1.696V915h-1.904zm3.362 6.264h.352q.568 0 .904-.36t.336-.96h-1.08v-2.128h2.208v1.96q0 .76-.288 1.32a2 2 0 0 1-.824.864q-.536.304-1.256.304h-.352zm-63.185 9.744h2.12l2.968 4.936h-2.224zm-3.56-6.264h4.736q1.152 0 2.024.424a3.14 3.14 0 0 1 1.344 1.2q.48.768.48 1.784 0 1.024-.488 1.808a3.2 3.2 0 0 1-1.368 1.216q-.88.424-2.056.424h-2.712V931h-1.96zm4.632 5.184q.576 0 1.008-.216t.664-.608q.24-.4.24-.936 0-.528-.24-.92a1.5 1.5 0 0 0-.664-.608 2.2 2.2 0 0 0-1.008-.216h-2.672v3.504zm9.29 6.208q-1.224 0-2.216-.552a4 4 0 0 1-1.544-1.528q-.56-.984-.56-2.208t.56-2.2a3.97 3.97 0 0 1 1.552-1.536q.992-.552 2.216-.552t2.208.552 1.544 1.528.56 2.208-.56 2.208a4 4 0 0 1-1.544 1.528q-.984.552-2.216.552m.016-1.712q.663 0 1.192-.32.528-.328.832-.912.304-.583.304-1.344 0-.76-.304-1.344a2.2 2.2 0 0 0-.84-.912 2.2 2.2 0 0 0-1.192-.328q-.665 0-1.208.328a2.2 2.2 0 0 0-.84.912q-.304.583-.304 1.344 0 .76.304 1.344.303.583.84.912.543.32 1.216.32m9.785 1.712q-1.224 0-2.216-.552a4 4 0 0 1-1.544-1.528q-.56-.984-.56-2.208t.56-2.2a3.97 3.97 0 0 1 1.552-1.536q.992-.552 2.216-.552t2.208.552 1.544 1.528.56 2.208-.56 2.208a4 4 0 0 1-1.544 1.528q-.984.552-2.216.552m.016-1.712q.663 0 1.192-.32.528-.328.832-.912.303-.583.304-1.344 0-.76-.304-1.344a2.2 2.2 0 0 0-.84-.912 2.2 2.2 0 0 0-1.192-.328q-.665 0-1.208.328a2.2 2.2 0 0 0-.84.912q-.304.583-.304 1.344 0 .76.304 1.344.303.583.84.912.543.32 1.216.32m6.057-6.672h1.848v3.408h-.48q.008-1.104.352-1.912.352-.816 1-1.248.656-.44 1.544-.44.872 0 1.504.4.632.392.968 1.12.344.728.344 1.696V931h-1.856v-4.944q0-.544-.184-.944a1.36 1.36 0 0 0-.544-.616 1.6 1.6 0 0 0-.84-.216q-.528 0-.928.24t-.616.688q-.208.44-.208 1.04V931h-1.904zm10.408 3.248a2.16 2.16 0 0 0-.192-.944 1.4 1.4 0 0 0-.536-.616q-.344-.216-.84-.216-.528 0-.928.248a1.66 1.66 0 0 0-.616.68q-.216.44-.216 1.04l-.784-.032q0-1.072.384-1.888a2.95 2.95 0 0 1 1.088-1.264q.704-.448 1.64-.448.872 0 1.528.4a2.56 2.56 0 0 1 1.016 1.12q.36.728.36 1.696V931h-1.904zm9.233-2.928h-2.632v-1.632h1.48q.495 0 .864-.208.375-.208.568-.592.2-.384.2-.896h1.48V931h-1.96zM418.865 288.8v9.368h5.424V300h-7.376v-11.2zm10.423 11.392q-1.224 0-2.216-.552a4 4 0 0 1-1.544-1.528q-.56-.984-.56-2.208t.56-2.2a3.97 3.97 0 0 1 1.552-1.536q.992-.552 2.216-.552t2.208.552 1.544 1.528.56 2.208-.56 2.208a4 4 0 0 1-1.544 1.528q-.984.552-2.216.552m.016-1.712q.663 0 1.192-.32.528-.329.832-.912.303-.584.304-1.344 0-.76-.304-1.344a2.2 2.2 0 0 0-.84-.912 2.2 2.2 0 0 0-1.192-.328q-.665 0-1.208.328a2.2 2.2 0 0 0-.84.912q-.304.584-.304 1.344t.304 1.344.84.912q.543.32 1.216.32m13.241 1.52h-1.848v-3.408h.544q0 1.096-.376 1.912a2.85 2.85 0 0 1-1.08 1.248q-.696.44-1.64.44-.88 0-1.552-.384a2.7 2.7 0 0 1-1.056-1.112q-.376-.736-.376-1.736v-5.152h1.904v4.864q0 .576.2.992.208.416.592.64.384.216.904.216.56 0 .984-.248a1.67 1.67 0 0 0 .664-.696q.24-.448.24-1.024v-4.744h1.896zm2.336-8.192h1.848v3.408h-.544q0-1.096.376-1.904.376-.816 1.072-1.256.704-.44 1.648-.44.88 0 1.552.384t1.048 1.12q.384.727.384 1.728V300h-1.904v-4.864q0-.576-.208-.992a1.4 1.4 0 0 0-.584-.632 1.77 1.77 0 0 0-.904-.224 1.96 1.96 0 0 0-.992.248 1.73 1.73 0 0 0-.664.696q-.232.448-.232 1.024V300h-1.896zm13.128 10.944a5 5 0 0 1-1.808-.312q-.816-.305-1.336-.864a2.4 2.4 0 0 1-.632-1.264h1.856q.136.288.416.496.28.216.648.32.376.112.784.112.648 0 1.128-.264.488-.264.744-.736.264-.472.264-1.096v-.36l.072-2.36.664-.688q-.016 1.072-.448 1.896a3.2 3.2 0 0 1-1.192 1.28q-.751.448-1.704.448a3.5 3.5 0 0 1-1.848-.496 3.6 3.6 0 0 1-1.288-1.384q-.472-.88-.472-1.984t.472-1.984a3.6 3.6 0 0 1 1.288-1.384 3.47 3.47 0 0 1 1.848-.504 3.2 3.2 0 0 1 1.704.464 3.16 3.16 0 0 1 1.192 1.288q.432.832.448 1.904l-.664-.624v-2.848h1.848l-.024 7.336q0 1.064-.496 1.888a3.3 3.3 0 0 1-1.4 1.272q-.896.448-2.064.448m-.064-4.992a2.08 2.08 0 0 0 1.864-1.104q.288-.52.288-1.16t-.288-1.152a2.1 2.1 0 0 0-.768-.816 2.1 2.1 0 0 0-1.096-.296q-.608 0-1.104.296a2.04 2.04 0 0 0-.76.816 2.4 2.4 0 0 0-.272 1.152q0 .64.272 1.16a2.05 2.05 0 0 0 1.864 1.104m9.966 2.432q-1.2 0-2.16-.552a3.9 3.9 0 0 1-1.488-1.528q-.536-.984-.536-2.216 0-1.216.544-2.192a3.95 3.95 0 0 1 1.496-1.536q.953-.552 2.144-.552 1.209 0 2.128.552a3.64 3.64 0 0 1 1.416 1.52q.496.976.496 2.208v.52h-6.296l.016-.424q0 .752.296 1.344.305.583.824.912.529.32 1.192.32.465 0 .84-.088a2 2 0 0 0 .648-.28q.28-.184.456-.44h1.88q-.135.6-.64 1.16-.495.552-1.344.912-.84.36-1.912.36m-2.256-5.096h4.392v.624q0-.744-.248-1.312-.24-.576-.72-.896t-1.16-.32q-.663 0-1.176.312-.504.304-.792.872-.28.56-.28 1.304zM338.64 411.064h2.12l2.968 4.936h-2.224zm-3.56-6.264h4.736q1.152 0 2.024.424a3.13 3.13 0 0 1 1.344 1.2q.48.768.48 1.784 0 1.024-.488 1.808a3.2 3.2 0 0 1-1.368 1.216q-.88.424-2.056.424h-2.712V416h-1.96zm4.632 5.184q.576 0 1.008-.216t.664-.608q.24-.4.24-.936 0-.528-.24-.92a1.5 1.5 0 0 0-.664-.608 2.2 2.2 0 0 0-1.008-.216h-2.672v3.504zm9.02 6.208q-1.224 0-2.216-.552a4 4 0 0 1-1.544-1.528q-.56-.984-.56-2.208t.56-2.2a3.97 3.97 0 0 1 1.552-1.536q.992-.552 2.216-.552t2.208.552 1.544 1.528.56 2.208-.56 2.208a4 4 0 0 1-1.544 1.528q-.984.552-2.216.552m.016-1.712q.663 0 1.192-.32.528-.329.832-.912.303-.584.304-1.344 0-.76-.304-1.344a2.2 2.2 0 0 0-.84-.912 2.2 2.2 0 0 0-1.192-.328q-.665 0-1.208.328a2.2 2.2 0 0 0-.84.912q-.304.584-.304 1.344t.304 1.344.84.912q.543.32 1.216.32m9.515 1.712q-1.224 0-2.216-.552a4 4 0 0 1-1.544-1.528q-.56-.984-.56-2.208t.56-2.2a4 4 0 0 1 1.552-1.536q.992-.552 2.216-.552t2.208.552a4 4 0 0 1 1.544 1.528q.56.976.56 2.208t-.56 2.208a4 4 0 0 1-1.544 1.528q-.984.552-2.216.552m.016-1.712q.664 0 1.192-.32.528-.329.832-.912.304-.584.304-1.344t-.304-1.344a2.2 2.2 0 0 0-.84-.912 2.2 2.2 0 0 0-1.192-.328q-.664 0-1.208.328a2.2 2.2 0 0 0-.84.912q-.304.584-.304 1.344t.304 1.344.84.912q.544.32 1.216.32m5.787-6.672h1.848v3.408h-.48q.009-1.104.352-1.912.352-.816 1-1.248.656-.44 1.544-.44.873 0 1.504.4.632.392.968 1.12.345.728.344 1.696V416h-1.856v-4.944q0-.544-.184-.944a1.36 1.36 0 0 0-.544-.616 1.57 1.57 0 0 0-.84-.216q-.528 0-.928.24t-.616.688q-.207.44-.208 1.04V416h-1.904zm10.408 3.248a2.16 2.16 0 0 0-.192-.944 1.37 1.37 0 0 0-.536-.616q-.344-.216-.84-.216-.528 0-.928.248-.391.24-.616.68-.216.44-.216 1.04l-.784-.032q0-1.072.384-1.888a2.95 2.95 0 0 1 1.088-1.264q.705-.448 1.64-.448.873 0 1.528.4.665.392 1.016 1.12.36.728.36 1.696V416h-1.904zm-22.883 19.4 4.544-4.08q.592-.544.872-1.064t.28-1.096q0-.552-.248-.968a1.63 1.63 0 0 0-.688-.656 2.1 2.1 0 0 0-1.008-.232q-.616 0-1.096.264t-.744.736a2.2 2.2 0 0 0-.264 1.08h-1.976q0-1.096.528-1.968a3.6 3.6 0 0 1 1.464-1.368q.936-.496 2.112-.496 1.12 0 2.016.448a3.4 3.4 0 0 1 1.4 1.232q.504.784.496 1.776 0 .944-.488 1.792-.487.848-1.512 1.744l-2.92 2.648h5.224V432h-7.984zm165.049-19.392h2.12l2.968 4.936h-2.224zm-3.56-6.264h4.736q1.152 0 2.024.424a3.13 3.13 0 0 1 1.344 1.2q.48.768.48 1.784 0 1.024-.488 1.808a3.2 3.2 0 0 1-1.368 1.216q-.88.424-2.056.424h-2.712V416h-1.96zm4.632 5.184q.576 0 1.008-.216t.664-.608q.24-.4.24-.936 0-.528-.24-.92a1.5 1.5 0 0 0-.664-.608 2.2 2.2 0 0 0-1.008-.216h-2.672v3.504zm9.02 6.208q-1.224 0-2.216-.552a4 4 0 0 1-1.544-1.528q-.56-.984-.56-2.208t.56-2.2a3.97 3.97 0 0 1 1.552-1.536q.992-.552 2.216-.552t2.208.552 1.544 1.528.56 2.208-.56 2.208a4 4 0 0 1-1.544 1.528q-.984.552-2.216.552m.016-1.712q.663 0 1.192-.32.528-.329.832-.912.303-.584.304-1.344 0-.76-.304-1.344a2.2 2.2 0 0 0-.84-.912 2.2 2.2 0 0 0-1.192-.328q-.665 0-1.208.328a2.2 2.2 0 0 0-.84.912q-.304.584-.304 1.344t.304 1.344.84.912q.543.32 1.216.32m9.515 1.712q-1.224 0-2.216-.552a4 4 0 0 1-1.544-1.528q-.56-.984-.56-2.208t.56-2.2a4 4 0 0 1 1.552-1.536q.992-.552 2.216-.552t2.208.552a4 4 0 0 1 1.544 1.528q.56.976.56 2.208t-.56 2.208a4 4 0 0 1-1.544 1.528q-.984.552-2.216.552m.016-1.712q.664 0 1.192-.32.528-.329.832-.912.304-.584.304-1.344t-.304-1.344a2.2 2.2 0 0 0-.84-.912 2.2 2.2 0 0 0-1.192-.328q-.664 0-1.208.328a2.2 2.2 0 0 0-.84.912q-.304.584-.304 1.344t.304 1.344.84.912q.544.32 1.216.32m5.787-6.672h1.848v3.408h-.48q.009-1.104.352-1.912.352-.816 1-1.248.657-.44 1.544-.44.873 0 1.504.4.633.392.968 1.12.344.728.344 1.696V416h-1.856v-4.944q0-.544-.184-.944a1.36 1.36 0 0 0-.544-.616 1.57 1.57 0 0 0-.84-.216q-.528 0-.928.24t-.616.688q-.207.44-.208 1.04V416h-1.904zm10.408 3.248a2.16 2.16 0 0 0-.192-.944 1.37 1.37 0 0 0-.536-.616q-.344-.216-.84-.216-.528 0-.928.248-.391.24-.616.68-.216.44-.216 1.04l-.784-.032q0-1.072.384-1.888a2.95 2.95 0 0 1 1.088-1.264q.704-.448 1.64-.448.873 0 1.528.4.665.392 1.016 1.12.36.728.36 1.696V416h-1.904zm-19.227 21.136q-1.168 0-2.104-.44a3.75 3.75 0 0 1-1.48-1.24 3.24 3.24 0 0 1-.568-1.8h1.984q.032.512.32.92.296.408.784.64.487.224 1.08.224.624 0 1.12-.256a1.9 1.9 0 0 0 .784-.712q.28-.456.28-1.024a1.9 1.9 0 0 0-.288-1.048 1.96 1.96 0 0 0-.792-.72 2.5 2.5 0 0 0-1.152-.256h-1.416v-1.424l2.84-2.592h-4.952V420.8h7.352v1.456l-3.792 3.424v-.696q1.216-.024 2.168.424a3.5 3.5 0 0 1 1.488 1.272q.536.824.536 1.88t-.536 1.88a3.6 3.6 0 0 1-1.488 1.288q-.952.464-2.168.464M420.418 185.064h2.12l2.968 4.936h-2.224zm-3.56-6.264h4.736q1.152 0 2.024.424a3.13 3.13 0 0 1 1.344 1.2q.48.768.48 1.784 0 1.024-.488 1.808a3.2 3.2 0 0 1-1.368 1.216q-.88.424-2.056.424h-2.712V190h-1.96zm4.632 5.184q.576 0 1.008-.216t.664-.608q.24-.4.24-.936 0-.528-.24-.92a1.5 1.5 0 0 0-.664-.608 2.2 2.2 0 0 0-1.008-.216h-2.672v3.504zm9.29 6.208q-1.224 0-2.216-.552a4 4 0 0 1-1.544-1.528q-.56-.984-.56-2.208t.56-2.2a4 4 0 0 1 1.552-1.536q.992-.552 2.216-.552t2.208.552a4 4 0 0 1 1.544 1.528q.56.977.56 2.208t-.56 2.208a4 4 0 0 1-1.544 1.528q-.984.552-2.216.552m.016-1.712q.664 0 1.192-.32.528-.328.832-.912t.304-1.344-.304-1.344a2.2 2.2 0 0 0-.84-.912 2.2 2.2 0 0 0-1.192-.328q-.664 0-1.208.328a2.2 2.2 0 0 0-.84.912q-.304.584-.304 1.344t.304 1.344.84.912q.544.32 1.216.32m9.785 1.712q-1.224 0-2.216-.552a4 4 0 0 1-1.544-1.528q-.56-.984-.56-2.208t.56-2.2a4 4 0 0 1 1.552-1.536q.992-.552 2.216-.552t2.208.552a4 4 0 0 1 1.544 1.528q.56.977.56 2.208t-.56 2.208a4 4 0 0 1-1.544 1.528q-.984.552-2.216.552m.016-1.712q.664 0 1.192-.32.528-.328.832-.912t.304-1.344-.304-1.344a2.2 2.2 0 0 0-.84-.912 2.2 2.2 0 0 0-1.192-.328q-.664 0-1.208.328a2.2 2.2 0 0 0-.84.912q-.304.584-.304 1.344t.304 1.344q.305.584.84.912.544.32 1.216.32m6.057-6.672h1.848v3.408h-.48q.009-1.104.352-1.912.352-.816 1-1.248.657-.44 1.544-.44.873 0 1.504.4.632.392.968 1.12.345.728.344 1.696V190h-1.856v-4.944q0-.544-.184-.944a1.36 1.36 0 0 0-.544-.616 1.57 1.57 0 0 0-.84-.216q-.528 0-.928.24t-.616.688q-.208.44-.208 1.04V190h-1.904zm10.408 3.248a2.16 2.16 0 0 0-.192-.944 1.37 1.37 0 0 0-.536-.616q-.344-.216-.84-.216-.528 0-.928.248-.391.24-.616.68-.216.44-.216 1.04l-.784-.032q0-1.072.384-1.888a2.95 2.95 0 0 1 1.088-1.264q.705-.448 1.64-.448.873 0 1.528.4.665.392 1.016 1.12.36.728.36 1.696V190h-1.904zm11.575 5.136a4.9 4.9 0 0 1-2-.4 3.84 3.84 0 0 1-1.456-1.12 3.17 3.17 0 0 1-.656-1.6h1.984q.089.4.384.728.304.328.752.52.456.184.984.184.648 0 1.136-.28.497-.28.768-.792a2.5 2.5 0 0 0 .272-1.176 2.5 2.5 0 0 0-.272-1.184 1.93 1.93 0 0 0-.768-.792q-.488-.28-1.136-.28-.432 0-.824.152a2.3 2.3 0 0 0-.672.4q-.28.24-.416.496h-1.864l.504-6.248h6.784v1.688h-5.24l-.264 3.064q.216-.328.608-.576t.872-.376q.48-.136.944-.136 1.08 0 1.928.488.848.48 1.328 1.352.48.864.48 1.968 0 1.144-.528 2.04a3.6 3.6 0 0 1-1.464 1.384q-.944.496-2.168.496m-76.729 4.608v9.368h5.424V206h-7.376v-11.2zm6.96 3.008h1.904V206h-1.904zm1.976-3.008v1.808h-2.064V194.8zm5.871 13.952a5 5 0 0 1-1.808-.312q-.816-.305-1.336-.864a2.4 2.4 0 0 1-.632-1.264h1.856q.136.288.416.496.28.216.648.32.376.112.784.112.648 0 1.128-.264.487-.264.744-.736.264-.472.264-1.096v-.36l.072-2.36.664-.688q-.016 1.073-.448 1.896a3.2 3.2 0 0 1-1.192 1.28q-.752.448-1.704.448a3.5 3.5 0 0 1-1.848-.496 3.6 3.6 0 0 1-1.288-1.384q-.472-.88-.472-1.984t.472-1.984a3.6 3.6 0 0 1 1.288-1.384 3.47 3.47 0 0 1 1.848-.504 3.2 3.2 0 0 1 1.704.464 3.16 3.16 0 0 1 1.192 1.288q.432.832.448 1.904l-.664-.624v-2.848h1.848l-.024 7.336q0 1.064-.496 1.888a3.3 3.3 0 0 1-1.4 1.272q-.895.448-2.064.448m-.064-4.992a2.08 2.08 0 0 0 1.864-1.104q.288-.52.288-1.16t-.288-1.152a2.1 2.1 0 0 0-.768-.816 2.1 2.1 0 0 0-1.096-.296q-.608 0-1.104.296a2.04 2.04 0 0 0-.76.816 2.4 2.4 0 0 0-.272 1.152q0 .64.272 1.16a2.05 2.05 0 0 0 1.864 1.104m6.382-8.96h1.864v2.528l-.024 1.52.008 2.368h-.52q0-1.096.376-1.904.376-.816 1.064-1.256.696-.44 1.64-.44.88 0 1.544.384.672.384 1.048 1.12.376.728.376 1.728V206h-1.904v-4.864q0-.576-.208-.992a1.4 1.4 0 0 0-.584-.632 1.7 1.7 0 0 0-.896-.224q-.56 0-.984.248a1.73 1.73 0 0 0-.664.696q-.232.448-.232 1.024V206h-1.904zm12.408 11.2q-.664 0-1.184-.28a2.07 2.07 0 0 1-.816-.776 2.2 2.2 0 0 1-.288-1.128l-.008-4.368h-1.44l.008-1.64h.896a.66.66 0 0 0 .488-.184.68.68 0 0 0 .184-.488v-1.32h1.768v1.992h1.968l-.008 1.64h-1.968l.008 4.136q0 .336.216.56a.77.77 0 0 0 .56.216h1.184V206zm3.429-8.192h1.848v3.408h-.544q0-1.096.376-1.904.376-.816 1.072-1.256.704-.44 1.648-.44.88 0 1.552.384t1.048 1.12q.384.728.384 1.728V206h-1.904v-4.864q0-.576-.208-.992a1.4 1.4 0 0 0-.584-.632 1.77 1.77 0 0 0-.904-.224 1.96 1.96 0 0 0-.992.248 1.73 1.73 0 0 0-.664.696q-.232.448-.232 1.024V206h-1.896zm9.52 0h1.904V206h-1.904zm1.976-3.008v1.808h-2.064V194.8zm2.263 3.008h1.848v3.408h-.544q0-1.096.376-1.904.376-.816 1.072-1.256.703-.44 1.648-.44.88 0 1.552.384t1.048 1.12q.384.728.384 1.728V206h-1.904v-4.864q0-.576-.208-.992a1.4 1.4 0 0 0-.584-.632 1.77 1.77 0 0 0-.904-.224q-.56 0-.992.248a1.73 1.73 0 0 0-.664.696q-.232.448-.232 1.024V206h-1.896zm13.128 10.944a5 5 0 0 1-1.808-.312q-.817-.305-1.336-.864a2.4 2.4 0 0 1-.632-1.264h1.856q.135.288.416.496.279.216.648.32.375.112.784.112.648 0 1.128-.264.487-.264.744-.736.264-.472.264-1.096v-.36l.072-2.36.664-.688q-.016 1.073-.448 1.896a3.2 3.2 0 0 1-1.192 1.28 3.27 3.27 0 0 1-1.704.448 3.5 3.5 0 0 1-1.848-.496 3.6 3.6 0 0 1-1.288-1.384q-.472-.88-.472-1.984t.472-1.984a3.6 3.6 0 0 1 1.288-1.384 3.47 3.47 0 0 1 1.848-.504q.951 0 1.704.464.76.456 1.192 1.288t.448 1.904l-.664-.624v-2.848h1.848l-.024 7.336q0 1.064-.496 1.888a3.3 3.3 0 0 1-1.4 1.272q-.897.448-2.064.448m-.064-4.992a2.08 2.08 0 0 0 1.864-1.104q.288-.52.288-1.16t-.288-1.152a2.1 2.1 0 0 0-.768-.816 2.1 2.1 0 0 0-1.096-.296q-.609 0-1.104.296a2.03 2.03 0 0 0-.76.816 2.4 2.4 0 0 0-.272 1.152q0 .64.272 1.16.271.512.76.808.495.296 1.104.296m12.915 2.24q-.664 0-1.184-.28a2.07 2.07 0 0 1-.816-.776 2.2 2.2 0 0 1-.288-1.128l-.008-4.368h-1.44l.008-1.64h.896a.66.66 0 0 0 .488-.184.68.68 0 0 0 .184-.488v-1.32h1.768v1.992h1.968l-.008 1.64h-1.968l.008 4.136q0 .336.216.56a.77.77 0 0 0 .56.216h1.184V206zm6.701-8.384q1.008 0 1.768.36.768.352 1.192 1.024.424.664.424 1.576V206h-1.84l-.008-3.064h.44q0 1.008-.368 1.744-.36.728-1.048 1.12-.68.392-1.616.392a3.3 3.3 0 0 1-1.424-.296 2.4 2.4 0 0 1-.976-.84 2.2 2.2 0 0 1-.352-1.232q0-.656.336-1.208.344-.552.944-.904a3.3 3.3 0 0 1 1.376-.44l2.136-.224a.56.56 0 0 0 .392-.184q.144-.16.144-.464l.088 1.8-2.304.264q-.352.032-.616.184a1.15 1.15 0 0 0-.416.4q-.144.24-.144.56 0 .336.176.6.184.264.512.408t.744.144q.584 0 1.024-.224a1.7 1.7 0 0 0 .688-.648q.248-.416.248-.952v-2.52q0-.392-.2-.688a1.3 1.3 0 0 0-.552-.456 1.9 1.9 0 0 0-.816-.168 2 2 0 0 0-.824.16q-.368.152-.592.416a1.1 1.1 0 0 0-.264.584h-1.88q.08-.768.568-1.368t1.28-.936a4.4 4.4 0 0 1 1.76-.344m5.545-2.816h1.896V206h-1.896zm4.239 0h1.904v6.664l3.208-3.656h2.184l-3.32 3.896 3.456 4.296h-2.288l-3.24-3.976V206h-1.904zm11.325 11.392q-1.016 0-1.84-.304-.816-.312-1.296-.872a2 2 0 0 1-.504-1.264h1.912a.84.84 0 0 0 .256.504q.232.224.608.352t.848.128.824-.136q.36-.136.56-.376a.87.87 0 0 0 .2-.56.9.9 0 0 0-.096-.408.75.75 0 0 0-.264-.312 1 1 0 0 0-.408-.16l-2.096-.32a2.9 2.9 0 0 1-1.112-.416 2.07 2.07 0 0 1-.72-.8 2.46 2.46 0 0 1-.248-1.112q0-.703.416-1.272.416-.576 1.168-.904t1.704-.328 1.712.296q.768.296 1.208.832.448.528.48 1.184h-1.928a.68.68 0 0 0-.216-.44 1.2 1.2 0 0 0-.528-.304 2.3 2.3 0 0 0-.744-.112q-.416 0-.736.128-.32.12-.496.336a.76.76 0 0 0-.176.496q0 .216.08.384a.76.76 0 0 0 .256.28q.176.103.424.144l2.056.304q.656.096 1.144.432t.744.848q.264.512.264 1.12 0 .76-.448 1.36-.448.593-1.24.936-.784.336-1.768.336M833.189 312.8h4.736q1.151 0 2.024.424a3.14 3.14 0 0 1 1.344 1.2q.48.768.48 1.784 0 1.024-.488 1.808a3.2 3.2 0 0 1-1.368 1.216q-.88.424-2.056.424h-2.712V324h-1.96zm4.632 5.184q.576 0 1.008-.216t.664-.608q.24-.4.24-.936 0-.528-.24-.92a1.5 1.5 0 0 0-.664-.608 2.2 2.2 0 0 0-1.008-.216h-2.672v3.504zm8.396-2.368q1.008 0 1.768.36.768.352 1.192 1.024.423.664.424 1.576V324h-1.84l-.008-3.064h.44q0 1.008-.368 1.744a2.57 2.57 0 0 1-1.048 1.12q-.68.392-1.616.392a3.3 3.3 0 0 1-1.424-.296 2.4 2.4 0 0 1-.976-.84 2.2 2.2 0 0 1-.352-1.232q0-.656.336-1.208.344-.552.944-.904a3.3 3.3 0 0 1 1.376-.44l2.136-.224a.56.56 0 0 0 .392-.184q.144-.16.144-.464l.088 1.8-2.304.264q-.352.032-.616.184a1.15 1.15 0 0 0-.416.4q-.144.24-.144.56 0 .336.176.6.183.264.512.408.327.144.744.144.583 0 1.024-.224.44-.232.688-.648t.248-.952v-2.52q0-.392-.2-.688a1.3 1.3 0 0 0-.552-.456 1.9 1.9 0 0 0-.816-.168 2 2 0 0 0-.824.16 1.5 1.5 0 0 0-.592.416q-.225.264-.264.584h-1.88q.08-.768.568-1.368t1.28-.936a4.4 4.4 0 0 1 1.76-.344m5.545.192h1.888v3.176l-.632.52q.032-1.152.392-2 .368-.848 1.016-1.296.655-.456 1.536-.456h.304v1.92h-.544q-.625-.008-1.096.224-.465.232-.712.664-.249.432-.248 1.016V324h-1.904zm8.045 8.192q-.663 0-1.16-.248a1.77 1.77 0 0 1-.752-.712 2.3 2.3 0 0 1-.256-1.104v-8.176h1.904v2.048h1.92l-.008 1.64h-1.92l.008 4.256q0 .305.176.48.177.176.48.176h1.256V324zm3.112 1h1.144a.95.95 0 0 0 .56-.168q.24-.168.368-.464l.392-.848-3.152-7.712h1.976l2.12 5.504 1.944-5.504h1.928l-3.4 8.744q-.24.608-.584 1.048a2.4 2.4 0 0 1-.84.704q-.504.256-1.184.256h-1.272zm-96.797 386.877q-1.2 0-2.128-.432-.928-.441-1.448-1.224-.52-.785-.536-1.808h1.992q0 .52.264.92.272.399.76.624.496.224 1.12.224.616 0 1.072-.2a1.73 1.73 0 0 0 .72-.568q.256-.369.256-.848 0-.6-.368-1.032a1.55 1.55 0 0 0-.96-.536l-1.92-.32a3.3 3.3 0 0 1-1.408-.568 3 3 0 0 1-.928-1.096 3.3 3.3 0 0 1-.32-1.44q0-.944.48-1.688a3.3 3.3 0 0 1 1.36-1.168q.872-.424 1.976-.424 1.128 0 2 .416.88.408 1.368 1.144.488.727.496 1.672h-1.984q0-.449-.232-.792a1.5 1.5 0 0 0-.656-.544 2.2 2.2 0 0 0-.968-.2q-.544 0-.968.192a1.56 1.56 0 0 0-.656.52 1.34 1.34 0 0 0-.232.784q0 .52.336.904.344.375.896.472l1.864.304q.832.135 1.472.616.648.48 1 1.184.36.703.36 1.504 0 .967-.512 1.744-.512.775-1.448 1.224-.928.44-2.12.44m4.936-8.384h1.968l1.6 5.136.184.76.16-.76 1.68-5.136h1.736l1.712 5.136.184.76.16-.76 1.568-5.136h1.904l-2.656 8.192h-1.888l-1.696-5.336-.16-.64-.136.624-1.736 5.352h-1.92zm17.353-.192q1.008 0 1.768.36a2.7 2.7 0 0 1 1.192 1.024q.423.663.424 1.576v5.424h-1.84l-.008-3.064h.44q0 1.008-.368 1.744-.36.727-1.048 1.12-.68.392-1.616.392a3.3 3.3 0 0 1-1.424-.296 2.4 2.4 0 0 1-.976-.84 2.2 2.2 0 0 1-.352-1.232q0-.656.336-1.208.344-.553.944-.904a3.3 3.3 0 0 1 1.376-.44l2.136-.224a.56.56 0 0 0 .392-.184q.144-.16.144-.464l.088 1.8-2.304.264q-.352.031-.616.184a1.14 1.14 0 0 0-.416.4q-.144.24-.144.56 0 .336.176.6.183.264.512.408.327.144.744.144.583 0 1.024-.224.44-.232.688-.648t.248-.952v-2.52a1.2 1.2 0 0 0-.2-.688 1.3 1.3 0 0 0-.552-.456 1.9 1.9 0 0 0-.816-.168 2 2 0 0 0-.824.16 1.5 1.5 0 0 0-.592.416q-.225.264-.264.584h-1.88q.08-.768.568-1.368t1.28-.936a4.4 4.4 0 0 1 1.76-.344m9.153 11.136a5 5 0 0 1-1.808-.312q-.817-.304-1.336-.864a2.4 2.4 0 0 1-.632-1.264h1.856q.135.288.416.496.279.216.648.32.375.111.784.112.648 0 1.128-.264.487-.265.744-.736.264-.472.264-1.096v-.36l.072-2.36.664-.688q-.016 1.071-.448 1.896a3.2 3.2 0 0 1-1.192 1.28 3.3 3.3 0 0 1-1.704.448 3.5 3.5 0 0 1-1.848-.496 3.6 3.6 0 0 1-1.288-1.384q-.472-.88-.472-1.984t.472-1.984a3.6 3.6 0 0 1 1.288-1.384 3.47 3.47 0 0 1 1.848-.504q.951 0 1.704.464.76.456 1.192 1.288.432.831.448 1.904l-.664-.624v-2.848h1.848l-.024 7.336q0 1.063-.496 1.888a3.3 3.3 0 0 1-1.4 1.272q-.897.447-2.064.448m-.064-4.992a2.08 2.08 0 0 0 1.864-1.104q.288-.52.288-1.16t-.288-1.152a2.07 2.07 0 0 0-1.864-1.112q-.609 0-1.104.296a2.03 2.03 0 0 0-.76.816 2.4 2.4 0 0 0-.272 1.152q0 .64.272 1.16a2.05 2.05 0 0 0 1.864 1.104m28.09-17.96h2.536l3.432 8.088.192.624.184-.624 3.36-8.088h2.568v11.2h-1.96v-7.968l.024-.424-3.48 8.392h-1.464l-3.464-8.336.024.368v7.968h-1.952zm18.465 11.392q-1.2 0-2.16-.552a3.9 3.9 0 0 1-1.488-1.528q-.536-.984-.536-2.216 0-1.217.544-2.192a3.94 3.94 0 0 1 1.496-1.536q.951-.552 2.144-.552 1.207 0 2.128.552a3.64 3.64 0 0 1 1.416 1.52q.495.975.496 2.208v.52h-6.296l.016-.424q0 .751.296 1.344.303.583.824.912.528.32 1.192.32.464 0 .84-.088.375-.097.648-.28.279-.185.456-.44h1.88q-.136.6-.64 1.16-.497.552-1.344.912-.84.36-1.912.36m-2.256-5.096h4.392v.624q0-.745-.248-1.312-.24-.576-.72-.896t-1.16-.32q-.664 0-1.176.312-.504.303-.792.872-.28.56-.28 1.304zm8.035-3.288h1.888v3.176l-.632.52q.033-1.152.392-2 .368-.849 1.016-1.296.657-.456 1.536-.456h.304v1.92h-.544a2.4 2.4 0 0 0-1.096.224 1.65 1.65 0 0 0-.712.664 2 2 0 0 0-.248 1.016v4.424h-1.904zm9.567 8.384a4.3 4.3 0 0 1-2.168-.56 4.1 4.1 0 0 1-1.536-1.536 4.36 4.36 0 0 1-.56-2.192q0-1.209.56-2.184a4.1 4.1 0 0 1 1.536-1.544 4.3 4.3 0 0 1 2.168-.56q1.056 0 1.904.376.857.375 1.4 1.096.545.72.696 1.712h-1.904a1.9 1.9 0 0 0-.464-.816 1.9 1.9 0 0 0-.736-.496 2.4 2.4 0 0 0-.888-.168q-.656 0-1.184.328a2.25 2.25 0 0 0-.816.92q-.296.592-.296 1.336t.296 1.336q.297.584.816.92.528.327 1.184.328.472 0 .888-.16.424-.168.736-.496.32-.336.464-.824h1.904a3.6 3.6 0 0 1-.704 1.696q-.56.72-1.416 1.104a4.5 4.5 0 0 1-1.88.384m5.739-11.392h1.864v2.528l-.024 1.52.008 2.368h-.52q0-1.097.376-1.904.376-.816 1.064-1.256.696-.44 1.64-.44.88 0 1.544.384.672.384 1.048 1.12.376.728.376 1.728v5.152h-1.904v-4.864q0-.576-.208-.992a1.4 1.4 0 0 0-.584-.632 1.7 1.7 0 0 0-.896-.224q-.56 0-.984.248a1.73 1.73 0 0 0-.664.696q-.232.448-.232 1.024v4.744h-1.904zm12.792 2.816q1.008 0 1.768.36a2.7 2.7 0 0 1 1.192 1.024q.424.663.424 1.576v5.424h-1.84l-.008-3.064h.44q0 1.008-.368 1.744a2.57 2.57 0 0 1-1.048 1.12q-.68.392-1.616.392a3.3 3.3 0 0 1-1.424-.296 2.4 2.4 0 0 1-.976-.84 2.2 2.2 0 0 1-.352-1.232q0-.656.336-1.208.344-.553.944-.904a3.3 3.3 0 0 1 1.376-.44l2.136-.224a.56.56 0 0 0 .392-.184q.144-.16.144-.464l.088 1.8-2.304.264q-.352.031-.616.184a1.14 1.14 0 0 0-.416.4q-.144.24-.144.56 0 .336.176.6.184.264.512.408t.744.144q.584 0 1.024-.224a1.7 1.7 0 0 0 .688-.648q.248-.417.248-.952v-2.52a1.2 1.2 0 0 0-.2-.688 1.3 1.3 0 0 0-.552-.456 1.9 1.9 0 0 0-.816-.168 2 2 0 0 0-.824.16q-.368.152-.592.416t-.264.584h-1.88q.08-.768.568-1.368t1.28-.936a4.4 4.4 0 0 1 1.76-.344m5.545.192h1.848v3.408h-.544q0-1.097.376-1.904.376-.816 1.072-1.256.704-.44 1.648-.44.88 0 1.552.384t1.048 1.12q.384.728.384 1.728v5.152h-1.904v-4.864q0-.576-.208-.992a1.4 1.4 0 0 0-.584-.632 1.76 1.76 0 0 0-.904-.224 1.95 1.95 0 0 0-.992.248 1.73 1.73 0 0 0-.664.696q-.232.448-.232 1.024v4.744h-1.896zm15.528-3.008h1.896v11.2h-1.896zm-2.792 11.392q-1.104 0-1.968-.536a3.7 3.7 0 0 1-1.352-1.52q-.488-.976-.488-2.232t.488-2.232 1.352-1.512q.864-.544 1.968-.544 1.016 0 1.784.448.768.447 1.192 1.264.432.816.448 1.888h-.568v1.376h.568q-.016 1.072-.448 1.888-.424.816-1.192 1.264-.768.447-1.784.448m.472-1.704q.688 0 1.216-.328.536-.329.824-.912.296-.585.296-1.344t-.296-1.344a2.16 2.16 0 0 0-.824-.912 2.24 2.24 0 0 0-1.208-.328 2.24 2.24 0 0 0-1.208.328 2.25 2.25 0 0 0-.816.912q-.288.584-.288 1.344 0 .759.288 1.344.296.583.816.912.528.327 1.2.328m6.457-6.68h1.904v8.192h-1.904zm1.976-3.008v1.808h-2.064v-1.808zm5.303 11.392a5.3 5.3 0 0 1-1.84-.304q-.816-.312-1.296-.872a2 2 0 0 1-.504-1.264h1.912a.84.84 0 0 0 .256.504q.231.223.608.352.375.128.848.128.471 0 .824-.136.36-.136.56-.376a.87.87 0 0 0 .2-.56.9.9 0 0 0-.096-.408.75.75 0 0 0-.264-.312.96.96 0 0 0-.408-.16l-2.096-.32a2.9 2.9 0 0 1-1.112-.416 2.07 2.07 0 0 1-.72-.8 2.45 2.45 0 0 1-.248-1.112q0-.705.416-1.272.415-.577 1.168-.904.751-.328 1.704-.328.951 0 1.712.296.768.295 1.208.832.447.528.48 1.184h-1.928a.68.68 0 0 0-.216-.44 1.2 1.2 0 0 0-.528-.304 2.3 2.3 0 0 0-.744-.112q-.417 0-.736.128a1.13 1.13 0 0 0-.496.336.76.76 0 0 0-.176.496q0 .216.08.384a.75.75 0 0 0 .256.28q.175.103.424.144l2.056.304q.655.096 1.144.432t.744.848q.264.511.264 1.12 0 .76-.448 1.36-.448.591-1.24.936-.784.336-1.768.336m8.814 0q-1.2 0-2.16-.552a3.9 3.9 0 0 1-1.488-1.528q-.536-.984-.536-2.216 0-1.217.544-2.192a3.94 3.94 0 0 1 1.496-1.536q.951-.552 2.144-.552 1.207 0 2.128.552a3.64 3.64 0 0 1 1.416 1.52q.495.975.496 2.208v.52h-6.296l.016-.424q0 .751.296 1.344.303.583.824.912.528.32 1.192.32.464 0 .84-.088.375-.097.648-.28.279-.185.456-.44h1.88q-.136.6-.64 1.16-.496.552-1.344.912-.84.36-1.912.36m-2.256-5.096h4.392v.624q0-.745-.248-1.312-.24-.576-.72-.896t-1.16-.32q-.664 0-1.176.312-.504.303-.792.872-.28.56-.28 1.304zm-58.687 21.096q-1.2 0-2.128-.432-.929-.441-1.448-1.224-.52-.785-.536-1.808h1.992q0 .52.264.92.271.399.76.624.496.224 1.12.224.616 0 1.072-.2a1.73 1.73 0 0 0 .72-.568q.255-.369.256-.848 0-.6-.368-1.032a1.55 1.55 0 0 0-.96-.536l-1.92-.32a3.3 3.3 0 0 1-1.408-.568q-.6-.44-.928-1.096a3.3 3.3 0 0 1-.32-1.44q0-.944.48-1.688a3.3 3.3 0 0 1 1.36-1.168q.872-.424 1.976-.424 1.128 0 2 .416.879.408 1.368 1.144.487.727.496 1.672h-1.984q0-.449-.232-.792a1.5 1.5 0 0 0-.656-.544q-.417-.2-.968-.2a2.3 2.3 0 0 0-.968.192 1.55 1.55 0 0 0-.656.52 1.34 1.34 0 0 0-.232.784q0 .52.336.904.344.375.896.472l1.864.304q.831.135 1.472.616.648.48 1 1.184.36.703.36 1.504 0 .967-.512 1.744-.512.775-1.448 1.224-.929.44-2.12.44m8.931-.192q-.663 0-1.184-.28a2.1 2.1 0 0 1-.816-.776 2.2 2.2 0 0 1-.288-1.128l-.008-4.368h-1.44l.008-1.64h.896a.66.66 0 0 0 .488-.184.68.68 0 0 0 .184-.488v-1.32h1.768v1.992h1.968l-.008 1.64h-1.968l.008 4.136q0 .336.216.56.225.216.56.216h1.184v1.64zm7.157.192q-1.223 0-2.216-.552a4 4 0 0 1-1.544-1.528q-.56-.984-.56-2.208t.56-2.2a4 4 0 0 1 1.552-1.536q.993-.552 2.216-.552t2.208.552a4 4 0 0 1 1.544 1.528q.56.975.56 2.208 0 1.232-.56 2.208a4 4 0 0 1-1.544 1.528q-.984.552-2.216.552m.016-1.712q.664 0 1.192-.32.528-.329.832-.912.304-.585.304-1.344t-.304-1.344a2.2 2.2 0 0 0-.84-.912 2.2 2.2 0 0 0-1.192-.328q-.663 0-1.208.328a2.2 2.2 0 0 0-.84.912q-.303.584-.304 1.344 0 .759.304 1.344.304.583.84.912.544.32 1.216.32m6.057-6.672h1.888v3.176l-.632.52q.033-1.152.392-2 .368-.849 1.016-1.296.657-.456 1.536-.456h.304v1.92h-.544a2.4 2.4 0 0 0-1.096.224 1.65 1.65 0 0 0-.712.664 2 2 0 0 0-.248 1.016v4.424h-1.904zm9.479 8.384q-1.2 0-2.16-.552a3.9 3.9 0 0 1-1.488-1.528q-.536-.984-.536-2.216 0-1.217.544-2.192a3.95 3.95 0 0 1 1.496-1.536q.953-.552 2.144-.552 1.209 0 2.128.552a3.63 3.63 0 0 1 1.416 1.52q.496.975.496 2.208v.52h-6.296l.016-.424q0 .751.296 1.344.305.583.824.912.529.32 1.192.32.465 0 .84-.088.376-.097.648-.28.28-.185.456-.44h1.88q-.135.6-.64 1.16-.495.552-1.344.912-.84.36-1.912.36m-2.256-5.096h4.392v.624q0-.745-.248-1.312-.24-.576-.72-.896t-1.16-.32q-.663 0-1.176.312-.504.303-.792.872-.28.56-.28 1.304z"/><path stroke="url(#paint2_linear_9955_3642)" stroke-width="3" d="M950.133 500H1051.9c1.1 0 2-.895 2-1.999l.1-326.5c0-1.105-.9-2.001-2-2.001h-22.97c-1.1 0-2-.895-2-2V140c0-1.104-.89-2-2-2H676.966a2 2 0 0 0-2 2v27.5c0 1.105-.887 2-1.991 2h-23.976a2 2 0 0 0-1.999 2v326c0 1.105.88 2 1.985 2H748.5m78.5 0h-34m115.5 0h-34"/><path stroke="url(#paint3_linear_9955_3642)" stroke-width="3" d="m326.513 980.463 50.926-29.403c.888-.513 1.256-1.587.833-2.521-4.17-9.228-25.358-55.723-40.951-82.731-15.615-27.046-44.743-67.543-50.466-75.445-.577-.798-1.635-1.032-2.511-.582L281 791.5l-47.555 27.764m39.943 191.966c-10.322 5.96-25.399 14.66-30.447 17.58-.955.55-2.166.22-2.72-.74l-12.391-21.32a1.997 1.997 0 0 0-2.553-.81l-68.466 30.92c-.936.43-2.041.07-2.555-.82l-27.328-47.335-.414-.716-27.328-47.334a2 2 0 0 1 .565-2.625l61.015-43.83a2 2 0 0 0 .569-2.619l-12.269-21.391a2 2 0 0 1 .735-2.728l30.438-17.573m132.993 138.265L310 990m-23.331 13.54 3.331-2.04M218 828l-3.232 1.845m-23.331 13.537 3.331-2.037"/><path stroke="url(#paint4_linear_9955_3642)" stroke-width="3" d="m395 417.933-12.596-41.514A2 2 0 0 0 380.49 375H321a2 2 0 0 0-2 2v54.046l.125 27.963a2.003 2.003 0 0 0 2.004 1.991h61.774c.909 0 1.711-.614 1.941-1.493l1.832-6.994 4.357-16.371"/><path stroke="url(#paint5_linear_9955_3642)" stroke-width="3" d="m492 417.867 12.703-41.585a2 2 0 0 1 1.913-1.415h60.019a2 2 0 0 1 2 2V431l-.126 28.009a2 2 0 0 1-2.004 1.991h-62.322a2.01 2.01 0 0 1-1.941-1.489l-1.849-7.011L496 436.104"/><path stroke="url(#paint6_linear_9955_3642)" stroke-width="3" d="m525.601 249.5 9-31.5-23.101-81H375l-22.899 80.999 9 31.5"/><path stroke="url(#paint7_linear_9955_3642)" stroke-width="3" d="M753.362 731.492v-35.583c0-.99-.341-2.26.572-2.643 2.398-1.006 10.247-3.046 33.928-7.08 0 0 12.23-1.667 20.506-2.372a1.97 1.97 0 0 1 2.132 1.976v37.395a2 2 0 0 1-2 2h-31.138a2 2 0 0 0-2 2v10.303c0 1.179-1.011 2.085-2.173 1.886-1.935-.331-5.042-.98-8.827-2.188-4.625-1.476-8.238-3.13-9.937-3.961a1.92 1.92 0 0 1-1.063-1.733Z"/><path stroke="url(#paint8_linear_9955_3642)" stroke-width="3" d="M931 724.685H819a2 2 0 0 1-2-2v-37.036c0-1.072.873-1.954 1.943-1.997 72.326-2.912 105.76 4.772 112.676 6.636.838.226 1.381.987 1.381 1.854v30.539a2.004 2.004 0 0 1-2 2.004Z"/><path fill="#303033" d="M640 796h73a2 2 0 0 0 2-2V648a2 2 0 0 0-2-2H567a2 2 0 0 0-2 2v146a2 2 0 0 0 2 2z"/><path fill="#fff" d="M622.003 715.8h8.016v1.736h-6.088v2.96h5.544v1.744h-5.544v3.016h6.248V727h-8.176zm12.619 7.696-.296-.336-3.048-4.352h2.168l2.256 3.28.256.288 3.224 4.624h-2.16zm-.2-1.216.416-.368 2.056-3.104h2.12l-2.96 4.344-.496.456L633.31 727h-2.128zm7.963-3.472v1.592h.04v9.176h-1.896v-10.768zm2.848 8.384q-1.016 0-1.784-.448a3.1 3.1 0 0 1-1.2-1.264q-.423-.816-.44-1.888h.568v-1.376h-.568q.017-1.072.44-1.888a3.1 3.1 0 0 1 1.2-1.264q.776-.448 1.784-.448 1.112 0 1.976.544.864.536 1.344 1.512.489.976.488 2.232 0 1.255-.488 2.232a3.64 3.64 0 0 1-1.352 1.52q-.864.536-1.968.536m-.472-1.704a2.18 2.18 0 0 0 2.008-1.24q.296-.583.296-1.344 0-.76-.296-1.344a2.18 2.18 0 0 0-2.008-1.24q-.687 0-1.216.328a2.25 2.25 0 0 0-.824.912q-.296.583-.296 1.344 0 .76.296 1.344.297.583.824.912.529.328 1.216.328m9.766 1.704q-1.224 0-2.216-.552a4 4 0 0 1-1.544-1.528q-.56-.984-.56-2.208t.56-2.2a4 4 0 0 1 1.552-1.536q.993-.552 2.216-.552t2.208.552a4 4 0 0 1 1.544 1.528q.56.976.56 2.208 0 1.231-.56 2.208a4 4 0 0 1-1.544 1.528q-.983.552-2.216.552m.016-1.712q.664 0 1.192-.32.529-.328.832-.912.304-.583.304-1.344 0-.76-.304-1.344a2.2 2.2 0 0 0-.84-.912 2.2 2.2 0 0 0-1.192-.328q-.663 0-1.208.328a2.2 2.2 0 0 0-.84.912q-.303.583-.304 1.344 0 .76.304 1.344.304.583.84.912.544.32 1.216.32"/><defs><linearGradient id="paint0_linear_9955_3642" x1="162.501" x2="-10.867" y1="1105.5" y2="302.789" gradientUnits="userSpaceOnUse"><stop stop-color="#ff9419"/><stop offset=".732" stop-color="#ff021d"/><stop offset=".99" stop-color="#e600ff"/></linearGradient><linearGradient id="paint1_linear_9955_3642" x1="160.375" x2="160.376" y1="1663410000" y2="1663410000" gradientUnits="userSpaceOnUse"><stop stop-color="#ff9419"/><stop offset=".662" stop-color="#ff021d"/><stop offset=".852" stop-color="#f60270"/></linearGradient><linearGradient id="paint2_linear_9955_3642" x1="51.5" x2="-131.863" y1="1196" y2="927.552" gradientUnits="userSpaceOnUse"><stop stop-color="#ff9419"/><stop offset=".2" stop-color="#ff021d"/><stop offset=".99" stop-color="#e600ff"/></linearGradient><linearGradient id="paint3_linear_9955_3642" x1="161.5" x2="1036.42" y1="1112" y2="1200.47" gradientUnits="userSpaceOnUse"><stop stop-color="#ff9419"/><stop offset=".2" stop-color="#ff021d"/><stop offset=".99" stop-color="#e600ff"/></linearGradient><linearGradient id="paint4_linear_9955_3642" x1="321.5" x2="350.028" y1="467.5" y2="44.503" gradientUnits="userSpaceOnUse"><stop stop-color="#ff9419"/><stop offset=".228" stop-color="#ff021d"/><stop offset="1" stop-color="#e600ff"/></linearGradient><linearGradient id="paint5_linear_9955_3642" x1="167" x2="678.727" y1="1105" y2="1212.78" gradientUnits="userSpaceOnUse"><stop stop-color="#ff9419"/><stop offset=".201" stop-color="#ff021d"/><stop offset=".99" stop-color="#e600ff"/></linearGradient><linearGradient id="paint6_linear_9955_3642" x1="-1883" x2="-1822.31" y1="590.999" y2="785.734" gradientUnits="userSpaceOnUse"><stop stop-color="#ff9419"/><stop offset=".2" stop-color="#ff021d"/><stop offset="1" stop-color="#e600ff"/></linearGradient><linearGradient id="paint7_linear_9955_3642" x1="728" x2="581.519" y1="805.184" y2="630.384" gradientUnits="userSpaceOnUse"><stop offset=".021" stop-color="#ff9419"/><stop offset=".156" stop-color="#ff021d"/><stop offset=".99" stop-color="#e600ff"/></linearGradient><linearGradient id="paint8_linear_9955_3642" x1="727.292" x2="580.246" y1="806.116" y2="629.135" gradientUnits="userSpaceOnUse"><stop offset=".021" stop-color="#ff9419"/><stop offset=".156" stop-color="#ff021d"/><stop offset=".99" stop-color="#e600ff"/></linearGradient><clipPath id="clip0_9955_3642"><path fill="#fff" d="M845 604h18v22h-18z"/></clipPath><clipPath id="clip1_9955_3642"><path fill="#fff" d="M628 604h18v22h-18z"/></clipPath><clipPath id="clip2_9955_3642"><path fill="#fff" d="M446 604h18v22h-18z"/></clipPath><clipPath id="clip3_9955_3642"><path fill="#fff" d="M379 497h20v24h-20z"/></clipPath></defs></svg>