<svg xmlns="http://www.w3.org/2000/svg" width="1200" height="1200" fill="none" viewBox="0 0 1200 1200"><path fill="#fff" d="M0 0h1200v1200H0z"/><path stroke="#e8e8e8" d="M648 137v396m407-396v396m93.72 0H314.222m5.136-342.5h20.5M1149 137H319.358m249.83 53.5h-17.835a2 2 0 0 1-1.93-1.477L535.323 137m-38.101 299.236L503.857 461l19.1 70.522a2 2 0 0 0 1.931 1.478h42.809a2 2 0 0 0 2-2l.006-76.501M569.323 137v266.5M776.222 740v78.999m150.5-78.499v31.998"/><path stroke="#e8e8e8" d="M315.722 532.866h48.971a2 2 0 0 0 1.93-1.478l19.1-70.522 6.635-24.763M717.857 834l55.717-19.092a2 2 0 0 1 2.648 1.892V838a2 2 0 0 0 2 2h146.635a2 2 0 0 0 2-2v-73.06a2 2 0 0 1 1.366-1.897l125.767-42.086a2 2 0 0 0 1.37-1.897V599c0-1.105.88-2 1.99-2h89.54c1.1 0 1.97-.895 1.97-2V53c0-1.105-.9-2-2-2H321.857a2 2 0 0 0-2 2v477.999a2 2 0 0 1-2 2l-115.941-.04c-1.545-.001-2.507 1.675-1.728 3.009l118.289 202.524a2 2 0 0 1-.718 2.736L45.727 900.114a2 2 0 0 0-.718 2.736l116.895 200.14a2.01 2.01 0 0 0 2.736.72l334.054-195.115q.164-.095.342-.158L579.357 880zM478.222 647l-162 95"/><path stroke="#e8e8e8" d="M444.501 333.499c34.652 0 87.077-7.951 95.756-9.305.773-.121 1.371-.678 1.58-1.432l13.517-48.733c.096-.347.099-.705.005-1.052C540.904 219.844 518.5 137 518.5 137"/><path stroke="#e8e8e8" d="M445 333.5c-34.652 0-87.077-7.951-95.756-9.305-.773-.121-1.371-.678-1.58-1.432l-13.517-48.733a2 2 0 0 1-.005-1.052C348.603 219.845 372 137.001 372 137.001M926.722 765.5v-75h-150.5v134m-176 23.5-102 61m101.607-60.842s-10.24-24.462-47.423-95.97C511.652 687.733 478.222 646.5 478.222 646.5"/><path fill="#19191c" d="M338.862 411.064h2.12L343.95 416h-2.224zm-3.56-6.264h4.736q1.152 0 2.024.424a3.13 3.13 0 0 1 1.344 1.2q.48.768.48 1.784 0 1.024-.488 1.808a3.2 3.2 0 0 1-1.368 1.216q-.88.424-2.056.424h-2.712V416h-1.96zm4.632 5.184q.576 0 1.008-.216t.664-.608q.24-.4.24-.936 0-.528-.24-.92a1.5 1.5 0 0 0-.664-.608 2.2 2.2 0 0 0-1.008-.216h-2.672v3.504zm9.02 6.208q-1.224 0-2.216-.552a4 4 0 0 1-1.544-1.528q-.56-.984-.56-2.208t.56-2.2a4 4 0 0 1 1.552-1.536q.992-.552 2.216-.552t2.208.552a4 4 0 0 1 1.544 1.528q.56.976.56 2.208t-.56 2.208a4 4 0 0 1-1.544 1.528q-.984.552-2.216.552m.016-1.712q.664 0 1.192-.32.528-.329.832-.912.304-.584.304-1.344t-.304-1.344a2.2 2.2 0 0 0-.84-.912 2.2 2.2 0 0 0-1.192-.328q-.664 0-1.208.328a2.2 2.2 0 0 0-.84.912q-.304.584-.304 1.344t.304 1.344q.305.584.84.912.544.32 1.216.32m9.515 1.712q-1.223 0-2.216-.552a4 4 0 0 1-1.544-1.528q-.56-.984-.56-2.208t.56-2.2a4 4 0 0 1 1.552-1.536q.993-.552 2.216-.552t2.208.552a4 4 0 0 1 1.544 1.528q.56.976.56 2.208t-.56 2.208a4 4 0 0 1-1.544 1.528q-.984.552-2.216.552m.016-1.712q.664 0 1.192-.32.529-.329.832-.912.304-.584.304-1.344t-.304-1.344a2.2 2.2 0 0 0-.84-.912 2.2 2.2 0 0 0-1.192-.328q-.663 0-1.208.328a2.2 2.2 0 0 0-.84.912q-.303.584-.304 1.344 0 .76.304 1.344.305.584.84.912.544.32 1.216.32m5.787-6.672h1.848v3.408h-.48q.009-1.104.352-1.912.352-.816 1-1.248.656-.44 1.544-.44.873 0 1.504.4.632.392.968 1.12.345.728.344 1.696V416h-1.856v-4.944q0-.544-.184-.944a1.36 1.36 0 0 0-.544-.616 1.57 1.57 0 0 0-.84-.216q-.528 0-.928.24t-.616.688q-.207.44-.208 1.04V416h-1.904zm10.408 3.248a2.16 2.16 0 0 0-.192-.944 1.37 1.37 0 0 0-.536-.616q-.344-.216-.84-.216-.528 0-.928.248-.391.24-.616.68-.216.44-.216 1.04l-.784-.032q0-1.072.384-1.888a2.95 2.95 0 0 1 1.088-1.264q.704-.448 1.64-.448.873 0 1.528.4.665.392 1.016 1.12.36.728.36 1.696V416h-1.904zm-26.149 19.4 4.544-4.08q.593-.544.872-1.064.28-.52.28-1.096 0-.552-.248-.968a1.63 1.63 0 0 0-.688-.656 2.1 2.1 0 0 0-1.008-.232q-.615 0-1.096.264-.48.264-.744.736a2.2 2.2 0 0 0-.264 1.08h-1.976q0-1.096.528-1.968a3.6 3.6 0 0 1 1.464-1.368q.936-.496 2.112-.496 1.12 0 2.016.448a3.4 3.4 0 0 1 1.4 1.232 3.16 3.16 0 0 1 .496 1.776q0 .944-.488 1.792t-1.512 1.744l-2.92 2.648h5.224V432h-7.984zm11.569-6.328h-2.632v-1.632h1.48q.495 0 .864-.208.375-.208.568-.592.2-.384.2-.896h1.48V432h-1.96zm156.746-13.064h2.12L521.95 416h-2.224zm-3.56-6.264h4.736q1.152 0 2.024.424a3.13 3.13 0 0 1 1.344 1.2q.48.768.48 1.784 0 1.024-.488 1.808a3.2 3.2 0 0 1-1.368 1.216q-.88.424-2.056.424h-2.712V416h-1.96zm4.632 5.184q.576 0 1.008-.216t.664-.608q.24-.4.24-.936 0-.528-.24-.92a1.5 1.5 0 0 0-.664-.608 2.2 2.2 0 0 0-1.008-.216h-2.672v3.504zm9.02 6.208q-1.224 0-2.216-.552a4 4 0 0 1-1.544-1.528q-.56-.984-.56-2.208t.56-2.2a4 4 0 0 1 1.552-1.536q.992-.552 2.216-.552t2.208.552a4 4 0 0 1 1.544 1.528q.56.976.56 2.208t-.56 2.208a4 4 0 0 1-1.544 1.528q-.984.552-2.216.552m.016-1.712q.664 0 1.192-.32.528-.329.832-.912.304-.584.304-1.344t-.304-1.344a2.2 2.2 0 0 0-.84-.912 2.2 2.2 0 0 0-1.192-.328q-.664 0-1.208.328a2.2 2.2 0 0 0-.84.912q-.304.584-.304 1.344t.304 1.344.84.912q.544.32 1.216.32m9.515 1.712q-1.223 0-2.216-.552a4 4 0 0 1-1.544-1.528q-.56-.984-.56-2.208t.56-2.2a4 4 0 0 1 1.552-1.536q.993-.552 2.216-.552t2.208.552a4 4 0 0 1 1.544 1.528q.56.976.56 2.208t-.56 2.208a4 4 0 0 1-1.544 1.528q-.983.552-2.216.552m.016-1.712q.664 0 1.192-.32.528-.329.832-.912.304-.584.304-1.344t-.304-1.344a2.2 2.2 0 0 0-.84-.912 2.2 2.2 0 0 0-1.192-.328q-.663 0-1.208.328a2.2 2.2 0 0 0-.84.912q-.303.584-.304 1.344 0 .76.304 1.344t.84.912q.544.32 1.216.32m5.787-6.672h1.848v3.408h-.48q.009-1.104.352-1.912.352-.816 1-1.248.657-.44 1.544-.44.873 0 1.504.4.633.392.968 1.12.345.728.344 1.696V416h-1.856v-4.944q0-.544-.184-.944a1.36 1.36 0 0 0-.544-.616 1.57 1.57 0 0 0-.84-.216q-.528 0-.928.24t-.616.688q-.207.44-.208 1.04V416h-1.904zm10.408 3.248a2.16 2.16 0 0 0-.192-.944 1.37 1.37 0 0 0-.536-.616q-.344-.216-.84-.216-.528 0-.928.248-.391.24-.616.68-.216.44-.216 1.04l-.784-.032q0-1.072.384-1.888a2.95 2.95 0 0 1 1.088-1.264q.705-.448 1.64-.448.873 0 1.528.4.665.392 1.016 1.12.36.728.36 1.696V416h-1.904zm-27.547 19.4 4.544-4.08q.592-.544.872-1.064t.28-1.096q0-.552-.248-.968a1.63 1.63 0 0 0-.688-.656 2.1 2.1 0 0 0-1.008-.232q-.616 0-1.096.264t-.744.736a2.2 2.2 0 0 0-.264 1.08h-1.976q0-1.096.528-1.968a3.6 3.6 0 0 1 1.464-1.368q.936-.496 2.112-.496 1.12 0 2.016.448a3.4 3.4 0 0 1 1.4 1.232q.504.784.496 1.776 0 .944-.488 1.792-.487.848-1.512 1.744l-2.92 2.648h5.224V432h-7.984zm9.328 0 4.544-4.08q.593-.544.872-1.064.28-.52.28-1.096 0-.552-.248-.968a1.63 1.63 0 0 0-.688-.656 2.1 2.1 0 0 0-1.008-.232q-.615 0-1.096.264-.48.264-.744.736a2.2 2.2 0 0 0-.264 1.08h-1.976q0-1.096.528-1.968a3.6 3.6 0 0 1 1.464-1.368q.936-.496 2.112-.496 1.12 0 2.016.448a3.4 3.4 0 0 1 1.4 1.232 3.16 3.16 0 0 1 .496 1.776q0 .944-.488 1.792-.487.848-1.512 1.744l-2.92 2.648h5.224V432h-7.984zm-100.678-39.11h-1.577v-4.939h5.635v-4.128h5.659v-4.151h5.658V374h6.447v1.577h-4.87v4.151h-5.635v4.128h-5.659v4.151h-5.658z"/><path stroke="#a0a0a0" stroke-linejoin="round" stroke-width="3" d="M386.5 457.5 365.062 532h157.5L503.5 461h66V191h-19L536 138.5h-17l36.5 134L542 324c-16.333 3.167-57.6 9.5-92 9.5s-82-6.333-101.5-9.5l-14-49.5 37.5-136h-18.5l-14 52H320V376"/><path stroke="url(#paint0_linear_9601_1364)" stroke-width="3" d="m396 418.067-12.596-41.514a2 2 0 0 0-1.914-1.42H322a2 2 0 0 0-2 2v54.046l.125 27.963a2.003 2.003 0 0 0 2.004 1.991h61.774c.909 0 1.711-.613 1.941-1.493l1.832-6.994 4.357-16.371"/><path stroke="url(#paint1_linear_9601_1364)" stroke-width="3" d="m493 418 12.703-41.584a2 2 0 0 1 1.913-1.416h60.019a2 2 0 0 1 2 2v54.133l-.126 28.01a2.003 2.003 0 0 1-2.004 1.991h-62.322a2.01 2.01 0 0 1-1.941-1.49l-1.849-7.011L497 436.237"/><defs><linearGradient id="paint0_linear_9601_1364" x1="409.749" x2="391.455" y1="522.537" y2="123.532" gradientUnits="userSpaceOnUse"><stop stop-color="#ff9419"/><stop offset=".743" stop-color="#ff021d"/><stop offset="1" stop-color="#e600ff"/></linearGradient><linearGradient id="paint1_linear_9601_1364" x1="168" x2="679.727" y1="1105.13" y2="1212.91" gradientUnits="userSpaceOnUse"><stop stop-color="#ff9419"/><stop offset=".201" stop-color="#ff021d"/><stop offset=".99" stop-color="#e600ff"/></linearGradient></defs></svg>