<svg width="270" height="112" viewBox="0 0 270 112" fill="none" xmlns="http://www.w3.org/2000/svg">
<path d="M53 20.7885V42.6831C60.366 42.6831 66.3215 48.6365 66.3215 56C66.3215 63.3635 60.366 69.2778 53 69.2778V91.1724H147.308V85.1014H149.228V91.2115H216.423V69.3169C216.423 69.3169 216.423 69.3169 216.384 69.3169C209.018 69.3169 203.063 63.3635 203.063 56.0392C203.063 48.7149 209.018 42.7222 216.384 42.7222C216.384 42.7222 216.384 42.7222 216.423 42.7222V20.8276H149.267V26.6636H147.347V20.8276H53V20.7885ZM147.308 31.1287H149.228V40.1372H147.308V31.1287ZM173.951 39.3538C175.754 39.3538 177.164 40.6072 177.164 42.1347C177.164 43.6622 175.714 44.9548 173.951 44.9548C172.188 44.9548 170.738 43.7014 170.738 42.1347C170.738 40.568 172.188 39.3538 173.951 39.3538ZM165.449 42.0956V47.2657H167.996V51.2999H165.449V59.1726C165.449 60.4651 165.919 60.9743 166.82 60.9743C167.29 60.9743 167.526 60.8959 167.996 60.7001V64.4994C167.526 64.7735 166.468 65.126 165.018 65.126C161.061 65.126 159.258 62.6976 159.258 59.6817V51.2607H157.417V47.2265H159.258V43.6231L165.449 42.0956ZM147.308 44.6023H149.228V53.6108H147.308V44.6023ZM99.3901 46.9132C104.836 46.9132 108.519 49.8115 108.519 55.9608C108.519 61.5226 105.306 65.0085 100.761 65.0085C99.6644 65.0085 98.724 64.891 98.2931 64.7343V71.7845H92.1025V48.2057C93.7481 47.4615 95.9814 46.9132 99.3901 46.9132ZM131.44 46.9132C136.965 46.9132 139.55 50.7124 139.237 56.705L129.011 58.1542C129.403 60.0343 130.421 60.9743 132.655 60.9743C134.731 60.9743 136.377 60.5043 137.356 60.0343L138.728 63.8335C137.2 64.5777 135.123 65.1652 131.871 65.1652C126.111 65.1652 123.095 61.2876 123.095 56C123.095 50.6732 125.916 46.9132 131.44 46.9132ZM119.921 46.9132C120.509 46.9132 121.096 46.9523 121.723 46.9915L120.626 51.2999C119.49 50.7516 118.393 50.7124 117.57 50.9866V64.8127H111.379V48.2449C113.182 47.344 115.885 46.8348 119.921 46.9132ZM170.856 47.2265H177.046V64.8127H170.856V47.2265ZM179.397 47.2265H185.862L187.978 51.6132H188.056L190.368 47.2265H196.128L190.995 55.3342L196.598 64.7735H189.741L187.508 59.9168H187.429L185.079 64.7735H178.81L184.334 55.7258L179.397 47.2265ZM131.166 50.4774C129.324 50.4774 128.345 52.1224 128.541 55.2167L133.517 54.4725C133.517 51.7699 132.733 50.4774 131.166 50.4774ZM99.3509 50.5166C98.8807 50.5166 98.5673 50.5949 98.2931 50.6732V61.2484C98.5281 61.3268 98.8416 61.4051 99.2726 61.4051C101.506 61.4051 102.407 59.5642 102.407 56C102.368 52.3183 101.584 50.5166 99.3509 50.5166ZM147.308 58.115H149.228V67.1236H147.308V58.115ZM147.308 71.6278H149.228V80.6363H147.308V71.6278Z" fill="#3B1C4A"/>
</svg>
