<svg width="270" height="112" viewBox="0 0 270 112" fill="none" xmlns="http://www.w3.org/2000/svg">
<g clip-path="url(#clip0_1633_75587)">
<path d="M41.9238 40.8422V45.6206L28.8374 63.3243H64.4136C64.9229 61.0134 65.1972 58.6242 65.1972 56.1958C65.1972 38.1005 50.5436 23.4127 32.4029 23.4127C19.865 23.4127 8.93356 30.4628 3.44824 40.8422H41.9238Z" fill="#F9B233"/>
<path d="M20.2997 66.6618V62.0941L32.809 45.171H1.53562C0.561834 48.2037 0 51.461 0 54.8681C0 72.1656 14.0075 86.2057 31.3483 86.2057C44.4944 86.2057 55.7304 78.1186 60.412 66.6993L20.2997 66.6618Z" fill="#231F20"/>
<path d="M123.521 44.834H114.607L104.045 56.5155H103.858V34.5754L96.9292 38.2445V72.6523H103.895V58.3875H104.083L115.057 72.6523H124.307L111.498 57.414L123.521 44.834Z" fill="#231F20"/>
<path d="M149.139 48.0165C147.791 46.7436 146.18 45.7701 144.307 45.0588C142.472 44.3848 140.45 44.0104 138.39 44.0104C136.33 44.0104 134.345 44.3848 132.472 45.0588C130.637 45.7327 129.026 46.7436 127.641 48.0165C126.292 49.2895 125.206 50.8246 124.42 52.6217C123.633 54.4189 123.221 56.4407 123.221 58.6122C123.221 60.8212 123.633 62.8055 124.42 64.6401C125.206 66.4372 126.255 68.0097 127.641 69.3202C128.989 70.6306 130.599 71.6415 132.472 72.3528C134.307 73.0642 136.33 73.4386 138.39 73.4386C140.45 73.4386 142.435 73.0642 144.307 72.3528C146.143 71.6415 147.753 70.6306 149.139 69.3202C150.487 68.0097 151.573 66.4747 152.36 64.6401C153.146 62.843 153.558 60.7837 153.558 58.6122C153.558 56.4032 153.146 54.4189 152.36 52.6217C151.573 50.8246 150.525 49.2895 149.139 48.0165ZM145.768 62.0193C145.431 63.1799 144.982 64.1908 144.307 65.0519C143.671 65.9505 142.847 66.6993 141.873 67.2609C140.899 67.8225 139.738 68.1221 138.39 68.1221C137.041 68.1221 135.88 67.8225 134.907 67.2609C133.933 66.6993 133.146 65.9505 132.472 65.0519C131.798 64.1534 131.349 63.1425 131.011 62.0193C130.674 60.8586 130.525 59.7354 130.525 58.5747C130.525 57.4141 130.674 56.2909 131.011 55.1677C131.349 54.0445 131.798 53.0336 132.472 52.135C133.146 51.2364 133.933 50.4876 134.907 49.9635C135.88 49.4018 137.041 49.1398 138.39 49.1398C139.738 49.1398 140.899 49.4393 141.873 49.9635C142.847 50.5251 143.633 51.2364 144.307 52.135C144.982 53.0336 145.431 54.0445 145.768 55.1677C146.105 56.2909 146.255 57.4141 146.255 58.5747C146.255 59.7354 146.105 60.8961 145.768 62.0193Z" fill="#231F20"/>
<path d="M205.955 66.9614H182.697L196.255 50.9744V44.8341H180.824H175.581H166.817V36.7844L159.963 39.0683V44.8341H155.094V50.4127H159.963V72.6524H166.817V50.4127H175.581H180.824H188.352L174.869 66.5121V72.6524H205.955H208.427H212.921V44.8341H205.955V66.9614Z" fill="#231F20"/>
<path d="M218.727 72.6523H225.693V35.3991L218.727 38.619V72.6523Z" fill="#231F20"/>
<path d="M232.323 72.6523H239.289V35.3991L232.323 38.619V72.6523Z" fill="#231F20"/>
<path d="M269.289 55.7293C269.289 54.344 269.101 52.9587 268.727 51.5734C268.352 50.1881 267.716 48.9151 266.779 47.7919C265.843 46.6687 264.57 45.7701 262.959 45.0588C261.349 44.3848 259.326 44.0104 256.817 44.0104C252.248 44.0104 249.738 44.6469 246.892 46.3317L247.94 52.472C250.787 49.6639 252.51 49.4767 255.955 49.4767C257.678 49.4767 259.176 49.8886 260.45 50.7123C261.723 51.5359 262.622 52.8089 262.622 54.5686V55.2426C260.45 55.2426 258.24 55.3549 255.993 55.5795C253.746 55.8042 251.686 56.216 249.851 56.8899C248.015 57.5264 246.48 58.4999 245.281 59.698C244.083 60.8961 243.521 62.5809 243.521 64.715C243.521 66.3624 243.858 67.6728 244.532 68.796C245.206 69.8818 246.068 70.7803 247.079 71.4917C248.09 72.1656 249.214 72.6524 250.45 72.9519C251.686 73.2514 252.847 73.4012 253.97 73.4012C255.918 73.4012 257.716 72.9893 259.251 72.2031C260.824 71.4168 261.948 70.4059 262.622 69.1704H262.809L263.521 72.7272H270C268.69 69.0206 268.989 62.3562 269.289 55.7293ZM262.697 60.9335C262.697 63.1425 262.098 64.8647 260.862 66.1377C259.626 67.4107 257.828 68.0472 255.431 68.0472C254.869 68.0472 254.27 67.9723 253.708 67.86C253.146 67.7476 252.622 67.523 252.135 67.2984C251.648 67.0363 251.311 66.6993 251.012 66.2126C250.712 65.7633 250.562 65.2392 250.562 64.5278C250.562 63.4795 250.937 62.6932 251.611 62.0567C252.285 61.4577 253.184 61.0084 254.233 60.6714C255.281 60.3345 256.405 60.1098 257.641 60.0349C258.877 59.9226 260.075 59.8852 261.199 59.8852H262.772L262.697 60.9335Z" fill="#231F20"/>
</g>
<defs>
<clipPath id="clip0_1633_75587">
<rect width="270" height="112" fill="white"/>
</clipPath>
</defs>
</svg>
