<svg width="302" height="269" viewBox="0 0 302 269" fill="none" xmlns="http://www.w3.org/2000/svg">
<g clip-path="url(#clip0_8138_14157)">
<path d="M90.4109 112.898C102.84 125.209 119.697 132.124 137.273 132.124C154.849 132.124 171.706 125.209 184.135 112.898L231 66.4755L184.135 20.0587C171.706 7.74744 154.85 0.831055 137.273 0.831055C119.696 0.831055 102.839 7.74744 90.4109 20.0587C77.9823 32.37 71 49.0677 71 66.4785C71 83.8893 77.9823 100.587 90.4109 112.898Z" fill="url(#paint0_linear_8138_14157)"/>
<path d="M165.121 82.8893C154.725 82.8893 146.297 74.4919 146.297 64.1331C146.297 53.7744 154.725 45.377 165.121 45.377C175.516 45.377 183.944 53.7744 183.944 64.1331C183.944 74.4919 175.516 82.8893 165.121 82.8893Z" fill="white"/>
<path d="M172.19 75.8709C165.688 75.8709 160.417 70.6192 160.417 64.1408C160.417 57.6624 165.688 52.4106 172.19 52.4106C178.691 52.4106 183.962 57.6624 183.962 64.1408C183.962 70.6192 178.691 75.8709 172.19 75.8709Z" fill="black"/>
</g>
<path d="M36.2993 179H39.9443V188.525L48.6143 179H53.0993L43.8743 189.125L53.2943 200H48.6743L39.9443 189.98V200H36.2993V179ZM61.3006 200.36C59.7806 200.36 58.4056 200.01 57.1756 199.31C55.9456 198.61 54.9806 197.65 54.2806 196.43C53.5806 195.2 53.2306 193.83 53.2306 192.32C53.2306 190.81 53.5806 189.445 54.2806 188.225C54.9806 186.995 55.9456 186.03 57.1756 185.33C58.4056 184.63 59.7806 184.28 61.3006 184.28C62.8106 184.28 64.1806 184.63 65.4106 185.33C66.6406 186.03 67.6056 186.995 68.3056 188.225C69.0156 189.445 69.3706 190.81 69.3706 192.32C69.3706 193.83 69.0156 195.2 68.3056 196.43C67.6056 197.65 66.6406 198.61 65.4106 199.31C64.1806 200.01 62.8106 200.36 61.3006 200.36ZM61.3006 197.195C62.1606 197.195 62.9206 196.99 63.5806 196.58C64.2506 196.17 64.7706 195.595 65.1406 194.855C65.5106 194.115 65.6956 193.27 65.6956 192.32C65.6956 191.37 65.5106 190.525 65.1406 189.785C64.7706 189.035 64.2506 188.455 63.5806 188.045C62.9206 187.635 62.1606 187.43 61.3006 187.43C60.4406 187.43 59.6756 187.635 59.0056 188.045C58.3456 188.455 57.8306 189.035 57.4606 189.785C57.0906 190.525 56.9056 191.37 56.9056 192.32C56.9056 193.27 57.0906 194.115 57.4606 194.855C57.8306 195.595 58.3456 196.17 59.0056 196.58C59.6756 196.99 60.4406 197.195 61.3006 197.195ZM78.0118 200C77.1918 200 76.4518 199.825 75.7918 199.475C75.1418 199.125 74.6318 198.64 74.2618 198.02C73.9018 197.4 73.7218 196.7 73.7218 195.92L73.7068 187.715H71.0068L71.0218 184.64H72.7018C73.0818 184.64 73.3868 184.525 73.6168 184.295C73.8468 184.055 73.9618 183.75 73.9618 183.38V180.89H77.2618V184.64H81.3418L81.3268 187.715H77.2468L77.2618 195.47C77.2618 195.89 77.3968 196.24 77.6668 196.52C77.9468 196.79 78.2968 196.925 78.7168 196.925H81.3268V200H78.0118ZM84.6078 179H88.1478V200H84.6078V179ZM92.4544 184.64H95.9944V200H92.4544V184.64ZM92.3344 179H96.1144V182.435H92.3344V179ZM100.101 184.64H103.536V186.86C104.036 186.03 104.696 185.395 105.516 184.955C106.336 184.505 107.276 184.28 108.336 184.28C109.436 184.28 110.401 184.52 111.231 185C112.061 185.48 112.706 186.175 113.166 187.085C113.626 187.995 113.856 189.08 113.856 190.34V200H110.331V190.88C110.331 189.78 110.051 188.925 109.491 188.315C108.941 187.695 108.176 187.385 107.196 187.385C106.496 187.385 105.876 187.545 105.336 187.865C104.796 188.175 104.376 188.615 104.076 189.185C103.786 189.745 103.641 190.385 103.641 191.105V200H100.101V184.64ZM127.385 200.36C125.385 200.36 123.575 199.89 121.955 198.95C120.345 198 119.075 196.7 118.145 195.05C117.225 193.39 116.765 191.54 116.765 189.5C116.765 187.46 117.225 185.615 118.145 183.965C119.075 182.305 120.345 181.005 121.955 180.065C123.575 179.115 125.385 178.64 127.385 178.64C129.055 178.64 130.585 178.95 131.975 179.57C133.375 180.18 134.545 181.045 135.485 182.165C136.425 183.275 137.065 184.55 137.405 185.99H133.475C133.025 184.78 132.26 183.82 131.18 183.11C130.1 182.39 128.845 182.03 127.415 182.03C126.115 182.03 124.945 182.355 123.905 183.005C122.865 183.645 122.05 184.535 121.46 185.675C120.87 186.805 120.575 188.08 120.575 189.5C120.575 190.92 120.87 192.2 121.46 193.34C122.05 194.47 122.865 195.36 123.905 196.01C124.945 196.65 126.115 196.97 127.415 196.97C128.845 196.97 130.1 196.615 131.18 195.905C132.26 195.185 133.025 194.22 133.475 193.01H137.405C137.065 194.45 136.425 195.73 135.485 196.85C134.545 197.96 133.375 198.825 131.975 199.445C130.585 200.055 129.055 200.36 127.385 200.36ZM147.58 200.36C146.06 200.36 144.685 200.01 143.455 199.31C142.225 198.61 141.26 197.65 140.56 196.43C139.86 195.2 139.51 193.83 139.51 192.32C139.51 190.81 139.86 189.445 140.56 188.225C141.26 186.995 142.225 186.03 143.455 185.33C144.685 184.63 146.06 184.28 147.58 184.28C149.09 184.28 150.46 184.63 151.69 185.33C152.92 186.03 153.885 186.995 154.585 188.225C155.295 189.445 155.65 190.81 155.65 192.32C155.65 193.83 155.295 195.2 154.585 196.43C153.885 197.65 152.92 198.61 151.69 199.31C150.46 200.01 149.09 200.36 147.58 200.36ZM147.58 197.195C148.44 197.195 149.2 196.99 149.86 196.58C150.53 196.17 151.05 195.595 151.42 194.855C151.79 194.115 151.975 193.27 151.975 192.32C151.975 191.37 151.79 190.525 151.42 189.785C151.05 189.035 150.53 188.455 149.86 188.045C149.2 187.635 148.44 187.43 147.58 187.43C146.72 187.43 145.955 187.635 145.285 188.045C144.625 188.455 144.11 189.035 143.74 189.785C143.37 190.525 143.185 191.37 143.185 192.32C143.185 193.27 143.37 194.115 143.74 194.855C144.11 195.595 144.625 196.17 145.285 196.58C145.955 196.99 146.72 197.195 147.58 197.195ZM158.724 184.64H162.159V186.86C162.659 186.03 163.319 185.395 164.139 184.955C164.959 184.505 165.899 184.28 166.959 184.28C168.059 184.28 169.024 184.52 169.854 185C170.684 185.48 171.329 186.175 171.789 187.085C172.249 187.995 172.479 189.08 172.479 190.34V200H168.954V190.88C168.954 189.78 168.674 188.925 168.114 188.315C167.564 187.695 166.799 187.385 165.819 187.385C165.119 187.385 164.499 187.545 163.959 187.865C163.419 188.175 162.999 188.615 162.699 189.185C162.409 189.745 162.264 190.385 162.264 191.105V200H158.724V184.64ZM177.713 187.715H174.998V184.64H177.713V182.885C177.713 182.125 177.893 181.45 178.253 180.86C178.613 180.27 179.113 179.815 179.753 179.495C180.403 179.165 181.148 179 181.988 179H185.378V181.835H182.633C182.223 181.835 181.888 181.965 181.628 182.225C181.378 182.475 181.253 182.805 181.253 183.215V184.64H185.258V187.715H181.253V200H177.713V187.715ZM195.77 196.94L204.32 189.32C205.05 188.67 205.585 188.025 205.925 187.385C206.275 186.745 206.45 186.075 206.45 185.375C206.45 184.685 206.3 184.08 206 183.56C205.7 183.03 205.275 182.62 204.725 182.33C204.175 182.04 203.54 181.895 202.82 181.895C202.06 181.895 201.38 182.065 200.78 182.405C200.18 182.735 199.715 183.2 199.385 183.8C199.055 184.39 198.89 185.06 198.89 185.81H195.215C195.215 184.44 195.545 183.21 196.205 182.12C196.865 181.03 197.775 180.18 198.935 179.57C200.105 178.95 201.42 178.64 202.88 178.64C204.28 178.64 205.53 178.92 206.63 179.48C207.74 180.03 208.605 180.8 209.225 181.79C209.845 182.77 210.155 183.88 210.155 185.12C210.145 186.26 209.84 187.37 209.24 188.45C208.65 189.53 207.75 190.61 206.54 191.69L201.005 196.685H210.725V200H195.77V196.94ZM221.748 197.12C222.728 197.12 223.573 196.815 224.283 196.205C225.003 195.595 225.553 194.72 225.933 193.58C226.313 192.44 226.503 191.09 226.503 189.53C226.503 187.95 226.313 186.59 225.933 185.45C225.553 184.3 225.003 183.42 224.283 182.81C223.573 182.19 222.728 181.88 221.748 181.88C220.768 181.88 219.918 182.19 219.198 182.81C218.488 183.42 217.943 184.3 217.563 185.45C217.183 186.59 216.993 187.94 216.993 189.5C216.993 191.06 217.183 192.415 217.563 193.565C217.943 194.705 218.488 195.585 219.198 196.205C219.918 196.815 220.768 197.12 221.748 197.12ZM221.733 200.36C220.043 200.36 218.558 199.915 217.278 199.025C215.998 198.135 215.008 196.875 214.308 195.245C213.618 193.605 213.273 191.7 213.273 189.53C213.273 187.35 213.618 185.44 214.308 183.8C215.008 182.15 215.998 180.88 217.278 179.99C218.558 179.09 220.043 178.64 221.733 178.64C223.433 178.64 224.923 179.09 226.203 179.99C227.493 180.88 228.488 182.15 229.188 183.8C229.888 185.44 230.238 187.35 230.238 189.53C230.238 191.7 229.888 193.605 229.188 195.245C228.488 196.875 227.493 198.135 226.203 199.025C224.923 199.915 223.433 200.36 221.733 200.36ZM233.006 196.94L241.556 189.32C242.286 188.67 242.821 188.025 243.161 187.385C243.511 186.745 243.686 186.075 243.686 185.375C243.686 184.685 243.536 184.08 243.236 183.56C242.936 183.03 242.511 182.62 241.961 182.33C241.411 182.04 240.776 181.895 240.056 181.895C239.296 181.895 238.616 182.065 238.016 182.405C237.416 182.735 236.951 183.2 236.621 183.8C236.291 184.39 236.126 185.06 236.126 185.81H232.451C232.451 184.44 232.781 183.21 233.441 182.12C234.101 181.03 235.011 180.18 236.171 179.57C237.341 178.95 238.656 178.64 240.116 178.64C241.516 178.64 242.766 178.92 243.866 179.48C244.976 180.03 245.841 180.8 246.461 181.79C247.081 182.77 247.391 183.88 247.391 185.12C247.381 186.26 247.076 187.37 246.476 188.45C245.886 189.53 244.986 190.61 243.776 191.69L238.241 196.685H247.961V200H233.006V196.94ZM259.014 200.36C257.304 200.36 255.804 199.935 254.514 199.085C253.234 198.225 252.244 197.005 251.544 195.425C250.854 193.835 250.509 191.965 250.509 189.815C250.509 187.595 250.869 185.64 251.589 183.95C252.319 182.26 253.329 180.955 254.619 180.035C255.919 179.105 257.399 178.64 259.059 178.64C260.279 178.64 261.394 178.86 262.404 179.3C263.424 179.74 264.294 180.365 265.014 181.175C265.734 181.985 266.269 182.94 266.619 184.04H262.884C262.504 183.31 261.989 182.75 261.339 182.36C260.689 181.96 259.944 181.76 259.104 181.76C258.144 181.76 257.289 182.03 256.539 182.57C255.799 183.11 255.204 183.94 254.754 185.06C254.314 186.18 254.084 187.57 254.064 189.23V189.32C254.354 188.61 254.784 187.985 255.354 187.445C255.934 186.905 256.604 186.49 257.364 186.2C258.124 185.9 258.924 185.75 259.764 185.75C261.094 185.75 262.299 186.07 263.379 186.71C264.459 187.34 265.304 188.21 265.914 189.32C266.534 190.42 266.844 191.65 266.844 193.01C266.844 194.39 266.504 195.64 265.824 196.76C265.144 197.88 264.204 198.76 263.004 199.4C261.814 200.04 260.484 200.36 259.014 200.36ZM258.969 197.345C259.769 197.345 260.494 197.16 261.144 196.79C261.794 196.41 262.299 195.895 262.659 195.245C263.029 194.585 263.214 193.845 263.214 193.025C263.214 192.195 263.029 191.45 262.659 190.79C262.289 190.13 261.774 189.615 261.114 189.245C260.464 188.865 259.729 188.675 258.909 188.675C258.099 188.675 257.369 188.865 256.719 189.245C256.069 189.615 255.559 190.13 255.189 190.79C254.819 191.45 254.634 192.19 254.634 193.01C254.634 193.83 254.819 194.57 255.189 195.23C255.569 195.89 256.089 196.41 256.749 196.79C257.409 197.16 258.149 197.345 258.969 197.345Z" fill="#19191C"/>
<path d="M85.9587 227.8H87.6147L91.6307 236.776L91.8387 237.344L92.0387 236.776L95.9827 227.8H97.6707V239H96.3427V229.944L92.3827 239H91.2707L87.2787 229.992V239H85.9587V227.8ZM107.304 239H106.072V237.672C105.8 238.157 105.432 238.533 104.968 238.8C104.504 239.061 103.968 239.192 103.36 239.192C102.773 239.192 102.253 239.067 101.8 238.816C101.346 238.565 100.989 238.197 100.728 237.712C100.472 237.221 100.344 236.635 100.344 235.952V230.808H101.624V235.824C101.624 236.533 101.808 237.085 102.176 237.48C102.544 237.875 103.05 238.072 103.696 238.072C104.154 238.072 104.56 237.971 104.912 237.768C105.264 237.565 105.536 237.283 105.728 236.92C105.925 236.552 106.024 236.133 106.024 235.664V230.808H107.304V239ZM110.049 230.808H111.281V232.136C111.553 231.651 111.921 231.277 112.385 231.016C112.849 230.749 113.385 230.616 113.993 230.616C114.579 230.616 115.099 230.741 115.553 230.992C116.006 231.243 116.361 231.613 116.617 232.104C116.878 232.589 117.009 233.173 117.009 233.856V239H115.729V233.984C115.729 233.275 115.545 232.723 115.177 232.328C114.809 231.933 114.302 231.736 113.657 231.736C113.198 231.736 112.793 231.837 112.441 232.04C112.089 232.243 111.814 232.528 111.617 232.896C111.425 233.259 111.329 233.675 111.329 234.144V239H110.049V230.808ZM119.491 230.808H120.771V239H119.491V230.808ZM119.427 227.8H120.835V229.256H119.427V227.8ZM126.927 239.192C126.154 239.192 125.455 239.005 124.831 238.632C124.207 238.259 123.717 237.747 123.359 237.096C123.007 236.44 122.831 235.709 122.831 234.904C122.831 234.099 123.007 233.371 123.359 232.72C123.717 232.064 124.207 231.549 124.831 231.176C125.455 230.803 126.154 230.616 126.927 230.616C127.541 230.616 128.103 230.733 128.615 230.968C129.133 231.197 129.567 231.525 129.919 231.952C130.277 232.379 130.533 232.875 130.687 233.44H129.287C129.095 232.928 128.789 232.523 128.367 232.224C127.951 231.925 127.471 231.776 126.927 231.776C126.399 231.776 125.925 231.909 125.503 232.176C125.087 232.443 124.762 232.813 124.527 233.288C124.293 233.763 124.175 234.301 124.175 234.904C124.175 235.501 124.293 236.037 124.527 236.512C124.762 236.987 125.087 237.36 125.503 237.632C125.925 237.899 126.399 238.032 126.927 238.032C127.471 238.032 127.951 237.883 128.367 237.584C128.789 237.285 129.095 236.88 129.287 236.368H130.687C130.533 236.933 130.277 237.429 129.919 237.856C129.567 238.283 129.133 238.613 128.615 238.848C128.103 239.077 127.541 239.192 126.927 239.192ZM132.64 227.8H133.872V232.136C134.144 231.651 134.512 231.277 134.976 231.016C135.44 230.749 135.976 230.616 136.584 230.616C137.171 230.616 137.691 230.741 138.144 230.992C138.597 231.243 138.952 231.613 139.208 232.104C139.469 232.589 139.6 233.173 139.6 233.856V239H138.32V233.984C138.32 233.275 138.136 232.723 137.768 232.328C137.4 231.933 136.893 231.736 136.248 231.736C135.789 231.736 135.384 231.837 135.032 232.04C134.68 232.243 134.405 232.528 134.208 232.896C134.016 233.259 133.92 233.675 133.92 234.144V239H132.64V227.8ZM142.082 240.6C142.418 240.6 142.679 240.472 142.866 240.216C143.052 239.96 143.146 239.555 143.146 239H142.162V237.248H144.026V238.888C144.026 239.709 143.85 240.333 143.498 240.76C143.151 241.187 142.679 241.4 142.082 241.4V240.6ZM155.902 239.192C154.867 239.192 153.931 238.941 153.094 238.44C152.257 237.933 151.598 237.24 151.118 236.36C150.643 235.475 150.406 234.488 150.406 233.4C150.406 232.312 150.643 231.328 151.118 230.448C151.598 229.563 152.257 228.869 153.094 228.368C153.931 227.861 154.867 227.608 155.902 227.608C156.697 227.608 157.43 227.744 158.102 228.016C158.779 228.288 159.361 228.672 159.846 229.168C160.337 229.664 160.702 230.243 160.942 230.904H159.462C159.142 230.259 158.673 229.752 158.054 229.384C157.435 229.011 156.731 228.824 155.942 228.824C155.163 228.824 154.457 229.024 153.822 229.424C153.187 229.819 152.689 230.365 152.326 231.064C151.963 231.763 151.782 232.541 151.782 233.4C151.782 234.259 151.963 235.037 152.326 235.736C152.689 236.435 153.187 236.984 153.822 237.384C154.457 237.779 155.163 237.976 155.942 237.976C156.651 237.976 157.294 237.832 157.87 237.544C158.451 237.251 158.91 236.851 159.246 236.344C159.587 235.832 159.763 235.261 159.774 234.632V234.536H156.814V233.336H161.118V234.152C161.118 235.101 160.891 235.96 160.438 236.728C159.985 237.491 159.361 238.093 158.566 238.536C157.771 238.973 156.883 239.192 155.902 239.192ZM166.738 239.192C165.965 239.192 165.266 239.008 164.642 238.64C164.018 238.272 163.528 237.76 163.17 237.104C162.813 236.448 162.634 235.709 162.634 234.888C162.634 234.088 162.816 233.363 163.178 232.712C163.541 232.056 164.034 231.544 164.658 231.176C165.288 230.803 165.981 230.616 166.738 230.616C167.517 230.616 168.208 230.797 168.81 231.16C169.413 231.517 169.882 232.021 170.218 232.672C170.554 233.323 170.722 234.067 170.722 234.904V235.192H163.938C163.981 235.763 164.125 236.264 164.37 236.696C164.616 237.123 164.941 237.453 165.346 237.688C165.752 237.917 166.216 238.032 166.738 238.032C167.234 238.032 167.674 237.936 168.058 237.744C168.442 237.552 168.757 237.277 169.002 236.92H170.426C170.122 237.629 169.648 238.187 169.002 238.592C168.357 238.992 167.602 239.192 166.738 239.192ZM169.386 234.176C169.306 233.691 169.144 233.267 168.898 232.904C168.658 232.541 168.352 232.261 167.978 232.064C167.61 231.867 167.197 231.768 166.738 231.768C166.258 231.768 165.824 231.867 165.434 232.064C165.045 232.261 164.725 232.541 164.474 232.904C164.224 233.267 164.058 233.691 163.978 234.176H169.386ZM172.787 230.808H174.067V232.168C174.323 231.704 174.659 231.349 175.075 231.104C175.496 230.853 175.976 230.728 176.515 230.728H176.803V232.064H176.467C175.981 232.064 175.557 232.157 175.195 232.344C174.832 232.531 174.552 232.797 174.355 233.144C174.163 233.485 174.067 233.888 174.067 234.352V239H172.787V230.808ZM178.541 230.808H179.773V232.192C180.019 231.685 180.357 231.296 180.789 231.024C181.227 230.752 181.739 230.616 182.325 230.616C182.944 230.616 183.477 230.763 183.925 231.056C184.379 231.349 184.717 231.763 184.941 232.296C185.203 231.768 185.568 231.357 186.037 231.064C186.507 230.765 187.048 230.616 187.661 230.616C188.243 230.616 188.757 230.749 189.205 231.016C189.659 231.277 190.011 231.651 190.261 232.136C190.512 232.621 190.637 233.187 190.637 233.832V239H189.357V233.888C189.357 233.211 189.187 232.677 188.845 232.288C188.509 231.899 188.035 231.704 187.421 231.704C186.984 231.704 186.6 231.805 186.269 232.008C185.939 232.205 185.683 232.488 185.501 232.856C185.32 233.219 185.229 233.648 185.229 234.144V239H183.949V233.888C183.949 233.211 183.779 232.677 183.437 232.288C183.101 231.899 182.627 231.704 182.013 231.704C181.571 231.704 181.184 231.803 180.853 232C180.523 232.197 180.267 232.48 180.085 232.848C179.909 233.216 179.821 233.648 179.821 234.144V239H178.541V230.808ZM195.996 230.616C196.631 230.616 197.177 230.733 197.636 230.968C198.1 231.197 198.455 231.528 198.7 231.96C198.951 232.392 199.076 232.904 199.076 233.496V239H197.812V237.824C197.551 238.261 197.196 238.6 196.748 238.84C196.305 239.075 195.796 239.192 195.22 239.192C194.697 239.192 194.225 239.091 193.804 238.888C193.388 238.68 193.063 238.397 192.828 238.04C192.593 237.677 192.476 237.272 192.476 236.824C192.476 236.392 192.588 235.992 192.812 235.624C193.036 235.251 193.345 234.947 193.74 234.712C194.135 234.472 194.58 234.325 195.076 234.272L197.22 234.032C197.519 233.995 197.711 233.832 197.796 233.544V233.336C197.796 232.845 197.633 232.456 197.308 232.168C196.983 231.88 196.545 231.736 195.996 231.736C195.628 231.736 195.303 231.795 195.02 231.912C194.743 232.024 194.521 232.176 194.356 232.368C194.191 232.56 194.087 232.765 194.044 232.984H192.764C192.833 232.541 193.009 232.141 193.292 231.784C193.58 231.421 193.956 231.136 194.42 230.928C194.884 230.72 195.409 230.616 195.996 230.616ZM193.804 236.76C193.804 237.027 193.876 237.264 194.02 237.472C194.164 237.68 194.364 237.843 194.62 237.96C194.881 238.072 195.18 238.128 195.516 238.128C195.959 238.128 196.353 238.037 196.7 237.856C197.047 237.669 197.316 237.411 197.508 237.08C197.7 236.749 197.796 236.368 197.796 235.936V234.936L195.26 235.216C194.977 235.248 194.724 235.336 194.5 235.48C194.281 235.624 194.111 235.808 193.988 236.032C193.865 236.256 193.804 236.499 193.804 236.76ZM201.55 230.808H202.782V232.136C203.054 231.651 203.422 231.277 203.886 231.016C204.35 230.749 204.886 230.616 205.494 230.616C206.081 230.616 206.601 230.741 207.054 230.992C207.507 231.243 207.862 231.613 208.118 232.104C208.379 232.589 208.51 233.173 208.51 233.856V239H207.23V233.984C207.23 233.275 207.046 232.723 206.678 232.328C206.31 231.933 205.803 231.736 205.158 231.736C204.699 231.736 204.294 231.837 203.942 232.04C203.59 232.243 203.315 232.528 203.118 232.896C202.926 233.259 202.83 233.675 202.83 234.144V239H201.55V230.808ZM210.552 240.424H211.768C211.938 240.424 212.101 240.368 212.256 240.256C212.41 240.149 212.53 240.005 212.616 239.824L213.08 238.816L209.92 230.808H211.272L213.712 237.184L216.088 230.808H217.472L213.752 240.224C213.592 240.635 213.336 240.96 212.984 241.2C212.637 241.44 212.245 241.56 211.808 241.56H210.552V240.424ZM110.058 251.8H111.714L115.73 260.776L115.938 261.344L116.138 260.776L120.082 251.8H121.77V263H120.442V253.944L116.482 263H115.37L111.378 253.992V263H110.058V251.8ZM127.563 254.616C128.197 254.616 128.744 254.733 129.203 254.968C129.667 255.197 130.021 255.528 130.267 255.96C130.517 256.392 130.643 256.904 130.643 257.496V263H129.379V261.824C129.117 262.261 128.763 262.6 128.315 262.84C127.872 263.075 127.363 263.192 126.787 263.192C126.264 263.192 125.792 263.091 125.371 262.888C124.955 262.68 124.629 262.397 124.395 262.04C124.16 261.677 124.043 261.272 124.043 260.824C124.043 260.392 124.155 259.992 124.379 259.624C124.603 259.251 124.912 258.947 125.307 258.712C125.701 258.472 126.147 258.325 126.643 258.272L128.787 258.032C129.085 257.995 129.277 257.832 129.363 257.544V257.336C129.363 256.845 129.2 256.456 128.875 256.168C128.549 255.88 128.112 255.736 127.563 255.736C127.195 255.736 126.869 255.795 126.587 255.912C126.309 256.024 126.088 256.176 125.923 256.368C125.757 256.56 125.653 256.765 125.611 256.984H124.331C124.4 256.541 124.576 256.141 124.859 255.784C125.147 255.421 125.523 255.136 125.987 254.928C126.451 254.72 126.976 254.616 127.563 254.616ZM125.371 260.76C125.371 261.027 125.443 261.264 125.587 261.472C125.731 261.68 125.931 261.843 126.187 261.96C126.448 262.072 126.747 262.128 127.083 262.128C127.525 262.128 127.92 262.037 128.267 261.856C128.613 261.669 128.883 261.411 129.075 261.08C129.267 260.749 129.363 260.368 129.363 259.936V258.936L126.827 259.216C126.544 259.248 126.291 259.336 126.067 259.48C125.848 259.624 125.677 259.808 125.555 260.032C125.432 260.256 125.371 260.499 125.371 260.76ZM132.676 264.424H133.892C134.063 264.424 134.226 264.368 134.38 264.256C134.535 264.149 134.655 264.005 134.74 263.824L135.204 262.816L132.044 254.808H133.396L135.836 261.184L138.212 254.808H139.596L135.876 264.224C135.716 264.635 135.46 264.96 135.108 265.2C134.762 265.44 134.37 265.56 133.932 265.56H132.676V264.424ZM145.209 261.848L149.809 257.552C150.278 257.115 150.617 256.696 150.825 256.296C151.038 255.896 151.145 255.469 151.145 255.016C151.145 254.584 151.046 254.203 150.849 253.872C150.651 253.541 150.374 253.285 150.017 253.104C149.665 252.917 149.259 252.824 148.801 252.824C148.315 252.824 147.878 252.931 147.489 253.144C147.105 253.357 146.803 253.651 146.585 254.024C146.366 254.397 146.257 254.819 146.257 255.288H144.913C144.913 254.595 145.083 253.968 145.425 253.408C145.766 252.848 146.235 252.408 146.833 252.088C147.43 251.768 148.094 251.608 148.825 251.608C149.518 251.608 150.145 251.752 150.705 252.04C151.27 252.328 151.713 252.725 152.033 253.232C152.358 253.733 152.521 254.296 152.521 254.92C152.521 255.523 152.363 256.109 152.049 256.68C151.734 257.251 151.23 257.859 150.537 258.504L147.057 261.76H152.849V263H145.209V261.848ZM158.995 261.976C159.603 261.976 160.128 261.795 160.571 261.432C161.019 261.064 161.36 260.539 161.595 259.856C161.835 259.168 161.955 258.355 161.955 257.416C161.955 256.472 161.835 255.656 161.595 254.968C161.36 254.275 161.019 253.744 160.571 253.376C160.128 253.008 159.603 252.824 158.995 252.824C158.387 252.824 157.859 253.008 157.411 253.376C156.968 253.744 156.627 254.272 156.387 254.96C156.152 255.648 156.035 256.461 156.035 257.4C156.035 258.339 156.152 259.152 156.387 259.84C156.627 260.528 156.968 261.056 157.411 261.424C157.859 261.792 158.387 261.976 158.995 261.976ZM158.995 263.192C158.125 263.192 157.363 262.955 156.707 262.48C156.056 262.005 155.552 261.333 155.195 260.464C154.837 259.589 154.659 258.573 154.659 257.416C154.659 256.253 154.837 255.235 155.195 254.36C155.552 253.48 156.056 252.803 156.707 252.328C157.363 251.848 158.125 251.608 158.995 251.608C159.864 251.608 160.624 251.848 161.275 252.328C161.931 252.803 162.437 253.48 162.795 254.36C163.152 255.235 163.331 256.253 163.331 257.416C163.331 258.573 163.152 259.589 162.795 260.464C162.437 261.333 161.931 262.005 161.275 262.48C160.624 262.955 159.864 263.192 158.995 263.192ZM173.558 256.888V258.008H165.19V256.888H173.558ZM175.55 261.848L180.15 257.552C180.619 257.115 180.958 256.696 181.166 256.296C181.379 255.896 181.486 255.469 181.486 255.016C181.486 254.584 181.387 254.203 181.19 253.872C180.992 253.541 180.715 253.285 180.358 253.104C180.006 252.917 179.6 252.824 179.142 252.824C178.656 252.824 178.219 252.931 177.83 253.144C177.446 253.357 177.144 253.651 176.926 254.024C176.707 254.397 176.598 254.819 176.598 255.288H175.254C175.254 254.595 175.424 253.968 175.766 253.408C176.107 252.848 176.576 252.408 177.174 252.088C177.771 251.768 178.435 251.608 179.166 251.608C179.859 251.608 180.486 251.752 181.046 252.04C181.611 252.328 182.054 252.725 182.374 253.232C182.699 253.733 182.862 254.296 182.862 254.92C182.862 255.523 182.704 256.109 182.39 256.68C182.075 257.251 181.571 257.859 180.878 258.504L177.398 261.76H183.19V263H175.55V261.848ZM184.976 261.848L189.576 257.552C190.045 257.115 190.384 256.696 190.592 256.296C190.805 255.896 190.912 255.469 190.912 255.016C190.912 254.584 190.813 254.203 190.616 253.872C190.419 253.541 190.141 253.285 189.784 253.104C189.432 252.917 189.027 252.824 188.568 252.824C188.083 252.824 187.645 252.931 187.256 253.144C186.872 253.357 186.571 253.651 186.352 254.024C186.133 254.397 186.024 254.819 186.024 255.288H184.68C184.68 254.595 184.851 253.968 185.192 253.408C185.533 252.848 186.003 252.408 186.6 252.088C187.197 251.768 187.861 251.608 188.592 251.608C189.285 251.608 189.912 251.752 190.472 252.04C191.037 252.328 191.48 252.725 191.8 253.232C192.125 253.733 192.288 254.296 192.288 254.92C192.288 255.523 192.131 256.109 191.816 256.68C191.501 257.251 190.997 257.859 190.304 258.504L186.824 261.76H192.616V263H184.976V261.848Z" fill="#19191C"/>
<defs>
<linearGradient id="paint0_linear_8138_14157" x1="231" y1="66.4777" x2="68.3277" y2="66.4777" gradientUnits="userSpaceOnUse">
<stop stop-color="#FF021D"/>
<stop offset="0.462963" stop-color="#C202D7"/>
</linearGradient>
<clipPath id="clip0_8138_14157">
<rect width="160" height="133" fill="white" transform="translate(71)"/>
</clipPath>
</defs>
</svg>
