<svg width="270" height="112" viewBox="0 0 270 112" fill="none" xmlns="http://www.w3.org/2000/svg">
<path d="M65.5146 46H70.9667V55.6699L78.938 46H84.2772L76.7571 55.5981L85.3676 68H79.502L73.6363 59.6961L71.0419 63.0392V68H65.5146V46Z" fill="#E74525"/>
<path d="M86 57C86 50.1955 90.1762 46 95.9511 46C101.726 46 106 50.1955 106 57C106 63.8397 101.693 68 95.9511 68C90.2741 68 86 63.875 86 57ZM100.617 57C100.617 53.4391 98.9201 50.2308 95.9837 50.2308C92.9821 50.2308 91.2529 53.2981 91.2529 57C91.2529 60.7019 92.9821 63.7692 95.9837 63.7692C98.9201 63.7692 100.617 60.5609 100.617 57Z" fill="#E74525"/>
<path d="M109.191 46H117.301C122.92 46 127.059 49.9902 127.059 56.8562C127.059 64.0098 122.651 68 117.166 68H109.191V46ZM114.07 50.2059V63.7941H116.829C119.791 63.7941 121.91 61.3137 121.91 56.7484C121.91 52.6863 120.093 50.2059 116.964 50.2059H114.07Z" fill="#E74525"/>
<path d="M131.029 46H144.926V50.3137H135.9V54.268H144.45V58.3301H135.9V63.6863H144.926V68H131.029V46Z" fill="#E74525"/>
<path d="M148.897 46H152.868V68H148.924V46H148.897Z" fill="#E74525"/>
<path d="M156.872 46H161.483L169.484 57.7716C169.79 58.3817 170.366 59.4584 170.502 59.7096L170.637 59.6737C170.569 59.1354 170.502 57.7357 170.502 56.6591V46.0359H174.706V68H170.163L161.992 56.0848C161.72 55.5106 161.144 54.5057 161.042 54.2545L160.907 54.2904C160.974 54.9364 161.042 56.2284 161.042 57.0538V68H156.838L156.872 46Z" fill="#E74525"/>
<path d="M180.662 46H182.432V58.2941L191.675 46H193.608L186.332 55.8137L194.559 67.964H192.494L185.185 57.2876L182.432 61.0621V68H180.662V46Z" fill="#E74525"/>
<path d="M194.559 59.0191C194.559 53.4013 197.97 50 202.519 50C207.068 50 210.441 53.4013 210.441 59.0191C210.441 64.6369 207.068 68 202.519 68C197.97 68 194.559 64.5987 194.559 59.0191ZM208.356 59.0191C208.356 54.7388 206.196 51.949 202.519 51.949C198.842 51.949 196.644 54.7771 196.644 59.0191C196.644 63.0318 198.842 66.1656 202.519 66.1656C206.196 66.1656 208.356 63.0318 208.356 59.0191Z" fill="#E74525"/>
<path d="M212.427 59.2351C212.427 53.7429 215.758 50.3574 220.174 50.3574C223.157 50.3574 225.171 51.8245 226.217 53.7053V44H228.309V67.8119H226.449L226.295 64.4263C225.016 66.7586 222.692 68 220.058 68C215.68 68 212.427 65.0282 212.427 59.2351ZM226.333 59.2727C226.333 55.0219 224.086 52.0502 220.484 52.0502C216.92 52.0502 214.673 54.9091 214.673 59.1975C214.673 63.373 216.804 66.2319 220.484 66.2319C224.164 66.2319 226.333 63.2978 226.333 59.2727Z" fill="#E74525"/>
<path d="M232.279 58.733C232.279 53.5466 235.454 50 239.421 50C244.002 50 246.347 53.5466 246.167 58.3135L246.131 59H234.227C234.371 63.8432 237.257 66.2839 240.9 66.2839C243.028 66.2839 244.724 65.5212 245.914 64.7585V66.4364C244.724 67.3517 242.956 68 240.576 68C236.031 67.9619 232.279 64.8347 232.279 58.733ZM234.335 57.4746H244.435C244.327 54.0042 242.343 51.9068 239.457 51.9068C236.68 51.9068 234.696 54.0424 234.335 57.4746Z" fill="#E74525"/>
<path d="M248.203 50.2715H250.197L250.363 53.8793C251.401 51.3966 253.478 50 255.762 50C256.842 50 257.465 50.1552 258.088 50.4267V52.5603C257.341 52.2112 256.552 52.0172 255.472 52.0172C252.689 52.0172 250.405 54.5776 250.405 58.0301V68H248.162V50.2715H248.203Z" fill="#E74525"/>
<path d="M258.127 66.8874V65.1259C259.768 65.8535 261.33 66.3513 263.634 66.3513C266.055 66.3513 267.93 65.4323 267.93 63.4793C267.93 61.4497 266.524 60.837 262.892 59.3436C258.986 57.7735 258.088 56.7013 258.088 54.5186C258.088 51.9529 260.51 50 264.493 50C266.758 50 268.321 50.4595 269.453 50.9573V52.7954C268.047 52.221 266.602 51.7232 264.532 51.7232C261.837 51.7232 260.158 52.604 260.158 54.4037C260.158 55.8972 261.056 56.663 264.727 58.1182C268.281 59.5351 270 60.5307 270 63.2878C270 66.4662 266.954 67.9979 263.673 67.9979C261.291 68.0362 259.377 67.5384 258.127 66.8874Z" fill="#E74525"/>
<path d="M25.5939 48.2042C22.674 47.3319 19.9704 45.6964 18.4564 42.8252C20.6914 41.4442 23.0705 40.3175 25.4857 39.5543C24.8008 40.8263 24.4043 42.2437 24.4043 43.8065C24.4043 45.4057 24.8369 46.8958 25.5939 48.2042ZM33.0557 49.1855C30.1359 49.1855 27.7207 46.7867 27.7207 43.8065C27.7207 40.8626 30.0998 38.4276 33.0557 38.4276C36.0117 38.4276 38.3908 40.8263 38.3908 43.8065C38.3908 46.7867 36.0117 49.1855 33.0557 49.1855ZM28.0451 63.7958C30.965 64.6681 33.6686 66.3036 35.1826 69.1748C32.9476 70.5559 30.5685 71.6825 28.1533 72.4458C28.8382 71.1737 29.2347 69.7563 29.2347 68.1935C29.2347 66.558 28.8021 65.0679 28.0451 63.7958ZM20.5472 62.8146C23.4671 62.8146 25.8823 65.2133 25.8823 68.1935C25.8823 71.1737 23.5031 73.5724 20.5472 73.5724C17.6273 73.5724 15.2121 71.1737 15.2121 68.1935C15.2121 65.2133 17.6273 62.8146 20.5472 62.8146ZM37.9222 67.2485C35.0744 62.2694 29.0545 59.4345 20.6553 59.4345H20.6193C20.5832 59.4345 20.5832 59.4345 20.5472 59.4345C15.7529 59.4345 11.8597 63.3597 11.8597 68.1935C11.8597 73.0273 15.7529 76.9525 20.5472 76.9525C20.6553 76.9525 20.7635 76.9525 20.9077 76.9525C20.9798 76.9525 21.0158 76.9525 21.0879 76.9525C26.3148 76.9525 31.5417 75.2806 36.264 72.5184C36.3721 73.209 36.4442 73.9359 36.4442 74.7354C36.4442 81.8589 30.4603 86.62 21.5565 86.62C12.7969 86.62 3.38848 80.3325 3.38848 66.5217C3.38848 58.4896 8.57936 50.2031 15.7168 44.7515C18.5646 49.7306 24.5845 52.5655 32.9837 52.5655H33.0197C33.0558 52.5655 33.0557 52.5655 33.0918 52.5655C37.8861 52.5655 41.7793 48.6403 41.7793 43.8065C41.7793 38.9727 37.8861 35.0476 33.0918 35.0476C32.9837 35.0476 32.8755 35.0476 32.7313 35.0476C32.6592 35.0476 32.6232 35.0476 32.5511 35.0476C27.3242 35.0476 22.0972 36.7194 17.375 39.4816C17.2668 38.791 17.1948 38.0641 17.1948 37.2646C17.1948 30.1411 23.1787 25.38 32.0825 25.38C40.8421 25.38 50.2505 31.6676 50.2505 45.4783C50.2505 53.4741 45.0957 61.7606 37.9222 67.2485ZM53.6029 45.4783C53.6029 29.3415 42.4642 22 32.0825 22C21.3402 22 13.8423 28.2875 13.8423 37.2646C13.8423 38.7547 14.0226 40.1721 14.347 41.4805C6.01996 47.55 0 57.0722 0 66.5217C0 82.6585 11.1387 90 21.5205 90C32.2627 90 39.7606 83.7125 39.7606 74.7354C39.7606 73.2453 39.5804 71.8279 39.256 70.5195C47.583 64.45 53.6029 54.8915 53.6029 45.4783Z" fill="#E64525"/>
</svg>
