<svg xmlns="http://www.w3.org/2000/svg" width="170" height="68" fill="none" viewBox="0 0 170 68"><path fill="#231f20" d="M89.035 49.85H0V68h89.035z"/><mask id="mask0_9747_24945" width="170" height="68" x="0" y="0" maskUnits="userSpaceOnUse" style="mask-type:luminance"><path fill="#fff" d="M170 0H0v68h170z"/></mask><g mask="url(#mask0_9747_24945)"><path fill="#fff" d="M84.007 61.758a3.4 3.4 0 0 1-.777.51 2.35 2.35 0 0 1-1.051.224q-.943 0-1.437-.672-.495-.673-.495-2.094 0-1.386.523-2.072.522-.686 1.463-.686.468 0 .887.168.42.168.886.505zm1.298-5.703h-1.154l-.158.577a3.8 3.8 0 0 0-.963-.59 2.9 2.9 0 0 0-1.092-.2q-1.299 0-2.155 1.047t-.855 2.837q0 1.882.79 2.865.79.985 2.165.985.673 0 1.24-.28.567-.282.883-.605v.378q0 1.434-.642 1.966-.644.531-1.845.531-.647 0-1.124-.157a3.3 3.3 0 0 1-.78-.357h-.31v1.235q.558.15 1.059.237.502.085.996.085 1.883 0 2.918-.953 1.035-.954 1.027-3.068zm-7.855 7.913v-5.353q0-1.365-.608-2.07-.608-.703-1.797-.703-.59 0-1.144.19-.553.187-1.11.682l-.185-.659H71.45v7.913h1.313v-6.252a4.7 4.7 0 0 1 .962-.553 2.5 2.5 0 0 1 .934-.182q.804 0 1.148.385.343.384.343 1.407v5.195zm-9.473-11.426h-1.574v1.743h1.574zm1.69 11.426v-1.03h-1.635v-6.883h-2.9v1.022h1.608v5.861h-1.93v1.03zm-6.221-6.595v-1.318a4 4 0 0 0-.657-.154 5.4 5.4 0 0 0-.835-.059q-.289 0-.598.138a3.5 3.5 0 0 0-.619.36q-.309.224-.61.507-.304.285-.572.588l-.178-1.38h-2.323v1.022h1.223v5.861h-1.223v1.03h4.096v-1.03h-1.58v-4.454l.47-.473a5 5 0 0 1 .537-.47q.284-.216.604-.36t.684-.144q.261-.001.447.034.185.034.326.082.14.049.247.106l.203.114zm-13.113 1.86q.062-1.002.601-1.661.54-.66 1.55-.66 1.024 0 1.457.653.433.651.433 1.668zm5.292.967v-.844q0-1.605-.79-2.56-.792-.954-2.323-.953-1.546 0-2.526 1.104t-.98 3.143q0 2.085 1.087 3.082 1.085.995 2.797.995.66 0 1.326-.148a8 8 0 0 0 1.34-.429v-1.194h-.33q-.33.261-.938.467a3.9 3.9 0 0 1-1.254.206q-1.216 0-1.966-.71-.748-.71-.748-2.159zm-13.168-.967q.062-1.002.601-1.661.54-.66 1.55-.66 1.025 0 1.457.653.433.651.433 1.668zm5.292.967v-.844q0-1.605-.79-2.56-.79-.954-2.324-.953-1.545 0-2.525 1.104t-.979 3.143q0 2.085 1.086 3.082 1.086.995 2.797.995.66 0 1.326-.148a8 8 0 0 0 1.34-.429v-1.194h-.33q-.33.261-.938.467a3.9 3.9 0 0 1-1.254.206q-1.216 0-1.965-.71t-.75-2.159zm-8.139 3.768v-5.353q0-1.365-.608-2.07-.607-.703-1.797-.703a3.5 3.5 0 0 0-1.144.19q-.553.187-1.11.682l-.185-.659H33.61v7.913h1.312v-6.252q.516-.371.963-.553a2.5 2.5 0 0 1 .934-.182q.805 0 1.148.385.344.384.344 1.407v5.195zm-9.473-11.426h-1.573v1.743h1.573zm1.69 11.426v-1.03h-1.635v-6.883h-2.9v1.022H28.9v5.861h-1.93v1.03zm-7.958-2.21a3.4 3.4 0 0 1-.777.51 2.35 2.35 0 0 1-1.051.224q-.942 0-1.437-.672-.495-.673-.494-2.094 0-1.386.522-2.072t1.464-.686q.467 0 .886.168.42.168.887.505zm1.299-5.703h-1.155l-.158.577a3.8 3.8 0 0 0-.962-.59 2.9 2.9 0 0 0-1.093-.2q-1.299 0-2.154 1.047t-.856 2.837q0 1.882.79 2.865.79.985 2.165.985.674 0 1.24-.28.568-.282.884-.605v.378q0 1.434-.643 1.966-.642.531-1.845.531-.645 0-1.124-.157a3.3 3.3 0 0 1-.78-.357h-.31v1.235q.558.15 1.06.237.501.085.996.085 1.882 0 2.917-.953 1.035-.954 1.028-3.068zm-7.855 7.913v-5.353q0-1.365-.608-2.07-.609-.703-1.798-.703-.59 0-1.144.19-.553.187-1.11.682l-.185-.659h-1.155v7.913h1.313v-6.252q.515-.371.962-.553a2.5 2.5 0 0 1 .935-.182q.804 0 1.147.385.345.384.344 1.407v5.195zm-7.43 0v-1.126H5.29v-4.007h4.364v-1.12H5.291v-3.177h4.591v-1.111h-5.93v10.54z"/></g><mask id="mask1_9747_24945" width="170" height="36" x="0" y="0" maskUnits="userSpaceOnUse" style="mask-type:luminance"><path fill="#fff" d="M170 0H0v35.42h170z"/></mask><g fill="#231f20" mask="url(#mask1_9747_24945)"><path d="M4.479 4.295h3.67c3.353 0 4.835 1.063 4.835 3.226 0 1.88-1.482 3.157-4.447 3.157H4.48zM.03 25.57h9c4.73 0 9.459-1.702 9.459-7.164 0-3.225-2.259-5.71-5.4-6.062v-.072c2.576-.78 4.34-2.658 4.34-5.496 0-4.574-3.881-6.311-7.658-6.311H.032zm4.45-11.063h4.27c3.6 0 5.294.92 5.294 3.545 0 3.298-3.176 3.688-5.47 3.688H4.478zM25.628-.129h-4.235v25.7h4.235zm7.066 17.189c0-2.66 1.87-5.106 4.977-5.106 3.105 0 4.976 2.446 4.976 5.106s-1.87 5.107-4.976 5.107-4.977-2.447-4.977-5.107m-4.235 0c0 5.355 4.094 8.936 9.212 8.936s9.21-3.58 9.21-8.936c0-5.354-4.093-8.936-9.21-8.936s-9.212 3.582-9.212 8.936m24.575 0c0-2.66 1.871-5.106 4.977-5.106 3.105 0 4.976 2.446 4.976 5.106s-1.87 5.107-4.977 5.107c-3.105 0-4.976-2.447-4.976-5.107m-4.235 0c0 5.355 4.094 8.936 9.212 8.936 5.116 0 9.21-3.58 9.21-8.936 0-5.354-4.094-8.936-9.21-8.936-5.118 0-9.212 3.582-9.212 8.936m21.006-8.51h4.022v2.659h.07c.742-1.594 2.366-3.085 5.19-3.085 2.611 0 4.411 1.029 5.293 3.157 1.236-2.164 3.035-3.157 5.576-3.157 4.518 0 6.106 3.227 6.106 7.304V25.57h-4.235v-9.644c0-2.128-.635-3.972-3.14-3.972-2.648 0-3.637 2.199-3.637 4.396v9.22h-4.234V15.429c0-2.09-.848-3.474-2.895-3.474-2.787 0-3.88 2.057-3.88 4.327v9.29h-4.236zm43.74 8.51c0 2.66-1.871 5.107-4.976 5.107s-4.977-2.447-4.977-5.107 1.872-5.106 4.977-5.106 4.976 2.447 4.976 5.106m-14.047 8.51h4.023v-2.553h.071c1.236 2.056 3.459 2.98 5.824 2.98 5.223 0 8.364-3.901 8.364-8.937 0-5.034-3.353-8.936-8.188-8.936-3.176 0-4.871 1.49-5.752 2.589h-.106V-.128h-4.236zm24.431-10.21c.318-2.449 1.871-4.044 4.377-4.044 2.646 0 4.27 1.56 4.305 4.043zm12.918 3.189V17.38c0-5.92-3.212-9.256-7.942-9.256-5.117 0-9.212 3.582-9.212 8.936 0 5.355 4.095 8.936 9.212 8.936 2.682 0 5.188-.959 7.165-3.404l-3.035-2.304c-1.058 1.311-2.435 2.304-4.553 2.304-2.364 0-4.271-1.524-4.553-4.043zm2.762-9.999h4.235v2.695h.072c.917-1.95 2.787-3.12 5.011-3.12.53 0 1.024.106 1.517.248v4.113c-.706-.177-1.377-.319-2.046-.319-3.989 0-4.554 3.37-4.554 4.291v9.113h-4.235zm20.307 3.404c3.071 0 5.012 2.057 5.012 5 0 2.838-1.905 5-5.047 5-2.859 0-4.976-2.234-4.976-4.929 0-3.014 2.047-5.07 5.011-5.07m5.012-3.405v2.555h-.07c-1.235-2.058-3.459-2.98-5.824-2.98-5.224 0-8.364 3.902-8.364 8.936 0 4.822 3.353 8.724 8.434 8.724 2.118 0 4.306-.816 5.542-2.482h.07v1.241c0 3.37-1.271 5.708-5.363 5.708-2.366 0-4.13-.886-5.825-2.447l-2.541 3.476c2.4 2.128 5.259 2.8 8.401 2.8 6.599 0 9.564-3.9 9.564-10.033V8.55z"/></g></svg>