<svg xmlns="http://www.w3.org/2000/svg" width="1200" height="256" fill="none" viewBox="0 0 1200 256"><path fill="#fafafa" d="M375.016 169.115h16.125q-1.26 11.59-6.635 20.744t-15.201 14.53q-9.827 5.29-24.524 5.291-10.75 0-19.568-4.032-8.734-4.03-15.033-11.421-6.3-7.475-9.742-17.889-3.36-10.498-3.36-23.348v-12.178q0-12.849 3.36-23.263 3.442-10.499 9.826-17.973 6.466-7.474 15.537-11.506 9.07-4.03 20.408-4.03 13.857 0 23.432 5.206t14.865 14.445q5.375 9.155 6.635 21.248h-16.125q-1.176-8.566-4.368-14.697-3.191-6.214-9.07-9.574t-15.369-3.36q-8.147 0-14.361 3.108-6.132 3.108-10.33 8.818-4.116 5.712-6.215 13.69t-2.1 17.721v12.345q0 8.986 1.848 16.881 1.932 7.894 5.795 13.858 3.863 5.962 9.826 9.406 5.962 3.359 14.109 3.359 10.33 0 16.461-3.275t9.238-9.407q3.192-6.13 4.536-14.697m52.742-51.986V208h-15.621v-90.871zm-16.797-24.104q0-3.78 2.268-6.382 2.351-2.604 6.886-2.604 4.452 0 6.803 2.604 2.436 2.603 2.436 6.382 0 3.612-2.436 6.215-2.351 2.52-6.803 2.52-4.535 0-6.886-2.52-2.268-2.603-2.268-6.215m57.277 38.381V208h-15.537v-90.871h15.117zm28.387-14.781-.084 14.445a22.5 22.5 0 0 0-3.695-.504 39 39 0 0 0-3.864-.168q-5.374 0-9.49 1.68-4.115 1.68-6.971 4.703t-4.535 7.223q-1.595 4.115-2.099 9.07l-4.367 2.52q0-8.23 1.595-15.453 1.68-7.223 5.123-12.766 3.443-5.627 8.735-8.734 5.375-3.192 12.765-3.192 1.68 0 3.864.42 2.183.336 3.023.756m29.898 14.781V208h-15.537v-90.871h15.118zm28.387-14.781-.084 14.445a22.4 22.4 0 0 0-3.695-.504 39 39 0 0 0-3.863-.168q-5.375 0-9.491 1.68t-6.97 4.703q-2.856 3.023-4.536 7.223-1.595 4.115-2.099 9.07l-4.367 2.52q0-8.23 1.595-15.453 1.68-7.223 5.123-12.766 3.443-5.627 8.735-8.734 5.374-3.192 12.765-3.192 1.68 0 3.864.42 2.183.336 3.023.756m69.959 70.379v-69.875h15.621V208h-14.865zm2.94-19.149 6.466-.167q0 9.07-1.931 16.796-1.848 7.643-6.047 13.27-4.2 5.627-11.002 8.818-6.802 3.108-16.545 3.108-6.634 0-12.178-1.932-5.458-1.932-9.406-5.963-3.947-4.031-6.131-10.498-2.1-6.467-2.099-15.537v-58.621h15.537v58.789q0 6.131 1.343 10.162 1.428 3.947 3.78 6.299 2.435 2.268 5.375 3.191 3.023.924 6.215.924 9.909 0 15.705-3.779 5.794-3.864 8.314-10.33 2.604-6.551 2.604-14.53m89.275 16.041q0-3.359-1.512-6.214-1.427-2.94-5.963-5.291-4.45-2.436-13.437-4.2-7.558-1.595-13.69-3.779-6.046-2.183-10.33-5.291-4.199-3.107-6.466-7.307-2.268-4.198-2.268-9.826 0-5.374 2.352-10.162 2.435-4.787 6.802-8.482 4.452-3.695 10.666-5.795 6.216-2.1 13.858-2.1 10.917 0 18.644 3.863t11.842 10.331q4.115 6.382 4.115 14.193H716.16q0-3.78-2.267-7.307-2.184-3.61-6.467-5.963-4.2-2.35-10.33-2.351-6.467 0-10.498 2.015-3.947 1.932-5.795 4.956-1.764 3.023-1.764 6.382 0 2.52.84 4.536.924 1.93 3.191 3.611 2.268 1.595 6.383 3.023t10.498 2.856q11.17 2.519 18.393 6.047 7.222 3.527 10.75 8.65t3.527 12.43q0 5.962-2.519 10.918-2.436 4.955-7.139 8.566-4.62 3.528-11.086 5.543-6.383 1.932-14.361 1.932-12.01 0-20.325-4.284-8.314-4.282-12.597-11.085-4.284-6.804-4.283-14.362h15.621q.336 6.383 3.695 10.162 3.36 3.696 8.23 5.291 4.871 1.512 9.659 1.512 6.382 0 10.666-1.68 4.367-1.679 6.634-4.619t2.268-6.719m155.119 10.918V208h-61.141v-13.186zM814.254 85.719V208h-16.209V85.719zm127.74 106.744v-46.779q0-5.376-2.183-9.323-2.1-4.03-6.383-6.215-4.284-2.183-10.582-2.183-5.88 0-10.33 2.016-4.368 2.015-6.887 5.291-2.436 3.275-2.436 7.054h-15.537q0-4.871 2.52-9.658t7.222-8.65q4.788-3.948 11.422-6.215 6.719-2.352 14.95-2.352 9.91 0 17.468 3.36 7.643 3.359 11.926 10.162 4.368 6.719 4.367 16.881v42.328q0 4.535.756 9.658.84 5.123 2.436 8.818V208h-16.209q-1.176-2.687-1.848-7.139-.672-4.535-.672-8.398m2.688-39.557.168 10.918h-15.705q-6.636 0-11.842 1.092-5.208 1.008-8.735 3.107t-5.375 5.291q-1.847 3.108-1.847 7.307 0 4.284 1.931 7.811t5.795 5.627q3.948 2.015 9.658 2.015 7.14 0 12.598-3.023t8.651-7.391q3.275-4.367 3.527-8.482l6.635 7.474q-.588 3.528-3.192 7.811t-6.97 8.23q-4.284 3.864-10.247 6.467-5.879 2.52-13.269 2.52-9.238 0-16.209-3.612-6.887-3.611-10.75-9.658-3.78-6.13-3.779-13.689 0-7.307 2.855-12.85 2.856-5.627 8.231-9.322 5.374-3.78 12.933-5.711t16.881-1.932zM981.887 79h15.621v111.363L996.164 208h-14.277zm77.013 82.809v1.763c0 6.607-.78 12.738-2.35 18.393-1.57 5.599-3.86 10.47-6.89 14.613-3.02 4.143-6.72 7.363-11.08 9.658-4.37 2.296-9.38 3.444-15.04 3.444-5.76 0-10.83-.98-15.2-2.94q-6.466-3.023-10.916-8.65-4.452-5.627-7.139-13.606-2.603-7.979-3.611-17.972v-7.727q1.008-10.078 3.611-18.056 2.688-7.979 7.139-13.606 4.45-5.711 10.916-8.65c4.31-2.016 9.32-3.024 15.04-3.024 5.71 0 10.77 1.12 15.2 3.36 4.42 2.183 8.11 5.319 11.08 9.406 3.03 4.087 5.32 8.986 6.89 14.697 1.57 5.655 2.35 11.954 2.35 18.897m-15.62 1.763v-1.763q0-6.804-1.26-12.766c-.84-4.031-2.18-7.559-4.03-10.582-1.85-3.079-4.28-5.487-7.31-7.223-3.02-1.791-6.75-2.687-11.17-2.687-3.92 0-7.33.672-10.24 2.015-2.86 1.344-5.3 3.164-7.31 5.459q-3.025 3.36-4.956 7.727a44.4 44.4 0 0 0-2.772 8.902v20.241q1.344 5.879 4.368 11.337c2.07 3.584 4.81 6.523 8.23 8.819 3.47 2.295 7.75 3.443 12.85 3.443 4.2 0 7.78-.84 10.75-2.519 3.02-1.736 5.46-4.116 7.31-7.139q2.85-4.536 4.2-10.498c.89-3.975 1.34-8.231 1.34-12.766m88.18 20.324c0-2.239-.5-4.311-1.51-6.214-.95-1.96-2.94-3.724-5.96-5.291q-4.455-2.436-13.44-4.2c-5.04-1.063-9.6-2.323-13.69-3.779-4.03-1.456-7.47-3.219-10.33-5.291-2.8-2.072-4.95-4.507-6.47-7.307-1.51-2.799-2.26-6.074-2.26-9.826 0-3.583.78-6.97 2.35-10.162 1.62-3.191 3.89-6.019 6.8-8.482 2.97-2.464 6.52-4.395 10.67-5.795 4.14-1.4 8.76-2.1 13.85-2.1 7.28 0 13.5 1.288 18.65 3.863s9.1 6.019 11.84 10.331c2.74 4.255 4.12 8.986 4.12 14.193h-15.54c0-2.52-.76-4.955-2.27-7.307-1.45-2.407-3.61-4.395-6.47-5.963-2.79-1.567-6.24-2.351-10.33-2.351-4.31 0-7.81.672-10.49 2.015-2.63 1.288-4.57 2.94-5.8 4.956-1.17 2.015-1.76 4.143-1.76 6.382q0 2.52.84 4.536c.61 1.287 1.68 2.491 3.19 3.611 1.51 1.064 3.64 2.071 6.38 3.023 2.75.952 6.24 1.904 10.5 2.856q11.175 2.519 18.39 6.047c4.82 2.351 8.4 5.235 10.75 8.65s3.53 7.559 3.53 12.43q0 5.962-2.52 10.918-2.43 4.955-7.14 8.566c-3.08 2.352-6.77 4.199-11.08 5.543q-6.39 1.932-14.37 1.932c-8 0-14.78-1.428-20.32-4.284q-8.31-4.282-12.6-11.085c-2.85-4.536-4.28-9.323-4.28-14.362h15.62c.22 4.255 1.46 7.643 3.7 10.162 2.24 2.464 4.98 4.228 8.23 5.291 3.24 1.008 6.46 1.512 9.65 1.512 4.26 0 7.82-.56 10.67-1.68 2.91-1.119 5.12-2.659 6.64-4.619 1.51-1.959 2.26-4.199 2.26-6.719"/><path stroke="#fafafa" stroke-linecap="round" stroke-width="18" d="M44 212h148m0 0a28 28 0 0 0 0-56m-148 0h148m0 0a28 28 0 0 0 0-56m-148 0h148m0 0a28 28 0 0 0 0-56"/></svg>