<svg xmlns="http://www.w3.org/2000/svg" width="500" height="90" viewBox="0 0 500 90"><defs><clipPath id="clip0_3802_18017"><path fill="#fff" d="M0 0h600v280H0z"/></clipPath><clipPath id="clip0_3802_18013"><path fill="#fff" d="M0 0h600v280H0z"/></clipPath></defs><g clip-path="url(#clip0_3802_18017)" transform="translate(2.286 -71.24)scale(.82522)"><mask id="mask0_3802_18017" width="104" height="103" x="0" y="89" maskUnits="userSpaceOnUse" style="mask-type:luminance"><path fill="#fff" d="M103.267 89H.34v102.927h102.927z"/></mask><g mask="url(#mask0_3802_18017)"><path fill="#fff" d="M103.184 127.186c-.097-15.767-1.318-24.223-7.397-30.506q-.047-.05-.093-.092l-.087-.092c-6.277-6.075-14.732-7.302-30.497-7.404-2.695-.02-8.343-.068-13.307-.092-4.969.024-10.611.073-13.307.092-15.765.102-24.219 1.329-30.497 7.409-.029.024-.058.058-.087.087q-.047.043-.092.087c-6.08 6.288-7.3 14.744-7.398 30.511-.014 2.686-.063 8.296-.082 13.246.02 4.969.068 10.613.082 13.309.097 15.767 1.319 24.222 7.398 30.506.029.034.063.063.092.092.03.029.058.063.087.092 6.278 6.075 14.733 7.302 30.497 7.409 2.696.019 8.343.067 13.307.092 4.969-.025 10.612-.073 13.307-.092 15.765-.102 24.22-1.334 30.497-7.414.03-.024.058-.058.088-.087l.092-.087c6.074-6.289 7.3-14.744 7.392-30.511.015-2.686.063-8.296.083-13.246-.02-4.97-.068-10.613-.083-13.309z"/><path fill="#00b6d7" d="m21.277 154.982-.015-.121c-.189-1.275-.024-2.095.388-2.579.417-.485 1.135-.636 2.269-.636s1.861.146 2.317.509c.46.369.606.96.761 1.901 0 .029.01.058.01.088.465 3.253 1.958 6.278 4.237 8.717 1.716 1.832 3.82 3.389 6.108 4.329l.427.195c.145.058.295.101.446.155l.892.305c.596.199 1.221.31 1.827.475.626.087 1.246.213 1.876.271l.95.064.475.033.476-.009c2.535-.01 5.07-.514 7.397-1.484a17 17 0 0 0 6.06-4.29l.189-.204c.155-.165.305-.301.446-.427q.188-.204.383-.334c.257-.18.514-.282.805-.296.572-.034 1.25.247 2.176.853s1.44 1.11 1.537 1.731c.049.31-.005.645-.16 1.023a4.5 4.5 0 0 1-.31.611c-.14.208-.316.417-.514.649l-.252.282a22.8 22.8 0 0 1-8.1 5.74 25.3 25.3 0 0 1-9.643 1.94l-.615.01-.616-.039-1.236-.083c-.82-.077-1.634-.228-2.453-.354-.8-.203-1.62-.363-2.405-.621l-1.178-.402c-.194-.073-.392-.131-.586-.208l-.572-.252a22 22 0 0 1-4.344-2.434 25 25 0 0 1-3.718-3.268 22.5 22.5 0 0 1-3.762-5.455 21.6 21.6 0 0 1-1.963-6.37zm43.848-42.438h.092c2.234.014 2.821.625 2.821 2.894s-.587 2.88-2.821 2.895H23.774c-2.11-.044-2.667-.679-2.667-2.895s.558-2.851 2.667-2.894zm-8.702 20.213h.073c2.234.014 2.821.625 2.821 2.894s-.587 2.88-2.821 2.895H23.774c-2.11-.044-2.667-.679-2.667-2.895s.558-2.851 2.667-2.894z"/><path fill="#111213" fill-rule="evenodd" d="M87.289 111.792a5.9 5.9 0 0 0-2.318-1.784 5.9 5.9 0 0 0-1.992-.47 5.915 5.915 0 0 0-5.745 3.568l-11.974 28a10 10 0 0 0-.358.945c-.01.024-.015.049-.025.078a6 6 0 0 0-.106.402 8.7 8.7 0 0 0-.281 1.934l-.015.515v.063l-.252 10.37c-.014.568.286.97.679 1.183.048.029.092.059.14.078a1.33 1.33 0 0 0 1.469-.281l7.325-7.346c1.585-1.609 1.997-2.574 2.303-3.287l11.959-27.97.01-.025a5.9 5.9 0 0 0-.815-5.968z" clip-rule="evenodd"/></g><path fill="#fff" d="M584.911 108.621h6.131v1.364h-2.312v6.359h-1.507v-6.359h-2.312zm7.39 0h1.756l2.263 5.579 2.259-5.579h1.761v7.723h-1.424v-4.994l-2.005 4.994h-1.2l-1.976-4.994v4.994h-1.424v-7.723zm-150.253 63.067c-14.648 0-25.274-10.669-25.274-25.375s10.631-25.375 25.274-25.375c14.642 0 25.181 10.675 25.181 25.375 0 14.701-10.592 25.375-25.181 25.375m0-42.861c-9.439 0-16.029 7.19-16.029 17.482s6.59 17.482 16.029 17.482 15.931-7.191 15.931-17.482-6.551-17.482-15.931-17.482m127.697 42.861c-10.986 0-18.435-5.901-19.678-15.422-.01-.068-.025-.238-.049-.436a.793.793 0 0 1 .795-.877h7.166c.39 0 .727.286.785.673.025.151.039.286.059.373.985 4.938 5.009 7.792 10.922 7.792 5.409 0 9.331-2.724 9.331-6.619 0-5.849-5.609-6.769-11.551-7.743-7.654-1.255-16.332-2.679-16.332-14.376 0-8.446 6.986-14.119 17.381-14.119s17.419 5.131 18.888 13.232c.039.209.102.737.156 1.212a.794.794 0 0 1-.79.881h-7.196a.8.8 0 0 1-.78-.634c-.068-.32-.142-.669-.176-.78-1.336-4.463-6.019-6.256-10.097-6.256-5.117 0-8.551 2.326-8.551 6.173 0 5.253 5.307 6.023 10.936 6.837 8.034 1.163 17.137 2.485 17.137 15.379 0 8.935-7.205 14.706-18.356 14.706m-78.542-.746c-4.928 0-8.988-1.498-11.745-4.332-2.897-2.98-4.293-7.254-4.143-12.695v-20.898h-.067a67 67 0 0 1-7.971-.959.7.7 0 0 1-.441-.286.7.7 0 0 1-.106-.519l1.342-6.856a.68.68 0 0 1 .668-.547c.039 0 .083 0 .121.009 2.07.374 4.211.64 6.367.785h.073v-1.163l.01-14.158c0-.378.305-.683.683-.683h7.68c.378 0 .683.305.683.683v15.249h.077c4.12-.359 7.911-1.134 11.94-2.452a.676.676 0 0 1 .854.426l2.278 6.605a.74.74 0 0 1-.034.528.7.7 0 0 1-.4.344c-4.898 1.613-9.557 2.544-14.647 2.926h-.063v20.947c0 5.48 3.067 8.619 8.412 8.619h5.01c.375 0 .683.306.683.684v7.064a.69.69 0 0 1-.683.684h-6.581zm-88.718-.001a.68.68 0 0 1-.683-.683v-27.706c0-7.602-4.487-12.709-11.159-12.709-7.418 0-12.801 6.076-12.801 14.449v25.961a.683.683 0 0 1-.683.683h-8.513a.683.683 0 0 1-.684-.683v-47.92c0-.378.306-.684.684-.684h8.513c.377 0 .683.306.683.684v7.112c2.786-5.426 8.339-8.513 15.413-8.513 11.023 0 18.427 7.947 18.427 19.779v29.542a.683.683 0 0 1-.684.683h-8.513zm-52.436.006a.683.683 0 0 1-.683-.684v-5.165l-.126.184c-2.626 3.746-8.315 5.984-15.214 5.984-14.076 0-23.176-9.812-23.176-25.002s9.056-25.002 23.079-25.002c6.327 0 12.612 3.242 15.316 6.294l.121.136v-25.322c0-.378.305-.683.683-.683h7.816c.378 0 .683.305.683.683v67.898a.68.68 0 0 1-.683.683h-7.816zm-14.875-41.738c-9.017 0-15.079 6.885-15.079 17.128s6.062 17.128 15.079 17.128 15.176-6.885 15.176-17.128-6.101-17.128-15.176-17.128m-168.521 42.483c-14.802 0-30.215-9.749-30.215-31.524s15.587-31.523 30.564-31.523c12.157 0 21.232 6.773 24.905 18.591a.87.87 0 0 1-.698 1.115l-7.079 1.148c-.048.01-.092.01-.14.01a.88.88 0 0 1-.8-.524c-3.624-8.3-8.62-12.002-16.198-12.002-12.598 0-21.217 9.1-21.217 23.19s8.842 23.452 21.125 23.452c9.768 0 17.414-5.878 17.424-14.638 0-1.071-.019-.412-.044-.824a42 42 0 0 1-4.855.301c-3.236 0-5.891-.456-9.124-1.188a.876.876 0 0 1-.659-1.027l1.28-6.439a.876.876 0 0 1 .853-.693c.063 0 .13 0 .193.019a40 40 0 0 0 8.79.994c4.399 0 8.799-.737 13.446-2.249a.87.87 0 0 1 1.094.548l1.963 6.241a.86.86 0 0 1-.063.688.87.87 0 0 1-.552.426 118 118 0 0 1-3.16.717l-.794.175.62 23.379a.866.866 0 0 1-.872.891h-6.721a.87.87 0 0 1-.867-.872v-6.275c-3.731 4.991-10.219 7.893-18.209 7.893"/><path fill="#fff" d="M523.535 171.688c-20.02-.553-25.093-16.765-24.268-26.688 1.478-17.802 14.287-24.077 23.634-24.077 22.132 0 23.044 24.76 23.049 25.002a.81.81 0 0 1-.542.766c-10.327 3.682-18.424 4.738-25.414 4.738-3.537 0-7.074-.629-11.215-1.404-.107-.02-.205.072-.185.179 1.278 8.111 8.395 13.654 15.16 13.596 7.83-.068 11.674-3.29 13.259-8.334.093-.296.346-.504.654-.504h8.068c.205 0 .4.097.532.262.131.159.18.368.136.566-2.083 9.512-10.805 16.164-22.868 15.903m-2.117-43.022c-8.259.775-12.025 8.567-12.815 12.734a.33.33 0 0 0 .039.242.35.35 0 0 0 .205.136c10.815 2.848 20.722 1.177 27.522-.596a.34.34 0 0 0 .19-.136c.044-.068.044-.141.039-.218-.195-3.145-4.112-13.199-15.18-12.162M281.41 171.732c-14.648 0-25.278-10.67-25.278-25.375s10.63-25.375 25.278-25.375 25.181 10.669 25.181 25.375-10.592 25.375-25.181 25.375m0-42.862c-9.439 0-16.028 7.19-16.028 17.482s6.589 17.443 16.028 17.443 15.931-7.147 15.931-17.443-6.55-17.482-15.931-17.482m-54.874 42.862c-14.647 0-25.273-10.67-25.273-25.375s10.631-25.375 25.273-25.375c14.643 0 25.182 10.669 25.182 25.375s-10.592 25.375-25.182 25.375m0-42.862c-9.438 0-16.028 7.19-16.028 17.482s6.59 17.443 16.028 17.443c9.439 0 15.932-7.147 15.932-17.443s-6.551-17.482-15.932-17.482"/></g></svg>