<svg xmlns="http://www.w3.org/2000/svg" width="500" height="90" viewBox="0 0 500 90"><defs><clipPath id="clip0_3802_18017"><path fill="#fff" d="M0 0h600v280H0z"/></clipPath><clipPath id="clip0_3802_18013"><path fill="#fff" d="M0 0h600v280H0z"/></clipPath></defs><g clip-path="url(#clip0_3802_18013)" transform="translate(2.632 -71.24)scale(.82522)"><mask id="mask0_3802_18013" width="104" height="103" x="-1" y="89" maskUnits="userSpaceOnUse" style="mask-type:luminance"><path fill="#fff" d="M102.427 89H-.5v102.927h102.927z"/></mask><g mask="url(#mask0_3802_18013)"><path fill="#fff" d="M102.344 127.186c-.097-15.767-1.318-24.223-7.397-30.506q-.047-.05-.092-.092l-.088-.092c-6.277-6.075-14.732-7.302-30.497-7.404-2.695-.02-8.343-.068-13.307-.092-4.968.024-10.611.073-13.307.092-15.764.102-24.219 1.329-30.497 7.409-.029.024-.058.058-.087.087s-.063.058-.092.087c-6.079 6.288-7.3 14.744-7.398 30.511-.014 2.686-.063 8.296-.082 13.246.02 4.969.068 10.613.082 13.309.097 15.767 1.319 24.222 7.398 30.506q.047.05.092.092c.03.029.058.063.087.092 6.278 6.075 14.733 7.302 30.497 7.409 2.696.019 8.343.067 13.307.092 4.97-.025 10.612-.073 13.307-.092 15.765-.102 24.22-1.334 30.497-7.414.03-.024.058-.058.088-.087s.063-.058.092-.087c6.074-6.289 7.3-14.744 7.393-30.511.014-2.686.062-8.296.082-13.246-.02-4.97-.068-10.613-.082-13.309z"/><path fill="#00b6d7" d="m20.437 154.982-.014-.121c-.19-1.275-.024-2.095.388-2.579.417-.485 1.134-.636 2.268-.636 1.135 0 1.862.146 2.318.509.46.369.606.96.76 1.901 0 .029.01.058.01.088.466 3.253 1.959 6.278 4.237 8.717 1.717 1.832 3.82 3.389 6.109 4.329l.426.195c.145.058.296.101.446.155l.892.305c.596.199 1.222.31 1.828.475.625.087 1.245.213 1.876.271l.95.064.475.033.475-.009a19.5 19.5 0 0 0 7.398-1.484 17 17 0 0 0 6.06-4.29l.188-.204c.156-.165.306-.301.446-.427q.188-.204.383-.334c.257-.18.514-.282.805-.296.572-.034 1.25.247 2.177.853.925.606 1.44 1.11 1.536 1.731.049.31-.005.645-.16 1.023a4.5 4.5 0 0 1-.31.611c-.14.208-.315.417-.514.649-.077.088-.165.185-.252.282a22.8 22.8 0 0 1-8.1 5.74 25.3 25.3 0 0 1-9.642 1.94l-.616.01-.616-.039-1.236-.083c-.82-.077-1.634-.228-2.453-.354-.8-.203-1.619-.363-2.404-.621l-1.178-.402c-.194-.073-.393-.131-.587-.208l-.572-.252a22 22 0 0 1-4.344-2.434 25 25 0 0 1-3.718-3.268 22.5 22.5 0 0 1-3.762-5.455 21.6 21.6 0 0 1-1.963-6.37zm43.848-42.438h.092c2.235.014 2.822.625 2.822 2.894s-.587 2.88-2.822 2.895H22.934c-2.109-.044-2.666-.679-2.666-2.895s.557-2.851 2.666-2.894zm-8.702 20.213h.073c2.235.014 2.822.625 2.822 2.894s-.587 2.88-2.822 2.895H22.934c-2.109-.044-2.666-.679-2.666-2.895s.557-2.851 2.666-2.894z"/><path fill="#111213" fill-rule="evenodd" d="M86.449 111.792a5.9 5.9 0 0 0-4.31-2.254 5.915 5.915 0 0 0-5.745 3.568l-11.974 28a10 10 0 0 0-.358.945c-.01.024-.015.049-.025.078a6 6 0 0 0-.106.402 8.6 8.6 0 0 0-.281 1.934l-.014.515v.062l-.253 10.371c-.014.568.286.97.679 1.183.048.029.092.059.14.078.52.223 1.096.092 1.47-.281l7.324-7.346c1.585-1.609 1.998-2.574 2.303-3.287l11.96-27.97.009-.025a5.9 5.9 0 0 0-.814-5.968z" clip-rule="evenodd"/></g><path fill="#111213" d="M584.071 108.621h6.131v1.364h-2.312v6.359h-1.507v-6.359h-2.312zm7.39 0h1.756l2.264 5.579 2.258-5.579h1.761v7.723h-1.424v-4.994l-2.005 4.994h-1.2l-1.976-4.994v4.994h-1.424v-7.723zm-150.253 63.067c-14.648 0-25.274-10.669-25.274-25.375s10.631-25.375 25.274-25.375c14.642 0 25.181 10.675 25.181 25.375 0 14.701-10.592 25.375-25.181 25.375m0-42.861c-9.439 0-16.029 7.19-16.029 17.482s6.59 17.482 16.029 17.482 15.931-7.191 15.931-17.482-6.551-17.482-15.931-17.482m127.697 42.861c-10.986 0-18.434-5.901-19.678-15.422-.01-.068-.025-.238-.049-.436a.793.793 0 0 1 .795-.877h7.166c.39 0 .727.286.785.673.025.151.039.286.059.373.985 4.938 5.01 7.792 10.922 7.792 5.41 0 9.332-2.724 9.332-6.619 0-5.849-5.61-6.769-11.552-7.743-7.653-1.255-16.331-2.679-16.331-14.376 0-8.446 6.985-14.119 17.38-14.119s17.42 5.131 18.888 13.232c.039.209.102.737.156 1.212a.793.793 0 0 1-.79.881h-7.195a.8.8 0 0 1-.781-.634c-.068-.32-.141-.669-.176-.78-1.336-4.463-6.019-6.256-10.097-6.256-5.117 0-8.551 2.326-8.551 6.173 0 5.253 5.307 6.023 10.936 6.837 8.034 1.163 17.137 2.485 17.137 15.379 0 8.935-7.205 14.706-18.356 14.706m-78.542-.746c-4.927 0-8.987-1.498-11.744-4.332-2.898-2.98-4.294-7.254-4.143-12.695v-20.898h-.068a67 67 0 0 1-7.971-.959.7.7 0 0 1-.44-.286.7.7 0 0 1-.107-.519l1.342-6.856a.68.68 0 0 1 .669-.547c.039 0 .082 0 .121.009 2.069.374 4.21.64 6.366.785h.073v-1.163l.01-14.158c0-.378.305-.683.683-.683h7.68c.378 0 .683.305.683.683v15.249h.078c4.12-.359 7.91-1.134 11.939-2.452a.675.675 0 0 1 .854.426l2.278 6.605a.73.73 0 0 1-.034.528.7.7 0 0 1-.4.344c-4.898 1.613-9.556 2.544-14.647 2.926h-.063v20.947c0 5.48 3.067 8.619 8.412 8.619h5.01c.376 0 .683.306.683.684v7.064a.687.687 0 0 1-.683.684h-6.581zm-88.718-.001a.68.68 0 0 1-.683-.683v-27.706c0-7.602-4.487-12.709-11.159-12.709-7.418 0-12.801 6.076-12.801 14.449v25.961a.683.683 0 0 1-.683.683h-8.513a.683.683 0 0 1-.684-.683v-47.92c0-.378.306-.684.684-.684h8.513c.377 0 .683.306.683.684v7.112c2.786-5.426 8.339-8.513 15.413-8.513 11.023 0 18.427 7.947 18.427 19.779v29.542a.683.683 0 0 1-.684.683h-8.513zm-52.436.006a.683.683 0 0 1-.683-.684v-5.165l-.126.184c-2.626 3.746-8.315 5.984-15.215 5.984-14.075 0-23.175-9.812-23.175-25.002s9.056-25.002 23.079-25.002c6.328 0 12.612 3.242 15.316 6.294l.121.136v-25.322c0-.378.305-.683.683-.683h7.816c.377 0 .683.305.683.683v67.898a.683.683 0 0 1-.683.683h-7.816zm-14.875-41.738c-9.017 0-15.079 6.885-15.079 17.128s6.062 17.128 15.079 17.128 15.176-6.885 15.176-17.128-6.101-17.128-15.176-17.128m-168.521 42.483c-14.802 0-30.215-9.749-30.215-31.524s15.587-31.523 30.564-31.523c12.157 0 21.232 6.773 24.905 18.591a.874.874 0 0 1-.698 1.115l-7.079 1.148c-.048.01-.092.01-.14.01a.88.88 0 0 1-.8-.524c-3.624-8.3-8.62-12.002-16.198-12.002-12.598 0-21.217 9.1-21.217 23.19s8.842 23.452 21.125 23.452c9.768 0 17.414-5.878 17.424-14.638 0-1.071-.019-.412-.043-.824a42 42 0 0 1-4.856.301c-3.236 0-5.891-.456-9.123-1.188a.875.875 0 0 1-.659-1.027l1.279-6.439a.876.876 0 0 1 .853-.693c.063 0 .13 0 .193.019a40 40 0 0 0 8.79.994c4.4 0 8.799-.737 13.446-2.249a.87.87 0 0 1 1.095.548l1.962 6.241a.87.87 0 0 1-.615 1.114 118 118 0 0 1-3.16.717l-.794.174.62 23.38a.866.866 0 0 1-.872.891h-6.72a.87.87 0 0 1-.868-.872v-6.275c-3.73 4.991-10.219 7.893-18.208 7.893"/><path fill="#111213" d="M522.695 171.688c-20.019-.553-25.093-16.765-24.268-26.688 1.478-17.802 14.288-24.077 23.634-24.077 22.132 0 23.044 24.76 23.049 25.002a.81.81 0 0 1-.542.766c-10.327 3.682-18.424 4.738-25.414 4.738-3.537 0-7.073-.629-11.215-1.404-.107-.02-.205.072-.185.179 1.278 8.111 8.395 13.654 15.161 13.596 7.829-.068 11.673-3.29 13.258-8.334.093-.296.347-.504.654-.504h8.068c.205 0 .4.097.532.262a.66.66 0 0 1 .136.566c-2.082 9.512-10.804 16.164-22.868 15.903m-2.117-43.022c-8.259.775-12.024 8.567-12.815 12.734a.33.33 0 0 0 .039.242.35.35 0 0 0 .205.136c10.815 2.848 20.722 1.177 27.522-.596a.34.34 0 0 0 .191-.136c.043-.068.043-.141.039-.218-.2-3.145-4.113-13.199-15.181-12.162m-240.007 43.061c-14.648 0-25.279-10.67-25.279-25.375s10.631-25.375 25.279-25.375 25.18 10.669 25.18 25.375-10.591 25.375-25.18 25.375m0-42.862c-9.44 0-16.029 7.19-16.029 17.482s6.589 17.443 16.029 17.443c9.438 0 15.931-7.147 15.931-17.443s-6.551-17.482-15.931-17.482m-54.874 42.862c-14.648 0-25.274-10.67-25.274-25.375s10.631-25.375 25.274-25.375c14.642 0 25.181 10.669 25.181 25.375s-10.592 25.375-25.181 25.375m0-42.862c-9.439 0-16.029 7.19-16.029 17.482s6.59 17.443 16.029 17.443 15.931-7.147 15.931-17.443-6.551-17.482-15.931-17.482"/></g></svg>