<svg xmlns="http://www.w3.org/2000/svg" width="500" height="118" viewBox="0 0 500 118"><defs><linearGradient id="paint0_linear_4061_24871" x1="158.881" x2="52.632" y1="84.205" y2="183.443" gradientTransform="translate(-65.996 -88.342)scale(1.05493)" gradientUnits="userSpaceOnUse"><stop stop-color="#838383"/><stop offset=".16" stop-color="#232323"/><stop offset=".5" stop-color="#1d1d1d"/><stop offset=".77"/><stop offset="1" stop-color="#838383"/></linearGradient><linearGradient id="paint1_linear_4061_24871" x1="41.675" x2="190.868" y1="43.383" y2="262.735" gradientUnits="userSpaceOnUse"><stop stop-color="#209bc4"/><stop offset="1" stop-color="#4dc9c0"/></linearGradient><linearGradient id="gradient-1" x1="41.675" x2="190.868" y1="43.383" y2="262.735" gradientUnits="userSpaceOnUse"><stop stop-color="#209bc4"/><stop offset="1" stop-color="#4dc9c0"/></linearGradient></defs><path fill="url(#paint0_linear_4061_24871)" d="M68.264 2.382c25.655 0 46.475 21.084 46.475 47.108 0 36.479-29.177 66.029-65.149 66.029H2.133V2.382z" style="stroke-width:1"/><mask id="mask0_4061_24871" width="109" height="108" x="64" y="86" maskUnits="userSpaceOnUse" style="mask-type:luminance"><path fill="#fff" d="M172.291 86H64.5v107.347h107.785V86z"/></mask><g mask="url(#mask0_4061_24871)" transform="translate(-65.996 -88.342)scale(1.05493)"><path fill="url(#paint1_linear_4061_24871)" fill-rule="evenodd" d="M157.798 97.487h-.018c-8.219-7.926-18.929-11.741-29.538-11.47a.1.1 0 0 0-.065 0 65 65 0 0 0-1.073-.011H64.506v107.483h74.203c49.931-45.216 33.434-82.176 19.089-96.002M91.944 172.31l-12.613-6.066v-.023c-.071-4.323 3.398-7.873 7.739-7.938 4.34-.071 7.916 3.372 7.976 7.696.041 2.575-1.186 4.872-3.102 6.331m50.447-29.288c-18.513 19-41.326-3.142-76.213-15.81v-39.54h51.473a40.66 40.66 0 0 0-16.77 9.727 3.95 3.95 0 0 0-1.192 2.787c0 1.051.427 2.055 1.186 2.794l5.236 5.049a3.9 3.9 0 0 0 5.1.278 23.44 23.44 0 0 1 13.977-4.867c12.952-.201 23.62 10.082 23.815 22.975.101 6.443-2.431 12.319-6.612 16.607" clip-rule="evenodd"/></g><path d="M487.614 102.835c0 3.595 9.791 1.657 9.791 7.588 0 3.29-3.254 5.203-6.638 5.203-3.179 0-6.463-1.707-7.144-5.501h3.585c.299 1.962 2.095 2.94 3.734 2.94s3.053-.878 3.053-2.642c0-3.37-9.791-1.233-9.791-7.438 0-3.241 3.028-5.103 6.156-5.103 2.952 0 5.956 1.632 6.637 5.326h-3.61c-.274-1.807-1.819-2.74-3.252-2.74-1.314 0-2.521.778-2.521 2.361zm-21.196-1.938h-7.951v4.374h6.712v2.941h-6.712v4.374h7.951v2.94h-11.329v-17.57h11.329zm-30.002 14.629h-3.385v-17.57h3.385zm-30.999-9.352h9.642v.43c0 6.231-4.093 9.146-8.252 9.146s-8.809-3.164-8.809-8.996 4.342-9.022 8.709-9.022c3.534 0 7.094 2.087 8.352 6.61h-3.585c-1.033-2.336-3.028-3.47-4.974-3.47-2.596 0-5.099 2.038-5.099 5.882s2.878 5.832 5.606 5.832c2.02 0 3.959-1.104 4.591-3.471h-6.181zm-42.413.58c0-6.007 4.466-9.022 8.908-9.022s8.909 3.015 8.909 9.022-4.443 8.996-8.909 8.996-8.908-3.016-8.908-8.996m3.409 0c0 3.918 2.753 5.881 5.499 5.881s5.499-1.963 5.499-5.881-2.753-5.882-5.499-5.882-5.499 1.963-5.499 5.882m-27.657 5.832h8.227v2.94h-11.611v-17.57h3.384zm-39.132-5.832c0-6.007 4.467-9.022 8.908-9.022 4.442 0 8.909 3.015 8.909 9.022s-4.441 8.996-8.909 8.996c-4.466 0-8.908-3.016-8.908-8.996m3.404 0c0 3.918 2.752 5.881 5.499 5.881s5.498-1.963 5.498-5.881-2.752-5.882-5.498-5.882-5.499 1.963-5.499 5.882m-24.697-8.797h3.36v16.585a1.213 1.213 0 0 1-1.215 1.208 1.23 1.23 0 0 1-.956-.454l-8.402-10.71v10.934h-3.384V98.96c0-.679.556-1.234 1.238-1.234.381 0 .732.175.982.455l8.377 10.505V97.951zm-32.656-.001h3.359v17.57h-3.359v-7.314h-7.219v7.314h-3.385v-17.57h3.385v7.315h7.219zm-42.076 8.798c0 4.025 2.596 6.055 5.223 6.055 1.996 0 3.986-1.183 4.842-3.619h3.585c-1.264 4.474-4.842 6.586-8.402 6.586-4.342 0-8.657-3.141-8.657-9.022s4.315-9.047 8.657-9.047c3.56 0 7.144 2.137 8.402 6.611h-3.585c-.856-2.437-2.852-3.645-4.872-3.645-2.597 0-5.199 2.062-5.199 6.081zm-20.501-5.857h-7.951v4.374h6.712v2.941h-6.712v4.374h7.951v2.94h-11.329v-17.57h11.329zm-41.4-2.941h12.793v2.941h-4.717v14.629h-3.36v-14.629h-4.716zm285.659-9.975h-15.239V2.382h15.239zM385.462 2.382h15.239v55.251c0 16.717-13.688 30.355-30.478 30.355-16.791 0-30.598-13.632-30.598-30.355 0-20.51 13.807-30.591 27.263-30.591 6.907 0 13.688 2.61 18.574 7.826zm-15.239 71.73c8.333 0 15.239-7.352 15.239-16.479s-6.906-16.597-15.239-16.597-15.358 7.352-15.358 16.597c0 9.247 6.906 16.479 15.358 16.479m-39.281-16.715v25.962c0 2.493-2.027 4.504-4.523 4.504-1.307 0-2.622-.71-3.453-1.775l-6.074-7.588c-4.88 6.168-12.262 9.363-19.762 9.363-13.451 0-27.264-10.08-27.264-30.591 0-16.834 13.688-30.354 30.597-30.354 16.91 0 30.479 13.513 30.479 30.472zm-15.233 0v-.118c0-9.128-6.907-16.598-15.24-16.598s-15.357 7.47-15.357 16.598 6.906 16.598 15.357 16.598c8.453 0 15.121-7.352 15.24-16.48m-68.526-22.292c4.761-5.215 11.429-7.944 18.21-8.062v14.112c-10.953 0-17.497 4.386-17.497 14.112v32.722h-15.24V31.666c0-2.492 2.14-4.623 4.642-4.623a4.8 4.8 0 0 1 3.454 1.42zm-70.128 7.32h45.711v2.025c0 29.557-19.387 43.382-39.13 43.382s-41.764-15.015-41.764-42.666S162.46 2.382 183.16 2.382c16.753 0 33.626 9.894 39.613 31.345h-16.991c-4.906-11.084-14.358-16.448-23.573-16.448-12.323 0-24.172 9.651-24.172 27.887 0 18.235 13.644 27.651 26.568 27.651 9.571 0 18.786-5.246 21.777-16.449h-29.321V42.425zm305.566 23.689c-2.74 4.946-8.264 7.52-13.8 7.52-7.026 0-14.283-4.15-15.715-12.922h44.761v-1.776c-.594-21.694-15.477-31.893-30.241-31.893s-29.997 10.554-29.997 30.355c0 19.8 15.953 30.591 31.549 30.591 11.285 0 22.471-5.607 27.344-17.345l-13.895-4.524zm-14.632-25.439c5.474 0 10.954 2.965 13.331 8.773h-26.906c2.62-5.808 8.094-8.773 13.568-8.773z" style="stroke-width:1"/><mask id="mask-1" width="109" height="108" x="64" y="86" maskUnits="userSpaceOnUse" style="mask-type:luminance"><path fill="#fff" d="M172.291 86H64.5v107.347h107.785V86z"/></mask></svg>