<svg xmlns="http://www.w3.org/2000/svg" width="310" height="60" viewBox="0 0 310 60"><g id="Layer_1"><path d="M359.338 309.031c4.2 7.5 1.3 16.5-5.6 21.6-21.2 15.5-48.5 2.3-76.7 2.3s-42.9 16.5-61.7 5.7c-5.9-3.4-9.2-10-8.4-16.8 12.1-98.4 59.8-181.3 80.6-203.4-2.7 19.4 39.6 135.2 62 173.4 3.2 5.5 6.5 11.2 9.8 17.1z" class="cls-5" style="fill-rule:evenodd;stroke-width:0" transform="translate(-38.78 -20.654)scale(.20686)"/><path d="M356.638 327.931c-5.8 7.4-48.3 27.5-77.6 27.5s-44.3-6-62.8-16.4c2.3-31.4 7.7-60.1 12.8-78.7 29.6-7.3 68.1 6.1 98.1 15 4.6 8.3 29.5 52.6 29.5 52.6" class="cls-3" style="fill:#fff;fill-rule:evenodd;stroke-width:0" transform="translate(-38.78 -20.654)scale(.20686)"/><path d="M48.6 160c-3.6-18 10.6-30 27.1-32.8 13.8-2.4 35 3.3 41.1 17.1 6.9 15.6-1.1 34.4-17.1 40.2-14.2 5.1-31.7 3-42.4-8.5-4.3-4.6-7.1-9.9-8.7-16" class="cls-1" style="fill:none;stroke-width:0" transform="translate(.821 1.755)scale(.20686)"/><path d="M40.8 161.7c-3.6-16.9 5.3-31 20.3-38.5 14.4-7.2 33.2-5.2 47.2 2.1 15.7 8.2 21.4 24.7 17.5 41.5-3.9 16.6-20.7 27-36.8 28.2-22 1.7-42.8-11.5-48.2-33.3" class="cls-2" style="stroke-width:0" transform="translate(.821 1.755)scale(.20686)"/><path d="M50.3 165.5c6.1 14.5 21.8 22.7 37.2 21.7 16.3-1.1 31.2-12.2 31.7-29.5.3-8.8-2.8-16.8-9.8-22.3-5.9-4.6-13.8-7.2-21.2-8.1-15.2-1.9-34.4 3.4-39.4 19.8-1.9 6.2-.6 12.4 1.5 18.3" class="cls-4" style="fill:#ff2c2c;stroke-width:0" transform="translate(.821 1.755)scale(.20686)"/><path d="m205.938 182.631-.4 6.8c0 .2.1.5.3.5.6.2 1.6.8 2.5 2 .7 1 .8 5.5 1.3 10.2.4 3.6 1 7.9 1.3 9.9s1.1 5.9 3.7 9c2.8 3.3 8.9 4.9 12.3 5.6 6.7 1.4 11.4 1.7 12.9 1.8 1.5 0 12.9.5 17-1.3 4-1.7 8.7-6.7 12.7-18.1 2.6-8.6 3.9-8.8 4.6-9.2.6-.3 2.8-.4 3.7-.4h.8c.8 0 3.1.4 3.6.8.6.5 1.9.9 3.4 9.7 2.6 11.8 6.6 17.4 10.3 19.6 3.8 2.3 15.2 3.4 16.7 3.5s6.2.4 13 0c3.5-.3 9.7-1.1 12.9-4 3-2.7 4.2-6.5 4.8-8.4s1.7-6 2.6-9.6c1.1-4.6 1.8-9 2.6-9.9 1.1-1.1 2.2-1.5 2.8-1.7.2 0 .4-.3.4-.5l.4-6.8c0-.3-.2-.5-.5-.6-3.2-.5-21.3-3.4-30.9-3.9-14.3-.7-21.8 0-26.5 1.3-4 1.1-5.8 2.8-10.2 3.5-1.1.2-2.1.3-2.9.3h-2.9c-.3 0-2.3-.3-2.3-.3-.8 0-1.8-.3-2.9-.7-4.2-1.3-5.9-3.2-9.7-4.8-4.5-1.9-11.8-3.6-26.1-4.7-9.5-.8-27.9-.2-31.1 0-.3 0-.5.2-.5.5h.3zm86.4 15.4c.7-2.5 6.8-3.8 6.8-3.8s11.3-2.7 25.1-.6c12.3 1.8 14 3.7 15.2 5.5s.9 7.5.2 11.4c-.8 3.9-1.9 9.1-4.1 12.5s-7.2 4.8-9.1 5.1c-10.6 1.5-17.8.2-20.3-.3-6.7-1-8.7-3.9-9.6-5.1-.9-1.3-3.2-7.6-4.1-13-1-5.3-.8-9.1 0-11.6zm-75-7.4c1.4-1.6 3.3-3.3 15.8-3.5 13.9-.3 24.8 3.9 24.8 3.9s5.9 2.1 6.3 4.7 0 6.4-1.6 11.5-4.7 11.1-5.8 12.3-3.4 3.7-10.2 3.9c-2.5 0-9.8.5-20.1-2.4-1.8-.6-6.7-2.6-8.4-6.2s-2.2-9-2.4-12.9.2-9.7 1.7-11.3z" class="cls-4" style="fill:#ff2c2c;stroke-width:0" transform="translate(-38.78 -20.654)scale(.20686)"/></g><path fill="#00a74e" d="M51.463 37.518v-1.835h5.727v1.476c0 3.759 2.057 5.013 4.208 5.013 2.145 0 4.069-1.299 4.069-4.743V20.113h-8.189v-4.966H71.24v22.371c0 6.935-5.014 9.932-9.935 9.932-4.875 0-9.842-3.087-9.842-9.932M86.4 46.914 74.811 15.147h6.218l6.983 20.715c.626 1.834 1.165 4.653 1.205 4.653h.094c.04 0 .578-2.819 1.203-4.653l7.026-20.715h6.177l-11.59 31.767zm20.076 0 2.594-31.767h6.172l6.224 15.704c.713 1.879 1.608 4.653 1.608 4.653h.087s.853-2.774 1.572-4.653l6.217-15.704h6.173l2.548 31.767h-5.728l-1.337-17.763c-.135-2.103-.047-4.922-.047-4.922h-.088s-.94 3.088-1.701 4.922l-5.143 12.305h-5.061l-5.097-12.305c-.759-1.834-1.747-4.966-1.747-4.966h-.087s.087 2.863-.047 4.966l-1.338 17.763zm71.189-31.767 5.64 21.968c.491 1.835.532 3.356.579 3.356h.087s.135-1.566.538-3.356l5.236-21.968h5.95l-8.188 31.767h-6.669l-4.874-18.792a38 38 0 0 1-.806-4.161h-.087s-.27 2.103-.807 4.161l-4.874 18.792h-6.669l-7.966-31.767h5.951l5.013 21.968a28 28 0 0 1 .538 3.356h.087c.048 0 .088-1.521.58-3.356l5.726-21.968zm19.876 20.357c0-7.024 4.787-11.946 11.588-11.946 6.577 0 10.111 4.788 10.111 10.828 0 .671-.135 2.191-.135 2.191h-15.749c.358 3.983 3.446 6.041 6.846 6.041 3.67 0 6.578-2.505 6.578-2.505l2.192 4.071s-3.49 3.266-9.172 3.266c-7.562 0-12.259-5.459-12.259-11.946m5.996-2.818h9.977c-.09-3.088-2.014-4.743-4.52-4.743-2.908 0-4.922 1.79-5.457 4.743m18.778 2.818c0-7.024 4.787-11.946 11.588-11.946 6.577 0 10.111 4.788 10.111 10.828 0 .671-.134 2.191-.134 2.191h-15.747c.357 3.983 3.443 6.041 6.844 6.041 3.668 0 6.577-2.505 6.577-2.505l2.193 4.071s-3.49 3.266-9.174 3.266c-7.561 0-12.258-5.459-12.258-11.946m5.996-2.818h9.976c-.088-3.088-2.012-4.743-4.517-4.743-2.91 0-4.921 1.79-5.459 4.743m20.388 14.228V15.147h5.681v17.001h2.819l5.504-8.053h6.31l-7.203 10.201v.09l8.098 12.528h-6.533l-6.039-9.978h-2.956v9.978zm24.244-7.114V15.147h5.637V38.95c0 2.506.849 3.131 2.327 3.131.446 0 .85-.044.85-.044v4.966s-.85.134-1.79.134c-3.132 0-7.024-.806-7.024-7.337m9.94 15.033 1.877-4.251s1.254.939 2.552.939c1.566 0 3.086-.939 3.938-2.953l.85-2.013-9.619-22.46h6.397l4.788 13.153c.448 1.21.85 3.088.85 3.088h.09s.357-1.789.758-2.998l4.476-13.243h6.219l-10.2 26.263c-1.612 4.162-4.788 5.951-8.233 5.951-2.729 0-4.743-1.476-4.743-1.476" style="stroke-width:1"/><path fill="#00a74e" d="M51.463 37.518v-1.835h5.727v1.476c0 3.759 2.057 5.013 4.208 5.013 2.145 0 4.069-1.299 4.069-4.743V20.113h-8.189v-4.966H71.24v22.371c0 6.935-5.014 9.932-9.935 9.932-4.875 0-9.842-3.087-9.842-9.932M86.4 46.914 74.811 15.147h6.218l6.983 20.715c.626 1.834 1.165 4.653 1.205 4.653h.094c.04 0 .578-2.819 1.203-4.653l7.026-20.715h6.177l-11.59 31.767zm20.076 0 2.594-31.767h6.172l6.224 15.704c.713 1.879 1.608 4.653 1.608 4.653h.087s.853-2.774 1.572-4.653l6.217-15.704h6.173l2.548 31.767h-5.728l-1.337-17.763c-.135-2.103-.047-4.922-.047-4.922h-.088s-.94 3.088-1.701 4.922l-5.143 12.305h-5.061l-5.097-12.305c-.759-1.834-1.747-4.966-1.747-4.966h-.087s.087 2.863-.047 4.966l-1.338 17.763zm71.189-31.767 5.64 21.968c.491 1.835.532 3.356.579 3.356h.087s.135-1.566.538-3.356l5.236-21.968h5.95l-8.188 31.767h-6.669l-4.874-18.792a38 38 0 0 1-.806-4.161h-.087s-.27 2.103-.807 4.161l-4.874 18.792h-6.669l-7.966-31.767h5.951l5.013 21.968a28 28 0 0 1 .538 3.356h.087c.048 0 .088-1.521.58-3.356l5.726-21.968zm19.876 20.357c0-7.024 4.787-11.946 11.588-11.946 6.577 0 10.111 4.788 10.111 10.828 0 .671-.135 2.191-.135 2.191h-15.749c.358 3.983 3.446 6.041 6.846 6.041 3.67 0 6.578-2.505 6.578-2.505l2.192 4.071s-3.49 3.266-9.172 3.266c-7.562 0-12.259-5.459-12.259-11.946m5.996-2.818h9.977c-.09-3.088-2.014-4.743-4.52-4.743-2.908 0-4.922 1.79-5.457 4.743m18.778 2.818c0-7.024 4.787-11.946 11.588-11.946 6.577 0 10.111 4.788 10.111 10.828 0 .671-.134 2.191-.134 2.191h-15.747c.357 3.983 3.443 6.041 6.844 6.041 3.668 0 6.577-2.505 6.577-2.505l2.193 4.071s-3.49 3.266-9.174 3.266c-7.561 0-12.258-5.459-12.258-11.946m5.996-2.818h9.976c-.088-3.088-2.012-4.743-4.517-4.743-2.91 0-4.921 1.79-5.459 4.743m20.388 14.228V15.147h5.681v17.001h2.819l5.504-8.053h6.31l-7.203 10.201v.09l8.098 12.528h-6.533l-6.039-9.978h-2.956v9.978zm24.244-7.114V15.147h5.637V38.95c0 2.506.849 3.131 2.327 3.131.446 0 .85-.044.85-.044v4.966s-.85.134-1.79.134c-3.132 0-7.024-.806-7.024-7.337m9.94 15.033 1.877-4.251s1.254.939 2.552.939c1.566 0 3.086-.939 3.938-2.953l.85-2.013-9.619-22.46h6.397l4.788 13.153c.448 1.21.85 3.088.85 3.088h.09s.357-1.789.758-2.998l4.476-13.243h6.219l-10.2 26.263c-1.612 4.162-4.788 5.951-8.233 5.951-2.729 0-4.743-1.476-4.743-1.476" style="stroke-width:1"/></svg>