<svg xmlns="http://www.w3.org/2000/svg" width="170" height="53" fill="none" viewBox="0 0 170 53"><path fill="#221f3a" d="M63.094 21.607V1.221h4.485v8.912l8.213-8.912h5.504l-8.33 8.65 8.68 11.736h-5.388l-6.32-8.678-2.359 2.446v6.232zm27.586.35c-4.835 0-8.417-3.582-8.417-8.067v-.059c0-4.484 3.611-8.125 8.475-8.125 4.834 0 8.416 3.582 8.416 8.067v.059c0 4.485-3.61 8.125-8.474 8.125m.058-3.815c2.533 0 4.048-1.951 4.048-4.252v-.059c0-2.3-1.66-4.31-4.106-4.31-2.534 0-4.049 1.952-4.049 4.252v.059c0 2.3 1.66 4.31 4.107 4.31m16.893 3.728c-2.708 0-4.543-1.078-4.543-4.69V9.784h-1.864V5.997h1.864v-3.99h4.427v3.99h3.669v3.786h-3.669v6.67c0 1.019.436 1.514 1.427 1.514.815 0 1.543-.204 2.184-.553v3.553c-.932.553-2.01.902-3.495.902m7.02-.262V.347h4.427v21.26zm8.671-17.327V.347h4.66v3.931zm.117 17.327V5.997h4.427v15.61zm8.584 0V5.997h4.427v2.214c1.019-1.31 2.33-2.505 4.572-2.505 3.349 0 5.301 2.214 5.301 5.796v10.105h-4.427V12.9c0-2.097-.99-3.175-2.679-3.175s-2.767 1.078-2.767 3.175v8.707zM68.482 48.153l-6.96-20.532h4.805l4.223 13.805 4.572-13.863h3.844l4.573 13.863L87.76 27.62h4.69l-6.96 20.533h-3.903l-4.601-13.338-4.602 13.338zm32.316.204c-4.689 0-8.154-3.291-8.154-8.067v-.058c0-4.456 3.174-8.126 7.717-8.126 5.213 0 7.602 4.048 7.602 8.475 0 .35-.03.757-.059 1.165H97.041c.437 2.01 1.835 3.058 3.815 3.058 1.486 0 2.563-.466 3.786-1.602l2.534 2.243c-1.456 1.805-3.553 2.912-6.378 2.912m-3.815-9.378h6.669c-.262-1.98-1.427-3.32-3.291-3.32-1.834 0-3.029 1.31-3.378 3.32m21.676 9.378c-4.689 0-8.155-3.291-8.155-8.067v-.058c0-4.456 3.175-8.126 7.718-8.126 5.213 0 7.601 4.048 7.601 8.475 0 .35-.029.757-.058 1.165h-10.863c.437 2.01 1.835 3.058 3.815 3.058 1.485 0 2.563-.466 3.786-1.602l2.534 2.243c-1.456 1.805-3.553 2.912-6.378 2.912m-3.815-9.378h6.669c-.262-1.98-1.427-3.32-3.291-3.32-1.835 0-3.029 1.31-3.378 3.32m14.278 9.028v-21.26h4.427v11.33l5.184-5.68h5.3l-5.941 6.145 6.145 9.465h-5.125l-3.99-6.407-1.573 1.66v4.747zm17.439 0v-21.26h4.427v21.26zm15.428-4.98 3.408-10.63h4.601l-5.999 15.989c-1.194 3.174-2.476 4.368-5.126 4.368-1.602 0-2.796-.407-3.931-1.077l1.485-3.204c.582.35 1.31.612 1.893.612.757 0 1.165-.233 1.543-1.02l-6.115-15.667h4.688z"/><path fill="#9e5ef2" d="M42.048 10.042 32.006 0l-9.994 10.042 10.041 10.04v-10.04c-.047 0 10.183-.19 9.995 0"/><path fill="#9e5ef2" d="M48.231 26.211v-14.19h-14.19v14.19l7.072-7.071c.047 0 7.354 7.071 7.118 7.071"/><path fill="#9e5ef2" d="M41.159 42.052 51.2 32.01l-10.04-9.994-10.043 9.994H41.16s.141 10.23 0 10.042"/><path fill="#9e5ef2" d="M24.938 48.227h14.19v-14.19h-14.19l7.071 7.072c0 .047-7.071 7.354-7.071 7.118"/><path fill="#9e5ef2" d="m9.093 41.156 10.042 10.041 10.041-10.041-10.041-10.042v10.042s-10.183.141-10.042 0"/><path fill="#9e5ef2" d="M2.925 24.939v14.19h14.19v-14.19l-7.07 7.071s-7.355-7.07-7.121-7.07"/><path fill="#9e5ef2" d="M10.042 9.098 0 19.14l10.042 10.04 10.041-10.04H10.042s-.189-10.183 0-10.042"/><path fill="#221f3a" d="M26.206 2.923H12.063v14.19h14.19l-7.072-7.071c-.047 0 7.025-7.354 7.025-7.119"/></svg>