<svg xmlns="http://www.w3.org/2000/svg" width="196" height="46" fill="none" viewBox="0 0 196 46"><path fill="#fcb434" fill-rule="evenodd" d="M20.89.092c-1.844.178-4.094.704-5.907 1.38-.374.138-.774.286-.889.33-1.386.51-3.509 1.704-4.6 2.588-.115.093-.61.485-1.098.871-1.143.902-3.026 2.8-3.49 3.517-.197.306-.556.816-.795 1.132-.594.786-1.466 2.24-1.466 2.445 0 .155 1.15.169 13.436.169h13.436v2.914l-.549.792a72 72 0 0 1-1.313 1.812 736 736 0 0 0-3.408 4.572c-.082.115-.848 1.15-1.703 2.3s-1.67 2.256-1.81 2.458c-.14.2-.291.381-.336.4s-.082.102-.082.183c0 .128 1.79.148 12.538.148h12.539l.106-.496c.344-1.613.382-2.066.382-4.627 0-7.136-2.579-12.7-8.173-17.634C33.502 1.636 26.743-.476 20.891.092" clip-rule="evenodd"/><path fill="#040404" fill-rule="evenodd" d="M74.226 9.611c-.74.337-1.39.613-1.442.613s-.587.232-1.187.515l-1.093.516V36.05h5.123l.003-4.888c.004-4.235.024-4.862.152-4.693.081.107.28.343.443.523.541.598 4.05 4.677 4.315 5.014.897 1.145 3.088 3.805 3.224 3.914.197.157 6.397.192 6.397.035 0-.193-1.907-2.477-3.673-4.401a37 37 0 0 1-1.529-1.777 32 32 0 0 0-1.448-1.674c-1.769-1.889-2.877-3.152-2.845-3.241.017-.052.91-1.002 1.983-2.112s2.08-2.182 2.24-2.384c.158-.201.792-.883 1.407-1.516 1.578-1.623 3.138-3.41 3.072-3.517-.03-.05-1.405-.09-3.056-.087l-3 .002-1.133 1.33c-.624.732-2.34 2.678-3.816 4.326l-2.684 2.994-.052-7.45L75.575 9zm45.787-.286c-1.685.788-1.893.882-2.124.95-.133.04-.686.278-1.228.53l-.987.458v3.98h-3.451v3.973h3.451V36.05h5.333V19.216h16.221l-.206.288c-.114.158-.851 1.134-1.638 2.169a275 275 0 0 0-2.048 2.719c-1.622 2.2-2.463 3.33-3.886 5.219-.849 1.126-1.542 2.076-1.542 2.111s-.118.203-.262.374c-.257.306-.261.342-.261 2.133v1.822l13.724-.026 13.723-.027.027-10.273.027-10.273h-5.334v16.625h-16.037l.269-.288c.148-.158.98-1.252 1.848-2.43.868-1.18 2.59-3.508 3.828-5.177a940 940 0 0 0 3.088-4.18l.839-1.15-.028-1.778-.029-1.779-11.161-.027-11.162-.026v-3.136c0-2.444-.029-3.135-.131-3.13-.072.004-.46.161-.863.35m42.765.257c-.747.335-1.888.84-2.535 1.122l-1.176.51V36.05h5.228V22.51c0-7.448-.035-13.54-.079-13.539-.043.001-.69.276-1.438.611m9.516.007c-.748.337-1.887.841-2.533 1.12l-1.173.508-.003 12.418-.003 12.419 2.64-.028 2.64-.028.026-13.514c.022-10.78 0-13.514-.104-13.51-.072.002-.742.28-1.49.615m12.835 5.243c-1.792.173-3.711.682-4.979 1.32l-.719.361.061.489c.034.269.114 1.195.179 2.057.065.863.134 1.625.155 1.694.023.076.312-.06.749-.355 4.184-2.827 9.055-1.968 9.636 1.698.121.765.348.647-1.723.889-3.397.396-3.843.488-5.421 1.115-3.759 1.495-5.526 4.462-4.716 7.918.704 3.002 2.672 4.4 6.176 4.39 2.798-.009 4.376-.658 5.656-2.328.395-.515.343-.585.574.768.229 1.333-.073 1.202 2.772 1.202H196l-.075-.392a97 97 0 0 1-.177-.967c-.056-.316-.137-3.469-.18-7.005-.092-7.775-.091-7.768-1.66-9.99-1.548-2.193-4.787-3.25-8.779-2.864M.869 16.563C-.4 20.837-.271 26.31 1.2 30.505c.558 1.591 2.22 4.843 2.743 5.366.075.075.36.463.634.864 2.316 3.384 6.771 6.642 10.927 7.988 11.39 3.691 23.049-1.21 28.192-11.85.308-.639.561-1.244.562-1.345.001-.173-.763-.183-14.585-.183H15.087v-3.129l.468-.574c.83-1.02 3.19-4.22 3.19-4.325 0-.056.08-.167.175-.246.21-.173 3.272-4.224 4.949-6.547.176-.244.348-.515.38-.601.054-.14-1.268-.157-11.541-.157H1.105zm97.064-.642c-4.64.841-7.424 4.391-7.634 9.73-.304 7.748 3.838 12.265 10.841 11.819 5.085-.324 8.173-3.193 9.03-8.388 1.46-8.85-3.948-14.666-12.237-13.161m3.784 4.084c.715.196 1.465.714 1.961 1.356.91 1.176 1.437 3.506 1.292 5.713-.254 3.878-1.512 5.862-3.966 6.254-2.884.461-4.848-1.598-5.31-5.568-.627-5.394 2.054-8.845 6.023-7.755m88.613 8.087v2.185l-.454.612c-2.069 2.79-6.258 2.326-6.43-.712-.138-2.456 2.289-3.998 6.701-4.258.169-.01.183.159.183 2.173" clip-rule="evenodd"/></svg>