<svg xmlns="http://www.w3.org/2000/svg" width="600" height="280" fill="none" viewBox="0 0 600 280"><g fill="#fff" clip-path="url(#clip0_4154_13154)"><path d="M175.604 132.265 146.228 62.35H132.01v82.25h6.11V67.755l32.197 76.846h6.346l31.962-76.377V144.6h9.751V62.35h-13.395zm106.114-39.54q-3.877-3.936-9.281-6.17-5.407-2.233-11.632-2.233-6.228 0-11.633 2.232c-3.605 1.49-6.696 3.546-9.281 6.17-2.585 2.626-4.625 5.818-6.111 9.576q-2.231 5.64-2.232 12.456c0 4.542.745 8.969 2.232 12.807q2.23 5.759 6.17 9.813 3.933 4.053 9.281 6.227 5.345 2.173 11.574 2.173c4.152 0 7.911-.745 11.516-2.232q5.403-2.231 9.281-6.227 3.879-3.994 6.169-9.752 2.292-5.756 2.292-12.807c0-4.701-.747-8.695-2.232-12.456q-2.234-5.64-6.111-9.576zm-3.113 32.549q-1.117 4.876-3.465 8.46-2.35 3.585-5.935 5.581-3.586 1.998-8.4 1.997-4.819 0-8.401-1.997-3.587-1.996-5.935-5.581-2.352-3.584-3.465-8.46-1.12-4.876-1.118-10.516c0-3.76.371-7.11 1.118-10.281q1.114-4.758 3.465-8.226 2.348-3.463 5.935-5.464 3.582-1.998 8.401-1.997c3.212 0 6.009.665 8.4 1.997q3.586 1.997 5.935 5.464t3.465 8.226q1.119 4.759 1.118 10.281c0 3.681-.372 7.266-1.118 10.516m66.294-28.848q-2.585-4.935-7.635-8.46-5.055-3.525-12.692-3.526-5.524 0-10.399 1.999a23 23 0 0 0-8.4 5.874q-3.526 3.878-5.523 9.518-1.998 5.64-1.997 12.925c0 4.856.664 9.342 1.997 13.219q1.997 5.817 5.523 9.752a23.3 23.3 0 0 0 8.4 5.994q4.875 2.054 10.519 2.055 7.635.002 12.805-3.819 5.17-3.818 7.64-9.106v11.75h8.931V60h-9.167v36.426zm-4.993 37.131q-5.347 7.287-13.455 7.286-8.696 0-13.337-7.109-4.643-7.108-4.642-18.978c0-7.914 1.528-14.118 4.584-18.625q4.582-6.757 13.395-6.756c5.17 0 9.593 2.35 13.278 7.05q5.522 7.052 5.522 18.331c0 7.52-1.781 13.945-5.345 18.801m72.264-41.948c-2.51-2.35-5.405-4.131-8.694-5.347q-4.936-1.822-10.34-1.822-5.056 0-9.928 1.999-4.879 1.996-8.695 5.817-3.82 3.818-6.11 9.518-2.291 5.699-2.292 12.984t2.173 13.042q2.173 5.761 6.051 9.752 3.877 3.996 9.165 6.112 5.288 2.114 11.399 2.114 9.986 0 16.744-5.111c4.503-3.409 7.302-8.008 8.4-13.806h-5.523q-1.292 6.227-6.286 10.164-4.997 3.938-12.397 3.936-9.52 0-14.451-7.343-4.937-7.343-4.937-18.858v-.236h43.829v-1.881q0-6.931-2.173-12.22-2.177-5.288-5.935-8.813zm-35.605 18.212q.588-10.575 4.995-15.745 4.405-5.17 11.574-5.17 8.107 0 12.162 5.346 4.053 5.348 4.289 15.569zm80.911-24.324q-4.114 0-7.402 1.587-3.29 1.586-5.757 4.64a16 16 0 0 0-1.823 2.762q-.764 1.47-1.232 2.997v-11.75h-8.932V144.6h9.165v-34.076q0-5.168 1.175-8.576 1.172-3.409 3.113-5.347 1.938-1.939 4.289-2.703a15.5 15.5 0 0 1 4.817-.763q1.645 0 3.113.177 1.468.176 2.644.294v-7.873a17 17 0 0 0-1.526-.174 23 23 0 0 0-1.646-.06zm54.874 4.174q-6.168-5.23-14.983-5.23-7.047.001-12.103 3.82-5.054 3.82-7.283 9.575V85.733h-8.931V144.6h9.165v-27.378q0-13.628 5.111-20.739 5.112-7.108 12.397-7.11c3.996 0 7.263 1.372 9.811 4.114q3.819 4.114 3.819 13.982V144.6h9.165v-36.425q0-13.278-6.168-18.505m71.44 24.851v-1.88q0-6.932-2.173-12.221-2.177-5.288-5.935-8.812c-2.51-2.35-5.405-4.131-8.694-5.347q-4.936-1.822-10.34-1.822-5.055 0-9.928 1.999-4.878 1.996-8.695 5.817-3.82 3.818-6.11 9.518-2.291 5.699-2.292 12.984t2.173 13.042q2.173 5.761 6.051 9.752 3.878 3.996 9.165 6.112 5.288 2.114 11.399 2.114 9.986 0 16.744-5.111c4.503-3.409 7.302-8.008 8.4-13.806h-5.523q-1.293 6.227-6.286 10.164-4.997 3.938-12.397 3.936-9.52 0-14.451-7.343-4.937-7.343-4.937-18.858v-.236h43.829zm-38.718-20.446q4.405-5.17 11.574-5.17 8.107 0 12.162 5.346 4.053 5.348 4.289 15.569h-33.018q.588-10.575 4.995-15.745zM92.042 61.769a2.1 2.1 0 0 0-2.285.454L53.64 98.34C51.265 77.7 33.707 61.608 12.438 61.608a2.097 2.097 0 0 0-2.098 2.098v78.808c0 .034.012.066.016.1.004.101.025.199.044.299.022.107.041.21.079.312.01.03.01.062.023.093.025.06.07.107.1.165.052.099.101.193.168.28.06.081.128.15.2.221q.103.112.224.204c.087.064.178.114.274.164.06.03.107.076.17.101.025.011.051.006.076.016.23.086.471.145.726.145h78.802c1.159 0 2.098-.94 2.098-2.099V63.706c0-.848-.511-1.613-1.294-1.937zm-2.9 7.002v32.24H56.904zm0 51.941H53.936v-15.506h35.206zm-74.605 16.735v-32.24h32.237l-16.12 16.12-16.12 16.12zm0-71.585c18.9 1.053 34.093 16.246 35.145 35.147H14.537zm19.084 58.432 16.12-16.12v32.24H17.5zm20.315 16.12v-15.507h35.206v15.507zM600.34 90.366c0 3.312-2.681 5.995-5.981 5.995s-6.042-2.683-6.042-5.995a6.02 6.02 0 0 1 6.042-6.028c3.374 0 5.981 2.7 5.981 6.028m-1.186 0c0-2.747-2.143-4.928-4.794-4.928s-4.854 2.182-4.854 4.928 2.143 4.913 4.854 4.913 4.794-2.198 4.794-4.913m-2.251-1.145c0 .958-.694 1.617-1.865 1.726l1.895 2.26h-1.155l-1.819-2.26h-.77v2.26h-.971v-5.775h2.497c1.371 0 2.189.675 2.189 1.79zm-3.714.926h1.51c.74 0 1.218-.314 1.218-.926 0-.611-.478-.925-1.218-.925h-1.51v1.852zM23.194 176.821H10.835v-2.184H39.72v2.184H27.362v32.557h-4.168zm25.26 32.557h-3.87v-35.732h3.87v13.947c0 .695 0 1.34-.05 1.936 1.29-3.225 4.218-5.559 8.138-5.559 5.013 0 8.933 2.532 8.933 10.025v15.385h-3.87v-15.683c0-5.559-2.332-7.643-5.756-7.643-4.12 0-7.395 4.07-7.395 11.763v11.563zm35.286.498c-6.947 0-12.158-4.914-12.158-13.102s5.658-12.804 11.415-12.804c6.154 0 11.465 4.12 11.465 11.911v.793H75.949v.1c0 6.502 2.78 11.067 8.189 11.067 4.218 0 7.147-2.431 7.89-5.956h2.332c-.943 4.914-4.963 7.991-10.62 7.991m-7.742-15.188h13.946c-.15-5.756-2.332-8.833-6.947-8.833-4.07 0-6.65 2.879-6.998 8.833zm53.349 10.174c-1.439 2.78-4.169 5.014-8.338 5.014-4.17 0-8.289-1.737-8.289-6.9 0-4.763 3.921-6.849 12.159-8.04l4.318-.645v-1.737c0-4.615-1.986-6.749-5.857-6.749-3.87 0-5.806 2.233-6.154 5.706h-3.622c.495-4.715 4.665-7.593 9.776-7.593 5.957 0 9.727 2.978 9.677 9.082l-.05 11.713c0 .745.1 1.736.248 4.665h-3.822l-.05-4.516zm-.148-7.047v-1.488c-8.884.695-12.259 2.729-12.259 6.501 0 3.177 2.084 4.914 4.864 4.914 4.02 0 7.395-3.523 7.395-9.927m20.594 21.39c-7.047 0-11.167-1.787-11.167-5.807 0-2.729 2.184-4.615 5.261-5.459-1.786-.595-2.779-1.736-2.779-3.522 0-2.034 1.538-3.525 3.772-4.368-3.375-1.241-5.459-4.168-5.459-7.693 0-5.311 4.318-8.238 9.479-8.238.745 0 1.489.05 2.184.198 1.389.15 2.184.198 4.07.198h6.502v1.984h-3.077c-1.091 0-2.184-.148-3.227-.398 1.886 1.439 3.027 3.573 3.027 6.254 0 4.716-3.722 8.388-9.479 8.388-3.077 0-4.715 1.341-4.715 2.63 0 1.091.645 1.638 2.879 1.736l5.311.248c5.161.198 8.486 2.184 8.486 6.302 0 5.311-5.261 7.543-11.068 7.543zm7.743-6.452c0-2.432-1.886-3.822-5.509-4.02l-4.665-.248c-3.127.446-5.014 2.084-5.014 4.516 0 2.729 2.184 4.367 7.445 4.367 4.368 0 7.743-1.638 7.743-4.615m-14.095-20.397c0 3.573 1.737 6.6 5.459 6.6s5.509-2.927 5.509-6.6c0-4.02-1.936-6.452-5.509-6.452s-5.459 2.432-5.459 6.452m33.201 17.52c-6.947 0-12.158-4.914-12.158-13.102s5.658-12.804 11.415-12.804c6.154 0 11.465 4.12 11.465 11.911v.793h-18.513v.1c0 6.502 2.78 11.067 8.189 11.067 4.218 0 7.147-2.431 7.89-5.956h2.332c-.943 4.914-4.963 7.991-10.62 7.991m-7.741-15.188h13.947c-.15-5.756-2.332-8.833-6.948-8.833-4.07 0-6.649 2.879-6.997 8.833zm28.883 14.69h-3.871v-24.864h3.773v5.111c1.24-3.275 4.218-5.658 8.188-5.658 5.013 0 8.933 2.531 8.933 10.024v15.385h-3.87v-15.683c0-5.558-2.332-7.642-5.757-7.642-4.12 0-7.394 4.07-7.394 11.762v11.563zm26.005-5.656V186.5h-4.516v-1.984h4.516v-4.566l3.722-2.629h.15v7.197h6.75v1.984h-6.75v17.271c0 2.928.745 3.673 3.325 3.673h3.425v1.886c-1.091.05-2.63.1-4.666.1-4.07 0-5.956-1.091-5.956-5.707zm30.471 0V186.5h-4.516v-1.984h4.516v-4.566l3.722-2.629h.15v7.197h6.75v1.984h-6.75v17.271c0 2.928.745 3.673 3.325 3.673h3.425v1.886c-1.091.05-2.63.1-4.666.1-4.07 0-5.956-1.091-5.956-5.707zm13.399-6.95c0-7.692 5.311-12.854 12.358-12.854s12.359 5.162 12.359 12.854c0 7.693-5.409 13.102-12.359 13.102-6.949 0-12.358-5.111-12.358-13.102m20.349 0c0-6.254-2.532-10.967-7.991-10.967s-7.99 4.715-7.99 10.967 2.532 11.216 7.99 11.216 7.991-4.814 7.991-11.216m9.031 0c0-7.692 5.311-12.854 12.358-12.854s12.359 5.162 12.359 12.854c0 7.693-5.409 13.102-12.359 13.102-6.949 0-12.358-5.111-12.358-13.102m20.349 0c0-6.254-2.532-10.967-7.991-10.967s-7.99 4.715-7.99 10.967 2.532 11.216 7.99 11.216 7.991-4.814 7.991-11.216m10.967-23.126h3.871v35.732h-3.871zm9.927 27.892h3.622c.198 3.772 2.582 6.501 6.85 6.501 3.572 0 6.452-1.588 6.452-4.715 0-2.582-2.134-3.871-5.907-4.764l-2.581-.595c-4.666-1.091-7.295-2.68-7.295-6.602 0-4.615 4.368-7.445 9.429-7.445 5.409 0 9.181 2.68 9.529 7.098h-3.623c-.298-3.225-2.382-5.211-5.906-5.211-3.525 0-6.104 1.986-6.104 4.515 0 2.234 1.538 3.375 4.763 4.07l2.78.596c5.26 1.141 8.338 2.927 8.338 7.295 0 4.963-5.014 7.643-9.877 7.643-6.6 0-10.124-3.425-10.472-8.388zm38.262-4.766c0-7.99 5.409-12.803 11.86-12.803 6.452 0 9.927 3.474 10.373 8.238h-3.673c-.248-3.573-2.531-6.352-6.7-6.352-4.963 0-7.494 4.268-7.494 10.917 0 6.055 2.581 11.018 8.09 11.018 4.12 0 6.849-2.532 7.445-6.254h2.382c-.696 4.813-4.07 8.338-10.225 8.338-7.097 0-12.06-5.261-12.06-13.102zm26.452 0c0-7.692 5.311-12.854 12.358-12.854s12.359 5.162 12.359 12.854c0 7.693-5.409 13.102-12.359 13.102-6.949 0-12.358-5.111-12.358-13.102m20.347 0c0-6.254-2.531-10.967-7.99-10.967s-7.991 4.715-7.991 10.967 2.532 11.216 7.991 11.216 7.99-4.814 7.99-11.216m14.84 12.606h-3.871v-24.864h3.773v4.566c1.141-2.879 3.97-5.111 7.692-5.111s7.097 1.588 8.438 5.658c1.241-3.177 4.07-5.658 8.09-5.658 4.616 0 9.034 2.531 9.034 9.528v15.881h-3.871V193.2c0-5.013-2.729-7.147-5.806-7.147-3.623 0-6.9 3.424-6.9 10.272v13.052h-3.87v-16.179c0-5.013-2.729-7.147-5.757-7.147-3.622 0-6.947 3.424-6.947 10.272v13.052zm45.261-4.565v13.994h-3.871v-34.293h3.773v4.764c1.388-2.978 4.268-5.311 8.685-5.311 6.352 0 11.118 4.615 11.118 12.804s-4.864 13.101-11.168 13.101c-4.218 0-7.097-2.284-8.536-5.063zm15.335-8.041c0-6.649-2.63-10.719-7.543-10.719-4.566 0-7.94 4.367-7.94 10.719s3.474 11.018 7.94 11.018c4.963 0 7.543-4.168 7.543-11.018m25.856 8.09c-1.439 2.78-4.168 5.014-8.338 5.014s-8.288-1.737-8.288-6.9c0-4.763 3.92-6.849 12.158-8.04l4.318-.645v-1.737c0-4.615-1.984-6.749-5.856-6.749-3.873 0-5.807 2.233-6.155 5.706h-3.622c.495-4.715 4.665-7.593 9.777-7.593 5.956 0 9.726 2.978 9.676 9.082l-.05 11.713c0 .745.1 1.736.248 4.665h-3.822l-.05-4.516zm-.148-7.047v-1.488c-8.884.695-12.259 2.729-12.259 6.501 0 3.177 2.084 4.914 4.864 4.914 4.02 0 7.395-3.523 7.395-9.927m15.929 11.563h-3.871v-24.864h3.773v5.111c1.241-3.275 4.218-5.658 8.188-5.658 5.013 0 8.933 2.531 8.933 10.024v15.385h-3.87v-15.683c0-5.558-2.332-7.642-5.757-7.642-4.119 0-7.394 4.07-7.394 11.762v11.563zm27.891 9.429 3.475-9.231-10.87-25.062h4.268l8.486 20.051 7.345-20.051h2.482l-12.754 34.293z"/></g><defs><clipPath id="clip0_4154_13154"><path fill="#fff" d="M0 0h600v280H0z"/></clipPath></defs></svg>