<svg xmlns="http://www.w3.org/2000/svg" width="500" height="217" viewBox="0 0 500 217"><g id="Ebene_1"><path d="M240.865 68.42c-.35 0-.61.06-.83.13v8.29c.19.06.45.13.77.13 1.73 0 2.46-1.44 2.46-4.26s-.64-4.29-2.4-4.29m24.93-.06c-1.44 0-2.21 1.31-2.08 3.71l3.9-.58c.03-2.11-.58-3.14-1.82-3.14z" class="cls-1" style="fill:#f8f8f8;stroke-width:1" transform="translate(-795.203 -174.675)scale(3.8917)"/><path d="M331.965 62.31c.35-.03.61-.29.61-.64V45.85c0-.35-.29-.64-.64-.64h-51.42v2.48c0 .62-.5 1.12-1.12 1.12s-1.12-.5-1.12-1.12v-2.48h-73.06c-.35 0-.64.29-.64.64v15.82c0 .35.26.61.61.64 5.47.32 9.82 4.86 9.82 10.43s-4.35 10.08-9.82 10.37c-.35.03-.61.29-.61.64v15.82c0 .35.29.64.64.64h73.22-.16v-2.48c0-.63.49-1.12 1.12-1.12s1.12.5 1.12 1.12v2.48h-.16 51.58c.35 0 .64-.29.64-.64V83.75c0-.35-.26-.61-.61-.64-5.47-.32-9.82-4.83-9.82-10.4s4.35-10.11 9.82-10.4m-89.98 17.47c-.86 0-1.6-.1-1.95-.19v5.54h-4.86v-18.5c1.31-.61 3.07-1.06 5.73-1.06 4.26 0 7.17 2.27 7.17 7.1 0 4.35-2.53 7.1-6.08 7.1zM257.565 69c-.9-.45-1.76-.45-2.4-.22v10.85h-4.86V66.64c1.41-.7 3.55-1.09 6.69-1.06.45 0 .93.03 1.41.06l-.83 3.36zm14.56 4.26-8.03 1.12c.32 1.47 1.09 2.21 2.85 2.21 1.63 0 2.91-.35 3.68-.74l1.09 2.98c-1.22.58-2.82 1.06-5.38 1.06-4.51 0-6.88-3.04-6.88-7.17s2.21-7.1 6.53-7.1c4.35-.03 6.4 2.98 6.14 7.65zm8.38 18.56c0 .62-.5 1.12-1.12 1.12s-1.12-.5-1.12-1.12V86.7c0-.62.5-1.12 1.12-1.12s1.12.52 1.12 1.12zm0-11.07c0 .6-.52 1.12-1.12 1.12s-1.12-.52-1.12-1.12v-5.12c0-.63.49-1.12 1.12-1.12s1.12.5 1.12 1.12zm0-11.01c0 .62-.5 1.12-1.12 1.12s-1.12-.5-1.12-1.12v-5.12c0-.62.5-1.12 1.12-1.12s1.12.52 1.12 1.12zm0-11.07c0 .6-.52 1.12-1.12 1.12s-1.12-.52-1.12-1.12v-5.12c0-.63.49-1.12 1.12-1.12s1.12.5 1.12 1.12zm14.18 10.34h-2.02v6.18c0 1.02.35 1.41 1.09 1.41.35 0 .54-.06.93-.19v2.98c-.35.19-1.22.48-2.34.48-3.1 0-4.51-1.89-4.51-4.26v-6.59h-1.44v-3.17h1.44v-2.82l4.86-1.22v4.03h1.98v3.17zm7.07 10.62h-4.86V65.87h4.86zm-2.43-15.58c-1.38 0-2.5-.99-2.5-2.21s1.12-2.18 2.5-2.18 2.53.96 2.53 2.18-1.12 2.21-2.53 2.21m12.35 15.58-1.76-3.81h-.06l-1.82 3.81h-4.9l4.32-7.1-3.87-6.66h5.06l1.66 3.46h.06l1.82-3.46h4.51l-4 6.37 4.38 7.42-5.41-.03z" class="cls-1" style="fill:#f8f8f8;stroke-width:1" transform="translate(-795.203 -174.675)scale(3.8917)"/></g></svg>