<svg xmlns="http://www.w3.org/2000/svg" width="200" height="44" fill="none" viewBox="0 0 200 44"><path fill="#fff" d="M28.955 2.258a4.67 4.67 0 0 0-4-2.258 4.68 4.68 0 0 0-4.002 2.258l-6.581 11.26a32.2 32.2 0 0 1 12.426 10.957 32.16 32.16 0 0 1 5.328 15.678h-4.621c-.376-4.8-2-9.42-4.712-13.401a27.7 27.7 0 0 0-10.752-9.298l-6.092 10.52a15.9 15.9 0 0 1 6.172 4.902 15.9 15.9 0 0 1 3.06 7.257H4.57a.76.76 0 0 1-.62-1.109l2.94-4.995a10.8 10.8 0 0 0-3.36-1.898L.618 37.126a4.533 4.533 0 0 0 1.69 6.235c.69.388 1.469.594 2.261.599h14.534a19.36 19.36 0 0 0-1.727-9.697 19.4 19.4 0 0 0-6.275-7.597l2.31-3.997a23.86 23.86 0 0 1 7.98 9.28 23.8 23.8 0 0 1 2.323 12.01h12.313a35.8 35.8 0 0 0-3.959-18.074 35.86 35.86 0 0 0-12.455-13.696l4.671-7.993a.77.77 0 0 1 1.05-.27c.53.29 20.296 34.739 20.666 35.138a.759.759 0 0 1-.68 1.13h-4.762q.09 1.907 0 3.806h4.782a4.6 4.6 0 0 0 4.274-2.838 4.6 4.6 0 0 0 .347-1.768c0-.8-.214-1.587-.62-2.278zM124.3 28.254 109.536 9.211h-3.681v25.527h3.731V15.176l15.184 19.562h3.261V9.211H124.3zm-37.18-4.736h13.234v-3.317H87.111v-7.683h14.933V9.202H83.31v25.537h18.925v-3.317H87.111zm-15.564-3.237c-5.15-1.238-6.591-2.218-6.591-4.595 0-2.139 1.89-3.587 4.711-3.587 2.569.075 5.046.968 7.072 2.547l2-2.827a14.1 14.1 0 0 0-9.002-2.997c-5.061 0-8.592 2.997-8.592 7.263 0 4.596 3 6.185 8.462 7.513 4.861 1.12 6.352 2.159 6.352 4.486s-2 3.767-5.092 3.767a12.35 12.35 0 0 1-8.302-3.257l-2.25 2.687a15.95 15.95 0 0 0 10.422 3.847c5.482 0 9.003-2.947 9.003-7.503-.03-3.857-2.31-5.925-8.192-7.344M195.7 9.211l-7.692 11.99-7.642-11.99h-4.461l10.092 15.437v10.1h3.841v-10.22L200 9.21zm-64.647 3.457h8.372v22.08h3.841v-22.08h8.372V9.211h-20.575zm38.35 12.11c3.861-1.07 6.002-3.767 6.002-7.624 0-4.905-3.591-7.992-9.383-7.992h-11.363v25.566h3.801v-9.171h6.452l6.482 9.191h4.441l-7.002-9.81zM158.45 22.28v-9.692h7.172c3.741 0 5.882 1.769 5.882 4.836s-2.291 4.856-5.842 4.856z"/></svg>