<svg xmlns="http://www.w3.org/2000/svg" width="410" height="140" viewBox="0 0 410 140"><path fill="#831b84" d="M199.081 64.332h-37.588c2.244-8.514 10.098-14.189 18.513-14.189 10.098 0 16.831 5.675 19.075 14.189m-37.588 13.053h54.979V73.98c0-9.081-1.684-16.459-6.733-22.702-7.293-10.216-18.513-15.892-29.733-15.892-9.537 0-18.513 4.541-25.245 11.351s-10.098 15.325-10.098 24.973c0 9.081 3.927 18.729 10.098 25.54 7.293 7.378 15.708 10.215 25.807 10.215 15.146 0 26.927-8.513 32.538-23.837h-17.392c-3.366 5.676-9.537 8.513-16.269 8.513-9.537 1.135-16.83-5.107-17.952-14.756m79.663-4.54c0-11.919 8.415-21 19.635-21s19.635 9.648 19.635 20.432c0 11.351-8.415 20.432-20.757 20.432-9.537.568-18.513-8.513-18.513-19.864m-.561-29.513v-27.81h-15.708v91.376h15.708v-5.676c6.732 5.108 12.903 7.378 21.318 7.378 8.976 0 16.269-2.837 22.44-7.945 8.415-7.379 12.903-17.594 12.903-28.378 0-10.215-4.488-19.864-11.781-27.242-6.732-6.243-14.586-9.081-23.562-9.081-8.415 0-15.147 2.27-21.318 7.378m67.881-5.108h15.147v69.241h-15.147zm0-22.702h15.147v15.324h-15.147zm41.515 56.188c0-11.352 8.976-19.865 19.635-19.865 10.098 0 19.074 9.081 19.074 21 0 10.783-8.976 19.864-19.074 19.864-10.659-.568-19.635-9.081-19.635-20.999m40.392 35.755h15.147V38.224h-15.147v7.946c-4.488-6.811-11.781-10.216-21.318-10.216-10.098 0-18.514 3.405-25.245 10.783-6.733 6.811-10.099 15.892-10.099 25.54 0 20.999 15.148 36.323 35.344 36.323 10.659 0 17.391-2.837 21.318-10.215z" style="stroke-width:1"/><path fill="#831b84" d="M6.094 136.979h41.51l44.88-45.404 44.882 45.404h42.076l-65.638-66.971 66.198-66.971h-42.075L92.484 49.009 47.044 3.037H5.534l66.19 66.971z" style="stroke-width:1"/></svg>