<svg xmlns="http://www.w3.org/2000/svg" width="410" height="140" viewBox="0 0 410 140"><path fill="#fff" d="M199.079 64.331h-37.587c2.244-8.513 10.098-14.189 18.513-14.189 10.098 0 16.83 5.676 19.074 14.189m-37.587 13.054h54.979V73.98c0-9.081-1.684-16.459-6.733-22.702-7.293-10.216-18.513-15.892-29.733-15.892-9.537 0-18.513 4.541-25.245 11.351s-10.098 15.324-10.098 24.972c0 9.081 3.927 18.729 10.098 25.54 7.293 7.378 15.708 10.216 25.806 10.216 15.147 0 26.928-8.513 32.538-23.837h-17.391c-3.366 5.675-9.537 8.513-16.269 8.513-9.537 1.135-16.83-5.108-17.952-14.756m79.663-4.541c0-11.918 8.414-20.999 19.635-20.999 11.22 0 19.635 9.648 19.635 20.432 0 11.351-8.415 20.432-20.757 20.432-9.537.568-18.513-8.513-18.513-19.865m-.562-29.512V15.521h-15.707v91.376h15.707v-5.675c6.733 5.108 12.904 7.378 21.318 7.378 8.977 0 16.27-2.838 22.441-7.945 8.415-7.379 12.903-17.594 12.903-28.378 0-10.216-4.488-19.864-11.781-27.242-6.732-6.244-14.586-9.081-23.563-9.081-8.414 0-15.147 2.27-21.318 7.378m67.882-5.108h15.147v69.241h-15.147zm0-22.703h15.147v15.325h-15.147zm41.514 56.188c0-11.351 8.976-19.864 19.636-19.864 10.098 0 19.074 9.081 19.074 20.999 0 10.784-8.976 19.865-19.074 19.865-10.66-.568-19.636-9.081-19.636-21m40.392 35.756h15.148V38.224h-15.148v7.946c-4.487-6.811-11.78-10.216-21.318-10.216-10.098 0-18.513 3.405-25.245 10.783-6.732 6.811-10.098 15.892-10.098 25.54 0 20.999 15.147 36.323 35.343 36.323 10.66 0 17.391-2.838 21.318-10.216z" style="stroke-width:1"/><path fill="#fff" d="M6.094 136.979h41.51l44.88-45.404 44.881 45.404h42.075l-65.638-66.971 66.199-66.971h-42.075L92.484 49.009 47.044 3.037H5.534l66.19 66.971z" style="stroke-width:1"/></svg>