<svg width="270" height="112" viewBox="0 0 270 112" fill="none" xmlns="http://www.w3.org/2000/svg">
<path d="M131.507 53.4345H114.072C115.13 49.5177 118.734 46.8935 122.496 46.8935C127.197 46.8935 130.332 49.2436 131.507 53.4345ZM113.994 59.4271H139.579V57.8212C139.579 53.5912 138.599 50.2228 136.64 47.3635C133.271 42.8593 128.216 40.1176 122.77 40.1176C118.421 40.1176 114.189 41.9976 110.937 45.4052C107.999 48.5386 106.432 52.4945 106.432 56.9204C106.432 61.1505 108.195 65.4981 111.173 68.6315C114.464 71.9215 118.421 73.5274 123.162 73.5274C130.254 73.5274 135.856 69.6106 138.56 62.6388H130.528C129 65.2239 126.179 66.5556 122.927 66.5556C117.755 66.7514 114.346 63.8922 113.994 59.4271Z" fill="#6C1D5F"/>
<path d="M151.098 57.2338C151.098 51.7504 155.016 47.6769 160.227 47.6769C165.399 47.6769 169.513 52.0245 169.513 57.0771C169.513 62.1297 165.595 66.4773 159.835 66.4773C155.251 66.4773 151.098 62.4039 151.098 57.2338ZM150.824 43.6035V30.7958H143.497V73.0183H150.824V70.4332C153.762 72.7441 156.975 73.8016 160.737 73.8016C164.811 73.8016 168.338 72.47 171.198 70.1199C175.038 66.8298 177.193 62.0906 177.193 57.0771C177.193 52.4162 175.312 47.7945 171.707 44.6611C168.769 41.8018 164.89 40.431 160.697 40.431C156.858 40.3918 153.723 41.2927 150.824 43.6035Z" fill="#6C1D5F"/>
<path d="M182.325 41.2143H189.417V73.0575H182.325V41.2143ZM182.325 30.835H189.417V37.9243H182.325V30.835Z" fill="#6C1D5F"/>
<path d="M201.798 56.6855C201.798 51.5154 205.873 47.5595 210.927 47.5595C215.59 47.5595 219.9 51.6329 219.9 57.1163C219.9 62.0123 215.668 66.2423 211.045 66.2423C206.03 66.2423 201.798 62.2864 201.798 56.6855ZM220.722 73.0183H227.814V41.1752H220.722V45.0136C218.567 41.8802 215.237 40.3527 210.614 40.3527C205.991 40.3527 202.033 41.8802 198.781 45.2486C195.843 48.382 194.275 52.4946 194.275 56.9597C194.275 66.5165 201.367 73.6842 210.731 73.6842C215.629 73.6842 218.881 72.3525 220.644 69.0232L220.722 73.0183Z" fill="#6C1D5F"/>
<path d="M41.2742 86.8835H60.708L81.7089 65.9681L102.631 86.8835H122.3L91.5041 56.0979L122.535 25.1165H102.867L81.6697 46.3452L60.5904 25.1165H41L71.8353 56.0979L41.2742 86.8835Z" fill="#6C1D5F"/>
</svg>
