<svg xmlns="http://www.w3.org/2000/svg" width="342" height="316" fill="none"><path fill="#C202D7" d="M230.497 204.04c-25.479 25.511-66.798 25.518-92.283 0-25.479-25.511-25.486-66.883 0-92.401l92.488-92.592c25.478-25.512 66.609-25.337 92.094.18 25.479 25.512 25.674 66.702.188 92.221z"/><path fill="#C202D7" d="M138.158 204.353c-25.478-25.511-25.485-66.882 0-92.401 25.479-25.51 66.797-25.518 92.283 0l92.474 92.607c25.479 25.511 25.305 66.694-.181 92.212-25.479 25.512-66.616 25.707-92.102.189z"/><path fill="#C202D7" fill-rule="evenodd" d="M138.88 205.101c25.488 24.72 66.139 24.455 91.305-.774l46.052-46.163-46.157-46.281c-24.346-24.408-63.172-25.444-88.749-3.126l-3.237 3.244c-24.495 24.559-25.391 63.812-2.705 89.447q1.252 1.41 2.601 2.76z" clip-rule="evenodd"/><path fill="url(#a)" d="M-.004 65.237C41.294 24.456 56.343.074 92.134.074c35.941 0 65.076 29.254 65.076 65.342s-29.136 65.342-65.076 65.342c-35.791 0-50.84-24.625-92.138-65.52"/><path fill="#fff" d="M63.273 80.276c10.375 0 18.786-8.422 18.786-18.811s-8.41-18.81-18.786-18.81-18.787 8.421-18.787 18.81 8.411 18.81 18.787 18.81"/><path fill="#000" d="M56.355 73.344c6.552 0 11.865-5.32 11.865-11.88 0-6.562-5.313-11.881-11.865-11.881s-11.866 5.319-11.866 11.88 5.313 11.88 11.866 11.88"/><defs><linearGradient id="a" x1="78.889" x2="-.01" y1="64.186" y2="64.186" gradientUnits="userSpaceOnUse"><stop stop-color="#C202D7"/><stop offset="1" stop-color="#E00189"/></linearGradient></defs></svg>