<svg width="342" height="316" viewBox="0 0 342 316" fill="none" xmlns="http://www.w3.org/2000/svg">
<path d="M230.497 204.04C205.018 229.551 163.699 229.558 138.214 204.04C112.735 178.529 112.728 137.157 138.214 111.639L230.702 19.0466C256.18 -6.46473 297.311 -6.29023 322.796 19.2279C348.275 44.7393 348.47 85.9294 322.984 111.448L230.497 204.04Z" fill="#C202D7"/>
<path d="M138.158 204.353C112.68 178.842 112.673 137.471 138.158 111.952C163.637 86.4411 204.955 86.4343 230.441 111.952L322.915 204.559C348.394 230.07 348.22 271.253 322.734 296.771C297.255 322.283 256.118 322.478 230.632 296.96L138.158 204.353Z" fill="#C202D7"/>
<path fill-rule="evenodd" clip-rule="evenodd" d="M138.88 205.101C164.368 229.821 205.019 229.556 230.185 204.327L276.237 158.164L230.08 111.883C205.734 87.4746 166.908 86.4386 141.331 108.757L138.094 112.001C113.599 136.56 112.703 175.813 135.389 201.448C136.224 202.387 137.091 203.308 137.99 204.208L138.88 205.101Z" fill="#C202D7"/>
<path d="M-0.00420591 65.2372C41.2943 24.4556 56.3429 0.0735083 92.1344 0.0735114C128.075 0.0735144 157.21 29.3282 157.21 65.4157C157.21 101.503 128.074 130.758 92.1344 130.758C56.3429 130.758 41.2942 106.133 -0.00420591 65.2372Z" fill="url(#paint0_linear_8820_25085)"/>
<path d="M63.2727 80.2755C73.6482 80.2755 82.0592 71.8537 82.0592 61.4649C82.0592 51.0761 73.6482 42.6543 63.2727 42.6543C52.8971 42.6543 44.4861 51.0761 44.4861 61.4649C44.4861 71.8537 52.8971 80.2755 63.2727 80.2755Z" fill="white"/>
<path d="M56.3545 73.3438C62.9074 73.3438 68.2197 68.0248 68.2197 61.4634C68.2197 54.902 62.9074 49.583 56.3545 49.583C49.8015 49.583 44.4893 54.902 44.4893 61.4634C44.4893 68.0248 49.8015 73.3438 56.3545 73.3438Z" fill="black"/>
<defs>
<linearGradient id="paint0_linear_8820_25085" x1="78.8886" y1="64.1859" x2="-0.0103641" y2="64.1859" gradientUnits="userSpaceOnUse">
<stop stop-color="#C202D7"/>
<stop offset="1" stop-color="#E00189"/>
</linearGradient>
</defs>
</svg>
